<?xml version="1.0" standalone="no"?>
<!DOCTYPE svg PUBLIC "-//W3C//DTD SVG 1.1//EN" "http://www.w3.org/Graphics/SVG/1.1/DTD/svg11.dtd" >
<svg xmlns="http://www.w3.org/2000/svg" xmlns:xlink="http://www.w3.org/1999/xlink" version="1.1">
<metadata>
Created by FontForge 20170731 at Thu Nov  2 05:51:25 2023
 By Aleksey,,,
(c) Bayerische Motoren Werke AG (BMW AG) 2019. The font is subject to copyright protection and other intellectual property rights. All rights reserved.
</metadata>
<defs>
<font id="VN_BMWTypeNextLatin-Regular" horiz-adv-x="1208" >
  <font-face 
    font-family="VN_BMWTypeNext Latin Regular"
    font-weight="400"
    font-stretch="normal"
    units-per-em="2048"
    panose-1="0 0 0 0 0 0 0 0 0 0"
    ascent="1638"
    descent="-410"
    x-height="1081"
    cap-height="1544"
    bbox="-324 -573 2945 2343"
    underline-thickness="102"
    underline-position="-462"
    unicode-range="U+000D-FB02"
  />
<missing-glyph horiz-adv-x="1228" 
d="M102 0v1544h1024v-1544h-1024zM657 772l398 -643v1284zM571 772l-397 641v-1284zM614 842l392 633h-783zM614 702l-391 -632h783z" />
    <glyph glyph-name=".notdef" horiz-adv-x="1228" 
d="M102 0v1544h1024v-1544h-1024zM657 772l398 -643v1284zM571 772l-397 641v-1284zM614 842l392 633h-783zM614 702l-391 -632h783z" />
    <glyph glyph-name="uni0000" horiz-adv-x="0" 
 />
    <glyph glyph-name="uni0000" horiz-adv-x="0" 
 />
    <glyph glyph-name="uni000D" unicode="&#xd;" horiz-adv-x="514" 
 />
    <glyph glyph-name="space" unicode=" " horiz-adv-x="509" 
 />
    <glyph glyph-name="exclam" unicode="!" horiz-adv-x="595" 
d="M217 1544h201v-295q0 -635 -4 -757h-193q-4 122 -4 757v295zM205 0v311h225v-311h-225z" />
    <glyph glyph-name="quotedbl" unicode="&#x22;" horiz-adv-x="899" 
d="M532 1360v184h209v-184q0 -148 -22 -483h-164q-23 351 -23 483zM182 877q-22 336 -22 483v184h209v-184q0 -132 -23 -483h-164z" />
    <glyph glyph-name="numbersign" unicode="#" horiz-adv-x="1331" 
d="M281 393h-224v164h248l70 434h-223v164h247l62 391h170l-62 -391h312l61 391h170l-61 -391h223v-164h-248l-70 -434h224v-164h-248l-62 -393h-170l62 393h-311l-62 -393h-170zM545 991l-70 -434h311l70 434h-311z" />
    <glyph glyph-name="dollar" unicode="$" horiz-adv-x="1388" 
d="M487 748q-69 24 -116 45t-92 53t-71 71t-42 94.5t-16 127.5q0 108 32 187t93.5 127t141.5 72t185 29v201h182v-205q175 -18 408 -75v-195q-356 86 -512 86q-61 0 -100.5 -2.5t-87.5 -15t-76 -35t-47 -64.5t-19 -102q0 -53 10.5 -86.5t40.5 -56.5q44 -34 205 -89l279 -92
q68 -23 117.5 -45.5t96.5 -56t76 -74.5t46.5 -98t17.5 -129q0 -203 -123.5 -307.5t-331.5 -118.5v-225h-182v223q-161 9 -438 63v195q343 -70 518 -70q57 0 101.5 4t94.5 18.5t83 39t55 68.5t22 104q0 92 -45 137q-19 19 -52 35.5t-62 27.5t-95 33z" />
    <glyph glyph-name="percent" unicode="%" horiz-adv-x="2197" 
d="M137 1112q0 132 16 211t60 135q41 52 112.5 80.5t161.5 28.5q86 0 149 -23.5t102 -63t62 -99.5t31.5 -123.5t8.5 -145.5q0 -99 -16 -175t-54.5 -140t-109.5 -98.5t-173 -34.5q-88 0 -151.5 21.5t-101.5 58t-60 96t-29.5 122.5t-7.5 150zM1358 426q0 132 16 211t60 135
q41 52 112.5 80.5t161.5 28.5q86 0 149 -23.5t101.5 -63t61.5 -99.5t31.5 -123.5t8.5 -145.5q0 -78 -9.5 -141.5t-34 -122.5t-63 -98.5t-101 -63t-144.5 -23.5q-88 0 -151.5 22t-101.5 58t-60 96t-29.5 123t-7.5 150zM803 0h-203l803 1544h205zM1530 426q0 -99 8 -154.5
t35 -87.5q23 -27 53.5 -37t81.5 -10q36 0 64.5 9.5t47.5 23.5t32 38t20 46t10.5 55.5t4.5 57t1 59.5q0 94 -7.5 146.5t-31.5 86.5q-45 62 -141 62q-100 0 -139 -55q-24 -36 -31.5 -88t-7.5 -152zM309 1112q0 -99 8 -154.5t35 -87.5q23 -27 53.5 -37t81.5 -10q50 0 85.5 18
t53.5 43t28 68.5t12 76t2 83.5q0 95 -7.5 147.5t-31.5 86.5q-44 61 -142 61q-100 0 -139 -55q-24 -36 -31.5 -88t-7.5 -152z" />
    <glyph glyph-name="ampersand" unicode="&#x26;" horiz-adv-x="1566" 
d="M113 381q0 69 17 131t42.5 107.5t70.5 95t83.5 83t99.5 81.5q-145 152 -145 331q0 369 444 369q158 0 381 -57v-197q-251 64 -381 64q-117 0 -180.5 -41.5t-63.5 -151.5q0 -39 14 -74t31.5 -59.5t57.5 -71.5q81 -96 362 -377h-264l-129 129q-46 -34 -73 -55.5t-63.5 -58
t-56.5 -68t-34.5 -75.5t-14.5 -91q0 -129 70.5 -184t202.5 -55q88 0 163 31t127 76.5t117 121.5l195 229h239l-223 -268l336 -346h-272l-191 197q-117 -121 -226.5 -176.5t-264.5 -55.5q-214 0 -342.5 103t-128.5 313z" />
    <glyph glyph-name="quotesingle" unicode="'" horiz-adv-x="528" 
d="M182 877q-22 336 -22 483v184h209v-184q0 -132 -23 -483h-164z" />
    <glyph glyph-name="parenleft" unicode="(" horiz-adv-x="667" 
d="M250 -238q-53 64 -70.5 148t-17.5 201v933q0 243 100.5 364.5t341.5 178.5v-180q-68 -25 -113 -53.5t-72 -59.5t-41 -79t-18 -95t-4 -123v-839q0 -65 2.5 -105.5t11 -84.5t24.5 -71.5t44 -56t68.5 -50t97.5 -42.5v-180q-243 58 -354 194z" />
    <glyph glyph-name="parenright" unicode=")" horiz-adv-x="667" 
d="M63 1407v180q245 -58 355 -194q53 -64 70.5 -148t17.5 -201v-933q0 -164 -45 -270t-140 -170t-258 -103v180q57 21 97.5 42.5t68.5 50t44 56t24.5 71.5t11 84.5t2.5 105.5v839q0 64 -2.5 105t-11.5 84t-25 71.5t-43.5 57t-68 50t-97.5 42.5z" />
    <glyph glyph-name="asterisk" unicode="*" horiz-adv-x="1134" 
d="M498 1004l-316 -189v172l234 133l-234 135v172l316 -188l-4 305h149l-6 -305l315 188v-172l-233 -135l233 -133v-172l-315 189l6 -306h-149z" />
    <glyph glyph-name="plus" unicode="+" horiz-adv-x="1433" 
d="M156 866h465v475h192v-475h465v-188h-465v-475h-192v475h-465v188z" />
    <glyph glyph-name="comma" unicode="," horiz-adv-x="555" 
d="M285 -367h-156q17 77 25.5 125t16 130t7.5 178v245h217v-260q0 -79 -20 -164t-39 -134t-51 -120z" />
    <glyph glyph-name="hyphen" unicode="-" horiz-adv-x="878" 
d="M750 446h-623v195h623v-195z" />
    <glyph glyph-name="period" unicode="." horiz-adv-x="555" 
d="M395 0h-235v311h235v-311z" />
    <glyph glyph-name="slash" unicode="/" horiz-adv-x="813" 
d="M221 0h-207l580 1544h205z" />
    <glyph glyph-name="zero" unicode="0" horiz-adv-x="1349" 
d="M672 -35q-82 0 -149.5 15.5t-117 39t-88 67t-64 82t-43 103t-26.5 112t-13.5 126t-5.5 128t-1 134.5q0 102 2 168t12.5 159.5t30.5 154t57.5 128t90.5 106.5t133.5 65t183.5 26q79 0 144.5 -15.5t114.5 -41t87.5 -66.5t65 -84t45.5 -103t29.5 -113t16.5 -123t7.5 -126
t1.5 -129q0 -75 -1.5 -130t-7 -127.5t-16 -125t-29 -114t-44.5 -105t-65.5 -86t-88.5 -68t-115.5 -41.5t-146.5 -16zM362 768q0 -208 14.5 -329t61.5 -189q66 -96 236 -96q171 0 241 120q42 74 57 191.5t15 312.5q0 191 -17 313.5t-61 190.5q-69 109 -237 109
q-171 0 -240 -115q-41 -70 -55.5 -189t-14.5 -319z" />
    <glyph glyph-name="one" unicode="1" horiz-adv-x="786" 
d="M582 0h-197v1325l-381 -119v197l578 182v-1585z" />
    <glyph glyph-name="two" unicode="2" horiz-adv-x="1177" 
d="M59 190q504 544 621 687q76 94 109.5 156t33.5 138q0 55 -16 95t-41.5 64t-65.5 38t-80.5 18.5t-93.5 4.5q-138 0 -415 -74v194q261 68 428 68q83 0 153 -12.5t132.5 -41.5t106 -73.5t68.5 -112.5t25 -155q0 -125 -50.5 -226.5t-160.5 -230.5q-276 -321 -494 -539h762
v-188h-1022v190z" />
    <glyph glyph-name="three" unicode="3" horiz-adv-x="1204" 
d="M82 201q277 -47 414 -47q60 0 109 7t95.5 26t78 48.5t50.5 78t19 112.5q0 85 -32 140.5t-99 92.5q-26 15 -62 22t-63.5 8t-83.5 1h-270v187h432l73 100q91 126 91 213q0 51 -18 89t-45.5 59t-69.5 33.5t-80.5 16t-88.5 3.5q-139 0 -438 -68v193q279 63 441 63
q147 0 239 -27t156 -90q100 -97 100 -262q0 -63 -23 -123t-69 -135q-15 -23 -33 -49.5t-36.5 -51.5t-24.5 -34q203 -120 203 -379q0 -99 -27.5 -177.5t-76.5 -131.5t-118.5 -88t-150.5 -50.5t-176 -15.5q-157 0 -416 45v191z" />
    <glyph glyph-name="four" unicode="4" horiz-adv-x="1255" 
d="M76 326v188l717 1032h241l-717 -1032h572v338h194v-852h-194v326h-813z" />
    <glyph glyph-name="five" unicode="5" horiz-adv-x="1214" 
d="M164 6v193q245 -45 377 -45q168 0 254 72t86 235q0 144 -86 211q-47 36 -130 50.5t-241 14.5h-238v807h848v-188h-653v-430h149q262 0 392 -99q77 -60 117 -155.5t40 -208.5q0 -251 -137.5 -374.5t-392.5 -123.5q-144 0 -385 41z" />
    <glyph glyph-name="six" unicode="6" horiz-adv-x="1302" 
d="M668 -35q-143 0 -243.5 41t-158 121t-83 184t-25.5 244q0 96 5 175.5t20.5 167t40.5 159t68 139.5t101 119q217 192 680 256v-191q-70 -12 -125 -23t-124 -31t-121.5 -43t-108 -58t-94 -77.5t-68 -100.5t-41.5 -127q159 6 250 6q155 0 254.5 -31t161.5 -98
q112 -121 112 -332q0 -240 -129.5 -370t-371.5 -130zM365 735q-9 -76 -9 -196q0 -74 7 -129t27.5 -105.5t54.5 -82.5t90 -51t133 -19q303 0 303 313q0 87 -23.5 143t-73 84.5t-107 38.5t-144.5 10q-105 0 -258 -6z" />
    <glyph glyph-name="seven" unicode="7" horiz-adv-x="1075" 
d="M340 0h-225l694 1356h-791v188h1016v-186z" />
    <glyph glyph-name="eight" unicode="8" horiz-adv-x="1404" 
d="M702 -35q-97 0 -175.5 13t-148.5 44.5t-117 81.5t-74 127.5t-27 178.5q0 228 229 393q-188 91 -188 356q0 112 39 195t110 131t159.5 71t197.5 23q83 0 156.5 -15t136.5 -47.5t108.5 -81t71.5 -119t26 -157.5q0 -61 -13.5 -112t-43 -97.5t-59 -80.5t-78.5 -83
q121 -64 177 -151.5t56 -224.5q0 -95 -28.5 -171t-78 -126.5t-119 -84.5t-148 -48.5t-169.5 -14.5zM358 416q0 -82 25 -137t74.5 -83t107.5 -38.5t140 -10.5q342 0 342 267q0 74 -27.5 124.5t-93.5 86.5q-89 48 -373 102q-49 -42 -75 -66.5t-58.5 -65t-47 -84t-14.5 -95.5z
M705 1397q-69 0 -122 -12t-96 -38.5t-65.5 -75.5t-22.5 -118q0 -78 18 -124.5t64 -74.5q28 -18 94 -37.5t114.5 -30.5t158.5 -34q78 78 119 145.5t41 155.5q0 244 -303 244z" />
    <glyph glyph-name="nine" unicode="9" horiz-adv-x="1302" 
d="M596 596q-240 0 -351.5 113.5t-111.5 351.5q0 518 490 518q99 0 178 -23.5t133 -62t93.5 -99t62 -122.5t35 -146.5t16.5 -157t4 -165.5q0 -79 -2.5 -142t-10.5 -136t-21 -130t-36 -117t-54.5 -105t-77 -85.5t-102 -66.5t-132 -41t-164.5 -15q-136 0 -361 43v193
q230 -47 355 -47q162 0 247 59q84 58 122 170.5t38 234.5q-202 -22 -350 -22zM627 1393q-160 0 -227.5 -84.5t-67.5 -247.5q0 -161 63.5 -221t229.5 -60q126 0 321 25q0 178 -15 289.5t-61 183.5q-70 115 -243 115z" />
    <glyph glyph-name="colon" unicode=":" horiz-adv-x="555" 
d="M395 0h-235v311h235v-311zM395 770h-235v311h235v-311z" />
    <glyph glyph-name="semicolon" unicode=";" horiz-adv-x="555" 
d="M285 -367h-156q17 79 25.5 126t16 129t7.5 178v247h217v-262q0 -79 -20 -164t-39 -134t-51 -120zM160 770v311h235v-311h-235z" />
    <glyph glyph-name="less" unicode="&#x3c;" horiz-adv-x="1433" 
d="M1278 205l-1122 477v180l1122 477v-200l-868 -367l868 -366v-201z" />
    <glyph glyph-name="equal" unicode="=" horiz-adv-x="1433" 
d="M1278 461h-1122v186h1122v-186zM1278 895h-1122v186h1122v-186z" />
    <glyph glyph-name="greater" unicode="&#x3e;" horiz-adv-x="1433" 
d="M156 1339l1122 -477v-180l-1122 -477v201l868 366l-868 367v200z" />
    <glyph glyph-name="question" unicode="?" horiz-adv-x="1081" 
d="M139 1329v193q230 57 387 57q94 0 171.5 -21t138.5 -63.5t95 -116t34 -170.5q0 -95 -28 -170t-91 -155q-80 -102 -184 -217q-88 -97 -117 -174h-217q25 70 55 123t90 120q143 159 193 223q49 64 74.5 119.5t25.5 120.5q0 46 -14.5 81t-38.5 56t-59 34t-70.5 17.5
t-79.5 4.5q-111 0 -365 -62zM322 311h227v-311h-227v311z" />
    <glyph glyph-name="at" unicode="@" horiz-adv-x="1955" 
d="M160 471q0 202 49 378.5t156 293.5q97 106 236.5 155.5t379.5 49.5q91 0 201.5 -19.5t229.5 -55.5t190.5 -60.5t169.5 -61.5v-616q0 -116 -17.5 -204.5t-68.5 -154.5q-78 -102 -213.5 -150.5t-282.5 -48.5v158q-80 -74 -155 -118t-158 -44q-59 0 -107 16.5t-80.5 43
t-56.5 67t-37.5 82t-21.5 94.5t-10.5 97.5t-2.5 97.5q0 237 76 350q54 80 130.5 113t209.5 33q57 0 130.5 -16t120 -30.5t144.5 -48.5v-710q45 14 80 32.5t59 38.5t40.5 48.5t26 54.5t14 65.5t6 71.5t1.5 82v483q-418 146 -618 146q-184 0 -290.5 -33t-180.5 -107
q-176 -176 -176 -573q0 -122 11.5 -215.5t43 -181t84 -150.5t136 -111.5t198.5 -76.5v-174q-183 40 -309 117t-200 194t-106 261.5t-32 336.5zM788 709q-43 -77 -43 -238q0 -164 31 -235q19 -45 47 -64.5t78 -19.5q41 0 77.5 17.5t84.5 53.5q67 50 127 103v426
q-135 43 -207 43q-77 0 -122 -18t-73 -68z" />
    <glyph glyph-name="A" unicode="A" horiz-adv-x="1454" 
d="M23 0l573 1544h258l578 -1544h-215l-134 358h-721l-133 -358h-206zM428 547h588l-293 796z" />
    <glyph glyph-name="B" unicode="B" horiz-adv-x="1490" 
d="M821 0h-637v1544h652q126 0 206.5 -13.5t141.5 -49.5q72 -43 112.5 -120t40.5 -173q0 -66 -20 -123t-60 -129q-31 -53 -83 -135q104 -69 151 -152.5t47 -206.5q0 -442 -551 -442zM868 694h-487v-506h442q78 0 134 9.5t108 35t79 78t27 131.5q0 252 -303 252zM381 883h629
q41 65 65 108q32 54 47 94t15 86q0 38 -11 67.5t-26.5 49t-43 33t-51 20t-60.5 10.5t-60.5 4.5t-61.5 0.5h-442v-473z" />
    <glyph glyph-name="C" unicode="C" horiz-adv-x="1347" 
d="M762 -35q-108 0 -195.5 21.5t-150 59t-109.5 95.5t-76 122.5t-46.5 148t-24 165.5t-6.5 181q0 103 6 186.5t23.5 170.5t46 154t75.5 127t110.5 99t152.5 61.5t200 22.5q190 0 477 -80v-196q-177 46 -250 59q-139 27 -213 27q-143 0 -227 -42.5t-133 -140.5
q-68 -136 -68 -446q0 -283 62 -416q46 -99 132.5 -143.5t233.5 -44.5q149 0 463 69v-194q-304 -66 -483 -66z" />
    <glyph glyph-name="D" unicode="D" horiz-adv-x="1519" 
d="M705 0h-521v1544h537q171 0 278.5 -32.5t188.5 -114.5q178 -181 178 -619q0 -443 -199 -633q-84 -81 -191.5 -113t-270.5 -32zM381 1354v-1164h326q130 0 210 31t138 101q110 133 110 456q0 333 -116 471q-53 63 -129.5 84t-198.5 21h-340z" />
    <glyph glyph-name="E" unicode="E" horiz-adv-x="1339" 
d="M184 1544h1045v-190h-848v-471h803v-191h-803v-502h881v-190h-1078v1544z" />
    <glyph glyph-name="F" unicode="F" horiz-adv-x="1284" 
d="M184 1544h1041v-190h-844v-492h772v-190h-772v-670h-197v1542z" />
    <glyph glyph-name="G" unicode="G" horiz-adv-x="1497" 
d="M248 229q-94 178 -94 529q0 103 6.5 186.5t23.5 170.5t46 154t76 127t110.5 99t153 61.5t200.5 22.5q170 0 494 -82v-197q-207 51 -279 64q-142 25 -201 25q-145 0 -228 -42t-132 -141q-70 -140 -70 -446q0 -288 64 -422q44 -94 131.5 -138t232.5 -44q130 0 338 26v643
h197v-809q-322 -51 -555 -51q-111 0 -196 18.5t-144.5 55.5t-99.5 82t-74 108z" />
    <glyph glyph-name="H" unicode="H" horiz-adv-x="1550" 
d="M381 0h-197v1544h197v-635h788v635h197v-1544h-197v719h-788v-719z" />
    <glyph glyph-name="I" unicode="I" horiz-adv-x="565" 
d="M381 0h-197v1544h197v-1544z" />
    <glyph glyph-name="J" unicode="J" horiz-adv-x="788" 
d="M-33 -213v201q212 68 314 127q46 27 70.5 52t37.5 62q21 62 21 242v1073h196v-1079v-39.5v-39.5v-35.5t-0.5 -36t-1.5 -32t-2.5 -32.5t-3.5 -29t-5 -30l-6.5 -26t-8.5 -26q-33 -93 -129 -151q-89 -54 -232 -111.5t-250 -89.5z" />
    <glyph glyph-name="K" unicode="K" horiz-adv-x="1353" 
d="M381 0h-197v1544h197v-733l682 733h262l-707 -760l773 -784h-275l-735 745v-745z" />
    <glyph glyph-name="L" unicode="L" horiz-adv-x="1253" 
d="M1196 0h-1012v1544h197v-1354h815v-190z" />
    <glyph glyph-name="M" unicode="M" horiz-adv-x="1804" 
d="M184 1544h275l444 -1003l445 1003h272v-1544h-195v1276l-428 -969h-190l-428 969v-1276h-195v1544z" />
    <glyph glyph-name="N" unicode="N" horiz-adv-x="1548" 
d="M184 1544h244l741 -1259v1259h195v-1544h-244l-741 1260v-1260h-195v1544z" />
    <glyph glyph-name="O" unicode="O" horiz-adv-x="1615" 
d="M270 197q-116 185 -116 573q0 149 16 264.5t60 221t116 174t189 109t274 40.5q193 0 314 -53.5t204 -169.5q70 -98 102.5 -254t32.5 -332q0 -147 -17.5 -262.5t-62.5 -220t-117.5 -173.5t-187.5 -109t-268 -40q-217 0 -341.5 56.5t-197.5 175.5zM354 770q0 -322 78 -459
q28 -48 67 -80t90.5 -47.5t102 -21.5t117.5 -6q84 0 150.5 16.5t113.5 44.5t81.5 73t55 93.5t32.5 115t16 129t4 142.5q0 316 -88 457q-54 88 -144.5 125t-220.5 37q-135 0 -230.5 -39.5t-150.5 -137.5q-74 -135 -74 -442z" />
    <glyph glyph-name="P" unicode="P" horiz-adv-x="1372" 
d="M184 0v1544h611q487 0 487 -467q0 -235 -108.5 -356.5t-339.5 -136.5q-90 -6 -453 -6v-578h-197zM381 1354v-586q328 0 432 8q153 12 210.5 79t57.5 222q0 147 -73 217q-36 35 -90 47.5t-142 12.5h-395z" />
    <glyph glyph-name="Q" unicode="Q" horiz-adv-x="1615" 
d="M154 770q0 149 16 264.5t60 221t116 174t189 109t274 40.5q193 0 314 -53.5t204 -169.5q70 -98 102.5 -254t32.5 -332q0 -95 -7.5 -176.5t-29.5 -174.5t-59 -165.5t-100 -136t-148 -99.5l330 -81v-185l-766 197q-133 37 -227.5 83t-153.5 126q-147 198 -147 612zM354 770
q0 -322 78 -459q28 -48 67 -80t90.5 -47.5t102 -21.5t117.5 -6q84 0 150.5 16.5t113.5 44.5t81.5 73t55 93.5t32.5 115t16 129t4 142.5q0 316 -88 457q-54 88 -144.5 125t-220.5 37q-135 0 -230.5 -39.5t-150.5 -137.5q-74 -135 -74 -442z" />
    <glyph glyph-name="R" unicode="R" horiz-adv-x="1441" 
d="M381 0h-197v1544h588q157 0 251.5 -20t164.5 -74q68 -52 103.5 -137t35.5 -187q0 -95 -34.5 -168.5t-102.5 -154.5q-42 -50 -168 -176l383 -627h-234l-362 596h-428v-596zM381 786h537q70 74 112 123q96 110 96 217q0 37 -7.5 67.5t-18.5 53t-32 39.5t-38.5 28.5t-48 19
t-51.5 11.5t-57.5 6t-57.5 2.5t-59 0.5h-375v-568z" />
    <glyph glyph-name="S" unicode="S" horiz-adv-x="1318" 
d="M106 1151q0 207 134 324q66 58 158.5 81t232.5 23q80 0 186 -16t173 -30.5t179 -41.5v-197q-388 95 -534 95q-56 0 -98.5 -4t-88 -18.5t-74.5 -38.5t-48 -67t-19 -102q0 -105 49 -149q18 -16 49 -31t58 -25t84 -30l307 -103q73 -24 123 -46.5t98 -56.5t75.5 -75
t44.5 -100t17 -135q0 -199 -133 -320q-72 -66 -175 -94.5t-259 -28.5q-176 0 -526 74v194q355 -77 534 -77q46 0 86 4t82.5 13t75 27t59.5 44.5t41.5 66t14.5 90.5q0 98 -47 148q-6 6 -13 12t-13.5 10.5t-17 10t-17.5 9t-20.5 9t-21 8.5t-25 9t-25 8.5l-28.5 9.5l-30 10
l-310 105q-88 30 -144 59t-103.5 74.5t-69 111t-21.5 156.5z" />
    <glyph glyph-name="T" unicode="T" horiz-adv-x="1368" 
d="M39 1354v190h1290v-190h-547v-1354h-196v1354h-547z" />
    <glyph glyph-name="U" unicode="U" horiz-adv-x="1513" 
d="M180 1544h197v-956q0 -83 5.5 -141t20.5 -109.5t41.5 -83.5t69 -55.5t102.5 -33t142 -9.5q98 0 165.5 16.5t109.5 47t65 86t31 119.5t8 163v956h196v-956q0 -194 -28.5 -308t-116.5 -190q-76 -67 -178.5 -96t-251.5 -29q-169 0 -280.5 35t-177.5 114t-93 192t-27 282v956
z" />
    <glyph glyph-name="V" unicode="V" horiz-adv-x="1392" 
d="M575 0l-577 1544h215l483 -1306l486 1306h213l-578 -1544h-242z" />
    <glyph glyph-name="W" unicode="W" horiz-adv-x="1871" 
d="M369 0l-320 1544h201l272 -1313l303 1080h224l305 -1080l270 1313h199l-318 -1544h-272l-297 1053l-295 -1053h-272z" />
    <glyph glyph-name="X" unicode="X" horiz-adv-x="1368" 
d="M238 0h-236l530 782l-499 762h239l412 -631l414 631h233l-495 -749l530 -795h-242l-440 664z" />
    <glyph glyph-name="Y" unicode="Y" horiz-adv-x="1286" 
d="M545 588l-568 956h232l436 -741l436 741h228l-568 -956v-588h-196v588z" />
    <glyph glyph-name="Z" unicode="Z" horiz-adv-x="1337" 
d="M1245 0h-1153v193l887 1161h-856v190h1108v-192l-887 -1162h901v-190z" />
    <glyph glyph-name="bracketleft" unicode="[" horiz-adv-x="694" 
d="M623 -393h-443v1937h443v-182h-248v-1573h248v-182z" />
    <glyph glyph-name="backslash" unicode="\" horiz-adv-x="813" 
d="M799 0h-205l-580 1544h207z" />
    <glyph glyph-name="bracketright" unicode="]" horiz-adv-x="694" 
d="M317 1362h-247v182h442v-1937h-442v182h247v1573z" />
    <glyph glyph-name="asciicircum" unicode="^" horiz-adv-x="1677" 
d="M106 686l644 858h182l639 -858h-246l-485 655l-488 -655h-246z" />
    <glyph glyph-name="underscore" unicode="_" horiz-adv-x="1024" 
d="M1024 -299h-1024v190h1024v-190z" />
    <glyph glyph-name="grave" unicode="`" horiz-adv-x="899" 
d="M664 1249h-220l-264 295h230z" />
    <glyph glyph-name="a" unicode="a" 
d="M479 -35q-92 0 -160 36t-106 90.5t-61 134.5t-30 151t-7 158q0 107 12.5 190.5t44.5 158.5t84.5 124.5t136 78.5t195.5 29q69 0 152.5 -18t142 -37t170.5 -60v-1001h-193v166q-51 -46 -85.5 -73t-86 -61t-104 -50.5t-105.5 -16.5zM596 934q-74 0 -127.5 -22t-83.5 -56.5
t-47.5 -89t-23 -107t-5.5 -124.5q0 -199 37 -283q23 -54 61 -78t99 -24q81 0 203 94q57 44 151 125v503q-171 62 -264 62z" />
    <glyph glyph-name="b" unicode="b" horiz-adv-x="1216" 
d="M156 43v1501h192v-553q106 58 193 91.5t174 33.5q93 0 163.5 -35t112 -89.5t67.5 -132t35 -152t9 -160.5q0 -258 -94 -404q-60 -92 -146 -135t-231 -43q-75 0 -164 12.5t-151 26.5t-160 39zM348 190q155 -43 277 -43q69 0 120.5 22.5t82 59t48.5 90t24.5 106.5t6.5 118
q0 41 -1 72.5t-6 74.5t-14 74.5t-25.5 65.5t-39.5 55t-58 35t-79 14q-104 0 -336 -129v-615z" />
    <glyph glyph-name="c" unicode="c" horiz-adv-x="997" 
d="M201 143q-86 140 -86 392q0 240 63 366q54 109 145.5 162t258.5 53q118 0 340 -59v-189q-227 66 -324 66q-101 0 -158 -27t-90 -98q-41 -90 -41 -270q0 -182 51 -281q31 -61 88.5 -86t149.5 -25q107 0 324 58v-189q-230 -51 -338 -51q-154 0 -240.5 42.5t-142.5 135.5z
" />
    <glyph glyph-name="d" unicode="d" horiz-adv-x="1218" 
d="M115 539q0 99 9 176.5t36 155.5t72.5 129.5t122.5 83.5t182 32q125 0 333 -65v493h193v-1544h-193v135q-103 -78 -196.5 -124t-192.5 -46q-77 0 -137.5 24.5t-99.5 69t-65.5 98t-40 122.5t-18.5 129.5t-5 130.5zM354 823q-45 -95 -45 -282q0 -188 39 -285q22 -56 60 -80
t106 -24q122 0 356 182v534q-209 66 -303 66q-81 0 -133 -25.5t-80 -85.5z" />
    <glyph glyph-name="e" unicode="e" horiz-adv-x="1161" 
d="M115 535q0 108 12.5 191.5t45 159t86 124.5t138.5 77.5t199 28.5q230 0 343.5 -110t113.5 -334q0 -102 -21 -217h-727q0 -167 79 -240.5t251 -73.5q125 0 362 43v-178q-225 -41 -374 -41q-101 0 -178.5 16.5t-133.5 50t-94 80.5t-60.5 112.5t-32 140t-9.5 170.5zM305 608
h553q6 42 6 86q0 129 -67 190.5t-201 61.5q-160 0 -225.5 -86.5t-65.5 -251.5z" />
    <glyph glyph-name="f" unicode="f" horiz-adv-x="653" 
d="M156 1065q0 145 16 219q23 102 102 164q62 48 151 78.5t218 60.5v-188q-56 -13 -92 -23.5t-81.5 -31.5t-72.5 -48q-38 -38 -45 -104q-4 -33 -4 -125h297v-182h-297v-885h-192v1065z" />
    <glyph glyph-name="g" unicode="g" horiz-adv-x="1210" 
d="M117 547q0 258 78 391q57 97 148 137.5t237 40.5q68 0 162.5 -20t156 -39t156.5 -51v-908q0 -268 -136 -397t-407 -129q-122 0 -354 29v180q229 -31 354 -31q165 0 257.5 79.5t92.5 240.5v36q-218 -106 -366 -106q-68 0 -123 16.5t-94 45t-68 70.5t-47 87.5t-28.5 103
t-14.5 110t-4 114.5zM311 547q0 -175 41 -268q23 -53 64 -75t112 -22q78 0 183 41q52 20 151 68v583q-177 60 -278 60q-90 0 -144 -25.5t-84 -87.5q-45 -90 -45 -274z" />
    <glyph glyph-name="h" unicode="h" horiz-adv-x="1202" 
d="M156 0v1544h192v-526q81 32 125.5 48t113.5 33t122 17q87 0 148.5 -21t98.5 -56.5t58 -93.5t28 -118t7 -145v-682h-193v674q0 47 -1 73t-6.5 61t-17 53t-31.5 36t-52 25.5t-76 7.5q-102 0 -324 -96v-834h-192z" />
    <glyph glyph-name="i" unicode="i" horiz-adv-x="503" 
d="M348 0h-192v1081h192v-1081zM350 1255h-196v289h196v-289z" />
    <glyph glyph-name="j" unicode="j" horiz-adv-x="528" 
d="M-94 -240q35 12 62 22.5t62 28.5t59.5 37t46.5 46.5t32 58.5q12 39 12 180v948h193v-968q0 -170 -21 -234q-16 -51 -53.5 -96t-80.5 -76t-102.5 -59.5t-105.5 -45.5t-104 -34v192zM178 1255v289h197v-289h-197z" />
    <glyph glyph-name="k" unicode="k" horiz-adv-x="1087" 
d="M348 0h-192v1544h192v-930l455 467h262l-485 -497l526 -584h-260l-498 553v-553z" />
    <glyph glyph-name="l" unicode="l" horiz-adv-x="503" 
d="M348 0h-192v1544h192v-1544z" />
    <glyph glyph-name="m" unicode="m" horiz-adv-x="1820" 
d="M156 0v1081h192v-75q229 110 348 110q42 0 79.5 -6t75.5 -20.5t67.5 -41.5t44.5 -65q66 37 114 61t123.5 48t136.5 24q86 0 147 -22t96 -57.5t55 -94.5t26 -118t6 -144v-680h-192v672q0 81 -6.5 128.5t-28.5 78.5q-22 30 -53.5 40.5t-79.5 10.5q-43 0 -106 -22t-99.5 -40
t-93.5 -49v-819h-193v694q0 142 -29 185q-20 30 -50 40.5t-79 10.5q-95 0 -309 -107v-823h-192z" />
    <glyph glyph-name="n" unicode="n" 
d="M156 0v1081h192v-71q255 106 373 106q85 0 146 -22t97 -57.5t56.5 -93.5t27.5 -118t7 -143v-682h-193v676q0 39 -0.5 61t-4 53t-10.5 48.5t-20 37.5t-31.5 30t-46.5 17t-65 7q-105 0 -336 -103v-827h-192z" />
    <glyph glyph-name="o" unicode="o" 
d="M604 -35q-112 0 -196.5 26.5t-139.5 74.5t-89.5 120.5t-49 157t-14.5 191.5q0 106 13.5 190.5t48 159.5t89 124.5t140 78t198.5 28.5q112 0 196.5 -27.5t140 -76t90 -122t49 -158t14.5 -191.5q0 -105 -14.5 -189.5t-49.5 -158t-90.5 -123t-140 -77.5t-195.5 -28zM309 537
q0 -182 53 -277q35 -63 93.5 -88t148.5 -25q74 0 128 21.5t85.5 56.5t50.5 89t25 108t6 125q0 69 -6.5 122.5t-25.5 105t-51 85t-85.5 54t-126.5 20.5q-75 0 -129 -21.5t-85.5 -55.5t-50 -88t-24.5 -107.5t-6 -124.5z" />
    <glyph glyph-name="p" unicode="p" horiz-adv-x="1216" 
d="M156 1081h192v-110q200 145 354 145q94 0 166.5 -34.5t115.5 -89.5t70.5 -132.5t37.5 -153.5t10 -163q0 -578 -426 -578q-139 0 -328 88v-446h-192v1474zM348 778v-534q193 -94 299 -94q66 0 114 24t75.5 60t44 90.5t21.5 104.5t5 112q0 41 -1.5 75t-7.5 76t-16 74.5
t-27.5 65t-41.5 54t-60 35t-81 13.5q-79 0 -164 -53q-118 -73 -160 -103z" />
    <glyph glyph-name="q" unicode="q" horiz-adv-x="1218" 
d="M494 -35q-68 0 -124 18.5t-94.5 49t-68 75.5t-46.5 93.5t-28 108t-14.5 113t-3.5 114.5q0 107 12 190.5t44 158.5t84.5 124t136.5 77.5t196 28.5q161 0 475 -108v-1401h-193v485q-215 -127 -376 -127zM590 934q-73 0 -125.5 -22t-82.5 -56.5t-46.5 -89.5t-21.5 -106.5
t-5 -122.5q0 -186 39 -281q23 -57 65 -81.5t113 -24.5q146 0 344 133v594q-169 57 -280 57z" />
    <glyph glyph-name="r" unicode="r" horiz-adv-x="747" 
d="M156 1081h192v-131q95 71 177 104t206 52v-195q-213 -39 -383 -157v-754h-192v1081z" />
    <glyph glyph-name="s" unicode="s" horiz-adv-x="1054" 
d="M104 801q0 74 22.5 130t59 90.5t91 56.5t112 30t127.5 8q84 0 198 -21t193 -42v-185q-279 68 -387 68q-37 0 -61.5 -1.5t-57.5 -9t-53 -21t-34.5 -40t-14.5 -63.5q0 -68 43 -94q35 -22 131 -50l197 -59q55 -17 93.5 -33t76 -41t60 -55.5t36.5 -75.5t14 -102
q0 -326 -444 -326q-134 0 -389 51v185q274 -56 401 -56q36 0 64 2t62.5 10.5t57 23t38.5 42.5t16 66q0 56 -35 88q-30 26 -152 61l-190 58q-70 21 -115 42.5t-84.5 55.5t-57.5 85t-18 122z" />
    <glyph glyph-name="t" unicode="t" horiz-adv-x="706" 
d="M154 1360h192v-293h332v-182h-332v-449q0 -115 6 -160q9 -62 74 -83q55 -17 201 -25v-182q-223 11 -316 41q-56 19 -88 47t-47 71q-11 30 -16 73t-5.5 78.5t-0.5 135.5v928z" />
    <glyph glyph-name="u" unicode="u" horiz-adv-x="1193" 
d="M154 1081h192v-653q0 -40 0.5 -62t3 -54t8.5 -49.5t15.5 -39t24.5 -33.5t36 -23t50.5 -15.5t66.5 -4.5q125 0 295 46v888h192v-1030q-98 -27 -157.5 -42t-157.5 -29.5t-188 -14.5q-94 0 -161.5 21t-109.5 58t-67 96t-34 126t-9 158v657z" />
    <glyph glyph-name="v" unicode="v" horiz-adv-x="1062" 
d="M395 0l-385 1081h209l316 -905l315 905h203l-385 -1081h-273z" />
    <glyph glyph-name="w" unicode="w" horiz-adv-x="1665" 
d="M326 0l-301 1081h196l244 -882l256 882h227l256 -882l246 882h190l-303 -1081h-258l-248 860l-247 -860h-258z" />
    <glyph glyph-name="x" unicode="x" horiz-adv-x="1087" 
d="M231 0h-223l400 551l-381 530h231l285 -403l293 403h225l-381 -516l399 -565h-231l-303 436z" />
    <glyph glyph-name="y" unicode="y" horiz-adv-x="1099" 
d="M446 4l-434 1077h211l328 -825l328 825h208l-595 -1474h-205z" />
    <glyph glyph-name="z" unicode="z" horiz-adv-x="1056" 
d="M989 0h-917v168l630 731h-602v182h867v-168l-631 -731h653v-182z" />
    <glyph glyph-name="braceleft" unicode="{" horiz-adv-x="763" 
d="M59 682q67 13 109 29q45 18 66.5 48t21.5 81v428q0 142 65 209t203 67h172v-180h-106q-88 0 -113.5 -35.5t-25.5 -126.5v-407q0 -99 -47 -150.5t-142 -69.5q99 -23 144 -72.5t45 -150.5v-403q0 -91 25.5 -126.5t113.5 -35.5h106v-180h-172q-138 0 -203 68.5t-65 207.5
v424q0 57 -22.5 87.5t-77.5 47.5q-75 23 -97 27v213z" />
    <glyph glyph-name="bar" unicode="|" horiz-adv-x="536" 
d="M356 -393h-176v1937h176v-1937z" />
    <glyph glyph-name="braceright" unicode="}" horiz-adv-x="763" 
d="M68 -213h106q88 0 113.5 35.5t25.5 126.5v403q0 101 45 150.5t144 72.5q-96 18 -142.5 69.5t-46.5 150.5v407q0 91 -25.5 126.5t-113.5 35.5h-106v180h172q138 0 203 -67t65 -209v-428q0 -51 21.5 -81t66.5 -48q42 -16 109 -29v-213q-39 -8 -59.5 -13t-51 -17.5
t-46.5 -28t-28 -42t-12 -61.5v-424q0 -139 -65 -207.5t-203 -68.5h-172v180z" />
    <glyph glyph-name="asciitilde" unicode="~" horiz-adv-x="1677" 
d="M274 406h-198q40 282 131 407q92 127 280 127q92 0 175 -38.5t172 -115.5l120 -106q64 -56 119 -86.5t117 -30.5q54 0 88 25t61 82q39 79 64 233h199q-8 -60 -17 -108.5t-25 -106t-36.5 -101t-52 -86.5t-70 -70.5t-92 -44.5t-117.5 -17q-103 0 -187.5 38.5t-179.5 122.5
l-110 99q-46 40 -71 59.5t-67.5 38t-84.5 18.5q-40 0 -72.5 -15t-55 -45.5t-37.5 -60t-26 -75t-16 -73t-11 -70.5z" />
    <glyph glyph-name="uni00A0" unicode="&#xa0;" horiz-adv-x="509" 
 />
    <glyph glyph-name="exclamdown" unicode="&#xa1;" horiz-adv-x="595" 
d="M178 -393v295q0 635 4 757h193q4 -122 4 -757v-295h-201zM166 840v311h225v-311h-225z" />
    <glyph glyph-name="cent" unicode="&#xa2;" horiz-adv-x="1083" 
d="M150 535q0 69 5.5 127.5t19 121.5t39.5 112.5t64.5 91.5t97 67.5t132.5 31.5v220h178v-217q86 -9 266 -58v-188q-219 63 -327 63q-99 0 -158 -24.5t-90 -96.5q-33 -75 -33 -247q0 -71 5 -120.5t22 -98.5t47 -78.5t82 -47.5t125 -18q115 0 327 53v-186q-146 -37 -266 -47
v-227h-178v229q-358 33 -358 537z" />
    <glyph glyph-name="sterling" unicode="&#xa3;" horiz-adv-x="1286" 
d="M1161 0h-946v1167q0 203 84 299q55 64 131 88.5t205 24.5q160 0 446 -66v-192q-305 70 -432 70q-135 0 -186 -50.5t-51 -183.5v-186h434v-178h-434v-605h749v-188z" />
    <glyph glyph-name="currency" unicode="&#xa4;" horiz-adv-x="1591" 
d="M387 193h-217l258 290q-68 101 -68 287q0 187 68 287l-258 295h217l166 -189q102 51 244 51q132 0 239 -55l168 193h217l-260 -293q78 -109 78 -283q0 -181 -76 -291l256 -292h-217l-162 184q-88 -49 -243 -49q-150 0 -248 49zM797 1038q-135 0 -196.5 -65t-61.5 -201
q0 -139 61.5 -203.5t198.5 -64.5q135 0 198.5 68.5t63.5 205.5q0 129 -67.5 194.5t-196.5 65.5z" />
    <glyph glyph-name="yen" unicode="&#xa5;" horiz-adv-x="1388" 
d="M29 1544h231l440 -741l433 741h227l-340 -573h274v-178h-379l-120 -205v-588h-197v588l-121 205h-381v178h275z" />
    <glyph glyph-name="brokenbar" unicode="&#xa6;" horiz-adv-x="536" 
d="M356 688h-176v856h176v-856zM356 -393h-176v856h176v-856z" />
    <glyph glyph-name="section" unicode="&#xa7;" horiz-adv-x="1331" 
d="M164 735q0 123 164 301q-64 52 -87.5 103.5t-23.5 136.5q0 77 27.5 134t69.5 88.5t106 50.5t121.5 24.5t130.5 5.5q120 0 442 -57v-183q-322 62 -444 62q-86 0 -132.5 -7.5t-76.5 -27.5q-47 -31 -47 -98q0 -31 9 -49.5t32 -36.5q47 -36 155 -88l244 -119
q162 -78 225 -131q88 -73 88 -193q0 -99 -67 -180q-88 -107 -105 -125q65 -54 92 -107.5t27 -136.5q0 -75 -30 -133t-76.5 -92t-112 -55.5t-127.5 -29t-131 -7.5q-127 0 -424 49v184q294 -55 430 -55q32 0 55 1t59 5t61 13.5t49.5 24t37.5 39.5t13 58q0 52 -39 91
q-28 28 -150 88l-278 135q-147 70 -220 137q-67 60 -67 180zM477 956q-36 -36 -57 -59.5t-42.5 -64.5t-21.5 -78q0 -36 11.5 -58t38.5 -43q40 -33 141 -82l301 -145q42 47 76 90q51 66 51 119q0 60 -55 98q-65 43 -156 86z" />
    <glyph glyph-name="dieresis" unicode="&#xa8;" horiz-adv-x="899" 
d="M141 1544h189v-289h-189v289zM569 1544h189v-289h-189v289z" />
    <glyph glyph-name="copyright" unicode="&#xa9;" horiz-adv-x="1904" 
d="M147 772q0 243 95.5 425t278 282t431.5 100t431.5 -100t278 -282t95.5 -425q0 -367 -215.5 -587t-589.5 -220t-589.5 220t-215.5 587zM952 1432q-309 0 -480 -177t-171 -483t171 -482.5t480 -176.5t480.5 177t171.5 482q0 306 -171.5 483t-480.5 177zM551 770
q0 115 20 198t67 146.5t128.5 95t198.5 31.5q148 0 317 -49v-148q-208 52 -311 52q-85 0 -139.5 -21t-81.5 -66.5t-36 -99.5t-9 -139q0 -81 11 -134.5t40 -95t83 -60.5t138 -19q95 0 305 41v-148q-212 -39 -317 -39q-224 0 -319 114.5t-95 340.5z" />
    <glyph glyph-name="ordfeminine" unicode="&#xaa;" horiz-adv-x="995" 
d="M397 727q-291 0 -291 426q0 210 86 318t293 108q55 0 124 -13t117.5 -27t137.5 -42v-747h-170v131l-84 -68q-106 -86 -213 -86zM492 1415q-66 0 -109 -17.5t-65 -54.5t-29.5 -80.5t-7.5 -109.5q0 -134 24 -188q17 -37 43.5 -51.5t73.5 -14.5q99 0 270 160v315
q-128 41 -200 41z" />
    <glyph glyph-name="guillemotleft" unicode="&#xab;" horiz-adv-x="1187" 
d="M924 119l-353 422l353 422h235l-352 -422l352 -422h-235zM457 119l-353 422l353 422h235l-352 -422l352 -422h-235z" />
    <glyph glyph-name="logicalnot" unicode="&#xac;" horiz-adv-x="1433" 
d="M1278 403h-193v494h-929v184h1122v-678z" />
    <glyph glyph-name="registered" unicode="&#xae;" horiz-adv-x="1904" 
d="M147 772q0 367 215.5 587t589.5 220t589.5 -220t215.5 -587q0 -243 -95.5 -425t-278 -282t-431.5 -100t-431.5 100t-278 282t-95.5 425zM301 772q0 -306 171 -482.5t480 -176.5q308 0 480 177t172 482q0 304 -172.5 482t-479.5 178q-308 0 -479.5 -177.5t-171.5 -482.5z
M614 1219h390q55 0 100 -5.5t90 -21.5t76 -42t50 -70t19 -103q0 -110 -73 -195q-28 -33 -99 -104l203 -342h-176l-182 313h-248v-313h-150v883zM989 1077h-225v-286h317q105 105 105 178q0 29 -10 50t-24.5 32t-39 17t-44 7.5t-48.5 1.5h-31z" />
    <glyph glyph-name="macron" unicode="&#xaf;" horiz-adv-x="899" 
d="M795 1305h-691v149h691v-149z" />
    <glyph glyph-name="degree" unicode="&#xb0;" horiz-adv-x="960" 
d="M481 854q-173 0 -274 96t-101 262q0 169 101.5 268t273.5 99q171 0 272 -99.5t101 -267.5q0 -166 -101 -262t-272 -96zM274 1217q0 -94 55.5 -148.5t151.5 -54.5q93 0 149 54.5t56 148.5q0 93 -56 147.5t-149 54.5q-97 0 -152 -54t-55 -148z" />
    <glyph glyph-name="plusminus" unicode="&#xb1;" horiz-adv-x="1433" 
d="M156 866h465v475h192v-475h465v-188h-465v-420h-192v420h-465v188zM1278 0h-1122v188h1122v-188z" />
    <glyph glyph-name="twosuperior" unicode="&#xb2;" horiz-adv-x="837" 
d="M84 1075q250 217 344 311q53 53 73.5 86.5t20.5 67.5q0 58 -36.5 80t-98.5 22q-107 0 -283 -45v164q167 41 289 41q84 0 149 -22t108.5 -78t43.5 -141q0 -67 -21.5 -116t-74.5 -108q-94 -106 -270 -258h413v-157h-657v153z" />
    <glyph glyph-name="threesuperior" unicode="&#xb3;" horiz-adv-x="880" 
d="M109 1083q181 -32 266 -32q31 0 52 1.5t49 7.5t45 17.5t29.5 34t12.5 53.5t-10.5 52.5t-26 33t-40.5 18t-46 8t-51 1.5h-190v149h290l27 35q22 28 30.5 48t8.5 46q0 32 -14 52.5t-41 29t-49.5 11t-55.5 2.5q-104 0 -280 -43v153q167 41 291 41q169 0 245 -61
q34 -28 54 -70.5t20 -85.5q0 -59 -25 -108.5t-71 -104.5q108 -77 108 -211q0 -75 -29 -128t-80.5 -81t-110 -40.5t-130.5 -12.5q-115 0 -278 31v153z" />
    <glyph glyph-name="acute" unicode="&#xb4;" horiz-adv-x="899" 
d="M444 1249h-221l262 295h228z" />
    <glyph glyph-name="uni00B5" unicode="&#xb5;" horiz-adv-x="1185" 
d="M156 1081h192v-413q0 -201 10 -297q4 -41 17.5 -78.5t39 -71.5t68 -54t97.5 -20q103 0 258 43v891h192v-1030q-94 -27 -150 -42t-142.5 -29.5t-157.5 -14.5q-173 0 -232 94v-452h-192v1474z" />
    <glyph glyph-name="paragraph" unicode="&#xb6;" horiz-adv-x="1435" 
d="M111 1055q0 246 117 367.5t360 121.5h651v-1937h-160v1784h-215v-1784h-159v952q-183 0 -283 21t-174 88q-137 126 -137 387z" />
    <glyph glyph-name="periodcentered" unicode="&#xb7;" horiz-adv-x="555" 
d="M395 387h-235v311h235v-311z" />
    <glyph glyph-name="cedilla" unicode="&#xb8;" horiz-adv-x="899" 
d="M463 -403h-209l176 280h207z" />
    <glyph glyph-name="onesuperior" unicode="&#xb9;" horiz-adv-x="616" 
d="M465 922h-176v661l-238 -67v167l414 123v-884z" />
    <glyph glyph-name="ordmasculine" unicode="&#xba;" horiz-adv-x="991" 
d="M496 727q-206 0 -299 106.5t-93 315.5q0 430 392 430q391 0 391 -428q0 -201 -96 -312.5t-295 -111.5zM279 1151q0 -130 46.5 -195t170.5 -65q120 0 168.5 69t48.5 195q0 127 -48.5 193.5t-168.5 66.5q-66 0 -109.5 -18.5t-66.5 -55.5t-32 -81.5t-9 -108.5z" />
    <glyph glyph-name="guillemotright" unicode="&#xbb;" horiz-adv-x="1187" 
d="M731 119h-235l352 422l-352 422h235l352 -422zM29 119l352 422l-352 422h235l352 -422l-352 -422h-235z" />
    <glyph glyph-name="onequarter" unicode="&#xbc;" horiz-adv-x="1822" 
d="M496 0h-203l803 1544h204zM1503 162h-491v157l401 539h211l-399 -539h278v162h170v-481h-170v162zM51 1448l414 123v-885h-176v662l-238 -68v168z" />
    <glyph glyph-name="onehalf" unicode="&#xbd;" horiz-adv-x="1792" 
d="M496 0h-203l803 1544h204zM1696 0h-658v154q250 217 344 311q53 53 74 86.5t21 66.5q0 103 -136 103q-106 0 -282 -45v164q167 41 289 41q62 0 114 -13t95 -40.5t67.5 -76t24.5 -112.5q0 -66 -21.5 -114.5t-75.5 -108.5q-94 -106 -270 -258h414v-158zM51 1280v168
l414 123v-885h-176v662z" />
    <glyph glyph-name="threequarters" unicode="&#xbe;" horiz-adv-x="2088" 
d="M109 694v154q187 -33 266 -33q39 0 65.5 3t58 13.5t48 35t16.5 63.5q0 31 -10.5 52.5t-26 33t-41 17.5t-45.5 7.5t-51 1.5h-190v150h290l27 35q22 28 30.5 48t8.5 46q0 32 -14 52.5t-41 28.5t-49 10.5t-56 2.5q-104 0 -280 -43v154q167 41 291 41q168 0 245 -62
q34 -28 54 -70t20 -85q0 -59 -25 -108.5t-71 -104.5q108 -77 108 -211q0 -75 -29 -128t-80.5 -81t-110 -40.5t-130.5 -12.5q-121 0 -278 30zM557 0l803 1544h205l-805 -1544h-203zM1278 319l401 539h211l-399 -539h278v162h170v-481h-170v162h-491v157z" />
    <glyph glyph-name="questiondown" unicode="&#xbf;" horiz-adv-x="1081" 
d="M555 -428q-94 0 -171 21t-138 63.5t-95 115.5t-34 171q0 95 28 170t91 155q80 102 184 217q88 97 117 174h217q-24 -69 -55 -122.5t-91 -120.5q-136 -151 -192 -223q-49 -64 -75 -119.5t-26 -120.5q0 -58 21.5 -97.5t60.5 -59.5t82 -28t99 -8q110 0 364 62v-193
q-230 -57 -387 -57zM532 1151h228v-311h-228v311z" />
    <glyph glyph-name="Agrave" unicode="&#xc0;" horiz-adv-x="1454" 
d="M23 0l573 1544h258l578 -1544h-215l-134 358h-721l-133 -358h-206zM428 547h588l-293 796zM641 1651l-264 295h229l254 -295h-219z" />
    <glyph glyph-name="Aacute" unicode="&#xc1;" horiz-adv-x="1454" 
d="M23 0l573 1544h258l578 -1544h-215l-134 358h-721l-133 -358h-206zM428 547h588l-293 796zM598 1651l262 295h227l-268 -295h-221z" />
    <glyph glyph-name="Acircumflex" unicode="&#xc2;" horiz-adv-x="1454" 
d="M23 0l573 1544h258l578 -1544h-215l-134 358h-721l-133 -358h-206zM723 1343l-295 -796h588zM553 1622h-213l274 295h222l276 -295h-215l-172 180z" />
    <glyph glyph-name="Atilde" unicode="&#xc3;" horiz-adv-x="1454" 
d="M23 0l573 1544h258l578 -1544h-215l-134 358h-721l-133 -358h-206zM723 1343l-295 -796h588zM477 1663h-155q57 153 110.5 209.5t151.5 56.5q83 0 192 -74q52 -36 76 -47.5t53 -11.5q36 0 56.5 23t48.5 82h157q-28 -64 -47.5 -101t-50.5 -76t-70.5 -57t-91.5 -18
q-92 0 -184 63q-54 39 -82.5 54.5t-54.5 15.5q-39 0 -59.5 -25.5t-49.5 -93.5z" />
    <glyph glyph-name="Adieresis" unicode="&#xc4;" horiz-adv-x="1454" 
d="M23 0l573 1544h258l578 -1544h-215l-134 358h-721l-133 -358h-206zM723 1343l-295 -796h588zM870 1657v289h189v-289h-189zM397 1946h189v-289h-189v289z" />
    <glyph glyph-name="Aring" unicode="&#xc5;" horiz-adv-x="1454" 
d="M229 0h-206l542 1458q-47 28 -73.5 83t-26.5 114q0 116 72 181t190 65q120 0 191 -64t71 -182q0 -133 -102 -197l545 -1458h-215l-134 358h-721zM723 1343l-295 -796h588zM727 1776q-59 0 -93 -31.5t-34 -89.5q0 -56 35 -86.5t92 -30.5q58 0 93.5 30t35.5 87
q0 59 -34.5 90t-94.5 31z" />
    <glyph glyph-name="AE" unicode="&#xc6;" horiz-adv-x="2299" 
d="M236 0h-240l1036 1544h1157v-190h-848v-471h803v-191h-803v-504h881v-188h-1077v356h-672zM600 545h545v815z" />
    <glyph glyph-name="Ccedilla" unicode="&#xc7;" horiz-adv-x="1347" 
d="M762 -35q-108 0 -195.5 21.5t-150 59t-109.5 95.5t-76 122.5t-46.5 148t-24 165.5t-6.5 181q0 103 6 186.5t23.5 170.5t46 154t75.5 127t110.5 99t152.5 61.5t200 22.5q190 0 477 -80v-196q-177 46 -250 59q-139 27 -213 27q-143 0 -227 -42.5t-133 -140.5
q-68 -136 -68 -446q0 -283 62 -416q46 -99 132.5 -143.5t233.5 -44.5q149 0 463 69v-194q-304 -66 -483 -66zM705 -403h-209l176 280h207z" />
    <glyph glyph-name="Egrave" unicode="&#xc8;" horiz-adv-x="1339" 
d="M184 0v1544h1045v-190h-848v-471h803v-191h-803v-502h881v-190h-1078zM381 1946h229l254 -295h-219z" />
    <glyph glyph-name="Eacute" unicode="&#xc9;" horiz-adv-x="1339" 
d="M184 0v1544h1045v-190h-848v-471h803v-191h-803v-502h881v-190h-1078zM516 1651l262 295h228l-269 -295h-221z" />
    <glyph glyph-name="Ecircumflex" unicode="&#xca;" horiz-adv-x="1339" 
d="M184 1544h1045v-190h-848v-471h803v-191h-803v-502h881v-190h-1078v1544zM528 1632h-213l275 295h221l276 -295h-215l-172 180z" />
    <glyph glyph-name="Edieresis" unicode="&#xcb;" horiz-adv-x="1339" 
d="M184 0v1544h1045v-190h-848v-471h803v-191h-803v-502h881v-190h-1078zM1036 1657h-188v289h188v-289zM377 1657v289h188v-289h-188z" />
    <glyph glyph-name="Igrave" unicode="&#xcc;" horiz-adv-x="565" 
d="M381 0h-197v1544h197v-1544zM412 1651h-219l-265 295h230z" />
    <glyph glyph-name="Iacute" unicode="&#xcd;" horiz-adv-x="565" 
d="M381 0h-197v1544h197v-1544zM383 1651h-221l262 295h227z" />
    <glyph glyph-name="Icircumflex" unicode="&#xce;" horiz-adv-x="565" 
d="M381 0h-197v1544h197v-1544zM113 1651h-213l274 295h221l277 -295h-215l-172 180z" />
    <glyph glyph-name="Idieresis" unicode="&#xcf;" horiz-adv-x="565" 
d="M184 1544h197v-1544h-197v1544zM362 1946h189v-289h-189v289zM14 1946h189v-289h-189v289z" />
    <glyph glyph-name="Eth" unicode="&#xd0;" horiz-adv-x="1548" 
d="M61 702v187h152v655h537q171 0 278.5 -32.5t188.5 -114.5q178 -181 178 -619q0 -443 -199 -633q-84 -81 -192 -113t-271 -32h-520v702h-152zM410 889h417v-187h-417v-512h325q130 0 210 31t138 101q111 134 111 456q0 335 -117 471q-53 62 -130 83.5t-197 21.5h-340v-465
z" />
    <glyph glyph-name="Ntilde" unicode="&#xd1;" horiz-adv-x="1548" 
d="M184 1544h244l741 -1259v1259h195v-1544h-244l-741 1260v-1260h-195v1544zM367 1663q57 153 110.5 209.5t151.5 56.5q83 0 192 -74q52 -36 76 -47.5t53 -11.5q36 0 56.5 23t48.5 82h157q-28 -64 -47.5 -101t-50.5 -76t-70.5 -57t-91.5 -18q-92 0 -184 63
q-54 39 -82.5 54.5t-54.5 15.5q-39 0 -59.5 -25.5t-49.5 -93.5h-155z" />
    <glyph glyph-name="Ograve" unicode="&#xd2;" horiz-adv-x="1615" 
d="M154 770q0 149 16 264.5t60 221t116 174t189 109t274 40.5q193 0 314 -53.5t204 -169.5q70 -98 102.5 -254t32.5 -332q0 -147 -17.5 -262.5t-62.5 -220t-117.5 -173.5t-187.5 -109t-268 -40q-217 0 -341.5 56.5t-197.5 175.5q-116 185 -116 573zM428 1212
q-74 -137 -74 -442q0 -322 78 -459q28 -48 67 -80t90.5 -47.5t102 -21.5t117.5 -6q84 0 150.5 16.5t113.5 44.5t81.5 73t55 93.5t32.5 115t16 129t4 142.5q0 316 -88 457q-54 88 -144.5 125t-220.5 37q-135 0 -231.5 -39.5t-149.5 -137.5zM745 1651l-264 295h230l254 -295
h-220z" />
    <glyph glyph-name="Oacute" unicode="&#xd3;" horiz-adv-x="1615" 
d="M154 770q0 149 16 264.5t60 221t116 174t189 109t274 40.5q193 0 314 -53.5t204 -169.5q70 -98 102.5 -254t32.5 -332q0 -147 -17.5 -262.5t-62.5 -220t-117.5 -173.5t-187.5 -109t-268 -40q-217 0 -341.5 56.5t-197.5 175.5q-116 185 -116 573zM428 1212
q-74 -137 -74 -442q0 -322 78 -459q28 -48 67 -80t90.5 -47.5t102 -21.5t117.5 -6q84 0 150.5 16.5t113.5 44.5t81.5 73t55 93.5t32.5 115t16 129t4 142.5q0 316 -88 457q-54 88 -144.5 125t-220.5 37q-135 0 -231.5 -39.5t-149.5 -137.5zM852 1651h-221l262 295h227z" />
    <glyph glyph-name="Ocircumflex" unicode="&#xd4;" horiz-adv-x="1615" 
d="M154 770q0 149 16 264.5t60 221t116 174t189 109t274 40.5q193 0 314 -53.5t204 -169.5q70 -98 102.5 -254t32.5 -332q0 -147 -17.5 -262.5t-62.5 -220t-117.5 -173.5t-187.5 -109t-268 -40q-217 0 -341.5 56.5t-197.5 175.5q-116 185 -116 573zM354 770q0 -322 78 -459
q28 -48 67 -80t90.5 -47.5t102 -21.5t117.5 -6q84 0 150.5 16.5t113.5 44.5t81.5 73t55 93.5t32.5 115t16 129t4 142.5q0 316 -88 457q-54 88 -144.5 125t-220.5 37q-135 0 -231.5 -39.5t-149.5 -137.5q-74 -137 -74 -442zM637 1647h-213l274 295h222l276 -295h-215
l-172 180z" />
    <glyph glyph-name="Otilde" unicode="&#xd5;" horiz-adv-x="1615" 
d="M154 770q0 149 16 264.5t60 221t116 174t189 109t274 40.5q193 0 314 -53.5t204 -169.5q70 -98 102.5 -254t32.5 -332q0 -147 -17.5 -262.5t-62.5 -220t-117.5 -173.5t-187.5 -109t-268 -40q-217 0 -341.5 56.5t-197.5 175.5q-116 185 -116 573zM354 770q0 -322 78 -459
q28 -48 67 -80t90.5 -47.5t102 -21.5t117.5 -6q84 0 150.5 16.5t113.5 44.5t81.5 73t55 93.5t32.5 115t16 129t4 142.5q0 316 -88 457q-54 88 -144.5 125t-220.5 37q-135 0 -230.5 -39.5t-150.5 -137.5q-74 -135 -74 -442zM547 1663h-156q57 153 110.5 209.5t151.5 56.5
q84 0 193 -74q52 -36 76 -47.5t53 -11.5q35 0 55.5 23t48.5 82h158q-28 -64 -47.5 -101t-50.5 -76t-70.5 -57t-91.5 -18q-92 0 -184 63q-54 38 -83 54t-55 16q-21 0 -35.5 -6.5t-28 -26t-21 -34.5t-23.5 -52z" />
    <glyph glyph-name="Odieresis" unicode="&#xd6;" horiz-adv-x="1615" 
d="M154 770q0 149 16 264.5t60 221t116 174t189 109t274 40.5q193 0 314 -53.5t204 -169.5q70 -98 102.5 -254t32.5 -332q0 -147 -17.5 -262.5t-62.5 -220t-117.5 -173.5t-187.5 -109t-268 -40q-217 0 -341.5 56.5t-197.5 175.5q-116 185 -116 573zM428 1212
q-74 -137 -74 -442q0 -322 78 -459q28 -48 67 -80t90.5 -47.5t102 -21.5t117.5 -6q84 0 150.5 16.5t113.5 44.5t81.5 73t55 93.5t32.5 115t16 129t4 142.5q0 316 -88 457q-54 88 -144.5 125t-220.5 37q-135 0 -231.5 -39.5t-149.5 -137.5zM1157 1657h-188v289h188v-289z
M461 1657v289h188v-289h-188z" />
    <glyph glyph-name="multiply" unicode="&#xd7;" horiz-adv-x="1433" 
d="M176 1274h236l305 -369l307 369h233l-419 -502l419 -502h-235l-305 369l-307 -369h-234l420 502z" />
    <glyph glyph-name="Oslash" unicode="&#xd8;" horiz-adv-x="1615" 
d="M154 770q0 149 16 264.5t60 221t116 174t189 109t274 40.5q193 0 314 -53.5t204 -169.5q70 -99 102.5 -254.5t32.5 -331.5q0 -147 -17.5 -262.5t-62.5 -220t-117.5 -173.5t-187.5 -109t-268 -40q-217 0 -341.5 56.5t-197.5 175.5q-116 185 -116 573zM537 209
q90 -55 272 -55q83 0 149.5 16.5t113.5 45.5t81.5 74t55.5 94.5t33.5 115t17 128.5t4.5 142q0 297 -82 444zM809 1391q-87 0 -156 -17t-116.5 -44.5t-82 -74t-54 -94.5t-30.5 -116.5t-14.5 -130t-3.5 -144.5q0 -319 72 -442l643 1003q-98 60 -258 60z" />
    <glyph glyph-name="Ugrave" unicode="&#xd9;" horiz-adv-x="1513" 
d="M180 1544h197v-956q0 -83 5.5 -141t20.5 -109.5t41.5 -83.5t69 -55.5t102.5 -33t142 -9.5q98 0 165.5 16.5t109.5 47t65 86t31 119.5t8 163v956h196v-956q0 -194 -28.5 -308t-116.5 -190q-76 -67 -178.5 -96t-251.5 -29q-169 0 -280.5 35t-177.5 114t-93 192t-27 282v956
zM455 1946h229l254 -295h-219z" />
    <glyph glyph-name="Uacute" unicode="&#xda;" horiz-adv-x="1513" 
d="M180 588v956h197v-956q0 -83 5.5 -141t20.5 -109.5t41.5 -83.5t69 -55.5t102.5 -33t142 -9.5q98 0 165.5 16.5t109.5 47t65 86t31 119.5t8 163v956h196v-956q0 -194 -28.5 -308t-116.5 -190q-76 -67 -178.5 -96t-251.5 -29q-169 0 -280.5 35t-177.5 114t-93 192t-27 282z
M795 1651h-222l263 295h227z" />
    <glyph glyph-name="Ucircumflex" unicode="&#xdb;" horiz-adv-x="1513" 
d="M180 1544h197v-956q0 -83 5.5 -141t20.5 -109.5t41.5 -83.5t69 -55.5t102.5 -33t142 -9.5q98 0 165.5 16.5t109.5 47t65 86t31 119.5t8 163v956h196v-956q0 -194 -28.5 -308t-116.5 -190q-76 -67 -178.5 -96t-251.5 -29q-169 0 -280.5 35t-177.5 114t-93 192t-27 282v956
zM586 1651h-213l274 295h221l277 -295h-215l-172 180z" />
    <glyph glyph-name="Udieresis" unicode="&#xdc;" horiz-adv-x="1513" 
d="M180 1544h197v-956q0 -83 5.5 -141t20.5 -109.5t41.5 -83.5t69 -55.5t102.5 -33t142 -9.5q98 0 165.5 16.5t109.5 47t65 86t31 119.5t8 163v956h196v-956q0 -194 -28.5 -308t-116.5 -190q-76 -67 -178.5 -96t-251.5 -29q-169 0 -280.5 35t-177.5 114t-93 192t-27 282v956
zM905 1657v289h189v-289h-189zM420 1657v289h188v-289h-188z" />
    <glyph glyph-name="Yacute" unicode="&#xdd;" horiz-adv-x="1286" 
d="M-23 1544h232l436 -741l436 741h228l-568 -956v-588h-196v588zM459 1651l262 295h227l-268 -295h-221z" />
    <glyph glyph-name="Thorn" unicode="&#xde;" horiz-adv-x="1355" 
d="M184 1544h197v-274h405q128 0 214 -27.5t147 -91.5q56 -59 84.5 -147t28.5 -189q0 -228 -110 -347t-335 -134q-90 -6 -434 -6v-328h-197v1544zM381 1079v-561q314 0 418 8q80 7 128.5 24.5t78.5 59.5q53 75 53 205q0 152 -73 208t-230 56h-375z" />
    <glyph glyph-name="germandbls" unicode="&#xdf;" horiz-adv-x="1261" 
d="M348 0h-192v1047q0 139 16 215q32 147 151.5 225t278.5 78q84 0 155.5 -19.5t129 -58.5t90.5 -106.5t33 -155.5q0 -73 -21.5 -125.5t-64.5 -112.5q-43 -58 -127 -147l180 -160q99 -87 148 -165.5t49 -188.5q0 -87 -36.5 -155t-98 -108t-136.5 -60.5t-158 -20.5
q-96 0 -229 18v184q127 -20 215 -20q44 0 84 7.5t79 25t62 51t23 80.5q0 55 -27 100q-19 33 -118 125l-302 264q165 179 203 225q45 55 62.5 90t17.5 80q0 170 -213 170q-66 0 -122.5 -24t-88.5 -72q-43 -61 -43 -250v-1036z" />
    <glyph glyph-name="agrave" unicode="&#xe0;" 
d="M479 -35q-92 0 -160 36t-106 90.5t-61 134.5t-30 151t-7 158q0 107 12.5 190.5t44.5 158.5t84.5 124.5t136 78.5t195.5 29q69 0 152.5 -18t142 -37t170.5 -60v-1001h-193v166q-51 -46 -85.5 -73t-86 -61t-104 -50.5t-105.5 -16.5zM309 535q0 -199 37 -283q23 -54 61 -78
t99 -24q81 0 203 94q57 44 151 125v503q-171 62 -264 62q-74 0 -127.5 -22t-83.5 -56.5t-47.5 -89t-23 -107t-5.5 -124.5zM305 1544h230l253 -295h-219z" />
    <glyph glyph-name="aacute" unicode="&#xe1;" 
d="M479 -35q-92 0 -160 36t-106 90.5t-61 134.5t-30 151t-7 158q0 107 12.5 190.5t44.5 158.5t84.5 124.5t136 78.5t195.5 29q69 0 152.5 -18t142 -37t170.5 -60v-1001h-193v166q-51 -46 -85.5 -73t-86 -61t-104 -50.5t-105.5 -16.5zM596 934q-74 0 -127.5 -22t-83.5 -56.5
t-47.5 -89t-23 -107t-5.5 -124.5q0 -199 37 -283q23 -54 61 -78t99 -24q81 0 203 94q57 44 151 125v503q-171 62 -264 62zM662 1249h-222l262 295h228z" />
    <glyph glyph-name="acircumflex" unicode="&#xe2;" 
d="M479 -35q-92 0 -160 36t-106 90.5t-61 134.5t-30 151t-7 158q0 107 12.5 190.5t44.5 158.5t84.5 124.5t136 78.5t195.5 29q69 0 152.5 -18t142 -37t170.5 -60v-1001h-193v166q-51 -46 -85.5 -73t-86 -61t-104 -50.5t-105.5 -16.5zM596 934q-74 0 -127.5 -22t-83.5 -56.5
t-47.5 -89t-23 -107t-5.5 -124.5q0 -199 37 -283q23 -54 61 -78t99 -24q81 0 203 94q57 44 151 125v503q-171 62 -264 62zM440 1249h-213l275 295h221l276 -295h-215l-172 181z" />
    <glyph glyph-name="atilde" unicode="&#xe3;" 
d="M115 535q0 107 12.5 190.5t44.5 158.5t84.5 124.5t136 78.5t195.5 29q69 0 152.5 -18t142 -37t170.5 -60v-1001h-193v166q-51 -46 -85.5 -73t-86 -61t-104 -50.5t-105.5 -16.5q-92 0 -160 36t-106 90.5t-61 134.5t-30 151t-7 158zM309 535q0 -199 37 -283q23 -54 61 -78
t99 -24q81 0 203 94q57 44 151 125v503q-171 62 -264 62q-74 0 -127.5 -22t-83.5 -56.5t-47.5 -89t-23 -107t-5.5 -124.5zM360 1268h-155q57 153 110.5 209.5t151.5 56.5q83 0 192 -74q52 -36 76 -47.5t53 -11.5q36 0 57 23t48 81h158q-28 -64 -47.5 -101t-50.5 -76
t-70.5 -57t-91.5 -18q-91 0 -185 64q-53 38 -82 53.5t-55 15.5q-39 0 -59.5 -25.5t-49.5 -92.5z" />
    <glyph glyph-name="adieresis" unicode="&#xe4;" 
d="M115 535q0 107 12.5 190.5t44.5 158.5t84.5 124.5t136 78.5t195.5 29q69 0 152.5 -18t142 -37t170.5 -60v-1001h-193v166q-51 -46 -85.5 -73t-86 -61t-104 -50.5t-105.5 -16.5q-92 0 -160 36t-106 90.5t-61 134.5t-30 151t-7 158zM309 535q0 -199 37 -283q23 -54 61 -78
t99 -24q81 0 203 94q57 44 151 125v503q-171 62 -264 62q-74 0 -127.5 -22t-83.5 -56.5t-47.5 -89t-23 -107t-5.5 -124.5zM909 1255h-188v289h188v-289zM303 1544h189v-289h-189v289z" />
    <glyph glyph-name="aring" unicode="&#xe5;" 
d="M479 -35q-92 0 -160 36t-106 90.5t-61 134.5t-30 151t-7 158q0 107 12.5 190.5t44.5 158.5t84.5 124.5t136 78.5t195.5 29q69 0 152.5 -18t142 -37t170.5 -60v-1001h-193v166q-51 -46 -85.5 -73t-86 -61t-104 -50.5t-105.5 -16.5zM596 934q-74 0 -127.5 -22t-83.5 -56.5
t-47.5 -89t-23 -107t-5.5 -124.5q0 -199 37 -283q23 -54 61 -78t99 -24q81 0 203 94q57 44 151 125v503q-171 62 -264 62zM348 1434q0 116 72 180.5t190 64.5q120 0 191 -64t71 -181q0 -114 -73 -178t-189 -64t-189 64t-73 178zM483 1434q0 -56 35 -86.5t92 -30.5
q58 0 93.5 30t35.5 87q0 59 -34.5 89.5t-94.5 30.5q-59 0 -93 -31t-34 -89z" />
    <glyph glyph-name="ae" unicode="&#xe6;" horiz-adv-x="1880" 
d="M106 283q0 62 12 111t32 83t53 58.5t67 38.5t82.5 21.5t92 10t102.5 2.5h293v113q0 68 -13 111t-45 67.5t-76.5 33.5t-115.5 9q-86 0 -214 -22.5t-216 -45.5v179q89 23 219 43t221 20q282 0 361 -139q103 139 354 139q457 0 457 -444q0 -102 -21 -217h-727
q0 -172 75.5 -243t254.5 -71q126 0 362 43v-178q-236 -41 -375 -41q-167 0 -273.5 44.5t-164.5 152.5q-60 -45 -102.5 -73t-101.5 -60t-118.5 -48t-119.5 -16q-175 0 -265 73.5t-90 244.5zM1315 946q-85 0 -143 -23t-89.5 -69t-45 -105t-13.5 -141h553q6 42 6 86
q0 126 -68.5 189t-199.5 63zM299 289q0 -89 41.5 -122.5t132.5 -33.5q98 0 229 78q81 50 138 90v154h-267q-63 0 -93.5 -1.5t-69 -10.5t-62.5 -27q-49 -36 -49 -127z" />
    <glyph glyph-name="ccedilla" unicode="&#xe7;" horiz-adv-x="997" 
d="M115 535q0 240 63 366q54 109 145.5 162t258.5 53q118 0 340 -59v-189q-227 66 -324 66q-101 0 -158 -27t-90 -98q-41 -90 -41 -270q0 -182 51 -281q31 -61 88.5 -86t149.5 -25q107 0 324 58v-189q-230 -51 -338 -51q-154 0 -239.5 42.5t-143.5 135.5q-86 140 -86 392z
M295 -403l176 280h207l-174 -280h-209z" />
    <glyph glyph-name="egrave" unicode="&#xe8;" horiz-adv-x="1161" 
d="M623 -35q-101 0 -178.5 16.5t-133.5 50t-94 80.5t-60.5 112.5t-32 140t-9.5 170.5q0 108 12.5 191.5t45 159t86 124.5t138.5 77.5t199 28.5q230 0 343.5 -110t113.5 -334q0 -102 -21 -217h-727q0 -167 79 -240.5t251 -73.5q125 0 362 43v-178q-225 -41 -374 -41zM305 608
h553q6 42 6 86q0 129 -67 190.5t-201 61.5q-160 0 -225.5 -86.5t-65.5 -251.5zM283 1544h229l254 -295h-219z" />
    <glyph glyph-name="eacute" unicode="&#xe9;" horiz-adv-x="1161" 
d="M623 -35q-101 0 -178.5 16.5t-133.5 50t-94 80.5t-60.5 112.5t-32 140t-9.5 170.5q0 108 12.5 191.5t45 159t86 124.5t138.5 77.5t199 28.5q230 0 343.5 -110t113.5 -334q0 -102 -21 -217h-727q0 -167 79 -240.5t251 -73.5q125 0 362 43v-178q-225 -41 -374 -41zM305 608
h553q6 42 6 86q0 129 -67 190.5t-201 61.5q-160 0 -225.5 -86.5t-65.5 -251.5zM641 1249h-221l262 295h227z" />
    <glyph glyph-name="ecircumflex" unicode="&#xea;" horiz-adv-x="1161" 
d="M623 -35q-101 0 -178.5 16.5t-133.5 50t-94 80.5t-60.5 112.5t-32 140t-9.5 170.5q0 108 12.5 191.5t45 159t86 124.5t138.5 77.5t199 28.5q230 0 343.5 -110t113.5 -334q0 -102 -21 -217h-727q0 -167 79 -240.5t251 -73.5q125 0 362 43v-178q-225 -41 -374 -41zM305 608
h553q6 42 6 86q0 129 -67 190.5t-201 61.5q-160 0 -225.5 -86.5t-65.5 -251.5zM420 1249h-213l274 295h221l277 -295h-215l-172 181z" />
    <glyph glyph-name="edieresis" unicode="&#xeb;" horiz-adv-x="1161" 
d="M623 -35q-101 0 -178.5 16.5t-133.5 50t-94 80.5t-60.5 112.5t-32 140t-9.5 170.5q0 108 12.5 191.5t45 159t86 124.5t138.5 77.5t199 28.5q230 0 343.5 -110t113.5 -334q0 -102 -21 -217h-727q0 -167 79 -240.5t251 -73.5q125 0 362 43v-178q-225 -41 -374 -41zM305 608
h553q6 42 6 86q0 129 -67 190.5t-201 61.5q-160 0 -225.5 -86.5t-65.5 -251.5zM700 1544h189v-289h-189v289zM295 1544h188v-289h-188v289z" />
    <glyph glyph-name="igrave" unicode="&#xec;" horiz-adv-x="503" 
d="M379 1249h-219l-264 295h229zM348 0h-192v1081h192v-1081z" />
    <glyph glyph-name="iacute" unicode="&#xed;" horiz-adv-x="503" 
d="M340 1249h-221l262 295h227zM348 0h-192v1081h192v-1081z" />
    <glyph glyph-name="icircumflex" unicode="&#xee;" horiz-adv-x="503" 
d="M156 0v1081h192v-1081h-192zM80 1249h-213l274 295h221l277 -295h-215l-172 181z" />
    <glyph glyph-name="idieresis" unicode="&#xef;" horiz-adv-x="503" 
d="M348 0h-192v1081h192v-1081zM319 1544h191v-289h-191v289zM182 1255h-188v289h188v-289z" />
    <glyph glyph-name="eth" unicode="&#xf0;" horiz-adv-x="1230" 
d="M604 -35q-133 0 -228 36t-152 106.5t-83 167t-26 225.5q0 192 63 315q35 67 80.5 109.5t121.5 67t183 24.5q109 0 285 -55q-37 175 -131 280l-336 -149v149l219 100q-94 56 -219 80v166q246 -42 407 -164l267 121v-151l-160 -74q199 -252 199 -809q0 -545 -490 -545z
M584 838q-67 0 -116.5 -16t-79.5 -44t-48 -71.5t-24.5 -91.5t-6.5 -113q0 -153 51 -244q35 -63 93.5 -87t150.5 -24q87 0 146.5 26.5t91 78t44.5 113.5t13 147q0 149 -20 258q-59 24 -143 46t-152 22z" />
    <glyph glyph-name="ntilde" unicode="&#xf1;" 
d="M348 0h-192v1081h192v-71q255 106 373 106q85 0 146 -22t97 -57.5t56.5 -93.5t27.5 -118t7 -143v-682h-193v676q0 39 -0.5 61t-4 53t-10.5 48.5t-20 37.5t-31.5 30t-46.5 17t-65 7q-105 0 -336 -103v-827zM350 1268h-155q57 153 110.5 209.5t151.5 56.5q83 0 192 -74
q52 -36 76 -47.5t53 -11.5q36 0 57 23t48 81h157q-28 -64 -47.5 -101t-50.5 -76t-70.5 -57t-91.5 -18q-90 0 -184 64q-53 38 -82 53.5t-55 15.5q-39 0 -59.5 -25.5t-49.5 -92.5z" />
    <glyph glyph-name="ograve" unicode="&#xf2;" 
d="M604 -35q-112 0 -196.5 26.5t-139.5 74.5t-89.5 120.5t-49 157t-14.5 191.5q0 106 13.5 190.5t48 159.5t89 124.5t140 78t198.5 28.5q112 0 196.5 -27.5t140 -76t90 -122t49 -158t14.5 -191.5q0 -105 -14.5 -189.5t-49.5 -158t-90.5 -123t-140 -77.5t-195.5 -28zM604 934
q-75 0 -129 -21.5t-85.5 -55.5t-50 -88t-24.5 -107.5t-6 -124.5q0 -182 53 -277q35 -63 93.5 -88t148.5 -25q74 0 128 21.5t85.5 56.5t50.5 89t25 108t6 125q0 69 -6.5 122.5t-25.5 105t-51 85t-85.5 54t-126.5 20.5zM549 1249l-264 295h229l254 -295h-219z" />
    <glyph glyph-name="oacute" unicode="&#xf3;" 
d="M115 535q0 106 13.5 190.5t48 159.5t89 124.5t140 78t198.5 28.5q112 0 196.5 -27.5t140 -76t90 -122t49 -158t14.5 -191.5q0 -105 -14.5 -189.5t-49.5 -158t-90.5 -123t-140 -77.5t-195.5 -28q-112 0 -196.5 26.5t-139.5 74.5t-89.5 120.5t-49 157t-14.5 191.5zM604 934
q-75 0 -129 -21.5t-85.5 -55.5t-50 -88t-24.5 -107.5t-6 -124.5q0 -182 53 -277q35 -63 93.5 -88t148.5 -25q74 0 128 21.5t85.5 56.5t50.5 89t25 108t6 125q0 69 -6.5 122.5t-25.5 105t-51 85t-85.5 54t-126.5 20.5zM637 1249h-221l262 295h227z" />
    <glyph glyph-name="ocircumflex" unicode="&#xf4;" 
d="M604 -35q-112 0 -196.5 26.5t-139.5 74.5t-89.5 120.5t-49 157t-14.5 191.5q0 106 13.5 190.5t48 159.5t89 124.5t140 78t198.5 28.5q112 0 196.5 -27.5t140 -76t90 -122t49 -158t14.5 -191.5q0 -105 -14.5 -189.5t-49.5 -158t-90.5 -123t-140 -77.5t-195.5 -28zM309 537
q0 -182 53 -277q35 -63 93.5 -88t148.5 -25q74 0 128 21.5t85.5 56.5t50.5 89t25 108t6 125q0 69 -6.5 122.5t-25.5 105t-51 85t-85.5 54t-126.5 20.5q-75 0 -129 -21.5t-85.5 -55.5t-50 -88t-24.5 -107.5t-6 -124.5zM432 1249h-213l275 295h221l276 -295h-215l-172 181z
" />
    <glyph glyph-name="otilde" unicode="&#xf5;" 
d="M115 535q0 106 13.5 190.5t48 159.5t89 124.5t140 78t198.5 28.5q112 0 196.5 -27.5t140 -76t90 -122t49 -158t14.5 -191.5q0 -105 -14.5 -189.5t-49.5 -158t-90.5 -123t-140 -77.5t-195.5 -28q-112 0 -196.5 26.5t-139.5 74.5t-89.5 120.5t-49 157t-14.5 191.5zM309 537
q0 -182 53 -277q35 -63 93.5 -88t148.5 -25q74 0 128 21.5t85.5 56.5t50.5 89t25 108t6 125q0 69 -6.5 122.5t-25.5 105t-51 85t-85.5 54t-126.5 20.5q-75 0 -129 -21.5t-85.5 -55.5t-50 -88t-24.5 -107.5t-6 -124.5zM346 1268h-156q57 153 111 209.5t152 56.5q83 0 192 -74
q52 -36 76 -47.5t53 -11.5q36 0 57 23t48 81h157q-28 -64 -47.5 -101t-50.5 -76t-70.5 -57t-91.5 -18q-90 0 -184 64q-53 38 -82 53.5t-55 15.5q-39 0 -59.5 -25.5t-49.5 -92.5z" />
    <glyph glyph-name="odieresis" unicode="&#xf6;" 
d="M115 535q0 106 13.5 190.5t48 159.5t89 124.5t140 78t198.5 28.5q112 0 196.5 -27.5t140 -76t90 -122t49 -158t14.5 -191.5q0 -105 -14.5 -189.5t-49.5 -158t-90.5 -123t-140 -77.5t-195.5 -28q-112 0 -196.5 26.5t-139.5 74.5t-89.5 120.5t-49 157t-14.5 191.5zM604 934
q-75 0 -129 -21.5t-85.5 -55.5t-50 -88t-24.5 -107.5t-6 -124.5q0 -182 53 -277q35 -63 93.5 -88t148.5 -25q74 0 128 21.5t85.5 56.5t50.5 89t25 108t6 125q0 69 -6.5 122.5t-25.5 105t-51 85t-85.5 54t-126.5 20.5zM907 1255h-188v289h188v-289zM303 1255v289h189v-289
h-189z" />
    <glyph glyph-name="divide" unicode="&#xf7;" horiz-adv-x="1433" 
d="M156 866h1122v-188h-1122v188zM608 1049v270h217v-270h-217zM608 225v271h217v-271h-217z" />
    <glyph glyph-name="oslash" unicode="&#xf8;" 
d="M115 535q0 106 13.5 190.5t48 159.5t89 124.5t140 78t198.5 28.5q112 0 196.5 -27.5t140 -76t90 -122t49 -158t14.5 -191.5q0 -105 -14.5 -189.5t-49.5 -158t-90.5 -123t-140 -77.5t-195.5 -28q-112 0 -196.5 26.5t-139.5 74.5t-89.5 120.5t-49 157t-14.5 191.5zM305 537
q0 -169 45 -258l420 624q-63 35 -166 35q-55 0 -99 -11t-75 -30t-53.5 -48.5t-36 -61.5t-22 -75t-11 -83.5t-2.5 -91.5zM438 176q55 -33 166 -33q63 0 112 14t81 42t53.5 62.5t33 83t15.5 95.5t4 107q0 180 -41 260z" />
    <glyph glyph-name="ugrave" unicode="&#xf9;" horiz-adv-x="1193" 
d="M154 1081h192v-653q0 -40 0.5 -62t3 -54t8.5 -49.5t15.5 -39t24.5 -33.5t36 -23t50.5 -15.5t66.5 -4.5q125 0 295 46v888h192v-1030q-98 -27 -157.5 -42t-157.5 -29.5t-188 -14.5q-94 0 -161.5 21t-109.5 58t-67 96t-34 126t-9 158v657zM561 1249l-264 295h229l254 -295
h-219z" />
    <glyph glyph-name="uacute" unicode="&#xfa;" horiz-adv-x="1193" 
d="M154 1081h192v-653q0 -40 0.5 -62t3 -54t8.5 -49.5t15.5 -39t24.5 -33.5t36 -23t50.5 -15.5t66.5 -4.5q125 0 295 46v888h192v-1030q-98 -27 -157.5 -42t-157.5 -29.5t-188 -14.5q-94 0 -161.5 21t-109.5 58t-67 96t-34 126t-9 158v657zM643 1249h-221l262 295h227z" />
    <glyph glyph-name="ucircumflex" unicode="&#xfb;" horiz-adv-x="1193" 
d="M154 1081h192v-653q0 -40 0.5 -62t3 -54t8.5 -49.5t15.5 -39t24.5 -33.5t36 -23t50.5 -15.5t66.5 -4.5q125 0 295 46v888h192v-1030q-98 -27 -157.5 -42t-157.5 -29.5t-188 -14.5q-94 0 -161.5 21t-109.5 58t-67 96t-34 126t-9 158v657zM420 1249h-213l274 295h221
l277 -295h-215l-172 181z" />
    <glyph glyph-name="udieresis" unicode="&#xfc;" horiz-adv-x="1193" 
d="M154 1081h192v-653q0 -40 0.5 -62t3 -54t8.5 -49.5t15.5 -39t24.5 -33.5t36 -23t50.5 -15.5t66.5 -4.5q125 0 295 46v888h192v-1030q-98 -27 -157.5 -42t-157.5 -29.5t-188 -14.5q-94 0 -161.5 21t-109.5 58t-67 96t-34 126t-9 158v657zM715 1544h188v-289h-188v289z
M291 1544h188v-289h-188v289z" />
    <glyph glyph-name="yacute" unicode="&#xfd;" horiz-adv-x="1099" 
d="M12 1081h211l328 -825l328 825h208l-595 -1474h-205l159 397zM590 1249h-221l262 295h227z" />
    <glyph glyph-name="thorn" unicode="&#xfe;" horiz-adv-x="1216" 
d="M156 1544h192v-573q51 35 84.5 55t81 44t94 35t94.5 11q94 0 166.5 -34.5t115.5 -89.5t70.5 -132.5t37.5 -153.5t10 -163q0 -578 -426 -578q-135 0 -328 88v-446h-192v1937zM348 778v-534q5 -2 27 -12t29.5 -13.5t28.5 -12.5t30.5 -13t29 -11.5t31.5 -10.5t30 -8t32 -7.5
t30 -4t31 -1.5q66 0 114 24t75.5 60t44 90.5t21.5 104.5t5 112q0 41 -1.5 75t-7.5 76t-16 74.5t-27.5 65t-41.5 54t-60 35t-81 13.5q-79 0 -164 -53q-118 -73 -160 -103z" />
    <glyph glyph-name="ydieresis" unicode="&#xff;" horiz-adv-x="1099" 
d="M12 1081h211l328 -825l328 825h208l-595 -1474h-205l159 397zM852 1255h-188v289h188v-289zM434 1255h-188v289h188v-289z" />
    <glyph glyph-name="Amacron" unicode="&#x100;" horiz-adv-x="1454" 
d="M23 0l573 1544h258l578 -1544h-215l-134 358h-721l-133 -358h-206zM723 1343l-295 -796h588zM1071 1704h-690v149h690v-149z" />
    <glyph glyph-name="amacron" unicode="&#x101;" 
d="M479 -35q-92 0 -160 36t-106 90.5t-61 134.5t-30 151t-7 158q0 107 12.5 190.5t44.5 158.5t84.5 124.5t136 78.5t195.5 29q69 0 152.5 -18t142 -37t170.5 -60v-1001h-193v166q-51 -46 -85.5 -73t-86 -61t-104 -50.5t-105.5 -16.5zM309 535q0 -199 37 -283q23 -54 61 -78
t99 -24q81 0 203 94q57 44 151 125v503q-171 62 -264 62q-74 0 -127.5 -22t-83.5 -56.5t-47.5 -89t-23 -107t-5.5 -124.5zM961 1305h-691v149h691v-149z" />
    <glyph glyph-name="Abreve" unicode="&#x102;" horiz-adv-x="1454" 
d="M229 0h-206l573 1544h258l578 -1544h-215l-134 358h-721zM723 1343l-295 -796h588zM381 1925h172q21 -77 49 -110q40 -54 123 -54q76 0 114.5 42t59.5 122h172q-39 -155 -110 -219q-84 -84 -236 -84q-149 0 -227.5 75.5t-116.5 227.5z" />
    <glyph glyph-name="abreve" unicode="&#x103;" 
d="M479 -35q-92 0 -160 36t-106 90.5t-61 134.5t-30 151t-7 158q0 107 12.5 190.5t44.5 158.5t84.5 124.5t136 78.5t195.5 29q69 0 152.5 -18t142 -37t170.5 -60v-1001h-193v166q-51 -46 -85.5 -73t-86 -61t-104 -50.5t-105.5 -16.5zM596 934q-74 0 -127.5 -22t-83.5 -56.5
t-47.5 -89t-23 -107t-5.5 -124.5q0 -199 37 -283q23 -54 61 -78t99 -24q81 0 203 94q57 44 151 125v503q-171 62 -264 62zM600 1241q-149 0 -227.5 75.5t-116.5 227.5h172q21 -77 49 -110q40 -54 123 -54q76 0 114.5 42t59.5 122h172q-39 -155 -110 -219q-84 -84 -236 -84z
" />
    <glyph glyph-name="Aogonek" unicode="&#x104;" horiz-adv-x="1454" 
d="M229 0h-206l573 1544h258l578 -1544q-99 -76 -146 -123q-51 -51 -51 -98q0 -24 14 -33.5t43 -9.5q46 0 148 41v-152q-106 -39 -189 -39q-100 0 -156.5 37t-56.5 131q0 74 48.5 135.5t125.5 120.5l-129 348h-721zM428 547h588l-293 796z" />
    <glyph glyph-name="aogonek" unicode="&#x105;" 
d="M115 535q0 107 12.5 190.5t44.5 158.5t84.5 124.5t136 78.5t195.5 29q69 0 152.5 -18t142 -37t170.5 -60v-1001q-116 -89 -152 -125q-51 -51 -51 -96q0 -24 14 -33.5t43 -9.5q44 0 146 41v-152q-99 -39 -187 -39q-100 0 -156.5 37t-56.5 131q0 74 62 142q39 43 145 118
v152q-51 -46 -85.5 -73t-86 -61t-104 -50.5t-105.5 -16.5q-92 0 -160 36t-106 90.5t-61 134.5t-30 151t-7 158zM309 535q0 -199 37 -283q23 -54 61 -78t99 -24q81 0 203 94q57 44 151 125v503q-171 62 -264 62q-74 0 -127.5 -22t-83.5 -56.5t-47.5 -89t-23 -107t-5.5 -124.5
z" />
    <glyph glyph-name="Cacute" unicode="&#x106;" horiz-adv-x="1347" 
d="M762 -35q-108 0 -195.5 21.5t-150 59t-109.5 95.5t-76 122.5t-46.5 148t-24 165.5t-6.5 181q0 103 6 186.5t23.5 170.5t46 154t75.5 127t110.5 99t152.5 61.5t200 22.5q190 0 477 -80v-196q-177 46 -250 59q-139 27 -213 27q-143 0 -227 -42.5t-133 -140.5
q-68 -136 -68 -446q0 -283 62 -416q46 -99 132.5 -143.5t233.5 -44.5q149 0 463 69v-194q-304 -66 -483 -66zM788 1651h-221l262 295h228z" />
    <glyph glyph-name="cacute" unicode="&#x107;" horiz-adv-x="997" 
d="M201 143q-86 140 -86 392q0 240 63 366q54 109 145.5 162t258.5 53q118 0 340 -59v-189q-227 66 -324 66q-101 0 -158 -27t-90 -98q-41 -90 -41 -270q0 -182 51 -281q31 -61 88.5 -86t149.5 -25q107 0 324 58v-189q-230 -51 -338 -51q-154 0 -240.5 42.5t-142.5 135.5z
M586 1249h-221l262 295h227z" />
    <glyph glyph-name="Ccircumflex" unicode="&#x108;" horiz-adv-x="1347" 
d="M154 758q0 103 6 186.5t23.5 170.5t46 154t75.5 127t110.5 99t152.5 61.5t200 22.5q190 0 477 -80v-196q-177 46 -250 59q-139 27 -213 27q-143 0 -227 -42.5t-133 -140.5q-68 -136 -68 -446q0 -283 62 -416q46 -99 132.5 -143.5t233.5 -44.5q149 0 463 69v-194
q-304 -66 -483 -66q-108 0 -195.5 21.5t-150 59t-109.5 95.5t-76 122.5t-46.5 148t-24 165.5t-6.5 181zM580 1651h-213l274 295h221l277 -295h-215l-172 180z" />
    <glyph glyph-name="ccircumflex" unicode="&#x109;" horiz-adv-x="997" 
d="M115 535q0 240 63 366q54 109 145.5 162t258.5 53q118 0 340 -59v-189q-227 66 -324 66q-101 0 -158 -27t-90 -98q-41 -90 -41 -270q0 -182 51 -281q31 -61 88.5 -86t149.5 -25q107 0 324 58v-189q-230 -51 -338 -51q-154 0 -239.5 42.5t-143.5 135.5q-86 140 -86 392z
M377 1249h-213l274 295h221l277 -295h-215l-172 181z" />
    <glyph glyph-name="Cdotaccent" unicode="&#x10a;" horiz-adv-x="1347" 
d="M762 -35q-108 0 -195.5 21.5t-150 59t-109.5 95.5t-76 122.5t-46.5 148t-24 165.5t-6.5 181q0 103 6 186.5t23.5 170.5t46 154t75.5 127t110.5 99t152.5 61.5t200 22.5q190 0 477 -80v-196q-177 46 -250 59q-139 27 -213 27q-143 0 -227 -42.5t-133 -140.5
q-68 -136 -68 -446q0 -283 62 -416q46 -99 132.5 -143.5t233.5 -44.5q149 0 463 69v-194q-304 -66 -483 -66zM836 1657h-199v289h199v-289z" />
    <glyph glyph-name="cdotaccent" unicode="&#x10b;" horiz-adv-x="997" 
d="M115 535q0 240 63 366q54 109 145.5 162t258.5 53q118 0 340 -59v-189q-227 66 -324 66q-101 0 -158 -27t-90 -98q-41 -90 -41 -270q0 -182 51 -281q31 -61 88.5 -86t149.5 -25q107 0 324 58v-189q-230 -51 -338 -51q-154 0 -239.5 42.5t-143.5 135.5q-86 140 -86 392z
M449 1255v289h198v-289h-198z" />
    <glyph glyph-name="Ccaron" unicode="&#x10c;" horiz-adv-x="1347" 
d="M762 -35q-108 0 -195.5 21.5t-150 59t-109.5 95.5t-76 122.5t-46.5 148t-24 165.5t-6.5 181q0 103 6 186.5t23.5 170.5t46 154t75.5 127t110.5 99t152.5 61.5t200 22.5q190 0 477 -80v-196q-177 46 -250 59q-139 27 -213 27q-143 0 -227 -42.5t-133 -140.5
q-68 -136 -68 -446q0 -283 62 -416q46 -99 132.5 -143.5t233.5 -44.5q149 0 463 69v-194q-304 -66 -483 -66zM631 1651l-275 295h215l172 -181l172 181h213l-276 -295h-221z" />
    <glyph glyph-name="ccaron" unicode="&#x10d;" horiz-adv-x="997" 
d="M115 535q0 240 63 366q54 109 145.5 162t258.5 53q118 0 340 -59v-189q-227 66 -324 66q-101 0 -158 -27t-90 -98q-41 -90 -41 -270q0 -182 51 -281q31 -61 88.5 -86t149.5 -25q107 0 324 58v-189q-230 -51 -338 -51q-154 0 -239.5 42.5t-143.5 135.5q-86 140 -86 392z
M156 1544h215l172 -180l172 180h213l-277 -295h-221z" />
    <glyph glyph-name="Dcaron" unicode="&#x10e;" horiz-adv-x="1519" 
d="M184 0v1544h537q171 0 278.5 -32.5t188.5 -114.5q178 -181 178 -619q0 -443 -199 -633q-84 -81 -191.5 -113t-270.5 -32h-521zM721 1354h-340v-1164h326q130 0 210 31t138 101q110 133 110 456q0 333 -116 471q-53 63 -129.5 84t-198.5 21zM293 1946h215l172 -181
l172 181h213l-277 -295h-221z" />
    <glyph glyph-name="dcaron" unicode="&#x10f;" horiz-adv-x="1327" 
d="M481 -35q-77 0 -137.5 24.5t-99.5 69t-65.5 98t-40 122.5t-18.5 129.5t-5 130.5q0 99 9 176.5t36 155.5t72.5 129.5t122.5 83.5t182 32q125 0 333 -65v493h193v-1544h-193v135q-103 -78 -196.5 -124t-192.5 -46zM309 541q0 -188 39 -285q22 -56 60 -80t106 -24
q122 0 356 182v534q-209 66 -303 66q-81 0 -133 -25.5t-80 -85.5q-45 -95 -45 -282zM1317 1141h-137v403h172v-133q0 -121 -35 -270z" />
    <glyph glyph-name="Dcroat" unicode="&#x110;" horiz-adv-x="1548" 
d="M61 702v187h152v655h537q171 0 278.5 -32.5t188.5 -114.5q178 -181 178 -619q0 -443 -199 -633q-84 -81 -192 -113t-271 -32h-520v702h-152zM410 889h417v-187h-417v-512h325q130 0 210 31t138 101q111 134 111 456q0 335 -117 471q-53 62 -130 83.5t-197 21.5h-340v-465
z" />
    <glyph glyph-name="dcroat" unicode="&#x111;" horiz-adv-x="1218" 
d="M115 539q0 100 9 178t36 155.5t73 128t123.5 82t182.5 31.5q117 0 331 -63v161h-329v158h329v174h193v-174h162v-158h-162v-1212h-191v135q-103 -78 -196.5 -124t-192.5 -46q-368 0 -368 574zM354 821q-45 -95 -45 -280q0 -190 41 -285q24 -56 61 -80t105 -24
q85 0 201 73q66 42 153 109v534q-206 64 -303 64q-80 0 -131.5 -25t-81.5 -86z" />
    <glyph glyph-name="Emacron" unicode="&#x112;" horiz-adv-x="1339" 
d="M184 0v1544h1045v-190h-848v-471h803v-191h-803v-502h881v-190h-1078zM1051 1704h-691v149h691v-149z" />
    <glyph glyph-name="emacron" unicode="&#x113;" horiz-adv-x="1161" 
d="M623 -35q-101 0 -178.5 16.5t-133.5 50t-94 80.5t-60.5 112.5t-32 140t-9.5 170.5q0 108 12.5 191.5t45 159t86 124.5t138.5 77.5t199 28.5q230 0 343.5 -110t113.5 -334q0 -102 -21 -217h-727q0 -167 79 -240.5t251 -73.5q125 0 362 43v-178q-225 -41 -374 -41zM596 946
q-160 0 -225.5 -86.5t-65.5 -251.5h553q6 42 6 86q0 129 -67 190.5t-201 61.5zM252 1305v149h690v-149h-690z" />
    <glyph glyph-name="Ebreve" unicode="&#x114;" horiz-adv-x="1339" 
d="M1262 0h-1078v1544h1045v-190h-848v-471h803v-191h-803v-502h881v-190zM348 1946h172q21 -79 49 -111q39 -53 123 -53q76 0 114.5 42t59.5 122h172q-39 -157 -110 -220q-84 -84 -236 -84q-149 0 -227.5 76t-116.5 228z" />
    <glyph glyph-name="ebreve" unicode="&#x115;" horiz-adv-x="1161" 
d="M623 -35q-101 0 -178.5 16.5t-133.5 50t-94 80.5t-60.5 112.5t-32 140t-9.5 170.5q0 108 12.5 191.5t45 159t86 124.5t138.5 77.5t199 28.5q230 0 343.5 -110t113.5 -334q0 -102 -21 -217h-727q0 -167 79 -240.5t251 -73.5q125 0 362 43v-178q-225 -41 -374 -41zM596 946
q-160 0 -225.5 -86.5t-65.5 -251.5h553q6 42 6 86q0 129 -67 190.5t-201 61.5zM592 1241q-149 0 -227.5 75.5t-116.5 227.5h172q21 -77 49 -110q40 -54 123 -54q76 0 114.5 42t59.5 122h172q-39 -154 -111 -219q-84 -84 -235 -84z" />
    <glyph glyph-name="Edotaccent" unicode="&#x116;" horiz-adv-x="1339" 
d="M184 0v1544h1045v-190h-848v-471h803v-191h-803v-502h881v-190h-1078zM598 1946h199v-289h-199v289z" />
    <glyph glyph-name="edotaccent" unicode="&#x117;" horiz-adv-x="1161" 
d="M623 -35q-101 0 -178.5 16.5t-133.5 50t-94 80.5t-60.5 112.5t-32 140t-9.5 170.5q0 108 12.5 191.5t45 159t86 124.5t138.5 77.5t199 28.5q230 0 343.5 -110t113.5 -334q0 -102 -21 -217h-727q0 -167 79 -240.5t251 -73.5q125 0 362 43v-178q-225 -41 -374 -41zM305 608
h553q6 42 6 86q0 129 -67 190.5t-201 61.5q-160 0 -225.5 -86.5t-65.5 -251.5zM487 1255v289h199v-289h-199z" />
    <glyph glyph-name="Eogonek" unicode="&#x118;" horiz-adv-x="1339" 
d="M184 0v1544h1045v-190h-848v-471h803v-191h-803v-502h881v-190q-6 -5 -34 -26t-43.5 -33t-38 -31t-38.5 -35q-51 -51 -51 -96q0 -24 14 -33.5t43 -9.5q46 0 148 41v-152q-110 -39 -189 -39q-100 0 -156.5 37t-56.5 131q0 80 62 142q31 31 131 104h-869z" />
    <glyph glyph-name="eogonek" unicode="&#x119;" horiz-adv-x="1161" 
d="M115 535q0 108 12.5 191.5t45 159t86 124.5t138.5 77.5t199 28.5q230 0 343.5 -110t113.5 -334q0 -102 -21 -217h-727q0 -167 79 -240.5t251 -73.5q125 0 362 43v-178q-95 -73 -151 -129q-51 -51 -51 -98q0 -24 14 -33.5t43 -9.5q44 0 147 41v-152q-111 -39 -188 -39
q-100 0 -156.5 37t-56.5 131q0 81 61 142q21 21 89 75q-61 -6 -125 -6q-101 0 -178.5 16.5t-133.5 50t-94 80.5t-60.5 112.5t-32 140t-9.5 170.5zM596 946q-160 0 -225.5 -86.5t-65.5 -251.5h553q6 42 6 86q0 129 -67 190.5t-201 61.5z" />
    <glyph glyph-name="Ecaron" unicode="&#x11a;" horiz-adv-x="1339" 
d="M184 1544h1045v-190h-848v-471h803v-191h-803v-502h881v-190h-1078v1544zM313 1946h215l172 -181l172 181h213l-276 -295h-221z" />
    <glyph glyph-name="ecaron" unicode="&#x11b;" horiz-adv-x="1161" 
d="M623 -35q-101 0 -178.5 16.5t-133.5 50t-94 80.5t-60.5 112.5t-32 140t-9.5 170.5q0 108 12.5 191.5t45 159t86 124.5t138.5 77.5t199 28.5q230 0 343.5 -110t113.5 -334q0 -102 -21 -217h-727q0 -167 79 -240.5t251 -73.5q125 0 362 43v-178q-225 -41 -374 -41zM596 946
q-160 0 -225.5 -86.5t-65.5 -251.5h553q6 42 6 86q0 129 -67 190.5t-201 61.5zM473 1249l-274 295h215l172 -180l172 180h213l-277 -295h-221z" />
    <glyph glyph-name="Gcircumflex" unicode="&#x11c;" horiz-adv-x="1497" 
d="M154 758q0 103 6.5 186.5t23.5 170.5t46 154t76 127t110.5 99t153 61.5t200.5 22.5q170 0 494 -82v-197q-207 51 -279 64q-142 25 -201 25q-145 0 -228 -42t-132 -141q-70 -140 -70 -446q0 -288 64 -422q44 -94 131.5 -138t232.5 -44q130 0 338 26v643h197v-809
q-322 -51 -555 -51q-111 0 -196 18.5t-144.5 55.5t-99.5 82t-74 108q-94 175 -94 529zM590 1651h-213l274 295h221l277 -295h-215l-172 180z" />
    <glyph glyph-name="gcircumflex" unicode="&#x11d;" horiz-adv-x="1210" 
d="M117 547q0 258 78 391q57 97 148 137.5t237 40.5q68 0 162.5 -20t156 -39t156.5 -51v-908q0 -268 -136 -397t-407 -129q-122 0 -354 29v180q229 -31 354 -31q165 0 257.5 79.5t92.5 240.5v36q-218 -106 -366 -106q-68 0 -123 16.5t-94 45t-68 70.5t-47 87.5t-28.5 103
t-14.5 110t-4 114.5zM356 821q-45 -90 -45 -274q0 -175 41 -268q23 -53 64 -75t112 -22q78 0 183 41q52 20 151 68v583q-177 60 -278 60q-90 0 -144 -25.5t-84 -87.5zM430 1249h-213l275 295h221l276 -295h-215l-172 181z" />
    <glyph glyph-name="Gbreve" unicode="&#x11e;" horiz-adv-x="1497" 
d="M154 758q0 103 6.5 186.5t23.5 170.5t46 154t76 127t110.5 99t153 61.5t200.5 22.5q170 0 494 -82v-197q-207 51 -279 64q-142 25 -201 25q-145 0 -228 -42t-132 -141q-70 -140 -70 -446q0 -288 64 -422q44 -94 131.5 -138t232.5 -44q130 0 338 26v643h197v-809
q-322 -51 -555 -51q-111 0 -196 18.5t-144.5 55.5t-99.5 82t-74 108q-94 178 -94 529zM760 1642q-149 0 -227.5 76t-116.5 228h172q21 -79 49 -111q39 -53 123 -53q76 0 114.5 42t59.5 122h172q-39 -155 -111 -220q-84 -84 -235 -84z" />
    <glyph glyph-name="gbreve" unicode="&#x11f;" horiz-adv-x="1210" 
d="M117 547q0 258 78 391q57 97 148 137.5t237 40.5q68 0 162.5 -20t156 -39t156.5 -51v-908q0 -268 -136 -397t-407 -129q-122 0 -354 29v180q229 -31 354 -31q165 0 257.5 79.5t92.5 240.5v36q-218 -106 -366 -106q-68 0 -123 16.5t-94 45t-68 70.5t-47 87.5t-28.5 103
t-14.5 110t-4 114.5zM356 821q-45 -90 -45 -274q0 -175 41 -268q23 -53 64 -75t112 -22q78 0 183 41q52 20 151 68v583q-177 60 -278 60q-90 0 -144 -25.5t-84 -87.5zM596 1241q-149 0 -227.5 75.5t-116.5 227.5h172q21 -77 49 -110q40 -54 123 -54q76 0 114.5 42t59.5 122
h172q-39 -154 -111 -219q-84 -84 -235 -84z" />
    <glyph glyph-name="Gdotaccent" unicode="&#x120;" horiz-adv-x="1497" 
d="M154 758q0 103 6.5 186.5t23.5 170.5t46 154t76 127t110.5 99t153 61.5t200.5 22.5q170 0 494 -82v-197q-207 51 -279 64q-142 25 -201 25q-145 0 -228 -42t-132 -141q-70 -140 -70 -446q0 -288 64 -422q44 -94 131.5 -138t232.5 -44q130 0 338 26v643h197v-809
q-322 -51 -555 -51q-111 0 -196 18.5t-144.5 55.5t-99.5 82t-74 108q-94 175 -94 529zM659 1946h199v-289h-199v289z" />
    <glyph glyph-name="gdotaccent" unicode="&#x121;" horiz-adv-x="1210" 
d="M117 547q0 258 78 391q57 97 148 137.5t237 40.5q68 0 162.5 -20t156 -39t156.5 -51v-908q0 -268 -136 -397t-407 -129q-122 0 -354 29v180q229 -31 354 -31q165 0 257.5 79.5t92.5 240.5v36q-218 -106 -366 -106q-68 0 -123 16.5t-94 45t-68 70.5t-47 87.5t-28.5 103
t-14.5 110t-4 114.5zM356 821q-45 -90 -45 -274q0 -175 41 -268q23 -53 64 -75t112 -22q78 0 183 41q52 20 151 68v583q-177 60 -278 60q-90 0 -144 -25.5t-84 -87.5zM498 1544h198v-289h-198v289z" />
    <glyph glyph-name="uni0122" unicode="&#x122;" horiz-adv-x="1497" 
d="M154 758q0 103 6.5 186.5t23.5 170.5t46 154t76 127t110.5 99t153 61.5t200.5 22.5q170 0 494 -82v-197q-207 51 -279 64q-142 25 -201 25q-145 0 -228 -42t-132 -141q-70 -140 -70 -446q0 -288 64 -422q44 -94 131.5 -138t232.5 -44q130 0 338 26v643h197v-809
q-322 -51 -555 -51q-111 0 -196 18.5t-144.5 55.5t-99.5 82t-74 108q-94 175 -94 529zM662 -571q32 139 32 329v129h174v-120q0 -183 -65 -338h-141z" />
    <glyph glyph-name="uni0123" unicode="&#x123;" horiz-adv-x="1210" 
d="M117 547q0 258 78 391q57 97 148 137.5t237 40.5q68 0 162.5 -20t156 -39t156.5 -51v-908q0 -268 -136 -397t-407 -129q-122 0 -354 29v180q229 -31 354 -31q165 0 257.5 79.5t92.5 240.5v36q-218 -106 -366 -106q-68 0 -123 16.5t-94 45t-68 70.5t-47 87.5t-28.5 103
t-14.5 110t-4 114.5zM311 547q0 -175 41 -268q23 -53 64 -75t112 -22q78 0 183 41q52 20 151 68v583q-177 60 -278 60q-90 0 -144 -25.5t-84 -87.5q-45 -90 -45 -274zM678 1221h-174v137q0 192 65 344h142q-33 -143 -33 -336v-145z" />
    <glyph glyph-name="Hcircumflex" unicode="&#x124;" horiz-adv-x="1550" 
d="M184 0v1544h197v-635h788v635h197v-1544h-197v719h-788v-719h-197zM389 1651l275 295h221l276 -295h-215l-172 180l-172 -180h-213z" />
    <glyph glyph-name="hcircumflex" unicode="&#x125;" horiz-adv-x="1202" 
d="M156 0v1544h192v-526q81 32 125.5 48t113.5 33t122 17q87 0 148.5 -21t98.5 -56.5t58 -93.5t28 -118t7 -145v-682h-193v674q0 47 -1 73t-6.5 61t-17 53t-31.5 36t-52 25.5t-76 7.5q-102 0 -324 -96v-834h-192zM84 1651h-213l274 295h222l276 -295h-215l-172 180z" />
    <glyph glyph-name="Hbar" unicode="&#x126;" horiz-adv-x="1550" 
d="M381 0h-197v1546h197v-262h788v262h197v-1546h-197v690h-788v-690zM381 879h788v217h-788v-217z" />
    <glyph glyph-name="hbar" unicode="&#x127;" horiz-adv-x="1202" 
d="M0 1370h156v172h192v-172h338v-158h-338v-192q78 30 124 46t114.5 32t122.5 16q87 0 148.5 -21t98.5 -56t58 -92.5t28 -117.5t7 -145v-682h-193v672q0 47 -1 73t-6.5 61t-17 53t-31.5 36t-52 25.5t-76 7.5q-102 0 -324 -94v-834h-192v1212h-156v158z" />
    <glyph glyph-name="Itilde" unicode="&#x128;" horiz-adv-x="565" 
d="M184 0v1544h197v-1544h-197zM-131 1675q57 153 111 210t151 57q84 0 193 -74q53 -36 76.5 -48t52.5 -12q35 0 55.5 23t48.5 82h158q-28 -64 -47.5 -101t-50.5 -76t-70.5 -57t-91.5 -18q-93 0 -185 63q-54 39 -82.5 54.5t-54.5 15.5q-21 0 -35.5 -6.5t-28 -26t-21 -34.5
t-23.5 -52h-156z" />
    <glyph glyph-name="itilde" unicode="&#x129;" horiz-adv-x="503" 
d="M156 0v1081h192v-1081h-192zM-166 1268q57 153 110.5 209.5t151.5 56.5q84 0 193 -74q52 -36 76 -47.5t53 -11.5q36 0 56 22.5t48 81.5h158q-28 -64 -47.5 -101t-50.5 -76t-70.5 -57t-91.5 -18q-90 0 -184 64q-53 38 -82.5 53.5t-55.5 15.5q-21 0 -35.5 -6.5t-28 -25.5
t-21 -34.5t-23.5 -51.5h-156z" />
    <glyph glyph-name="Imacron" unicode="&#x12a;" horiz-adv-x="565" 
d="M381 0h-197v1544h197v-1544zM627 1704h-690v149h690v-149z" />
    <glyph glyph-name="imacron" unicode="&#x12b;" horiz-adv-x="503" 
d="M348 0h-192v1081h192v-1081zM598 1305h-690v149h690v-149z" />
    <glyph glyph-name="Ibreve" unicode="&#x12c;" horiz-adv-x="565" 
d="M184 1544h197v-1544h-197v1544zM-61 1946h172q21 -79 49 -111q39 -53 123 -53q76 0 114.5 42t59.5 122h172q-39 -155 -111 -220q-84 -84 -235 -84q-149 0 -227.5 76t-116.5 228z" />
    <glyph glyph-name="ibreve" unicode="&#x12d;" horiz-adv-x="503" 
d="M156 1081h192v-1081h-192v1081zM-92 1544h172q21 -77 49 -110q40 -54 123 -54q76 0 114.5 42t59.5 122h172q-39 -154 -111 -219q-84 -84 -235 -84q-149 0 -227.5 75.5t-116.5 227.5z" />
    <glyph glyph-name="Iogonek" unicode="&#x12e;" horiz-adv-x="565" 
d="M289 -414q-101 0 -157 34.5t-56 127.5q0 116 108 252v1544h197v-1544q-109 -138 -109 -221q0 -43 58 -43q42 0 145 41v-152q-106 -39 -186 -39z" />
    <glyph glyph-name="iogonek" unicode="&#x12f;" horiz-adv-x="503" 
d="M43 -252q0 67 29 124t84 128v1081h192v-1081q-35 -45 -52 -69t-36.5 -68.5t-19.5 -83.5q0 -43 57 -43q45 0 147 41v-152q-106 -39 -188 -39q-213 0 -213 162zM350 1249h-196v295h196v-295z" />
    <glyph glyph-name="Idotaccent" unicode="&#x130;" horiz-adv-x="565" 
d="M184 0v1544h197v-1544h-197zM383 1657h-199v289h199v-289z" />
    <glyph glyph-name="dotlessi" unicode="&#x131;" horiz-adv-x="503" 
d="M348 0h-192v1081h192v-1081z" />
    <glyph glyph-name="IJ" unicode="&#x132;" horiz-adv-x="1323" 
d="M502 -213v201q210 67 313 127q46 28 71 52.5t38 61.5q20 59 20 242v1073h197v-1079q0 -98 -0.5 -133.5t-7 -94.5t-21.5 -98q-33 -93 -129 -151q-89 -54 -232 -111.5t-249 -89.5zM184 1544h197v-1544h-197v1544z" />
    <glyph glyph-name="ij" unicode="&#x133;" horiz-adv-x="1015" 
d="M393 -432v192q35 12 62 22.5t62 28.5t59.5 37t46.5 46.5t32 58.5q13 42 13 180v948h192v-968q0 -173 -20 -234q-16 -51 -53.5 -96t-81 -76t-103 -59.5t-105.5 -45t-104 -34.5zM156 0v1081h192v-1081h-192zM666 1544h196v-289h-196v289zM350 1255h-196v289h196v-289z" />
    <glyph glyph-name="Jcircumflex" unicode="&#x134;" horiz-adv-x="788" 
d="M-33 -12q212 68 314 127q46 27 70.5 52t37.5 62q21 62 21 242v1073h196v-1079v-39.5v-39.5v-35.5t-0.5 -36t-1.5 -32t-2.5 -32.5t-3.5 -29t-5 -30l-6.5 -26t-8.5 -26q-33 -93 -129 -151q-89 -54 -232 -111.5t-250 -89.5v201zM324 1651h-213l274 295h221l277 -295h-215
l-172 180z" />
    <glyph glyph-name="jcircumflex" unicode="&#x135;" horiz-adv-x="528" 
d="M-94 -434v182q49 18 79 31.5t71.5 38t68.5 56.5t39 71q14 45 14 186v950h195v-972q0 -176 -17 -232q-13 -43 -40.5 -81t-66 -68t-78.5 -54.5t-90.5 -45t-88.5 -34t-86 -28.5zM-127 1249l277 295h221l276 -295h-215l-172 181l-172 -181h-215z" />
    <glyph glyph-name="uni0136" unicode="&#x136;" horiz-adv-x="1353" 
d="M184 0v1544h197v-733l682 733h262l-707 -760l773 -784h-275l-735 745v-745h-197zM664 -573h-142q33 143 33 329v129h174v-121q0 -182 -65 -337z" />
    <glyph glyph-name="uni0137" unicode="&#x137;" horiz-adv-x="1087" 
d="M348 0h-192v1544h192v-930l455 467h262l-485 -497l526 -584h-260l-498 553v-553zM406 -573q32 139 32 329v129h174v-121q0 -182 -65 -337h-141z" />
    <glyph glyph-name="kgreenlandic" unicode="&#x138;" horiz-adv-x="1107" 
d="M348 0h-192v1081h192v-479q242 79 359 189q90 84 133 290h196q-23 -118 -50 -196t-73.5 -146t-113 -119t-168.5 -102l481 -518h-262l-502 543v-543z" />
    <glyph glyph-name="Lacute" unicode="&#x139;" horiz-adv-x="1253" 
d="M1196 0h-1012v1544h197v-1354h815v-190zM383 1651h-221l262 295h227z" />
    <glyph glyph-name="lacute" unicode="&#x13a;" horiz-adv-x="503" 
d="M348 0h-192v1544h192v-1544zM340 1651h-221l262 295h227z" />
    <glyph glyph-name="uni013B" unicode="&#x13b;" horiz-adv-x="1253" 
d="M1196 0h-1012v1544h197v-1354h815v-190zM694 -573h-141q33 143 33 329v129h174v-121q0 -179 -66 -337z" />
    <glyph glyph-name="uni013C" unicode="&#x13c;" horiz-adv-x="503" 
d="M156 1544h192v-1544h-192v1544zM276 -573h-141q33 143 33 329v129h174v-121q0 -179 -66 -337z" />
    <glyph glyph-name="Lcaron" unicode="&#x13d;" horiz-adv-x="1253" 
d="M1196 0h-1012v1544h197v-1354h815v-190zM680 1141v403h172v-133q0 -121 -35 -270h-137z" />
    <glyph glyph-name="lcaron" unicode="&#x13e;" horiz-adv-x="612" 
d="M156 1544h192v-1544h-192v1544zM465 1141v403h172v-133q0 -121 -35 -270h-137z" />
    <glyph glyph-name="Ldot" unicode="&#x13f;" horiz-adv-x="1253" 
d="M1196 0h-1012v1544h197v-1354h815v-190zM1004 653h-199v289h199v-289z" />
    <glyph glyph-name="ldot" unicode="&#x140;" horiz-adv-x="702" 
d="M348 0h-192v1544h192v-1544zM702 653h-198v289h198v-289z" />
    <glyph glyph-name="Lslash" unicode="&#x141;" horiz-adv-x="1253" 
d="M20 702l164 107v735h197v-612l319 205v-189l-319 -207v-551h815v-190h-1012v618l-164 -106v190z" />
    <glyph glyph-name="lslash" unicode="&#x142;" horiz-adv-x="565" 
d="M27 731l159 103v710h193v-586l160 105v-189l-160 -104v-770h-193v647l-159 -102v186z" />
    <glyph glyph-name="Nacute" unicode="&#x143;" horiz-adv-x="1548" 
d="M379 0h-195v1544h244l741 -1259v1259h195v-1544h-244l-741 1260v-1260zM807 1651h-221l262 295h227z" />
    <glyph glyph-name="nacute" unicode="&#x144;" 
d="M156 0v1081h192v-71q255 106 373 106q85 0 146 -22t97 -57.5t56.5 -93.5t27.5 -118t7 -143v-682h-193v676q0 39 -0.5 61t-4 53t-10.5 48.5t-20 37.5t-31.5 30t-46.5 17t-65 7q-105 0 -336 -103v-827h-192zM618 1249h-221l262 295h228z" />
    <glyph glyph-name="uni0145" unicode="&#x145;" horiz-adv-x="1548" 
d="M379 0h-195v1544h244l741 -1259v1259h195v-1544h-244l-741 1260v-1260zM659 -573q33 143 33 329v129h174v-121q0 -182 -65 -337h-142z" />
    <glyph glyph-name="uni0146" unicode="&#x146;" 
d="M156 0v1081h192v-71q255 106 373 106q85 0 146 -22t97 -57.5t56.5 -93.5t27.5 -118t7 -143v-682h-193v676q0 39 -0.5 61t-4 53t-10.5 48.5t-20 37.5t-31.5 30t-46.5 17t-65 7q-105 0 -336 -103v-827h-192zM608 -573h-141q33 143 33 329v129h174v-121q0 -179 -66 -337z
" />
    <glyph glyph-name="Ncaron" unicode="&#x147;" horiz-adv-x="1548" 
d="M379 0h-195v1544h244l741 -1259v1259h195v-1544h-244l-741 1260v-1260zM657 1651l-274 295h215l172 -181l172 181h213l-276 -295h-222z" />
    <glyph glyph-name="ncaron" unicode="&#x148;" 
d="M156 0v1081h192v-71q255 106 373 106q85 0 146 -22t97 -57.5t56.5 -93.5t27.5 -118t7 -143v-682h-193v676q0 39 -0.5 61t-4 53t-10.5 48.5t-20 37.5t-31.5 30t-46.5 17t-65 7q-105 0 -336 -103v-827h-192zM215 1544h215l172 -180l172 180h213l-276 -295h-222z" />
    <glyph glyph-name="napostrophe" unicode="&#x149;" horiz-adv-x="1298" 
d="M438 0h-192v1081h192v-71q255 106 373 106q85 0 146 -22t97 -57.5t56.5 -93.5t27.5 -118t7 -143v-682h-193v676q0 39 -0.5 61t-4 53t-10.5 48.5t-20 37.5t-31.5 30t-46.5 17t-65 7q-105 0 -336 -103v-827zM125 1085h-141q32 139 32 330v129h174v-121q0 -183 -65 -338z
" />
    <glyph glyph-name="Eng" unicode="&#x14a;" horiz-adv-x="1548" 
d="M184 1544h244l741 -1259v1259h195v-1329q0 -81 -1 -121t-7 -92.5t-19 -89.5q-31 -93 -131 -154q-86 -53 -229 -109.5t-252 -88.5v200q198 63 307 119q47 24 71 44t32 52l-756 1285v-1260h-195v1544z" />
    <glyph glyph-name="eng" unicode="&#x14b;" 
d="M156 0v1081h192v-71q77 32 126.5 50.5t122.5 37t124 18.5q85 0 146 -22t97 -57.5t56.5 -93.5t27.5 -118t7 -143v-569q0 -158 -21 -234q-15 -50 -52 -94.5t-81 -75.5t-104.5 -60.5t-106 -46t-102.5 -34.5v192q44 14 104 42.5t88 52.5q39 30 56 63t22 82q4 41 4 133v543
q0 39 -0.5 61t-4 53t-10.5 48.5t-20 37.5t-31.5 30t-46.5 17t-65 7q-105 0 -336 -103v-827h-192z" />
    <glyph glyph-name="Omacron" unicode="&#x14c;" horiz-adv-x="1615" 
d="M154 770q0 149 16 264.5t60 221t116 174t189 109t274 40.5q193 0 314 -53.5t204 -169.5q70 -98 102.5 -254t32.5 -332q0 -147 -17.5 -262.5t-62.5 -220t-117.5 -173.5t-187.5 -109t-268 -40q-217 0 -341.5 56.5t-197.5 175.5q-116 185 -116 573zM354 770q0 -322 78 -459
q28 -48 67 -80t90.5 -47.5t102 -21.5t117.5 -6q84 0 150.5 16.5t113.5 44.5t81.5 73t55 93.5t32.5 115t16 129t4 142.5q0 316 -88 457q-54 88 -144.5 125t-220.5 37q-135 0 -231.5 -39.5t-149.5 -137.5q-74 -137 -74 -442zM1151 1704h-690v149h690v-149z" />
    <glyph glyph-name="omacron" unicode="&#x14d;" 
d="M604 -35q-112 0 -196.5 26.5t-139.5 74.5t-89.5 120.5t-49 157t-14.5 191.5q0 106 13.5 190.5t48 159.5t89 124.5t140 78t198.5 28.5q112 0 196.5 -27.5t140 -76t90 -122t49 -158t14.5 -191.5q0 -105 -14.5 -189.5t-49.5 -158t-90.5 -123t-140 -77.5t-195.5 -28zM309 537
q0 -182 53 -277q35 -63 93.5 -88t148.5 -25q74 0 128 21.5t85.5 56.5t50.5 89t25 108t6 125q0 69 -6.5 122.5t-25.5 105t-51 85t-85.5 54t-126.5 20.5q-75 0 -129 -21.5t-85.5 -55.5t-50 -88t-24.5 -107.5t-6 -124.5zM262 1454h690v-149h-690v149z" />
    <glyph glyph-name="Obreve" unicode="&#x14e;" horiz-adv-x="1615" 
d="M154 770q0 149 16 264.5t60 221t116 174t189 109t274 40.5q193 0 314 -53.5t204 -169.5q70 -98 102.5 -254t32.5 -332q0 -147 -17.5 -262.5t-62.5 -220t-117.5 -173.5t-187.5 -109t-268 -40q-217 0 -341.5 56.5t-197.5 175.5q-116 185 -116 573zM354 770q0 -322 78 -459
q28 -48 67 -80t90.5 -47.5t102 -21.5t117.5 -6q84 0 150.5 16.5t113.5 44.5t81.5 73t55 93.5t32.5 115t16 129t4 142.5q0 316 -88 457q-54 88 -144.5 125t-220.5 37q-135 0 -230.5 -39.5t-150.5 -137.5q-74 -135 -74 -442zM807 1642q-149 0 -227.5 76t-116.5 228h172
q21 -79 49 -111q39 -53 123 -53q76 0 114.5 42t59.5 122h172q-39 -155 -111 -220q-84 -84 -235 -84z" />
    <glyph glyph-name="obreve" unicode="&#x14f;" 
d="M604 -35q-112 0 -196.5 26.5t-139.5 74.5t-89.5 120.5t-49 157t-14.5 191.5q0 106 13.5 190.5t48 159.5t89 124.5t140 78t198.5 28.5q112 0 196.5 -27.5t140 -76t90 -122t49 -158t14.5 -191.5q0 -105 -14.5 -189.5t-49.5 -158t-90.5 -123t-140 -77.5t-195.5 -28zM604 934
q-75 0 -129 -21.5t-85.5 -55.5t-50 -88t-24.5 -107.5t-6 -124.5q0 -182 53 -277q35 -63 93.5 -88t148.5 -25q74 0 128 21.5t85.5 56.5t50.5 89t25 108t6 125q0 69 -6.5 122.5t-25.5 105t-51 85t-85.5 54t-126.5 20.5zM604 1241q-149 0 -227.5 75.5t-116.5 227.5h172
q21 -77 49 -110q40 -54 123 -54q76 0 114.5 42t59.5 122h172q-39 -155 -110 -219q-84 -84 -236 -84z" />
    <glyph glyph-name="Ohungarumlaut" unicode="&#x150;" horiz-adv-x="1615" 
d="M154 770q0 149 16 264.5t60 221t116 174t189 109t274 40.5q193 0 314 -53.5t204 -169.5q70 -98 102.5 -254t32.5 -332q0 -147 -17.5 -262.5t-62.5 -220t-117.5 -173.5t-187.5 -109t-268 -40q-217 0 -341.5 56.5t-197.5 175.5q-116 185 -116 573zM428 1212
q-74 -137 -74 -442q0 -322 78 -459q28 -48 67 -80t90.5 -47.5t102 -21.5t117.5 -6q84 0 150.5 16.5t113.5 44.5t81.5 73t55 93.5t32.5 115t16 129t4 142.5q0 316 -88 457q-54 88 -144.5 125t-220.5 37q-135 0 -231.5 -39.5t-149.5 -137.5zM1038 1651h-188l194 295h197z
M696 1651h-188l194 295h197z" />
    <glyph glyph-name="ohungarumlaut" unicode="&#x151;" 
d="M604 -35q-112 0 -196.5 26.5t-139.5 74.5t-89.5 120.5t-49 157t-14.5 191.5q0 106 13.5 190.5t48 159.5t89 124.5t140 78t198.5 28.5q112 0 196.5 -27.5t140 -76t90 -122t49 -158t14.5 -191.5q0 -105 -14.5 -189.5t-49.5 -158t-90.5 -123t-140 -77.5t-195.5 -28zM309 537
q0 -182 53 -277q35 -63 93.5 -88t148.5 -25q74 0 128 21.5t85.5 56.5t50.5 89t25 108t6 125q0 69 -6.5 122.5t-25.5 105t-51 85t-85.5 54t-126.5 20.5q-75 0 -129 -21.5t-85.5 -55.5t-50 -88t-24.5 -107.5t-6 -124.5zM831 1249h-188l195 295h196zM489 1249h-188l195 295h196
z" />
    <glyph glyph-name="OE" unicode="&#x152;" horiz-adv-x="2353" 
d="M270 197q-116 184 -116 573q0 150 16 265t59.5 220.5t115.5 174t189 109t275 40.5q163 0 303 -35h1129v-190h-908q57 -80 84 -213.5t27 -257.5h751v-191h-751q0 -139 -25 -280.5t-86 -221.5h942v-190h-1171q-133 -35 -295 -35q-216 0 -340.5 57t-198.5 175zM354 770
q0 -327 78 -457q54 -90 147.5 -123.5t229.5 -33.5q134 0 216 25.5t136 103.5q51 74 68.5 189t17.5 296q0 162 -13 272t-52 185q-49 92 -135 127t-238 35q-87 0 -155.5 -17t-116 -44.5t-81.5 -73.5t-53.5 -94t-30.5 -116.5t-14.5 -129.5t-3.5 -144z" />
    <glyph glyph-name="oe" unicode="&#x153;" horiz-adv-x="1935" 
d="M604 -35q-111 0 -195.5 26.5t-140 74.5t-90 120.5t-49 157t-14.5 191.5q0 106 13.5 190.5t48 159.5t89 124.5t140 78t198.5 28.5q279 0 383 -182q53 89 143 135.5t240 46.5q230 0 343.5 -110t113.5 -334q0 -102 -21 -217h-727q0 -171 76.5 -242.5t253.5 -71.5
q116 0 363 43v-178q-231 -41 -375 -41q-123 0 -205.5 22t-128.5 59.5t-78 98.5q-109 -180 -381 -180zM309 539q0 -184 53 -279q35 -63 93.5 -88t148.5 -25q73 0 127 22t86 57t50.5 89t25 108t6.5 124q0 69 -6.5 122.5t-25.5 105t-51 85t-85.5 54t-126.5 20.5q-75 0 -129 -21
t-85.5 -55t-50 -87.5t-24.5 -107t-6 -124.5zM1370 950q-158 0 -224.5 -89.5t-66.5 -252.5h553q6 42 6 86q0 130 -66.5 193t-201.5 63z" />
    <glyph glyph-name="Racute" unicode="&#x154;" horiz-adv-x="1441" 
d="M381 0h-197v1544h588q157 0 251.5 -20t164.5 -74q68 -52 103.5 -137t35.5 -187q0 -95 -34.5 -168.5t-102.5 -154.5q-42 -50 -168 -176l383 -627h-234l-362 596h-428v-596zM381 1354v-568h537q70 74 112 123q96 110 96 217q0 37 -7.5 67.5t-18.5 53t-32 39.5t-38.5 28.5
t-48 19t-51.5 11.5t-57.5 6t-57.5 2.5t-59 0.5h-375zM516 1651l262 295h228l-269 -295h-221z" />
    <glyph glyph-name="racute" unicode="&#x155;" horiz-adv-x="747" 
d="M348 0h-192v1081h192v-131q95 71 177 104t206 52v-195q-213 -39 -383 -157v-754zM373 1249h-221l262 295h227z" />
    <glyph glyph-name="uni0156" unicode="&#x156;" horiz-adv-x="1441" 
d="M381 0h-197v1544h588q157 0 251.5 -20t164.5 -74q68 -52 103.5 -137t35.5 -187q0 -95 -34.5 -168.5t-102.5 -154.5q-42 -50 -168 -176l383 -627h-234l-362 596h-428v-596zM381 1354v-568h537q70 74 112 123q96 110 96 217q0 37 -7.5 67.5t-18.5 53t-32 39.5t-38.5 28.5
t-48 19t-51.5 11.5t-57.5 6t-57.5 2.5t-59 0.5h-375zM721 -573h-141q32 139 32 329v129h174v-121q0 -182 -65 -337z" />
    <glyph glyph-name="uni0157" unicode="&#x157;" horiz-adv-x="747" 
d="M348 0h-192v1081h192v-131q95 71 177 104t206 52v-195q-213 -39 -383 -157v-754zM135 -573q33 143 33 329v129h174v-121q0 -179 -66 -337h-141z" />
    <glyph glyph-name="Rcaron" unicode="&#x158;" horiz-adv-x="1441" 
d="M381 0h-197v1544h588q157 0 251.5 -20t164.5 -74q68 -52 103.5 -137t35.5 -187q0 -95 -34.5 -168.5t-102.5 -154.5q-42 -50 -168 -176l383 -627h-234l-362 596h-428v-596zM381 786h537q70 74 112 123q96 110 96 217q0 37 -7.5 67.5t-18.5 53t-32 39.5t-38.5 28.5t-48 19
t-51.5 11.5t-57.5 6t-57.5 2.5t-59 0.5h-375v-568zM301 1946h215l172 -181l172 181h213l-276 -295h-222z" />
    <glyph glyph-name="rcaron" unicode="&#x159;" horiz-adv-x="747" 
d="M348 0h-192v1081h192v-131q95 71 177 104t206 52v-195q-213 -39 -383 -157v-754zM272 1249l-274 295h215l172 -180l172 180h213l-276 -295h-222z" />
    <glyph glyph-name="Sacute" unicode="&#x15a;" horiz-adv-x="1318" 
d="M444 750q-88 30 -144 59t-103.5 74.5t-69 111t-21.5 156.5q0 207 134 324q66 58 158.5 81t232.5 23q80 0 186 -16t173 -30.5t179 -41.5v-197q-388 95 -534 95q-56 0 -98.5 -4t-88 -18.5t-74.5 -38.5t-48 -67t-19 -102q0 -105 49 -149q18 -16 49 -31t58 -25t84 -30
l307 -103q73 -24 123 -46.5t98 -56.5t75.5 -75t44.5 -100t17 -135q0 -199 -133 -320q-72 -66 -175 -94.5t-259 -28.5q-176 0 -526 74v194q355 -77 534 -77q46 0 86 4t82.5 13t75 27t59.5 44.5t41.5 66t14.5 90.5q0 98 -47 148q-6 6 -13 12t-13.5 10.5t-17 10t-17.5 9
t-20.5 9t-21 8.5t-25 9t-25 8.5l-28.5 9.5l-30 10zM461 1651l262 295h227l-268 -295h-221z" />
    <glyph glyph-name="sacute" unicode="&#x15b;" horiz-adv-x="1054" 
d="M379 496q-70 21 -115 42.5t-84.5 55.5t-57.5 85t-18 122q0 74 22.5 130t59 90.5t91 56.5t112 30t127.5 8q84 0 198 -21t193 -42v-185q-279 68 -387 68q-37 0 -61.5 -1.5t-57.5 -9t-53 -21t-34.5 -40t-14.5 -63.5q0 -68 43 -94q35 -22 131 -50l197 -59q55 -17 93.5 -33
t76 -41t60 -55.5t36.5 -75.5t14 -102q0 -326 -444 -326q-134 0 -389 51v185q274 -56 401 -56q36 0 64 2t62.5 10.5t57 23t38.5 42.5t16 66q0 56 -35 88q-30 26 -152 61zM557 1249h-221l262 295h227z" />
    <glyph glyph-name="Scircumflex" unicode="&#x15c;" horiz-adv-x="1318" 
d="M106 1151q0 207 134 324q66 58 158.5 81t232.5 23q80 0 186 -16t173 -30.5t179 -41.5v-197q-388 95 -534 95q-56 0 -98.5 -4t-88 -18.5t-74.5 -38.5t-48 -67t-19 -102q0 -105 49 -149q18 -16 49 -31t58 -25t84 -30l307 -103q73 -24 123 -46.5t98 -56.5t75.5 -75
t44.5 -100t17 -135q0 -199 -133 -320q-72 -66 -175 -94.5t-259 -28.5q-176 0 -526 74v194q355 -77 534 -77q46 0 86 4t82.5 13t75 27t59.5 44.5t41.5 66t14.5 90.5q0 98 -47 148q-6 6 -13 12t-13.5 10.5t-17 10t-17.5 9t-20.5 9t-21 8.5t-25 9t-25 8.5l-28.5 9.5l-30 10
l-310 105q-88 30 -144 59t-103.5 74.5t-69 111t-21.5 156.5zM485 1651h-213l275 295h221l276 -295h-215l-172 180z" />
    <glyph glyph-name="scircumflex" unicode="&#x15d;" horiz-adv-x="1054" 
d="M104 801q0 74 22.5 130t59 90.5t91 56.5t112 30t127.5 8q84 0 198 -21t193 -42v-185q-279 68 -387 68q-37 0 -61.5 -1.5t-57.5 -9t-53 -21t-34.5 -40t-14.5 -63.5q0 -68 43 -94q35 -22 131 -50l197 -59q55 -17 93.5 -33t76 -41t60 -55.5t36.5 -75.5t14 -102
q0 -326 -444 -326q-134 0 -389 51v185q274 -56 401 -56q36 0 64 2t62.5 10.5t57 23t38.5 42.5t16 66q0 56 -35 88q-30 26 -152 61l-190 58q-70 21 -115 42.5t-84.5 55.5t-57.5 85t-18 122zM354 1249h-213l275 295h221l276 -295h-215l-172 181z" />
    <glyph glyph-name="Scedilla" unicode="&#x15e;" horiz-adv-x="1318" 
d="M444 750q-88 30 -144 59t-103.5 74.5t-69 111t-21.5 156.5q0 207 134 324q66 58 158.5 81t232.5 23q80 0 186 -16t173 -30.5t179 -41.5v-197q-388 95 -534 95q-56 0 -98.5 -4t-88 -18.5t-74.5 -38.5t-48 -67t-19 -102q0 -105 49 -149q18 -16 49 -31t58 -25t84 -30
l307 -103q73 -24 123 -46.5t98 -56.5t75.5 -75t44.5 -100t17 -135q0 -199 -133 -320q-72 -66 -175 -94.5t-259 -28.5q-176 0 -526 74v194q355 -77 534 -77q46 0 86 4t82.5 13t75 27t59.5 44.5t41.5 66t14.5 90.5q0 98 -47 148q-6 6 -13 12t-13.5 10.5t-17 10t-17.5 9
t-20.5 9t-21 8.5t-25 9t-25 8.5l-28.5 9.5l-30 10zM416 -403l176 280h207l-174 -280h-209z" />
    <glyph glyph-name="scedilla" unicode="&#x15f;" horiz-adv-x="1054" 
d="M104 801q0 74 22.5 130t59 90.5t91 56.5t112 30t127.5 8q84 0 198 -21t193 -42v-185q-279 68 -387 68q-37 0 -61.5 -1.5t-57.5 -9t-53 -21t-34.5 -40t-14.5 -63.5q0 -68 43 -94q35 -22 131 -50l197 -59q55 -17 93.5 -33t76 -41t60 -55.5t36.5 -75.5t14 -102
q0 -326 -444 -326q-134 0 -389 51v185q274 -56 401 -56q36 0 64 2t62.5 10.5t57 23t38.5 42.5t16 66q0 56 -35 88q-30 26 -152 61l-190 58q-70 21 -115 42.5t-84.5 55.5t-57.5 85t-18 122zM285 -403l176 280h207l-174 -280h-209z" />
    <glyph glyph-name="Scaron" unicode="&#x160;" horiz-adv-x="1318" 
d="M106 1151q0 207 134 324q66 58 158.5 81t232.5 23q80 0 186 -16t173 -30.5t179 -41.5v-197q-388 95 -534 95q-56 0 -98.5 -4t-88 -18.5t-74.5 -38.5t-48 -67t-19 -102q0 -105 49 -149q18 -16 49 -31t58 -25t84 -30l307 -103q73 -24 123 -46.5t98 -56.5t75.5 -75
t44.5 -100t17 -135q0 -199 -133 -320q-72 -66 -175 -94.5t-259 -28.5q-176 0 -526 74v194q355 -77 534 -77q46 0 86 4t82.5 13t75 27t59.5 44.5t41.5 66t14.5 90.5q0 98 -47 148q-6 6 -13 12t-13.5 10.5t-17 10t-17.5 9t-20.5 9t-21 8.5t-25 9t-25 8.5l-28.5 9.5l-30 10
l-310 105q-88 30 -144 59t-103.5 74.5t-69 111t-21.5 156.5zM272 1946h215l172 -181l172 181h213l-276 -295h-221z" />
    <glyph glyph-name="scaron" unicode="&#x161;" horiz-adv-x="1054" 
d="M104 801q0 74 22.5 130t59 90.5t91 56.5t112 30t127.5 8q84 0 198 -21t193 -42v-185q-279 68 -387 68q-37 0 -61.5 -1.5t-57.5 -9t-53 -21t-34.5 -40t-14.5 -63.5q0 -68 43 -94q35 -22 131 -50l197 -59q55 -17 93.5 -33t76 -41t60 -55.5t36.5 -75.5t14 -102
q0 -326 -444 -326q-134 0 -389 51v185q274 -56 401 -56q36 0 64 2t62.5 10.5t57 23t38.5 42.5t16 66q0 56 -35 88q-30 26 -152 61l-190 58q-70 21 -115 42.5t-84.5 55.5t-57.5 85t-18 122zM133 1544h215l172 -180l172 180h213l-276 -295h-221z" />
    <glyph glyph-name="uni0162" unicode="&#x162;" horiz-adv-x="1368" 
d="M39 1354v190h1290v-190h-547v-1354h-196v1354h-547zM442 -403l176 280h207l-174 -280h-209z" />
    <glyph glyph-name="uni0163" unicode="&#x163;" horiz-adv-x="706" 
d="M154 1360h192v-293h332v-182h-332v-449q0 -115 6 -160q9 -62 74 -83q55 -17 201 -25v-182q-223 11 -316 41q-56 19 -88 47t-47 71q-11 30 -16 73t-5.5 78.5t-0.5 135.5v928zM332 -403h-209l176 280h207z" />
    <glyph glyph-name="Tcaron" unicode="&#x164;" horiz-adv-x="1368" 
d="M586 1354h-547v190h1290v-190h-547v-1354h-196v1354zM578 1651l-275 295h215l172 -181l172 181h213l-276 -295h-221z" />
    <glyph glyph-name="tcaron" unicode="&#x165;" horiz-adv-x="706" 
d="M154 1360h192v-293h332v-182h-332v-449q0 -115 6 -160q9 -62 74 -83q55 -17 201 -25v-182q-223 11 -316 41q-56 19 -88 47t-47 71q-11 30 -16 73t-5.5 78.5t-0.5 135.5v928zM598 1167h-137v377h172v-127q0 -101 -35 -250z" />
    <glyph glyph-name="Tbar" unicode="&#x166;" horiz-adv-x="1368" 
d="M39 1544h1290v-188h-547v-477h287v-187h-287v-692h-196v692h-287v187h287v477h-547v188z" />
    <glyph glyph-name="tbar" unicode="&#x167;" horiz-adv-x="741" 
d="M154 1360h192v-293h332v-178h-332v-152h330v-178h-330v-123q0 -115 6 -160q9 -62 74 -83q55 -17 201 -25v-182q-223 11 -316 41q-56 19 -88 47t-47 71q-11 30 -16 73t-5.5 78.5t-0.5 135.5v928z" />
    <glyph glyph-name="Utilde" unicode="&#x168;" horiz-adv-x="1513" 
d="M180 588v956h197v-956q0 -83 5.5 -141t20.5 -109.5t41.5 -83.5t69 -55.5t102.5 -33t142 -9.5q98 0 165.5 16.5t109.5 47t65 86t31 119.5t8 163v956h196v-956q0 -194 -28.5 -308t-116.5 -190q-76 -67 -178.5 -96t-251.5 -29q-169 0 -280.5 35t-177.5 114t-93 192t-27 282z
M346 1665q57 153 110.5 209.5t151.5 56.5q86 0 193 -73q53 -36 77 -48t52 -12q36 0 56 23t48 82h158q-28 -64 -47.5 -101t-50.5 -76t-70.5 -57t-91.5 -18q-92 0 -184 63q-54 38 -83 54t-55 16q-21 0 -35.5 -6.5t-28 -26t-21 -34.5t-23.5 -52h-156z" />
    <glyph glyph-name="utilde" unicode="&#x169;" horiz-adv-x="1193" 
d="M154 1081h192v-653q0 -40 0.5 -62t3 -54t8.5 -49.5t15.5 -39t24.5 -33.5t36 -23t50.5 -15.5t66.5 -4.5q125 0 295 46v888h192v-1030q-98 -27 -157.5 -42t-157.5 -29.5t-188 -14.5q-94 0 -161.5 21t-109.5 58t-67 96t-34 126t-9 158v657zM186 1268q57 153 111 209.5
t152 56.5q83 0 192 -74q52 -36 76 -47.5t53 -11.5q36 0 56 22.5t48 81.5h158q-28 -64 -47.5 -101t-50.5 -76t-70.5 -57t-91.5 -18q-90 0 -184 64q-53 38 -82 53.5t-55 15.5q-39 0 -59.5 -25.5t-49.5 -92.5h-156z" />
    <glyph glyph-name="Umacron" unicode="&#x16a;" horiz-adv-x="1513" 
d="M180 1544h197v-956q0 -83 5.5 -141t20.5 -109.5t41.5 -83.5t69 -55.5t102.5 -33t142 -9.5q98 0 165.5 16.5t109.5 47t65 86t31 119.5t8 163v956h196v-956q0 -194 -28.5 -308t-116.5 -190q-76 -67 -178.5 -96t-251.5 -29q-169 0 -280.5 35t-177.5 114t-93 192t-27 282v956
zM412 1853h690v-149h-690v149z" />
    <glyph glyph-name="umacron" unicode="&#x16b;" horiz-adv-x="1193" 
d="M154 1081h192v-653q0 -40 0.5 -62t3 -54t8.5 -49.5t15.5 -39t24.5 -33.5t36 -23t50.5 -15.5t66.5 -4.5q125 0 295 46v888h192v-1030q-98 -27 -157.5 -42t-157.5 -29.5t-188 -14.5q-94 0 -161.5 21t-109.5 58t-67 96t-34 126t-9 158v657zM250 1454h690v-149h-690v149z" />
    <glyph glyph-name="Ubreve" unicode="&#x16c;" horiz-adv-x="1513" 
d="M180 1544h197v-956q0 -83 5.5 -141t20.5 -109.5t41.5 -83.5t69 -55.5t102.5 -33t142 -9.5q98 0 165.5 16.5t109.5 47t65 86t31 119.5t8 163v956h196v-956q0 -194 -28.5 -308t-116.5 -190q-76 -67 -178.5 -96t-251.5 -29q-169 0 -280.5 35t-177.5 114t-93 192t-27 282v956
zM758 1642q-149 0 -227.5 76t-116.5 228h172q21 -79 49 -111q39 -53 123 -53q76 0 114.5 42t59.5 122h172q-39 -155 -111 -220q-84 -84 -235 -84z" />
    <glyph glyph-name="ubreve" unicode="&#x16d;" horiz-adv-x="1193" 
d="M154 1081h192v-653q0 -40 0.5 -62t3 -54t8.5 -49.5t15.5 -39t24.5 -33.5t36 -23t50.5 -15.5t66.5 -4.5q125 0 295 46v888h192v-1030q-98 -27 -157.5 -42t-157.5 -29.5t-188 -14.5q-94 0 -161.5 21t-109.5 58t-67 96t-34 126t-9 158v657zM596 1241q-149 0 -227.5 75.5
t-116.5 227.5h172q21 -77 49 -110q40 -54 123 -54q76 0 114.5 42t59.5 122h172q-39 -154 -111 -219q-84 -84 -235 -84z" />
    <glyph glyph-name="Uring" unicode="&#x16e;" horiz-adv-x="1513" 
d="M180 1544h197v-956q0 -83 5.5 -141t20.5 -109.5t41.5 -83.5t69 -55.5t102.5 -33t142 -9.5q98 0 165.5 16.5t109.5 47t65 86t31 119.5t8 163v956h196v-956q0 -194 -28.5 -308t-116.5 -190q-76 -67 -178.5 -96t-251.5 -29q-169 0 -280.5 35t-177.5 114t-93 192t-27 282v956
zM492 1810q0 116 72 181t190 65q120 0 191 -64t71 -182q0 -114 -73 -177.5t-189 -63.5t-189 63.5t-73 177.5zM627 1810q0 -56 35 -86t92 -30q58 0 93.5 30t35.5 86q0 59 -34.5 90t-94.5 31q-59 0 -93 -31.5t-34 -89.5z" />
    <glyph glyph-name="uring" unicode="&#x16f;" horiz-adv-x="1193" 
d="M154 1081h192v-653q0 -40 0.5 -62t3 -54t8.5 -49.5t15.5 -39t24.5 -33.5t36 -23t50.5 -15.5t66.5 -4.5q125 0 295 46v888h192v-1030q-98 -27 -157.5 -42t-157.5 -29.5t-188 -14.5q-94 0 -161.5 21t-109.5 58t-67 96t-34 126t-9 158v657zM338 1434q0 116 72 180.5
t190 64.5q120 0 191 -64t71 -181q0 -114 -73 -178t-189 -64t-189 64t-73 178zM600 1554q-59 0 -93 -31t-34 -89q0 -56 35 -86.5t92 -30.5q58 0 93.5 30t35.5 87q0 59 -34.5 89.5t-94.5 30.5z" />
    <glyph glyph-name="Uhungarumlaut" unicode="&#x170;" horiz-adv-x="1513" 
d="M180 1544h197v-956q0 -83 5.5 -141t20.5 -109.5t41.5 -83.5t69 -55.5t102.5 -33t142 -9.5q98 0 165.5 16.5t109.5 47t65 86t31 119.5t8 163v956h196v-956q0 -194 -28.5 -308t-116.5 -190q-76 -67 -178.5 -96t-251.5 -29q-169 0 -280.5 35t-177.5 114t-93 192t-27 282v956
zM786 1651l195 295h197l-203 -295h-189zM633 1651h-189l195 295h197z" />
    <glyph glyph-name="uhungarumlaut" unicode="&#x171;" horiz-adv-x="1193" 
d="M154 1081h192v-653q0 -40 0.5 -62t3 -54t8.5 -49.5t15.5 -39t24.5 -33.5t36 -23t50.5 -15.5t66.5 -4.5q125 0 295 46v888h192v-1030q-98 -27 -157.5 -42t-157.5 -29.5t-188 -14.5q-94 0 -161.5 21t-109.5 58t-67 96t-34 126t-9 158v657zM825 1249h-188l194 295h197z
M483 1249h-188l194 295h197z" />
    <glyph glyph-name="Uogonek" unicode="&#x172;" horiz-adv-x="1513" 
d="M180 588v956h197v-956q0 -83 5.5 -141t20.5 -109.5t41.5 -83.5t69 -55.5t102.5 -33t142 -9.5q98 0 165.5 16.5t109.5 47t65 86t31 119.5t8 163v956h196v-956q0 -66 -1.5 -111t-8 -99t-17.5 -92t-31 -80.5t-49 -75t-70 -64t-95 -58.5q-63 -32 -142 -104t-79 -125
q0 -24 14 -33.5t43 -9.5q45 0 147 41v-152q-110 -39 -188 -39q-100 0 -156.5 37t-56.5 131q0 112 145 213q-23 -2 -49 -2q-131 0 -227 25.5t-160 73.5t-102 125.5t-54 173t-16 225.5z" />
    <glyph glyph-name="uogonek" unicode="&#x173;" horiz-adv-x="1193" 
d="M154 1081h192v-653q0 -40 0.5 -62t3 -54t8.5 -49.5t15.5 -39t24.5 -33.5t36 -23t50.5 -15.5t66.5 -4.5q125 0 295 46v888h192v-1030q-202 -202 -202 -272q0 -24 14 -33.5t43 -9.5q43 0 145 41v-152q-110 -39 -186 -39q-100 0 -156.5 37t-56.5 131q0 99 168 244
q-145 -33 -272 -33q-94 0 -161.5 21t-109.5 58t-67 96t-34 126t-9 158v657z" />
    <glyph glyph-name="Wcircumflex" unicode="&#x174;" horiz-adv-x="1871" 
d="M49 1544h201l272 -1313l303 1080h224l305 -1080l270 1313h199l-318 -1544h-272l-297 1053l-295 -1053h-272zM762 1651h-213l274 295h221l277 -295h-215l-172 180z" />
    <glyph glyph-name="wcircumflex" unicode="&#x175;" horiz-adv-x="1665" 
d="M326 0l-301 1081h196l244 -882l256 882h227l256 -882l246 882h190l-303 -1081h-258l-248 860l-247 -860h-258zM664 1249h-213l274 295h221l277 -295h-215l-172 181z" />
    <glyph glyph-name="Ycircumflex" unicode="&#x176;" horiz-adv-x="1286" 
d="M545 588l-568 956h232l436 -741l436 741h228l-568 -956v-588h-196v588zM262 1651l275 295h221l276 -295h-215l-172 180l-172 -180h-213z" />
    <glyph glyph-name="ycircumflex" unicode="&#x177;" horiz-adv-x="1099" 
d="M446 4l-434 1077h211l328 -825l328 825h208l-595 -1474h-205zM377 1249h-213l274 295h221l277 -295h-215l-172 181z" />
    <glyph glyph-name="Ydieresis" unicode="&#x178;" horiz-adv-x="1286" 
d="M545 588l-568 956h232l436 -741l436 741h228l-568 -956v-588h-196v588zM782 1657v289h189v-289h-189zM317 1657v289h189v-289h-189z" />
    <glyph glyph-name="Zacute" unicode="&#x179;" horiz-adv-x="1337" 
d="M1245 0h-1153v193l887 1161h-856v190h1108v-192l-887 -1162h901v-190zM715 1651h-221l262 295h227z" />
    <glyph glyph-name="zacute" unicode="&#x17a;" horiz-adv-x="1056" 
d="M989 0h-917v168l630 731h-602v182h867v-168l-631 -731h653v-182zM580 1249h-222l263 295h227z" />
    <glyph glyph-name="Zdotaccent" unicode="&#x17b;" horiz-adv-x="1337" 
d="M1245 0h-1153v193l887 1161h-856v190h1108v-192l-887 -1162h901v-190zM766 1657h-199v289h199v-289z" />
    <glyph glyph-name="zdotaccent" unicode="&#x17c;" horiz-adv-x="1056" 
d="M989 0h-917v168l630 731h-602v182h867v-168l-631 -731h653v-182zM631 1255h-199v289h199v-289z" />
    <glyph glyph-name="Zcaron" unicode="&#x17d;" horiz-adv-x="1337" 
d="M92 193l887 1161h-856v190h1108v-192l-887 -1162h901v-190h-1153v193zM557 1651l-274 295h215l172 -181l172 181h213l-277 -295h-221z" />
    <glyph glyph-name="zcaron" unicode="&#x17e;" horiz-adv-x="1056" 
d="M72 168l630 731h-602v182h867v-168l-631 -731h653v-182h-917v168zM424 1249l-274 295h215l172 -180l172 180h213l-277 -295h-221z" />
    <glyph glyph-name="uni018F" unicode="&#x18f;" horiz-adv-x="1484" 
d="M150 551q0 151 18 291h960q0 240 -67 368q-52 98 -137 138.5t-230 40.5q-80 0 -174.5 -13.5t-152.5 -27t-164 -39.5v194q289 76 508 76q114 0 204.5 -22.5t155 -61t111.5 -99.5t75.5 -127t45 -154.5t22.5 -172.5t6 -190q0 -95 -7.5 -176.5t-26 -163.5t-49 -147.5
t-78 -122.5t-110 -95t-148.5 -60t-191 -22q-296 0 -433.5 144t-137.5 442zM356 653q-6 -40 -6 -123q0 -198 87.5 -287t285.5 -89q90 0 160.5 26.5t116 71t75 109.5t41.5 136.5t12 155.5h-772z" />
    <glyph glyph-name="florin" unicode="&#x192;" horiz-adv-x="778" 
d="M-27 -432v194q38 14 100 44t91 51q49 36 67 98q15 48 15 186v924q0 143 18 219q10 43 32.5 80.5t49 64t67.5 50t73.5 37.5t83.5 29t81.5 22t81.5 18v-188q-185 -40 -244 -99q-37 -37 -45 -106q-6 -49 -6 -125h299v-182h-299v-744q0 -202 -18 -262q-30 -102 -139 -172
q-108 -70 -308 -139z" />
    <glyph glyph-name="uni019D" unicode="&#x19d;" horiz-adv-x="1552" 
d="M-170 -440v198q141 48 229 99q44 26 70 52.5t39 65.5q20 63 20 240v1329h244l742 -1259v1259h194v-1544h-244l-741 1260v-1051q0 -88 -1 -131t-8 -99t-22 -96q-37 -96 -127 -151q-164 -102 -395 -172z" />
    <glyph glyph-name="Ohorn" unicode="&#x1a0;" horiz-adv-x="1705" 
d="M270 197q-116 185 -116 573q0 149 16 264.5t60 221t116 174t189 109t274 40.5q196 0 318.5 -53t199.5 -170q4 -6 12.5 -18.5t12.5 -18.5h34q87 0 103 45v221h164v-225q0 -69 -63 -132t-173 -71q45 -165 45 -387q0 -147 -17.5 -262.5t-62.5 -220t-117.5 -173.5
t-187.5 -109t-268 -40q-217 0 -341.5 56.5t-197.5 175.5zM428 1212q-74 -135 -74 -442q0 -322 78 -459q28 -48 67 -80t90.5 -47.5t102 -21.5t117.5 -6q84 0 150.5 16.5t113.5 44.5t81.5 73t55 93.5t32.5 115t16 129t4 142.5q0 316 -88 457q-54 88 -144.5 125t-220.5 37
q-135 0 -230.5 -39.5t-150.5 -137.5z" />
    <glyph glyph-name="ohorn" unicode="&#x1a1;" horiz-adv-x="1323" 
d="M604 -35q-112 0 -196.5 26.5t-139.5 74.5t-89.5 120.5t-49 157t-14.5 191.5q0 106 13.5 190.5t48 159.5t89 124.5t140 78t198.5 28.5q136 0 246.5 -49.5t171.5 -157.5q34 0 62 11.5t36 33.5v222h164v-226q0 -63 -56 -123.5t-153 -76.5q19 -92 19 -209
q0 -105 -14.5 -189.5t-49.5 -158t-90.5 -123t-140 -77.5t-195.5 -28zM604 934q-75 0 -129 -21.5t-85.5 -55.5t-50 -88t-24.5 -107.5t-6 -124.5q0 -182 53 -277q35 -63 93.5 -88t148.5 -25q74 0 128 21.5t85.5 56.5t50.5 89t25 108t6 125q0 69 -6.5 122.5t-25.5 105t-51 85
t-85.5 54t-126.5 20.5z" />
    <glyph glyph-name="Uhorn" unicode="&#x1af;" horiz-adv-x="1693" 
d="M180 588v956h197v-956q0 -83 5.5 -141t20.5 -109.5t41.5 -83.5t69 -55.5t102.5 -33t142 -9.5q98 0 165.5 16.5t109.5 47t65 86t31 119.5t8 163v956h196v-221h45q84 0 101 43l2 223h164v-225q0 -75 -72.5 -140t-194.5 -65h-45v-571q0 -194 -28.5 -308t-116.5 -190
q-76 -67 -178.5 -96t-251.5 -29q-169 0 -280.5 35t-177.5 114t-93 192t-27 282z" />
    <glyph glyph-name="uhorn" unicode="&#x1b0;" horiz-adv-x="1374" 
d="M154 1081h192v-653q0 -40 0.5 -62t3 -54t8.5 -49.5t15.5 -39t24.5 -33.5t36 -23t50.5 -15.5t66.5 -4.5q125 0 295 46v888h192v-172h37q84 0 103 45v222h163v-226q0 -74 -71.5 -139.5t-194.5 -65.5h-37v-694q-98 -27 -157.5 -42t-157.5 -29.5t-188 -14.5q-94 0 -161.5 21
t-109.5 58t-67 96t-34 126t-9 158v657z" />
    <glyph glyph-name="Gcaron" unicode="&#x1e6;" horiz-adv-x="1497" 
d="M248 229q-94 178 -94 529q0 103 6.5 186.5t23.5 170.5t46 154t76 127t110.5 99t153 61.5t200.5 22.5q170 0 494 -82v-197q-207 51 -279 64q-142 25 -201 25q-145 0 -228 -42t-132 -141q-70 -140 -70 -446q0 -288 64 -422q44 -94 131.5 -138t232.5 -44q130 0 338 26v643
h197v-809q-322 -51 -555 -51q-111 0 -196 18.5t-144.5 55.5t-99.5 82t-74 108zM371 1946h215l172 -181l172 181h213l-277 -295h-221z" />
    <glyph glyph-name="gcaron" unicode="&#x1e7;" horiz-adv-x="1210" 
d="M117 547q0 258 78 391q57 97 148 137.5t237 40.5q68 0 162.5 -20t156 -39t156.5 -51v-908q0 -268 -136 -397t-407 -129q-122 0 -354 29v180q229 -31 354 -31q165 0 257.5 79.5t92.5 240.5v36q-218 -106 -366 -106q-68 0 -123 16.5t-94 45t-68 70.5t-47 87.5t-28.5 103
t-14.5 110t-4 114.5zM311 547q0 -175 41 -268q23 -53 64 -75t112 -22q78 0 183 41q52 20 151 68v583q-177 60 -278 60q-90 0 -144 -25.5t-84 -87.5q-45 -90 -45 -274zM213 1544h215l172 -180l172 180h213l-276 -295h-222z" />
    <glyph glyph-name="uni01EA" unicode="&#x1ea;" horiz-adv-x="1615" 
d="M270 197q-116 185 -116 573q0 149 16 264.5t60 221t116 174t189 109t274 40.5q193 0 314 -53.5t204 -169.5q70 -98 102.5 -254t32.5 -332q0 -171 -31.5 -325t-99.5 -250q-82 -117 -231 -185q-59 -28 -138 -103.5t-79 -127.5q0 -24 14 -33.5t43 -9.5q44 0 147 41v-152
q-106 -39 -188 -39q-100 0 -156.5 37t-56.5 131q0 65 40.5 116t107.5 97q-20 -2 -46 -2q-67 0 -121.5 5.5t-113.5 20.5t-107 40t-94 67t-82 99zM354 770q0 -322 78 -459q28 -48 67 -80t90.5 -47.5t102 -21.5t117.5 -6q84 0 150.5 16.5t113.5 44.5t81.5 73t55 93.5t32.5 115
t16 129t4 142.5q0 316 -88 457q-54 88 -144.5 125t-220.5 37q-135 0 -231.5 -39.5t-149.5 -137.5q-74 -137 -74 -442z" />
    <glyph glyph-name="uni01EB" unicode="&#x1eb;" 
d="M115 535q0 106 13.5 190.5t48 159.5t89 124.5t140 78t198.5 28.5q112 0 196.5 -27.5t140 -76t90 -122t49 -158t14.5 -191.5q0 -93 -10 -164.5t-36 -143t-77.5 -128t-128.5 -97.5q-57 -31 -133 -105.5t-76 -123.5q0 -24 14 -33.5t43 -9.5q46 0 148 41v-152
q-111 -39 -189 -39q-100 0 -156.5 37t-56.5 131q0 109 142 211q-105 0 -186 29t-133 79t-84.5 124t-46 156t-13.5 182zM309 537q0 -182 53 -277q35 -63 93.5 -88t148.5 -25q74 0 128 21.5t85.5 56.5t50.5 89t25 108t6 125q0 69 -6.5 122.5t-25.5 105t-51 85t-85.5 54
t-126.5 20.5q-75 0 -129 -21.5t-85.5 -55.5t-50 -88t-24.5 -107.5t-6 -124.5z" />
    <glyph glyph-name="Aringacute" unicode="&#x1fa;" horiz-adv-x="1454" 
d="M229 0h-206l542 1458q-47 28 -73.5 83t-26.5 114q0 116 72 181t190 65q120 0 191 -64t71 -182q0 -133 -102 -197l545 -1458h-215l-134 358h-721zM428 547h588l-293 796zM727 1776q-59 0 -93 -31.5t-34 -89.5q0 -56 35 -86.5t92 -30.5q58 0 93.5 30t35.5 87q0 59 -34.5 90
t-94.5 31zM813 1970h-221l184 205h225z" />
    <glyph glyph-name="aringacute" unicode="&#x1fb;" 
d="M479 -35q-92 0 -160 36t-106 90.5t-61 134.5t-30 151t-7 158q0 107 12.5 190.5t44.5 158.5t84.5 124.5t136 78.5t195.5 29q69 0 152.5 -18t142 -37t170.5 -60v-1001h-193v166q-51 -46 -85.5 -73t-86 -61t-104 -50.5t-105.5 -16.5zM596 934q-74 0 -127.5 -22t-83.5 -56.5
t-47.5 -89t-23 -107t-5.5 -124.5q0 -199 37 -283q23 -54 61 -78t99 -24q81 0 203 94q57 44 151 125v503q-171 62 -264 62zM350 1434q0 116 72 180.5t190 64.5q120 0 191 -64t71 -181q0 -114 -73 -178t-189 -64t-189 64t-73 178zM713 1710h-221l206 236h228zM485 1434
q0 -56 35 -86.5t92 -30.5q58 0 93.5 30t35.5 87q0 59 -34.5 89.5t-94.5 30.5q-59 0 -93 -31t-34 -89z" />
    <glyph glyph-name="AEacute" unicode="&#x1fc;" horiz-adv-x="2299" 
d="M236 0h-240l1036 1544h1157v-190h-848v-471h803v-191h-803v-504h881v-188h-1077v356h-672zM600 545h545v815zM1352 1651h-222l263 295h227z" />
    <glyph glyph-name="aeacute" unicode="&#x1fd;" horiz-adv-x="1880" 
d="M106 283q0 62 12 111t32 83t53 58.5t67 38.5t82.5 21.5t92 10t102.5 2.5h293v113q0 68 -13 111t-45 67.5t-76.5 33.5t-115.5 9q-86 0 -214 -22.5t-216 -45.5v179q89 23 219 43t221 20q282 0 361 -139q103 139 354 139q457 0 457 -444q0 -102 -21 -217h-727
q0 -172 75.5 -243t254.5 -71q126 0 362 43v-178q-236 -41 -375 -41q-167 0 -273.5 44.5t-164.5 152.5q-60 -45 -102.5 -73t-101.5 -60t-118.5 -48t-119.5 -16q-175 0 -265 73.5t-90 244.5zM1315 946q-85 0 -143 -23t-89.5 -69t-45 -105t-13.5 -141h553q6 42 6 86
q0 126 -68.5 189t-199.5 63zM348 416q-49 -36 -49 -127q0 -89 41.5 -122.5t132.5 -33.5q98 0 229 78q81 50 138 90v154h-267q-63 0 -93.5 -1.5t-69 -10.5t-62.5 -27zM782 1249l262 295h228l-268 -295h-222z" />
    <glyph glyph-name="Oslashacute" unicode="&#x1fe;" horiz-adv-x="1615" 
d="M154 770q0 149 16 264.5t60 221t116 174t189 109t274 40.5q193 0 314 -53.5t204 -169.5q70 -99 102.5 -254.5t32.5 -331.5q0 -147 -17.5 -262.5t-62.5 -220t-117.5 -173.5t-187.5 -109t-268 -40q-217 0 -341.5 56.5t-197.5 175.5q-116 185 -116 573zM1182 1214
l-645 -1005q90 -55 272 -55q83 0 149.5 16.5t113.5 45.5t81.5 74t55.5 94.5t33.5 115t17 128.5t4.5 142q0 297 -82 444zM352 770q0 -319 72 -442l643 1003q-98 60 -258 60q-88 0 -157 -17t-116.5 -44.5t-81.5 -74t-53.5 -94.5t-30.5 -116.5t-14.5 -129.5t-3.5 -145z
M852 1651h-221l262 295h227z" />
    <glyph glyph-name="oslashacute" unicode="&#x1ff;" 
d="M604 -35q-112 0 -196.5 26.5t-139.5 74.5t-89.5 120.5t-49 157t-14.5 191.5q0 106 13.5 190.5t48 159.5t89 124.5t140 78t198.5 28.5q112 0 196.5 -27.5t140 -76t90 -122t49 -158t14.5 -191.5q0 -105 -14.5 -189.5t-49.5 -158t-90.5 -123t-140 -77.5t-195.5 -28zM305 537
q0 -169 45 -258l420 624q-63 35 -166 35q-55 0 -99 -11t-75 -30t-53.5 -48.5t-36 -61.5t-22 -75t-11 -83.5t-2.5 -91.5zM438 176q55 -33 166 -33q63 0 112 14t81 42t53.5 62.5t33 83t15.5 95.5t4 107q0 180 -41 260zM416 1249l262 295h227l-268 -295h-221z" />
    <glyph glyph-name="uni0218" unicode="&#x218;" horiz-adv-x="1318" 
d="M444 750q-88 30 -144 59t-103.5 74.5t-69 111t-21.5 156.5q0 207 134 324q66 58 158.5 81t232.5 23q80 0 186 -16t173 -30.5t179 -41.5v-197q-388 95 -534 95q-56 0 -98.5 -4t-88 -18.5t-74.5 -38.5t-48 -67t-19 -102q0 -105 49 -149q18 -16 49 -31t58 -25t84 -30
l307 -103q73 -24 123 -46.5t98 -56.5t75.5 -75t44.5 -100t17 -135q0 -199 -133 -320q-72 -66 -175 -94.5t-259 -28.5q-176 0 -526 74v194q355 -77 534 -77q46 0 86 4t82.5 13t75 27t59.5 44.5t41.5 66t14.5 90.5q0 98 -47 148q-6 6 -13 12t-13.5 10.5t-17 10t-17.5 9
t-20.5 9t-21 8.5t-25 9t-25 8.5l-28.5 9.5l-30 10zM682 -573h-141q32 139 32 329v129h175v-121q0 -179 -66 -337z" />
    <glyph glyph-name="uni0219" unicode="&#x219;" horiz-adv-x="1054" 
d="M379 496q-70 21 -115 42.5t-84.5 55.5t-57.5 85t-18 122q0 74 22.5 130t59 90.5t91 56.5t112 30t127.5 8q84 0 198 -21t193 -42v-185q-279 68 -387 68q-37 0 -61.5 -1.5t-57.5 -9t-53 -21t-34.5 -40t-14.5 -63.5q0 -68 43 -94q35 -22 131 -50l197 -59q55 -17 93.5 -33
t76 -41t60 -55.5t36.5 -75.5t14 -102q0 -326 -444 -326q-134 0 -389 51v185q274 -56 401 -56q36 0 64 2t62.5 10.5t57 23t38.5 42.5t16 66q0 56 -35 88q-30 26 -152 61zM410 -573q32 139 32 329v129h174v-121q0 -182 -65 -337h-141z" />
    <glyph glyph-name="uni021A" unicode="&#x21a;" horiz-adv-x="1368" 
d="M39 1544h1290v-190h-547v-1354h-196v1354h-547v190zM709 -573h-142q33 143 33 329v129h174v-121q0 -182 -65 -337z" />
    <glyph glyph-name="uni021B" unicode="&#x21b;" horiz-adv-x="706" 
d="M154 1360h192v-293h332v-182h-332v-449q0 -115 6 -160q9 -62 74 -83q55 -17 201 -25v-182q-223 11 -316 41q-56 19 -88 47t-47 71q-11 30 -16 73t-5.5 78.5t-0.5 135.5v928zM231 -573q33 143 33 329v129h174v-121q0 -182 -65 -337h-142z" />
    <glyph glyph-name="uni0232" unicode="&#x232;" horiz-adv-x="1286" 
d="M545 588l-568 956h232l436 -741l436 741h228l-568 -956v-588h-196v588zM305 1706v149h690v-149h-690z" />
    <glyph glyph-name="uni0233" unicode="&#x233;" horiz-adv-x="1099" 
d="M12 1081h211l328 -825l328 825h208l-595 -1474h-205l159 397zM205 1305v149h690v-149h-690z" />
    <glyph glyph-name="uni0237" unicode="&#x237;" horiz-adv-x="528" 
d="M-94 -434v182q49 18 79 31.5t71.5 38t68.5 56.5t39 71q14 45 14 186v950h195v-972q0 -176 -17 -232q-13 -43 -40.5 -81t-66 -68t-78.5 -54.5t-90.5 -45t-88.5 -34t-86 -28.5z" />
    <glyph glyph-name="uni0259" unicode="&#x259;" horiz-adv-x="1161" 
d="M109 410q0 107 20 217h727q0 167 -79 240t-251 73q-126 0 -362 -43v178q225 41 375 41q120 0 208.5 -24.5t146 -69.5t91.5 -117t48 -157.5t14 -200.5q0 -108 -12.5 -192t-45.5 -159.5t-86.5 -124.5t-138.5 -77.5t-199 -28.5q-230 0 -343 110.5t-113 334.5zM297 387
q0 -129 67 -190.5t201 -61.5q160 0 225.5 86.5t65.5 251.5h-553q-6 -42 -6 -86z" />
    <glyph glyph-name="uni0272" unicode="&#x272;" 
d="M328 -121q-12 -38 -35.5 -72t-48.5 -59.5t-64.5 -50.5t-69.5 -40.5t-77.5 -34.5t-75 -28.5t-74.5 -25.5v192q44 14 104.5 42.5t88.5 52.5q54 48 67 91.5t13 129.5v1005h192v-71q77 32 126.5 50.5t122.5 37t124 18.5q85 0 146 -22t97 -57.5t56.5 -93.5t27.5 -118t7 -143
v-682h-193v676q0 39 -0.5 61t-4 53t-10.5 48.5t-20 37.5t-31.5 30t-46.5 17t-65 7q-105 0 -336 -103v-700q0 -187 -20 -248z" />
    <glyph glyph-name="circumflex" unicode="&#x2c6;" horiz-adv-x="899" 
d="M63 1249l275 295h221l277 -295h-215l-172 181l-173 -181h-213z" />
    <glyph glyph-name="caron" unicode="&#x2c7;" horiz-adv-x="899" 
d="M338 1249l-275 295h216l172 -180l172 180h213l-277 -295h-221z" />
    <glyph glyph-name="breve" unicode="&#x2d8;" horiz-adv-x="899" 
d="M104 1544h172q20 -76 50 -110q40 -54 123 -54q76 0 114.5 42t59.5 122h172q-39 -154 -111 -219q-84 -84 -235 -84q-150 0 -229 75.5t-116 227.5z" />
    <glyph glyph-name="dotaccent" unicode="&#x2d9;" horiz-adv-x="899" 
d="M549 1255h-199v289h199v-289z" />
    <glyph glyph-name="ring" unicode="&#x2da;" horiz-adv-x="899" 
d="M453 1192q-116 0 -189.5 64t-73.5 178q0 116 72.5 180.5t190.5 64.5q120 0 191 -64t71 -181q0 -114 -73 -178t-189 -64zM326 1434q0 -56 35 -86.5t92 -30.5q58 0 93.5 30t35.5 87q0 59 -34.5 89.5t-94.5 30.5q-59 0 -93 -31t-34 -89z" />
    <glyph glyph-name="ogonek" unicode="&#x2db;" horiz-adv-x="899" 
d="M498 -246q0 75 61 142q14 15 33 31t32.5 26t35.5 25.5t30 21.5h209q-6 -5 -34 -26t-43.5 -33t-38 -31t-38.5 -35q-51 -51 -51 -96q0 -43 58 -43q44 0 147 41v-152q-106 -39 -188 -39q-100 0 -156.5 37t-56.5 131z" />
    <glyph glyph-name="tilde" unicode="&#x2dc;" horiz-adv-x="899" 
d="M182 1272h-155q57 153 110.5 209.5t151.5 56.5q83 0 192 -74q52 -36 76 -47.5t53 -11.5q36 0 57 23t48 81h157q-28 -64 -47.5 -101t-50.5 -76t-70.5 -57t-91.5 -18q-90 0 -184 64q-54 39 -82.5 54.5t-54.5 15.5q-39 0 -59.5 -25.5t-49.5 -93.5z" />
    <glyph glyph-name="hungarumlaut" unicode="&#x2dd;" horiz-adv-x="899" 
d="M444 1249l195 295h197l-203 -295h-189zM291 1249h-189l195 295h197z" />
    <glyph glyph-name="gravecomb" unicode="&#x300;" horiz-adv-x="899" 
d="M664 1249h-220l-264 295h230z" />
    <glyph glyph-name="acutecomb" unicode="&#x301;" horiz-adv-x="899" 
d="M444 1249h-221l262 295h228z" />
    <glyph glyph-name="uni0302" unicode="&#x302;" horiz-adv-x="899" 
d="M63 1249l275 295h221l277 -295h-215l-172 181l-173 -181h-213z" />
    <glyph glyph-name="tildecomb" unicode="&#x303;" horiz-adv-x="899" 
d="M182 1272h-155q57 153 110.5 209.5t151.5 56.5q83 0 192 -74q52 -36 76 -47.5t53 -11.5q36 0 57 23t48 81h157q-28 -64 -47.5 -101t-50.5 -76t-70.5 -57t-91.5 -18q-90 0 -184 64q-54 39 -82.5 54.5t-54.5 15.5q-39 0 -59.5 -25.5t-49.5 -93.5z" />
    <glyph glyph-name="uni0306" unicode="&#x306;" horiz-adv-x="899" 
d="M104 1544h172q20 -76 50 -110q40 -54 123 -54q76 0 114.5 42t59.5 122h172q-39 -154 -111 -219q-84 -84 -235 -84q-150 0 -229 75.5t-116 227.5z" />
    <glyph glyph-name="hookabovecomb" unicode="&#x309;" horiz-adv-x="681" 
d="M139 1485v139l19 8q72 21 121 21q94 -2 155.5 -46.5t61.5 -123.5q0 -46 -18 -75.5t-68 -70.5q-4 -3 -14.5 -9.5t-16.5 -12.5q-2 -2 -10.5 -7.5t-15.5 -12t-9 -11.5v-10l-2 -33h-137q-9 35 -9 54t17 51q14 27 63 57t62 43q12 12 12 33q0 12 -26 24.5t-64 12.5
q-32 0 -76 -15z" />
    <glyph glyph-name="uni031B" unicode="&#x31b;" horiz-adv-x="681" 
d="M180 1319h53q84 0 103 45v221h164v-225q0 -74 -72 -139.5t-195 -65.5h-53v164z" />
    <glyph glyph-name="dotbelowcomb" unicode="&#x323;" horiz-adv-x="899" 
d="M549 -416h-199v289h199v-289z" />
    <glyph glyph-name="uni0326" unicode="&#x326;" horiz-adv-x="899" 
d="M475 -573h-141q33 143 33 329v129h174v-121q0 -179 -66 -337z" />
    <glyph glyph-name="pi" unicode="&#x3c0;" horiz-adv-x="1286" 
d="M27 1081h1222v-182h-213v-475q0 -127 6 -170q5 -32 18 -50t44 -28q41 -12 110 -20v-170q-137 7 -213 28q-106 28 -135 119q-14 45 -18 104.5t-4 186.5v475h-412v-899h-192v899h-213v182z" />
    <glyph glyph-name="Wgrave" unicode="&#x1e80;" horiz-adv-x="1871" 
d="M49 1544h201l272 -1313l303 1080h224l305 -1080l270 1313h199l-318 -1544h-272l-297 1053l-295 -1053h-272zM883 1651l-265 295h230l254 -295h-219z" />
    <glyph glyph-name="wgrave" unicode="&#x1e81;" horiz-adv-x="1665" 
d="M25 1081h196l244 -882l256 882h227l256 -882l246 882h190l-303 -1081h-258l-248 860l-247 -860h-258zM795 1249l-265 295h230l254 -295h-219z" />
    <glyph glyph-name="Wacute" unicode="&#x1e82;" horiz-adv-x="1871" 
d="M369 0l-320 1544h201l272 -1313l303 1080h224l305 -1080l270 1313h199l-318 -1544h-272l-297 1053l-295 -1053h-272zM979 1651h-221l262 295h227z" />
    <glyph glyph-name="wacute" unicode="&#x1e83;" horiz-adv-x="1665" 
d="M326 0l-301 1081h196l244 -882l256 882h227l256 -882l246 882h190l-303 -1081h-258l-248 860l-247 -860h-258zM887 1249h-221l262 295h227z" />
    <glyph glyph-name="Wdieresis" unicode="&#x1e84;" horiz-adv-x="1871" 
d="M49 1544h201l272 -1313l303 1080h224l305 -1080l270 1313h199l-318 -1544h-272l-297 1053l-295 -1053h-272zM1243 1657h-188v289h188v-289zM815 1657h-188v289h188v-289z" />
    <glyph glyph-name="wdieresis" unicode="&#x1e85;" horiz-adv-x="1665" 
d="M25 1081h196l244 -882l256 882h227l256 -882l246 882h190l-303 -1081h-258l-248 860l-247 -860h-258zM952 1544h189v-289h-189v289zM713 1255h-189v289h189v-289z" />
    <glyph glyph-name="Germandbls" unicode="&#x1e9e;" horiz-adv-x="1576" 
d="M377 0h-197v758q0 99 1.5 158t7 141.5t17.5 131.5t33 111.5t52.5 98.5t77.5 75t106.5 59t140.5 33t179 13q251 0 575 -84v-188l-266 -447l78 -43q62 -34 101.5 -59t81.5 -62t65 -76t38 -93t15 -121q0 -204 -127 -320q-73 -67 -172.5 -94t-255.5 -27q-138 0 -328 37v197
q205 -43 334 -43q59 0 104.5 4.5t93.5 20t79 41t51 70.5t20 107q0 93 -45 146q-47 55 -188 127l-215 110l331 561q-175 46 -358 46q-160 0 -246 -33t-135 -127q-23 -44 -34.5 -120t-13 -136t-1.5 -180v-793z" />
    <glyph glyph-name="uni1EA0" unicode="&#x1ea0;" horiz-adv-x="1454" 
d="M23 0l573 1544h258l578 -1544h-215l-134 358h-721l-133 -358h-206zM723 1343l-295 -796h588zM629 -395v289h198v-289h-198z" />
    <glyph glyph-name="uni1EA1" unicode="&#x1ea1;" 
d="M479 -35q-92 0 -160 36t-106 90.5t-61 134.5t-30 151t-7 158q0 107 12.5 190.5t44.5 158.5t84.5 124.5t136 78.5t195.5 29q69 0 152.5 -18t142 -37t170.5 -60v-1001h-193v166q-51 -46 -85.5 -73t-86 -61t-104 -50.5t-105.5 -16.5zM596 934q-74 0 -127.5 -22t-83.5 -56.5
t-47.5 -89t-23 -107t-5.5 -124.5q0 -199 37 -283q23 -54 61 -78t99 -24q81 0 203 94q57 44 151 125v503q-171 62 -264 62zM684 -395h-199v289h199v-289z" />
    <glyph glyph-name="uni1EA2" unicode="&#x1ea2;" horiz-adv-x="1454" 
d="M229 0h-206l573 1544h258l578 -1544h-215l-134 358h-721zM723 1343l-295 -796h588zM588 1878v139l18 8q72 21 121 21q94 -2 155.5 -46.5t61.5 -123.5q0 -51 -17 -83t-69 -64q-15 -9 -38.5 -26.5t-26.5 -25.5v-10l-2 -33h-138q-9 34 -8.5 53.5t17.5 51.5q11 21 32 37.5
t49.5 34t42.5 28.5q13 10 13 33q0 12 -26.5 24.5t-63.5 12.5q-46 -4 -76 -15z" />
    <glyph glyph-name="uni1EA3" unicode="&#x1ea3;" 
d="M479 -35q-92 0 -160 36t-106 90.5t-61 134.5t-30 151t-7 158q0 107 12.5 190.5t44.5 158.5t84.5 124.5t136 78.5t195.5 29q69 0 152.5 -18t142 -37t170.5 -60v-1001h-193v166q-51 -46 -85.5 -73t-86 -61t-104 -50.5t-105.5 -16.5zM596 934q-74 0 -127.5 -22t-83.5 -56.5
t-47.5 -89t-23 -107t-5.5 -124.5q0 -199 37 -283q23 -54 61 -78t99 -24q81 0 203 94q57 44 151 125v503q-171 62 -264 62zM455 1624l18 8q72 21 121 21q94 -2 155.5 -46.5t61.5 -123.5q0 -46 -18 -75.5t-68 -70.5q-4 -3 -14.5 -9.5t-16.5 -12.5q-2 -2 -10.5 -7.5t-15.5 -12
t-9 -11.5v-10l-2 -33h-137q-9 35 -9 54t17 51q14 27 63 57t62 43t13 33q0 12 -27 24.5t-64 12.5q-45 -4 -75 -15l-45 -16v139z" />
    <glyph glyph-name="uni1EA4" unicode="&#x1ea4;" horiz-adv-x="1454" 
d="M23 0l573 1544h258l578 -1544h-215l-134 358h-721l-133 -358h-206zM723 1343l-295 -796h588zM340 1622l274 295h222l276 -295h-215l-172 180l-172 -180h-213zM954 1911l263 295h227l-268 -295h-222z" />
    <glyph glyph-name="uni1EA5" unicode="&#x1ea5;" 
d="M479 -35q-92 0 -160 36t-106 90.5t-61 134.5t-30 151t-7 158q0 107 12.5 190.5t44.5 158.5t84.5 124.5t136 78.5t195.5 29q69 0 152.5 -18t142 -37t170.5 -60v-1001h-193v166q-51 -46 -85.5 -73t-86 -61t-104 -50.5t-105.5 -16.5zM596 934q-74 0 -127.5 -22t-83.5 -56.5
t-47.5 -89t-23 -107t-5.5 -124.5q0 -199 37 -283q23 -54 61 -78t99 -24q81 0 203 94q57 44 151 125v503q-171 62 -264 62zM440 1249h-213l275 295h221l276 -295h-215l-172 181zM848 1544l262 295h227l-268 -295h-221z" />
    <glyph glyph-name="uni1EA6" unicode="&#x1ea6;" horiz-adv-x="1454" 
d="M23 0l573 1544h258l578 -1544h-215l-134 358h-721l-133 -358h-206zM723 1343l-295 -796h588zM340 1622l274 295h222l276 -295h-215l-172 180l-172 -180h-213zM1018 1925l-264 295h229l254 -295h-219z" />
    <glyph glyph-name="uni1EA7" unicode="&#x1ea7;" 
d="M479 -35q-92 0 -160 36t-106 90.5t-61 134.5t-30 151t-7 158q0 107 12.5 190.5t44.5 158.5t84.5 124.5t136 78.5t195.5 29q69 0 152.5 -18t142 -37t170.5 -60v-1001h-193v166q-51 -46 -85.5 -73t-86 -61t-104 -50.5t-105.5 -16.5zM596 934q-74 0 -127.5 -22t-83.5 -56.5
t-47.5 -89t-23 -107t-5.5 -124.5q0 -199 37 -283q23 -54 61 -78t99 -24q81 0 203 94q57 44 151 125v503q-171 62 -264 62zM440 1249h-213l275 295h221l276 -295h-215l-172 181zM684 1839h229l254 -295h-219z" />
    <glyph glyph-name="uni1EA8" unicode="&#x1ea8;" horiz-adv-x="1454" 
d="M229 0h-206l573 1544h258l578 -1544h-215l-134 358h-721zM428 547h588l-293 796zM553 1622h-213l274 295h222l276 -295h-215l-172 180zM975 2114v139l18 8q68 20 121 20q94 -2 155.5 -46.5t61.5 -123.5q0 -39 -18 -71t-39.5 -51t-59.5 -45q-31 -20 -34 -29v-12l-2 -33
h-138q-9 35 -8.5 54.5t17.5 51.5q11 20 32 37t50 35t43 29q12 10 12 30q0 12 -26.5 24.5t-63.5 12.5q-50 -4 -76 -14z" />
    <glyph glyph-name="uni1EA9" unicode="&#x1ea9;" 
d="M115 535q0 107 12.5 190.5t44.5 158.5t84.5 124.5t136 78.5t195.5 29q69 0 152.5 -18t142 -37t170.5 -60v-1001h-193v166q-51 -46 -85.5 -73t-86 -61t-104 -50.5t-105.5 -16.5q-92 0 -160 36t-106 90.5t-61 134.5t-30 151t-7 158zM309 535q0 -199 37 -283q23 -54 61 -78
t99 -24q81 0 203 94q57 44 151 125v503q-171 62 -264 62q-74 0 -127.5 -22t-83.5 -56.5t-47.5 -89t-23 -107t-5.5 -124.5zM440 1249h-213l275 295h221l276 -295h-215l-172 181zM866 1866l19 8q68 20 121 20q94 -2 155.5 -46.5t61.5 -123.5q0 -50 -17 -81.5t-67 -65.5
q-3 -2 -15.5 -9t-17.5 -12l-16 -12q-15 -11 -19 -18v-10l-2 -33h-137q-1 8 -4.5 24t-3.5 21t0.5 15.5t4.5 20t11 23.5q11 21 32 38t50 34.5t43 28.5q12 10 12 32q0 12 -26 24.5t-64 12.5q-35 0 -76 -14l-45 -17v140z" />
    <glyph glyph-name="uni1EAA" unicode="&#x1eaa;" horiz-adv-x="1454" 
d="M23 0l573 1544h258l578 -1544h-215l-134 358h-721l-133 -358h-206zM723 1343l-295 -796h588zM461 2007h-156q57 153 110.5 209.5t151.5 56.5q83 0 193 -73q53 -36 76.5 -48t52.5 -12q36 0 56 23t48 82h158q-28 -64 -47.5 -101t-50.5 -76t-70.5 -57t-91.5 -18
q-92 0 -184 63q-42 28 -58 38.5t-39 21t-41 10.5q-21 0 -35.5 -6.5t-28 -26t-21 -34.5t-23.5 -52zM553 1622h-213l274 295h222l276 -295h-215l-172 180z" />
    <glyph glyph-name="uni1EAB" unicode="&#x1eab;" 
d="M479 -35q-92 0 -160 36t-106 90.5t-61 134.5t-30 151t-7 158q0 107 12.5 190.5t44.5 158.5t84.5 124.5t136 78.5t195.5 29q69 0 152.5 -18t142 -37t170.5 -60v-1001h-193v166q-51 -46 -85.5 -73t-86 -61t-104 -50.5t-105.5 -16.5zM596 934q-74 0 -127.5 -22t-83.5 -56.5
t-47.5 -89t-23 -107t-5.5 -124.5q0 -199 37 -283q23 -54 61 -78t99 -24q81 0 203 94q57 44 151 125v503q-171 62 -264 62zM207 1642q57 153 111 210t151 57q84 0 193 -74q51 -35 73.5 -47t48.5 -12h7q36 0 56 22.5t48 81.5h158q-28 -64 -47.5 -101t-50.5 -76t-70.5 -57
t-91.5 -18q-91 0 -185 64q-41 28 -57.5 38.5t-39 20.5t-40.5 10q-39 0 -59.5 -25.5t-49.5 -93.5h-155zM440 1249h-213l275 295h221l276 -295h-215l-172 181z" />
    <glyph glyph-name="uni1EAC" unicode="&#x1eac;" horiz-adv-x="1454" 
d="M23 0l573 1544h258l578 -1544h-215l-134 358h-721l-133 -358h-206zM723 1343l-295 -796h588zM555 1624h-213l274 295h222l276 -295h-215l-172 180zM629 -106h198v-289h-198v289z" />
    <glyph glyph-name="uni1EAD" unicode="&#x1ead;" 
d="M479 -35q-92 0 -160 36t-106 90.5t-61 134.5t-30 151t-7 158q0 107 12.5 190.5t44.5 158.5t84.5 124.5t136 78.5t195.5 29q69 0 152.5 -18t142 -37t170.5 -60v-1001h-193v166q-51 -46 -85.5 -73t-86 -61t-104 -50.5t-105.5 -16.5zM309 535q0 -199 37 -283q23 -54 61 -78
t99 -24q81 0 203 94q57 44 151 125v503q-171 62 -264 62q-74 0 -127.5 -22t-83.5 -56.5t-47.5 -89t-23 -107t-5.5 -124.5zM432 1249h-213l275 295h221l276 -295h-215l-172 181zM485 -106h199v-289h-199v289z" />
    <glyph glyph-name="uni1EAE" unicode="&#x1eae;" horiz-adv-x="1454" 
d="M229 0h-206l573 1544h258l578 -1544h-215l-134 358h-721zM723 1343l-295 -796h588zM725 1622q-149 0 -227.5 75.5t-116.5 227.5h172q21 -77 49 -110q40 -54 123 -54q76 0 114.5 42t59.5 122h172q-39 -155 -110 -219q-84 -84 -236 -84zM592 1966l262 295h227l-268 -295
h-221z" />
    <glyph glyph-name="uni1EAF" unicode="&#x1eaf;" 
d="M115 535q0 107 12.5 190.5t44.5 158.5t84.5 124.5t136 78.5t195.5 29q69 0 152.5 -18t142 -37t170.5 -60v-1001h-193v166q-51 -46 -85.5 -73t-86 -61t-104 -50.5t-105.5 -16.5q-92 0 -160 36t-106 90.5t-61 134.5t-30 151t-7 158zM596 934q-74 0 -127.5 -22t-83.5 -56.5
t-47.5 -89t-23 -107t-5.5 -124.5q0 -199 37 -283q23 -54 61 -78t99 -24q81 0 203 94q57 44 151 125v503q-171 62 -264 62zM600 1241q-149 0 -227.5 75.5t-116.5 227.5h172q21 -77 49 -110q40 -54 123 -54q76 0 114.5 42t59.5 122h172q-39 -155 -110 -219q-84 -84 -236 -84z
M461 1589l262 295h227l-268 -295h-221z" />
    <glyph glyph-name="uni1EB0" unicode="&#x1eb0;" horiz-adv-x="1454" 
d="M23 0l573 1544h258l578 -1544h-215l-134 358h-721l-133 -358h-206zM428 547h588l-293 796zM381 1925h172q21 -77 49 -110q40 -54 123 -54q76 0 114.5 42t59.5 122h172q-39 -155 -110 -219q-84 -84 -236 -84q-149 0 -227.5 75.5t-116.5 227.5zM637 1956l-264 295h229
l254 -295h-219z" />
    <glyph glyph-name="uni1EB1" unicode="&#x1eb1;" 
d="M479 -35q-92 0 -160 36t-106 90.5t-61 134.5t-30 151t-7 158q0 107 12.5 190.5t44.5 158.5t84.5 124.5t136 78.5t195.5 29q69 0 152.5 -18t142 -37t170.5 -60v-1001h-193v166q-51 -46 -85.5 -73t-86 -61t-104 -50.5t-105.5 -16.5zM596 934q-74 0 -127.5 -22t-83.5 -56.5
t-47.5 -89t-23 -107t-5.5 -124.5q0 -199 37 -283q23 -54 61 -78t99 -24q81 0 203 94q57 44 151 125v503q-171 62 -264 62zM600 1241q-149 0 -227.5 75.5t-116.5 227.5h172q21 -77 49 -110q40 -54 123 -54q76 0 114.5 42t59.5 122h172q-39 -155 -110 -219q-84 -84 -236 -84z
M276 1886h230l254 -295h-219z" />
    <glyph glyph-name="uni1EB2" unicode="&#x1eb2;" horiz-adv-x="1454" 
d="M23 0l573 1544h258l578 -1544h-215l-134 358h-721l-133 -358h-206zM428 547h588l-293 796zM381 1925h172q21 -77 49 -110q40 -54 123 -54q76 0 114.5 42t59.5 122h172q-39 -155 -110 -219q-84 -84 -236 -84q-149 0 -227.5 75.5t-116.5 227.5zM588 2175v139l18 8
q72 21 121 21q94 -2 155.5 -46.5t61.5 -123.5q0 -46 -17.5 -75t-68.5 -70q-5 -4 -15.5 -11.5t-15.5 -11.5q-32 -24 -34 -29v-12l-2 -33h-138q-10 35 -9.5 55t18.5 52q11 20 32 36.5t49.5 34.5t42.5 29q13 10 13 31q0 12 -26.5 24.5t-63.5 12.5q-46 -4 -76 -15z" />
    <glyph glyph-name="uni1EB3" unicode="&#x1eb3;" 
d="M479 -35q-92 0 -160 36t-106 90.5t-61 134.5t-30 151t-7 158q0 107 12.5 190.5t44.5 158.5t84.5 124.5t136 78.5t195.5 29q69 0 152.5 -18t142 -37t170.5 -60v-1001h-193v166q-51 -46 -85.5 -73t-86 -61t-104 -50.5t-105.5 -16.5zM596 934q-74 0 -127.5 -22t-83.5 -56.5
t-47.5 -89t-23 -107t-5.5 -124.5q0 -199 37 -283q23 -54 61 -78t99 -24q81 0 203 94q57 44 151 125v503q-171 62 -264 62zM256 1544h172q21 -77 49 -110q40 -54 123 -54q76 0 114.5 42t59.5 122h172q-39 -155 -110 -219q-84 -84 -236 -84q-149 0 -227.5 75.5t-116.5 227.5z
M506 1843l-45 -16v139l18 8q72 21 121 21q94 -2 155.5 -46.5t61.5 -123.5q0 -43 -16.5 -74.5t-37 -49t-63.5 -44.5q-29 -20 -34 -31v-10l-2 -33h-138q-9 34 -8.5 53.5t17.5 51.5q11 21 32 37.5t49.5 34t42.5 28.5q13 10 13 33q0 12 -26.5 24.5t-63.5 12.5q-46 -4 -76 -15z
" />
    <glyph glyph-name="uni1EB4" unicode="&#x1eb4;" horiz-adv-x="1454" 
d="M23 0l573 1544h258l578 -1544h-215l-134 358h-721l-133 -358h-206zM428 547h588l-293 796zM311 2028q57 153 110.5 209.5t151.5 56.5q45 0 88.5 -17t104.5 -57q52 -36 76 -47.5t53 -11.5q36 0 56 22.5t48 81.5h158q-27 -63 -47.5 -100.5t-51.5 -76.5t-70.5 -57t-90.5 -18
q-90 0 -184 64q-55 38 -84.5 53.5t-53.5 15.5q-21 0 -35.5 -6.5t-28 -25.5t-21 -34.5t-23.5 -51.5h-156zM725 1622q-149 0 -227.5 75.5t-116.5 227.5h172q21 -77 49 -110q40 -54 123 -54q76 0 114.5 42t59.5 122h172q-39 -155 -110 -219q-84 -84 -236 -84z" />
    <glyph glyph-name="uni1EB5" unicode="&#x1eb5;" 
d="M115 535q0 107 12.5 190.5t44.5 158.5t84.5 124.5t136 78.5t195.5 29q69 0 152.5 -18t142 -37t170.5 -60v-1001h-193v166q-51 -46 -85.5 -73t-86 -61t-104 -50.5t-105.5 -16.5q-92 0 -160 36t-106 90.5t-61 134.5t-30 151t-7 158zM309 535q0 -199 37 -283q23 -54 61 -78
t99 -24q81 0 203 94q57 44 151 125v503q-171 62 -264 62q-74 0 -127.5 -22t-83.5 -56.5t-47.5 -89t-23 -107t-5.5 -124.5zM193 1651q57 153 110.5 209.5t151.5 56.5q83 0 192 -74q52 -36 76 -47.5t53 -11.5q36 0 57 23t48 81h157q-28 -64 -47.5 -101t-50.5 -76t-70.5 -57
t-91.5 -18q-90 0 -184 64q-53 38 -82 53.5t-55 15.5q-39 0 -59.5 -25.5t-49.5 -92.5h-155zM256 1544h172q21 -77 49 -110q40 -54 123 -54q76 0 114.5 42t59.5 122h172q-39 -155 -110 -219q-84 -84 -236 -84q-149 0 -227.5 75.5t-116.5 227.5z" />
    <glyph glyph-name="uni1EB6" unicode="&#x1eb6;" horiz-adv-x="1454" 
d="M229 0h-206l573 1544h258l578 -1544h-215l-134 358h-721zM723 1343l-295 -796h588zM383 1931h172q21 -77 49 -110q40 -54 123 -54q76 0 114.5 42t59.5 122h172q-39 -155 -110 -219q-84 -84 -236 -84q-149 0 -227.5 75.5t-116.5 227.5zM629 -395v289h198v-289h-198z" />
    <glyph glyph-name="uni1EB7" unicode="&#x1eb7;" 
d="M479 -35q-92 0 -160 36t-106 90.5t-61 134.5t-30 151t-7 158q0 107 12.5 190.5t44.5 158.5t84.5 124.5t136 78.5t195.5 29q69 0 152.5 -18t142 -37t170.5 -60v-1001h-193v166q-51 -46 -85.5 -73t-86 -61t-104 -50.5t-105.5 -16.5zM309 535q0 -199 37 -283q23 -54 61 -78
t99 -24q81 0 203 94q57 44 151 125v503q-171 62 -264 62q-74 0 -127.5 -22t-83.5 -56.5t-47.5 -89t-23 -107t-5.5 -124.5zM604 1241q-149 0 -227.5 75.5t-116.5 227.5h172q21 -77 49 -110q40 -54 123 -54q76 0 114.5 42t59.5 122h172q-39 -155 -110 -219q-84 -84 -236 -84z
M684 -395h-199v289h199v-289z" />
    <glyph glyph-name="uni1EB8" unicode="&#x1eb8;" horiz-adv-x="1339" 
d="M184 0v1544h1045v-190h-848v-471h803v-191h-803v-502h881v-190h-1078zM612 -106h199v-289h-199v289z" />
    <glyph glyph-name="uni1EB9" unicode="&#x1eb9;" horiz-adv-x="1161" 
d="M623 -35q-101 0 -178.5 16.5t-133.5 50t-94 80.5t-60.5 112.5t-32 140t-9.5 170.5q0 108 12.5 191.5t45 159t86 124.5t138.5 77.5t199 28.5q230 0 343.5 -110t113.5 -334q0 -102 -21 -217h-727q0 -167 79 -240.5t251 -73.5q125 0 362 43v-178q-225 -41 -374 -41zM305 608
h553q6 42 6 86q0 129 -67 190.5t-201 61.5q-160 0 -225.5 -86.5t-65.5 -251.5zM481 -406v289h199v-289h-199z" />
    <glyph glyph-name="uni1EBA" unicode="&#x1eba;" horiz-adv-x="1339" 
d="M184 1544h1045v-190h-848v-471h803v-191h-803v-502h881v-190h-1078v1544zM561 2040l19 10q59 18 118 18q94 0 157 -45t63 -125q0 -16 -3 -30.5t-5.5 -25t-11.5 -23t-13 -18.5t-18.5 -18t-18.5 -15.5t-23.5 -17.5t-23.5 -17q-32 -24 -35 -31v-12l-2 -33h-137
q-9 35 -9 54.5t17 51.5q11 21 32 38t50 34.5t43 28.5q12 10 12 30q0 13 -26.5 26t-63.5 13q-31 3 -76 -14l-45 -18v139z" />
    <glyph glyph-name="uni1EBB" unicode="&#x1ebb;" horiz-adv-x="1161" 
d="M115 535q0 108 12.5 191.5t45 159t86 124.5t138.5 77.5t199 28.5q230 0 343.5 -110t113.5 -334q0 -102 -21 -217h-727q0 -167 79 -240.5t251 -73.5q125 0 362 43v-178q-225 -41 -374 -41q-101 0 -178.5 16.5t-133.5 50t-94 80.5t-60.5 112.5t-32 140t-9.5 170.5zM596 946
q-160 0 -225.5 -86.5t-65.5 -251.5h553q6 42 6 86q0 129 -67 190.5t-201 61.5zM438 1485v139l21 8q68 21 119 21q94 -2 156.5 -46.5t62.5 -123.5q0 -46 -18 -75.5t-68 -70.5q-17 -14 -31 -22q-1 0 -11 -7t-16.5 -13t-9.5 -11q2 -4 2 -10l-2 -33h-139q-1 9 -3.5 22t-3.5 18.5
t-1.5 14t1.5 15t5.5 15.5t9.5 20q16 28 68 61.5t57 38.5q14 12 14 33q0 12 -26.5 24.5t-63.5 12.5q-35 0 -78 -15z" />
    <glyph glyph-name="uni1EBC" unicode="&#x1ebc;" horiz-adv-x="1339" 
d="M184 0v1544h1045v-190h-848v-471h803v-191h-803v-502h881v-190h-1078zM297 1665q57 153 110.5 209.5t151.5 56.5q86 0 193 -73q53 -36 76.5 -48t52.5 -12q35 0 55.5 23t48.5 82h158q-28 -64 -47.5 -101t-50.5 -76t-70.5 -57t-91.5 -18q-93 0 -185 63q-54 39 -82.5 54.5
t-54.5 15.5q-21 0 -35.5 -6.5t-28 -26t-21 -34.5t-23.5 -52h-156z" />
    <glyph glyph-name="uni1EBD" unicode="&#x1ebd;" horiz-adv-x="1161" 
d="M623 -35q-101 0 -178.5 16.5t-133.5 50t-94 80.5t-60.5 112.5t-32 140t-9.5 170.5q0 108 12.5 191.5t45 159t86 124.5t138.5 77.5t199 28.5q230 0 343.5 -110t113.5 -334q0 -102 -21 -217h-727q0 -167 79 -240.5t251 -73.5q125 0 362 43v-178q-225 -41 -374 -41zM596 946
q-160 0 -225.5 -86.5t-65.5 -251.5h553q6 42 6 86q0 129 -67 190.5t-201 61.5zM336 1272h-156q57 153 110.5 209.5t151.5 56.5q84 0 193 -74q52 -36 76 -47.5t53 -11.5q36 0 56 22.5t48 81.5h158q-28 -64 -47.5 -101t-50.5 -76t-70.5 -57t-91.5 -18q-90 0 -184 64
q-54 38 -83 54t-55 16q-21 0 -35.5 -6.5t-28 -26t-21 -34.5t-23.5 -52z" />
    <glyph glyph-name="uni1EBE" unicode="&#x1ebe;" horiz-adv-x="1339" 
d="M184 1544h1045v-190h-848v-471h803v-191h-803v-502h881v-190h-1078v1544zM528 1632h-213l275 295h221l276 -295h-215l-172 180zM952 1919l262 295h228l-268 -295h-222z" />
    <glyph glyph-name="uni1EBF" unicode="&#x1ebf;" horiz-adv-x="1161" 
d="M623 -35q-101 0 -178.5 16.5t-133.5 50t-94 80.5t-60.5 112.5t-32 140t-9.5 170.5q0 108 12.5 191.5t45 159t86 124.5t138.5 77.5t199 28.5q230 0 343.5 -110t113.5 -334q0 -102 -21 -217h-727q0 -167 79 -240.5t251 -73.5q125 0 362 43v-178q-225 -41 -374 -41zM305 608
h553q6 42 6 86q0 129 -67 190.5t-201 61.5q-160 0 -225.5 -86.5t-65.5 -251.5zM207 1249l274 295h221l277 -295h-215l-172 181l-172 -181h-213zM1042 1548h-221l262 295h228z" />
    <glyph glyph-name="uni1EC0" unicode="&#x1ec0;" horiz-adv-x="1339" 
d="M184 1544h1045v-190h-848v-471h803v-191h-803v-502h881v-190h-1078v1544zM528 1632h-213l275 295h221l276 -295h-215l-172 180zM709 2232h229l254 -295h-219z" />
    <glyph glyph-name="uni1EC1" unicode="&#x1ec1;" horiz-adv-x="1161" 
d="M623 -35q-101 0 -178.5 16.5t-133.5 50t-94 80.5t-60.5 112.5t-32 140t-9.5 170.5q0 108 12.5 191.5t45 159t86 124.5t138.5 77.5t199 28.5q230 0 343.5 -110t113.5 -334q0 -102 -21 -217h-727q0 -167 79 -240.5t251 -73.5q125 0 362 43v-178q-225 -41 -374 -41zM305 608
h553q6 42 6 86q0 129 -67 190.5t-201 61.5q-160 0 -225.5 -86.5t-65.5 -251.5zM207 1249l274 295h221l277 -295h-215l-172 181l-172 -181h-213zM643 1839h229l254 -295h-219z" />
    <glyph glyph-name="uni1EC2" unicode="&#x1ec2;" horiz-adv-x="1339" 
d="M184 1544h1045v-190h-848v-471h803v-191h-803v-502h881v-190h-1078v1544zM528 1632h-213l275 295h221l276 -295h-215l-172 180zM920 2109v140l18 8q68 20 121 20q94 -2 156.5 -46.5t62.5 -123.5q0 -50 -17 -80.5t-69 -64.5q-64 -42 -68 -51q0 -1 1 -5t1 -8l-4 -32h-137
q-1 9 -4.5 25.5t-3.5 21t0.5 15.5t4.5 20.5t11 23.5q9 16 25 31.5t29.5 24.5t37.5 24t33 21q15 10 15 30q0 12 -27 24.5t-64 12.5q-36 0 -77 -14z" />
    <glyph glyph-name="uni1EC3" unicode="&#x1ec3;" horiz-adv-x="1161" 
d="M623 -35q-101 0 -178.5 16.5t-133.5 50t-94 80.5t-60.5 112.5t-32 140t-9.5 170.5q0 108 12.5 191.5t45 159t86 124.5t138.5 77.5t199 28.5q230 0 343.5 -110t113.5 -334q0 -102 -21 -217h-727q0 -167 79 -240.5t251 -73.5q125 0 362 43v-178q-225 -41 -374 -41zM305 608
h553q6 42 6 86q0 129 -67 190.5t-201 61.5q-160 0 -225.5 -86.5t-65.5 -251.5zM207 1249l274 295h221l277 -295h-215l-172 181l-172 -181h-213zM844 1726v140l18 8q68 20 121 20q94 -2 156.5 -46.5t62.5 -123.5q-2 -50 -19 -81.5t-67 -65.5q-3 -2 -15.5 -9t-17.5 -12
l-15 -12q-15 -11 -19 -18v-10l-2 -33h-138q-8 33 -8 53t17 51q11 21 31.5 38t50 34.5t42.5 28.5q15 12 15 32q0 12 -26.5 24.5t-63.5 12.5t-78 -14z" />
    <glyph glyph-name="uni1EC4" unicode="&#x1ec4;" horiz-adv-x="1339" 
d="M184 0v1544h1045v-190h-848v-471h803v-191h-803v-502h881v-190h-1078zM274 2025q56 152 109 209.5t147 57.5q55 0 99.5 -18.5t99.5 -55.5q52 -36 76 -47.5t53 -11.5q36 0 57 23t48 81h157q-28 -64 -47.5 -101t-50.5 -76t-70.5 -57t-91.5 -18q-90 0 -184 64
q-53 38 -82 53.5t-55 15.5q-39 0 -59.5 -25.5t-49.5 -93.5h-156zM315 1632l275 295h221l276 -295h-215l-172 180l-172 -180h-213z" />
    <glyph glyph-name="uni1EC5" unicode="&#x1ec5;" horiz-adv-x="1161" 
d="M623 -35q-101 0 -178.5 16.5t-133.5 50t-94 80.5t-60.5 112.5t-32 140t-9.5 170.5q0 108 12.5 191.5t45 159t86 124.5t138.5 77.5t199 28.5q230 0 343.5 -110t113.5 -334q0 -102 -21 -217h-727q0 -167 79 -240.5t251 -73.5q125 0 362 43v-178q-225 -41 -374 -41zM305 608
h553q6 42 6 86q0 129 -67 190.5t-201 61.5q-160 0 -225.5 -86.5t-65.5 -251.5zM332 1655h-156q57 153 110.5 209.5t151.5 56.5q84 0 193 -74q52 -36 76 -47.5t53 -11.5q36 0 56 22.5t48 81.5h158q-28 -64 -47.5 -101t-50.5 -76t-70.5 -57t-91.5 -18q-90 0 -184 64
q-54 38 -83 54t-55 16q-21 0 -35.5 -6.5t-28 -26t-21 -34.5t-23.5 -52zM207 1249l274 295h221l277 -295h-215l-172 181l-172 -181h-213z" />
    <glyph glyph-name="uni1EC6" unicode="&#x1ec6;" horiz-adv-x="1339" 
d="M184 1544h1045v-190h-848v-471h803v-191h-803v-502h881v-190h-1078v1544zM287 1638l274 295h221l277 -295h-215l-172 181l-172 -181h-213zM612 -395v289h199v-289h-199z" />
    <glyph glyph-name="uni1EC7" unicode="&#x1ec7;" horiz-adv-x="1161" 
d="M115 535q0 108 12.5 191.5t45 159t86 124.5t138.5 77.5t199 28.5q230 0 343.5 -110t113.5 -334q0 -102 -21 -217h-727q0 -167 79 -240.5t251 -73.5q125 0 362 43v-178q-225 -41 -374 -41q-101 0 -178.5 16.5t-133.5 50t-94 80.5t-60.5 112.5t-32 140t-9.5 170.5zM305 608
h553q6 42 6 86q0 129 -67 190.5t-201 61.5q-160 0 -225.5 -86.5t-65.5 -251.5zM408 1249h-213l274 295h221l277 -295h-215l-172 181zM481 -117h199v-289h-199v289z" />
    <glyph glyph-name="uni1EC8" unicode="&#x1ec8;" horiz-adv-x="565" 
d="M184 1544h197v-1544h-197v1544zM137 1903v139l19 10q62 19 118 19q94 0 157 -45t63 -125q0 -46 -18 -75.5t-68 -70.5q-4 -4 -15.5 -10t-15.5 -10l-17 -13q-16 -12 -18 -18v-12l-2 -33h-137q-9 35 -9 54.5t17 51.5q11 21 32 38t50 34.5t43 28.5q12 10 12 30q0 13 -26.5 26
t-63.5 13q-31 3 -76 -14z" />
    <glyph glyph-name="uni1EC9" unicode="&#x1ec9;" horiz-adv-x="503" 
d="M156 0v1081h192v-1081h-192zM160 1501l-45 -16v139l18 8q72 21 121 21q94 -2 155.5 -46.5t61.5 -123.5q0 -46 -18 -75.5t-68 -70.5q-4 -3 -14.5 -9.5t-16.5 -12.5q-2 -2 -10.5 -7.5t-15.5 -12t-9 -11.5v-10l-2 -33h-137q-9 35 -9 54t17 51q14 27 63 57t62 43t13 33
q0 12 -26.5 24.5t-63.5 12.5q-46 -4 -76 -15z" />
    <glyph glyph-name="uni1ECA" unicode="&#x1eca;" horiz-adv-x="565" 
d="M381 0h-197v1544h197v-1544zM381 -395h-199v289h199v-289z" />
    <glyph glyph-name="uni1ECB" unicode="&#x1ecb;" horiz-adv-x="503" 
d="M156 0v1081h192v-1081h-192zM352 -395h-198v289h198v-289zM154 1255v289h196v-289h-196z" />
    <glyph glyph-name="uni1ECC" unicode="&#x1ecc;" horiz-adv-x="1615" 
d="M154 770q0 149 16 264.5t60 221t116 174t189 109t274 40.5q193 0 314 -53.5t204 -169.5q70 -98 102.5 -254t32.5 -332q0 -147 -17.5 -262.5t-62.5 -220t-117.5 -173.5t-187.5 -109t-268 -40q-217 0 -341.5 56.5t-197.5 175.5q-116 185 -116 573zM354 770q0 -322 78 -459
q28 -48 67 -80t90.5 -47.5t102 -21.5t117.5 -6q84 0 150.5 16.5t113.5 44.5t81.5 73t55 93.5t32.5 115t16 129t4 142.5q0 316 -88 457q-54 88 -144.5 125t-220.5 37q-135 0 -231.5 -39.5t-149.5 -137.5q-74 -137 -74 -442zM899 -387h-199v289h199v-289z" />
    <glyph glyph-name="uni1ECD" unicode="&#x1ecd;" 
d="M115 535q0 106 13.5 190.5t48 159.5t89 124.5t140 78t198.5 28.5q112 0 196.5 -27.5t140 -76t90 -122t49 -158t14.5 -191.5q0 -105 -14.5 -189.5t-49.5 -158t-90.5 -123t-140 -77.5t-195.5 -28q-112 0 -196.5 26.5t-139.5 74.5t-89.5 120.5t-49 157t-14.5 191.5zM309 537
q0 -182 53 -277q35 -63 93.5 -88t148.5 -25q74 0 128 21.5t85.5 56.5t50.5 89t25 108t6 125q0 69 -6.5 122.5t-25.5 105t-51 85t-85.5 54t-126.5 20.5q-75 0 -129 -21.5t-85.5 -55.5t-50 -88t-24.5 -107.5t-6 -124.5zM702 -387h-198v289h198v-289z" />
    <glyph glyph-name="uni1ECE" unicode="&#x1ece;" horiz-adv-x="1615" 
d="M270 197q-116 185 -116 573q0 149 16 264.5t60 221t116 174t189 109t274 40.5q193 0 314 -53.5t204 -169.5q70 -98 102.5 -254t32.5 -332q0 -147 -17.5 -262.5t-62.5 -220t-117.5 -173.5t-187.5 -109t-268 -40q-217 0 -341.5 56.5t-197.5 175.5zM354 770q0 -322 78 -459
q28 -48 67 -80t90.5 -47.5t102 -21.5t117.5 -6q84 0 150.5 16.5t113.5 44.5t81.5 73t55 93.5t32.5 115t16 129t4 142.5q0 316 -88 457q-54 88 -144.5 125t-220.5 37q-135 0 -230.5 -39.5t-150.5 -137.5q-74 -135 -74 -442zM680 1933l-45 -16v139l20 8q68 21 119 21
q94 -2 156.5 -46.5t62.5 -123.5q0 -46 -18 -75.5t-68 -70.5q-20 -16 -30 -22q-1 0 -11 -7t-16.5 -13t-9.5 -11q2 -4 2 -10l-2 -33h-140q-8 35 -8 55t17 50q16 28 68 61.5t57 38.5q14 12 14 33q0 12 -26.5 24.5t-63.5 12.5q-34 0 -78 -15z" />
    <glyph glyph-name="uni1ECF" unicode="&#x1ecf;" 
d="M604 -35q-112 0 -196.5 26.5t-139.5 74.5t-89.5 120.5t-49 157t-14.5 191.5q0 106 13.5 190.5t48 159.5t89 124.5t140 78t198.5 28.5q112 0 196.5 -27.5t140 -76t90 -122t49 -158t14.5 -191.5q0 -105 -14.5 -189.5t-49.5 -158t-90.5 -123t-140 -77.5t-195.5 -28zM309 537
q0 -182 53 -277q35 -63 93.5 -88t148.5 -25q74 0 128 21.5t85.5 56.5t50.5 89t25 108t6 125q0 69 -6.5 122.5t-25.5 105t-51 85t-85.5 54t-126.5 20.5q-75 0 -129 -21.5t-85.5 -55.5t-50 -88t-24.5 -107.5t-6 -124.5zM471 1501l-45 -16v139l18 8q72 21 121 21
q94 -2 155.5 -46.5t61.5 -123.5q0 -46 -18 -75.5t-68 -70.5q-3 -3 -13.5 -9.5t-16.5 -12.5q-2 -2 -10.5 -7.5t-15.5 -12t-9 -11.5v-10l-2 -33h-137q-9 35 -9 54t17 51q14 27 63 57t62 43q12 12 12 33q0 12 -26.5 24.5t-63.5 12.5q-46 -4 -76 -15z" />
    <glyph glyph-name="uni1ED0" unicode="&#x1ed0;" horiz-adv-x="1615" 
d="M154 770q0 149 16 264.5t60 221t116 174t189 109t274 40.5q193 0 314 -53.5t204 -169.5q70 -98 102.5 -254t32.5 -332q0 -147 -17.5 -262.5t-62.5 -220t-117.5 -173.5t-187.5 -109t-268 -40q-217 0 -341.5 56.5t-197.5 175.5q-116 185 -116 573zM428 1212
q-74 -137 -74 -442q0 -322 78 -459q28 -48 67 -80t90.5 -47.5t102 -21.5t117.5 -6q84 0 150.5 16.5t113.5 44.5t81.5 73t55 93.5t32.5 115t16 129t4 142.5q0 316 -88 457q-54 88 -144.5 125t-220.5 37q-135 0 -231.5 -39.5t-149.5 -137.5zM424 1647l274 295h222l276 -295
h-215l-172 180l-172 -180h-213zM1047 1939l262 295h227l-268 -295h-221z" />
    <glyph glyph-name="uni1ED1" unicode="&#x1ed1;" 
d="M115 535q0 106 13.5 190.5t48 159.5t89 124.5t140 78t198.5 28.5q112 0 196.5 -27.5t140 -76t90 -122t49 -158t14.5 -191.5q0 -105 -14.5 -189.5t-49.5 -158t-90.5 -123t-140 -77.5t-195.5 -28q-112 0 -196.5 26.5t-139.5 74.5t-89.5 120.5t-49 157t-14.5 191.5zM309 537
q0 -182 53 -277q35 -63 93.5 -88t148.5 -25q74 0 128 21.5t85.5 56.5t50.5 89t25 108t6 125q0 69 -6.5 122.5t-25.5 105t-51 85t-85.5 54t-126.5 20.5q-75 0 -129 -21.5t-85.5 -55.5t-50 -88t-24.5 -107.5t-6 -124.5zM432 1249h-213l275 295h221l276 -295h-215l-172 181z
M866 1538l262 295h228l-269 -295h-221z" />
    <glyph glyph-name="uni1ED2" unicode="&#x1ed2;" horiz-adv-x="1615" 
d="M154 770q0 149 16 264.5t60 221t116 174t189 109t274 40.5q193 0 314 -53.5t204 -169.5q70 -98 102.5 -254t32.5 -332q0 -147 -17.5 -262.5t-62.5 -220t-117.5 -173.5t-187.5 -109t-268 -40q-217 0 -341.5 56.5t-197.5 175.5q-116 185 -116 573zM428 1212
q-74 -137 -74 -442q0 -322 78 -459q28 -48 67 -80t90.5 -47.5t102 -21.5t117.5 -6q84 0 150.5 16.5t113.5 44.5t81.5 73t55 93.5t32.5 115t16 129t4 142.5q0 316 -88 457q-54 88 -144.5 125t-220.5 37q-135 0 -231.5 -39.5t-149.5 -137.5zM424 1647l274 295h222l276 -295
h-215l-172 180l-172 -180h-213zM840 2245h229l254 -295h-219z" />
    <glyph glyph-name="uni1ED3" unicode="&#x1ed3;" 
d="M115 535q0 106 13.5 190.5t48 159.5t89 124.5t140 78t198.5 28.5q112 0 196.5 -27.5t140 -76t90 -122t49 -158t14.5 -191.5q0 -105 -14.5 -189.5t-49.5 -158t-90.5 -123t-140 -77.5t-195.5 -28q-112 0 -196.5 26.5t-139.5 74.5t-89.5 120.5t-49 157t-14.5 191.5zM309 537
q0 -182 53 -277q35 -63 93.5 -88t148.5 -25q74 0 128 21.5t85.5 56.5t50.5 89t25 108t6 125q0 69 -6.5 122.5t-25.5 105t-51 85t-85.5 54t-126.5 20.5q-75 0 -129 -21.5t-85.5 -55.5t-50 -88t-24.5 -107.5t-6 -124.5zM432 1249h-213l275 295h221l276 -295h-215l-172 181z
M903 1544l-264 295h229l254 -295h-219z" />
    <glyph glyph-name="uni1ED4" unicode="&#x1ed4;" horiz-adv-x="1615" 
d="M154 770q0 149 16 264.5t60 221t116 174t189 109t274 40.5q193 0 314 -53.5t204 -169.5q70 -98 102.5 -254t32.5 -332q0 -147 -17.5 -262.5t-62.5 -220t-117.5 -173.5t-187.5 -109t-268 -40q-217 0 -341.5 56.5t-197.5 175.5q-116 185 -116 573zM428 1212
q-74 -137 -74 -442q0 -322 78 -459q28 -48 67 -80t90.5 -47.5t102 -21.5t117.5 -6q84 0 150.5 16.5t113.5 44.5t81.5 73t55 93.5t32.5 115t16 129t4 142.5q0 316 -88 457q-54 88 -144.5 125t-220.5 37q-135 0 -231.5 -39.5t-149.5 -137.5zM637 1647h-213l274 295h222
l276 -295h-215l-172 180zM1067 2126v139l18 8q72 21 121 21q94 -2 155.5 -46.5t61.5 -123.5q0 -52 -17 -85t-69 -63q-59 -34 -65 -51v-10l-2 -33h-137q-9 33 -9 53t17 52q11 21 32 37.5t50 34t43 28.5q12 10 12 33q0 12 -26.5 24.5t-63.5 12.5q-46 -4 -76 -15z" />
    <glyph glyph-name="uni1ED5" unicode="&#x1ed5;" 
d="M115 535q0 106 13.5 190.5t48 159.5t89 124.5t140 78t198.5 28.5q112 0 196.5 -27.5t140 -76t90 -122t49 -158t14.5 -191.5q0 -105 -14.5 -189.5t-49.5 -158t-90.5 -123t-140 -77.5t-195.5 -28q-112 0 -196.5 26.5t-139.5 74.5t-89.5 120.5t-49 157t-14.5 191.5zM604 934
q-75 0 -129 -21.5t-85.5 -55.5t-50 -88t-24.5 -107.5t-6 -124.5q0 -182 53 -277q35 -63 93.5 -88t148.5 -25q74 0 128 21.5t85.5 56.5t50.5 89t25 108t6 125q0 69 -6.5 122.5t-25.5 105t-51 85t-85.5 54t-126.5 20.5zM432 1249h-213l275 295h221l276 -295h-215l-172 181z
M864 1864l21 10q59 18 116 18q94 0 158 -45t64 -125q0 -46 -17.5 -75t-68.5 -70q-6 -4 -17 -11.5t-14 -9.5q-33 -25 -35 -30v-13l-2 -32h-139q-2 10 -5 25.5t-3.5 21t0 16t4.5 20t12 23.5q12 21 33 38t50.5 35t43.5 28q12 10 12 30q0 13 -26.5 26t-65.5 13q-31 3 -76 -14
l-45 -19v140z" />
    <glyph glyph-name="uni1ED6" unicode="&#x1ed6;" horiz-adv-x="1615" 
d="M154 770q0 149 16 264.5t60 221t116 174t189 109t274 40.5q193 0 314 -53.5t204 -169.5q70 -98 102.5 -254t32.5 -332q0 -147 -17.5 -262.5t-62.5 -220t-117.5 -173.5t-187.5 -109t-268 -40q-217 0 -341.5 56.5t-197.5 175.5q-116 185 -116 573zM354 770q0 -322 78 -459
q28 -48 67 -80t90.5 -47.5t102 -21.5t117.5 -6q84 0 150.5 16.5t113.5 44.5t81.5 73t55 93.5t32.5 115t16 129t4 142.5q0 316 -88 457q-54 88 -144.5 125t-220.5 37q-135 0 -231.5 -39.5t-149.5 -137.5q-74 -137 -74 -442zM389 2028q57 153 110.5 209.5t151.5 56.5
q84 0 193 -74q50 -35 73.5 -47t49.5 -12h6q36 0 56 22.5t48 81.5h158q-28 -64 -47.5 -101t-50.5 -76t-70.5 -57t-91.5 -18q-87 0 -184 64q-39 27 -57 38.5t-40.5 21t-40.5 9.5q-21 0 -35.5 -6.5t-28 -25.5t-21 -34.5t-23.5 -51.5h-156zM637 1647h-213l274 295h222l276 -295
h-215l-172 180z" />
    <glyph glyph-name="uni1ED7" unicode="&#x1ed7;" 
d="M604 -35q-112 0 -196.5 26.5t-139.5 74.5t-89.5 120.5t-49 157t-14.5 191.5q0 106 13.5 190.5t48 159.5t89 124.5t140 78t198.5 28.5q112 0 196.5 -27.5t140 -76t90 -122t49 -158t14.5 -191.5q0 -105 -14.5 -189.5t-49.5 -158t-90.5 -123t-140 -77.5t-195.5 -28zM604 934
q-75 0 -129 -21.5t-85.5 -55.5t-50 -88t-24.5 -107.5t-6 -124.5q0 -182 53 -277q35 -63 93.5 -88t148.5 -25q74 0 128 21.5t85.5 56.5t50.5 89t25 108t6 125q0 69 -6.5 122.5t-25.5 105t-51 85t-85.5 54t-126.5 20.5zM188 1649q55 152 108.5 209t147.5 57q55 0 99.5 -18.5
t99.5 -55.5q52 -36 76 -47.5t53 -11.5q36 0 57 23t48 81h157q-27 -62 -47.5 -100t-51.5 -76.5t-70.5 -56.5t-90.5 -19q-94 0 -184 64q-52 37 -82 53t-55 16q-39 0 -59.5 -25.5t-49.5 -92.5h-156zM432 1249h-213l275 295h221l276 -295h-215l-172 181z" />
    <glyph glyph-name="uni1ED8" unicode="&#x1ed8;" horiz-adv-x="1615" 
d="M270 197q-116 185 -116 573q0 149 16 264.5t60 221t116 174t189 109t274 40.5q193 0 314 -53.5t204 -169.5q70 -98 102.5 -254t32.5 -332q0 -147 -17.5 -262.5t-62.5 -220t-117.5 -173.5t-187.5 -109t-268 -40q-217 0 -341.5 56.5t-197.5 175.5zM428 1212
q-74 -137 -74 -442q0 -322 78 -459q28 -48 67 -80t90.5 -47.5t102 -21.5t117.5 -6q84 0 150.5 16.5t113.5 44.5t81.5 73t55 93.5t32.5 115t16 129t4 142.5q0 316 -88 457q-54 88 -144.5 125t-220.5 37q-135 0 -231.5 -39.5t-149.5 -137.5zM645 1647h-213l275 295h221
l276 -295h-215l-172 180zM700 -387v289h199v-289h-199z" />
    <glyph glyph-name="uni1ED9" unicode="&#x1ed9;" 
d="M604 -35q-112 0 -196.5 26.5t-139.5 74.5t-89.5 120.5t-49 157t-14.5 191.5q0 106 13.5 190.5t48 159.5t89 124.5t140 78t198.5 28.5q112 0 196.5 -27.5t140 -76t90 -122t49 -158t14.5 -191.5q0 -105 -14.5 -189.5t-49.5 -158t-90.5 -123t-140 -77.5t-195.5 -28zM604 934
q-75 0 -129 -21.5t-85.5 -55.5t-50 -88t-24.5 -107.5t-6 -124.5q0 -182 53 -277q35 -63 93.5 -88t148.5 -25q74 0 128 21.5t85.5 56.5t50.5 89t25 108t6 125q0 69 -6.5 122.5t-25.5 105t-51 85t-85.5 54t-126.5 20.5zM432 1249h-213l275 295h221l276 -295h-215l-172 181z
M504 -387v289h198v-289h-198z" />
    <glyph glyph-name="uni1EDA" unicode="&#x1eda;" horiz-adv-x="1705" 
d="M270 197q-116 185 -116 573q0 149 16 264.5t60 221t116 174t189 109t274 40.5q196 0 318.5 -53t199.5 -170q4 -6 12.5 -18.5t12.5 -18.5h34q87 0 103 45v221h164v-225q0 -69 -63 -132t-173 -71q45 -165 45 -387q0 -147 -17.5 -262.5t-62.5 -220t-117.5 -173.5
t-187.5 -109t-268 -40q-217 0 -341.5 56.5t-197.5 175.5zM428 1212q-74 -135 -74 -442q0 -322 78 -459q28 -48 67 -80t90.5 -47.5t102 -21.5t117.5 -6q84 0 150.5 16.5t113.5 44.5t81.5 73t55 93.5t32.5 115t16 129t4 142.5q0 316 -88 457q-54 88 -144.5 125t-220.5 37
q-135 0 -230.5 -39.5t-150.5 -137.5zM682 1712l262 295h227l-268 -295h-221z" />
    <glyph glyph-name="uni1EDB" unicode="&#x1edb;" horiz-adv-x="1323" 
d="M604 -35q-112 0 -196.5 26.5t-139.5 74.5t-89.5 120.5t-49 157t-14.5 191.5q0 106 13.5 190.5t48 159.5t89 124.5t140 78t198.5 28.5q136 0 246.5 -49.5t171.5 -157.5q34 0 62 11.5t36 33.5v222h164v-226q0 -63 -56 -123.5t-153 -76.5q19 -92 19 -209
q0 -105 -14.5 -189.5t-49.5 -158t-90.5 -123t-140 -77.5t-195.5 -28zM604 934q-75 0 -129 -21.5t-85.5 -55.5t-50 -88t-24.5 -107.5t-6 -124.5q0 -182 53 -277q35 -63 93.5 -88t148.5 -25q74 0 128 21.5t85.5 56.5t50.5 89t25 108t6 125q0 69 -6.5 122.5t-25.5 105t-51 85
t-85.5 54t-126.5 20.5zM670 1249h-221l262 295h227z" />
    <glyph glyph-name="uni1EDC" unicode="&#x1edc;" horiz-adv-x="1705" 
d="M270 197q-116 185 -116 573q0 149 16 264.5t60 221t116 174t189 109t274 40.5q196 0 318.5 -53t199.5 -170q4 -6 12.5 -18.5t12.5 -18.5h34q87 0 103 45v221h164v-225q0 -69 -63 -132t-173 -71q45 -165 45 -387q0 -147 -17.5 -262.5t-62.5 -220t-117.5 -173.5
t-187.5 -109t-268 -40q-217 0 -341.5 56.5t-197.5 175.5zM428 1212q-74 -135 -74 -442q0 -322 78 -459q28 -48 67 -80t90.5 -47.5t102 -21.5t117.5 -6q84 0 150.5 16.5t113.5 44.5t81.5 73t55 93.5t32.5 115t16 129t4 142.5q0 316 -88 457q-54 88 -144.5 125t-220.5 37
q-135 0 -230.5 -39.5t-150.5 -137.5zM549 2007h229l254 -295h-219z" />
    <glyph glyph-name="uni1EDD" unicode="&#x1edd;" horiz-adv-x="1323" 
d="M604 -35q-112 0 -196.5 26.5t-139.5 74.5t-89.5 120.5t-49 157t-14.5 191.5q0 106 13.5 190.5t48 159.5t89 124.5t140 78t198.5 28.5q136 0 246.5 -49.5t171.5 -157.5q34 0 62 11.5t36 33.5v222h164v-226q0 -63 -56 -123.5t-153 -76.5q19 -92 19 -209
q0 -105 -14.5 -189.5t-49.5 -158t-90.5 -123t-140 -77.5t-195.5 -28zM604 934q-75 0 -129 -21.5t-85.5 -55.5t-50 -88t-24.5 -107.5t-6 -124.5q0 -182 53 -277q35 -63 93.5 -88t148.5 -25q74 0 128 21.5t85.5 56.5t50.5 89t25 108t6 125q0 69 -6.5 122.5t-25.5 105t-51 85
t-85.5 54t-126.5 20.5zM367 1544h229l254 -295h-219z" />
    <glyph glyph-name="uni1EDE" unicode="&#x1ede;" horiz-adv-x="1705" 
d="M154 770q0 149 16 264.5t60 221t116 174t189 109t274 40.5q196 0 318.5 -53t199.5 -170q4 -6 12.5 -18.5t12.5 -18.5h34q87 0 103 45v221h164v-225q0 -69 -63 -132t-173 -71q45 -165 45 -387q0 -147 -17.5 -262.5t-62.5 -220t-117.5 -173.5t-187.5 -109t-268 -40
q-217 0 -341.5 56.5t-197.5 175.5q-116 185 -116 573zM428 1212q-74 -135 -74 -442q0 -322 78 -459q28 -48 67 -80t90.5 -47.5t102 -21.5t117.5 -6q84 0 150.5 16.5t113.5 44.5t81.5 73t55 93.5t32.5 115t16 129t4 142.5q0 316 -88 457q-54 88 -144.5 125t-220.5 37
q-135 0 -230.5 -39.5t-150.5 -137.5zM670 2075l20 8q65 20 119 20q94 -2 156.5 -46.5t62.5 -123.5q0 -46 -17.5 -75t-68.5 -70q-22 -18 -31 -23q-1 -1 -10.5 -7t-16.5 -12t-10 -11q3 -5 3 -11l-3 -32h-139q-1 9 -4.5 25.5t-3.5 21t0.5 15t4.5 20t11 22.5q16 28 68 61.5
t57 38.5q15 12 15 33q0 12 -26.5 24.5t-63.5 12.5t-78 -14l-45 -17v140z" />
    <glyph glyph-name="uni1EDF" unicode="&#x1edf;" horiz-adv-x="1323" 
d="M115 535q0 106 13.5 190.5t48 159.5t89 124.5t140 78t198.5 28.5q136 0 246.5 -49.5t171.5 -157.5q34 0 62 11.5t36 33.5v222h164v-226q0 -63 -56 -123.5t-153 -76.5q19 -92 19 -209q0 -105 -14.5 -189.5t-49.5 -158t-90.5 -123t-140 -77.5t-195.5 -28
q-112 0 -196.5 26.5t-139.5 74.5t-89.5 120.5t-49 157t-14.5 191.5zM604 934q-75 0 -129 -21.5t-85.5 -55.5t-50 -88t-24.5 -107.5t-6 -124.5q0 -182 53 -277q35 -63 93.5 -88t148.5 -25q74 0 128 21.5t85.5 56.5t50.5 89t25 108t6 125q0 69 -6.5 122.5t-25.5 105t-51 85
t-85.5 54t-126.5 20.5zM483 1624l19 8q72 21 121 21q94 -2 155.5 -46.5t61.5 -123.5q0 -46 -18 -75.5t-68 -70.5q-4 -3 -14.5 -9.5t-16.5 -12.5q-2 -2 -10.5 -7.5t-15.5 -12t-9 -11.5v-10l-2 -33h-137q-9 35 -9 54t17 51q14 27 63 57t62 43q12 12 12 33q0 12 -26.5 24.5
t-63.5 12.5q-46 -4 -76 -15l-45 -16v139z" />
    <glyph glyph-name="uni1EE0" unicode="&#x1ee0;" horiz-adv-x="1705" 
d="M270 197q-116 185 -116 573q0 149 16 264.5t60 221t116 174t189 109t274 40.5q196 0 318.5 -53t199.5 -170q4 -6 12.5 -18.5t12.5 -18.5h34q87 0 103 45v221h164v-225q0 -69 -63 -132t-173 -71q45 -165 45 -387q0 -147 -17.5 -262.5t-62.5 -220t-117.5 -173.5
t-187.5 -109t-268 -40q-217 0 -341.5 56.5t-197.5 175.5zM354 770q0 -322 78 -459q28 -48 67 -80t90.5 -47.5t102 -21.5t117.5 -6q84 0 150.5 16.5t113.5 44.5t81.5 73t55 93.5t32.5 115t16 129t4 142.5q0 316 -88 457q-54 88 -144.5 125t-220.5 37q-135 0 -230.5 -39.5
t-150.5 -137.5q-74 -135 -74 -442zM430 1735q57 153 110.5 209.5t151.5 56.5q84 0 193 -74q52 -36 76 -47.5t53 -11.5q36 0 56 22.5t48 81.5h158q-28 -64 -47.5 -101t-50.5 -76t-70.5 -57t-91.5 -18q-91 0 -185 64q-53 38 -82 53.5t-55 15.5q-21 0 -35.5 -6.5t-28 -25.5
t-21 -34.5t-23.5 -51.5h-156z" />
    <glyph glyph-name="uni1EE1" unicode="&#x1ee1;" horiz-adv-x="1323" 
d="M604 -35q-112 0 -196.5 26.5t-139.5 74.5t-89.5 120.5t-49 157t-14.5 191.5q0 106 13.5 190.5t48 159.5t89 124.5t140 78t198.5 28.5q136 0 246.5 -49.5t171.5 -157.5q34 0 62 11.5t36 33.5v222h164v-226q0 -63 -56 -123.5t-153 -76.5q19 -92 19 -209
q0 -105 -14.5 -189.5t-49.5 -158t-90.5 -123t-140 -77.5t-195.5 -28zM309 537q0 -182 53 -277q35 -63 93.5 -88t148.5 -25q74 0 128 21.5t85.5 56.5t50.5 89t25 108t6 125q0 69 -6.5 122.5t-25.5 105t-51 85t-85.5 54t-126.5 20.5q-75 0 -129 -21.5t-85.5 -55.5t-50 -88
t-24.5 -107.5t-6 -124.5zM193 1272q57 153 110.5 209.5t151.5 56.5q45 0 88 -17t104 -57q52 -36 76 -47.5t53 -11.5q36 0 57 23t48 81h157q-28 -64 -47.5 -101t-50.5 -76t-70.5 -57t-91.5 -18q-90 0 -184 64q-82 56 -108 65q-16 5 -29 5q-39 0 -59.5 -25.5t-49.5 -93.5h-155
z" />
    <glyph glyph-name="uni1EE2" unicode="&#x1ee2;" horiz-adv-x="1705" 
d="M270 197q-116 185 -116 573q0 149 16 264.5t60 221t116 174t189 109t274 40.5q196 0 318.5 -53t199.5 -170q4 -6 12.5 -18.5t12.5 -18.5h34q87 0 103 45v221h164v-225q0 -69 -63 -132t-173 -71q45 -165 45 -387q0 -147 -17.5 -262.5t-62.5 -220t-117.5 -173.5
t-187.5 -109t-268 -40q-217 0 -341.5 56.5t-197.5 175.5zM428 1212q-74 -135 -74 -442q0 -322 78 -459q28 -48 67 -80t90.5 -47.5t102 -21.5t117.5 -6q84 0 150.5 16.5t113.5 44.5t81.5 73t55 93.5t32.5 115t16 129t4 142.5q0 316 -88 457q-54 88 -144.5 125t-220.5 37
q-135 0 -230.5 -39.5t-150.5 -137.5zM952 -416h-198v289h198v-289z" />
    <glyph glyph-name="uni1EE3" unicode="&#x1ee3;" horiz-adv-x="1323" 
d="M604 -35q-112 0 -196.5 26.5t-139.5 74.5t-89.5 120.5t-49 157t-14.5 191.5q0 106 13.5 190.5t48 159.5t89 124.5t140 78t198.5 28.5q136 0 246.5 -49.5t171.5 -157.5q34 0 62 11.5t36 33.5v222h164v-226q0 -63 -56 -123.5t-153 -76.5q19 -92 19 -209
q0 -105 -14.5 -189.5t-49.5 -158t-90.5 -123t-140 -77.5t-195.5 -28zM604 934q-75 0 -129 -21.5t-85.5 -55.5t-50 -88t-24.5 -107.5t-6 -124.5q0 -182 53 -277q35 -63 93.5 -88t148.5 -25q74 0 128 21.5t85.5 56.5t50.5 89t25 108t6 125q0 69 -6.5 122.5t-25.5 105t-51 85
t-85.5 54t-126.5 20.5zM698 -416h-198v289h198v-289z" />
    <glyph glyph-name="uni1EE4" unicode="&#x1ee4;" horiz-adv-x="1513" 
d="M180 1544h197v-956q0 -83 5.5 -141t20.5 -109.5t41.5 -83.5t69 -55.5t102.5 -33t142 -9.5q98 0 165.5 16.5t109.5 47t65 86t31 119.5t8 163v956h196v-956q0 -194 -28.5 -308t-116.5 -190q-76 -67 -178.5 -96t-251.5 -29q-169 0 -280.5 35t-177.5 114t-93 192t-27 282v956
zM657 -106h199v-289h-199v289z" />
    <glyph glyph-name="uni1EE5" unicode="&#x1ee5;" horiz-adv-x="1193" 
d="M154 1081h192v-653q0 -40 0.5 -62t3 -54t8.5 -49.5t15.5 -39t24.5 -33.5t36 -23t50.5 -15.5t66.5 -4.5q125 0 295 46v888h192v-1030q-98 -27 -157.5 -42t-157.5 -29.5t-188 -14.5q-94 0 -161.5 21t-109.5 58t-67 96t-34 126t-9 158v657zM692 -395h-198v289h198v-289z" />
    <glyph glyph-name="uni1EE6" unicode="&#x1ee6;" horiz-adv-x="1513" 
d="M180 1544h197v-956q0 -83 5.5 -141t20.5 -109.5t41.5 -83.5t69 -55.5t102.5 -33t142 -9.5q98 0 165.5 16.5t109.5 47t65 86t31 119.5t8 163v956h196v-956q0 -194 -28.5 -308t-116.5 -190q-76 -67 -178.5 -96t-251.5 -29q-169 0 -280.5 35t-177.5 114t-93 192t-27 282v956
zM598 2079l20 8q65 20 119 20q94 -2 156.5 -46.5t62.5 -123.5q0 -46 -17.5 -75t-68.5 -70q-25 -20 -30 -23q-1 -1 -10.5 -7t-16.5 -12t-10 -11q2 -4 2 -10l-2 -33h-139q-1 9 -4.5 25.5t-3.5 21t0.5 15t4.5 20t11 22.5q16 28 68 62.5t57 38.5q14 12 14 32q0 12 -26.5 24.5
t-63.5 12.5t-78 -14l-45 -17v140z" />
    <glyph glyph-name="uni1EE7" unicode="&#x1ee7;" horiz-adv-x="1193" 
d="M154 1081h192v-653q0 -40 0.5 -62t3 -54t8.5 -49.5t15.5 -39t24.5 -33.5t36 -23t50.5 -15.5t66.5 -4.5q125 0 295 46v888h192v-1030q-98 -27 -157.5 -42t-157.5 -29.5t-188 -14.5q-94 0 -161.5 21t-109.5 58t-67 96t-34 126t-9 158v657zM418 1624l20 8q68 21 119 21
q94 -2 156.5 -46.5t62.5 -123.5q0 -46 -18 -75.5t-68 -70.5q-17 -14 -31 -22q-1 -1 -7.5 -5.5t-11.5 -8t-10 -8.5t-7 -9q2 -4 2 -10l-2 -33h-140q-8 35 -8 55t17 50q16 28 67.5 62t56.5 38q15 12 15 33q0 12 -26.5 24.5t-63.5 12.5q-35 0 -78 -15l-45 -16v139z" />
    <glyph glyph-name="uni1EE8" unicode="&#x1ee8;" horiz-adv-x="1693" 
d="M180 588v956h197v-956q0 -83 5.5 -141t20.5 -109.5t41.5 -83.5t69 -55.5t102.5 -33t142 -9.5q98 0 165.5 16.5t109.5 47t65 86t31 119.5t8 163v956h196v-221h45q84 0 101 43l2 223h164v-225q0 -75 -72.5 -140t-194.5 -65h-45v-571q0 -194 -28.5 -308t-116.5 -190
q-76 -67 -178.5 -96t-251.5 -29q-169 0 -280.5 35t-177.5 114t-93 192t-27 282zM602 1712l262 295h228l-269 -295h-221z" />
    <glyph glyph-name="uni1EE9" unicode="&#x1ee9;" horiz-adv-x="1374" 
d="M154 1081h192v-653q0 -40 0.5 -62t3 -54t8.5 -49.5t15.5 -39t24.5 -33.5t36 -23t50.5 -15.5t66.5 -4.5q125 0 295 46v888h192v-172h37q84 0 103 45v222h163v-226q0 -74 -71.5 -139.5t-194.5 -65.5h-37v-694q-98 -27 -157.5 -42t-157.5 -29.5t-188 -14.5q-94 0 -161.5 21
t-109.5 58t-67 96t-34 126t-9 158v657zM442 1249l263 295h227l-268 -295h-222z" />
    <glyph glyph-name="uni1EEA" unicode="&#x1eea;" horiz-adv-x="1693" 
d="M180 588v956h197v-956q0 -83 5.5 -141t20.5 -109.5t41.5 -83.5t69 -55.5t102.5 -33t142 -9.5q98 0 165.5 16.5t109.5 47t65 86t31 119.5t8 163v956h196v-221h45q84 0 101 43l2 223h164v-225q0 -75 -72.5 -140t-194.5 -65h-45v-571q0 -194 -28.5 -308t-116.5 -190
q-76 -67 -178.5 -96t-251.5 -29q-169 0 -280.5 35t-177.5 114t-93 192t-27 282zM870 1712l-264 295h230l254 -295h-220z" />
    <glyph glyph-name="uni1EEB" unicode="&#x1eeb;" horiz-adv-x="1374" 
d="M154 1081h192v-653q0 -40 0.5 -62t3 -54t8.5 -49.5t15.5 -39t24.5 -33.5t36 -23t50.5 -15.5t66.5 -4.5q125 0 295 46v888h192v-172h37q84 0 103 45v222h163v-226q0 -74 -71.5 -139.5t-194.5 -65.5h-37v-694q-98 -27 -157.5 -42t-157.5 -29.5t-188 -14.5q-94 0 -161.5 21
t-109.5 58t-67 96t-34 126t-9 158v657zM629 1249l-264 295h229l254 -295h-219z" />
    <glyph glyph-name="uni1EEC" unicode="&#x1eec;" horiz-adv-x="1693" 
d="M180 1544h197v-956q0 -83 5.5 -141t20.5 -109.5t41.5 -83.5t69 -55.5t102.5 -33t142 -9.5q98 0 165.5 16.5t109.5 47t65 86t31 119.5t8 163v956h196v-221h45q84 0 101 43l2 223h164v-225q0 -75 -72.5 -140t-194.5 -65h-45v-571q0 -194 -28.5 -308t-116.5 -190
q-76 -67 -178.5 -96t-251.5 -29q-169 0 -280.5 35t-177.5 114t-93 192t-27 282v956zM668 2087l20 8q68 21 119 21q94 -2 156.5 -46.5t62.5 -123.5q0 -46 -18 -75.5t-68 -70.5q-17 -14 -31 -22q-1 0 -11 -7t-16.5 -13t-9.5 -11q2 -4 2 -10l-2 -33h-139q-1 9 -4.5 25.5
t-3.5 21t0.5 15t4.5 20t11 22.5q16 28 68 62.5t57 38.5q15 12 15 33q0 12 -26.5 24t-63.5 12t-78 -14l-45 -16v139z" />
    <glyph glyph-name="uni1EED" unicode="&#x1eed;" horiz-adv-x="1374" 
d="M154 1081h192v-653q0 -40 0.5 -62t3 -54t8.5 -49.5t15.5 -39t24.5 -33.5t36 -23t50.5 -15.5t66.5 -4.5q125 0 295 46v888h192v-172h37q84 0 103 45v222h163v-226q0 -74 -71.5 -139.5t-194.5 -65.5h-37v-694q-98 -27 -157.5 -42t-157.5 -29.5t-188 -14.5q-94 0 -161.5 21
t-109.5 58t-67 96t-34 126t-9 158v657zM465 1624l20 8q68 21 119 21q94 -2 156.5 -46.5t62.5 -123.5q0 -46 -18 -75.5t-68 -70.5q-20 -16 -30 -22q-1 0 -11 -7t-16.5 -13t-9.5 -11q2 -4 2 -10l-2 -33h-140q-8 35 -8 55t17 50q16 28 68 61.5t57 38.5q14 12 14 33
q0 12 -26.5 24.5t-63.5 12.5q-34 0 -78 -15l-45 -16v139z" />
    <glyph glyph-name="uni1EEE" unicode="&#x1eee;" horiz-adv-x="1693" 
d="M180 1544h197v-956q0 -83 5.5 -141t20.5 -109.5t41.5 -83.5t69 -55.5t102.5 -33t142 -9.5q98 0 165.5 16.5t109.5 47t65 86t31 119.5t8 163v956h196v-221h45q84 0 101 43l2 223h164v-225q0 -75 -72.5 -140t-194.5 -65h-45v-571q0 -194 -28.5 -308t-116.5 -190
q-76 -67 -178.5 -96t-251.5 -29q-169 0 -280.5 35t-177.5 114t-93 192t-27 282v956zM424 1735q57 153 110.5 209.5t151.5 56.5q84 0 193 -74q52 -36 76 -47.5t53 -11.5q36 0 56 22.5t48 81.5h158q-28 -64 -47.5 -101t-50.5 -76t-70.5 -57t-91.5 -18q-91 0 -185 64
q-53 38 -82 53.5t-55 15.5q-21 0 -35.5 -6.5t-28 -25.5t-21 -34.5t-23.5 -51.5h-156z" />
    <glyph glyph-name="uni1EEF" unicode="&#x1eef;" horiz-adv-x="1374" 
d="M154 1081h192v-653q0 -40 0.5 -62t3 -54t8.5 -49.5t15.5 -39t24.5 -33.5t36 -23t50.5 -15.5t66.5 -4.5q125 0 295 46v888h192v-172h37q84 0 103 45v222h163v-226q0 -74 -71.5 -139.5t-194.5 -65.5h-37v-694q-98 -27 -157.5 -42t-157.5 -29.5t-188 -14.5q-94 0 -161.5 21
t-109.5 58t-67 96t-34 126t-9 158v657zM373 1272h-156q57 153 110.5 209.5t151.5 56.5q84 0 193 -74q52 -36 76 -47.5t53 -11.5q36 0 56 22.5t48 81.5h158q-28 -64 -47.5 -101t-50.5 -76t-70.5 -57t-91.5 -18q-91 0 -185 64q-54 39 -82.5 54.5t-54.5 15.5q-21 0 -35.5 -6.5
t-28 -26t-21 -34.5t-23.5 -52z" />
    <glyph glyph-name="uni1EF0" unicode="&#x1ef0;" horiz-adv-x="1693" 
d="M180 1544h197v-956q0 -83 5.5 -141t20.5 -109.5t41.5 -83.5t69 -55.5t102.5 -33t142 -9.5q98 0 165.5 16.5t109.5 47t65 86t31 119.5t8 163v956h196v-221h45q84 0 101 43l2 223h164v-225q0 -75 -72.5 -140t-194.5 -65h-45v-571q0 -194 -28.5 -308t-116.5 -190
q-76 -67 -178.5 -96t-251.5 -29q-169 0 -280.5 35t-177.5 114t-93 192t-27 282v956zM631 -127h198v-289h-198v289z" />
    <glyph glyph-name="uni1EF1" unicode="&#x1ef1;" horiz-adv-x="1374" 
d="M154 1081h192v-653q0 -40 0.5 -62t3 -54t8.5 -49.5t15.5 -39t24.5 -33.5t36 -23t50.5 -15.5t66.5 -4.5q125 0 295 46v888h192v-172h37q84 0 103 45v222h163v-226q0 -74 -71.5 -139.5t-194.5 -65.5h-37v-694q-98 -27 -157.5 -42t-157.5 -29.5t-188 -14.5q-94 0 -161.5 21
t-109.5 58t-67 96t-34 126t-9 158v657zM588 -416v289h198v-289h-198z" />
    <glyph glyph-name="Ygrave" unicode="&#x1ef2;" horiz-adv-x="1286" 
d="M-23 1544h232l436 -741l436 741h228l-568 -956v-588h-196v588zM606 1651l-264 295h229l254 -295h-219z" />
    <glyph glyph-name="ygrave" unicode="&#x1ef3;" horiz-adv-x="1099" 
d="M12 1081h211l328 -825l328 825h208l-595 -1474h-205l159 397zM506 1249l-264 295h229l254 -295h-219z" />
    <glyph glyph-name="uni1EF4" unicode="&#x1ef4;" horiz-adv-x="1286" 
d="M545 588l-568 956h232l436 -741l436 741h228l-568 -956v-588h-196v588zM743 -416h-198v289h198v-289z" />
    <glyph glyph-name="uni1EF5" unicode="&#x1ef5;" horiz-adv-x="1099" 
d="M12 1081h211l328 -825l328 825h208l-595 -1474h-205l159 397zM698 -416v289h199v-289h-199z" />
    <glyph glyph-name="uni1EF6" unicode="&#x1ef6;" horiz-adv-x="1286" 
d="M545 588l-568 956h232l436 -741l436 741h228l-568 -956v-588h-196v588zM510 1964l-45 -16v139l18 8q72 21 121 21q94 -2 155.5 -46.5t61.5 -123.5q0 -46 -18 -75.5t-68 -70.5q-3 -3 -13.5 -9.5t-16.5 -12.5q-2 -2 -10.5 -7.5t-15.5 -12t-9 -11.5v-10l-2 -33h-138
q-9 35 -8.5 53.5t17.5 50.5q14 27 63 57.5t62 43.5q12 12 12 33q0 12 -26.5 24t-63.5 12q-50 -4 -76 -14z" />
    <glyph glyph-name="uni1EF7" unicode="&#x1ef7;" horiz-adv-x="1099" 
d="M446 4l-434 1077h211l328 -825l328 825h208l-595 -1474h-205zM371 1624l20 8q68 21 119 21q94 -2 156.5 -46.5t62.5 -123.5q0 -46 -18 -75.5t-68 -70.5q-17 -14 -31 -22q-1 0 -11 -7t-16.5 -13t-9.5 -11q3 -4 3 -10l-3 -33h-139q-1 9 -3.5 22t-3.5 18.5t-1.5 14t1.5 15
t5.5 15.5t9.5 20q16 28 68 61.5t57 38.5q15 12 15 33q0 12 -26.5 24.5t-63.5 12.5q-34 0 -78 -15l-45 -16v139z" />
    <glyph glyph-name="uni1EF8" unicode="&#x1ef8;" horiz-adv-x="1286" 
d="M-23 1544h232l436 -741l436 741h228l-568 -956v-588h-196v588zM391 1665h-155q57 153 110.5 209.5t151.5 56.5q85 0 192 -73q53 -36 76.5 -48t52.5 -12q36 0 56.5 23t48.5 82h157q-28 -64 -47.5 -101t-50.5 -76t-70.5 -57t-91.5 -18q-92 0 -184 63q-54 39 -82.5 54.5
t-54.5 15.5q-39 0 -59.5 -25.5t-49.5 -93.5z" />
    <glyph glyph-name="uni1EF9" unicode="&#x1ef9;" horiz-adv-x="1099" 
d="M446 4l-434 1077h211l328 -825l328 825h208l-595 -1474h-205zM150 1272q57 153 110.5 209.5t151.5 56.5q83 0 192 -74q52 -36 76 -47.5t53 -11.5q36 0 57 23t48 81h157q-28 -64 -47.5 -101t-50.5 -76t-70.5 -57t-91.5 -18q-90 0 -184 64q-54 39 -82.5 54.5t-54.5 15.5
q-39 0 -59.5 -25.5t-49.5 -93.5h-155z" />
    <glyph glyph-name="endash" unicode="&#x2013;" horiz-adv-x="1228" 
d="M1126 449h-1024v190h1024v-190z" />
    <glyph glyph-name="emdash" unicode="&#x2014;" horiz-adv-x="2048" 
d="M2048 449h-2048v190h2048v-190z" />
    <glyph glyph-name="quoteleft" unicode="&#x2018;" horiz-adv-x="555" 
d="M365 877h-203v249q0 197 100 418h152q-17 -77 -25.5 -124.5t-16 -129.5t-7.5 -178v-235z" />
    <glyph glyph-name="quoteright" unicode="&#x2019;" horiz-adv-x="555" 
d="M293 877h-152q17 80 25.5 126t16 128t7.5 178v235h203v-250q0 -196 -100 -417z" />
    <glyph glyph-name="quotesinglbase" unicode="&#x201a;" horiz-adv-x="555" 
d="M293 -367h-152q17 77 25.5 125t16 130t7.5 178v235h203v-250q0 -197 -100 -418z" />
    <glyph glyph-name="quotedblleft" unicode="&#x201c;" horiz-adv-x="921" 
d="M731 877h-203v249q0 195 101 418h151q-17 -77 -25.5 -124.5t-16 -129.5t-7.5 -178v-235zM162 877v249q0 197 100 418h152q-17 -77 -25.5 -124.5t-16 -129.5t-7.5 -178v-235h-203z" />
    <glyph glyph-name="quotedblright" unicode="&#x201d;" horiz-adv-x="921" 
d="M659 877h-151q17 80 25.5 126t16 128t7.5 178v235h203v-250q0 -194 -101 -417zM293 877h-152q17 80 25.5 126t16 128t7.5 178v235h203v-250q0 -196 -100 -417z" />
    <glyph glyph-name="quotedblbase" unicode="&#x201e;" horiz-adv-x="921" 
d="M659 -367h-151q17 77 25.5 125t16 130t7.5 178v235h203v-250q0 -195 -101 -418zM293 -367h-152q17 77 25.5 125t16 130t7.5 178v235h203v-250q0 -197 -100 -418z" />
    <glyph glyph-name="dagger" unicode="&#x2020;" horiz-adv-x="1222" 
d="M117 1094h401v448h187v-448h401v-179h-401v-1112h-187v1112h-401v179z" />
    <glyph glyph-name="daggerdbl" unicode="&#x2021;" horiz-adv-x="1222" 
d="M117 430h401v485h-401v179h401v448h187v-448h401v-179h-401v-485h401v-178h-401v-449h-187v449h-401v178z" />
    <glyph glyph-name="bullet" unicode="&#x2022;" horiz-adv-x="1007" 
d="M178 772q0 322 326 322q327 0 327 -324q0 -319 -327 -319q-326 0 -326 321z" />
    <glyph glyph-name="ellipsis" unicode="&#x2026;" horiz-adv-x="1787" 
d="M1393 0v311h235v-311h-235zM776 311h236v-311h-236v311zM160 0v311h235v-311h-235z" />
    <glyph glyph-name="perthousand" unicode="&#x2030;" horiz-adv-x="3082" 
d="M1358 426q0 132 16 211t60 135q41 52 112.5 80.5t161.5 28.5q86 0 149 -23.5t101.5 -63t61.5 -99.5t31.5 -123.5t8.5 -145.5q0 -78 -9.5 -141.5t-34 -122.5t-63 -98.5t-101 -63t-144.5 -23.5q-88 0 -151.5 22t-101.5 58t-60 96t-29.5 123t-7.5 150zM487 664
q-88 0 -151.5 21.5t-101.5 58t-60 96t-29.5 122.5t-7.5 150q0 132 16 211t60 135q41 52 112.5 80.5t161.5 28.5q86 0 149 -23.5t102 -63t62 -99.5t31.5 -123.5t8.5 -145.5q0 -99 -16 -175t-54.5 -140t-109.5 -98.5t-173 -34.5zM2593 -23q-88 0 -151.5 22t-101.5 58t-60 96
t-29.5 123t-7.5 150q0 132 15.5 211t59.5 135q41 52 113 80.5t162 28.5q86 0 149 -23.5t101.5 -63t61.5 -99.5t31.5 -123.5t8.5 -145.5q0 -78 -9.5 -141.5t-34 -122.5t-63 -98.5t-101 -63t-144.5 -23.5zM803 0h-203l803 1544h205zM2415 426q0 -99 8 -154.5t35 -87.5
q23 -27 53.5 -37t81.5 -10q36 0 64.5 9.5t47.5 23.5t32 38t20 46t10.5 55.5t4.5 57t1 59.5q0 94 -7.5 146.5t-31.5 86.5q-45 62 -141 62q-100 0 -139 -55q-24 -36 -31.5 -88t-7.5 -152zM1530 426q0 -99 8 -154.5t35 -87.5q23 -27 53.5 -37t81.5 -10q36 0 64.5 9.5t47.5 23.5
t32 38t20 46t10.5 55.5t4.5 57t1 59.5q0 94 -7.5 146.5t-31.5 86.5q-45 62 -141 62q-100 0 -139 -55q-24 -36 -31.5 -88t-7.5 -152zM348 1352q-24 -36 -31.5 -88t-7.5 -152q0 -99 8 -154.5t35 -87.5q23 -27 53.5 -37t81.5 -10q50 0 85.5 18t53.5 43t28 68.5t12 76t2 83.5
q0 95 -7.5 147.5t-31.5 86.5q-44 61 -142 61q-100 0 -139 -55z" />
    <glyph glyph-name="guilsinglleft" unicode="&#x2039;" horiz-adv-x="720" 
d="M692 119h-235l-353 422l353 422h235l-352 -422z" />
    <glyph glyph-name="guilsinglright" unicode="&#x203a;" horiz-adv-x="720" 
d="M264 119h-235l352 422l-352 422h235l352 -422z" />
    <glyph glyph-name="fraction" unicode="&#x2044;" horiz-adv-x="337" 
d="M-121 0h-203l803 1544h205z" />
    <glyph glyph-name="uni2070" unicode="&#x2070;" horiz-adv-x="952" 
d="M475 899q-89 0 -152.5 22t-101.5 58t-60 96t-29 122.5t-7 150.5q0 132 16 211t60 135q41 52 112.5 80t161.5 28q86 0 149 -23.5t101.5 -62.5t61.5 -99t31.5 -123.5t8.5 -145.5q0 -78 -9.5 -141.5t-34 -122.5t-63 -98.5t-101 -63t-144.5 -23.5zM297 1348q0 -99 8 -154.5
t35 -87.5q23 -27 53.5 -37t81.5 -10q36 0 64.5 9.5t47.5 23.5t32 38t20 46t10.5 55.5t4.5 57t1 59.5q0 94 -7.5 146.5t-31.5 86.5q-44 61 -141 61q-100 0 -139 -55q-24 -36 -31.5 -88t-7.5 -151z" />
    <glyph glyph-name="uni2071" unicode="&#x2071;" horiz-adv-x="483" 
d="M328 922h-172v641h172v-641zM332 1683h-180v240h180v-240z" />
    <glyph glyph-name="uni2074" unicode="&#x2074;" horiz-adv-x="868" 
d="M57 1083v158l402 539h211l-400 -539h279v162h170v-481h-170v161h-492z" />
    <glyph glyph-name="uni2075" unicode="&#x2075;" horiz-adv-x="868" 
d="M141 924v153q152 -26 248 -26q42 0 70.5 4t56.5 16t42.5 39t14.5 68q0 57 -41 82q-27 17 -77 22.5t-168 5.5h-135v492h561v-158h-394v-184h91q71 0 126.5 -11t105 -37.5t76.5 -78.5t27 -127q0 -83 -26 -140t-76 -88t-111 -44t-143 -13q-95 0 -248 25z" />
    <glyph glyph-name="uni2076" unicode="&#x2076;" horiz-adv-x="907" 
d="M459 899q-169 0 -251.5 79t-82.5 245t28.5 262.5t118.5 169.5q136 112 463 149v-153q-36 -4 -63 -8t-71 -13t-76.5 -19t-71.5 -27t-65.5 -36.5t-47 -48t-27.5 -61.5q110 4 193 4q291 0 291 -262q0 -142 -95 -211.5t-243 -69.5zM295 1212q0 -91 36.5 -129.5t127.5 -38.5
q168 0 168 136q0 72 -37.5 98.5t-114.5 26.5q-48 0 -176 -5q-4 -29 -4 -88z" />
    <glyph glyph-name="uni2077" unicode="&#x2077;" horiz-adv-x="761" 
d="M313 922h-200l401 700h-483v158h688v-152z" />
    <glyph glyph-name="uni2078" unicode="&#x2078;" horiz-adv-x="985" 
d="M498 899q-57 0 -104.5 5.5t-96 22t-81.5 43t-54 72t-21 105.5q0 68 36 116.5t102 92.5q-62 30 -85.5 81t-23.5 128q0 67 28 115.5t77 74t103.5 36.5t117.5 11t117 -11.5t102 -36.5t76 -73t28 -114q0 -60 -30 -109.5t-84 -103.5q70 -36 104.5 -83.5t34.5 -121.5
q0 -71 -30 -122.5t-82 -78t-109 -38t-125 -11.5zM309 1155q0 -115 189 -115q178 0 178 117q0 67 -78 94q-62 22 -188 45q-26 -19 -38 -29.5t-30 -29t-25.5 -38.5t-7.5 -44zM496 1661q-162 0 -162 -109q0 -45 13 -67t42 -37q40 -20 178 -45q88 88 88 149q0 109 -159 109z" />
    <glyph glyph-name="uni2079" unicode="&#x2079;" horiz-adv-x="907" 
d="M389 1233q-151 0 -213.5 63t-62.5 213q0 147 89 220t240 73q79 0 138.5 -20.5t97.5 -56t61.5 -89t33 -114t9.5 -136.5q0 -98 -5 -155t-23 -113q-35 -113 -129 -166t-222 -53q-89 0 -247 27v153q152 -28 233 -28q103 0 163 47t60 149q-124 -14 -223 -14zM442 1657
q-79 0 -119 -34.5t-40 -111.5q0 -80 29 -110.5t110 -30.5q99 0 190 14q0 39 -0.5 58.5t-3.5 54t-9 52.5t-18.5 42t-30.5 36t-45.5 21t-62.5 9z" />
    <glyph glyph-name="uni207D" unicode="&#x207d;" horiz-adv-x="563" 
d="M219 848q-53 63 -68.5 150.5t-15.5 215.5v273q0 128 15.5 215.5t68.5 150.5q99 121 301 164v-168q-35 -12 -63.5 -27t-49.5 -29.5t-37 -36t-26.5 -38t-17.5 -45.5t-11 -47.5t-5.5 -55.5t-2 -58t-0.5 -66v-191q0 -43 0.5 -66t2 -58.5t5.5 -55.5t11.5 -48t18 -45
t26.5 -38.5t37 -36t49 -29t63 -26.5v-168q-202 43 -301 164z" />
    <glyph glyph-name="uni207E" unicode="&#x207e;" horiz-adv-x="563" 
d="M43 1849v168q202 -43 301 -164q53 -63 68.5 -150.5t15.5 -215.5v-273q0 -128 -15.5 -215.5t-68.5 -150.5q-99 -121 -301 -164v168q35 12 63.5 27t49.5 29.5t37 36t26.5 38t17.5 45.5t11 47.5t5.5 55.5t2 58t0.5 66v191q0 45 -0.5 66t-2 58t-5.5 55.5t-11 47.5t-17.5 45.5
t-26.5 38t-37 36t-49.5 29.5t-63.5 27z" />
    <glyph glyph-name="uni207F" unicode="&#x207f;" horiz-adv-x="954" 
d="M152 922v641h172v-58q156 74 241 74q74 0 122 -19.5t73.5 -59.5t35 -89.5t9.5 -122.5v-366h-172v323q0 110 -23 141q-24 33 -86 33q-73 0 -200 -65v-432h-172z" />
    <glyph glyph-name="uni2080" unicode="&#x2080;" horiz-adv-x="952" 
d="M475 -289q-89 0 -152.5 22t-101.5 58t-60 96t-29 122.5t-7 150.5q0 132 16 211t60 135q41 52 112.5 80t161.5 28q86 0 149 -23.5t101.5 -62.5t61.5 -99t31.5 -123.5t8.5 -145.5q0 -78 -9.5 -141.5t-34 -122.5t-63 -98.5t-101 -63t-144.5 -23.5zM297 160q0 -99 8 -154.5
t35 -87.5q23 -27 53.5 -37t81.5 -10q36 0 64.5 9.5t47.5 23.5t32 38t20 46t10.5 55.5t4.5 57t1 59.5q0 94 -7.5 146.5t-31.5 86.5q-45 62 -141 62q-99 0 -139 -56q-24 -36 -31.5 -88t-7.5 -151z" />
    <glyph glyph-name="uni2081" unicode="&#x2081;" horiz-adv-x="616" 
d="M465 -266h-176v661l-238 -67v168l414 122v-884z" />
    <glyph glyph-name="uni2082" unicode="&#x2082;" horiz-adv-x="837" 
d="M84 -113q242 210 344 312q53 53 73.5 86t20.5 67q0 103 -135 103q-107 0 -283 -45v163q167 41 289 41q84 0 149 -22t108.5 -78t43.5 -141q0 -66 -21.5 -114.5t-74.5 -108.5q-98 -110 -270 -259h413v-157h-657v153z" />
    <glyph glyph-name="uni2083" unicode="&#x2083;" horiz-adv-x="880" 
d="M109 -104q187 -33 266 -33q31 0 52 1.5t49 7.5t45 17.5t29.5 34t12.5 53.5t-10.5 52.5t-26 33t-40.5 18t-46 8t-51 1.5h-190v150h290l27 34q39 51 39 95q0 32 -14 52.5t-41 28.5t-49 10.5t-56 2.5q-104 0 -280 -43v153q167 41 291 41q169 0 245 -61q34 -28 54 -70.5
t20 -85.5q0 -59 -25 -108.5t-71 -104.5q108 -77 108 -211q0 -75 -29 -128t-80.5 -81t-110 -40.5t-130.5 -12.5q-115 0 -278 31v154z" />
    <glyph glyph-name="uni2084" unicode="&#x2084;" horiz-adv-x="868" 
d="M57 -106v157l402 539h211l-400 -539h279v162h170v-481h-170v162h-492z" />
    <glyph glyph-name="uni2085" unicode="&#x2085;" horiz-adv-x="868" 
d="M141 -264v153q152 -26 248 -26q42 0 70.5 4t56.5 16t42.5 39t14.5 68q0 57 -41 82q-27 17 -77 22.5t-168 5.5h-135v492h561v-158h-394v-184h91q71 0 126.5 -11t105 -37.5t76.5 -78.5t27 -127q0 -83 -26 -140t-76 -88t-111 -44t-143 -13q-95 0 -248 25z" />
    <glyph glyph-name="uni2086" unicode="&#x2086;" horiz-adv-x="907" 
d="M459 -289q-169 0 -251.5 79t-82.5 245t28.5 262.5t118.5 169.5q136 112 463 149v-153q-36 -4 -63 -8t-71 -13t-76.5 -19t-71.5 -27t-65.5 -36.5t-47 -48t-27.5 -61.5q110 4 193 4q291 0 291 -262q0 -142 -95 -211.5t-243 -69.5zM295 25q0 -91 36.5 -129.5t127.5 -38.5
q168 0 168 135q0 72 -37.5 98.5t-114.5 26.5q-74 0 -176 -4q-4 -29 -4 -88z" />
    <glyph glyph-name="uni2087" unicode="&#x2087;" horiz-adv-x="761" 
d="M313 -266h-200l401 700h-483v158h688v-152z" />
    <glyph glyph-name="uni2088" unicode="&#x2088;" horiz-adv-x="985" 
d="M498 -289q-57 0 -104.5 5.5t-96 22t-81.5 43t-54 72t-21 105.5q0 68 36 116.5t102 92.5q-62 30 -85.5 81t-23.5 128q0 67 28 115.5t77 74t103.5 36.5t117.5 11t117 -11.5t102 -36.5t76 -73t28 -114q0 -60 -30 -109.5t-84 -103.5q70 -36 104.5 -83.5t34.5 -121.5
q0 -71 -30 -122.5t-82 -78t-109 -38t-125 -11.5zM309 -33q0 -114 189 -114q178 0 178 116q0 67 -78 94q-68 24 -188 46q-33 -25 -50 -40t-34 -43t-17 -59zM496 473q-162 0 -162 -108q0 -45 13.5 -67.5t41.5 -37.5q40 -20 178 -45q88 88 88 150q0 108 -159 108z" />
    <glyph glyph-name="uni2089" unicode="&#x2089;" horiz-adv-x="907" 
d="M389 45q-151 0 -213.5 63.5t-62.5 213.5q0 147 88.5 219.5t240.5 72.5q98 0 166 -30t105 -87.5t53 -129.5t16 -168q0 -98 -5 -155.5t-23 -113.5q-35 -113 -129 -166t-222 -53q-89 0 -247 27v153q152 -28 233 -28q103 0 163 47t60 149q-124 -14 -223 -14zM442 469
q-79 0 -119 -34t-40 -111q0 -81 29 -111.5t110 -30.5q92 0 190 15q0 34 -0.5 51t-2 47.5t-6.5 47.5t-12.5 40t-20 36t-30 26t-42.5 18.5t-56 5.5z" />
    <glyph glyph-name="uni208D" unicode="&#x208d;" horiz-adv-x="563" 
d="M219 -340q-53 63 -68.5 151t-15.5 216v272q0 128 15.5 216t68.5 151q98 120 301 163v-167q-35 -12 -63.5 -27t-49.5 -29.5t-37 -36.5t-26.5 -38t-17.5 -45t-11 -48t-5.5 -55.5t-2 -58t-0.5 -66.5v-190q0 -43 0.5 -66t2 -59t5.5 -55.5t11.5 -48t18 -45.5t26.5 -38.5
t37 -36t49 -29t63 -26.5v-168q-202 43 -301 164z" />
    <glyph glyph-name="uni208E" unicode="&#x208e;" horiz-adv-x="563" 
d="M43 662v167q203 -43 301 -163q53 -63 68.5 -151t15.5 -216v-272q0 -128 -15.5 -216t-68.5 -151q-99 -121 -301 -164v168q35 12 63.5 27t49.5 29.5t37 36.5t26.5 38t17.5 45t11 48t5.5 55.5t2 58t0.5 66.5v190q0 45 -0.5 66.5t-2 58t-5.5 55.5t-11 48t-17.5 45t-26.5 38
t-37 36.5t-49.5 29.5t-63.5 27z" />
    <glyph glyph-name="uni2093" unicode="&#x2093;" horiz-adv-x="856" 
d="M250 -266h-209l260 329l-252 312h215l160 -205l158 205h211l-246 -307l266 -334h-213l-176 225z" />
    <glyph glyph-name="Euro" unicode="&#x20ac;" horiz-adv-x="1429" 
d="M190 768q0 111 5.5 195t22 172t44.5 151.5t75.5 121.5t112.5 93.5t157.5 56.5t209.5 21q219 0 479 -57v-193q-293 62 -467 62q-226 0 -321 -83.5t-107 -299.5h656v-170h-666q-2 -23 -2 -58q0 -34 2 -61h666v-170h-658q5 -113 27 -185t71 -121t127 -69t197 -20
q169 0 475 39v-191q-312 -37 -491 -37q-228 0 -353.5 68.5t-187.5 204.5q-74 164 -74 530z" />
    <glyph glyph-name="uni20BA" unicode="&#x20ba;" horiz-adv-x="1261" 
d="M215 -27v1571h197v-395l516 162v-178l-516 -162v-121l516 162v-178l-516 -162v-518q133 0 224 22.5t155 76.5t95.5 142t39.5 221h200q-12 -279 -133 -436q-87 -111 -220 -163t-363 -52q-125 0 -195 8z" />
    <glyph glyph-name="uni20BD" unicode="&#x20bd;" horiz-adv-x="1431" 
d="M215 0v1544h608q233 0 360.5 -114t127.5 -345q0 -232 -109.5 -350t-339.5 -133q-90 -6 -450 -6v-121h663v-170h-663v-305h-197zM807 1356h-395v-572q315 0 432 9q149 12 207.5 77t58.5 215q0 153 -74 212t-229 59z" />
    <glyph glyph-name="uni2103" unicode="&#x2103;" horiz-adv-x="2244" 
d="M1051 758q0 103 6 186.5t23.5 170.5t46 154t75.5 127t110.5 99t152.5 61.5t200 22.5q190 0 477 -80v-196q-177 46 -250 59q-139 27 -213 27q-143 0 -227 -42.5t-133 -140.5q-68 -136 -68 -446q0 -283 62 -416q46 -99 132.5 -143.5t233.5 -44.5q149 0 463 69v-194
q-304 -66 -483 -66q-108 0 -195.5 21.5t-150 59t-109.5 95.5t-76 122.5t-46.5 148t-24 165.5t-6.5 181zM106 1212q0 169 101.5 268t273.5 99q171 0 272 -99.5t101 -267.5q0 -166 -101 -262t-272 -96q-173 0 -274 96t-101 262zM481 1419q-97 0 -152 -54t-55 -148t55.5 -148.5
t151.5 -54.5q93 0 149 54.5t56 148.5q0 93 -56 147.5t-149 54.5z" />
    <glyph glyph-name="uni2109" unicode="&#x2109;" horiz-adv-x="2197" 
d="M1100 1544h1040v-190h-844v-492h772v-190h-772v-670h-196v1542zM481 854q-173 0 -274 96t-101 262q0 169 101.5 268t273.5 99q171 0 272 -99.5t101 -267.5q0 -166 -101 -262t-272 -96zM274 1217q0 -94 55.5 -148.5t151.5 -54.5q93 0 149 54.5t56 148.5q0 93 -56 147.5
t-149 54.5q-97 0 -152 -54t-55 -148z" />
    <glyph glyph-name="uni2113" unicode="&#x2113;" horiz-adv-x="931" 
d="M156 1075q0 74 1 112.5t7 101.5t18.5 96.5t36.5 76.5t59 64.5t88.5 37t122.5 15.5q170 0 245 -91.5t75 -266.5q0 -153 -106 -334.5t-355 -468.5v-45q0 -94 5.5 -129.5t31.5 -61.5q35 -35 135 -35q123 0 309 66v-190q-172 -58 -311 -58q-76 0 -132 10t-95 24.5t-64.5 47.5
t-39.5 61.5t-21 85t-8.5 99.5t-1.5 123v659zM377 1341q-19 -35 -24 -87t-5 -156v-416q57 73 84.5 110t69.5 100t61.5 106.5t35 100t15.5 109.5q0 42 -3.5 70.5t-15.5 60t-39 48t-69 16.5t-67.5 -14.5t-42.5 -47.5z" />
    <glyph glyph-name="uni2116" unicode="&#x2116;" horiz-adv-x="2414" 
d="M379 0h-195v1544h244l741 -1259v1259h195v-1544h-244l-741 1260v-1260zM1950 727q-206 0 -298.5 106.5t-92.5 315.5q0 430 391 430t391 -428q0 -201 -96 -312.5t-295 -111.5zM1950 1415q-66 0 -109.5 -18.5t-66.5 -55.5t-32 -81.5t-9 -108.5q0 -130 46.5 -195t170.5 -65
q120 0 168.5 69t48.5 195q0 127 -48.5 193.5t-168.5 66.5z" />
    <glyph glyph-name="trademark" unicode="&#x2122;" horiz-adv-x="2170" 
d="M1204 666h-153v878h213l256 -524l262 524h205v-878h-154v673l-246 -499h-139l-244 503v-677zM90 1397v147h809v-147h-324v-731h-159v731h-326z" />
    <glyph glyph-name="uni2126" unicode="&#x2126;" horiz-adv-x="1624" 
d="M713 0h-619v182h332q-80 58 -134.5 136.5t-82.5 170t-39.5 180.5t-11.5 195q0 111 24 235t76 214q74 130 207 198t348 68q191 0 312.5 -54t205.5 -169q69 -96 102 -232t33 -260q0 -225 -58.5 -387.5t-209.5 -294.5h332v-182h-619v180q204 127 279.5 279t75.5 405
q0 92 -20.5 191.5t-67.5 171.5q-56 87 -146.5 124.5t-218.5 37.5q-135 0 -231.5 -39.5t-151.5 -137.5q-37 -68 -54.5 -165.5t-17.5 -182.5q0 -132 15 -225t54.5 -176.5t108 -150.5t177.5 -132v-180z" />
    <glyph glyph-name="estimated" unicode="&#x212e;" horiz-adv-x="1576" 
d="M291 143q-189 180 -189 453q0 269 193 453q95 90 212 132t281 42q311 0 493 -168t194 -477h-1092q-9 0 -14 -1t-10 -9t-5 -23v-305q0 -25 32 -61.5t86.5 -73t139 -62t176.5 -25.5q125 0 241 55.5t194 143.5h129q-118 -135 -249.5 -191.5t-314.5 -56.5q-164 0 -283 41.5
t-214 132.5zM354 633q0 -17 31 -17h805q19 0 25 6.5t6 24.5v299q0 49 -66.5 104t-169 92.5t-197.5 37.5q-86 0 -170.5 -26.5t-140 -62.5t-89.5 -72t-34 -58v-328z" />
    <glyph glyph-name="onethird" unicode="&#x2153;" horiz-adv-x="1835" 
d="M1063 8v154q187 -33 266 -33q30 0 51.5 1.5t49.5 8t45.5 18t30 34t12.5 53.5q0 38 -14.5 62t-43 34t-53.5 13t-64 3h-190v150h291l26 35q22 28 30.5 48t8.5 46q0 32 -14 52.5t-40.5 28.5t-48.5 10.5t-56 2.5q-105 0 -281 -43v154q167 41 291 41q169 0 246 -62
q34 -28 53.5 -70t19.5 -85q0 -59 -25 -108.5t-71 -104.5q109 -78 109 -211q0 -75 -29 -128t-80.5 -81.5t-110.5 -41t-131 -12.5q-115 0 -278 31zM496 0h-203l803 1544h204zM51 1448l414 123v-885h-176v662l-238 -68v168z" />
    <glyph glyph-name="twothirds" unicode="&#x2154;" horiz-adv-x="2058" 
d="M1286 162q187 -33 266 -33q30 0 51.5 1.5t49.5 8t45.5 18t30 34t12.5 53.5t-10.5 52.5t-26 33t-41 17.5t-45.5 7.5t-51 1.5h-191v150h291l27 35q22 28 30.5 48t8.5 46q0 32 -14 52.5t-41 28.5t-49 10.5t-56 2.5q-105 0 -281 -43v154q167 41 291 41q169 0 246 -62
q34 -28 54 -70t20 -85q0 -59 -25 -108t-72 -105q109 -78 109 -211q0 -75 -29 -128t-80 -81.5t-110 -41t-131 -12.5q-116 0 -279 31v154zM717 0h-203l803 1544h205zM741 686h-657v154q250 217 344 311q53 53 73.5 86.5t20.5 67.5q0 58 -36.5 80t-98.5 22q-107 0 -283 -45v164
q167 41 289 41q62 0 114 -13t95 -40.5t67.5 -76t24.5 -112.5q0 -66 -21.5 -114.5t-74.5 -108.5q-94 -106 -270 -258h413v-158z" />
    <glyph glyph-name="oneeighth" unicode="&#x215b;" horiz-adv-x="1939" 
d="M1452 -23q-57 0 -104.5 5.5t-95.5 22t-81 43t-54 72t-21 105.5q0 68 36 116.5t101 92.5q-62 30 -85.5 81t-23.5 128q0 54 19 96.5t50.5 68.5t75 43t87.5 23.5t94 6.5q63 0 117 -11.5t102.5 -37t76.5 -73.5t28 -114q0 -60 -30.5 -109.5t-84.5 -103.5q70 -36 104.5 -83.5
t34.5 -121.5q0 -71 -30 -122.5t-82 -78t-109 -38t-125 -11.5zM293 0l803 1544h204l-804 -1544h-203zM289 1348l-238 -68v168l414 123v-885h-176v662zM1364 375q-33 -25 -49.5 -40t-33.5 -43t-17 -59q0 -36 17 -60.5t47.5 -35t58.5 -14.5t65 -4q178 0 178 117q0 67 -78 94
q-62 22 -188 45zM1450 739q-162 0 -162 -108q0 -45 13.5 -67.5t41.5 -37.5q40 -19 179 -45q88 88 88 150q0 108 -160 108z" />
    <glyph glyph-name="threeeighths" unicode="&#x215c;" horiz-adv-x="2205" 
d="M1718 -23q-57 0 -104.5 5.5t-95.5 22t-81 43t-54 72t-21 105.5q0 68 36 116.5t101 92.5q-62 30 -85 80.5t-23 128.5q0 54 19 96.5t50 68.5t74.5 43t87.5 23.5t94 6.5q63 0 117 -11.5t102.5 -37t76.5 -73.5t28 -114q0 -60 -30.5 -109.5t-84.5 -103.5q70 -36 104.5 -83.5
t34.5 -121.5q0 -71 -30 -122.5t-82 -78t-109 -38t-125 -11.5zM387 664q-121 0 -278 30v154q187 -33 266 -33q39 0 65.5 3t58 13.5t48 35t16.5 63.5q0 31 -10.5 52.5t-26 33t-41 17.5t-45.5 7.5t-51 1.5h-190v150h290l27 35q22 28 30.5 48t8.5 46q0 32 -14 52.5t-41 28.5
t-49 10.5t-56 2.5q-104 0 -280 -43v154q167 41 291 41q168 0 245 -62q34 -28 54 -70t20 -85q0 -59 -25 -108.5t-71 -104.5q108 -77 108 -211q0 -75 -29 -128t-80.5 -81t-110 -40.5t-130.5 -12.5zM760 0h-203l803 1544h205zM1530 233q0 -36 17 -60.5t47.5 -35t58.5 -14.5
t65 -4q178 0 178 117q0 67 -77 94q-61 22 -189 45q-33 -25 -49.5 -40t-33.5 -43t-17 -59zM1716 739q-162 0 -162 -108q0 -44 13.5 -67t42.5 -38q40 -20 178 -45q88 88 88 150q0 108 -160 108z" />
    <glyph glyph-name="fiveeighths" unicode="&#x215d;" horiz-adv-x="2193" 
d="M1706 -23q-57 0 -104.5 5.5t-95.5 22t-81 43t-54 72t-21 105.5q0 68 36 116.5t101 92.5q-62 30 -85.5 81t-23.5 128q0 54 19 96.5t50.5 68.5t75 43t87.5 23.5t94 6.5q63 0 117 -11.5t102.5 -37t76.5 -73.5t28 -114q0 -60 -30.5 -109.5t-84.5 -103.5q70 -36 104.5 -83.5
t34.5 -121.5q0 -71 -30 -122.5t-82 -78t-109 -38t-125 -11.5zM389 664q-102 0 -248 24v154q158 -27 248 -27q42 0 70.5 4t56.5 16t42.5 39t14.5 68q0 57 -41 82q-28 17 -78.5 23t-166.5 6h-135v491h561v-158h-394v-184h91q71 0 126.5 -11t105 -37.5t76.5 -78.5t27 -127
q0 -83 -26 -140t-76 -87.5t-111 -43.5t-143 -13zM545 0l803 1544h204l-804 -1544h-203zM1618 375q-33 -25 -49.5 -40t-33.5 -43t-17 -59q0 -36 17 -60.5t47.5 -35t58.5 -14.5t65 -4q178 0 178 117q0 67 -78 94q-62 22 -188 45zM1704 739q-162 0 -162 -108q0 -45 13.5 -67.5
t41.5 -37.5q40 -19 179 -45q88 88 88 150q0 108 -160 108z" />
    <glyph glyph-name="seveneighths" unicode="&#x215e;" horiz-adv-x="2086" 
d="M1241 225q0 68 36 116.5t101 92.5q-62 30 -85 80.5t-23 128.5q0 54 19 96.5t50 68.5t74.5 43t87.5 23.5t94 6.5q63 0 117 -11.5t102.5 -37t76.5 -73.5t28 -114q0 -60 -30.5 -109.5t-84.5 -103.5q70 -36 105 -83.5t35 -121.5q0 -58 -20.5 -102.5t-53.5 -72t-79.5 -45
t-93.5 -24t-100 -6.5q-57 0 -104.5 5.5t-95.5 22t-81 43t-54 72t-21 105.5zM641 0h-203l803 1544h205zM31 1544h688v-151l-406 -707h-200l401 700h-483v158zM1509 375q-33 -25 -49.5 -40t-33.5 -43t-17 -59q0 -36 17 -60.5t47.5 -35t58.5 -14.5t65 -4q179 0 179 117
q0 67 -78 94q-61 22 -189 45zM1434 631q0 -45 13.5 -67.5t41.5 -37.5q40 -20 178 -45q88 88 88 150q0 108 -160 108q-45 0 -77 -6.5t-58 -32t-26 -69.5z" />
    <glyph glyph-name="uni215F" unicode="&#x215f;" horiz-adv-x="954" 
d="M496 0h-203l803 1544h204zM465 686h-176v662l-238 -68v168l414 123v-885z" />
    <glyph glyph-name="arrowleft" unicode="&#x2190;" horiz-adv-x="1787" 
d="M664 285l-588 487l588 488h284l-479 -396h1186v-184h-1186l479 -395h-284z" />
    <glyph glyph-name="arrowup" unicode="&#x2191;" horiz-adv-x="1228" 
d="M707 0h-185v1186l-395 -479v284l487 588l488 -588v-284l-395 479v-1186z" />
    <glyph glyph-name="arrowright" unicode="&#x2192;" horiz-adv-x="1787" 
d="M1122 285h-284l479 395h-1186v184h1186l-479 396h284l588 -488z" />
    <glyph glyph-name="arrowdown" unicode="&#x2193;" horiz-adv-x="1228" 
d="M614 -35l-487 588v285l395 -480v1186h185v-1186l395 480v-285z" />
    <glyph glyph-name="arrowboth" unicode="&#x2194;" horiz-adv-x="2215" 
d="M664 285l-588 487l588 488h284l-479 -396h1278l-479 396h284l588 -488l-588 -487h-284l479 395h-1278l479 -395h-284z" />
    <glyph glyph-name="arrowupdn" unicode="&#x2195;" horiz-adv-x="1228" 
d="M127 1217l487 587l488 -587v-285l-395 479v-1278l395 479v-284l-488 -588l-487 588v284l395 -479v1278l-395 -479v285z" />
    <glyph glyph-name="uni2196" unicode="&#x2196;" horiz-adv-x="1378" 
d="M1229 150l-889 888l51 -516h-182l-78 856l858 -78v-182l-518 51l760 -757z" />
    <glyph glyph-name="uni2197" unicode="&#x2197;" horiz-adv-x="1378" 
d="M147 150l-2 262l760 757l-518 -51v182l858 78l-78 -856h-182l51 516z" />
    <glyph glyph-name="uni2198" unicode="&#x2198;" horiz-adv-x="1378" 
d="M1214 217l-858 78v182l518 -51l-759 758l2 262l889 -889l-52 516h183z" />
    <glyph glyph-name="uni2199" unicode="&#x2199;" horiz-adv-x="1378" 
d="M1020 295l-858 -78l78 856h182l-51 -516l889 889l2 -262l-760 -758l518 51v-182z" />
    <glyph glyph-name="partialdiff" unicode="&#x2202;" horiz-adv-x="1220" 
d="M115 500q0 95 13.5 171.5t46 143t83 111t127.5 69.5t178 25q108 0 283 -59q-25 114 -65 191.5t-103.5 129.5t-142 81.5t-195.5 51.5v172q160 -27 286 -75t228 -146q72 -69 122 -174t74 -226.5t34 -230t10 -225.5q0 -545 -490 -545q-133 0 -228 36t-152 106.5t-83 167
t-26 225.5zM309 502q0 -157 51 -248q35 -63 93.5 -87t150.5 -24q88 0 147.5 26.5t91 79t44 115t12.5 148.5q0 153 -20 262q-59 24 -143 46t-152 22q-84 0 -140 -24t-84.5 -72t-39.5 -105t-11 -139z" />
    <glyph glyph-name="uni2206" unicode="&#x2206;" horiz-adv-x="1572" 
d="M1538 0h-1503l639 1544h221zM1243 190l-459 1110l-456 -1110h915z" />
    <glyph glyph-name="product" unicode="&#x220f;" horiz-adv-x="1443" 
d="M184 1544h1076v-1810h-197v1620h-682v-1620h-197v1810z" />
    <glyph glyph-name="summation" unicode="&#x2211;" horiz-adv-x="1259" 
d="M1167 -266h-1065v190l557 723l-542 711v186h1030v-190h-778l542 -707l-557 -723h813v-190z" />
    <glyph glyph-name="minus" unicode="&#x2212;" horiz-adv-x="1433" 
d="M1278 678h-1122v188h1122v-188z" />
    <glyph glyph-name="radical" unicode="&#x221a;" horiz-adv-x="1433" 
d="M752 0h-240l-268 678h-193v184h330l252 -641l622 1518h211z" />
    <glyph glyph-name="infinity" unicode="&#x221e;" horiz-adv-x="2011" 
d="M528 369q-198 0 -295.5 96t-97.5 276q0 176 100 273.5t287 97.5q131 0 244 -62.5t244 -185.5q70 63 117.5 101.5t108.5 75.5t122 54t129 17q188 0 288.5 -100.5t100.5 -270.5t-102.5 -271t-278.5 -101q-133 0 -248 59.5t-243 187.5q-133 -126 -240.5 -186.5t-235.5 -60.5
zM313 741q0 -98 54.5 -149t160.5 -51q83 0 156.5 43.5t198.5 154.5q-135 122 -205.5 161.5t-155.5 39.5q-99 0 -154 -54.5t-55 -144.5zM1130 739q128 -117 200.5 -157.5t164.5 -40.5q95 0 149 56.5t54 143.5q0 93 -55.5 146t-155.5 53q-85 0 -160.5 -44.5t-196.5 -156.5z
" />
    <glyph glyph-name="integral" unicode="&#x222b;" horiz-adv-x="1228" 
d="M111 -395v184q157 -35 233 -35q69 0 108.5 25.5t53.5 97.5q12 63 12 303v1002q0 120 24 200t71.5 122t105.5 58.5t139 16.5q116 0 260 -35v-182q-153 35 -246 35q-83 0 -119 -44t-40 -173q-2 -53 -2 -424v-549q0 -234 -4 -316q-4 -88 -31.5 -152t-73.5 -99.5t-101 -51.5
t-122 -16q-122 0 -268 33z" />
    <glyph glyph-name="approxequal" unicode="&#x2248;" horiz-adv-x="1433" 
d="M436 973q-48 0 -91.5 -13t-81 -39.5t-57 -43.5t-50.5 -48v211q57 55 121 87t159 32q80 0 142.5 -15t179.5 -69q99 -45 137 -57t96 -12q48 0 92.5 13t82.5 38.5t60 44t52 47.5v-209q-121 -121 -287 -121q-73 0 -125 16t-186 74q-93 40 -138 52t-106 12zM156 604
q57 55 121 87t159 32q80 0 142.5 -15t179.5 -69q74 -34 100 -44.5t59 -18t74 -7.5q48 0 92 13t82.5 39t60 44t52.5 48v-209q-121 -121 -287 -121q-73 0 -125 16t-186 74q-93 40 -138 52t-106 12q-48 0 -91.5 -13t-81 -39.5t-57 -43.5t-50.5 -48v211z" />
    <glyph glyph-name="notequal" unicode="&#x2260;" horiz-adv-x="1433" 
d="M156 1081h649l196 314h193l-195 -314h279v-186h-391l-160 -248h551v-186h-664l-194 -311h-193l195 311h-266v186h376l160 248h-536v186z" />
    <glyph glyph-name="lessequal" unicode="&#x2264;" horiz-adv-x="1433" 
d="M156 881l1122 458v-198l-860 -350l860 -355v-198l-1122 462v181zM1278 0h-1122v184h1122v-184z" />
    <glyph glyph-name="greaterequal" unicode="&#x2265;" horiz-adv-x="1433" 
d="M1278 700l-1122 -462v198l860 355l-860 350v198l1122 -458v-181zM1278 0h-1122v184h1122v-184z" />
    <glyph glyph-name="lozenge" unicode="&#x25ca;" horiz-adv-x="1433" 
d="M717 -35l-606 809l606 813l606 -813zM717 281l364 493l-364 498l-365 -498z" />
    <glyph glyph-name="fi" unicode="&#xfb01;" horiz-adv-x="1177" 
d="M348 0h-192v1065q0 145 16 219q23 102 102 164q62 48 151 78.5t218 60.5v-188q-56 -13 -92 -23.5t-81.5 -31.5t-72.5 -48q-38 -38 -45 -104q-4 -33 -4 -125h297v-182h-297v-885zM1022 0h-193v1081h193v-1081zM827 1544h197v-289h-197v289z" />
    <glyph glyph-name="fl" unicode="&#xfb02;" horiz-adv-x="1177" 
d="M156 0v1065q0 145 16 219q23 102 102 164q62 48 151 78.5t218 60.5v-188q-56 -13 -92 -23.5t-81.5 -31.5t-72.5 -48q-38 -38 -45 -104q-4 -33 -4 -125h297v-182h-297v-885h-192zM829 1544h193v-1544h-193v1544z" />
    <glyph glyph-name="zero.tf" horiz-adv-x="1331" 
d="M664 -35q-80 0 -146.5 16t-115 40t-86.5 68t-62.5 83.5t-42 104t-26 112t-13 125.5t-5.5 126.5t-1 131.5q0 100 2 165t12.5 158.5t29.5 154t56 129t89 108t131 66t180 26.5q77 0 141 -16t112 -42t86 -68t63 -85.5t43.5 -103.5t28.5 -113t16 -123t7.5 -124t1.5 -126
q0 -74 -1.5 -127t-7 -125.5t-15 -125t-28 -114.5t-43.5 -105.5t-63 -87t-86.5 -69.5t-113.5 -42.5t-143 -16.5zM365 768q0 -210 14 -330.5t61 -187.5q37 -53 90.5 -74.5t133.5 -21.5q163 0 231 120q42 72 57 190.5t15 313.5q0 191 -17 313.5t-61 190.5q-69 109 -227 109
q-159 0 -228 -115q-41 -70 -55 -189t-14 -319z" />
    <glyph glyph-name="one.tf" horiz-adv-x="1331" 
d="M670 1327l-457 -143v196l653 207v-1399h291v-188h-838v188h351v1139z" />
    <glyph glyph-name="two.tf" horiz-adv-x="1331" 
d="M137 190q504 544 621 687q76 94 109.5 156t33.5 138q0 55 -16 95t-41.5 64t-65.5 38t-80.5 18.5t-93.5 4.5q-133 0 -416 -74v194q261 68 428 68q145 0 231.5 -28t153.5 -95q101 -101 101 -272q0 -125 -50.5 -226.5t-160.5 -230.5q-276 -321 -494 -539h762v-188h-1022v190
z" />
    <glyph glyph-name="three.tf" horiz-adv-x="1331" 
d="M164 201q277 -47 414 -47q60 0 109 7t95.5 26t78 48.5t50.5 78t19 112.5q0 85 -32 140.5t-99 92.5q-26 15 -62 22t-63.5 8t-83.5 1h-271v187h433l73 100q90 124 90 213q0 51 -18 89t-45 59t-69 33.5t-80.5 16t-88.5 3.5q-139 0 -438 -68v193q263 63 440 63
q147 0 239.5 -27t156.5 -90q100 -97 100 -262q0 -63 -23 -123t-69 -135q-15 -23 -33 -49.5t-36.5 -51.5t-24.5 -34q202 -119 202 -379q0 -123 -41.5 -214t-117.5 -144.5t-172.5 -79t-216.5 -25.5q-157 0 -416 45v191z" />
    <glyph glyph-name="four.tf" horiz-adv-x="1331" 
d="M90 326v188l717 1032h242l-717 -1032h571v338h195v-852h-195v326h-813z" />
    <glyph glyph-name="five.tf" horiz-adv-x="1331" 
d="M195 6v193q245 -45 387 -45q173 0 260.5 70.5t87.5 236.5q0 144 -86 211q-47 36 -133.5 50.5t-247.5 14.5h-246v807h866v-188h-671v-430h161q555 0 555 -463q0 -253 -139.5 -375.5t-398.5 -122.5q-142 0 -395 41z" />
    <glyph glyph-name="six.tf" horiz-adv-x="1331" 
d="M680 -35q-113 0 -199.5 28t-143.5 78.5t-93 125.5t-51 162t-15 196q0 121 9.5 219.5t33.5 201t72.5 188.5t120.5 151q217 194 663 256v-191q-68 -11 -123.5 -23t-121.5 -32t-118 -43.5t-105 -58.5t-90.5 -77.5t-66 -100t-40.5 -125.5q147 6 241 6q154 0 249.5 -31
t158.5 -98q113 -122 113 -332q0 -240 -126.5 -370t-367.5 -130zM385 735q-8 -68 -8 -194q0 -73 6.5 -127t26 -106t52.5 -85t88 -53t130 -20q295 0 295 315q0 69 -16 118.5t-43 79.5t-72 47.5t-94 24t-117 6.5q-95 0 -248 -6z" />
    <glyph glyph-name="seven.tf" horiz-adv-x="1331" 
d="M467 0h-229l733 1356h-869v188h1098v-186z" />
    <glyph glyph-name="eight.tf" horiz-adv-x="1331" 
d="M666 -35q-120 0 -212 22.5t-165 72t-111.5 137.5t-38.5 211q0 125 57.5 216t168.5 175q-106 52 -147.5 140.5t-41.5 219.5q0 110 37 192t105 131t154.5 73t193.5 24q103 0 189.5 -25t154 -74.5t105.5 -131t38 -187.5q0 -60 -13.5 -111t-43.5 -97.5t-59.5 -81t-78.5 -83.5
q119 -63 176.5 -153.5t57.5 -224.5q0 -115 -41.5 -202t-114.5 -139t-166 -78t-204 -26zM338 412q0 -80 22.5 -133.5t68.5 -81.5t101.5 -39t135.5 -11q70 0 126.5 14t103 44t72 83t25.5 126q0 148 -121 215q-51 28 -122.5 47t-217.5 47q-50 -39 -78 -65t-58.5 -64.5
t-44 -82.5t-13.5 -99zM375 1153q0 -79 18.5 -127.5t63.5 -75.5q43 -25 122 -47t216 -51q41 43 62 68.5t47.5 65.5t38 81t11.5 88q0 242 -288 242q-139 0 -215 -56t-76 -188z" />
    <glyph glyph-name="nine.tf" horiz-adv-x="1331" 
d="M610 596q-233 0 -342.5 115.5t-109.5 349.5q0 248 117.5 383t363.5 135q98 0 176 -24t131 -63t92 -100t60.5 -123.5t34.5 -147t16.5 -155.5t3.5 -163q0 -78 -2.5 -140t-10 -134.5t-20.5 -129.5t-35.5 -117.5t-53.5 -105.5t-76 -86.5t-101 -67.5t-130.5 -41.5
t-162.5 -15.5q-127 0 -352 43v193q230 -47 346 -47q152 0 240 59q84 58 121.5 170t37.5 235q-198 -22 -344 -22zM643 1395q-157 0 -222 -86t-65 -248q0 -157 62 -219t221 -62q110 0 315 25q0 179 -14.5 291t-60.5 184q-70 115 -236 115z" />
    <glyph glyph-name="zero.numr" horiz-adv-x="952" 
d="M475 664q-89 0 -152.5 21.5t-101.5 58t-60 96t-29 122t-7 150.5q0 132 16 211t60 135q41 52 112.5 80.5t161.5 28.5q86 0 149 -23.5t101.5 -63t61.5 -99.5t31.5 -123.5t8.5 -145.5q0 -99 -16 -175t-54 -140t-109 -98.5t-173 -34.5zM297 1112q0 -99 8 -154.5t35 -87.5
q23 -27 53.5 -37t81.5 -10q36 0 64.5 9.5t47.5 23.5t32 38t20 46t10.5 55.5t4.5 57t1 59.5q0 95 -7.5 147.5t-31.5 86.5q-44 61 -141 61q-100 0 -139 -55q-24 -36 -31.5 -88t-7.5 -152z" />
    <glyph glyph-name="one.numr" horiz-adv-x="616" 
d="M465 686h-176v662l-238 -68v168l414 123v-885z" />
    <glyph glyph-name="two.numr" horiz-adv-x="837" 
d="M84 840q250 217 344 311q53 53 73.5 86.5t20.5 67.5q0 58 -36.5 80t-98.5 22q-107 0 -283 -45v164q167 41 289 41q62 0 114 -13t95 -40.5t67.5 -76t24.5 -112.5q0 -66 -21.5 -114.5t-74.5 -108.5q-94 -106 -270 -258h413v-158h-657v154z" />
    <glyph glyph-name="three.numr" horiz-adv-x="880" 
d="M109 848q187 -33 266 -33q39 0 65.5 3t58 13.5t48 35t16.5 63.5q0 31 -10.5 52.5t-26 33t-41 17.5t-45.5 7.5t-51 1.5h-190v150h290l27 35q22 28 30.5 48t8.5 46q0 32 -14 52.5t-41 28.5t-49 10.5t-56 2.5q-104 0 -280 -43v154q167 41 291 41q168 0 245 -62
q34 -28 54 -70t20 -85q0 -59 -25 -108.5t-71 -104.5q108 -77 108 -211q0 -75 -29 -128t-80.5 -81t-110 -40.5t-130.5 -12.5q-121 0 -278 30v154z" />
    <glyph glyph-name="four.numr" horiz-adv-x="868" 
d="M57 848v158l402 538h211l-400 -538h279v161h170v-481h-170v162h-492z" />
    <glyph glyph-name="five.numr" horiz-adv-x="868" 
d="M141 688v154q158 -27 248 -27q42 0 70.5 4t56.5 16t42.5 39t14.5 68q0 57 -41 82q-28 17 -78.5 23t-166.5 6h-135v491h561v-158h-394v-184h91q71 0 126.5 -11t105 -37.5t76.5 -78.5t27 -127q0 -83 -26 -140t-76 -87.5t-111 -43.5t-143 -13q-102 0 -248 24z" />
    <glyph glyph-name="six.numr" horiz-adv-x="907" 
d="M459 664q-169 0 -251.5 78.5t-82.5 244.5t28.5 262.5t118.5 169.5q138 114 463 150v-154q-36 -4 -63 -8t-71 -13t-76.5 -19t-71.5 -27t-65.5 -36.5t-47 -48t-27.5 -61.5q110 4 193 4q291 0 291 -262q0 -142 -95 -211t-243 -69zM295 977q0 -91 36.5 -129.5t127.5 -38.5
q168 0 168 135q0 72 -37.5 98.5t-114.5 26.5q-74 0 -176 -4q-4 -29 -4 -88z" />
    <glyph glyph-name="seven.numr" horiz-adv-x="761" 
d="M313 686h-200l401 700h-483v158h688v-151z" />
    <glyph glyph-name="eight.numr" horiz-adv-x="985" 
d="M498 664q-57 0 -104.5 5.5t-96 21.5t-81.5 42.5t-54 72t-21 105.5q0 68 36 116.5t102 92.5q-62 30 -85.5 81t-23.5 128q0 54 19 96.5t50.5 68.5t75 43t87.5 23.5t94 6.5q63 0 117 -11.5t102 -37t76 -73.5t28 -114q0 -60 -30 -109.5t-84 -103.5q70 -36 104.5 -83.5
t34.5 -121.5q0 -71 -30 -122t-82 -77.5t-109 -38t-125 -11.5zM309 920q0 -115 189 -115q178 0 178 117q0 67 -78 94q-62 22 -188 45q-26 -19 -38 -29.5t-30 -29t-25.5 -38.5t-7.5 -44zM496 1425q-162 0 -162 -108q0 -45 13.5 -67.5t41.5 -37.5q40 -20 178 -45q88 88 88 150
q0 108 -159 108z" />
    <glyph glyph-name="nine.numr" horiz-adv-x="907" 
d="M389 997q-151 0 -213.5 63.5t-62.5 213.5q0 147 89 220t240 73q79 0 138.5 -20.5t97.5 -56t61.5 -89t33 -114t9.5 -136.5q0 -98 -5 -155t-23 -113q-35 -113 -129 -166t-222 -53q-95 0 -247 26v154q157 -29 233 -29q103 0 163 47.5t60 149.5q-133 -15 -223 -15zM442 1421
q-79 0 -119 -34t-40 -111q0 -80 29 -110.5t110 -30.5q99 0 190 14q0 34 -0.5 51t-2 47.5t-6.5 47.5t-12.5 40t-20 36t-30 26t-42.5 18.5t-56 5.5z" />
    <glyph glyph-name="zero.dnom" horiz-adv-x="952" 
d="M475 -23q-89 0 -152.5 22t-101.5 58t-60 96t-29 122.5t-7 150.5q0 132 16 211t60 135q41 52 112.5 80.5t161.5 28.5q86 0 149 -23.5t101.5 -63t61.5 -99.5t31.5 -123.5t8.5 -145.5q0 -78 -9.5 -141.5t-34 -122.5t-63 -98.5t-101 -63t-144.5 -23.5zM297 426
q0 -99 8 -154.5t35 -87.5q23 -27 53.5 -37t81.5 -10q36 0 64.5 9.5t47.5 23.5t32 38t20 46t10.5 55.5t4.5 57t1 59.5q0 94 -7.5 146.5t-31.5 86.5q-45 62 -141 62q-100 0 -139 -55q-24 -36 -31.5 -88t-7.5 -152z" />
    </font>
</defs>
</svg>
