<?xml version="1.0" standalone="no"?>
<!DOCTYPE svg PUBLIC "-//W3C//DTD SVG 1.1//EN" "http://www.w3.org/Graphics/SVG/1.1/DTD/svg11.dtd" >
<svg xmlns="http://www.w3.org/2000/svg" xmlns:xlink="http://www.w3.org/1999/xlink" version="1.1">
<metadata>
Created by FontForge 20170731 at Thu Nov  2 05:51:25 2023
 By Aleksey,,,
(c) Bayerische Motoren Werke AG (BMW AG) 2019. The font is subject to copyright protection and other intellectual property rights. All rights reserved.
</metadata>
<defs>
<font id="VN_BMWTypeNextLatin-Thin" horiz-adv-x="1167" >
  <font-face 
    font-family="VN_BMWTypeNext Latin Thin"
    font-weight="100"
    font-stretch="normal"
    units-per-em="2048"
    panose-1="0 0 0 0 0 0 0 0 0 0"
    ascent="1638"
    descent="-410"
    x-height="1081"
    cap-height="1544"
    bbox="-260 -573 2705 2294"
    underline-thickness="102"
    underline-position="-462"
    unicode-range="U+000D-FB02"
  />
<missing-glyph horiz-adv-x="1228" 
d="M102 0v1544h1024v-1544h-1024zM657 772l398 -643v1284zM571 772l-397 641v-1284zM614 842l392 633h-783zM614 702l-391 -632h783z" />
    <glyph glyph-name=".notdef" horiz-adv-x="1228" 
d="M102 0v1544h1024v-1544h-1024zM657 772l398 -643v1284zM571 772l-397 641v-1284zM614 842l392 633h-783zM614 702l-391 -632h783z" />
    <glyph glyph-name="uni0000" horiz-adv-x="0" 
 />
    <glyph glyph-name="uni0000" horiz-adv-x="0" 
 />
    <glyph glyph-name="uni000D" unicode="&#xd;" horiz-adv-x="520" 
 />
    <glyph glyph-name="space" unicode=" " horiz-adv-x="530" 
 />
    <glyph glyph-name="exclam" unicode="!" horiz-adv-x="538" 
d="M248 1544h86v-246q0 -745 -2 -806h-82q-2 61 -2 806v246zM231 256h119v-256h-119v256z" />
    <glyph glyph-name="quotedbl" unicode="&#x22;" horiz-adv-x="761" 
d="M469 1393v151h100v-151q0 -201 -8 -445h-84q-8 244 -8 445zM201 948q-8 244 -8 445v151h100v-151q0 -201 -8 -445h-84z" />
    <glyph glyph-name="numbersign" unicode="#" horiz-adv-x="1331" 
d="M330 422h-246v80h258l84 547h-248v79h260l64 416h82l-64 -416h400l63 416h82l-64 -416h246v-79h-258l-84 -547h248v-80h-260l-66 -422h-82l66 422h-399l-66 -422h-82zM424 502h399l84 547h-399z" />
    <glyph glyph-name="dollar" unicode="$" horiz-adv-x="1355" 
d="M180 1161q0 85 24 150.5t64.5 107.5t100.5 69t126 39t148 15v213h82v-215q148 -12 403 -78v-86q-314 84 -469 84q-68 0 -122.5 -7.5t-106.5 -27.5t-87 -53t-56 -86.5t-21 -124.5q0 -67 8.5 -106.5t38.5 -71.5q38 -41 213 -102l340 -117q83 -28 136 -56t95 -70t60.5 -101
t18.5 -142q0 -100 -35 -175.5t-97.5 -121.5t-142 -70.5t-176.5 -29.5v-229h-82v229q-161 6 -448 70v84q310 -72 477 -72q114 0 179 16t122 56q117 82 117 243q0 57 -12.5 99.5t-31 70.5t-55.5 51.5t-71 37.5t-93 34l-335 117q-47 16 -75 26.5t-63 26t-54.5 29.5t-42.5 33.5
t-35 42t-23 52t-15 65.5t-4 81z" />
    <glyph glyph-name="percent" unicode="%" horiz-adv-x="2064" 
d="M463 664q-60 0 -106.5 13t-77.5 32.5t-53 54.5t-34 68t-18.5 84t-8 90.5t-1.5 99.5q0 58 0.5 87.5t4 81.5t11.5 80t21.5 67.5t35.5 61t53 43.5t74.5 31t98.5 9q60 0 107 -14.5t78.5 -37t53.5 -60t34 -73t18.5 -87.5t8 -91.5t1.5 -97.5q0 -76 -5 -131.5t-23 -117.5
t-49.5 -101.5t-88 -65.5t-135.5 -26zM1599 -23q-60 0 -106.5 13t-77.5 33t-53 55t-34 68t-18.5 84t-8 90.5t-1.5 99.5q0 58 0.5 87.5t4 81.5t11.5 80t21.5 67.5t35.5 61t53 43.5t74.5 31t98.5 9q60 0 107 -14.5t78.5 -37t54 -60t34.5 -73t18.5 -87.5t8 -92t1.5 -97
q0 -62 -3.5 -109.5t-14 -102t-31.5 -93t-53.5 -71.5t-83 -50t-116.5 -17zM295 1423q-34 -42 -41.5 -105.5t-7.5 -211.5q0 -113 9 -183t36 -112q24 -38 63.5 -53t108.5 -15q35 0 64.5 7.5t51 18.5t38 31.5t27 38.5t18.5 47.5t11.5 51t5.5 56.5t2.5 55.5t0.5 56.5
q0 124 -9 191.5t-38 111.5q-50 78 -176 78q-112 0 -164 -64zM1432 737q-34 -42 -42 -106.5t-8 -210.5q0 -113 9 -183t36 -112q24 -38 63.5 -53t108.5 -15q35 0 64.5 7.5t51 19t38 31.5t27.5 38.5t18.5 47.5t11.5 50.5t6 56t2.5 56t0.5 56.5q0 124 -9 191.5t-38 111.5
q-50 78 -177 78q-111 0 -163 -64zM727 0h-90l729 1544h90z" />
    <glyph glyph-name="ampersand" unicode="&#x26;" horiz-adv-x="1452" 
d="M141 350q0 50 10 97.5t24.5 85.5t41.5 78.5t50.5 69.5t62 66.5t65.5 61.5t72 61q-78 78 -125 173t-47 196q0 172 99 256t274 84q103 0 327 -57v-84q-222 59 -327 59q-139 0 -213 -59.5t-74 -194.5q0 -51 12 -95.5t26 -69t38 -60.5q64 -94 374 -404h-116l-189 193
q-106 -83 -194 -182q-59 -67 -82 -133.5t-23 -147.5q0 -142 69 -219.5t208 -77.5q69 0 131 21t117 63.5t95 83.5t91 102l244 297h112l-219 -266l322 -348h-117l-260 281q-52 -63 -86 -100t-86.5 -84t-99 -72t-110 -42.5t-134.5 -17.5q-182 0 -272.5 100t-90.5 285z" />
    <glyph glyph-name="quotesingle" unicode="'" horiz-adv-x="485" 
d="M201 948q-8 244 -8 445v151h100v-151q0 -201 -8 -445h-84z" />
    <glyph glyph-name="parenleft" unicode="(" horiz-adv-x="626" 
d="M266 -238q-32 47 -47.5 111t-17.5 105.5t-2 121.5v955q0 80 2 121.5t17.5 104.5t47.5 110q90 135 287 196v-86q-60 -25 -103.5 -51t-73.5 -58.5t-48 -65.5t-28 -80t-13.5 -93t-3.5 -113v-925q0 -81 5 -133.5t20.5 -105.5t45 -89.5t78.5 -70t121 -62.5v-86
q-198 59 -287 194z" />
    <glyph glyph-name="parenright" unicode=")" horiz-adv-x="626" 
d="M74 1501v86q196 -61 286 -196q32 -47 47.5 -109.5t18 -105.5t2.5 -121v-955q0 -59 -1.5 -91t-7 -81.5t-20.5 -89.5t-39 -76q-89 -136 -286 -194v86q72 29 121 62.5t78.5 70t45 89.5t20.5 105.5t5 133.5v925q0 67 -3.5 113t-13.5 93t-28 80t-48 65.5t-73.5 58.5t-103.5 51
z" />
    <glyph glyph-name="asterisk" unicode="*" horiz-adv-x="1091" 
d="M510 1081l-307 -172v88l280 154l-280 154v88l307 -172l-2 323h76l-2 -323l307 172v-88l-281 -154l281 -154v-88l-307 172l2 -323h-76z" />
    <glyph glyph-name="plus" unicode="+" horiz-adv-x="1433" 
d="M182 813h492v502h84v-502h493v-82h-493v-502h-84v502h-492v82z" />
    <glyph glyph-name="comma" unicode="," horiz-adv-x="489" 
d="M225 -346h-80q27 124 37.5 215.5t10.5 257.5v129h112v-205q0 -182 -80 -397z" />
    <glyph glyph-name="hyphen" unicode="-" horiz-adv-x="815" 
d="M662 498h-508v86h508v-86z" />
    <glyph glyph-name="period" unicode="." horiz-adv-x="489" 
d="M305 0h-121v256h121v-256z" />
    <glyph glyph-name="slash" unicode="/" horiz-adv-x="729" 
d="M123 0h-92l575 1544h92z" />
    <glyph glyph-name="zero" unicode="0" horiz-adv-x="1335" 
d="M303 123q-106 166 -106 649q0 233 19 377t77 250q47 86 143 133t228 47q268 0 374 -193q101 -187 101 -598q0 -445 -92 -622q-106 -201 -381 -201q-264 0 -363 158zM387 1389q-61 -77 -82.5 -221t-21.5 -394q0 -226 20.5 -378.5t73.5 -231.5q78 -117 291 -117
q228 0 307 164q78 160 78 571q0 420 -97 580q-41 67 -117 101t-177 34q-88 0 -161 -27t-114 -81z" />
    <glyph glyph-name="one" unicode="1" horiz-adv-x="696" 
d="M457 0h-84v1468l-369 -120v88l453 149v-1585z" />
    <glyph glyph-name="two" unicode="2" horiz-adv-x="1105" 
d="M45 92q482 554 619 727q104 133 148 216.5t44 187.5q0 153 -81 213.5t-243 60.5q-142 0 -413 -80v84q87 27 205.5 52.5t207.5 25.5q199 0 304.5 -83.5t105.5 -272.5q0 -110 -47 -209t-145 -223q-251 -315 -605 -709h859v-82h-959v92z" />
    <glyph glyph-name="three" unicode="3" 
d="M98 94q266 -47 381 -47q406 0 406 354q0 223 -160 322q-37 23 -79 29t-126 6h-266v82h426l102 139q92 126 92 254q0 78 -27 131.5t-77.5 81.5t-109 39.5t-134.5 11.5q-142 0 -415 -70v84q256 68 415 68q129 0 211.5 -25.5t139.5 -85.5q41 -44 62.5 -107.5t21.5 -129.5
q0 -138 -97 -281q-54 -80 -108 -149q215 -120 215 -395q0 -205 -117 -322q-65 -65 -154.5 -92t-222.5 -27q-126 0 -379 45v84z" />
    <glyph glyph-name="four" unicode="4" horiz-adv-x="1230" 
d="M109 358v80l727 1104h102l-725 -1102h733v408h84v-848h-84v358h-837z" />
    <glyph glyph-name="five" unicode="5" horiz-adv-x="1177" 
d="M190 6v84q215 -43 359 -43q393 0 393 402q0 65 -10.5 117t-34.5 89t-49.5 64t-69 44t-79 27t-93.5 14.5t-98 5.5t-107 1h-188v733h766v-82h-682v-569h176q99 0 177 -10.5t151 -40t121 -78t77 -127.5t29 -186q0 -224 -108 -347q-70 -79 -159.5 -109t-217.5 -30
q-130 0 -353 41z" />
    <glyph glyph-name="six" unicode="6" horiz-adv-x="1261" 
d="M645 -35q-81 0 -146 15.5t-112 43t-81.5 70t-56 90t-34.5 110t-17.5 123.5t-4.5 136q0 69 1.5 117.5t7.5 126.5t20.5 141t37 132.5t61 130.5t89.5 108q199 184 604 260v-84q-120 -23 -211.5 -51.5t-182 -75.5t-152.5 -109t-107.5 -154.5t-61.5 -209.5q135 6 285 6
q98 0 175 -12t144 -42t111 -78.5t69 -124.5t25 -177q0 -492 -463 -492zM289 803q-10 -98 -10 -250q0 -66 2.5 -115t11.5 -104.5t24.5 -95t43 -78t65.5 -62t93.5 -37.5t125.5 -14q200 0 288.5 103.5t88.5 306.5q0 87 -21 150.5t-56.5 102t-93.5 61t-120.5 30.5t-148.5 8
q-110 0 -293 -6z" />
    <glyph glyph-name="seven" unicode="7" horiz-adv-x="1034" 
d="M242 0h-97l732 1462h-838v82h932v-86z" />
    <glyph glyph-name="eight" unicode="8" horiz-adv-x="1400" 
d="M700 -35q-119 0 -207 20t-157.5 67t-105 131.5t-35.5 205.5q0 71 18.5 132t56 112.5t79.5 92t102 85.5q-201 85 -201 371q0 105 34.5 182.5t97.5 124t144.5 68.5t182.5 22q204 0 323 -100t119 -297q0 -120 -53.5 -212t-157.5 -196q135 -52 200.5 -143.5t65.5 -237.5
q0 -113 -38.5 -197.5t-108.5 -134t-159.5 -73t-199.5 -23.5zM543 782q-60 -41 -102 -78t-81 -85t-59 -106t-20 -124q0 -83 19.5 -143.5t54 -98.5t89 -60.5t115 -31t141.5 -8.5q420 0 420 344q0 205 -147 277q-45 22 -121 43.5t-130.5 33.5t-178.5 37zM709 1497
q-84 0 -149.5 -17t-117 -53t-79 -98t-27.5 -147q0 -110 25 -173t83 -100q30 -19 109 -41.5t131.5 -34t165.5 -34.5q44 44 66 67.5t56 66t50.5 75.5t29.5 79t13 95q0 162 -94 238.5t-262 76.5z" />
    <glyph glyph-name="nine" unicode="9" horiz-adv-x="1261" 
d="M612 643q-248 0 -352 97t-104 337q0 119 22.5 208t72.5 156.5t138 102.5t213 35q258 0 367 -184q56 -95 78 -252t22 -379q0 -90 -4.5 -164t-18.5 -159.5t-38 -151t-65.5 -128.5t-97.5 -104.5t-137.5 -66.5t-183.5 -25q-122 0 -321 39v84q197 -41 325 -41q455 0 455 627
q-213 -31 -371 -31zM600 1497q-105 0 -176.5 -28.5t-110.5 -86.5t-55 -130.5t-16 -174.5q0 -198 76 -275t280 -77q132 0 385 31q0 206 -15 348.5t-65 234.5q-84 158 -303 158z" />
    <glyph glyph-name="colon" unicode=":" horiz-adv-x="489" 
d="M305 825h-121v256h121v-256zM305 0h-121v256h121v-256z" />
    <glyph glyph-name="semicolon" unicode=";" horiz-adv-x="489" 
d="M225 -346h-80q27 124 37.5 215.5t10.5 257.5v129h112v-205q0 -182 -80 -397zM184 825v256h121v-256h-121z" />
    <glyph glyph-name="less" unicode="&#x3c;" horiz-adv-x="1433" 
d="M1251 219l-1069 510v86l1069 510v-94l-966 -459l966 -459v-94z" />
    <glyph glyph-name="equal" unicode="=" horiz-adv-x="1433" 
d="M1251 516h-1069v82h1069v-82zM1251 946h-1069v82h1069v-82z" />
    <glyph glyph-name="greater" unicode="&#x3e;" horiz-adv-x="1433" 
d="M182 1325l1069 -510v-86l-1069 -510v94l967 459l-967 459v94z" />
    <glyph glyph-name="question" unicode="?" horiz-adv-x="1013" 
d="M156 1432v84q222 63 340 63q176 0 274 -83t98 -257q0 -164 -96 -299q-62 -88 -180 -217q-80 -87 -114 -138t-48 -93h-94q31 78 64.5 131.5t115.5 142.5q73 78 109.5 120.5t68.5 90.5q47 70 67.5 128t20.5 134q0 135 -71 196.5t-209 61.5q-102 0 -346 -65zM322 256h118
v-256h-118v256z" />
    <glyph glyph-name="at" unicode="@" horiz-adv-x="1888" 
d="M188 461q0 463 185 665q89 95 224.5 142t358.5 47q250 0 707 -166v-635q0 -79 -2 -121.5t-16.5 -105t-42.5 -109.5q-50 -80 -169.5 -140.5t-218.5 -60.5v187q-45 -40 -79 -67.5t-82 -59t-97 -48t-96 -16.5q-59 0 -106 16t-78 41t-53 66t-34 79t-18.5 93t-8 95.5
t-1.5 97.5q0 94 8 162.5t32.5 133.5t66 105.5t111 65t165.5 24.5q48 0 113.5 -13.5t112 -27t126.5 -39.5v-800q74 23 124.5 51.5t82 62t49 82t23.5 101.5t6 131v592q-416 141 -625 141q-186 0 -304 -33.5t-197 -109.5q-183 -175 -183 -629q0 -298 64.5 -469t212.5 -248
q79 -42 244 -82v-86q-182 39 -291 98q-77 42 -134.5 108.5t-91 140.5t-54 168.5t-27.5 180.5t-7 189zM709 776q-33 -47 -48.5 -135t-15.5 -180q0 -213 41 -303q26 -57 65.5 -81t108.5 -24q86 0 199 88q91 71 155 123v549q-175 59 -274 59q-86 0 -140 -20.5t-91 -75.5z" />
    <glyph glyph-name="A" unicode="A" horiz-adv-x="1378" 
d="M43 0l590 1544h108l594 -1544h-92l-170 440h-772l-168 -440h-90zM332 522h710l-356 932z" />
    <glyph glyph-name="B" unicode="B" horiz-adv-x="1470" 
d="M819 0h-594v1544h572q60 0 104.5 -2t98 -10t92 -22t77 -38.5t62 -59t38.5 -85.5t15 -115q0 -44 -14.5 -93.5t-30 -80.5t-47.5 -92q-28 -49 -80 -137q109 -73 159 -162.5t50 -220.5q0 -426 -502 -426zM920 756h-611v-674h508q75 0 136 9.5t114.5 34t89.5 63t57 98.5
t21 139q0 90 -28.5 156t-92.5 118q-40 32 -83 44t-111 12zM309 838h723q14 25 82 147q31 57 45 85.5t26.5 69.5t12.5 79t-8 70t-20.5 55.5t-34 42t-42 31t-51.5 21t-55.5 13t-60.5 7t-61 3t-62 0.5h-494v-624z" />
    <glyph glyph-name="C" unicode="C" horiz-adv-x="1347" 
d="M195 768q0 405 104 588q69 122 171.5 172.5t291.5 50.5q106 0 212 -20.5t251 -59.5v-84q-95 26 -156 40.5t-147.5 28t-159.5 13.5q-159 0 -251 -45.5t-149 -161.5q-39 -81 -60 -224.5t-21 -299.5q0 -315 61 -471q48 -126 146 -187t262 -61q177 0 475 68v-86
q-150 -32 -253 -48t-210 -16q-203 0 -319 70t-181 227q-67 161 -67 506z" />
    <glyph glyph-name="D" unicode="D" horiz-adv-x="1540" 
d="M723 0h-498v1544h514q160 0 251 -26.5t167 -96.5q95 -86 142 -260.5t47 -382.5q0 -204 -44 -370.5t-135 -260.5q-78 -80 -182.5 -113.5t-261.5 -33.5zM309 1462v-1380h412q146 0 234.5 31.5t154.5 99.5q70 73 110 222.5t40 342.5q0 184 -38 336t-110 232q-62 68 -149 92
t-224 24h-430z" />
    <glyph glyph-name="E" unicode="E" horiz-adv-x="1333" 
d="M225 1544h992v-82h-908v-631h862v-81h-862v-668h940v-82h-1024v1544z" />
    <glyph glyph-name="F" unicode="F" horiz-adv-x="1294" 
d="M225 1544h1000v-82h-916v-655h852v-82h-852v-725h-84v1544z" />
    <glyph glyph-name="G" unicode="G" horiz-adv-x="1515" 
d="M195 768q0 410 104 588q69 119 173 171t290 52q184 0 481 -82v-84q-317 84 -481 84q-158 0 -250.5 -46t-151.5 -161q-40 -80 -59.5 -222t-19.5 -302q0 -322 65 -473q59 -139 168 -192.5t279 -53.5q129 0 419 41v733h84v-805q-347 -51 -534 -51q-106 0 -190.5 23.5
t-143 63t-101.5 101t-68 126.5t-40 151.5t-19.5 163.5t-4.5 174z" />
    <glyph glyph-name="H" unicode="H" horiz-adv-x="1574" 
d="M309 0h-84v1544h84v-682h957v682h84v-1544h-84v780h-957v-780z" />
    <glyph glyph-name="I" unicode="I" horiz-adv-x="534" 
d="M309 0h-84v1544h84v-1544z" />
    <glyph glyph-name="J" unicode="J" horiz-adv-x="745" 
d="M-12 -172v86q216 69 319 127q48 27 75 53t40 62q20 59 20 274v1114h84v-1104q0 -95 -0.5 -132t-5.5 -88.5t-16 -86.5q-24 -78 -105 -133q-121 -80 -411 -172z" />
    <glyph glyph-name="K" unicode="K" horiz-adv-x="1273" 
d="M309 0h-84v1544h84v-747l778 747h125l-800 -766l864 -778h-129l-838 756v-756z" />
    <glyph glyph-name="L" unicode="L" horiz-adv-x="1259" 
d="M1180 0h-955v1544h84v-1462h871v-82z" />
    <glyph glyph-name="M" unicode="M" horiz-adv-x="1781" 
d="M225 1544h135l531 -1149l530 1149h135v-1544h-83v1454l-531 -1147h-104l-529 1143v-1450h-84v1544z" />
    <glyph glyph-name="N" unicode="N" horiz-adv-x="1548" 
d="M225 1544h127l887 -1452v1452h84v-1544h-127l-887 1452v-1452h-84v1544z" />
    <glyph glyph-name="O" unicode="O" horiz-adv-x="1640" 
d="M297 188q-102 171 -102 586q0 383 84 537q145 268 540 268q179 0 299.5 -50.5t196.5 -158.5q67 -95 99 -261t32 -335q0 -150 -27.5 -313.5t-93.5 -265.5q-81 -124 -206 -177t-300 -53q-200 0 -328 55t-194 168zM281 774q0 -152 19 -301t65 -229q34 -59 82 -99.5t109 -61
t122.5 -28.5t140.5 -8q139 0 237.5 35.5t172.5 124.5q69 82 100 237t31 330q0 153 -26 298t-79 233q-63 104 -171 148t-265 44q-80 0 -147 -12t-118 -32t-91.5 -53.5t-69 -70t-49 -87.5t-32.5 -100t-19 -113.5t-9.5 -122.5t-2.5 -132z" />
    <glyph glyph-name="P" unicode="P" horiz-adv-x="1345" 
d="M225 0v1544h553q129 0 209 -28t137 -89q49 -52 77 -139t28 -178q0 -110 -17 -189t-58.5 -142.5t-116 -100.5t-183.5 -49q-99 -11 -545 -11v-618h-84zM309 1462v-762q417 0 539 13q73 8 126 30.5t85.5 55.5t51 82.5t25.5 103t7 125.5q0 84 -26 158t-73 118q-81 76 -270 76
h-465z" />
    <glyph glyph-name="Q" unicode="Q" horiz-adv-x="1640" 
d="M195 774q0 383 84 537q145 268 540 268q179 0 299.5 -50.5t196.5 -158.5q67 -95 99 -261t32 -335q0 -82 -4.5 -152.5t-17.5 -148.5t-34.5 -141t-58 -124.5t-84.5 -106t-117.5 -77.5t-154.5 -47l467 -112v-84l-744 182q-170 41 -258 86.5t-143 138.5q-102 171 -102 586z
M281 774q0 -152 19 -301t65 -229q114 -199 454 -199q138 0 236.5 36t173.5 126q69 82 100 237t31 330q0 153 -26 298t-79 233q-63 104 -171 148t-265 44q-80 0 -147 -12t-118 -32t-91.5 -53.5t-69 -70t-49 -87.5t-32.5 -100t-19 -113.5t-9.5 -122.5t-2.5 -132z" />
    <glyph glyph-name="R" unicode="R" horiz-adv-x="1396" 
d="M309 0h-84v1544h492q66 0 116 -2.5t108.5 -11.5t101 -25t84.5 -43.5t68 -66t42 -94.5t16 -127q0 -160 -141 -316q-61 -70 -180 -184l403 -674h-102l-399 668h-525v-668zM309 1462v-712h578q112 108 160 163q56 66 88 127t32 131q0 42 -6.5 77.5t-20 62.5t-29 48.5
t-40.5 37t-47 27t-55 18.5t-58.5 11t-64 6t-64.5 2.5t-67 0.5h-406z" />
    <glyph glyph-name="S" unicode="S" horiz-adv-x="1310" 
d="M141 1176q0 187 101 288q63 63 151.5 89t231.5 26q80 0 172.5 -14.5t154.5 -30t178 -47.5v-84q-345 94 -505 94q-93 0 -160.5 -14t-124 -48t-85 -99t-28.5 -160q0 -66 12 -110.5t44 -76.5q45 -45 217 -104l348 -121q69 -24 115 -45.5t88.5 -53t66 -69.5t37.5 -91.5
t14 -123.5q0 -83 -29.5 -159.5t-82.5 -129.5q-69 -69 -163 -98t-230 -29q-176 0 -510 80v86q349 -84 503 -84q109 0 182 18.5t130 63.5q54 42 84 110.5t30 145.5q0 49 -7.5 87t-26 67t-38.5 49.5t-55.5 39t-66 31t-80.5 29.5l-350 123q-42 15 -66.5 24t-57.5 23t-52 26
t-42.5 29t-36 34.5t-27 41t-21 51t-11 61.5t-4.5 75z" />
    <glyph glyph-name="T" unicode="T" horiz-adv-x="1353" 
d="M57 1462v82h1239v-82h-577v-1462h-84v1462h-578z" />
    <glyph glyph-name="U" unicode="U" horiz-adv-x="1513" 
d="M217 1544h84v-969q0 -100 6.5 -169.5t24.5 -132.5t50 -102.5t83.5 -69t123.5 -42t171 -12.5q86 0 151 10t113 28.5t81.5 52t54.5 72.5t32.5 98t15.5 120t4 147v969h84v-971q0 -210 -28 -322t-119 -185q-67 -54 -160.5 -77.5t-228.5 -23.5q-136 0 -229.5 23.5t-163.5 79.5
q-87 67 -118.5 184t-31.5 321v971z" />
    <glyph glyph-name="V" unicode="V" horiz-adv-x="1316" 
d="M610 0l-604 1544h92l561 -1438l562 1438h90l-604 -1544h-97z" />
    <glyph glyph-name="W" unicode="W" horiz-adv-x="1810" 
d="M403 0l-325 1544h86l309 -1470l371 1237h123l370 -1237l310 1470h86l-326 -1544h-135l-367 1227l-366 -1227h-136z" />
    <glyph glyph-name="X" unicode="X" horiz-adv-x="1224" 
d="M113 0h-105l533 784l-496 760h102l465 -710l461 710h103l-492 -758l533 -786h-105l-500 737z" />
    <glyph glyph-name="Y" unicode="Y" horiz-adv-x="1212" 
d="M563 594l-575 950h100l518 -854l518 854h101l-576 -950v-594h-86v594z" />
    <glyph glyph-name="Z" unicode="Z" horiz-adv-x="1296" 
d="M1188 0h-1079v92l966 1370h-936v82h1035v-92l-967 -1370h981v-82z" />
    <glyph glyph-name="bracketleft" unicode="[" horiz-adv-x="616" 
d="M532 -393h-327v1937h327v-82h-243v-1773h243v-82z" />
    <glyph glyph-name="backslash" unicode="\" horiz-adv-x="729" 
d="M698 0h-92l-575 1544h92z" />
    <glyph glyph-name="bracketright" unicode="]" horiz-adv-x="616" 
d="M328 1462h-244v82h328v-1937h-328v82h244v1773z" />
    <glyph glyph-name="asciicircum" unicode="^" horiz-adv-x="1613" 
d="M127 686l631 858h98l631 -858h-109l-571 776l-571 -776h-109z" />
    <glyph glyph-name="underscore" unicode="_" horiz-adv-x="1024" 
d="M1024 -197h-1024v82h1024v-82z" />
    <glyph glyph-name="grave" unicode="`" horiz-adv-x="768" 
d="M537 1274h-113l-227 270h114z" />
    <glyph glyph-name="a" unicode="a" 
d="M137 551q0 101 11 181t41.5 154t79.5 123t128.5 78t186.5 29q56 0 129 -17.5t124.5 -35.5t149.5 -55v-1008h-82v199q-59 -53 -133 -113q-77 -62 -141.5 -91.5t-143.5 -29.5t-136.5 23.5t-89.5 58.5t-60 90q-31 62 -47.5 174.5t-16.5 239.5zM221 551q0 -43 0.5 -69t3 -72
t7 -76.5t13.5 -72.5t22 -69.5t33.5 -57.5t46.5 -48t61.5 -29.5t78.5 -11.5q100 0 218 92q123 97 200 168v647q-77 29 -115 42.5t-99.5 27.5t-112.5 14q-89 0 -154.5 -26.5t-104 -68.5t-61 -107.5t-30 -131t-7.5 -151.5z" />
    <glyph glyph-name="b" unicode="b" horiz-adv-x="1181" 
d="M180 43v1501h82v-577q136 70 174 88q138 61 236 61q68 0 123.5 -18.5t93.5 -49t67 -76t45 -93t26 -108t13.5 -112.5t3.5 -114q0 -94 -12 -174.5t-43.5 -157t-80.5 -130t-127 -86t-179 -32.5q-106 0 -219 25q-15 4 -203 53zM262 104q215 -59 340 -59q359 0 359 502
q0 489 -273 489q-57 0 -100.5 -11t-102.5 -38q-128 -60 -223 -110v-773z" />
    <glyph glyph-name="c" unicode="c" horiz-adv-x="983" 
d="M215 135q-78 144 -78 400q0 236 43 356q41 118 130 171.5t263 53.5q117 0 314 -63v-82q-209 65 -314 65q-132 0 -203 -35t-108 -129q-41 -101 -41 -337q0 -106 18 -205.5t50 -155.5q42 -74 110 -101.5t174 -27.5q107 0 314 53v-82q-219 -51 -314 -51q-144 0 -225.5 38.5
t-132.5 131.5z" />
    <glyph glyph-name="d" unicode="d" horiz-adv-x="1181" 
d="M205 139q-68 142 -68 406q0 262 76 405q49 91 131.5 128.5t204.5 37.5q135 0 371 -76v504h81v-1544h-81v158q-244 -193 -424 -193q-122 0 -185.5 42.5t-105.5 131.5zM281 899q-60 -120 -60 -354q0 -232 53 -357q31 -75 83 -110t139 -35q51 0 109 20t119.5 58t101 66.5
t94.5 72.5v696q-245 80 -371 80q-201 0 -268 -137z" />
    <glyph glyph-name="e" unicode="e" horiz-adv-x="1134" 
d="M137 539q0 106 10 185.5t39 156.5t77.5 126t130.5 79t194 30q203 0 309.5 -105.5t106.5 -303.5q0 -85 -21 -205h-764q0 -115 16 -193.5t58 -141t120.5 -92.5t196.5 -30q112 0 338 43v-82q-200 -41 -338 -41q-85 0 -153 13.5t-117 38t-85 64t-58.5 84.5t-36 106.5
t-18.5 124.5t-5 143zM219 582h690q11 64 11 125q0 329 -332 329q-88 0 -153.5 -23t-106.5 -61.5t-65.5 -98t-34 -124t-9.5 -147.5z" />
    <glyph glyph-name="f" unicode="f" horiz-adv-x="583" 
d="M180 1063q0 71 1.5 116t7.5 94.5t17 78.5t31 62t47 53.5t68.5 43t93 40t121.5 36.5v-84q-45 -13 -67 -19.5t-58.5 -20t-55 -25.5t-43.5 -31.5t-37.5 -42t-23.5 -54t-14 -69.5q-6 -70 -6 -174h311v-80h-311v-987h-82v1063z" />
    <glyph glyph-name="g" unicode="g" horiz-adv-x="1175" 
d="M139 553q0 256 72 389q54 98 139 136t213 38q129 0 432 -100v-955q0 -236 -124 -362.5t-359 -126.5q-109 0 -336 29v84q209 -33 336 -33q197 0 299 109t102 307v59q-123 -60 -221 -93.5t-196 -33.5q-125 0 -189 40.5t-104 119.5q-64 125 -64 393zM223 553q0 -239 53 -354
q29 -64 81.5 -91.5t138.5 -27.5q48 0 101 11.5t116.5 37.5t98 42t101.5 48v737q-244 80 -354 80t-174.5 -31.5t-103.5 -107.5q-58 -113 -58 -344z" />
    <glyph glyph-name="h" unicode="h" horiz-adv-x="1171" 
d="M180 0v1544h82v-543q128 57 223.5 86t184.5 29q84 0 142.5 -18t94 -48.5t55.5 -83t26.5 -109t6.5 -138.5v-719h-82v721q0 66 -4 108.5t-18 85.5t-40 67t-71 39t-110 15q-49 0 -99.5 -9.5t-110.5 -31.5t-95 -36.5t-103 -45.5v-913h-82z" />
    <glyph glyph-name="i" unicode="i" horiz-adv-x="442" 
d="M262 0h-82v1081h82v-1081zM266 1286h-90v258h90v-258z" />
    <glyph glyph-name="j" unicode="j" horiz-adv-x="464" 
d="M152 -311q-56 -42 -228 -121v90q143 66 197 113q47 42 65 98q17 52 17 184v1028h82v-1015q0 -162 -15 -218q-14 -50 -40.5 -86t-77.5 -73zM199 1286v258h90v-258h-90z" />
    <glyph glyph-name="k" unicode="k" horiz-adv-x="972" 
d="M262 0h-82v1544h82v-936l520 473h123l-545 -495l596 -586h-118l-576 567v-567z" />
    <glyph glyph-name="l" unicode="l" horiz-adv-x="442" 
d="M262 0h-82v1544h82v-1544z" />
    <glyph glyph-name="m" unicode="m" horiz-adv-x="1822" 
d="M180 0v1081h82v-92q90 44 140 66t121.5 41.5t135.5 19.5q49 0 87.5 -6t75.5 -21t65 -44t47 -72q71 39 123.5 65t134.5 52t147 26q82 0 139 -20t90 -51.5t51 -86.5t23 -108.5t5 -134.5v-715h-82v715q0 48 -1 76t-5.5 66.5t-13 61t-25 48t-40 38.5t-59.5 22t-82 9
q-60 0 -138 -26.5t-126 -51.5t-121 -67v-891h-82v788q0 68 -7 109t-29 75.5t-65 49t-112 14.5q-58 0 -135 -24t-126.5 -47t-135.5 -66v-899h-82z" />
    <glyph glyph-name="n" unicode="n" horiz-adv-x="1177" 
d="M180 0v1081h82v-88q97 44 150 65t126 39.5t138 18.5q60 0 107.5 -9t81.5 -25.5t58.5 -43.5t39.5 -57.5t23.5 -74t11.5 -86.5t3 -101v-719h-81v723q0 47 -2 79.5t-7.5 67.5t-16 58.5t-28.5 45.5t-44 34.5t-62.5 20t-83.5 7.5q-60 0 -141 -23.5t-131.5 -45t-141.5 -62.5
v-905h-82z" />
    <glyph glyph-name="o" unicode="o" 
d="M223 125q-41 65 -63.5 177t-22.5 233q0 104 9.5 183t38 157.5t76.5 128.5t129.5 81t193.5 31q109 0 189 -28.5t128.5 -77t78 -123.5t40 -155.5t10.5 -186.5q0 -103 -10 -183t-39 -157.5t-77.5 -127.5t-129.5 -81t-190 -31q-138 0 -222.5 37.5t-138.5 122.5zM221 537
q0 -106 17.5 -203t48.5 -152q44 -78 113.5 -107.5t183.5 -29.5q215 0 293 133q69 120 69 369q0 91 -6.5 155.5t-28 132t-60 108.5t-106 67t-161.5 26q-68 0 -122.5 -14t-92 -37.5t-65 -61.5t-43.5 -77.5t-25 -93.5t-12 -103t-3 -112z" />
    <glyph glyph-name="p" unicode="p" horiz-adv-x="1181" 
d="M180 1081h82v-139q108 86 197 130t196 44q98 0 170 -35t113 -88.5t66 -133.5t32.5 -154t7.5 -166q0 -66 -4.5 -122.5t-17 -116.5t-32 -108t-51.5 -91.5t-74.5 -72.5t-102 -46t-131.5 -17q-84 0 -171 26.5t-198 78.5v-463h-82v1474zM262 842v-682q78 -38 123.5 -58
t115 -38.5t130.5 -18.5q60 0 109 15.5t83 41.5t59 65t40 80.5t24 93.5t12 98.5t3 101.5q0 54 -2 97t-10 96.5t-20.5 94t-36 81t-55 67t-78 43t-104.5 16.5q-109 0 -215 -65q-81 -52 -178 -129z" />
    <glyph glyph-name="q" unicode="q" horiz-adv-x="1181" 
d="M137 537q0 273 84 413q56 94 140.5 130t207.5 36q146 0 432 -98v-1411h-81v506q-116 -70 -215.5 -109t-202.5 -39q-120 0 -189 40.5t-110 127.5q-66 138 -66 404zM221 537q0 -231 49 -351q30 -74 83 -107.5t149 -33.5q102 0 219 55q62 30 199 111v750q-77 24 -124.5 37.5
t-111.5 25.5t-115 12q-105 0 -172 -30t-108 -105q-33 -60 -50.5 -158.5t-17.5 -205.5z" />
    <glyph glyph-name="r" unicode="r" horiz-adv-x="675" 
d="M180 1081h82v-137q95 66 180 101.5t205 60.5v-84q-115 -24 -199 -63.5t-186 -112.5v-846h-82v1081z" />
    <glyph glyph-name="s" unicode="s" horiz-adv-x="1030" 
d="M205 629q-78 58 -78 202q0 67 20.5 118t54.5 82.5t83.5 50.5t101.5 26.5t115 7.5q127 0 360 -63v-82q-260 65 -360 65q-49 0 -87 -4t-78 -17t-66.5 -35t-43 -59.5t-16.5 -89.5q0 -96 45 -133q41 -32 168 -73l207 -68q52 -17 87.5 -31.5t73.5 -38t60 -52t36.5 -70.5
t14.5 -95q0 -88 -35.5 -150t-97.5 -94.5t-131 -46.5t-152 -14q-135 0 -348 51v82q226 -53 348 -53q61 0 114 9t105 31.5t82.5 68t30.5 110.5q0 30 -6 54.5t-15 42.5t-26.5 34t-32 26t-41.5 21.5t-44.5 17.5t-49.5 17l-190 64q-67 22 -94 31.5t-59.5 24.5t-55.5 32z" />
    <glyph glyph-name="t" unicode="t" horiz-adv-x="612" 
d="M178 395v957h82v-285h326v-80h-326v-594q0 -141 6 -194q9 -81 72 -103q47 -16 203 -28v-82q-166 12 -230 32q-89 27 -114 103q-13 40 -16 94t-3 180z" />
    <glyph glyph-name="u" unicode="u" horiz-adv-x="1155" 
d="M178 1081h82v-684q0 -83 2 -123t15 -93.5t39.5 -77t76.5 -41t125 -17.5q73 0 148 11.5t116 22.5t111 32v970h82v-1032q-112 -32 -166 -46t-132 -26t-153 -12q-48 0 -88 4t-72 14t-57 22t-44 31t-33 38.5t-23 48.5t-15 56t-9 65.5t-4 73t-1 81.5v682z" />
    <glyph glyph-name="v" unicode="v" horiz-adv-x="989" 
d="M426 0l-395 1081h90l373 -1024l374 1024h90l-397 -1081h-135z" />
    <glyph glyph-name="w" unicode="w" horiz-adv-x="1540" 
d="M350 0l-309 1081h86l283 -991l299 991h122l299 -991l283 991h86l-309 -1081h-117l-303 1006l-303 -1006h-117z" />
    <glyph glyph-name="x" unicode="x" horiz-adv-x="966" 
d="M20 0l398 553l-375 528h102l338 -477l342 477h101l-377 -528l397 -553h-102l-361 502l-362 -502h-101z" />
    <glyph glyph-name="y" unicode="y" horiz-adv-x="997" 
d="M453 20l-424 1061h90l379 -948l383 948h88l-594 -1474h-90z" />
    <glyph glyph-name="z" unicode="z" horiz-adv-x="1056" 
d="M973 0h-881v72l750 929h-717v80h831v-71l-749 -930h766v-80z" />
    <glyph glyph-name="braceleft" unicode="{" horiz-adv-x="653" 
d="M76 612q17 7 92 39q45 21 66.5 51t21.5 89v540q0 42 6.5 74.5t16.5 55t29.5 38t39 24.5t51 13.5t59.5 6t70 1.5h43v-82h-67q-40 0 -67 -3.5t-45.5 -14t-28.5 -22t-15.5 -36.5t-6.5 -47.5t-1 -64.5v-473q0 -90 -35.5 -141.5t-116.5 -84.5q89 -35 120.5 -82.5t31.5 -146.5
v-469q0 -42 1 -64.5t6.5 -47.5t15.5 -36.5t28.5 -22t45.5 -14t67 -3.5h67v-82h-43q-42 0 -69.5 1.5t-59 6t-51 13.5t-39 24.5t-30 38t-17 55t-6.5 74.5v534q0 64 -17 91.5t-63 50.5q-33 16 -100 41v75z" />
    <glyph glyph-name="bar" unicode="|" horiz-adv-x="512" 
d="M297 -393h-82v1937h82v-1937z" />
    <glyph glyph-name="braceright" unicode="}" horiz-adv-x="653" 
d="M147 1462h-67v82h43q42 0 69.5 -1.5t59 -6t51 -13.5t39 -24.5t30 -38t17 -55t6.5 -74.5v-540q0 -59 21.5 -89t66.5 -51q75 -32 92 -39v-75q-37 -14 -100 -41q-46 -21 -63 -49.5t-17 -92.5v-534q0 -42 -6.5 -74.5t-16.5 -55t-29.5 -38t-39 -24.5t-51 -13.5t-59.5 -6
t-70 -1.5h-43v82h67q40 0 67 3.5t45.5 14t28.5 22t15.5 36.5t6.5 47.5t1 64.5v469q0 99 31.5 146.5t120.5 82.5q-81 33 -116.5 84.5t-35.5 141.5v473q0 42 -1 64.5t-6.5 47.5t-15.5 36.5t-28.5 22t-45.5 14t-67 3.5z" />
    <glyph glyph-name="asciitilde" unicode="~" horiz-adv-x="1613" 
d="M197 406h-86q6 58 12.5 100t19.5 100t29.5 99.5t43.5 86.5t61 72.5t82.5 45.5t107.5 18q94 0 168.5 -40.5t146.5 -135.5l86 -113q28 -37 53 -63t60.5 -54.5t79 -43.5t92.5 -15q77 0 127.5 45t83.5 137q30 79 55 256h86q-7 -56 -13.5 -97t-20 -99t-30 -99.5t-44 -86.5
t-60.5 -73t-81 -46.5t-105 -18.5q-198 0 -350 203l-68 90q-30 40 -50 62.5t-54.5 52t-75.5 43.5t-90 14q-44 0 -81 -17t-62 -41.5t-45.5 -65t-32.5 -75t-22 -85t-14 -80.5t-9 -76z" />
    <glyph glyph-name="uni00A0" unicode="&#xa0;" horiz-adv-x="530" 
 />
    <glyph glyph-name="exclamdown" unicode="&#xa1;" horiz-adv-x="538" 
d="M205 -147q0 745 2 806h82q2 -61 2 -806v-246h-86v246zM307 895h-119v256h119v-256z" />
    <glyph glyph-name="cent" unicode="&#xa2;" horiz-adv-x="1058" 
d="M180 530q0 55 1 94t5.5 88.5t12 85t21 76t33 69t48 56.5t64.5 46t84.5 30.5t107.5 16.5v215h82v-217q91 -6 281 -60v-84q-213 66 -318 66q-46 0 -78.5 -3t-69 -12.5t-63 -27t-51.5 -48.5t-43 -75q-33 -81 -33 -311q0 -85 6 -146t26.5 -123.5t56.5 -101t98.5 -62.5
t150.5 -24q118 0 318 53v-82q-184 -45 -281 -51v-229h-82v229q-92 7 -160 38.5t-109 79t-66 116.5t-33.5 139t-8.5 159z" />
    <glyph glyph-name="sterling" unicode="&#xa3;" horiz-adv-x="1261" 
d="M1124 0h-878v1171q0 111 17 184.5t59.5 125.5t116 75t186.5 23q133 0 424 -63v-84q-298 65 -424 65q-93 0 -150.5 -16.5t-90 -58t-43.5 -98t-11 -148.5v-234h473v-82h-473v-778h794v-82z" />
    <glyph glyph-name="currency" unicode="&#xa4;" horiz-adv-x="1480" 
d="M201 211l227 266q-76 94 -76 293q0 198 78 291l-229 272h110l178 -211q45 28 114.5 46t141.5 18q65 0 134 -18.5t110 -47.5l180 213h111l-231 -272q88 -101 88 -285q0 -193 -84 -297l227 -268h-111l-180 213q-89 -64 -244 -64q-162 0 -256 60l-178 -209h-110zM741 1104
q-166 0 -235.5 -80.5t-69.5 -251.5q0 -177 67 -253.5t240 -76.5q164 0 237 84.5t73 251.5q0 159 -78 242.5t-234 83.5z" />
    <glyph glyph-name="yen" unicode="&#xa5;" horiz-adv-x="1310" 
d="M37 1544h100l516 -856l521 856h100l-365 -602h303v-82h-354l-162 -268v-592h-84v590l-163 270h-353v82h303z" />
    <glyph glyph-name="brokenbar" unicode="&#xa6;" horiz-adv-x="512" 
d="M297 688h-82v856h82v-856zM297 -393h-82v856h82v-856z" />
    <glyph glyph-name="section" unicode="&#xa7;" horiz-adv-x="1304" 
d="M203 782q0 55 26.5 112.5t55.5 94t77 88.5q-59 48 -80.5 100t-21.5 134q0 268 406 268q92 0 397 -53v-86q-285 57 -397 57q-32 0 -58.5 -1t-61 -5.5t-61 -12.5t-54 -22t-45 -33t-29 -47.5t-11.5 -64.5q0 -91 43 -137q24 -27 61.5 -50.5t114.5 -64.5l256 -135
q158 -84 207 -127q74 -65 74 -174q0 -44 -13 -84.5t-40.5 -79t-50.5 -64.5t-62 -65q67 -46 94 -104t27 -144q0 -58 -30.5 -119.5t-82.5 -99.5q-108 -78 -326 -78q-114 0 -387 49v84q259 -51 385 -51q49 0 92.5 4.5t93.5 18t85.5 36t59.5 63t24 93.5q0 86 -31 127
q-13 17 -39 35.5t-48 31.5t-73 41l-282 152q-171 92 -226 141q-69 63 -69 172zM434 1034q-65 -65 -105 -125.5t-40 -126.5q0 -80 55 -123q51 -40 168 -102l348 -186q63 63 98 106q58 73 58 144q0 77 -55 120q-44 36 -156 97z" />
    <glyph glyph-name="dieresis" unicode="&#xa8;" horiz-adv-x="768" 
d="M594 1286h-88v258h88v-258zM262 1286h-88v258h88v-258z" />
    <glyph glyph-name="copyright" unicode="&#xa9;" horiz-adv-x="1931" 
d="M967 -35q-236 0 -416.5 101.5t-278.5 285t-98 420.5t98 420.5t278.5 285t416.5 101.5q235 0 415 -101.5t277.5 -284.5t97.5 -421t-97.5 -421t-277.5 -284.5t-415 -101.5zM258 772q0 -213 85 -376.5t247 -256t377 -92.5q214 0 375 92.5t246 256t85 376.5t-85 376.5
t-246 256t-375 92.5q-215 0 -377 -92.5t-247 -256t-85 -376.5zM969 315q-111 0 -189 33t-120.5 96.5t-61 143t-18.5 186.5q0 110 18 190.5t60.5 144.5t120 97t190.5 33q143 0 309 -49v-84q-189 51 -309 51q-92 0 -154 -27.5t-94 -82t-44.5 -119t-12.5 -154.5
q0 -88 12.5 -151.5t45 -117t94 -81t153.5 -27.5q107 0 309 37v-84q-206 -35 -309 -35z" />
    <glyph glyph-name="ordfeminine" unicode="&#xaa;" horiz-adv-x="942" 
d="M389 727q-53 0 -94.5 14.5t-69 37t-47.5 59t-30.5 70.5t-16 83t-7 85t-1.5 87q0 100 15.5 172t54 129.5t108.5 86t174 28.5q107 0 316 -76v-753h-80v149l-97 -78q-116 -94 -225 -94zM207 1163q0 -185 35 -264q22 -50 54.5 -71t92.5 -21q79 0 178 78q78 61 144 119v442
q-157 53 -240 53q-67 0 -115 -16.5t-77 -44t-45 -72t-21.5 -91.5t-5.5 -112z" />
    <glyph glyph-name="guillemotleft" unicode="&#xab;" horiz-adv-x="995" 
d="M485 119l-344 422l344 422h113l-344 -422l344 -422h-113zM834 119l-342 422l342 422h112l-342 -422l342 -422h-112z" />
    <glyph glyph-name="logicalnot" unicode="&#xac;" horiz-adv-x="1433" 
d="M1251 481h-84v518h-985v82h1069v-600z" />
    <glyph glyph-name="registered" unicode="&#xae;" horiz-adv-x="1931" 
d="M967 -35q-236 0 -416.5 101.5t-278.5 285t-98 420.5t98 420.5t278.5 285t416.5 101.5q235 0 415 -101.5t277.5 -284.5t97.5 -421t-97.5 -421t-277.5 -284.5t-415 -101.5zM967 1497q-215 0 -377 -92.5t-247 -256t-85 -376.5t85 -376.5t247 -256t377 -92.5q214 0 375 92.5
t246 256t85 376.5t-85 376.5t-246 256t-375 92.5zM750 336h-84v883h338q64 0 112.5 -7.5t96.5 -29t74 -66.5t26 -112q0 -45 -13 -86t-42.5 -81t-51 -64t-63.5 -66l211 -371h-99l-202 356h-303v-356zM750 1137v-363h346q24 26 67 78q64 80 64 149q0 38 -14 65t-32.5 40.5
t-52 21t-56.5 8.5t-62 1h-260z" />
    <glyph glyph-name="macron" unicode="&#xaf;" horiz-adv-x="768" 
d="M657 1331h-546v82h546v-82z" />
    <glyph glyph-name="degree" unicode="&#xb0;" horiz-adv-x="940" 
d="M467 907q-154 0 -244 91t-90 247t90 245t244 89q156 0 248 -89t92 -245t-92 -247t-248 -91zM217 1245q0 -121 66.5 -188.5t187.5 -67.5q120 0 186 68t66 188q0 121 -66 186.5t-186 65.5q-122 0 -188 -65.5t-66 -186.5z" />
    <glyph glyph-name="plusminus" unicode="&#xb1;" horiz-adv-x="1433" 
d="M182 813h492v502h84v-502h493v-82h-493v-532h-84v532h-492v82zM1251 0h-1069v82h1069v-82z" />
    <glyph glyph-name="twosuperior" unicode="&#xb2;" horiz-adv-x="776" 
d="M82 1018q269 262 395 401q76 84 76 166q0 69 -41 103t-113 34q-112 0 -288 -45v82q176 43 280 43q114 0 179 -54t65 -165q0 -64 -23 -114.5t-80 -112.5q-174 -190 -354 -352h502v-82h-598v96z" />
    <glyph glyph-name="threesuperior" unicode="&#xb3;" horiz-adv-x="839" 
d="M117 1012q187 -33 260 -33q219 0 219 170q0 92 -55.5 128t-151.5 36h-188v80h293l36 49q58 79 58 141q0 139 -189 139q-100 0 -276 -43v82q181 41 276 41q55 0 102.5 -12t86.5 -36.5t61.5 -67.5t22.5 -101q0 -69 -51 -143q-12 -18 -60 -82q62 -38 90.5 -85.5t28.5 -119.5
q0 -131 -83.5 -193.5t-219.5 -62.5q-83 0 -260 31v82z" />
    <glyph glyph-name="acute" unicode="&#xb4;" horiz-adv-x="768" 
d="M336 1274h-115l234 270h116z" />
    <glyph glyph-name="uni00B5" unicode="&#xb5;" horiz-adv-x="1144" 
d="M180 1081h82v-389q0 -239 14 -368q13 -119 80.5 -199t190.5 -80q138 0 338 66v970h82v-1032q-107 -33 -156 -47t-120 -25.5t-144 -11.5q-99 0 -174 40t-111 118v-516h-82v1474z" />
    <glyph glyph-name="paragraph" unicode="&#xb6;" horiz-adv-x="1314" 
d="M125 1055q0 253 108 372q60 67 144.5 92t220.5 25h483v-1937h-84v1855h-206v-1855h-84v956q-198 0 -297 25t-164 90q-121 121 -121 377z" />
    <glyph glyph-name="periodcentered" unicode="&#xb7;" horiz-adv-x="489" 
d="M305 412h-121v256h121v-256z" />
    <glyph glyph-name="cedilla" unicode="&#xb8;" horiz-adv-x="768" 
d="M352 -391h-106l164 268h108z" />
    <glyph glyph-name="onesuperior" unicode="&#xb9;" horiz-adv-x="552" 
d="M381 922h-82v772l-240 -76v86l322 102v-884z" />
    <glyph glyph-name="ordmasculine" unicode="&#xba;" horiz-adv-x="929" 
d="M186 850q-31 49 -48 131t-17 164q0 79 8 139.5t30.5 118t60 94.5t100 59.5t147.5 22.5q98 0 166.5 -31.5t106 -91.5t53.5 -133.5t16 -169.5q0 -426 -342 -426q-105 0 -173 30t-108 93zM205 1147q0 -65 5.5 -112t21.5 -92.5t44.5 -73.5t76.5 -45t114 -17q62 0 108.5 19
t74.5 50t45.5 77t23.5 93.5t6 106.5q0 63 -5 109.5t-21 93.5t-43.5 76.5t-75 48t-113.5 18.5q-69 0 -118 -18.5t-76.5 -47.5t-43 -77.5t-20 -95t-4.5 -113.5z" />
    <glyph glyph-name="guillemotright" unicode="&#xbb;" horiz-adv-x="995" 
d="M510 119h-113l344 422l-344 422h113l344 -422zM49 119l342 422l-342 422h113l342 -422l-342 -422h-113z" />
    <glyph glyph-name="onequarter" unicode="&#xbc;" horiz-adv-x="1628" 
d="M897 287l424 571h104l-426 -575h379v198h82v-481h-82v201h-481v86zM293 0l729 1544h90l-729 -1544h-90zM59 1382v86l322 103v-885h-82v772z" />
    <glyph glyph-name="onehalf" unicode="&#xbd;" horiz-adv-x="1609" 
d="M915 0v96q270 262 396 402q75 83 75 166q0 70 -40.5 103.5t-112.5 33.5q-113 0 -289 -45v82q176 43 281 43q114 0 178.5 -54t64.5 -165q0 -65 -22.5 -116t-79.5 -112q-174 -190 -354 -352h501v-82h-598zM383 0h-90l729 1544h90zM59 1468l322 103v-885h-82v772l-240 -76
v86z" />
    <glyph glyph-name="threequarters" unicode="&#xbe;" horiz-adv-x="1912" 
d="M117 694v82q187 -33 260 -33q219 0 219 170q0 92 -55.5 128t-151.5 36h-188v80h293l36 49q58 79 58 142q0 139 -189 139q-100 0 -276 -43v82q181 41 276 41q55 0 102.5 -12t86.5 -36.5t61.5 -67.5t22.5 -101q0 -70 -51 -144q-12 -18 -60 -82q62 -38 90.5 -85t28.5 -119
q0 -131 -83.5 -193.5t-219.5 -62.5q-89 0 -260 30zM1184 287l424 571h104l-426 -575h379v198h82v-481h-82v201h-481v86zM580 0l729 1544h90l-729 -1544h-90z" />
    <glyph glyph-name="questiondown" unicode="&#xbf;" horiz-adv-x="1013" 
d="M518 -428q-176 0 -274.5 83t-98.5 257q0 163 97 299q62 88 180 217q80 87 114 138t48 93h94q-31 -78 -64.5 -131.5t-115.5 -142.5q-134 -143 -179 -211q-47 -70 -67.5 -128t-20.5 -134q0 -135 71.5 -196.5t209.5 -61.5q102 0 346 65v-84q-222 -63 -340 -63zM573 895v256
h119v-256h-119z" />
    <glyph glyph-name="Agrave" unicode="&#xc0;" horiz-adv-x="1378" 
d="M43 0l590 1544h108l594 -1544h-92l-170 440h-772l-168 -440h-90zM332 522h710l-356 932zM403 1946h115l225 -271h-112z" />
    <glyph glyph-name="Aacute" unicode="&#xc1;" horiz-adv-x="1378" 
d="M43 0l590 1544h108l594 -1544h-92l-170 440h-772l-168 -440h-90zM332 522h710l-356 932zM741 1675h-114l233 271h117z" />
    <glyph glyph-name="Acircumflex" unicode="&#xc2;" horiz-adv-x="1378" 
d="M133 0h-90l590 1544h108l594 -1544h-92l-170 440h-772zM332 522h710l-356 932zM508 1632h-115l248 271h94l246 -271h-115l-178 193z" />
    <glyph glyph-name="Atilde" unicode="&#xc3;" horiz-adv-x="1378" 
d="M43 0l590 1544h108l594 -1544h-92l-170 440h-772l-168 -440h-90zM686 1454l-354 -932h710zM342 1683q47 124 92 169.5t117 45.5q40 0 74.5 -15t83.5 -56q48 -41 74 -56.5t57 -15.5q49 0 72 29t51 100h90q-17 -39 -25.5 -58t-24.5 -49t-29.5 -44t-34 -30t-45.5 -22t-56 -6
q-78 0 -144 58q-52 47 -82.5 66.5t-60.5 19.5q-20 0 -36.5 -8.5t-27.5 -19t-23 -32.5t-17.5 -35t-16.5 -41h-88z" />
    <glyph glyph-name="Adieresis" unicode="&#xc4;" horiz-adv-x="1378" 
d="M43 0l590 1544h108l594 -1544h-92l-170 440h-772l-168 -440h-90zM686 1454l-354 -932h710zM817 1946h90v-258h-90v258zM471 1688v258h90v-258h-90z" />
    <glyph glyph-name="Aring" unicode="&#xc5;" horiz-adv-x="1378" 
d="M133 0h-90l563 1475q-63 20 -99 73t-36 121q0 98 59 155.5t158 57.5t158 -57.5t59 -155.5q0 -69 -36 -121t-101 -73l567 -1475h-92l-170 440h-772zM332 522h710l-356 932zM688 1806q-68 0 -103.5 -35t-35.5 -102q0 -63 37.5 -97t101.5 -34t101.5 34t37.5 97
q0 67 -35.5 102t-103.5 35z" />
    <glyph glyph-name="AE" unicode="&#xc6;" horiz-adv-x="2187" 
d="M104 0h-100l1030 1544h1037v-82h-908v-631h862v-81h-862v-668h940v-82h-1024v440h-680zM455 522h624v942z" />
    <glyph glyph-name="Ccedilla" unicode="&#xc7;" horiz-adv-x="1347" 
d="M262 262q-67 161 -67 506q0 405 104 588q69 122 171.5 172.5t291.5 50.5q106 0 212 -20.5t251 -59.5v-84q-95 26 -156 40.5t-147.5 28t-159.5 13.5q-159 0 -251 -45.5t-149 -161.5q-39 -81 -60 -224.5t-21 -299.5q0 -315 61 -471q48 -126 146 -187t262 -61q177 0 475 68
v-86q-150 -32 -253 -48t-210 -16q-203 0 -319 70t-181 227zM662 -391h-107l164 268h108z" />
    <glyph glyph-name="Egrave" unicode="&#xc8;" horiz-adv-x="1333" 
d="M225 0v1544h992v-82h-908v-631h862v-81h-862v-668h940v-82h-1024zM713 1675l-228 271h115l225 -271h-112z" />
    <glyph glyph-name="Eacute" unicode="&#xc9;" horiz-adv-x="1333" 
d="M225 0v1544h992v-82h-908v-631h862v-81h-862v-668h940v-82h-1024zM594 1675l233 271h117l-235 -271h-115z" />
    <glyph glyph-name="Ecircumflex" unicode="&#xca;" horiz-adv-x="1333" 
d="M1249 0h-1024v1544h992v-82h-908v-631h862v-81h-862v-668h940v-82zM545 1645h-115l248 270h94l246 -270h-115l-178 192z" />
    <glyph glyph-name="Edieresis" unicode="&#xcb;" horiz-adv-x="1333" 
d="M225 0v1544h992v-82h-908v-631h862v-81h-862v-668h940v-82h-1024zM958 1688h-90v258h90v-258zM487 1688v258h91v-258h-91z" />
    <glyph glyph-name="Igrave" unicode="&#xcc;" horiz-adv-x="534" 
d="M309 0h-84v1544h84v-1544zM340 1675h-113l-229 271h117z" />
    <glyph glyph-name="Iacute" unicode="&#xcd;" horiz-adv-x="534" 
d="M309 0h-84v1544h84v-1544zM317 1675h-114l233 271h117z" />
    <glyph glyph-name="Icircumflex" unicode="&#xce;" horiz-adv-x="534" 
d="M309 0h-84v1544h84v-1544zM86 1675h-117l250 271h94l246 -271h-115l-178 193z" />
    <glyph glyph-name="Idieresis" unicode="&#xcf;" horiz-adv-x="534" 
d="M309 0h-84v1544h84v-1544zM332 1946h90v-258h-90v258zM203 1688h-90v258h90v-258z" />
    <glyph glyph-name="Eth" unicode="&#xd0;" horiz-adv-x="1554" 
d="M94 760v82h146v702h514q159 0 250 -26.5t167 -96.5q95 -86 142 -260.5t47 -382.5q0 -204 -43.5 -370.5t-134.5 -260.5q-78 -80 -182.5 -113.5t-262.5 -33.5h-497v760h-146zM324 842h469v-82h-469v-678h411q146 0 234.5 31.5t154.5 99.5q70 73 110 222.5t40 342.5
q0 184 -38 336t-110 232q-62 68 -148.5 92t-223.5 24h-430v-620z" />
    <glyph glyph-name="Ntilde" unicode="&#xd1;" horiz-adv-x="1548" 
d="M309 0h-84v1544h127l887 -1452v1452h84v-1544h-127l-887 1452v-1452zM520 1683h-88q47 124 92 169.5t117 45.5q40 0 74.5 -15t83.5 -56q48 -41 74 -56.5t57 -15.5q49 0 72 29t51 100h90q-17 -39 -25.5 -58t-24.5 -49t-29.5 -44t-34 -30t-45.5 -22t-56 -6q-78 0 -144 58
q-52 47 -82.5 66.5t-60.5 19.5q-20 0 -36.5 -8.5t-27.5 -19t-23 -32.5t-17.5 -35t-16.5 -41z" />
    <glyph glyph-name="Ograve" unicode="&#xd2;" horiz-adv-x="1640" 
d="M195 774q0 383 84 537q145 268 540 268q179 0 299.5 -50.5t196.5 -158.5q67 -95 99 -261t32 -335q0 -150 -27.5 -313.5t-93.5 -265.5q-81 -124 -206 -177t-300 -53q-200 0 -328 55t-194 168q-102 171 -102 586zM281 774q0 -152 19 -301t65 -229q34 -59 82 -99.5t109 -61
t122.5 -28.5t140.5 -8q139 0 237.5 35.5t172.5 124.5q69 82 100 237t31 330q0 153 -26 298t-79 233q-63 104 -171 148t-265 44q-80 0 -147 -12t-118 -32t-91.5 -53.5t-69 -70t-49 -87.5t-32.5 -100t-19 -113.5t-9.5 -122.5t-2.5 -132zM786 1675l-227 271h115l225 -271h-113z
" />
    <glyph glyph-name="Oacute" unicode="&#xd3;" horiz-adv-x="1640" 
d="M195 774q0 383 84 537q145 268 540 268q179 0 299.5 -50.5t196.5 -158.5q67 -95 99 -261t32 -335q0 -150 -27.5 -313.5t-93.5 -265.5q-81 -124 -206 -177t-300 -53q-200 0 -328 55t-194 168q-102 171 -102 586zM281 774q0 -152 19 -301t65 -229q34 -59 82 -99.5t109 -61
t122.5 -28.5t140.5 -8q139 0 237.5 35.5t172.5 124.5q69 82 100 237t31 330q0 153 -26 298t-79 233q-63 104 -171 148t-265 44q-80 0 -147 -12t-118 -32t-91.5 -53.5t-69 -70t-49 -87.5t-32.5 -100t-19 -113.5t-9.5 -122.5t-2.5 -132zM819 1675h-114l233 271h117z" />
    <glyph glyph-name="Ocircumflex" unicode="&#xd4;" horiz-adv-x="1640" 
d="M195 774q0 383 84 537q145 268 540 268q179 0 299.5 -50.5t196.5 -158.5q67 -95 99 -261t32 -335q0 -150 -27.5 -313.5t-93.5 -265.5q-81 -124 -206 -177t-300 -53q-200 0 -328 55t-194 168q-102 171 -102 586zM281 774q0 -152 19 -301t65 -229q34 -59 82 -99.5t109 -61
t122.5 -28.5t140.5 -8q139 0 237.5 35.5t172.5 124.5q69 82 100 237t31 330q0 153 -26 298t-79 233q-63 104 -171 148t-265 44q-80 0 -147 -12t-118 -32t-91.5 -53.5t-69 -70t-49 -87.5t-32.5 -100t-19 -113.5t-9.5 -122.5t-2.5 -132zM641 1675h-115l248 271h94l246 -271
h-115l-178 193z" />
    <glyph glyph-name="Otilde" unicode="&#xd5;" horiz-adv-x="1640" 
d="M297 188q-102 171 -102 586q0 383 84 537q145 268 540 268q179 0 299.5 -50.5t196.5 -158.5q67 -95 99 -261t32 -335q0 -150 -27.5 -313.5t-93.5 -265.5q-81 -124 -206 -177t-300 -53q-200 0 -328 55t-194 168zM819 1497q-80 0 -147 -12t-118 -32t-91.5 -53.5t-69 -70
t-49 -87.5t-32.5 -100t-19 -113.5t-9.5 -122.5t-2.5 -132q0 -152 19 -301t65 -229q34 -59 82 -99.5t109 -61t122.5 -28.5t140.5 -8q139 0 237.5 35.5t172.5 124.5q69 82 100 237t31 330q0 153 -26 298t-79 233q-63 104 -171 148t-265 44zM555 1683h-88q47 124 92 169.5
t117 45.5q40 0 74.5 -15t83.5 -56q48 -41 74 -56.5t57 -15.5q21 0 37.5 7t27 15t22 29t17 34t18.5 44h91q-17 -39 -25.5 -58t-24.5 -49t-29.5 -44t-34 -30t-45.5 -22t-56 -6q-78 0 -144 58q-52 47 -82.5 66.5t-60.5 19.5q-20 0 -36.5 -8.5t-27.5 -19t-23 -32.5t-17.5 -35
t-16.5 -41z" />
    <glyph glyph-name="Odieresis" unicode="&#xd6;" horiz-adv-x="1640" 
d="M297 188q-102 171 -102 586q0 383 84 537q145 268 540 268q179 0 299.5 -50.5t196.5 -158.5q67 -95 99 -261t32 -335q0 -150 -27.5 -313.5t-93.5 -265.5q-81 -124 -206 -177t-300 -53q-200 0 -328 55t-194 168zM281 774q0 -152 19 -301t65 -229q34 -59 82 -99.5t109 -61
t122.5 -28.5t140.5 -8q139 0 237.5 35.5t172.5 124.5q69 82 100 237t31 330q0 153 -26 298t-79 233q-63 104 -171 148t-265 44q-80 0 -147 -12t-118 -32t-91.5 -53.5t-69 -70t-49 -87.5t-32.5 -100t-19 -113.5t-9.5 -122.5t-2.5 -132zM973 1946h90v-258h-90v258zM666 1688
h-91v258h91v-258z" />
    <glyph glyph-name="multiply" unicode="&#xd7;" horiz-adv-x="1433" 
d="M260 1257h109l348 -417l348 417h109l-404 -481l404 -489h-109l-346 424l-350 -424h-109l406 487z" />
    <glyph glyph-name="Oslash" unicode="&#xd8;" horiz-adv-x="1640" 
d="M195 774q0 383 84 537q145 268 540 268q179 0 299.5 -50.5t196.5 -158.5q67 -95 99 -261t32 -335q0 -150 -27.5 -313.5t-93.5 -265.5q-81 -124 -206 -177t-300 -53q-200 0 -328 55t-194 168q-102 171 -102 586zM463 133q115 -86 356 -86q139 0 237.5 35.5t172.5 124.5
q69 82 100 237t31 330q0 101 -9 196.5t-42 206.5t-86 173zM819 1497q-80 0 -147 -12t-118 -32t-91.5 -53.5t-69 -70t-49 -87.5t-32.5 -100t-19 -113.5t-9.5 -122.5t-2.5 -132q0 -445 120 -584l760 1217q-116 90 -342 90z" />
    <glyph glyph-name="Ugrave" unicode="&#xd9;" horiz-adv-x="1513" 
d="M217 1544h84v-969q0 -100 6.5 -169.5t24.5 -132.5t50 -102.5t83.5 -69t123.5 -42t171 -12.5q86 0 151 10t113 28.5t81.5 52t54.5 72.5t32.5 98t15.5 120t4 147v969h84v-971q0 -210 -28 -322t-119 -185q-67 -54 -160.5 -77.5t-228.5 -23.5q-136 0 -229.5 23.5t-163.5 79.5
q-87 67 -118.5 184t-31.5 321v971zM528 1946h115l225 -271h-112z" />
    <glyph glyph-name="Uacute" unicode="&#xda;" horiz-adv-x="1513" 
d="M217 1544h84v-969q0 -100 6.5 -169.5t24.5 -132.5t50 -102.5t83.5 -69t123.5 -42t171 -12.5q86 0 151 10t113 28.5t81.5 52t54.5 72.5t32.5 98t15.5 120t4 147v969h84v-971q0 -210 -28 -322t-119 -185q-67 -54 -160.5 -77.5t-228.5 -23.5q-136 0 -229.5 23.5t-163.5 79.5
q-87 67 -118.5 184t-31.5 321v971zM741 1675h-114l233 271h117z" />
    <glyph glyph-name="Ucircumflex" unicode="&#xdb;" horiz-adv-x="1513" 
d="M217 573v971h84v-969q0 -100 6.5 -169.5t24.5 -132.5t50 -102.5t83.5 -69t123.5 -42t171 -12.5q86 0 151 10t113 28.5t81.5 52t54.5 72.5t32.5 98t15.5 120t4 147v969h84v-971q0 -210 -28 -322t-119 -185q-67 -54 -160.5 -77.5t-228.5 -23.5q-136 0 -229.5 23.5
t-163.5 79.5q-87 67 -118.5 184t-31.5 321zM467 1675l248 271h94l246 -271h-115l-178 193l-180 -193h-115z" />
    <glyph glyph-name="Udieresis" unicode="&#xdc;" horiz-adv-x="1513" 
d="M217 573v971h84v-969q0 -100 6.5 -169.5t24.5 -132.5t50 -102.5t83.5 -69t123.5 -42t171 -12.5q86 0 151 10t113 28.5t81.5 52t54.5 72.5t32.5 98t15.5 120t4 147v969h84v-971q0 -210 -28 -322t-119 -185q-67 -54 -160.5 -77.5t-228.5 -23.5q-136 0 -229.5 23.5
t-163.5 79.5q-87 67 -118.5 184t-31.5 321zM895 1688v258h90v-258h-90zM528 1946h90v-258h-90v258z" />
    <glyph glyph-name="Yacute" unicode="&#xdd;" horiz-adv-x="1212" 
d="M-12 1544h100l518 -854l518 854h101l-576 -950v-594h-86v594zM477 1675l234 271h116l-235 -271h-115z" />
    <glyph glyph-name="Thorn" unicode="&#xde;" horiz-adv-x="1337" 
d="M225 1544h84v-293h455q138 0 218.5 -27.5t135.5 -90.5q45 -51 68.5 -129t23.5 -164q0 -199 -82 -320q-43 -65 -110 -98t-172 -45q-90 -10 -537 -10v-367h-84v1544zM309 1169v-720q416 0 529 12q88 10 141 36.5t88 86.5q57 97 57 256q0 75 -21 143.5t-63 110.5
q-44 44 -108 59.5t-166 15.5h-457z" />
    <glyph glyph-name="germandbls" unicode="&#xdf;" 
d="M262 0h-82v1047q0 138 13 229q18 129 121 209t237 80q157 0 245.5 -72.5t88.5 -226.5q0 -132 -111 -260q-82 -95 -145 -158l237 -209q93 -83 143 -162t50 -182q0 -66 -23.5 -119.5t-63 -89t-93 -59.5t-110.5 -34.5t-118 -10.5q-91 0 -217 18v82q140 -21 225 -21
q46 0 89.5 7.5t85 25.5t72.5 44t50 66.5t19 90.5q0 85 -38.5 145.5t-117.5 130.5l-309 273q122 122 188 200q60 70 81.5 118t21.5 102q0 118 -64 169.5t-186 51.5q-67 0 -136.5 -32.5t-103.5 -86.5q-35 -55 -43 -143q-6 -70 -6 -174v-1049z" />
    <glyph glyph-name="agrave" unicode="&#xe0;" 
d="M487 -35q-68 0 -122.5 20t-90.5 51.5t-62.5 80.5t-40.5 96.5t-22 112t-10 113t-2 112.5q0 101 11 181t41.5 154t79.5 123t128.5 78t186.5 29q56 0 129 -17.5t124.5 -35.5t149.5 -55v-1008h-82v199q-59 -53 -133 -113q-77 -62 -141.5 -91.5t-143.5 -29.5zM221 551
q0 -43 0.5 -69t3 -72t7 -76.5t13.5 -72.5t22 -69.5t33.5 -57.5t46.5 -48t61.5 -29.5t78.5 -11.5q100 0 218 92q123 97 200 168v647q-77 29 -115 42.5t-99.5 27.5t-112.5 14q-89 0 -154.5 -26.5t-104 -68.5t-61 -107.5t-30 -131t-7.5 -151.5zM594 1274l-227 270h114l226 -270
h-113z" />
    <glyph glyph-name="aacute" unicode="&#xe1;" 
d="M487 -35q-68 0 -122.5 20t-90.5 51.5t-62.5 80.5t-40.5 96.5t-22 112t-10 113t-2 112.5q0 101 11 181t41.5 154t79.5 123t128.5 78t186.5 29q56 0 129 -17.5t124.5 -35.5t149.5 -55v-1008h-82v199q-59 -53 -133 -113q-77 -62 -141.5 -91.5t-143.5 -29.5zM221 551
q0 -43 0.5 -69t3 -72t7 -76.5t13.5 -72.5t22 -69.5t33.5 -57.5t46.5 -48t61.5 -29.5t78.5 -11.5q100 0 218 92q123 97 200 168v647q-77 29 -115 42.5t-99.5 27.5t-112.5 14q-89 0 -154.5 -26.5t-104 -68.5t-61 -107.5t-30 -131t-7.5 -151.5zM590 1274h-115l234 270h116z" />
    <glyph glyph-name="acircumflex" unicode="&#xe2;" 
d="M487 -35q-68 0 -122.5 20t-90.5 51.5t-62.5 80.5t-40.5 96.5t-22 112t-10 113t-2 112.5q0 101 11 181t41.5 154t79.5 123t128.5 78t186.5 29q56 0 129 -17.5t124.5 -35.5t149.5 -55v-1008h-82v199q-59 -53 -133 -113q-77 -62 -141.5 -91.5t-143.5 -29.5zM578 1036
q-89 0 -154.5 -26.5t-104 -68.5t-61 -107.5t-30 -131t-7.5 -151.5q0 -43 0.5 -69t3 -72t7 -76.5t13.5 -72.5t22 -69.5t33.5 -57.5t46.5 -48t61.5 -29.5t78.5 -11.5q100 0 218 92q123 97 200 168v647q-77 29 -115 42.5t-99.5 27.5t-112.5 14zM319 1278l248 270h95l245 -270
h-114l-179 192l-180 -192h-115z" />
    <glyph glyph-name="atilde" unicode="&#xe3;" 
d="M137 551q0 101 11 181t41.5 154t79.5 123t128.5 78t186.5 29q56 0 129 -17.5t124.5 -35.5t149.5 -55v-1008h-82v199q-59 -53 -133 -113q-77 -62 -141.5 -91.5t-143.5 -29.5t-136.5 23.5t-89.5 58.5t-60 90q-31 62 -47.5 174.5t-16.5 239.5zM221 551q0 -43 0.5 -69t3 -72
t7 -76.5t13.5 -72.5t22 -69.5t33.5 -57.5t46.5 -48t61.5 -29.5t78.5 -11.5q100 0 218 92q123 97 200 168v647q-77 29 -115 42.5t-99.5 27.5t-112.5 14q-89 0 -154.5 -26.5t-104 -68.5t-61 -107.5t-30 -131t-7.5 -151.5zM336 1288h-88q47 124 92 169.5t117 45.5q40 0 74 -15
t83 -56q48 -41 74 -56.5t57 -15.5q49 0 72 29t51 100h90q-17 -39 -25.5 -58t-24.5 -49t-29.5 -44t-34 -30t-45.5 -22t-56 -6q-42 0 -74 12t-69 45q-52 47 -82.5 66.5t-60.5 19.5q-24 0 -43 -10t-34 -33.5t-22.5 -40t-21.5 -51.5z" />
    <glyph glyph-name="adieresis" unicode="&#xe4;" 
d="M487 -35q-68 0 -122.5 20t-90.5 51.5t-62.5 80.5t-40.5 96.5t-22 112t-10 113t-2 112.5q0 101 11 181t41.5 154t79.5 123t128.5 78t186.5 29q56 0 129 -17.5t124.5 -35.5t149.5 -55v-1008h-82v199q-59 -53 -133 -113q-77 -62 -141.5 -91.5t-143.5 -29.5zM221 551
q0 -43 0.5 -69t3 -72t7 -76.5t13.5 -72.5t22 -69.5t33.5 -57.5t46.5 -48t61.5 -29.5t78.5 -11.5q100 0 218 92q123 97 200 168v647q-77 29 -115 42.5t-99.5 27.5t-112.5 14q-89 0 -154.5 -26.5t-104 -68.5t-61 -107.5t-30 -131t-7.5 -151.5zM809 1286h-88v258h88v-258z
M360 1544h89v-258h-89v258z" />
    <glyph glyph-name="aring" unicode="&#xe5;" 
d="M487 -35q-68 0 -122.5 20t-90.5 51.5t-62.5 80.5t-40.5 96.5t-22 112t-10 113t-2 112.5q0 101 11 181t41.5 154t79.5 123t128.5 78t186.5 29q56 0 129 -17.5t124.5 -35.5t149.5 -55v-1008h-82v199q-59 -53 -133 -113q-77 -62 -141.5 -91.5t-143.5 -29.5zM221 551
q0 -43 0.5 -69t3 -72t7 -76.5t13.5 -72.5t22 -69.5t33.5 -57.5t46.5 -48t61.5 -29.5t78.5 -11.5q100 0 218 92q123 97 200 168v647q-77 29 -115 42.5t-99.5 27.5t-112.5 14q-89 0 -154.5 -26.5t-104 -68.5t-61 -107.5t-30 -131t-7.5 -151.5zM590 1223q-95 0 -156 56.5
t-61 150.5q0 98 59 155t158 57t158 -57t59 -155q0 -94 -61 -150.5t-156 -56.5zM451 1430q0 -63 37.5 -97.5t101.5 -34.5t101.5 34.5t37.5 97.5q0 67 -35.5 102t-103.5 35t-103.5 -35t-35.5 -102z" />
    <glyph glyph-name="ae" unicode="&#xe6;" horiz-adv-x="1880" 
d="M133 272q0 64 16 114t38 82.5t64.5 55t76 34t94 17t96 6.5t103.5 1h268v159q0 63 -3.5 102.5t-14.5 76t-29.5 56t-52 34.5t-78.5 20.5t-111 5.5q-77 0 -205.5 -22.5t-218.5 -44.5v82q283 65 420 65q154 0 238.5 -38.5t121.5 -139.5q91 178 377 178q203 0 309.5 -105.5
t106.5 -303.5q0 -91 -20 -205h-760q0 -80 5 -136.5t19 -112t41 -91t69.5 -64t105 -41t147.5 -12.5q119 0 338 45v-84q-200 -41 -338 -41q-347 0 -434 234q-65 -51 -105.5 -80.5t-107.5 -71t-129.5 -62t-120.5 -20.5q-163 0 -244.5 72.5t-81.5 234.5zM969 582h686
q10 58 10 123q0 331 -332 331q-90 0 -156 -23t-105.5 -61t-63 -98t-31.5 -123.5t-8 -148.5zM297 453q-80 -51 -80 -181q0 -120 56 -172.5t176 -52.5q50 0 108.5 20.5t124.5 61t106 68t101 73.5v232h-283q-119 0 -189 -8.5t-120 -40.5z" />
    <glyph glyph-name="ccedilla" unicode="&#xe7;" horiz-adv-x="983" 
d="M215 135q-78 144 -78 400q0 236 43 356q41 118 130 171.5t263 53.5q117 0 314 -63v-82q-209 65 -314 65q-132 0 -203 -35t-108 -129q-41 -101 -41 -337q0 -106 18 -205.5t50 -155.5q42 -74 110 -101.5t174 -27.5q107 0 314 53v-82q-219 -51 -314 -51q-144 0 -225.5 38.5
t-132.5 131.5zM459 -391h-107l164 268h109z" />
    <glyph glyph-name="egrave" unicode="&#xe8;" horiz-adv-x="1134" 
d="M610 -35q-85 0 -153 13.5t-117 38t-85 64t-58.5 84.5t-36 106.5t-18.5 124.5t-5 143q0 106 10 185.5t39 156.5t77.5 126t130.5 79t194 30q203 0 309.5 -105.5t106.5 -303.5q0 -85 -21 -205h-764q0 -115 16 -193.5t58 -141t120.5 -92.5t196.5 -30q112 0 338 43v-82
q-200 -41 -338 -41zM219 582h690q11 64 11 125q0 329 -332 329q-88 0 -153.5 -23t-106.5 -61.5t-65.5 -98t-34 -124t-9.5 -147.5zM588 1274l-228 270h115l225 -270h-112z" />
    <glyph glyph-name="eacute" unicode="&#xe9;" horiz-adv-x="1134" 
d="M610 -35q-85 0 -153 13.5t-117 38t-85 64t-58.5 84.5t-36 106.5t-18.5 124.5t-5 143q0 106 10 185.5t39 156.5t77.5 126t130.5 79t194 30q203 0 309.5 -105.5t106.5 -303.5q0 -85 -21 -205h-764q0 -115 16 -193.5t58 -141t120.5 -92.5t196.5 -30q112 0 338 43v-82
q-200 -41 -338 -41zM219 582h690q11 64 11 125q0 329 -332 329q-88 0 -153.5 -23t-106.5 -61.5t-65.5 -98t-34 -124t-9.5 -147.5zM469 1274l233 270h117l-235 -270h-115z" />
    <glyph glyph-name="ecircumflex" unicode="&#xea;" horiz-adv-x="1134" 
d="M137 539q0 106 10 185.5t39 156.5t77.5 126t130.5 79t194 30q203 0 309.5 -105.5t106.5 -303.5q0 -85 -21 -205h-764q0 -115 16 -193.5t58 -141t120.5 -92.5t196.5 -30q112 0 338 43v-82q-200 -41 -338 -41q-85 0 -153 13.5t-117 38t-85 64t-58.5 84.5t-36 106.5
t-18.5 124.5t-5 143zM588 1036q-88 0 -153.5 -22.5t-106.5 -61t-65.5 -98t-34 -124t-9.5 -148.5h690q11 64 11 125q0 329 -332 329zM406 1278h-115l248 270h94l246 -270h-115l-178 192z" />
    <glyph glyph-name="edieresis" unicode="&#xeb;" horiz-adv-x="1134" 
d="M610 -35q-85 0 -153 13.5t-117 38t-85 64t-58.5 84.5t-36 106.5t-18.5 124.5t-5 143q0 106 10 185.5t39 156.5t77.5 126t130.5 79t194 30q203 0 309.5 -105.5t106.5 -303.5q0 -85 -21 -205h-764q0 -115 16 -193.5t58 -141t120.5 -92.5t196.5 -30q112 0 338 43v-82
q-200 -41 -338 -41zM219 582h690q11 64 11 125q0 329 -332 329q-88 0 -153.5 -23t-106.5 -61.5t-65.5 -98t-34 -124t-9.5 -147.5zM700 1544h88v-258h-88v258zM375 1544h88v-258h-88v258z" />
    <glyph glyph-name="igrave" unicode="&#xec;" horiz-adv-x="442" 
d="M299 1274h-113l-227 270h115zM262 0h-82v1081h82v-1081z" />
    <glyph glyph-name="iacute" unicode="&#xed;" horiz-adv-x="442" 
d="M242 1274h-115l233 270h117zM262 0h-82v1081h82v-1081z" />
    <glyph glyph-name="icircumflex" unicode="&#xee;" horiz-adv-x="442" 
d="M180 0v1081h82v-1081h-82zM39 1274h-115l248 270h94l246 -270h-115l-178 192z" />
    <glyph glyph-name="idieresis" unicode="&#xef;" horiz-adv-x="442" 
d="M262 0h-82v1081h82v-1081zM72 1286v258h88v-258h-88zM285 1544h86v-258h-86v258z" />
    <glyph glyph-name="eth" unicode="&#xf0;" horiz-adv-x="1181" 
d="M580 -35q-126 0 -214.5 38t-137.5 111t-70 165t-21 215q0 99 10.5 174.5t39 145t76.5 114t126.5 70.5t185.5 26q53 0 117.5 -14.5t103.5 -28t101 -37.5q-15 88 -52.5 191t-105.5 186l-319 -164v88l258 133q-109 84 -258 121v88q225 -73 336 -168l231 121v-90l-174 -90
q74 -92 122.5 -241.5t67.5 -302t19 -316.5q0 -94 -12.5 -171t-44 -146t-81 -116t-126.5 -74.5t-178 -27.5zM563 940q-86 0 -148 -23t-99 -60.5t-59 -96.5t-29 -120t-7 -142q0 -205 66 -316q46 -77 114.5 -107t178.5 -30q87 0 151.5 24t103.5 64t62.5 101.5t32 126t8.5 147.5
q0 209 -27 344q-218 88 -348 88z" />
    <glyph glyph-name="ntilde" unicode="&#xf1;" horiz-adv-x="1177" 
d="M262 0h-82v1081h82v-88q97 44 150 65t126 39.5t138 18.5q60 0 107.5 -9t81.5 -25.5t58.5 -43.5t39.5 -57.5t23.5 -74t11.5 -86.5t3 -101v-719h-81v723q0 47 -2 79.5t-7.5 67.5t-16 58.5t-28.5 45.5t-44 34.5t-62.5 20t-83.5 7.5q-60 0 -141 -23.5t-131.5 -45
t-141.5 -62.5v-905zM332 1288h-88q47 124 92 169.5t117 45.5q40 0 74 -15t83 -56q48 -41 74 -56.5t57 -15.5q49 0 72 29t51 100h90q-17 -39 -25.5 -58t-24.5 -49t-29.5 -44t-34 -30t-45.5 -22t-56 -6q-42 0 -74 12t-69 45q-52 47 -82.5 66.5t-60.5 19.5q-24 0 -43 -10
t-34 -33.5t-22.5 -40t-21.5 -51.5z" />
    <glyph glyph-name="ograve" unicode="&#xf2;" 
d="M137 535q0 104 9.5 183t38 157.5t76.5 128.5t129.5 81t193.5 31q109 0 189 -28.5t128.5 -77t78 -123.5t40 -155.5t10.5 -186.5q0 -103 -10 -183t-39 -157.5t-77.5 -127.5t-129.5 -81t-190 -31q-138 0 -222.5 37.5t-138.5 122.5q-41 65 -63.5 177t-22.5 233zM221 537
q0 -106 17.5 -203t48.5 -152q44 -78 113.5 -107.5t183.5 -29.5q215 0 293 133q69 120 69 369q0 91 -6.5 155.5t-28 132t-60 108.5t-106 67t-161.5 26q-68 0 -122.5 -14t-92 -37.5t-65 -61.5t-43.5 -77.5t-25 -93.5t-12 -103t-3 -112zM580 1274l-228 270h115l225 -270h-112z
" />
    <glyph glyph-name="oacute" unicode="&#xf3;" 
d="M137 535q0 104 9.5 183t38 157.5t76.5 128.5t129.5 81t193.5 31q109 0 189 -28.5t128.5 -77t78 -123.5t40 -155.5t10.5 -186.5q0 -103 -10 -183t-39 -157.5t-77.5 -127.5t-129.5 -81t-190 -31q-138 0 -222.5 37.5t-138.5 122.5q-41 65 -63.5 177t-22.5 233zM221 537
q0 -106 17.5 -203t48.5 -152q44 -78 113.5 -107.5t183.5 -29.5q215 0 293 133q69 120 69 369q0 91 -6.5 155.5t-28 132t-60 108.5t-106 67t-161.5 26q-68 0 -122.5 -14t-92 -37.5t-65 -61.5t-43.5 -77.5t-25 -93.5t-12 -103t-3 -112zM559 1274h-115l234 270h117z" />
    <glyph glyph-name="ocircumflex" unicode="&#xf4;" 
d="M137 535q0 104 9.5 183t38 157.5t76.5 128.5t129.5 81t193.5 31q109 0 189 -28.5t128.5 -77t78 -123.5t40 -155.5t10.5 -186.5q0 -103 -10 -183t-39 -157.5t-77.5 -127.5t-129.5 -81t-190 -31q-138 0 -222.5 37.5t-138.5 122.5q-41 65 -63.5 177t-22.5 233zM221 537
q0 -106 17.5 -203t48.5 -152q44 -78 113.5 -107.5t183.5 -29.5q215 0 293 133q69 120 69 369q0 91 -6.5 155.5t-28 132t-60 108.5t-106 67t-161.5 26q-68 0 -122.5 -14t-92 -37.5t-65 -61.5t-43.5 -77.5t-25 -93.5t-12 -103t-3 -112zM406 1280h-115l248 270h94l246 -270
h-115l-178 193z" />
    <glyph glyph-name="otilde" unicode="&#xf5;" 
d="M137 535q0 104 9.5 183t38 157.5t76.5 128.5t129.5 81t193.5 31q109 0 189 -28.5t128.5 -77t78 -123.5t40 -155.5t10.5 -186.5q0 -103 -10 -183t-39 -157.5t-77.5 -127.5t-129.5 -81t-190 -31q-138 0 -222.5 37.5t-138.5 122.5q-41 65 -63.5 177t-22.5 233zM221 537
q0 -106 17.5 -203t48.5 -152q44 -78 113.5 -107.5t183.5 -29.5q215 0 293 133q69 120 69 369q0 91 -6.5 155.5t-28 132t-60 108.5t-106 67t-161.5 26q-68 0 -122.5 -14t-92 -37.5t-65 -61.5t-43.5 -77.5t-25 -93.5t-12 -103t-3 -112zM236 1288q47 124 91.5 169.5t116.5 45.5
q40 0 74.5 -15t83.5 -56q48 -41 74 -56.5t57 -15.5q49 0 72 29t51 100h90q-17 -39 -25.5 -58t-24.5 -49t-29.5 -44t-34 -30t-45.5 -22t-56 -6q-42 0 -74 12t-69 45q-52 47 -83 66.5t-61 19.5q-24 0 -42.5 -10t-33.5 -34t-22.5 -39.5t-21.5 -51.5h-88z" />
    <glyph glyph-name="odieresis" unicode="&#xf6;" 
d="M223 125q-41 65 -63.5 177t-22.5 233q0 104 9.5 183t38 157.5t76.5 128.5t129.5 81t193.5 31q109 0 189 -28.5t128.5 -77t78 -123.5t40 -155.5t10.5 -186.5q0 -103 -10 -183t-39 -157.5t-77.5 -127.5t-129.5 -81t-190 -31q-138 0 -222.5 37.5t-138.5 122.5zM221 537
q0 -106 17.5 -203t48.5 -152q44 -78 113.5 -107.5t183.5 -29.5q215 0 293 133q69 120 69 369q0 91 -6.5 155.5t-28 132t-60 108.5t-106 67t-161.5 26q-68 0 -122.5 -14t-92 -37.5t-65 -61.5t-43.5 -77.5t-25 -93.5t-12 -103t-3 -112zM709 1544h88v-258h-88v258zM459 1286
h-88v258h88v-258z" />
    <glyph glyph-name="divide" unicode="&#xf7;" horiz-adv-x="1433" 
d="M182 813h1069v-82h-1069v82zM651 1055v217h129v-217h-129zM651 272v217h129v-217h-129z" />
    <glyph glyph-name="oslash" unicode="&#xf8;" 
d="M137 535q0 104 9.5 183t38 157.5t76.5 128.5t129.5 81t193.5 31q109 0 189 -28.5t128.5 -77t78 -123.5t40 -155.5t10.5 -186.5q0 -103 -10 -183t-39 -157.5t-77.5 -127.5t-129.5 -81t-190 -31q-138 0 -222.5 37.5t-138.5 122.5q-41 65 -63.5 177t-22.5 233zM356 100
q76 -55 228 -55q215 0 293 133q69 120 69 369q0 280 -80 375zM584 1036q-68 0 -122.5 -14t-92 -37.5t-65 -61t-43.5 -77t-25 -94t-12 -103t-3 -112.5q0 -261 78 -377l510 821q-76 55 -225 55z" />
    <glyph glyph-name="ugrave" unicode="&#xf9;" horiz-adv-x="1155" 
d="M178 399v682h82v-684q0 -83 2 -123t15 -93.5t39.5 -77t76.5 -41t125 -17.5q73 0 148 11.5t116 22.5t111 32v970h82v-1032q-112 -32 -166 -46t-132 -26t-153 -12q-48 0 -88 4t-72 14t-57 22t-44 31t-33 38.5t-23 48.5t-15 56t-9 65.5t-4 73t-1 81.5zM356 1544h115
l225 -270h-112z" />
    <glyph glyph-name="uacute" unicode="&#xfa;" horiz-adv-x="1155" 
d="M178 399v682h82v-684q0 -83 2 -123t15 -93.5t39.5 -77t76.5 -41t125 -17.5q73 0 148 11.5t116 22.5t111 32v970h82v-1032q-112 -32 -166 -46t-132 -26t-153 -12q-48 0 -88 4t-72 14t-57 22t-44 31t-33 38.5t-23 48.5t-15 56t-9 65.5t-4 73t-1 81.5zM571 1274h-114
l233 270h117z" />
    <glyph glyph-name="ucircumflex" unicode="&#xfb;" horiz-adv-x="1155" 
d="M178 399v682h82v-684q0 -83 2 -123t15 -93.5t39.5 -77t76.5 -41t125 -17.5q73 0 148 11.5t116 22.5t111 32v970h82v-1032q-112 -32 -166 -46t-132 -26t-153 -12q-48 0 -88 4t-72 14t-57 22t-44 31t-33 38.5t-23 48.5t-15 56t-9 65.5t-4 73t-1 81.5zM395 1274h-114
l247 270h95l245 -270h-114l-179 192z" />
    <glyph glyph-name="udieresis" unicode="&#xfc;" horiz-adv-x="1155" 
d="M178 1081h82v-684q0 -83 2 -123t15 -93.5t39.5 -77t76.5 -41t125 -17.5q73 0 148 11.5t116 22.5t111 32v970h82v-1032q-112 -32 -166 -46t-132 -26t-153 -12q-48 0 -88 4t-72 14t-57 22t-44 31t-33 38.5t-23 48.5t-15 56t-9 65.5t-4 73t-1 81.5v682zM715 1286v258h88
v-258h-88zM352 1544h88v-258h-88v258z" />
    <glyph glyph-name="yacute" unicode="&#xfd;" horiz-adv-x="997" 
d="M29 1081h90l379 -948l383 948h88l-594 -1474h-90l168 413zM375 1274l233 270h117l-236 -270h-114z" />
    <glyph glyph-name="thorn" unicode="&#xfe;" horiz-adv-x="1181" 
d="M180 1544h82v-602q108 86 197 130t196 44q98 0 170 -35t113 -88.5t66 -133.5t32.5 -154t7.5 -166q0 -66 -4.5 -122.5t-17 -116.5t-32 -108t-51.5 -91.5t-74.5 -72.5t-102 -46t-131.5 -17q-84 0 -171 26.5t-198 78.5v-463h-82v1937zM262 842v-682q78 -38 123.5 -58
t115 -38.5t130.5 -18.5q60 0 109 15.5t83 41.5t59 65t40 80.5t24 93.5t12 98.5t3 101.5q0 54 -2 97t-10 96.5t-20.5 94t-36 81t-55 67t-78 43t-104.5 16.5q-109 0 -215 -65q-81 -52 -178 -129z" />
    <glyph glyph-name="ydieresis" unicode="&#xff;" horiz-adv-x="997" 
d="M29 1081h90l379 -948l383 948h88l-594 -1474h-90l168 413zM711 1286h-88v258h88v-258zM377 1286h-88v258h88v-258z" />
    <glyph glyph-name="Amacron" unicode="&#x100;" horiz-adv-x="1378" 
d="M43 0l590 1544h108l594 -1544h-92l-170 440h-772l-168 -440h-90zM686 1454l-354 -932h710zM961 1729h-547v81h547v-81z" />
    <glyph glyph-name="amacron" unicode="&#x101;" 
d="M487 -35q-68 0 -122.5 20t-90.5 51.5t-62.5 80.5t-40.5 96.5t-22 112t-10 113t-2 112.5q0 101 11 181t41.5 154t79.5 123t128.5 78t186.5 29q56 0 129 -17.5t124.5 -35.5t149.5 -55v-1008h-82v199q-59 -53 -133 -113q-77 -62 -141.5 -91.5t-143.5 -29.5zM578 1036
q-89 0 -154.5 -26.5t-104 -68.5t-61 -107.5t-30 -131t-7.5 -151.5q0 -43 0.5 -69t3 -72t7 -76.5t13.5 -72.5t22 -69.5t33.5 -57.5t46.5 -48t61.5 -29.5t78.5 -11.5q100 0 218 92q123 97 200 168v647q-77 29 -115 42.5t-99.5 27.5t-112.5 14zM328 1331v82h546v-82h-546z" />
    <glyph glyph-name="Abreve" unicode="&#x102;" horiz-adv-x="1378" 
d="M133 0h-90l590 1544h108l594 -1544h-92l-170 440h-772zM332 522h710l-356 932zM399 1921h88q13 -40 22 -64.5t25.5 -53t35.5 -43.5t49 -25.5t69 -10.5q44 0 77.5 15.5t56.5 45t37.5 61t27.5 75.5h88q-17 -63 -38 -110t-54 -87t-82 -61t-113 -21q-66 0 -115 20t-82 60
t-53.5 86.5t-38.5 112.5z" />
    <glyph glyph-name="abreve" unicode="&#x103;" 
d="M137 551q0 101 11 181t41.5 154t79.5 123t128.5 78t186.5 29q56 0 129 -17.5t124.5 -35.5t149.5 -55v-1008h-82v199q-59 -53 -133 -113q-77 -62 -141.5 -91.5t-143.5 -29.5t-136.5 23.5t-89.5 58.5t-60 90q-31 62 -47.5 174.5t-16.5 239.5zM221 551q0 -43 0.5 -69t3 -72
t7 -76.5t13.5 -72.5t22 -69.5t33.5 -57.5t46.5 -48t61.5 -29.5t78.5 -11.5q100 0 218 92q123 97 200 168v647q-77 29 -115 42.5t-99.5 27.5t-112.5 14q-89 0 -154.5 -26.5t-104 -68.5t-61 -107.5t-30 -131t-7.5 -151.5zM610 1266q-66 0 -115 19.5t-81.5 59.5t-53 86
t-38.5 113h88q16 -51 28 -79.5t34.5 -59t56 -44t81.5 -13.5q83 0 127.5 52t71.5 144h88q-17 -63 -38 -110t-54 -87t-82 -60.5t-113 -20.5z" />
    <glyph glyph-name="Aogonek" unicode="&#x104;" horiz-adv-x="1378" 
d="M133 0h-90l590 1544h108l594 -1544q-106 -80 -164 -143q-53 -58 -53 -109q0 -61 64 -61q46 0 151 43v-88q-79 -37 -147 -37q-75 0 -114.5 37.5t-39.5 111.5q0 37 19.5 76.5t55 77t63 62t65.5 53.5l-162 417h-772zM686 1454l-354 -932h710z" />
    <glyph glyph-name="aogonek" unicode="&#x105;" 
d="M137 551q0 101 11 181t41.5 154t79.5 123t128.5 78t186.5 29q56 0 129 -17.5t124.5 -35.5t149.5 -55v-1008q-110 -87 -162 -143q-53 -58 -53 -109q0 -61 64 -61q46 0 151 43v-88q-79 -37 -147 -37q-75 0 -114.5 37.5t-39.5 111.5q0 66 59 135q54 62 160 144v166
q-59 -53 -133 -113q-77 -62 -141.5 -91.5t-143.5 -29.5t-136.5 23.5t-89.5 58.5t-60 90q-31 62 -47.5 174.5t-16.5 239.5zM578 1036q-89 0 -154.5 -26.5t-104 -68.5t-61 -107.5t-30 -131t-7.5 -151.5q0 -43 0.5 -69t3 -72t7 -76.5t13.5 -72.5t22 -69.5t33.5 -57.5t46.5 -48
t61.5 -29.5t78.5 -11.5q100 0 218 92q123 97 200 168v647q-77 29 -115 42.5t-99.5 27.5t-112.5 14z" />
    <glyph glyph-name="Cacute" unicode="&#x106;" horiz-adv-x="1347" 
d="M262 262q-67 161 -67 506q0 405 104 588q69 122 171.5 172.5t291.5 50.5q106 0 212 -20.5t251 -59.5v-84q-95 26 -156 40.5t-147.5 28t-159.5 13.5q-159 0 -251 -45.5t-149 -161.5q-39 -81 -60 -224.5t-21 -299.5q0 -315 61 -471q48 -126 146 -187t262 -61q177 0 475 68
v-86q-150 -32 -253 -48t-210 -16q-203 0 -319 70t-181 227zM754 1675h-115l233 271h117z" />
    <glyph glyph-name="cacute" unicode="&#x107;" horiz-adv-x="983" 
d="M215 135q-78 144 -78 400q0 236 43 356q41 118 130 171.5t263 53.5q117 0 314 -63v-82q-209 65 -314 65q-132 0 -203 -35t-108 -129q-41 -101 -41 -337q0 -106 18 -205.5t50 -155.5q42 -74 110 -101.5t174 -27.5q107 0 314 53v-82q-219 -51 -314 -51q-144 0 -225.5 38.5
t-132.5 131.5zM537 1274h-115l233 270h117z" />
    <glyph glyph-name="Ccircumflex" unicode="&#x108;" horiz-adv-x="1347" 
d="M195 768q0 405 104 588q69 122 171.5 172.5t291.5 50.5q106 0 212 -20.5t251 -59.5v-84q-95 26 -156 40.5t-147.5 28t-159.5 13.5q-159 0 -251 -45.5t-149 -161.5q-39 -81 -60 -224.5t-21 -299.5q0 -315 61 -471q48 -126 146 -187t262 -61q177 0 475 68v-86
q-150 -32 -253 -48t-210 -16q-203 0 -319 70t-181 227q-67 161 -67 506zM588 1675h-115l248 271h94l246 -271h-115l-178 193z" />
    <glyph glyph-name="ccircumflex" unicode="&#x109;" horiz-adv-x="983" 
d="M137 535q0 236 43 356q41 118 130 171.5t263 53.5q117 0 314 -63v-82q-209 65 -314 65q-132 0 -203 -35t-108 -129q-41 -101 -41 -337q0 -106 18 -205.5t50 -155.5q42 -74 110 -101.5t174 -27.5q107 0 314 53v-82q-219 -51 -314 -51q-144 0 -225.5 38.5t-132.5 131.5
q-78 144 -78 400zM369 1274h-115l248 270h94l246 -270h-115l-178 192z" />
    <glyph glyph-name="Cdotaccent" unicode="&#x10a;" horiz-adv-x="1347" 
d="M195 768q0 405 104 588q69 122 171.5 172.5t291.5 50.5q106 0 212 -20.5t251 -59.5v-84q-95 26 -156 40.5t-147.5 28t-159.5 13.5q-159 0 -251 -45.5t-149 -161.5q-39 -81 -60 -224.5t-21 -299.5q0 -315 61 -471q48 -126 146 -187t262 -61q177 0 475 68v-86
q-150 -32 -253 -48t-210 -16q-203 0 -319 70t-181 227q-67 161 -67 506zM784 1688h-90v258h90v-258z" />
    <glyph glyph-name="cdotaccent" unicode="&#x10b;" horiz-adv-x="983" 
d="M137 535q0 236 43 356q41 118 130 171.5t263 53.5q117 0 314 -63v-82q-209 65 -314 65q-132 0 -203 -35t-108 -129q-41 -101 -41 -337q0 -106 18 -205.5t50 -155.5q42 -74 110 -101.5t174 -27.5q107 0 314 53v-82q-219 -51 -314 -51q-144 0 -225.5 38.5t-132.5 131.5
q-78 144 -78 400zM492 1544h90v-258h-90v258z" />
    <glyph glyph-name="Ccaron" unicode="&#x10c;" horiz-adv-x="1347" 
d="M195 768q0 405 104 588q69 122 171.5 172.5t291.5 50.5q106 0 212 -20.5t251 -59.5v-84q-95 26 -156 40.5t-147.5 28t-159.5 13.5q-159 0 -251 -45.5t-149 -161.5q-39 -81 -60 -224.5t-21 -299.5q0 -315 61 -471q48 -126 146 -187t262 -61q177 0 475 68v-86
q-150 -32 -253 -48t-210 -16q-203 0 -319 70t-181 227q-67 161 -67 506zM457 1946h114l181 -193l178 193h114l-245 -271h-94z" />
    <glyph glyph-name="ccaron" unicode="&#x10d;" horiz-adv-x="983" 
d="M137 535q0 236 43 356q41 118 130 171.5t263 53.5q117 0 314 -63v-82q-209 65 -314 65q-132 0 -203 -35t-108 -129q-41 -101 -41 -337q0 -106 18 -205.5t50 -155.5q42 -74 110 -101.5t174 -27.5q107 0 314 53v-82q-219 -51 -314 -51q-144 0 -225.5 38.5t-132.5 131.5
q-78 144 -78 400zM246 1544h114l181 -192l178 192h115l-246 -270h-94z" />
    <glyph glyph-name="Dcaron" unicode="&#x10e;" horiz-adv-x="1540" 
d="M723 0h-498v1544h514q160 0 251 -26.5t167 -96.5q95 -86 142 -260.5t47 -382.5q0 -204 -44 -370.5t-135 -260.5q-78 -80 -182.5 -113.5t-261.5 -33.5zM739 1462h-430v-1380h412q146 0 234.5 31.5t154.5 99.5q70 73 110 222.5t40 342.5q0 184 -38 336t-110 232
q-62 68 -149 92t-224 24zM635 1675l-248 271h115l180 -193l178 193h115l-246 -271h-94z" />
    <glyph glyph-name="dcaron" unicode="&#x10f;" horiz-adv-x="1198" 
d="M205 139q-68 142 -68 406q0 262 76 405q49 91 131.5 128.5t204.5 37.5q135 0 371 -76v504h81v-1544h-81v158q-244 -193 -424 -193q-122 0 -185.5 42.5t-105.5 131.5zM221 545q0 -232 53 -357q31 -75 83 -110t139 -35q51 0 109 20t119.5 58t101 66.5t94.5 72.5v696
q-245 80 -371 80q-201 0 -268 -137q-60 -120 -60 -354zM1200 1161h-74v383h88v-137q0 -121 -14 -246z" />
    <glyph glyph-name="Dcroat" unicode="&#x110;" horiz-adv-x="1554" 
d="M94 760v82h146v702h514q159 0 250 -26.5t167 -96.5q95 -86 142 -260.5t47 -382.5q0 -204 -43.5 -370.5t-134.5 -260.5q-78 -80 -182.5 -113.5t-262.5 -33.5h-497v760h-146zM324 842h469v-82h-469v-678h411q146 0 234.5 31.5t154.5 99.5q70 73 110 222.5t40 342.5
q0 184 -38 336t-110 232q-62 68 -148.5 92t-223.5 24h-430v-620z" />
    <glyph glyph-name="dcroat" unicode="&#x111;" horiz-adv-x="1181" 
d="M205 139q-68 142 -68 406q0 262 76 405q49 91 131.5 128.5t204.5 37.5q135 0 371 -76v209h-265v80h265v215h81v-215h179v-80h-179v-1249h-81v158q-244 -193 -424 -193q-122 0 -185.5 42.5t-105.5 131.5zM221 545q0 -232 53 -357q31 -75 83 -110t139 -35q51 0 109 20
t119.5 58t101 66.5t94.5 72.5v696q-245 80 -371 80q-201 0 -268 -137q-60 -120 -60 -354z" />
    <glyph glyph-name="Emacron" unicode="&#x112;" horiz-adv-x="1333" 
d="M225 0v1544h992v-82h-908v-631h862v-81h-862v-668h940v-82h-1024zM449 1810h546v-81h-546v81z" />
    <glyph glyph-name="emacron" unicode="&#x113;" horiz-adv-x="1134" 
d="M610 -35q-85 0 -153 13.5t-117 38t-85 64t-58.5 84.5t-36 106.5t-18.5 124.5t-5 143q0 106 10 185.5t39 156.5t77.5 126t130.5 79t194 30q203 0 309.5 -105.5t106.5 -303.5q0 -85 -21 -205h-764q0 -115 16 -193.5t58 -141t120.5 -92.5t196.5 -30q112 0 338 43v-82
q-200 -41 -338 -41zM219 582h690q11 64 11 125q0 329 -332 329q-88 0 -153.5 -23t-106.5 -61.5t-65.5 -98t-34 -124t-9.5 -147.5zM315 1331v82h547v-82h-547z" />
    <glyph glyph-name="Ebreve" unicode="&#x114;" horiz-adv-x="1333" 
d="M225 0v1544h992v-82h-908v-631h862v-81h-862v-668h940v-82h-1024zM420 1946h88q13 -40 22 -64.5t25.5 -53t35.5 -43.5t49 -25.5t69 -10.5q44 0 77.5 15.5t56 45t37 61t27.5 75.5h88q-17 -64 -38 -110.5t-54 -86.5t-81.5 -61t-112.5 -21q-66 0 -115 20t-82 60t-53.5 86.5
t-38.5 112.5z" />
    <glyph glyph-name="ebreve" unicode="&#x115;" horiz-adv-x="1134" 
d="M137 539q0 106 10 185.5t39 156.5t77.5 126t130.5 79t194 30q203 0 309.5 -105.5t106.5 -303.5q0 -85 -21 -205h-764q0 -115 16 -193.5t58 -141t120.5 -92.5t196.5 -30q112 0 338 43v-82q-200 -41 -338 -41q-85 0 -153 13.5t-117 38t-85 64t-58.5 84.5t-36 106.5
t-18.5 124.5t-5 143zM219 582h690q11 64 11 125q0 329 -332 329q-88 0 -153.5 -23t-106.5 -61.5t-65.5 -98t-34 -124t-9.5 -147.5zM582 1266q-66 0 -115 19.5t-82 59.5t-53.5 86.5t-38.5 112.5h88q16 -51 28.5 -80t34.5 -59t56 -43.5t82 -13.5q44 0 77.5 15t56 44.5t37 61
t27.5 75.5h88q-17 -63 -38 -110t-54 -87t-81.5 -60.5t-112.5 -20.5z" />
    <glyph glyph-name="Edotaccent" unicode="&#x116;" horiz-adv-x="1333" 
d="M225 0v1544h992v-82h-908v-631h862v-81h-862v-668h940v-82h-1024zM666 1946h90v-258h-90v258z" />
    <glyph glyph-name="edotaccent" unicode="&#x117;" horiz-adv-x="1134" 
d="M610 -35q-85 0 -153 13.5t-117 38t-85 64t-58.5 84.5t-36 106.5t-18.5 124.5t-5 143q0 106 10 185.5t39 156.5t77.5 126t130.5 79t194 30q203 0 309.5 -105.5t106.5 -303.5q0 -85 -21 -205h-764q0 -115 16 -193.5t58 -141t120.5 -92.5t196.5 -30q112 0 338 43v-82
q-200 -41 -338 -41zM219 582h690q11 64 11 125q0 329 -332 329q-88 0 -153.5 -23t-106.5 -61.5t-65.5 -98t-34 -124t-9.5 -147.5zM530 1286v258h91v-258h-91z" />
    <glyph glyph-name="Eogonek" unicode="&#x118;" horiz-adv-x="1333" 
d="M225 0v1544h992v-82h-908v-631h862v-81h-862v-668h940v-82q-106 -80 -164 -143q-53 -58 -53 -109q0 -61 64 -61q46 0 151 43v-88q-79 -37 -147 -37q-75 0 -114.5 37.5t-39.5 111.5q0 105 174 246h-895z" />
    <glyph glyph-name="eogonek" unicode="&#x119;" horiz-adv-x="1134" 
d="M610 -35q-85 0 -153 13.5t-117 38t-85 64t-58.5 84.5t-36 106.5t-18.5 124.5t-5 143q0 106 10 185.5t39 156.5t77.5 126t130.5 79t194 30q203 0 309.5 -105.5t106.5 -303.5q0 -85 -21 -205h-764q0 -115 16 -193.5t58 -141t120.5 -92.5t196.5 -30q113 0 338 45v-84
q-217 -169 -217 -258q0 -61 64 -61q46 0 151 43v-88q-79 -37 -147 -37q-75 0 -114.5 37.5t-39.5 111.5q0 65 60 135q31 36 92 93q-112 -17 -187 -17zM270 872q-25 -52 -38 -138t-13 -152h692q11 64 11 123q0 166 -81.5 248.5t-252.5 82.5q-240 0 -318 -164z" />
    <glyph glyph-name="Ecaron" unicode="&#x11a;" horiz-adv-x="1333" 
d="M1249 0h-1024v1544h992v-82h-908v-631h862v-81h-862v-668h940v-82zM678 1675l-248 271h115l180 -193l178 193h115l-246 -271h-94z" />
    <glyph glyph-name="ecaron" unicode="&#x11b;" horiz-adv-x="1134" 
d="M610 -35q-85 0 -153 13.5t-117 38t-85 64t-58.5 84.5t-36 106.5t-18.5 124.5t-5 143q0 106 10 185.5t39 156.5t77.5 126t130.5 79t194 30q203 0 309.5 -105.5t106.5 -303.5q0 -85 -21 -205h-764q0 -115 16 -193.5t58 -141t120.5 -92.5t196.5 -30q112 0 338 43v-82
q-200 -41 -338 -41zM588 1036q-88 0 -153.5 -22.5t-106.5 -61t-65.5 -98t-34 -124t-9.5 -148.5h690q11 64 11 125q0 329 -332 329zM272 1544h115l180 -192l178 192h115l-246 -270h-94z" />
    <glyph glyph-name="Gcircumflex" unicode="&#x11c;" horiz-adv-x="1515" 
d="M195 768q0 410 104 588q69 119 173 171t290 52q184 0 481 -82v-84q-317 84 -481 84q-158 0 -250.5 -46t-151.5 -161q-40 -80 -59.5 -222t-19.5 -302q0 -322 65 -473q59 -139 168 -192.5t279 -53.5q129 0 419 41v733h84v-805q-347 -51 -534 -51q-106 0 -190.5 23.5
t-143 63t-101.5 101t-68 126.5t-40 151.5t-19.5 163.5t-4.5 174zM479 1675l248 271h94l246 -271h-115l-178 193l-180 -193h-115z" />
    <glyph glyph-name="gcircumflex" unicode="&#x11d;" horiz-adv-x="1175" 
d="M139 553q0 256 72 389q54 98 139 136t213 38q129 0 432 -100v-955q0 -236 -124 -362.5t-359 -126.5q-109 0 -336 29v84q209 -33 336 -33q197 0 299 109t102 307v59q-123 -60 -221 -93.5t-196 -33.5q-125 0 -189 40.5t-104 119.5q-64 125 -64 393zM281 897
q-58 -113 -58 -344q0 -239 53 -354q29 -64 81.5 -91.5t138.5 -27.5q48 0 101 11.5t116.5 37.5t98 42t101.5 48v737q-244 80 -354 80t-174.5 -31.5t-103.5 -107.5zM410 1274h-115l248 270h94l246 -270h-115l-178 192z" />
    <glyph glyph-name="Gbreve" unicode="&#x11e;" horiz-adv-x="1515" 
d="M762 -35q-106 0 -190.5 23.5t-143 63t-101.5 101t-68 126.5t-40 151.5t-19.5 163.5t-4.5 174q0 410 104 588q69 119 173 171t290 52q184 0 481 -82v-84q-317 84 -481 84q-158 0 -250.5 -46t-151.5 -161q-40 -80 -59.5 -222t-19.5 -302q0 -322 65 -473q59 -139 168 -192.5
t279 -53.5q129 0 419 41v733h84v-805q-347 -51 -534 -51zM776 1667q-66 0 -115 20t-82 60t-53.5 86.5t-38.5 112.5h88q13 -40 22 -64.5t25.5 -53t35.5 -43.5t49 -25.5t69 -10.5q44 0 77.5 15.5t56.5 45t37.5 61t27.5 75.5h88q-17 -63 -38 -110t-54 -87t-82 -61t-113 -21z
" />
    <glyph glyph-name="gbreve" unicode="&#x11f;" horiz-adv-x="1175" 
d="M139 553q0 256 72 389q54 98 139 136t213 38q129 0 432 -100v-955q0 -236 -124 -362.5t-359 -126.5q-109 0 -336 29v84q209 -33 336 -33q197 0 299 109t102 307v59q-123 -60 -221 -93.5t-196 -33.5q-125 0 -189 40.5t-104 119.5q-64 125 -64 393zM281 897
q-58 -113 -58 -344q0 -239 53 -354q29 -64 81.5 -91.5t138.5 -27.5q48 0 101 11.5t116.5 37.5t98 42t101.5 48v737q-244 80 -354 80t-174.5 -31.5t-103.5 -107.5zM578 1266q-66 0 -115 19.5t-82 59.5t-53.5 86.5t-38.5 112.5h88q16 -51 28.5 -80t34.5 -59t56 -43.5t82 -13.5
q44 0 77.5 15t56 44.5t37 61t27.5 75.5h88q-17 -63 -38 -110t-54 -87t-81.5 -60.5t-112.5 -20.5z" />
    <glyph glyph-name="Gdotaccent" unicode="&#x120;" horiz-adv-x="1515" 
d="M195 768q0 410 104 588q69 119 173 171t290 52q184 0 481 -82v-84q-317 84 -481 84q-158 0 -250.5 -46t-151.5 -161q-40 -80 -59.5 -222t-19.5 -302q0 -322 65 -473q59 -139 168 -192.5t279 -53.5q129 0 419 41v733h84v-805q-347 -51 -534 -51q-106 0 -190.5 23.5
t-143 63t-101.5 101t-68 126.5t-40 151.5t-19.5 163.5t-4.5 174zM813 1688h-90v258h90v-258z" />
    <glyph glyph-name="gdotaccent" unicode="&#x121;" horiz-adv-x="1175" 
d="M139 553q0 256 72 389q54 98 139 136t213 38q129 0 432 -100v-955q0 -236 -124 -362.5t-359 -126.5q-109 0 -336 29v84q209 -33 336 -33q197 0 299 109t102 307v59q-123 -60 -221 -93.5t-196 -33.5q-125 0 -189 40.5t-104 119.5q-64 125 -64 393zM281 897
q-58 -113 -58 -344q0 -239 53 -354q29 -64 81.5 -91.5t138.5 -27.5q48 0 101 11.5t116.5 37.5t98 42t101.5 48v737q-244 80 -354 80t-174.5 -31.5t-103.5 -107.5zM623 1286h-91v258h91v-258z" />
    <glyph glyph-name="uni0122" unicode="&#x122;" horiz-adv-x="1515" 
d="M195 768q0 410 104 588q69 119 173 171t290 52q184 0 481 -82v-84q-317 84 -481 84q-158 0 -250.5 -46t-151.5 -161q-40 -80 -59.5 -222t-19.5 -302q0 -322 65 -473q59 -139 168 -192.5t279 -53.5q129 0 419 41v733h84v-805q-347 -51 -534 -51q-106 0 -190.5 23.5
t-143 63t-101.5 101t-68 126.5t-40 151.5t-19.5 163.5t-4.5 174zM711 -571q16 70 23 132.5t8 99.5t1 122v90h88v-131q0 -71 -1.5 -107t-12 -92t-31.5 -114h-75z" />
    <glyph glyph-name="uni0123" unicode="&#x123;" horiz-adv-x="1175" 
d="M139 553q0 256 72 389q54 98 139 136t213 38q129 0 432 -100v-955q0 -236 -124 -362.5t-359 -126.5q-109 0 -336 29v84q209 -33 336 -33q197 0 299 109t102 307v59q-123 -60 -221 -93.5t-196 -33.5q-125 0 -189 40.5t-104 119.5q-64 125 -64 393zM281 897
q-58 -113 -58 -344q0 -239 53 -354q29 -64 81.5 -91.5t138.5 -27.5q48 0 101 11.5t116.5 37.5t98 42t101.5 48v737q-244 80 -354 80t-174.5 -31.5t-103.5 -107.5zM612 1239h-88v131q0 71 1.5 107t12 92t31.5 114h76q-16 -70 -23.5 -131.5t-8.5 -101.5t-1 -121v-90z" />
    <glyph glyph-name="Hcircumflex" unicode="&#x124;" horiz-adv-x="1574" 
d="M225 0v1544h84v-682h957v682h84v-1544h-84v780h-957v-780h-84zM494 1675l247 271h95l245 -271h-114l-179 193l-180 -193h-114z" />
    <glyph glyph-name="hcircumflex" unicode="&#x125;" horiz-adv-x="1171" 
d="M180 0v1544h82v-543q128 57 223.5 86t184.5 29q84 0 142.5 -18t94 -48.5t55.5 -83t26.5 -109t6.5 -138.5v-719h-82v721q0 66 -4 108.5t-18 85.5t-40 67t-71 39t-110 15q-49 0 -99.5 -9.5t-110.5 -31.5t-95 -36.5t-103 -45.5v-913h-82zM43 1675h-115l248 271h94l246 -271
h-115l-178 193z" />
    <glyph glyph-name="Hbar" unicode="&#x126;" horiz-adv-x="1574" 
d="M309 0h-84v1544h84v-352h957v352h84v-1544h-84v766h-957v-766zM309 848h957v262h-957v-262z" />
    <glyph glyph-name="hbar" unicode="&#x127;" horiz-adv-x="1171" 
d="M0 1329h180v215h82v-215h270v-80h-270v-248q128 57 223.5 86t184.5 29q84 0 142.5 -18t94 -48.5t55.5 -83t26.5 -109t6.5 -138.5v-719h-82v721q0 66 -4 108.5t-18 85.5t-40 67t-71 39t-110 15q-49 0 -99.5 -9.5t-110.5 -31.5t-95 -36.5t-103 -45.5v-913h-82v1249h-180v80
z" />
    <glyph glyph-name="Itilde" unicode="&#x128;" horiz-adv-x="534" 
d="M225 0v1544h84v-1544h-84zM-90 1702q47 123 92.5 169t118.5 46q40 0 74 -15t84 -57q47 -40 73.5 -55.5t57.5 -15.5q21 0 37.5 7t27 15t22 29t17 34t18.5 44h91q-17 -39 -25.5 -58t-24.5 -49t-29.5 -44t-34 -30t-45.5 -22t-56 -6q-42 0 -74.5 12.5t-69.5 44.5
q-52 47 -82.5 66.5t-60.5 19.5q-24 0 -42.5 -9.5t-34.5 -34.5t-23 -39.5t-23 -51.5h-88z" />
    <glyph glyph-name="itilde" unicode="&#x129;" horiz-adv-x="442" 
d="M180 0v1081h82v-1081h-82zM-131 1288q47 124 92 169.5t119 45.5q40 0 74.5 -15t83.5 -56q48 -41 74 -56.5t57 -15.5q49 0 72 29t51 100h90q-17 -39 -25.5 -58t-24.5 -49t-29.5 -44t-34 -30t-45.5 -22t-56 -6q-42 0 -74.5 12.5t-69.5 44.5q-52 47 -82.5 66.5t-60.5 19.5
q-24 0 -43.5 -10.5t-34.5 -33t-23.5 -40.5t-21.5 -51h-88z" />
    <glyph glyph-name="Imacron" unicode="&#x12a;" horiz-adv-x="534" 
d="M309 0h-84v1544h84v-1544zM541 1729h-549v81h549v-81z" />
    <glyph glyph-name="imacron" unicode="&#x12b;" horiz-adv-x="442" 
d="M262 0h-82v1081h82v-1081zM494 1331h-547v82h547v-82z" />
    <glyph glyph-name="Ibreve" unicode="&#x12c;" horiz-adv-x="534" 
d="M225 1544h84v-1544h-84v1544zM-23 1946h89q16 -51 28 -80t34.5 -59.5t56 -44t81.5 -13.5q44 0 77.5 15.5t56.5 45t37.5 61t27.5 75.5h88q-17 -63 -38 -110t-54 -87t-82 -61t-113 -21q-66 0 -115 20t-82 60t-53.5 86.5t-38.5 112.5z" />
    <glyph glyph-name="ibreve" unicode="&#x12d;" horiz-adv-x="442" 
d="M180 1081h82v-1081h-82v1081zM-70 1544h88q16 -51 28.5 -80t34.5 -59t56 -43.5t82 -13.5q83 0 127.5 52t71.5 144h88q-17 -63 -38 -110t-54 -87t-82 -60.5t-113 -20.5q-66 0 -115 19.5t-82 59.5t-53.5 86.5t-38.5 112.5z" />
    <glyph glyph-name="Iogonek" unicode="&#x12e;" horiz-adv-x="534" 
d="M106 -242q0 43 20.5 90.5t41.5 77t57 74.5v1544h84v-1544q-74 -99 -90 -133q-26 -56 -26 -115q0 -29 16 -47t47 -18q51 0 152 43v-88q-79 -37 -150 -37q-79 0 -115.5 37t-36.5 116z" />
    <glyph glyph-name="iogonek" unicode="&#x12f;" horiz-adv-x="442" 
d="M217 -395q-80 0 -117 36.5t-37 114.5q0 44 20 92t40 76.5t57 75.5v1081h82v-1081q-39 -51 -58 -80t-36.5 -76t-17.5 -96q0 -61 63 -61q51 0 152 43v-88q-79 -37 -148 -37zM268 1272h-94v272h94v-272z" />
    <glyph glyph-name="Idotaccent" unicode="&#x130;" horiz-adv-x="534" 
d="M309 0h-84v1544h84v-1544zM309 1688h-90v258h90v-258z" />
    <glyph glyph-name="dotlessi" unicode="&#x131;" horiz-adv-x="442" 
d="M262 0h-82v1081h82v-1081z" />
    <glyph glyph-name="IJ" unicode="&#x132;" horiz-adv-x="1218" 
d="M461 -172v86q216 69 319 127q48 27 75 53t40 62q20 59 20 274v1114h84v-1104q0 -95 -0.5 -132t-5.5 -88.5t-16 -86.5q-24 -78 -105 -133q-121 -80 -411 -172zM225 1544h84v-1544h-84v1544z" />
    <glyph glyph-name="ij" unicode="&#x133;" horiz-adv-x="882" 
d="M344 -432v90q143 66 197 113q47 42 65 98q17 52 17 184v1028h82v-1015q0 -162 -15 -218q-13 -49 -40.5 -85.5t-78.5 -73.5q-58 -44 -227 -121zM180 0v1081h82v-1081h-82zM618 1286v258h91v-258h-91zM266 1286h-90v258h90v-258z" />
    <glyph glyph-name="Jcircumflex" unicode="&#x134;" horiz-adv-x="745" 
d="M-12 -86q216 69 319 127q48 27 75 53t40 62q20 59 20 274v1114h84v-1104q0 -95 -0.5 -132t-5.5 -88.5t-16 -86.5q-24 -78 -105 -133q-121 -80 -411 -172v86zM293 1675h-115l248 271h94l246 -271h-115l-178 193z" />
    <glyph glyph-name="jcircumflex" unicode="&#x135;" horiz-adv-x="464" 
d="M-76 -342q143 66 197 113q47 42 65 98q17 52 17 184v1028h82v-1015q0 -162 -15 -218q-14 -50 -40.5 -86t-77.5 -73q-56 -42 -228 -121v90zM45 1274h-117l250 270h94l246 -270h-115l-178 192z" />
    <glyph glyph-name="uni0136" unicode="&#x136;" horiz-adv-x="1273" 
d="M309 0h-84v1544h84v-747l778 747h125l-800 -766l864 -778h-129l-838 756v-756zM616 -573h-75q16 70 23 132.5t8 99.5t1 122v90h89v-131q0 -69 -2 -106.5t-12.5 -92.5t-31.5 -114z" />
    <glyph glyph-name="uni0137" unicode="&#x137;" horiz-adv-x="972" 
d="M180 1544h82v-936l520 473h123l-545 -495l596 -586h-118l-576 567v-567h-82v1544zM473 -573h-76q16 70 23.5 131.5t8.5 101.5t1 121v90h88v-131q0 -71 -1.5 -107t-12 -92t-31.5 -114z" />
    <glyph glyph-name="kgreenlandic" unicode="&#x138;" horiz-adv-x="995" 
d="M262 0h-82v1081h82v-499q106 28 221 84t187 125q46 44 83.5 121t57.5 169h84q-26 -120 -65.5 -204.5t-103.5 -147t-141.5 -105t-195.5 -85.5l567 -539h-118l-576 545v-545z" />
    <glyph glyph-name="Lacute" unicode="&#x139;" horiz-adv-x="1259" 
d="M1180 0h-955v1544h84v-1462h871v-82zM326 1675h-115l233 271h117z" />
    <glyph glyph-name="lacute" unicode="&#x13a;" horiz-adv-x="442" 
d="M262 0h-82v1544h82v-1544zM281 1675h-115l233 271h117z" />
    <glyph glyph-name="uni013B" unicode="&#x13b;" horiz-adv-x="1259" 
d="M1180 0h-955v1544h84v-1462h871v-82zM700 -573h-75q16 70 23 132.5t8 99.5t1 122v90h88v-131q0 -71 -1.5 -107t-12 -92t-31.5 -114z" />
    <glyph glyph-name="uni013C" unicode="&#x13c;" horiz-adv-x="442" 
d="M262 0h-82v1544h82v-1544zM221 -573h-76q16 70 23.5 131.5t8.5 101.5t1 121v90h88v-131q0 -71 -1.5 -107t-12 -92t-31.5 -114z" />
    <glyph glyph-name="Lcaron" unicode="&#x13d;" horiz-adv-x="1259" 
d="M1180 0h-955v1544h84v-1462h871v-82zM647 1161v383h88v-137q0 -121 -14 -246h-74z" />
    <glyph glyph-name="lcaron" unicode="&#x13e;" horiz-adv-x="458" 
d="M180 1544h82v-1544h-82v1544zM387 1161v383h88v-137q0 -121 -14 -246h-74z" />
    <glyph glyph-name="Ldot" unicode="&#x13f;" horiz-adv-x="1259" 
d="M1180 0h-955v1544h84v-1462h871v-82zM930 670h-90v258h90v-258z" />
    <glyph glyph-name="ldot" unicode="&#x140;" horiz-adv-x="532" 
d="M262 0h-82v1544h82v-1544zM530 670h-90v258h90v-258z" />
    <glyph glyph-name="Lslash" unicode="&#x141;" horiz-adv-x="1259" 
d="M51 690l174 115v739h84v-684l338 221v-98l-338 -221v-680h871v-82h-955v707l-174 -115v98z" />
    <glyph glyph-name="lslash" unicode="&#x142;" horiz-adv-x="483" 
d="M33 750l168 106v688h82v-635l168 107v-94l-168 -107v-815h-82v762l-168 -107v95z" />
    <glyph glyph-name="Nacute" unicode="&#x143;" horiz-adv-x="1548" 
d="M309 0h-84v1544h127l887 -1452v1452h84v-1544h-127l-887 1452v-1452zM758 1675h-115l234 271h116z" />
    <glyph glyph-name="nacute" unicode="&#x144;" horiz-adv-x="1177" 
d="M180 0v1081h82v-88q97 44 150 65t126 39.5t138 18.5q60 0 107.5 -9t81.5 -25.5t58.5 -43.5t39.5 -57.5t23.5 -74t11.5 -86.5t3 -101v-719h-81v723q0 47 -2 79.5t-7.5 67.5t-16 58.5t-28.5 45.5t-44 34.5t-62.5 20t-83.5 7.5q-60 0 -141 -23.5t-131.5 -45t-141.5 -62.5
v-905h-82zM553 1274h-115l234 270h116z" />
    <glyph glyph-name="uni0145" unicode="&#x145;" horiz-adv-x="1548" 
d="M309 0h-84v1544h127l887 -1452v1452h84v-1544h-127l-887 1452v-1452zM682 -573q16 70 23.5 131.5t8.5 101.5t1 121v90h88v-131q0 -71 -1.5 -107t-12 -92t-31.5 -114h-76z" />
    <glyph glyph-name="uni0146" unicode="&#x146;" horiz-adv-x="1177" 
d="M180 0v1081h82v-88q97 44 150 65t126 39.5t138 18.5q60 0 107.5 -9t81.5 -25.5t58.5 -43.5t39.5 -57.5t23.5 -74t11.5 -86.5t3 -101v-719h-81v723q0 47 -2 79.5t-7.5 67.5t-16 58.5t-28.5 45.5t-44 34.5t-62.5 20t-83.5 7.5q-60 0 -141 -23.5t-131.5 -45t-141.5 -62.5
v-905h-82zM571 -573h-75q16 70 23 132.5t8 99.5t1 122v90h88v-131q0 -71 -1.5 -107t-12 -92t-31.5 -114z" />
    <glyph glyph-name="Ncaron" unicode="&#x147;" horiz-adv-x="1548" 
d="M225 0v1544h127l887 -1452v1452h84v-1544h-127l-887 1452v-1452h-84zM719 1675l-248 271h115l180 -193l178 193h115l-246 -271h-94z" />
    <glyph glyph-name="ncaron" unicode="&#x148;" horiz-adv-x="1177" 
d="M180 0v1081h82v-88q97 44 150 65t126 39.5t138 18.5q60 0 107.5 -9t81.5 -25.5t58.5 -43.5t39.5 -57.5t23.5 -74t11.5 -86.5t3 -101v-719h-81v723q0 47 -2 79.5t-7.5 67.5t-16 58.5t-28.5 45.5t-44 34.5t-62.5 20t-83.5 7.5q-60 0 -141 -23.5t-131.5 -45t-141.5 -62.5
v-905h-82zM293 1544h115l180 -192l178 192h115l-246 -270h-94z" />
    <glyph glyph-name="napostrophe" unicode="&#x149;" horiz-adv-x="1257" 
d="M342 0h-82v1081h82v-88q97 44 150 65t126 39.5t138 18.5q60 0 107.5 -9t81.5 -25.5t58.5 -43.5t39.5 -57.5t23.5 -74t11.5 -86.5t3 -101v-719h-82v723q0 55 -2.5 91.5t-11 75.5t-24.5 63t-42.5 44.5t-67 29.5t-95.5 9q-60 0 -141 -23.5t-131.5 -45t-141.5 -62.5v-905z
M119 1100h-76q16 70 23.5 131.5t8.5 101.5t1 121v90h88v-131q0 -71 -1.5 -107t-12 -92t-31.5 -114z" />
    <glyph glyph-name="Eng" unicode="&#x14a;" horiz-adv-x="1548" 
d="M225 1544h127l887 -1452v1452h84v-1372q0 -89 -1 -130.5t-6 -91.5t-16 -85q-24 -79 -104 -133q-120 -79 -412 -172v86q218 70 320 127q62 35 91.5 72.5t35.5 99.5l-922 1507v-1452h-84v1544z" />
    <glyph glyph-name="eng" unicode="&#x14b;" horiz-adv-x="1177" 
d="M180 0v1081h82v-88q97 44 150 65t126 39.5t138 18.5q60 0 107.5 -9t81.5 -25.5t58.5 -43.5t39.5 -57.5t23.5 -74t11.5 -86.5t3 -101v-653q0 -166 -14 -218q-13 -49 -40.5 -85.5t-78.5 -73.5q-58 -44 -227 -121v90q143 66 197 113q47 42 65 98q17 52 17 184v670
q0 47 -2 79.5t-7.5 67.5t-16 58.5t-28.5 45.5t-44 34.5t-62.5 20t-83.5 7.5q-60 0 -141 -23.5t-131.5 -45t-141.5 -62.5v-905h-82z" />
    <glyph glyph-name="Omacron" unicode="&#x14c;" horiz-adv-x="1640" 
d="M195 774q0 383 84 537q145 268 540 268q179 0 299.5 -50.5t196.5 -158.5q67 -95 99 -261t32 -335q0 -150 -27.5 -313.5t-93.5 -265.5q-81 -124 -206 -177t-300 -53q-200 0 -328 55t-194 168q-102 171 -102 586zM819 1497q-80 0 -147 -12t-118 -32t-91.5 -53.5t-69 -70
t-49 -87.5t-32.5 -100t-19 -113.5t-9.5 -122.5t-2.5 -132q0 -152 19 -301t65 -229q34 -59 82 -99.5t109 -61t122.5 -28.5t140.5 -8q139 0 237.5 35.5t172.5 124.5q69 82 100 237t31 330q0 153 -26 298t-79 233q-63 104 -171 148t-265 44zM1092 1729h-547v81h547v-81z" />
    <glyph glyph-name="omacron" unicode="&#x14d;" 
d="M137 535q0 104 9.5 183t38 157.5t76.5 128.5t129.5 81t193.5 31q109 0 189 -28.5t128.5 -77t78 -123.5t40 -155.5t10.5 -186.5q0 -103 -10 -183t-39 -157.5t-77.5 -127.5t-129.5 -81t-190 -31q-138 0 -222.5 37.5t-138.5 122.5q-41 65 -63.5 177t-22.5 233zM584 1036
q-68 0 -122.5 -14t-92 -37.5t-65 -61t-43.5 -77t-25 -94t-12 -103t-3 -112.5q0 -106 17.5 -203t48.5 -152q44 -78 113.5 -107.5t183.5 -29.5q215 0 293 133q69 120 69 369q0 91 -6.5 155.5t-28 132t-60 108.5t-106 67t-161.5 26zM860 1331h-547v82h547v-82z" />
    <glyph glyph-name="Obreve" unicode="&#x14e;" horiz-adv-x="1640" 
d="M297 188q-102 171 -102 586q0 383 84 537q145 268 540 268q179 0 299.5 -50.5t196.5 -158.5q67 -95 99 -261t32 -335q0 -150 -27.5 -313.5t-93.5 -265.5q-81 -124 -206 -177t-300 -53q-200 0 -328 55t-194 168zM819 1497q-80 0 -147 -12t-118 -32t-91.5 -53.5t-69 -70
t-49 -87.5t-32.5 -100t-19 -113.5t-9.5 -122.5t-2.5 -132q0 -152 19 -301t65 -229q34 -59 82 -99.5t109 -61t122.5 -28.5t140.5 -8q139 0 237.5 35.5t172.5 124.5q69 82 100 237t31 330q0 153 -26 298t-79 233q-63 104 -171 148t-265 44zM815 1667q-66 0 -115 20t-82 60
t-53.5 86.5t-38.5 112.5h88q13 -40 22 -64.5t25.5 -53t35.5 -43.5t49 -25.5t69 -10.5q44 0 77.5 15.5t56.5 45t37.5 61t27.5 75.5h88q-17 -63 -38 -110t-54 -87t-82 -61t-113 -21z" />
    <glyph glyph-name="obreve" unicode="&#x14f;" 
d="M223 125q-41 65 -63.5 177t-22.5 233q0 104 9.5 183t38 157.5t76.5 128.5t129.5 81t193.5 31q109 0 189 -28.5t128.5 -77t78 -123.5t40 -155.5t10.5 -186.5q0 -103 -10 -183t-39 -157.5t-77.5 -127.5t-129.5 -81t-190 -31q-138 0 -222.5 37.5t-138.5 122.5zM584 1036
q-68 0 -122.5 -14t-92 -37.5t-65 -61t-43.5 -77t-25 -94t-12 -103t-3 -112.5q0 -106 17.5 -203t48.5 -152q44 -78 113.5 -107.5t183.5 -29.5q215 0 293 133q69 120 69 369q0 91 -6.5 155.5t-28 132t-60 108.5t-106 67t-161.5 26zM584 1266q-66 0 -115 19.5t-82 59.5
t-53.5 86.5t-38.5 112.5h88q16 -51 28.5 -80t34.5 -59t56 -43.5t82 -13.5q44 0 77.5 15t56 44.5t37 61t27.5 75.5h88q-17 -63 -38 -110t-54 -87t-81.5 -60.5t-112.5 -20.5z" />
    <glyph glyph-name="Ohungarumlaut" unicode="&#x150;" horiz-adv-x="1640" 
d="M195 774q0 383 84 537q145 268 540 268q179 0 299.5 -50.5t196.5 -158.5q67 -95 99 -261t32 -335q0 -150 -27.5 -313.5t-93.5 -265.5q-81 -124 -206 -177t-300 -53q-200 0 -328 55t-194 168q-102 171 -102 586zM281 774q0 -152 19 -301t65 -229q34 -59 82 -99.5t109 -61
t122.5 -28.5t140.5 -8q139 0 237.5 35.5t172.5 124.5q69 82 100 237t31 330q0 153 -26 298t-79 233q-63 104 -171 148t-265 44q-80 0 -147 -12t-118 -32t-91.5 -53.5t-69 -70t-49 -87.5t-32.5 -100t-19 -113.5t-9.5 -122.5t-2.5 -132zM856 1675l174 271h98l-178 -271h-94z
M709 1675h-95l177 271h98z" />
    <glyph glyph-name="ohungarumlaut" unicode="&#x151;" 
d="M137 535q0 104 9.5 183t38 157.5t76.5 128.5t129.5 81t193.5 31q109 0 189 -28.5t128.5 -77t78 -123.5t40 -155.5t10.5 -186.5q0 -103 -10 -183t-39 -157.5t-77.5 -127.5t-129.5 -81t-190 -31q-138 0 -222.5 37.5t-138.5 122.5q-41 65 -63.5 177t-22.5 233zM221 537
q0 -106 17.5 -203t48.5 -152q44 -78 113.5 -107.5t183.5 -29.5q215 0 293 133q69 120 69 369q0 91 -6.5 155.5t-28 132t-60 108.5t-106 67t-161.5 26q-68 0 -122.5 -14t-92 -37.5t-65 -61.5t-43.5 -77.5t-25 -93.5t-12 -103t-3 -112zM627 1274l174 270h98l-178 -270h-94z
M479 1274h-94l176 270h98z" />
    <glyph glyph-name="OE" unicode="&#x152;" horiz-adv-x="2387" 
d="M297 188q-102 171 -102 586q0 383 84 537q145 268 540 268q86 0 150.5 -6t91 -11.5t74.5 -17.5h1136v-82h-1007q37 -37 65 -84.5t44.5 -104.5t26.5 -107t14.5 -117.5t5.5 -110t1 -107.5h805v-81h-805q0 -95 -2 -152t-10 -149.5t-29.5 -165.5t-56.5 -127q-29 -44 -59 -74
h1040v-82h-1169q-119 -35 -316 -35q-200 0 -328 55t-194 168zM281 774q0 -152 19 -301t65 -229q34 -59 82 -99.5t109 -61t122.5 -28.5t140.5 -8q85 0 140 4.5t114 19.5t102 47t76 83q52 82 68 212.5t16 360.5q0 199 -12 326.5t-53 210.5q-55 111 -151.5 148.5t-299.5 37.5
q-80 0 -147 -12t-118 -32t-91.5 -53.5t-69 -70t-49 -87.5t-32.5 -100t-19 -113.5t-9.5 -122.5t-2.5 -132z" />
    <glyph glyph-name="oe" unicode="&#x153;" horiz-adv-x="1933" 
d="M223 125q-41 65 -63.5 177t-22.5 233q0 104 9.5 183t38 157.5t76.5 128.5t129.5 81t193.5 31q150 0 246 -53t151 -182q88 235 405 235q203 0 309.5 -105.5t106.5 -303.5q0 -91 -20 -205h-762q0 -92 9.5 -158.5t34.5 -125.5t68 -95.5t112 -57t165 -20.5q119 0 338 45v-84
q-200 -41 -338 -41q-76 0 -139 11t-122.5 37t-103 76.5t-65.5 123.5q-42 -126 -137.5 -187t-257.5 -61q-138 0 -222.5 37.5t-138.5 122.5zM221 537q0 -106 17.5 -203t48.5 -152q44 -78 113.5 -107.5t183.5 -29.5q215 0 290 133q68 119 68 369q0 64 -2.5 112t-11.5 101.5
t-24.5 92t-42.5 75t-64 59t-91 36t-122 13.5t-122.5 -14t-92 -37.5t-65 -61.5t-43.5 -77.5t-25 -93.5t-12 -103t-3 -112zM1386 1036q-88 0 -153.5 -22.5t-105.5 -61t-64.5 -98t-33.5 -124t-9 -148.5h690q8 47 8 125q0 329 -332 329z" />
    <glyph glyph-name="Racute" unicode="&#x154;" horiz-adv-x="1396" 
d="M309 0h-84v1544h492q66 0 116 -2.5t108.5 -11.5t101 -25t84.5 -43.5t68 -66t42 -94.5t16 -127q0 -160 -141 -316q-61 -70 -180 -184l403 -674h-102l-399 668h-525v-668zM309 1462v-712h578q112 108 160 163q56 66 88 127t32 131q0 42 -6.5 77.5t-20 62.5t-29 48.5
t-40.5 37t-47 27t-55 18.5t-58.5 11t-64 6t-64.5 2.5t-67 0.5h-406zM573 1675l234 271h117l-236 -271h-115z" />
    <glyph glyph-name="racute" unicode="&#x155;" horiz-adv-x="675" 
d="M180 1081h82v-137q95 66 180 101.5t205 60.5v-84q-115 -24 -199 -63.5t-186 -112.5v-846h-82v1081zM201 1274l233 270h117l-236 -270h-114z" />
    <glyph glyph-name="uni0156" unicode="&#x156;" horiz-adv-x="1396" 
d="M225 1544h492q66 0 116 -2.5t108.5 -11.5t101 -25t84.5 -43.5t68 -66t42 -94.5t16 -127q0 -160 -141 -316q-61 -70 -180 -184l403 -674h-102l-399 668h-525v-668h-84v1544zM309 1462v-712h578q112 108 160 163q56 66 88 127t32 131q0 42 -6.5 77.5t-20 62.5t-29 48.5
t-40.5 37t-47 27t-55 18.5t-58.5 11t-64 6t-64.5 2.5t-67 0.5h-406zM610 -573q16 70 23.5 131.5t8.5 101.5t1 121v90h88v-131q0 -71 -1.5 -107t-12 -92t-31.5 -114h-76z" />
    <glyph glyph-name="uni0157" unicode="&#x157;" horiz-adv-x="675" 
d="M262 0h-82v1081h82v-137q95 66 180 101.5t205 60.5v-84q-115 -24 -199 -63.5t-186 -112.5v-846zM219 -573h-76q16 70 23.5 131.5t8.5 101.5t1 121v90h88v-131q0 -71 -1.5 -107t-12 -92t-31.5 -114z" />
    <glyph glyph-name="Rcaron" unicode="&#x158;" horiz-adv-x="1396" 
d="M225 0v1544h492q66 0 116 -2.5t108.5 -11.5t101 -25t84.5 -43.5t68 -66t42 -94.5t16 -127q0 -160 -141 -316q-61 -70 -180 -184l403 -674h-102l-399 668h-525v-668h-84zM309 1462v-712h578q112 108 160 163q56 66 88 127t32 131q0 42 -6.5 77.5t-20 62.5t-29 48.5
t-40.5 37t-47 27t-55 18.5t-58.5 11t-64 6t-64.5 2.5t-67 0.5h-406zM367 1946h114l181 -193l178 193h114l-245 -271h-95z" />
    <glyph glyph-name="rcaron" unicode="&#x159;" horiz-adv-x="675" 
d="M262 0h-82v1081h82v-137q95 66 180 101.5t205 60.5v-84q-115 -24 -199 -63.5t-186 -112.5v-846zM297 1274l-248 270h115l180 -192l178 192h115l-246 -270h-94z" />
    <glyph glyph-name="Sacute" unicode="&#x15a;" horiz-adv-x="1310" 
d="M141 1176q0 187 101 288q63 63 151.5 89t231.5 26q80 0 172.5 -14.5t154.5 -30t178 -47.5v-84q-345 94 -505 94q-93 0 -160.5 -14t-124 -48t-85 -99t-28.5 -160q0 -66 12 -110.5t44 -76.5q45 -45 217 -104l348 -121q69 -24 115 -45.5t88.5 -53t66 -69.5t37.5 -91.5
t14 -123.5q0 -83 -29.5 -159.5t-82.5 -129.5q-69 -69 -163 -98t-230 -29q-176 0 -510 80v86q349 -84 503 -84q109 0 182 18.5t130 63.5q54 42 84 110.5t30 145.5q0 49 -7.5 87t-26 67t-38.5 49.5t-55.5 39t-66 31t-80.5 29.5l-350 123q-42 15 -66.5 24t-57.5 23t-52 26
t-42.5 29t-36 34.5t-27 41t-21 51t-11 61.5t-4.5 75zM522 1675l234 271h116l-235 -271h-115z" />
    <glyph glyph-name="sacute" unicode="&#x15b;" horiz-adv-x="1030" 
d="M127 831q0 67 20.5 118t54.5 82.5t83.5 50.5t101.5 26.5t115 7.5q127 0 360 -63v-82q-260 65 -360 65q-49 0 -87 -4t-78 -17t-66.5 -35t-43 -59.5t-16.5 -89.5q0 -96 45 -133q41 -32 168 -73l207 -68q52 -17 87.5 -31.5t73.5 -38t60 -52t36.5 -70.5t14.5 -95
q0 -88 -35.5 -150t-97.5 -94.5t-131 -46.5t-152 -14q-135 0 -348 51v82q226 -53 348 -53q61 0 114 9t105 31.5t82.5 68t30.5 110.5q0 30 -6 54.5t-15 42.5t-26.5 34t-32 26t-41.5 21.5t-44.5 17.5t-49.5 17l-190 64q-67 22 -94 31.5t-59.5 24.5t-55.5 32q-78 58 -78 202z
M387 1274l234 270h116l-235 -270h-115z" />
    <glyph glyph-name="Scircumflex" unicode="&#x15c;" horiz-adv-x="1310" 
d="M141 1176q0 187 101 288q63 63 151.5 89t231.5 26q80 0 172.5 -14.5t154.5 -30t178 -47.5v-84q-345 94 -505 94q-93 0 -160.5 -14t-124 -48t-85 -99t-28.5 -160q0 -66 12 -110.5t44 -76.5q45 -45 217 -104l348 -121q69 -24 115 -45.5t88.5 -53t66 -69.5t37.5 -91.5
t14 -123.5q0 -83 -29.5 -159.5t-82.5 -129.5q-69 -69 -163 -98t-230 -29q-176 0 -510 80v86q349 -84 503 -84q109 0 182 18.5t130 63.5q54 42 84 110.5t30 145.5q0 49 -7.5 87t-26 67t-38.5 49.5t-55.5 39t-66 31t-80.5 29.5l-350 123q-42 15 -66.5 24t-57.5 23t-52 26
t-42.5 29t-36 34.5t-27 41t-21 51t-11 61.5t-4.5 75zM471 1675h-115l248 271h94l246 -271h-115l-178 193z" />
    <glyph glyph-name="scircumflex" unicode="&#x15d;" horiz-adv-x="1030" 
d="M127 831q0 67 20.5 118t54.5 82.5t83.5 50.5t101.5 26.5t115 7.5q127 0 360 -63v-82q-260 65 -360 65q-49 0 -87 -4t-78 -17t-66.5 -35t-43 -59.5t-16.5 -89.5q0 -96 45 -133q41 -32 168 -73l207 -68q52 -17 87.5 -31.5t73.5 -38t60 -52t36.5 -70.5t14.5 -95
q0 -88 -35.5 -150t-97.5 -94.5t-131 -46.5t-152 -14q-135 0 -348 51v82q226 -53 348 -53q61 0 114 9t105 31.5t82.5 68t30.5 110.5q0 30 -6 54.5t-15 42.5t-26.5 34t-32 26t-41.5 21.5t-44.5 17.5t-49.5 17l-190 64q-67 22 -94 31.5t-59.5 24.5t-55.5 32q-78 58 -78 202z
M332 1274h-115l248 270h94l246 -270h-115l-178 192z" />
    <glyph glyph-name="Scedilla" unicode="&#x15e;" horiz-adv-x="1310" 
d="M141 1176q0 187 101 288q63 63 151.5 89t231.5 26q80 0 172.5 -14.5t154.5 -30t178 -47.5v-84q-345 94 -505 94q-93 0 -160.5 -14t-124 -48t-85 -99t-28.5 -160q0 -66 12 -110.5t44 -76.5q45 -45 217 -104l348 -121q69 -24 115 -45.5t88.5 -53t66 -69.5t37.5 -91.5
t14 -123.5q0 -83 -29.5 -159.5t-82.5 -129.5q-69 -69 -163 -98t-230 -29q-176 0 -510 80v86q349 -84 503 -84q109 0 182 18.5t130 63.5q54 42 84 110.5t30 145.5q0 49 -7.5 87t-26 67t-38.5 49.5t-55.5 39t-66 31t-80.5 29.5l-350 123q-42 15 -66.5 24t-57.5 23t-52 26
t-42.5 29t-36 34.5t-27 41t-21 51t-11 61.5t-4.5 75zM465 -391l164 268h108l-166 -268h-106z" />
    <glyph glyph-name="scedilla" unicode="&#x15f;" horiz-adv-x="1030" 
d="M127 831q0 67 20.5 118t54.5 82.5t83.5 50.5t101.5 26.5t115 7.5q127 0 360 -63v-82q-260 65 -360 65q-49 0 -87 -4t-78 -17t-66.5 -35t-43 -59.5t-16.5 -89.5q0 -96 45 -133q41 -32 168 -73l207 -68q52 -17 87.5 -31.5t73.5 -38t60 -52t36.5 -70.5t14.5 -95
q0 -88 -35.5 -150t-97.5 -94.5t-131 -46.5t-152 -14q-135 0 -348 51v82q226 -53 348 -53q61 0 114 9t105 31.5t82.5 68t30.5 110.5q0 30 -6 54.5t-15 42.5t-26.5 34t-32 26t-41.5 21.5t-44.5 17.5t-49.5 17l-190 64q-67 22 -94 31.5t-59.5 24.5t-55.5 32q-78 58 -78 202z
M332 -391l164 268h108l-166 -268h-106z" />
    <glyph glyph-name="Scaron" unicode="&#x160;" horiz-adv-x="1310" 
d="M141 1176q0 187 101 288q63 63 151.5 89t231.5 26q80 0 172.5 -14.5t154.5 -30t178 -47.5v-84q-345 94 -505 94q-93 0 -160.5 -14t-124 -48t-85 -99t-28.5 -160q0 -66 12 -110.5t44 -76.5q45 -45 217 -104l348 -121q69 -24 115 -45.5t88.5 -53t66 -69.5t37.5 -91.5
t14 -123.5q0 -83 -29.5 -159.5t-82.5 -129.5q-69 -69 -163 -98t-230 -29q-176 0 -510 80v86q349 -84 503 -84q109 0 182 18.5t130 63.5q54 42 84 110.5t30 145.5q0 49 -7.5 87t-26 67t-38.5 49.5t-55.5 39t-66 31t-80.5 29.5l-350 123q-42 15 -66.5 24t-57.5 23t-52 26
t-42.5 29t-36 34.5t-27 41t-21 51t-11 61.5t-4.5 75zM365 1946h114l180 -193l179 193h114l-245 -271h-95z" />
    <glyph glyph-name="scaron" unicode="&#x161;" horiz-adv-x="1030" 
d="M127 831q0 67 20.5 118t54.5 82.5t83.5 50.5t101.5 26.5t115 7.5q127 0 360 -63v-82q-260 65 -360 65q-49 0 -87 -4t-78 -17t-66.5 -35t-43 -59.5t-16.5 -89.5q0 -96 45 -133q41 -32 168 -73l207 -68q52 -17 87.5 -31.5t73.5 -38t60 -52t36.5 -70.5t14.5 -95
q0 -88 -35.5 -150t-97.5 -94.5t-131 -46.5t-152 -14q-135 0 -348 51v82q226 -53 348 -53q61 0 114 9t105 31.5t82.5 68t30.5 110.5q0 30 -6 54.5t-15 42.5t-26.5 34t-32 26t-41.5 21.5t-44.5 17.5t-49.5 17l-190 64q-67 22 -94 31.5t-59.5 24.5t-55.5 32q-78 58 -78 202z
M203 1544h114l181 -192l178 192h115l-246 -270h-94z" />
    <glyph glyph-name="uni0162" unicode="&#x162;" horiz-adv-x="1353" 
d="M635 1462h-578v82h1239v-82h-577v-1462h-84v1462zM602 -391h-106l163 268h109z" />
    <glyph glyph-name="uni0163" unicode="&#x163;" horiz-adv-x="612" 
d="M178 1352h82v-285h326v-80h-326v-594q0 -141 6 -194q9 -81 72 -103q47 -16 203 -28v-82q-166 12 -230 32q-89 27 -114 103q-13 40 -16 94t-3 180v957zM272 -391h-106l164 268h108z" />
    <glyph glyph-name="Tcaron" unicode="&#x164;" horiz-adv-x="1353" 
d="M57 1544h1239v-82h-577v-1462h-84v1462h-578v82zM635 1675l-248 271h115l180 -193l178 193h115l-246 -271h-94z" />
    <glyph glyph-name="tcaron" unicode="&#x165;" horiz-adv-x="612" 
d="M178 395v957h82v-285h326v-80h-326v-594q0 -141 6 -194q9 -81 72 -103q47 -16 203 -28v-82q-166 12 -230 32q-89 27 -114 103q-13 40 -16 94t-3 180zM377 1171v373h88v-133q0 -115 -14 -240h-74z" />
    <glyph glyph-name="Tbar" unicode="&#x166;" horiz-adv-x="1353" 
d="M57 1544h1239v-82h-577v-614h307v-82h-307v-766h-84v766h-307v82h307v614h-578v82z" />
    <glyph glyph-name="tbar" unicode="&#x167;" horiz-adv-x="616" 
d="M178 1352h82v-285h326v-80h-326v-237h326v-80h-326v-277q0 -141 6 -194q9 -81 72 -103q44 -15 203 -28v-82q-166 12 -230 32q-88 27 -114 105q-13 40 -16 93t-3 179v957z" />
    <glyph glyph-name="Utilde" unicode="&#x168;" horiz-adv-x="1513" 
d="M217 573v971h84v-969q0 -100 6.5 -169.5t24.5 -132.5t50 -102.5t83.5 -69t123.5 -42t171 -12.5q86 0 151 10t113 28.5t81.5 52t54.5 72.5t32.5 98t15.5 120t4 147v969h84v-971q0 -210 -28 -322t-119 -185q-67 -54 -160.5 -77.5t-228.5 -23.5q-136 0 -229.5 23.5
t-163.5 79.5q-87 67 -118.5 184t-31.5 321zM406 1681q47 124 91.5 169.5t116.5 45.5q40 0 74.5 -15t83.5 -56q48 -41 74 -56.5t57 -15.5q49 0 72 29t51 100h90q-17 -39 -25.5 -58t-24.5 -49t-29.5 -44t-34 -30t-45.5 -22t-56 -6q-41 0 -73.5 12.5t-69.5 45.5
q-52 47 -83 66.5t-61 19.5q-24 0 -42.5 -10t-33.5 -34.5t-22.5 -40t-21.5 -51.5h-88z" />
    <glyph glyph-name="utilde" unicode="&#x169;" horiz-adv-x="1155" 
d="M178 399v682h82v-684q0 -83 2 -123t15 -93.5t39.5 -77t76.5 -41t125 -17.5q73 0 148 11.5t116 22.5t111 32v970h82v-1032q-112 -32 -166 -46t-132 -26t-153 -12q-48 0 -88 4t-72 14t-57 22t-44 31t-33 38.5t-23 48.5t-15 56t-9 65.5t-4 73t-1 81.5zM229 1288
q47 124 92 169.5t117 45.5q40 0 74.5 -15t83.5 -56q48 -41 74 -56.5t57 -15.5q49 0 72 29t51 100h90q-17 -39 -25.5 -58t-24.5 -49t-29.5 -44t-34 -30t-45.5 -22t-56 -6q-42 0 -74 12t-69 45q-52 47 -83 66.5t-61 19.5q-24 0 -43 -10t-34 -33.5t-22.5 -40t-21.5 -51.5h-88z
" />
    <glyph glyph-name="Umacron" unicode="&#x16a;" horiz-adv-x="1513" 
d="M217 1544h84v-969q0 -100 6.5 -169.5t24.5 -132.5t50 -102.5t83.5 -69t123.5 -42t171 -12.5q86 0 151 10t113 28.5t81.5 52t54.5 72.5t32.5 98t15.5 120t4 147v969h84v-971q0 -210 -28 -322t-119 -185q-67 -54 -160.5 -77.5t-228.5 -23.5q-136 0 -229.5 23.5t-163.5 79.5
q-87 67 -118.5 184t-31.5 321v971zM485 1729v81h547v-81h-547z" />
    <glyph glyph-name="umacron" unicode="&#x16b;" horiz-adv-x="1155" 
d="M178 399v682h82v-684q0 -83 2 -123t15 -93.5t39.5 -77t76.5 -41t125 -17.5q73 0 148 11.5t116 22.5t111 32v970h82v-1032q-112 -32 -166 -46t-132 -26t-153 -12q-48 0 -88 4t-72 14t-57 22t-44 31t-33 38.5t-23 48.5t-15 56t-9 65.5t-4 73t-1 81.5zM850 1331h-547v82h547
v-82z" />
    <glyph glyph-name="Ubreve" unicode="&#x16c;" horiz-adv-x="1513" 
d="M217 1544h84v-969q0 -100 6.5 -169.5t24.5 -132.5t50 -102.5t83.5 -69t123.5 -42t171 -12.5q86 0 151 10t113 28.5t81.5 52t54.5 72.5t32.5 98t15.5 120t4 147v969h84v-971q0 -210 -28 -322t-119 -185q-67 -54 -160.5 -77.5t-228.5 -23.5q-136 0 -229.5 23.5t-163.5 79.5
q-87 67 -118.5 184t-31.5 321v971zM762 1667q-66 0 -115 20t-82 60t-53.5 86.5t-38.5 112.5h88q13 -40 22 -64.5t25.5 -53t35.5 -43.5t49 -25.5t69 -10.5q44 0 77.5 15.5t56.5 45t37.5 61t27.5 75.5h88q-17 -63 -38 -110t-54 -87t-82 -61t-113 -21z" />
    <glyph glyph-name="ubreve" unicode="&#x16d;" horiz-adv-x="1155" 
d="M178 1081h82v-684q0 -83 2 -123t15 -93.5t39.5 -77t76.5 -41t125 -17.5q73 0 148 11.5t116 22.5t111 32v970h82v-1032q-112 -32 -166 -46t-132 -26t-153 -12q-48 0 -88 4t-72 14t-57 22t-44 31t-33 38.5t-23 48.5t-15 56t-9 65.5t-4 73t-1 81.5v682zM575 1266
q-66 0 -115 19.5t-81.5 59.5t-53 86t-38.5 113h88q16 -51 28 -79.5t34.5 -59t56 -44t81.5 -13.5q83 0 127.5 52t71.5 144h88q-17 -63 -38 -110t-54 -87t-82 -60.5t-113 -20.5z" />
    <glyph glyph-name="Uring" unicode="&#x16e;" horiz-adv-x="1513" 
d="M217 1544h84v-969q0 -100 6.5 -169.5t24.5 -132.5t50 -102.5t83.5 -69t123.5 -42t171 -12.5q86 0 151 10t113 28.5t81.5 52t54.5 72.5t32.5 98t15.5 120t4 147v969h84v-971q0 -210 -28 -322t-119 -185q-67 -54 -160.5 -77.5t-228.5 -23.5q-136 0 -229.5 23.5t-163.5 79.5
q-87 67 -118.5 184t-31.5 321v971zM752 1626q-95 0 -156 56.5t-61 150.5q0 98 59 155.5t158 57.5t158 -57.5t59 -155.5q0 -94 -61 -150.5t-156 -56.5zM752 1970q-68 0 -104 -35t-36 -102q0 -63 38 -97t102 -34t101.5 34t37.5 97q0 67 -35.5 102t-103.5 35z" />
    <glyph glyph-name="uring" unicode="&#x16f;" horiz-adv-x="1155" 
d="M178 399v682h82v-684q0 -83 2 -123t15 -93.5t39.5 -77t76.5 -41t125 -17.5q73 0 148 11.5t116 22.5t111 32v970h82v-1032q-112 -32 -166 -46t-132 -26t-153 -12q-48 0 -88 4t-72 14t-57 22t-44 31t-33 38.5t-23 48.5t-15 56t-9 65.5t-4 73t-1 81.5zM573 1223
q-95 0 -156 56.5t-61 150.5q0 98 59 155t158 57t158.5 -57t59.5 -155q0 -94 -61.5 -150.5t-156.5 -56.5zM573 1567q-68 0 -103.5 -35t-35.5 -102q0 -63 37.5 -97.5t101.5 -34.5t102 34.5t38 97.5q0 67 -36 102t-104 35z" />
    <glyph glyph-name="Uhungarumlaut" unicode="&#x170;" horiz-adv-x="1513" 
d="M217 1544h84v-969q0 -100 6.5 -169.5t24.5 -132.5t50 -102.5t83.5 -69t123.5 -42t171 -12.5q86 0 151 10t113 28.5t81.5 52t54.5 72.5t32.5 98t15.5 120t4 147v969h84v-971q0 -210 -28 -322t-119 -185q-67 -54 -160.5 -77.5t-228.5 -23.5q-136 0 -229.5 23.5t-163.5 79.5
q-87 67 -118.5 184t-31.5 321v971zM881 1675h-95l175 271h98zM639 1675h-94l176 271h98z" />
    <glyph glyph-name="uhungarumlaut" unicode="&#x171;" horiz-adv-x="1155" 
d="M178 399v682h82v-684q0 -83 2 -123t15 -93.5t39.5 -77t76.5 -41t125 -17.5q73 0 148 11.5t116 22.5t111 32v970h82v-1032q-112 -32 -166 -46t-132 -26t-153 -12q-48 0 -88 4t-72 14t-57 22t-44 31t-33 38.5t-23 48.5t-15 56t-9 65.5t-4 73t-1 81.5zM610 1274l174 270h99
l-178 -270h-95zM463 1274h-94l176 270h98z" />
    <glyph glyph-name="Uogonek" unicode="&#x172;" horiz-adv-x="1513" 
d="M217 1544h84v-969q0 -100 6.5 -169.5t24.5 -132.5t50 -102.5t83.5 -69t123.5 -42t171 -12.5q86 0 151 10t113 28.5t81.5 52t54.5 72.5t32.5 98t15.5 120t4 147v969h84v-971q0 -70 -1 -110t-6.5 -100t-16.5 -99.5t-32 -83.5t-52 -78q-45 -50 -152 -100q-39 -19 -91 -60.5
t-95 -97t-43 -96.5q0 -61 63 -61q47 0 152 43v-88q-79 -37 -148 -37q-153 0 -153 149q0 98 145 215q-54 -4 -106 -4q-136 0 -229.5 23.5t-163.5 79.5q-87 67 -118.5 184t-31.5 321v971z" />
    <glyph glyph-name="uogonek" unicode="&#x173;" horiz-adv-x="1155" 
d="M178 1081h82v-684q0 -83 2 -123t15 -93.5t39.5 -77t76.5 -41t125 -17.5q73 0 148 11.5t116 22.5t111 32v970h82v-1032q-117 -135 -162 -188q-53 -62 -53 -113q0 -61 63 -61q47 0 152 43v-88q-79 -37 -148 -37q-153 0 -153 149q0 95 176 260q-177 -49 -326 -49
q-48 0 -88 4t-72 14t-57 22t-44 31t-33 38.5t-23 48.5t-15 56t-9 65.5t-4 73t-1 81.5v682z" />
    <glyph glyph-name="Wcircumflex" unicode="&#x174;" horiz-adv-x="1810" 
d="M78 1544h86l309 -1470l371 1237h123l370 -1237l310 1470h86l-326 -1544h-135l-367 1227l-366 -1227h-136zM709 1675h-115l248 271h94l246 -271h-115l-178 193z" />
    <glyph glyph-name="wcircumflex" unicode="&#x175;" horiz-adv-x="1540" 
d="M41 1081h86l283 -991l299 991h122l299 -991l283 991h86l-309 -1081h-117l-303 1006l-303 -1006h-117zM596 1274h-115l248 270h94l246 -270h-115l-178 192z" />
    <glyph glyph-name="Ycircumflex" unicode="&#x176;" horiz-adv-x="1212" 
d="M563 594l-575 950h100l518 -854l518 854h101l-576 -950v-594h-86v594zM313 1675l248 271h94l246 -271h-115l-178 193l-180 -193h-115z" />
    <glyph glyph-name="ycircumflex" unicode="&#x177;" horiz-adv-x="997" 
d="M29 1081h90l379 -948l383 948h88l-594 -1474h-90l168 413zM317 1274h-114l248 270h94l246 -270h-115l-178 192z" />
    <glyph glyph-name="Ydieresis" unicode="&#x178;" horiz-adv-x="1212" 
d="M563 594l-575 950h100l518 -854l518 854h101l-576 -950v-594h-86v594zM745 1688v258h91v-258h-91zM375 1688v258h90v-258h-90z" />
    <glyph glyph-name="Zacute" unicode="&#x179;" horiz-adv-x="1296" 
d="M1188 0h-1079v92l966 1370h-936v82h1035v-92l-967 -1370h981v-82zM641 1675h-115l234 271h117z" />
    <glyph glyph-name="zacute" unicode="&#x17a;" horiz-adv-x="1056" 
d="M973 0h-881v72l750 929h-717v80h831v-71l-749 -930h766v-80zM532 1274h-114l233 270h117z" />
    <glyph glyph-name="Zdotaccent" unicode="&#x17b;" horiz-adv-x="1296" 
d="M1188 0h-1079v92l966 1370h-936v82h1035v-92l-967 -1370h981v-82zM686 1688h-90v258h90v-258z" />
    <glyph glyph-name="zdotaccent" unicode="&#x17c;" horiz-adv-x="1056" 
d="M973 0h-881v72l750 929h-717v80h831v-71l-749 -930h766v-80zM575 1286h-90v258h90v-258z" />
    <glyph glyph-name="Zcaron" unicode="&#x17d;" horiz-adv-x="1296" 
d="M1188 0h-1079v92l966 1370h-936v82h1035v-92l-967 -1370h981v-82zM356 1946h115l180 -193l178 193h115l-246 -271h-94z" />
    <glyph glyph-name="zcaron" unicode="&#x17e;" horiz-adv-x="1056" 
d="M973 0h-881v72l750 929h-717v80h831v-71l-749 -930h766v-80zM244 1544h114l181 -192l178 192h114l-245 -270h-94z" />
    <glyph glyph-name="uni018F" unicode="&#x18f;" horiz-adv-x="1490" 
d="M190 514q0 135 19 268h1001q0 347 -82 504q-62 117 -153 164t-248 47q-74 0 -166 -13t-151.5 -25.5t-165.5 -37.5v84q307 74 473 74q128 0 219.5 -27t149 -74.5t104.5 -123.5q60 -96 83 -246.5t23 -362.5q0 -90 -6 -167t-22.5 -158.5t-43.5 -146.5t-70.5 -124
t-101.5 -98.5t-139.5 -62.5t-181.5 -23q-283 0 -412 133.5t-129 415.5zM276 526q0 -251 101.5 -365t351.5 -114q481 0 481 653h-923q-11 -85 -11 -174z" />
    <glyph glyph-name="florin" unicode="&#x192;" horiz-adv-x="704" 
d="M-23 -344q142 66 197 115q48 43 68 98q14 41 14 180v1014q0 57 1 94.5t4 80t9 69.5t16.5 58.5t25 51.5t36.5 42.5t49.5 37.5t64.5 32t81 30.5t100 27.5v-84q-39 -10 -60 -16t-53 -16.5t-50 -20.5t-41.5 -24.5t-36.5 -31.5t-27 -39.5t-21 -51t-10 -62.5q-6 -70 -6 -174
h309v-80h-309v-938q0 -147 -16 -201q-14 -50 -40 -82.5t-77 -72.5q-54 -42 -228 -125v88z" />
    <glyph glyph-name="uni019D" unicode="&#x19d;" horiz-adv-x="1548" 
d="M-160 -354q40 13 61.5 20.5t68.5 25t77.5 33.5t66.5 38t59 47.5t32 52.5q20 59 20 274v1407h127l887 -1452v1452h84v-1544h-127l-887 1452v-1305q0 -95 -0.5 -132t-5.5 -88.5t-16 -86.5q-24 -78 -105 -133q-112 -74 -342 -147v86z" />
    <glyph glyph-name="Ohorn" unicode="&#x1a0;" horiz-adv-x="1640" 
d="M195 774q0 383 84 537q145 268 540 268q385 0 520 -250q39 6 65 25t33 33t7 20v184h82v-184q0 -43 -39.5 -90t-112.5 -64q72 -199 72 -479q0 -150 -27.5 -313.5t-93.5 -265.5q-81 -124 -206 -177t-300 -53q-200 0 -328 55t-194 168q-102 171 -102 586zM281 774
q0 -152 19 -301t65 -229q34 -59 82 -99.5t109 -61t122.5 -28.5t140.5 -8q139 0 237.5 35.5t172.5 124.5q69 82 100 237t31 330q0 153 -26 298t-79 233q-63 104 -171 148t-265 44q-80 0 -147 -12t-118 -32t-91.5 -53.5t-69 -70t-49 -87.5t-32.5 -100t-19 -113.5t-9.5 -122.5
t-2.5 -132z" />
    <glyph glyph-name="ohorn" unicode="&#x1a1;" 
d="M137 535q0 104 9.5 183t38 157.5t76.5 128.5t129.5 81t193.5 31q292 0 379 -194q34 7 57 25t29 30.5t6 19.5v185h82v-185q0 -42 -37.5 -87.5t-106.5 -65.5q37 -112 37 -299q0 -103 -10 -183t-39 -157.5t-77.5 -127.5t-129.5 -81t-190 -31q-138 0 -222.5 37.5
t-138.5 122.5q-41 65 -63.5 177t-22.5 233zM221 537q0 -106 17.5 -203t48.5 -152q44 -78 113.5 -107.5t183.5 -29.5q215 0 293 133q69 120 69 369q0 91 -6.5 155.5t-28 132t-60 108.5t-106 67t-161.5 26q-68 0 -122.5 -14t-92 -37.5t-65 -61.5t-43.5 -77.5t-25 -93.5
t-12 -103t-3 -112z" />
    <glyph glyph-name="Uhorn" unicode="&#x1af;" horiz-adv-x="1513" 
d="M217 1544h84v-969q0 -100 6.5 -169.5t24.5 -132.5t50 -102.5t83.5 -69t123.5 -42t171 -12.5q86 0 151 10t113 28.5t81.5 52t54.5 72.5t32.5 98t15.5 120t4 147v969h84v-219q33 1 60 9t42 18.5t25 23t13.5 20t3.5 11.5v184h82v-184q0 -24 -13.5 -50.5t-39.5 -52.5
t-71.5 -43t-101.5 -18v-670q0 -210 -28 -322t-119 -185q-67 -54 -160.5 -77.5t-228.5 -23.5q-136 0 -229.5 23.5t-163.5 79.5q-87 67 -118.5 184t-31.5 321v971z" />
    <glyph glyph-name="uhorn" unicode="&#x1b0;" horiz-adv-x="1155" 
d="M178 399v682h82v-684q0 -83 2 -123t15 -93.5t39.5 -77t76.5 -41t125 -17.5q73 0 148 11.5t116 22.5t111 32v970h82v-166q32 1 58 9t40 18.5t23.5 23t12.5 20t3 11.5v185h82v-185q0 -24 -13 -50.5t-38 -52t-69 -42.5t-99 -18v-785q-112 -32 -166 -46t-132 -26t-153 -12
q-48 0 -88 4t-72 14t-57 22t-44 31t-33 38.5t-23 48.5t-15 56t-9 65.5t-4 73t-1 81.5z" />
    <glyph glyph-name="Gcaron" unicode="&#x1e6;" horiz-adv-x="1515" 
d="M195 768q0 410 104 588q69 119 173 171t290 52q184 0 481 -82v-84q-317 84 -481 84q-158 0 -250.5 -46t-151.5 -161q-40 -80 -59.5 -222t-19.5 -302q0 -322 65 -473q59 -139 168 -192.5t279 -53.5q129 0 419 41v733h84v-805q-347 -51 -534 -51q-106 0 -190.5 23.5
t-143 63t-101.5 101t-68 126.5t-40 151.5t-19.5 163.5t-4.5 174zM727 1675l-248 271h115l180 -193l178 193h115l-246 -271h-94z" />
    <glyph glyph-name="gcaron" unicode="&#x1e7;" horiz-adv-x="1175" 
d="M139 553q0 256 72 389q54 98 139 136t213 38q129 0 432 -100v-955q0 -236 -124 -362.5t-359 -126.5q-109 0 -336 29v84q209 -33 336 -33q197 0 299 109t102 307v59q-123 -60 -221 -93.5t-196 -33.5q-125 0 -189 40.5t-104 119.5q-64 125 -64 393zM281 897
q-58 -113 -58 -344q0 -239 53 -354q29 -64 81.5 -91.5t138.5 -27.5q48 0 101 11.5t116.5 37.5t98 42t101.5 48v737q-244 80 -354 80t-174.5 -31.5t-103.5 -107.5zM285 1544h114l181 -192l178 192h114l-245 -270h-95z" />
    <glyph glyph-name="uni01EA" unicode="&#x1ea;" horiz-adv-x="1640" 
d="M195 774q0 383 84 537q145 268 540 268q179 0 299.5 -50.5t196.5 -158.5q67 -95 99 -261t32 -335q0 -150 -27.5 -313.5t-93.5 -265.5q-29 -45 -61.5 -79t-71 -57.5t-63 -35t-68.5 -29.5q-64 -25 -144.5 -105t-80.5 -141t63 -61q47 0 152 43v-88q-79 -37 -148 -37
q-153 0 -153 149q0 100 141 213q-20 -2 -70 -2q-86 0 -156 9t-141 32t-129 69t-98 113q-102 171 -102 586zM281 774q0 -152 19 -301t65 -229q34 -59 82 -99.5t109 -61t122.5 -28.5t140.5 -8q139 0 237.5 35.5t172.5 124.5q69 82 100 237t31 330q0 153 -26 298t-79 233
q-63 104 -171 148t-265 44q-80 0 -147 -12t-118 -32t-91.5 -53.5t-69 -70t-49 -87.5t-32.5 -100t-19 -113.5t-9.5 -122.5t-2.5 -132z" />
    <glyph glyph-name="uni01EB" unicode="&#x1eb;" 
d="M223 125q-41 65 -63.5 177t-22.5 233q0 104 9.5 183t38 157.5t76.5 128.5t129.5 81t193.5 31q109 0 189 -28.5t128.5 -77t78 -123.5t40 -155.5t10.5 -186.5q0 -118 -18 -220.5t-49 -162.5q-58 -113 -193 -170q-64 -28 -142.5 -106t-78.5 -138q0 -61 63 -61q47 0 152 43
v-88q-79 -37 -148 -37q-153 0 -153 149q0 42 25.5 85t50 66t67.5 60q-141 0 -231 31t-152 129zM584 1036q-68 0 -122.5 -14t-92 -37.5t-65 -61t-43.5 -77t-25 -94t-12 -103t-3 -112.5q0 -106 17.5 -203t48.5 -152q44 -78 113.5 -107.5t183.5 -29.5q215 0 293 133
q69 120 69 369q0 91 -6.5 155.5t-28 132t-60 108.5t-106 67t-161.5 26z" />
    <glyph glyph-name="Aringacute" unicode="&#x1fa;" horiz-adv-x="1378" 
d="M43 0l563 1475q-63 20 -99 73t-36 121q0 98 59 155.5t158 57.5t158 -57.5t59 -155.5q0 -69 -36 -121t-101 -73l567 -1475h-92l-170 440h-772l-168 -440h-90zM686 1454l-354 -932h710zM688 1806q-68 0 -103.5 -35t-35.5 -102q0 -63 37.5 -97t101.5 -34t101.5 34t37.5 97
q0 67 -35.5 102t-103.5 35zM602 1956l180 205h121l-184 -205h-117z" />
    <glyph glyph-name="aringacute" unicode="&#x1fb;" 
d="M137 551q0 101 11 181t41.5 154t79.5 123t128.5 78t186.5 29q56 0 129 -17.5t124.5 -35.5t149.5 -55v-1008h-82v199q-59 -53 -133 -113q-77 -62 -141.5 -91.5t-143.5 -29.5t-136.5 23.5t-89.5 58.5t-60 90q-31 62 -47.5 174.5t-16.5 239.5zM578 1036q-89 0 -154.5 -26.5
t-104 -68.5t-61 -107.5t-30 -131t-7.5 -151.5q0 -43 0.5 -69t3 -72t7 -76.5t13.5 -72.5t22 -69.5t33.5 -57.5t46.5 -48t61.5 -29.5t78.5 -11.5q100 0 218 92q123 97 200 168v647q-77 29 -115 42.5t-99.5 27.5t-112.5 14zM596 1223q-95 0 -156 56.5t-61 150.5q0 98 59 155
t158 57t158 -57t59 -155q0 -94 -61 -150.5t-156 -56.5zM596 1567q-68 0 -103.5 -35t-35.5 -102q0 -63 37.5 -97.5t101.5 -34.5t101.5 34.5t37.5 97.5q0 67 -35.5 102t-103.5 35zM633 1683h-115l225 263h117z" />
    <glyph glyph-name="AEacute" unicode="&#x1fc;" horiz-adv-x="2187" 
d="M104 0h-100l1030 1544h1037v-82h-908v-631h862v-81h-862v-668h940v-82h-1024v440h-680zM455 522h624v942zM1161 1675h-114l233 271h117z" />
    <glyph glyph-name="aeacute" unicode="&#x1fd;" horiz-adv-x="1880" 
d="M133 272q0 64 16 114t38 82.5t64.5 55t76 34t94 17t96 6.5t103.5 1h268v159q0 63 -3.5 102.5t-14.5 76t-29.5 56t-52 34.5t-78.5 20.5t-111 5.5q-77 0 -205.5 -22.5t-218.5 -44.5v82q283 65 420 65q154 0 238.5 -38.5t121.5 -139.5q91 178 377 178q203 0 309.5 -105.5
t106.5 -303.5q0 -91 -20 -205h-760q0 -80 5 -136.5t19 -112t41 -91t69.5 -64t105 -41t147.5 -12.5q119 0 338 45v-84q-200 -41 -338 -41q-347 0 -434 234q-65 -51 -105.5 -80.5t-107.5 -71t-129.5 -62t-120.5 -20.5q-163 0 -244.5 72.5t-81.5 234.5zM969 582h686
q10 58 10 123q0 331 -332 331q-90 0 -156 -23t-105.5 -61t-63 -98t-31.5 -123.5t-8 -148.5zM217 272q0 -120 56 -172.5t176 -52.5q50 0 108.5 20.5t124.5 61t106 68t101 73.5v232h-283q-119 0 -189 -8.5t-120 -40.5q-80 -51 -80 -181zM950 1274h-114l233 270h117z" />
    <glyph glyph-name="Oslashacute" unicode="&#x1fe;" horiz-adv-x="1640" 
d="M195 774q0 383 84 537q145 268 540 268q179 0 299.5 -50.5t196.5 -158.5q67 -95 99 -261t32 -335q0 -150 -27.5 -313.5t-93.5 -265.5q-81 -124 -206 -177t-300 -53q-200 0 -328 55t-194 168q-102 171 -102 586zM1223 1350l-760 -1217q115 -86 356 -86q139 0 237.5 35.5
t172.5 124.5q69 82 100 237t31 330q0 101 -9 196.5t-42 206.5t-86 173zM819 1497q-80 0 -147 -12t-118 -32t-91.5 -53.5t-69 -70t-49 -87.5t-32.5 -100t-19 -113.5t-9.5 -122.5t-2.5 -132q0 -445 120 -584l760 1217q-116 90 -342 90zM819 1675h-114l233 271h117z" />
    <glyph glyph-name="oslashacute" unicode="&#x1ff;" 
d="M137 535q0 104 9.5 183t38 157.5t76.5 128.5t129.5 81t193.5 31q109 0 189 -28.5t128.5 -77t78 -123.5t40 -155.5t10.5 -186.5q0 -103 -10 -183t-39 -157.5t-77.5 -127.5t-129.5 -81t-190 -31q-138 0 -222.5 37.5t-138.5 122.5q-41 65 -63.5 177t-22.5 233zM866 922
l-510 -822q76 -55 228 -55q215 0 293 133q69 120 69 369q0 280 -80 375zM584 1036q-68 0 -122.5 -14t-92 -37.5t-65 -61t-43.5 -77t-25 -94t-12 -103t-3 -112.5q0 -261 78 -377l510 821q-76 55 -225 55zM559 1274h-115l234 270h117z" />
    <glyph glyph-name="uni0218" unicode="&#x218;" horiz-adv-x="1310" 
d="M141 1176q0 187 101 288q63 63 151.5 89t231.5 26q80 0 172.5 -14.5t154.5 -30t178 -47.5v-84q-345 94 -505 94q-93 0 -160.5 -14t-124 -48t-85 -99t-28.5 -160q0 -66 12 -110.5t44 -76.5q45 -45 217 -104l348 -121q69 -24 115 -45.5t88.5 -53t66 -69.5t37.5 -91.5
t14 -123.5q0 -83 -29.5 -159.5t-82.5 -129.5q-69 -69 -163 -98t-230 -29q-176 0 -510 80v86q349 -84 503 -84q109 0 182 18.5t130 63.5q54 42 84 110.5t30 145.5q0 49 -7.5 87t-26 67t-38.5 49.5t-55.5 39t-66 31t-80.5 29.5l-350 123q-42 15 -66.5 24t-57.5 23t-52 26
t-42.5 29t-36 34.5t-27 41t-21 51t-11 61.5t-4.5 75zM657 -567h-75q16 70 23 132.5t8 99.5t1 122v90h88v-131q0 -71 -1.5 -107t-12 -92t-31.5 -114z" />
    <glyph glyph-name="uni0219" unicode="&#x219;" horiz-adv-x="1030" 
d="M205 629q-78 58 -78 202q0 67 20.5 118t54.5 82.5t83.5 50.5t101.5 26.5t115 7.5q127 0 360 -63v-82q-260 65 -360 65q-49 0 -87 -4t-78 -17t-66.5 -35t-43 -59.5t-16.5 -89.5q0 -96 45 -133q41 -32 168 -73l207 -68q52 -17 87.5 -31.5t73.5 -38t60 -52t36.5 -70.5
t14.5 -95q0 -88 -35.5 -150t-97.5 -94.5t-131 -46.5t-152 -14q-135 0 -348 51v82q226 -53 348 -53q61 0 114 9t105 31.5t82.5 68t30.5 110.5q0 30 -6 54.5t-15 42.5t-26.5 34t-32 26t-41.5 21.5t-44.5 17.5t-49.5 17l-190 64q-67 22 -94 31.5t-59.5 24.5t-55.5 32zM516 -573
h-76q16 70 23.5 131.5t8.5 101.5t1 121v90h88v-131q0 -71 -1.5 -107t-12 -92t-31.5 -114z" />
    <glyph glyph-name="uni021A" unicode="&#x21a;" horiz-adv-x="1353" 
d="M57 1544h1239v-82h-577v-1462h-84v1462h-578v82zM678 -573h-76q16 70 23.5 131.5t8.5 101.5t1 121v90h88v-131q0 -71 -1.5 -107t-12 -92t-31.5 -114z" />
    <glyph glyph-name="uni021B" unicode="&#x21b;" horiz-adv-x="612" 
d="M178 1352h82v-285h326v-80h-326v-594q0 -141 6 -194q9 -81 72 -103q47 -16 203 -28v-82q-166 12 -230 32q-89 27 -114 103q-13 40 -16 94t-3 180v957zM254 -573q16 70 23.5 131.5t8.5 101.5t1 121v90h88v-131q0 -71 -1.5 -107t-12 -92t-31.5 -114h-76z" />
    <glyph glyph-name="uni0232" unicode="&#x232;" horiz-adv-x="1212" 
d="M563 594l-575 950h100l518 -854l518 854h101l-576 -950v-594h-86v594zM332 1733v82h547v-82h-547z" />
    <glyph glyph-name="uni0233" unicode="&#x233;" horiz-adv-x="997" 
d="M29 1081h90l379 -948l383 948h88l-594 -1474h-90l168 413zM770 1331h-547v82h547v-82z" />
    <glyph glyph-name="uni0237" unicode="&#x237;" horiz-adv-x="464" 
d="M-76 -432v90q143 66 197 113q47 42 65 98q17 52 17 184v1028h82v-1015q0 -162 -15 -218q-14 -50 -40.5 -86t-77.5 -73q-56 -42 -228 -121z" />
    <glyph glyph-name="uni0259" unicode="&#x259;" horiz-adv-x="1134" 
d="M131 375q0 85 21 205h763q0 91 -9.5 158t-35.5 126t-69.5 95t-112.5 56.5t-164 20.5q-112 0 -338 -43v82q200 41 338 41q85 0 153 -13.5t117 -38t85 -63.5t58.5 -84t36 -106.5t18.5 -124.5t5 -143q0 -106 -10 -185.5t-38.5 -157t-77.5 -126.5t-130.5 -79t-193.5 -30
q-203 0 -309.5 106t-106.5 304zM215 375q0 -330 332 -330q88 0 153.5 23t106 62t65.5 98.5t34 124t9 147.5h-690q-10 -58 -10 -125z" />
    <glyph glyph-name="uni0272" unicode="&#x272;" horiz-adv-x="1177" 
d="M129 -311q-58 -44 -227 -121v90q141 65 196 113q48 43 66 98q16 49 16 184v1028h82v-88q97 44 150 65t126 39.5t138 18.5q60 0 107.5 -9t81.5 -25.5t58.5 -43.5t39.5 -57.5t23.5 -74t11.5 -86.5t3 -101v-719h-81v723q0 47 -2 79.5t-7.5 67.5t-16 58.5t-28.5 45.5
t-44 34.5t-62.5 20t-83.5 7.5q-60 0 -141 -23.5t-131.5 -45t-141.5 -62.5v-839q0 -166 -14 -218q-13 -49 -40.5 -85.5t-78.5 -73.5z" />
    <glyph glyph-name="circumflex" unicode="&#x2c6;" horiz-adv-x="768" 
d="M90 1274l248 270h94l246 -270h-115l-178 192l-180 -192h-115z" />
    <glyph glyph-name="caron" unicode="&#x2c7;" horiz-adv-x="768" 
d="M90 1544h115l180 -192l178 192h115l-246 -270h-94z" />
    <glyph glyph-name="breve" unicode="&#x2d8;" horiz-adv-x="768" 
d="M96 1544h88q16 -51 28.5 -80t34.5 -59t56 -43.5t82 -13.5q83 0 127.5 52t71.5 144h88q-17 -63 -38 -110t-54 -87t-82 -60.5t-113 -20.5q-66 0 -115 19.5t-82 59.5t-53.5 86.5t-38.5 112.5z" />
    <glyph glyph-name="dotaccent" unicode="&#x2d9;" horiz-adv-x="768" 
d="M428 1286h-90v258h90v-258z" />
    <glyph glyph-name="ring" unicode="&#x2da;" horiz-adv-x="768" 
d="M385 1223q-95 0 -156 56.5t-61 150.5q0 98 59 155t158 57t158 -57t59 -155q0 -94 -61 -150.5t-156 -56.5zM246 1430q0 -63 37.5 -97.5t101.5 -34.5t101.5 34.5t37.5 97.5q0 67 -35.5 102t-103.5 35t-103.5 -35t-35.5 -102z" />
    <glyph glyph-name="ogonek" unicode="&#x2db;" horiz-adv-x="768" 
d="M467 -246q0 105 174 246h127q-215 -160 -215 -252q0 -61 63 -61q47 0 152 43v-88q-79 -37 -147 -37q-75 0 -114.5 37.5t-39.5 111.5z" />
    <glyph glyph-name="tilde" unicode="&#x2dc;" horiz-adv-x="768" 
d="M117 1298h-88q47 124 92 169.5t117 45.5q40 0 74 -15t83 -56q48 -41 74 -56.5t57 -15.5q49 0 72 29t51 100h90q-17 -39 -25.5 -58t-24.5 -49t-29.5 -44t-34 -30t-45.5 -22t-56 -6q-41 0 -73.5 12.5t-69.5 45.5q-52 47 -82.5 66.5t-60.5 19.5q-20 0 -36.5 -8.5t-27.5 -19
t-23 -32.5t-17.5 -35t-16.5 -41z" />
    <glyph glyph-name="hungarumlaut" unicode="&#x2dd;" horiz-adv-x="768" 
d="M387 1274l174 270h98l-178 -270h-94zM240 1274h-95l177 270h98z" />
    <glyph glyph-name="gravecomb" unicode="&#x300;" horiz-adv-x="768" 
d="M537 1274h-113l-227 270h114z" />
    <glyph glyph-name="acutecomb" unicode="&#x301;" horiz-adv-x="768" 
d="M336 1274h-115l234 270h116z" />
    <glyph glyph-name="uni0302" unicode="&#x302;" horiz-adv-x="768" 
d="M90 1274l248 270h94l246 -270h-115l-178 192l-180 -192h-115z" />
    <glyph glyph-name="tildecomb" unicode="&#x303;" horiz-adv-x="768" 
d="M117 1298h-88q47 124 92 169.5t117 45.5q40 0 74 -15t83 -56q48 -41 74 -56.5t57 -15.5q49 0 72 29t51 100h90q-17 -39 -25.5 -58t-24.5 -49t-29.5 -44t-34 -30t-45.5 -22t-56 -6q-41 0 -73.5 12.5t-69.5 45.5q-52 47 -82.5 66.5t-60.5 19.5q-20 0 -36.5 -8.5t-27.5 -19
t-23 -32.5t-17.5 -35t-16.5 -41z" />
    <glyph glyph-name="uni0306" unicode="&#x306;" horiz-adv-x="768" 
d="M96 1544h88q16 -51 28.5 -80t34.5 -59t56 -43.5t82 -13.5q83 0 127.5 52t71.5 144h88q-17 -63 -38 -110t-54 -87t-82 -60.5t-113 -20.5q-66 0 -115 19.5t-82 59.5t-53.5 86.5t-38.5 112.5z" />
    <glyph glyph-name="hookabovecomb" unicode="&#x309;" horiz-adv-x="681" 
d="M170 1522v88q56 26 113 26q75 0 127 -42t55 -105q1 -37 -12 -56.5t-62 -60.5q-52 -42 -63 -57q-16 -23 -15 -58h-77q-8 52 4 77t53 57q16 13 39 29t31 23t15 19t7 27q0 30 -34.5 48.5t-80.5 18.5q-66 0 -100 -34z" />
    <glyph glyph-name="uni031B" unicode="&#x31b;" horiz-adv-x="681" 
d="M233 1278q33 0 60 8t42 18.5t25 23t13.5 20.5t3.5 12v184h82v-184q0 -56 -59.5 -110t-166.5 -54v82z" />
    <glyph glyph-name="dotbelowcomb" unicode="&#x323;" horiz-adv-x="768" 
d="M428 -412h-90v258h90v-258z" />
    <glyph glyph-name="uni0326" unicode="&#x326;" horiz-adv-x="768" 
d="M397 -573h-75q16 70 23 132.5t8 99.5t1 122v90h88v-131q0 -71 -1.5 -107t-12 -92t-31.5 -114z" />
    <glyph glyph-name="pi" unicode="&#x3c0;" horiz-adv-x="1198" 
d="M33 1081h1124v-80h-227v-608q0 -156 6 -209q5 -42 19 -63t49 -33q39 -13 110 -20v-82q-81 9 -135 24q-87 24 -113 99q-9 27 -13 65t-4.5 70.5t-0.5 111.5v12.5v11.5v13v608h-506v-1001h-82v1001h-227v80z" />
    <glyph glyph-name="Wgrave" unicode="&#x1e80;" horiz-adv-x="1810" 
d="M78 1544h86l309 -1470l371 1237h123l370 -1237l310 1470h86l-326 -1544h-135l-367 1227l-366 -1227h-136zM647 1946h115l225 -271h-113z" />
    <glyph glyph-name="wgrave" unicode="&#x1e81;" horiz-adv-x="1540" 
d="M41 1081h86l283 -991l299 991h122l299 -991l283 991h86l-309 -1081h-117l-303 1006l-303 -1006h-117zM768 1274l-227 270h114l226 -270h-113z" />
    <glyph glyph-name="Wacute" unicode="&#x1e82;" horiz-adv-x="1810" 
d="M403 0l-325 1544h86l309 -1470l371 1237h123l370 -1237l310 1470h86l-326 -1544h-135l-367 1227l-366 -1227h-136zM893 1675h-115l234 271h116z" />
    <glyph glyph-name="wacute" unicode="&#x1e83;" horiz-adv-x="1540" 
d="M350 0l-309 1081h86l283 -991l299 991h122l299 -991l283 991h86l-309 -1081h-117l-303 1006l-303 -1006h-117zM776 1274h-114l233 270h117z" />
    <glyph glyph-name="Wdieresis" unicode="&#x1e84;" horiz-adv-x="1810" 
d="M78 1544h86l309 -1470l371 1237h123l370 -1237l310 1470h86l-326 -1544h-135l-367 1227l-366 -1227h-136zM1022 1946h88v-258h-88v258zM778 1688h-88v258h88v-258z" />
    <glyph glyph-name="wdieresis" unicode="&#x1e85;" horiz-adv-x="1540" 
d="M41 1081h86l283 -991l299 991h122l299 -991l283 991h86l-309 -1081h-117l-303 1006l-303 -1006h-117zM893 1544h88v-258h-88v258zM561 1544h88v-258h-88v258z" />
    <glyph glyph-name="Germandbls" unicode="&#x1e9e;" horiz-adv-x="1523" 
d="M301 0h-84v768q0 126 1.5 188t7.5 149t21.5 146.5t41.5 108.5q62 118 178.5 168.5t327.5 50.5q215 0 508 -84v-86l-322 -571l119 -60q66 -33 107.5 -57.5t84 -59.5t65.5 -73.5t37.5 -92.5t14.5 -122q0 -177 -113 -287q-67 -65 -166.5 -93t-242.5 -28q-114 0 -330 37v84
q198 -39 330 -39q74 0 134 8t118 30.5t97 58.5t63 95t24 138q0 46 -7.5 83t-25 67t-36.5 52t-53 44.5t-61.5 38t-74.5 38.5l-199 99l355 633q-236 65 -426 65q-85 0 -147 -7t-121.5 -27t-102 -59t-70.5 -99q-34 -75 -43.5 -192t-9.5 -320v-793z" />
    <glyph glyph-name="uni1EA0" unicode="&#x1ea0;" horiz-adv-x="1378" 
d="M43 0l590 1544h108l594 -1544h-92l-170 440h-772l-168 -440h-90zM686 1454l-354 -932h710zM643 -393v258h90v-258h-90z" />
    <glyph glyph-name="uni1EA1" unicode="&#x1ea1;" 
d="M137 551q0 101 11 181t41.5 154t79.5 123t128.5 78t186.5 29q56 0 129 -17.5t124.5 -35.5t149.5 -55v-1008h-82v199q-59 -53 -133 -113q-77 -62 -141.5 -91.5t-143.5 -29.5t-136.5 23.5t-89.5 58.5t-60 90q-31 62 -47.5 174.5t-16.5 239.5zM578 1036q-89 0 -154.5 -26.5
t-104 -68.5t-61 -107.5t-30 -131t-7.5 -151.5q0 -43 0.5 -69t3 -72t7 -76.5t13.5 -72.5t22 -69.5t33.5 -57.5t46.5 -48t61.5 -29.5t78.5 -11.5q100 0 218 92q123 97 200 168v647q-77 29 -115 42.5t-99.5 27.5t-112.5 14zM510 -393v258h90v-258h-90z" />
    <glyph glyph-name="uni1EA2" unicode="&#x1ea2;" horiz-adv-x="1378" 
d="M1042 522l-356 932l-354 -932h710zM133 0h-90l590 1544h108l594 -1544h-92l-170 440h-772zM584 1903v88q49 24 110 24q77 2 131 -41t54 -106q0 -37 -13.5 -57t-60.5 -60q-52 -42 -63 -57q-16 -23 -15 -58h-78q-8 52 4.5 76t53.5 57q16 13 39 29.5t31 23t15 18.5t7 28
q0 30 -35.5 49.5t-81.5 19.5q-65 -4 -98 -34z" />
    <glyph glyph-name="uni1EA3" unicode="&#x1ea3;" 
d="M221 551q0 -43 0.5 -69t3 -72t7 -76.5t13.5 -72.5t22 -69.5t33.5 -57.5t46.5 -48t61.5 -29.5t78.5 -11.5q100 0 218 92q123 97 200 168v647q-77 29 -115 42.5t-99.5 27.5t-112.5 14q-89 0 -154.5 -26.5t-104 -68.5t-61 -107.5t-30 -131t-7.5 -151.5zM487 -35
q-68 0 -122.5 20t-90.5 51.5t-62.5 80.5t-40.5 96.5t-22 112t-10 113t-2 112.5q0 101 11 181t41.5 154t79.5 123t128.5 78t186.5 29q56 0 129 -17.5t124.5 -35.5t149.5 -55v-1008h-82v199q-59 -53 -133 -113q-77 -62 -141.5 -91.5t-143.5 -29.5zM467 1522v88q56 26 113 26
q76 0 129 -42.5t53 -104.5q0 -37 -13.5 -57t-60.5 -60q-52 -42 -63 -57q-16 -23 -15 -58h-78q-8 52 4.5 76.5t53.5 57.5q16 13 39 29t31 23t15 19t7 27q0 30 -34.5 48.5t-80.5 18.5q-66 0 -100 -34z" />
    <glyph glyph-name="uni1EA4" unicode="&#x1ea4;" horiz-adv-x="1378" 
d="M43 0l590 1544h108l594 -1544h-92l-170 440h-772l-168 -440h-90zM686 1454l-354 -932h710zM508 1632h-115l248 271h94l246 -271h-115l-178 193zM950 1831l234 270h116l-235 -270h-115z" />
    <glyph glyph-name="uni1EA5" unicode="&#x1ea5;" 
d="M487 -35q-68 0 -122.5 20t-90.5 51.5t-62.5 80.5t-40.5 96.5t-22 112t-10 113t-2 112.5q0 101 11 181t41.5 154t79.5 123t128.5 78t186.5 29q56 0 129 -17.5t124.5 -35.5t149.5 -55v-1008h-82v199q-59 -53 -133 -113q-77 -62 -141.5 -91.5t-143.5 -29.5zM578 1036
q-89 0 -154.5 -26.5t-104 -68.5t-61 -107.5t-30 -131t-7.5 -151.5q0 -43 0.5 -69t3 -72t7 -76.5t13.5 -72.5t22 -69.5t33.5 -57.5t46.5 -48t61.5 -29.5t78.5 -11.5q100 0 218 92q123 97 200 168v647q-77 29 -115 42.5t-99.5 27.5t-112.5 14zM434 1278h-115l248 270h95
l245 -270h-114l-179 192zM827 1542l234 270h117l-236 -270h-115z" />
    <glyph glyph-name="uni1EA6" unicode="&#x1ea6;" horiz-adv-x="1378" 
d="M43 0l590 1544h108l594 -1544h-92l-170 440h-772l-168 -440h-90zM686 1454l-354 -932h710zM508 1632h-115l248 271h94l246 -271h-115l-178 193zM784 2101h115l225 -270h-112z" />
    <glyph glyph-name="uni1EA7" unicode="&#x1ea7;" 
d="M487 -35q-68 0 -122.5 20t-90.5 51.5t-62.5 80.5t-40.5 96.5t-22 112t-10 113t-2 112.5q0 101 11 181t41.5 154t79.5 123t128.5 78t186.5 29q56 0 129 -17.5t124.5 -35.5t149.5 -55v-1008h-82v199q-59 -53 -133 -113q-77 -62 -141.5 -91.5t-143.5 -29.5zM578 1036
q-89 0 -154.5 -26.5t-104 -68.5t-61 -107.5t-30 -131t-7.5 -151.5q0 -43 0.5 -69t3 -72t7 -76.5t13.5 -72.5t22 -69.5t33.5 -57.5t46.5 -48t61.5 -29.5t78.5 -11.5q100 0 218 92q123 97 200 168v647q-77 29 -115 42.5t-99.5 27.5t-112.5 14zM319 1278l248 270h95l245 -270
h-114l-179 192l-180 -192h-115zM862 1542l-227 270h115l225 -270h-113z" />
    <glyph glyph-name="uni1EA8" unicode="&#x1ea8;" horiz-adv-x="1378" 
d="M686 1454l-354 -932h710zM301 440l-168 -440h-90l590 1544h108l594 -1544h-92l-170 440h-772zM688 1825l-180 -193h-115l248 271h94l246 -271h-115zM922 2064v88q51 25 110 25q77 2 131 -41t54 -106q0 -38 -13.5 -59t-60.5 -58q-35 -28 -47 -38.5t-22 -30t-9 -46.5h-78
q-10 51 2.5 74.5t54.5 58.5q16 14 38.5 29.5t31.5 23t16 19.5t7 27q0 30 -35.5 49.5t-81.5 19.5q-64 -3 -98 -35z" />
    <glyph glyph-name="uni1EA9" unicode="&#x1ea9;" 
d="M578 1036q-89 0 -154.5 -26.5t-104 -68.5t-61 -107.5t-30 -131t-7.5 -151.5q0 -43 0.5 -69t3 -72t7 -76.5t13.5 -72.5t22 -69.5t33.5 -57.5t46.5 -48t61.5 -29.5t78.5 -11.5q100 0 218 92q123 97 200 168v647q-77 29 -115 42.5t-99.5 27.5t-112.5 14zM487 -35
q-68 0 -122.5 20t-90.5 51.5t-62.5 80.5t-40.5 96.5t-22 112t-10 113t-2 112.5q0 101 11 181t41.5 154t79.5 123t128.5 78t186.5 29q56 0 129 -17.5t124.5 -35.5t149.5 -55v-1008h-82v199q-59 -53 -133 -113q-77 -62 -141.5 -91.5t-143.5 -29.5zM614 1470l-180 -192h-115
l248 270h95l245 -270h-114zM821 1759v88q55 27 111 27q76 0 128.5 -43.5t55.5 -106.5q1 -36 -12 -55.5t-62 -60.5q-52 -42 -63 -58q-15 -23 -14 -55h-78q-3 18 -3.5 31.5t3 25.5t6.5 19.5t13 18.5t16 16.5t22 19.5q17 14 39 30t31 23t15.5 18.5t6.5 26.5q0 30 -35 50t-81 20
q-64 0 -99 -35z" />
    <glyph glyph-name="uni1EAA" unicode="&#x1eaa;" horiz-adv-x="1378" 
d="M43 0l590 1544h108l594 -1544h-92l-170 440h-772l-168 -440h-90zM332 522h710l-356 932zM422 1987h-88q46 122 90 168.5t113 46.5q50 0 83.5 -16.5t79.5 -55.5q48 -41 74 -56.5t57 -15.5q49 0 72 29t51 100h90q-17 -39 -25.5 -58t-24.5 -49t-29.5 -44t-34 -30t-45.5 -22
t-56 -6q-80 0 -143 58q-52 47 -82.5 66.5t-60.5 19.5q-24 0 -43 -10t-34 -33.5t-22.5 -40t-21.5 -51.5zM393 1632l248 271h94l246 -271h-115l-178 193l-180 -193h-115z" />
    <glyph glyph-name="uni1EAB" unicode="&#x1eab;" 
d="M487 -35q-68 0 -122.5 20t-90.5 51.5t-62.5 80.5t-40.5 96.5t-22 112t-10 113t-2 112.5q0 101 11 181t41.5 154t79.5 123t128.5 78t186.5 29q56 0 129 -17.5t124.5 -35.5t149.5 -55v-1008h-82v199q-59 -53 -133 -113q-77 -62 -141.5 -91.5t-143.5 -29.5zM578 1036
q-89 0 -154.5 -26.5t-104 -68.5t-61 -107.5t-30 -131t-7.5 -151.5q0 -43 0.5 -69t3 -72t7 -76.5t13.5 -72.5t22 -69.5t33.5 -57.5t46.5 -48t61.5 -29.5t78.5 -11.5q100 0 218 92q123 97 200 168v647q-77 29 -115 42.5t-99.5 27.5t-112.5 14zM260 1634q47 124 92 169.5
t117 45.5q40 0 74.5 -15t83.5 -56q48 -41 74 -56.5t57 -15.5q49 0 72 29t51 100h90q-17 -39 -25.5 -58t-24.5 -49t-29.5 -44t-34 -30t-45.5 -22t-56 -6q-42 0 -74.5 12.5t-69.5 44.5q-52 47 -82.5 66.5t-60.5 19.5q-24 0 -43 -10t-34 -33.5t-22.5 -40t-21.5 -51.5h-88z
M434 1278h-115l248 270h95l245 -270h-114l-179 192z" />
    <glyph glyph-name="uni1EAC" unicode="&#x1eac;" horiz-adv-x="1378" 
d="M43 0l590 1544h108l594 -1544h-92l-170 440h-772l-168 -440h-90zM332 522h710l-356 932zM510 1655h-115l248 270h94l246 -270h-115l-178 192zM733 -393h-90v258h90v-258z" />
    <glyph glyph-name="uni1EAD" unicode="&#x1ead;" 
d="M487 -35q-68 0 -122.5 20t-90.5 51.5t-62.5 80.5t-40.5 96.5t-22 112t-10 113t-2 112.5q0 101 11 181t41.5 154t79.5 123t128.5 78t186.5 29q56 0 129 -17.5t124.5 -35.5t149.5 -55v-1008h-82v199q-59 -53 -133 -113q-77 -62 -141.5 -91.5t-143.5 -29.5zM221 551
q0 -43 0.5 -69t3 -72t7 -76.5t13.5 -72.5t22 -69.5t33.5 -57.5t46.5 -48t61.5 -29.5t78.5 -11.5q100 0 218 92q123 97 200 168v647q-77 29 -115 42.5t-99.5 27.5t-112.5 14q-89 0 -154.5 -26.5t-104 -68.5t-61 -107.5t-30 -131t-7.5 -151.5zM403 1274h-114l248 270h94
l246 -270h-115l-178 192zM510 -135h90v-258h-90v258z" />
    <glyph glyph-name="uni1EAE" unicode="&#x1eae;" horiz-adv-x="1378" 
d="M133 0h-90l590 1544h108l594 -1544h-92l-170 440h-772zM332 522h710l-356 932zM688 1642q-66 0 -115 20t-82 60t-53.5 86.5t-38.5 112.5h88q13 -40 22 -64.5t25.5 -53t35.5 -43.5t49 -25.5t69 -10.5q44 0 77.5 15.5t56.5 45t37.5 61t27.5 75.5h88q-17 -63 -38 -110
t-54 -87t-82 -61t-113 -21zM594 1915l233 270h117l-235 -270h-115z" />
    <glyph glyph-name="uni1EAF" unicode="&#x1eaf;" 
d="M137 551q0 101 11 181t41.5 154t79.5 123t128.5 78t186.5 29q56 0 129 -17.5t124.5 -35.5t149.5 -55v-1008h-82v199q-59 -53 -133 -113q-77 -62 -141.5 -91.5t-143.5 -29.5t-136.5 23.5t-89.5 58.5t-60 90q-31 62 -47.5 174.5t-16.5 239.5zM578 1036q-89 0 -154.5 -26.5
t-104 -68.5t-61 -107.5t-30 -131t-7.5 -151.5q0 -43 0.5 -69t3 -72t7 -76.5t13.5 -72.5t22 -69.5t33.5 -57.5t46.5 -48t61.5 -29.5t78.5 -11.5q100 0 218 92q123 97 200 168v647q-77 29 -115 42.5t-99.5 27.5t-112.5 14zM610 1266q-66 0 -115 19.5t-81.5 59.5t-53 86
t-38.5 113h88q16 -51 28 -79.5t34.5 -59t56 -44t81.5 -13.5q83 0 127.5 52t71.5 144h88q-17 -63 -38 -110t-54 -87t-82 -60.5t-113 -20.5zM522 1583l234 270h116l-235 -270h-115z" />
    <glyph glyph-name="uni1EB0" unicode="&#x1eb0;" horiz-adv-x="1378" 
d="M133 0h-90l590 1544h108l594 -1544h-92l-170 440h-772zM686 1454l-354 -932h710zM688 1642q-66 0 -115 20t-82 60t-53.5 86.5t-38.5 112.5h88q13 -40 22 -64.5t25.5 -53t35.5 -43.5t49 -25.5t69 -10.5q44 0 77.5 15.5t56.5 45t37.5 61t27.5 75.5h88q-17 -63 -38 -110
t-54 -87t-82 -61t-113 -21zM438 2191h115l225 -270h-112z" />
    <glyph glyph-name="uni1EB1" unicode="&#x1eb1;" 
d="M487 -35q-68 0 -122.5 20t-90.5 51.5t-62.5 80.5t-40.5 96.5t-22 112t-10 113t-2 112.5q0 101 11 181t41.5 154t79.5 123t128.5 78t186.5 29q56 0 129 -17.5t124.5 -35.5t149.5 -55v-1008h-82v199q-59 -53 -133 -113q-77 -62 -141.5 -91.5t-143.5 -29.5zM578 1036
q-89 0 -154.5 -26.5t-104 -68.5t-61 -107.5t-30 -131t-7.5 -151.5q0 -43 0.5 -69t3 -72t7 -76.5t13.5 -72.5t22 -69.5t33.5 -57.5t46.5 -48t61.5 -29.5t78.5 -11.5q100 0 218 92q123 97 200 168v647q-77 29 -115 42.5t-99.5 27.5t-112.5 14zM610 1266q-66 0 -115 19.5
t-81.5 59.5t-53 86t-38.5 113h88q16 -51 28 -79.5t34.5 -59t56 -44t81.5 -13.5q83 0 127.5 52t71.5 144h88q-17 -63 -38 -110t-54 -87t-82 -60.5t-113 -20.5zM365 1858h114l226 -271h-113z" />
    <glyph glyph-name="uni1EB2" unicode="&#x1eb2;" horiz-adv-x="1378" 
d="M686 1454l-354 -932h710zM301 440l-168 -440h-90l590 1544h108l594 -1544h-92l-170 440h-772zM399 1921h88q13 -40 22 -64.5t25.5 -53t35.5 -43.5t49 -25.5t69 -10.5q44 0 77.5 15.5t56.5 45t37.5 61t27.5 75.5h88q-17 -63 -38 -110t-54 -87t-82 -61t-113 -21
q-66 0 -115 20t-82 60t-53.5 86.5t-38.5 112.5zM559 2179v88q55 27 111 27q76 0 130 -43t54 -105q0 -38 -13.5 -59.5t-60.5 -58.5q-34 -26 -46 -37t-22.5 -31t-9.5 -45h-77q-8 51 4 74t53 57q17 14 39 30.5t30.5 23.5t15.5 19t7 27q0 30 -34.5 49t-80.5 19q-65 0 -100 -35z
" />
    <glyph glyph-name="uni1EB3" unicode="&#x1eb3;" 
d="M578 1036q-89 0 -154.5 -26.5t-104 -68.5t-61 -107.5t-30 -131t-7.5 -151.5q0 -43 0.5 -69t3 -72t7 -76.5t13.5 -72.5t22 -69.5t33.5 -57.5t46.5 -48t61.5 -29.5t78.5 -11.5q100 0 218 92q123 97 200 168v647q-77 29 -115 42.5t-99.5 27.5t-112.5 14zM487 -35
q-68 0 -122.5 20t-90.5 51.5t-62.5 80.5t-40.5 96.5t-22 112t-10 113t-2 112.5q0 101 11 181t41.5 154t79.5 123t128.5 78t186.5 29q56 0 129 -17.5t124.5 -35.5t149.5 -55v-1008h-82v199q-59 -53 -133 -113q-77 -62 -141.5 -91.5t-143.5 -29.5zM610 1266q-66 0 -115 19.5
t-81.5 59.5t-53 86t-38.5 113h88q16 -51 28 -79.5t34.5 -59t56 -44t81.5 -13.5q83 0 127.5 52t71.5 144h88q-17 -63 -38 -110t-54 -87t-82 -60.5t-113 -20.5zM500 1853v89q53 26 110 26q77 0 131 -43t54 -106q0 -37 -13.5 -57t-60.5 -60q-52 -42 -63 -57q-16 -23 -15 -58
h-78q-8 52 4.5 76t53.5 57q16 13 39 29.5t31 23t15 18.5t7 28q0 30 -35.5 49.5t-81.5 19.5q-63 0 -98 -35z" />
    <glyph glyph-name="uni1EB4" unicode="&#x1eb4;" horiz-adv-x="1378" 
d="M133 0h-90l590 1544h108l594 -1544h-92l-170 440h-772zM332 522h710l-356 932zM340 1985q47 124 92 169.5t117 45.5q40 0 74 -15t84 -57q48 -41 74 -56.5t57 -15.5q49 0 72 29t51 100h90q-16 -39 -25 -58.5t-24.5 -48.5t-29.5 -43t-34.5 -30t-45.5 -22.5t-56 -6.5
q-78 0 -144 58q-52 47 -82.5 66.5t-60.5 19.5q-24 0 -43 -10t-34 -33.5t-22.5 -40t-21.5 -51.5h-88zM399 1921h88q13 -40 22 -64.5t25.5 -53t35.5 -43.5t49 -25.5t69 -10.5q44 0 77.5 15.5t56.5 45t37.5 61t27.5 75.5h88q-17 -63 -38 -110t-54 -87t-82 -61t-113 -21
q-66 0 -115 20t-82 60t-53.5 86.5t-38.5 112.5z" />
    <glyph glyph-name="uni1EB5" unicode="&#x1eb5;" 
d="M137 551q0 101 11 181t41.5 154t79.5 123t128.5 78t186.5 29q56 0 129 -17.5t124.5 -35.5t149.5 -55v-1008h-82v199q-59 -53 -133 -113q-77 -62 -141.5 -91.5t-143.5 -29.5t-136.5 23.5t-89.5 58.5t-60 90q-31 62 -47.5 174.5t-16.5 239.5zM221 551q0 -43 0.5 -69t3 -72
t7 -76.5t13.5 -72.5t22 -69.5t33.5 -57.5t46.5 -48t61.5 -29.5t78.5 -11.5q100 0 218 92q123 97 200 168v647q-77 29 -115 42.5t-99.5 27.5t-112.5 14q-89 0 -154.5 -26.5t-104 -68.5t-61 -107.5t-30 -131t-7.5 -151.5zM295 1657q46 122 90 168.5t113 46.5q50 0 84.5 -17
t79.5 -55q47 -40 73.5 -55.5t57.5 -15.5q21 0 37.5 7t27 15t22 29t17 34t18.5 44h91q-17 -39 -25.5 -58t-24.5 -49t-29.5 -44t-34 -30t-45.5 -22t-56 -6q-42 0 -74.5 12.5t-69.5 44.5q-52 47 -82.5 66.5t-60.5 19.5q-24 0 -43 -10t-34 -33.5t-22.5 -40t-21.5 -51.5h-88z
M610 1266q-66 0 -115 19.5t-81.5 59.5t-53 86t-38.5 113h88q16 -51 28 -79.5t34.5 -59t56 -44t81.5 -13.5q83 0 127.5 52t71.5 144h88q-17 -63 -38 -110t-54 -87t-82 -60.5t-113 -20.5z" />
    <glyph glyph-name="uni1EB6" unicode="&#x1eb6;" horiz-adv-x="1378" 
d="M133 0h-90l590 1544h108l594 -1544h-92l-170 440h-772zM332 522h710l-356 932zM397 1921h88q13 -40 22 -64.5t25.5 -53t35.5 -43.5t49 -25.5t69 -10.5q44 0 77.5 15.5t56.5 45t37.5 61t27.5 75.5h88q-17 -63 -38 -110t-54 -87t-82 -61t-113 -21q-66 0 -115 20t-82 60
t-53.5 86.5t-38.5 112.5zM733 -393h-90v258h90v-258z" />
    <glyph glyph-name="uni1EB7" unicode="&#x1eb7;" 
d="M137 551q0 101 11 181t41.5 154t79.5 123t128.5 78t186.5 29q56 0 129 -17.5t124.5 -35.5t149.5 -55v-1008h-82v199q-59 -53 -133 -113q-77 -62 -141.5 -91.5t-143.5 -29.5t-136.5 23.5t-89.5 58.5t-60 90q-31 62 -47.5 174.5t-16.5 239.5zM578 1036q-89 0 -154.5 -26.5
t-104 -68.5t-61 -107.5t-30 -131t-7.5 -151.5q0 -43 0.5 -69t3 -72t7 -76.5t13.5 -72.5t22 -69.5t33.5 -57.5t46.5 -48t61.5 -29.5t78.5 -11.5q100 0 218 92q123 97 200 168v647q-77 29 -115 42.5t-99.5 27.5t-112.5 14zM575 1268q-66 0 -115 19.5t-81.5 59.5t-53 86
t-38.5 113h88q16 -51 28 -79.5t34.5 -59t56 -44t81.5 -13.5q83 0 127.5 52t71.5 144h88q-17 -63 -38 -110t-54 -87t-82 -60.5t-113 -20.5zM600 -393h-90v258h90v-258z" />
    <glyph glyph-name="uni1EB8" unicode="&#x1eb8;" horiz-adv-x="1333" 
d="M225 0v1544h992v-82h-908v-631h862v-81h-862v-668h940v-82h-1024zM674 -125h90v-258h-90v258z" />
    <glyph glyph-name="uni1EB9" unicode="&#x1eb9;" horiz-adv-x="1134" 
d="M610 -35q-85 0 -153 13.5t-117 38t-85 64t-58.5 84.5t-36 106.5t-18.5 124.5t-5 143q0 106 10 185.5t39 156.5t77.5 126t130.5 79t194 30q203 0 309.5 -105.5t106.5 -303.5q0 -85 -21 -205h-764q0 -115 16 -193.5t58 -141t120.5 -92.5t196.5 -30q112 0 338 43v-82
q-200 -41 -338 -41zM219 582h690q11 64 11 125q0 329 -332 329q-88 0 -153.5 -23t-106.5 -61.5t-65.5 -98t-34 -124t-9.5 -147.5zM516 -381v258h90v-258h-90z" />
    <glyph glyph-name="uni1EBA" unicode="&#x1eba;" horiz-adv-x="1333" 
d="M225 0v1544h992v-82h-908v-631h862v-81h-862v-668h940v-82h-1024zM606 1923v88q56 27 111 27q77 0 130.5 -43.5t53.5 -106.5q0 -37 -13 -56.5t-61 -59.5q-52 -42 -63 -58q-15 -24 -14 -57h-78q-8 52 4 76t53 57q16 13 39 29t31 23t15 19t7 27q0 30 -35 50t-81 20
q-64 0 -99 -35z" />
    <glyph glyph-name="uni1EBB" unicode="&#x1ebb;" horiz-adv-x="1134" 
d="M588 1036q-88 0 -153.5 -22.5t-106.5 -61t-65.5 -98t-34 -124t-9.5 -148.5h690q11 64 11 125q0 329 -332 329zM610 -35q-85 0 -153 13.5t-117 38t-85 64t-58.5 84.5t-36 106.5t-18.5 124.5t-5 143q0 106 10 185.5t39 156.5t77.5 126t130.5 79t194 30q203 0 309.5 -105.5
t106.5 -303.5q0 -85 -21 -205h-764q0 -115 16 -193.5t58 -141t120.5 -92.5t196.5 -30q112 0 338 43v-82q-200 -41 -338 -41zM451 1534v88q59 27 112 27q76 0 129 -42.5t53 -105.5q0 -37 -13 -57.5t-60 -59.5l-15 -12t-13.5 -11t-11.5 -10t-11 -10t-8.5 -9.5t-7.5 -10.5
l-5 -10t-4 -12t-1.5 -13.5t-0.5 -15.5h-78q-8 52 4 76t53 57q17 13 39.5 29t31 23t15.5 19t7 27q0 30 -34.5 49t-80.5 19q-65 0 -100 -35z" />
    <glyph glyph-name="uni1EBC" unicode="&#x1ebc;" horiz-adv-x="1333" 
d="M225 0v1544h992v-82h-908v-631h862v-81h-862v-668h940v-82h-1024zM469 1681h-88q47 124 92 169.5t117 45.5q40 0 74.5 -15t83.5 -56q48 -41 74 -56.5t57 -15.5q21 0 37.5 7t27 15t22 29t17 34t18.5 44h91q-17 -39 -25.5 -58t-24.5 -49t-29.5 -44t-34 -30t-45.5 -22
t-56 -6q-78 0 -144 58q-52 47 -82.5 66.5t-60.5 19.5q-20 0 -36.5 -8.5t-27.5 -19t-23 -32.5t-17.5 -35t-16.5 -41z" />
    <glyph glyph-name="uni1EBD" unicode="&#x1ebd;" horiz-adv-x="1134" 
d="M137 539q0 106 10 185.5t39 156.5t77.5 126t130.5 79t194 30q203 0 309.5 -105.5t106.5 -303.5q0 -85 -21 -205h-764q0 -115 16 -193.5t58 -141t120.5 -92.5t196.5 -30q112 0 338 43v-82q-200 -41 -338 -41q-85 0 -153 13.5t-117 38t-85 64t-58.5 84.5t-36 106.5
t-18.5 124.5t-5 143zM588 1036q-88 0 -153.5 -22.5t-106.5 -61t-65.5 -98t-34 -124t-9.5 -148.5h690q11 64 11 125q0 329 -332 329zM229 1298q47 124 92 169.5t117 45.5q40 0 74.5 -15t83.5 -56q48 -41 74 -56.5t57 -15.5q49 0 72 29t51 100h90q-17 -39 -25.5 -58t-24.5 -49
t-29.5 -44t-34 -30t-45.5 -22t-56 -6q-41 0 -73.5 12.5t-69.5 45.5q-52 47 -83 66.5t-61 19.5q-20 0 -36.5 -8.5t-27.5 -19t-23 -32.5t-17.5 -35t-16.5 -41h-88z" />
    <glyph glyph-name="uni1EBE" unicode="&#x1ebe;" horiz-adv-x="1333" 
d="M225 0v1544h992v-82h-908v-631h862v-81h-862v-668h940v-82h-1024zM545 1645h-115l248 270h94l246 -270h-115l-178 192zM973 1868l233 270h117l-236 -270h-114z" />
    <glyph glyph-name="uni1EBF" unicode="&#x1ebf;" horiz-adv-x="1134" 
d="M610 -35q-85 0 -153 13.5t-117 38t-85 64t-58.5 84.5t-36 106.5t-18.5 124.5t-5 143q0 106 10 185.5t39 156.5t77.5 126t130.5 79t194 30q203 0 309.5 -105.5t106.5 -303.5q0 -85 -21 -205h-764q0 -115 16 -193.5t58 -141t120.5 -92.5t196.5 -30q112 0 338 43v-82
q-200 -41 -338 -41zM219 582h690q11 64 11 125q0 329 -332 329q-88 0 -153.5 -23t-106.5 -61.5t-65.5 -98t-34 -124t-9.5 -147.5zM291 1278l248 270h94l246 -270h-115l-178 192l-180 -192h-115zM805 1538l233 270h117l-235 -270h-115z" />
    <glyph glyph-name="uni1EC0" unicode="&#x1ec0;" horiz-adv-x="1333" 
d="M225 0v1544h992v-82h-908v-631h862v-81h-862v-668h940v-82h-1024zM430 1645l248 270h94l246 -270h-115l-178 192l-180 -192h-115zM844 2138h114l226 -270h-113z" />
    <glyph glyph-name="uni1EC1" unicode="&#x1ec1;" horiz-adv-x="1134" 
d="M610 -35q-85 0 -153 13.5t-117 38t-85 64t-58.5 84.5t-36 106.5t-18.5 124.5t-5 143q0 106 10 185.5t39 156.5t77.5 126t130.5 79t194 30q203 0 309.5 -105.5t106.5 -303.5q0 -85 -21 -205h-764q0 -115 16 -193.5t58 -141t120.5 -92.5t196.5 -30q112 0 338 43v-82
q-200 -41 -338 -41zM219 582h690q11 64 11 125q0 329 -332 329q-88 0 -153.5 -23t-106.5 -61.5t-65.5 -98t-34 -124t-9.5 -147.5zM406 1278h-115l248 270h94l246 -270h-115l-178 192zM858 1544l-227 271h114l226 -271h-113z" />
    <glyph glyph-name="uni1EC2" unicode="&#x1ec2;" horiz-adv-x="1333" 
d="M1249 0h-1024v1544h992v-82h-908v-631h862v-81h-862v-668h940v-82zM545 1645h-115l248 270h94l246 -270h-115l-178 192zM956 2052v88q55 27 111 27q76 0 130 -43t54 -105q0 -40 -13 -60.5t-60 -57.5q-34 -26 -46 -37t-22.5 -31t-9.5 -45h-21h-57q-8 50 4.5 74t52.5 57
q17 14 39 30.5t30.5 23.5t15.5 19t7 27q0 30 -34 49t-80 19q-66 0 -101 -35z" />
    <glyph glyph-name="uni1EC3" unicode="&#x1ec3;" horiz-adv-x="1134" 
d="M219 582h690q11 64 11 125q0 329 -332 329q-88 0 -153.5 -23t-106.5 -61.5t-65.5 -98t-34 -124t-9.5 -147.5zM137 539q0 106 10 185.5t39 156.5t77.5 126t130.5 79t194 30q203 0 309.5 -105.5t106.5 -303.5q0 -85 -21 -205h-764q0 -115 16 -193.5t58 -141t120.5 -92.5
t196.5 -30q112 0 338 43v-82q-200 -41 -338 -41q-85 0 -153 13.5t-117 38t-85 64t-58.5 84.5t-36 106.5t-18.5 124.5t-5 143zM406 1278h-115l248 270h94l246 -270h-115l-178 192zM815 1769v89q53 26 111 26q77 0 130.5 -43t53.5 -106q0 -37 -13.5 -57t-60.5 -60
q-52 -42 -63 -57q-16 -23 -15 -58h-77q-8 52 4 76t53 57q16 13 39 29.5t31 23t15 18.5t7 28q0 30 -35.5 49.5t-81.5 19.5q-64 -3 -98 -35z" />
    <glyph glyph-name="uni1EC4" unicode="&#x1ec4;" horiz-adv-x="1333" 
d="M225 0v1544h992v-82h-908v-631h862v-81h-862v-668h940v-82h-1024zM467 2005h-88q47 124 92 169.5t117 45.5q39 0 73 -15t84 -57q46 -39 73.5 -55t58.5 -16q21 0 37.5 7t27 15t22 29t17 34t18.5 44h91q-16 -39 -25 -58.5t-25 -48.5t-30 -43.5t-34.5 -30.5t-45.5 -22
t-56 -6q-42 0 -74 12t-69 45q-52 47 -82.5 66.5t-60.5 19.5q-24 0 -43 -10t-34 -33.5t-22.5 -40t-21.5 -51.5zM545 1645h-115l248 270h94l246 -270h-115l-178 192z" />
    <glyph glyph-name="uni1EC5" unicode="&#x1ec5;" horiz-adv-x="1134" 
d="M610 -35q-85 0 -153 13.5t-117 38t-85 64t-58.5 84.5t-36 106.5t-18.5 124.5t-5 143q0 106 10 185.5t39 156.5t77.5 126t130.5 79t194 30q203 0 309.5 -105.5t106.5 -303.5q0 -85 -21 -205h-764q0 -115 16 -193.5t58 -141t120.5 -92.5t196.5 -30q112 0 338 43v-82
q-200 -41 -338 -41zM219 582h690q11 64 11 125q0 329 -332 329q-88 0 -153.5 -23t-106.5 -61.5t-65.5 -98t-34 -124t-9.5 -147.5zM229 1616q47 124 92 169.5t117 45.5q40 0 74 -15t84 -57q47 -40 73.5 -55.5t57.5 -15.5q49 0 72 29t51 100h90q-17 -39 -25.5 -58t-24.5 -49
t-29.5 -44t-34 -30t-45.5 -22t-56 -6q-42 0 -74 12t-69 45q-52 47 -83 66.5t-61 19.5q-24 0 -43 -10t-34 -33.5t-22.5 -40t-21.5 -51.5h-88zM291 1278l248 270h94l246 -270h-115l-178 192l-180 -192h-115z" />
    <glyph glyph-name="uni1EC6" unicode="&#x1ec6;" horiz-adv-x="1333" 
d="M225 1544h992v-82h-908v-631h862v-81h-862v-668h940v-82h-1024v1544zM504 1640h-115l248 271h94l246 -271h-115l-178 193zM674 -383v258h90v-258h-90z" />
    <glyph glyph-name="uni1EC7" unicode="&#x1ec7;" horiz-adv-x="1134" 
d="M610 -35q-85 0 -153 13.5t-117 38t-85 64t-58.5 84.5t-36 106.5t-18.5 124.5t-5 143q0 106 10 185.5t39 156.5t77.5 126t130.5 79t194 30q203 0 309.5 -105.5t106.5 -303.5q0 -85 -21 -205h-764q0 -115 16 -193.5t58 -141t120.5 -92.5t196.5 -30q112 0 338 43v-82
q-200 -41 -338 -41zM219 582h690q11 64 11 125q0 329 -332 329q-88 0 -153.5 -23t-106.5 -61.5t-65.5 -98t-34 -124t-9.5 -147.5zM281 1274l247 270h95l245 -270h-114l-179 192l-180 -192h-114zM516 -123h90v-258h-90v258z" />
    <glyph glyph-name="uni1EC8" unicode="&#x1ec8;" horiz-adv-x="534" 
d="M309 0h-84v1544h84v-1544zM164 1909v88q56 26 112 26q76 0 129.5 -42.5t53.5 -104.5q0 -40 -13 -61.5t-61 -57.5q-34 -25 -47 -36.5t-22.5 -30.5t-8.5 -45h-78q-8 49 3.5 71.5t48.5 54.5q1 1 2 1.5t2 1.5l2 2q17 14 38.5 30t30.5 23.5t16 19.5t7 27q0 30 -34.5 49
t-80.5 19q-65 0 -100 -35z" />
    <glyph glyph-name="uni1EC9" unicode="&#x1ec9;" horiz-adv-x="442" 
d="M262 0h-82v1081h82v-1081zM109 1501v88q59 27 112 27q76 0 129 -42.5t53 -105.5q0 -37 -13 -56.5t-60 -59.5q-52 -42 -63 -57q-16 -23 -15 -58h-78q-8 52 4 76t53 57q17 13 39.5 29t31 23t15.5 19t7 27q0 30 -34.5 49t-80.5 19q-65 0 -100 -35z" />
    <glyph glyph-name="uni1ECA" unicode="&#x1eca;" horiz-adv-x="534" 
d="M309 0h-84v1544h84v-1544zM309 -383h-90v258h90v-258z" />
    <glyph glyph-name="uni1ECB" unicode="&#x1ecb;" horiz-adv-x="442" 
d="M180 0v1081h82v-1081h-82zM176 1286v258h90v-258h-90zM266 -393h-90v258h90v-258z" />
    <glyph glyph-name="uni1ECC" unicode="&#x1ecc;" horiz-adv-x="1640" 
d="M195 774q0 383 84 537q145 268 540 268q179 0 299.5 -50.5t196.5 -158.5q67 -95 99 -261t32 -335q0 -150 -27.5 -313.5t-93.5 -265.5q-81 -124 -206 -177t-300 -53q-200 0 -328 55t-194 168q-102 171 -102 586zM819 1497q-80 0 -147 -12t-118 -32t-91.5 -53.5t-69 -70
t-49 -87.5t-32.5 -100t-19 -113.5t-9.5 -122.5t-2.5 -132q0 -152 19 -301t65 -229q34 -59 82 -99.5t109 -61t122.5 -28.5t140.5 -8q139 0 237.5 35.5t172.5 124.5q69 82 100 237t31 330q0 153 -26 298t-79 233q-63 104 -171 148t-265 44zM856 -379h-90v258h90v-258z" />
    <glyph glyph-name="uni1ECD" unicode="&#x1ecd;" 
d="M137 535q0 104 9.5 183t38 157.5t76.5 128.5t129.5 81t193.5 31q109 0 189 -28.5t128.5 -77t78 -123.5t40 -155.5t10.5 -186.5q0 -103 -10 -183t-39 -157.5t-77.5 -127.5t-129.5 -81t-190 -31q-138 0 -222.5 37.5t-138.5 122.5q-41 65 -63.5 177t-22.5 233zM584 1036
q-68 0 -122.5 -14t-92 -37.5t-65 -61t-43.5 -77t-25 -94t-12 -103t-3 -112.5q0 -106 17.5 -203t48.5 -152q44 -78 113.5 -107.5t183.5 -29.5q215 0 293 133q69 120 69 369q0 91 -6.5 155.5t-28 132t-60 108.5t-106 67t-161.5 26zM623 -379h-91v258h91v-258z" />
    <glyph glyph-name="uni1ECE" unicode="&#x1ece;" horiz-adv-x="1640" 
d="M297 188q-102 171 -102 586q0 383 84 537q145 268 540 268q179 0 299.5 -50.5t196.5 -158.5q67 -95 99 -261t32 -335q0 -150 -27.5 -313.5t-93.5 -265.5q-81 -124 -206 -177t-300 -53q-200 0 -328 55t-194 168zM819 1497q-80 0 -147 -12t-118 -32t-91.5 -53.5t-69 -70
t-49 -87.5t-32.5 -100t-19 -113.5t-9.5 -122.5t-2.5 -132q0 -152 19 -301t65 -229q34 -59 82 -99.5t109 -61t122.5 -28.5t140.5 -8q139 0 237.5 35.5t172.5 124.5q69 82 100 237t31 330q0 153 -26 298t-79 233q-63 104 -171 148t-265 44zM702 1909v88q56 26 113 26
q76 0 129 -42.5t53 -104.5q0 -40 -12.5 -62t-60.5 -57q-35 -26 -47.5 -37t-22.5 -30.5t-8 -44.5h-78q-3 18 -4.5 31.5t3.5 27t6 18.5t14.5 19t15.5 15.5t22 19.5q17 15 38.5 30.5t31 23t16.5 19.5t7 27q0 30 -34.5 49t-80.5 19q-66 0 -101 -35z" />
    <glyph glyph-name="uni1ECF" unicode="&#x1ecf;" 
d="M223 125q-41 65 -63.5 177t-22.5 233q0 104 9.5 183t38 157.5t76.5 128.5t129.5 81t193.5 31q109 0 189 -28.5t128.5 -77t78 -123.5t40 -155.5t10.5 -186.5q0 -103 -10 -183t-39 -157.5t-77.5 -127.5t-129.5 -81t-190 -31q-138 0 -222.5 37.5t-138.5 122.5zM584 1036
q-68 0 -122.5 -14t-92 -37.5t-65 -61t-43.5 -77t-25 -94t-12 -103t-3 -112.5q0 -106 17.5 -203t48.5 -152q44 -78 113.5 -107.5t183.5 -29.5q215 0 293 133q69 120 69 369q0 91 -6.5 155.5t-28 132t-60 108.5t-106 67t-161.5 26zM473 1518v88q56 26 113 26q76 0 129 -42.5
t53 -104.5q0 -37 -13.5 -57t-60.5 -60q-52 -42 -63 -57q-16 -23 -15 -58h-77q-8 52 4 76t53 57q16 13 39 29.5t31 23t15 18.5t7 28q0 30 -34.5 48.5t-80.5 18.5q-66 0 -100 -34z" />
    <glyph glyph-name="uni1ED0" unicode="&#x1ed0;" horiz-adv-x="1640" 
d="M195 774q0 383 84 537q145 268 540 268q179 0 299.5 -50.5t196.5 -158.5q67 -95 99 -261t32 -335q0 -150 -27.5 -313.5t-93.5 -265.5q-81 -124 -206 -177t-300 -53q-200 0 -328 55t-194 168q-102 171 -102 586zM281 774q0 -152 19 -301t65 -229q34 -59 82 -99.5t109 -61
t122.5 -28.5t140.5 -8q139 0 237.5 35.5t172.5 124.5q69 82 100 237t31 330q0 153 -26 298t-79 233q-63 104 -171 148t-265 44q-80 0 -147 -12t-118 -32t-91.5 -53.5t-69 -70t-49 -87.5t-32.5 -100t-19 -113.5t-9.5 -122.5t-2.5 -132zM526 1675l248 271h94l246 -271h-115
l-178 193l-180 -193h-115zM1038 1862l234 270h117l-236 -270h-115z" />
    <glyph glyph-name="uni1ED1" unicode="&#x1ed1;" 
d="M137 535q0 104 9.5 183t38 157.5t76.5 128.5t129.5 81t193.5 31q109 0 189 -28.5t128.5 -77t78 -123.5t40 -155.5t10.5 -186.5q0 -103 -10 -183t-39 -157.5t-77.5 -127.5t-129.5 -81t-190 -31q-138 0 -222.5 37.5t-138.5 122.5q-41 65 -63.5 177t-22.5 233zM221 537
q0 -106 17.5 -203t48.5 -152q44 -78 113.5 -107.5t183.5 -29.5q215 0 293 133q69 120 69 369q0 91 -6.5 155.5t-28 132t-60 108.5t-106 67t-161.5 26q-68 0 -122.5 -14t-92 -37.5t-65 -61.5t-43.5 -77.5t-25 -93.5t-12 -103t-3 -112zM291 1280l248 270h94l246 -270h-115
l-178 193l-180 -193h-115zM815 1544l234 271h116l-235 -271h-115z" />
    <glyph glyph-name="uni1ED2" unicode="&#x1ed2;" horiz-adv-x="1640" 
d="M195 774q0 383 84 537q145 268 540 268q179 0 299.5 -50.5t196.5 -158.5q67 -95 99 -261t32 -335q0 -150 -27.5 -313.5t-93.5 -265.5q-81 -124 -206 -177t-300 -53q-200 0 -328 55t-194 168q-102 171 -102 586zM281 774q0 -152 19 -301t65 -229q34 -59 82 -99.5t109 -61
t122.5 -28.5t140.5 -8q139 0 237.5 35.5t172.5 124.5q69 82 100 237t31 330q0 153 -26 298t-79 233q-63 104 -171 148t-265 44q-80 0 -147 -12t-118 -32t-91.5 -53.5t-69 -70t-49 -87.5t-32.5 -100t-19 -113.5t-9.5 -122.5t-2.5 -132zM526 1675l248 271h94l246 -271h-115
l-178 193l-180 -193h-115zM1143 1868l-228 270h115l225 -270h-112z" />
    <glyph glyph-name="uni1ED3" unicode="&#x1ed3;" 
d="M137 535q0 104 9.5 183t38 157.5t76.5 128.5t129.5 81t193.5 31q109 0 189 -28.5t128.5 -77t78 -123.5t40 -155.5t10.5 -186.5q0 -103 -10 -183t-39 -157.5t-77.5 -127.5t-129.5 -81t-190 -31q-138 0 -222.5 37.5t-138.5 122.5q-41 65 -63.5 177t-22.5 233zM221 537
q0 -106 17.5 -203t48.5 -152q44 -78 113.5 -107.5t183.5 -29.5q215 0 293 133q69 120 69 369q0 91 -6.5 155.5t-28 132t-60 108.5t-106 67t-161.5 26q-68 0 -122.5 -14t-92 -37.5t-65 -61.5t-43.5 -77.5t-25 -93.5t-12 -103t-3 -112zM291 1280l248 270h94l246 -270h-115
l-178 193l-180 -193h-115zM858 1544l-227 271h114l226 -271h-113z" />
    <glyph glyph-name="uni1ED4" unicode="&#x1ed4;" horiz-adv-x="1640" 
d="M281 774q0 -152 19 -301t65 -229q34 -59 82 -99.5t109 -61t122.5 -28.5t140.5 -8q139 0 237.5 35.5t172.5 124.5q69 82 100 237t31 330q0 153 -26 298t-79 233q-63 104 -171 148t-265 44q-80 0 -147 -12t-118 -32t-91.5 -53.5t-69 -70t-49 -87.5t-32.5 -100t-19 -113.5
t-9.5 -122.5t-2.5 -132zM297 188q-102 171 -102 586q0 383 84 537q145 268 540 268q179 0 299.5 -50.5t196.5 -158.5q67 -95 99 -261t32 -335q0 -150 -27.5 -313.5t-93.5 -265.5q-81 -124 -206 -177t-300 -53q-200 0 -328 55t-194 168zM821 1868l-180 -193h-115l248 271h94
l246 -271h-115zM1083 2087v88q56 27 111 27q77 0 130.5 -43.5t53.5 -106.5q0 -37 -13 -57.5t-60 -59.5l-15 -12t-13.5 -11t-11.5 -10t-11 -10t-8.5 -9.5t-7.5 -10.5l-5 -10t-4 -12t-1.5 -13.5t-0.5 -15.5h-78q-8 52 4 76t53 57q16 13 39 29t31 23t15 19t7 27q0 30 -35 50
t-81 20q-64 0 -99 -35z" />
    <glyph glyph-name="uni1ED5" unicode="&#x1ed5;" 
d="M221 537q0 -106 17.5 -203t48.5 -152q44 -78 113.5 -107.5t183.5 -29.5q215 0 293 133q69 120 69 369q0 91 -6.5 155.5t-28 132t-60 108.5t-106 67t-161.5 26q-68 0 -122.5 -14t-92 -37.5t-65 -61.5t-43.5 -77.5t-25 -93.5t-12 -103t-3 -112zM223 125q-41 65 -63.5 177
t-22.5 233q0 104 9.5 183t38 157.5t76.5 128.5t129.5 81t193.5 31q109 0 189 -28.5t128.5 -77t78 -123.5t40 -155.5t10.5 -186.5q0 -103 -10 -183t-39 -157.5t-77.5 -127.5t-129.5 -81t-190 -31q-138 0 -222.5 37.5t-138.5 122.5zM586 1473l-180 -193h-115l248 270h94
l246 -270h-115zM807 1737v88q56 26 113 26q76 0 129 -42.5t53 -104.5q0 -40 -13 -61.5t-61 -57.5q-35 -27 -46.5 -37t-22 -30t-9.5 -45h-78q-8 51 4.5 74t53.5 57q17 14 39 30.5t30.5 23.5t15.5 19t7 27q0 30 -34.5 49t-80.5 19q-65 0 -100 -35z" />
    <glyph glyph-name="uni1ED6" unicode="&#x1ed6;" horiz-adv-x="1640" 
d="M195 774q0 383 84 537q145 268 540 268q179 0 299.5 -50.5t196.5 -158.5q67 -95 99 -261t32 -335q0 -150 -27.5 -313.5t-93.5 -265.5q-81 -124 -206 -177t-300 -53q-200 0 -328 55t-194 168q-102 171 -102 586zM281 774q0 -152 19 -301t65 -229q34 -59 82 -99.5t109 -61
t122.5 -28.5t140.5 -8q139 0 237.5 35.5t172.5 124.5q69 82 100 237t31 330q0 153 -26 298t-79 233q-63 104 -171 148t-265 44q-80 0 -147 -12t-118 -32t-91.5 -53.5t-69 -70t-49 -87.5t-32.5 -100t-19 -113.5t-9.5 -122.5t-2.5 -132zM465 2007q47 124 92 169.5t117 45.5
q39 0 73 -15t84 -57q46 -39 73.5 -55t58.5 -16q21 0 37.5 7t27 15t22 29t17 34t18.5 44h91q-16 -39 -25 -58.5t-24.5 -48.5t-29.5 -43t-34.5 -30t-45.5 -22.5t-56 -6.5q-42 0 -74.5 12.5t-69.5 44.5q-52 47 -82.5 66.5t-60.5 19.5q-24 0 -43 -10t-34 -33.5t-22.5 -40
t-21.5 -51.5h-88zM526 1675l248 271h94l246 -271h-115l-178 193l-180 -193h-115z" />
    <glyph glyph-name="uni1ED7" unicode="&#x1ed7;" 
d="M137 535q0 104 9.5 183t38 157.5t76.5 128.5t129.5 81t193.5 31q109 0 189 -28.5t128.5 -77t78 -123.5t40 -155.5t10.5 -186.5q0 -103 -10 -183t-39 -157.5t-77.5 -127.5t-129.5 -81t-190 -31q-138 0 -222.5 37.5t-138.5 122.5q-41 65 -63.5 177t-22.5 233zM584 1036
q-68 0 -122.5 -14t-92 -37.5t-65 -61t-43.5 -77t-25 -94t-12 -103t-3 -112.5q0 -106 17.5 -203t48.5 -152q44 -78 113.5 -107.5t183.5 -29.5q215 0 293 133q69 120 69 369q0 91 -6.5 155.5t-28 132t-60 108.5t-106 67t-161.5 26zM236 1630q47 124 91.5 169.5t116.5 45.5
q40 0 74.5 -15t83.5 -56q48 -41 74 -56.5t57 -15.5q49 0 72 29t51 100h90q-16 -39 -25 -58.5t-24.5 -48.5t-29.5 -43t-34.5 -30t-45.5 -22.5t-56 -6.5q-42 0 -74 12t-69 45q-52 47 -83 66.5t-61 19.5q-24 0 -42.5 -10t-33.5 -34t-22.5 -39.5t-21.5 -51.5h-88zM406 1280h-115
l248 270h94l246 -270h-115l-178 193z" />
    <glyph glyph-name="uni1ED8" unicode="&#x1ed8;" horiz-adv-x="1640" 
d="M297 188q-102 171 -102 586q0 383 84 537q145 268 540 268q179 0 299.5 -50.5t196.5 -158.5q67 -95 99 -261t32 -335q0 -150 -27.5 -313.5t-93.5 -265.5q-81 -124 -206 -177t-300 -53q-200 0 -328 55t-194 168zM819 1497q-80 0 -147 -12t-118 -32t-91.5 -53.5t-69 -70
t-49 -87.5t-32.5 -100t-19 -113.5t-9.5 -122.5t-2.5 -132q0 -152 19 -301t65 -229q34 -59 82 -99.5t109 -61t122.5 -28.5t140.5 -8q139 0 237.5 35.5t172.5 124.5q69 82 100 237t31 330q0 153 -26 298t-79 233q-63 104 -171 148t-265 44zM643 1675h-115l248 271h94l246 -271
h-115l-178 193zM856 -379h-90v258h90v-258z" />
    <glyph glyph-name="uni1ED9" unicode="&#x1ed9;" 
d="M223 125q-41 65 -63.5 177t-22.5 233q0 104 9.5 183t38 157.5t76.5 128.5t129.5 81t193.5 31q109 0 189 -28.5t128.5 -77t78 -123.5t40 -155.5t10.5 -186.5q0 -103 -10 -183t-39 -157.5t-77.5 -127.5t-129.5 -81t-190 -31q-138 0 -222.5 37.5t-138.5 122.5zM584 1036
q-68 0 -122.5 -14t-92 -37.5t-65 -61t-43.5 -77t-25 -94t-12 -103t-3 -112.5q0 -106 17.5 -203t48.5 -152q44 -78 113.5 -107.5t183.5 -29.5q215 0 293 133q69 120 69 369q0 91 -6.5 155.5t-28 132t-60 108.5t-106 67t-161.5 26zM406 1274h-115l248 270h94l246 -270h-115
l-178 192zM623 -379h-91v258h91v-258z" />
    <glyph glyph-name="uni1EDA" unicode="&#x1eda;" horiz-adv-x="1640" 
d="M297 188q-102 171 -102 586q0 383 84 537q145 268 540 268q385 0 520 -250q39 6 65 25t33 33t7 20v184h82v-184q0 -43 -39.5 -90t-112.5 -64q72 -199 72 -479q0 -150 -27.5 -313.5t-93.5 -265.5q-81 -124 -206 -177t-300 -53q-200 0 -328 55t-194 168zM819 1497
q-80 0 -147 -12t-118 -32t-91.5 -53.5t-69 -70t-49 -87.5t-32.5 -100t-19 -113.5t-9.5 -122.5t-2.5 -132q0 -152 19 -301t65 -229q34 -59 82 -99.5t109 -61t122.5 -28.5t140.5 -8q139 0 237.5 35.5t172.5 124.5q69 82 100 237t31 330q0 153 -26 298t-79 233
q-63 104 -171 148t-265 44zM725 1675l233 271h117l-235 -271h-115z" />
    <glyph glyph-name="uni1EDB" unicode="&#x1edb;" 
d="M223 125q-41 65 -63.5 177t-22.5 233q0 104 9.5 183t38 157.5t76.5 128.5t129.5 81t193.5 31q292 0 379 -194q34 7 57 25t29 30.5t6 19.5v185h82v-185q0 -42 -37.5 -87.5t-106.5 -65.5q37 -112 37 -299q0 -103 -10 -183t-39 -157.5t-77.5 -127.5t-129.5 -81t-190 -31
q-138 0 -222.5 37.5t-138.5 122.5zM584 1036q-68 0 -122.5 -14t-92 -37.5t-65 -61t-43.5 -77t-25 -94t-12 -103t-3 -112.5q0 -106 17.5 -203t48.5 -152q44 -78 113.5 -107.5t183.5 -29.5q215 0 293 133q69 120 69 369q0 91 -6.5 155.5t-28 132t-60 108.5t-106 67t-161.5 26z
M451 1276l233 270h117l-236 -270h-114z" />
    <glyph glyph-name="uni1EDC" unicode="&#x1edc;" horiz-adv-x="1640" 
d="M297 188q-102 171 -102 586q0 383 84 537q145 268 540 268q385 0 520 -250q39 6 65 25t33 33t7 20v184h82v-184q0 -43 -39.5 -90t-112.5 -64q72 -199 72 -479q0 -150 -27.5 -313.5t-93.5 -265.5q-81 -124 -206 -177t-300 -53q-200 0 -328 55t-194 168zM819 1497
q-80 0 -147 -12t-118 -32t-91.5 -53.5t-69 -70t-49 -87.5t-32.5 -100t-19 -113.5t-9.5 -122.5t-2.5 -132q0 -152 19 -301t65 -229q34 -59 82 -99.5t109 -61t122.5 -28.5t140.5 -8q139 0 237.5 35.5t172.5 124.5q69 82 100 237t31 330q0 153 -26 298t-79 233
q-63 104 -171 148t-265 44zM621 1946h114l226 -271h-113z" />
    <glyph glyph-name="uni1EDD" unicode="&#x1edd;" 
d="M223 125q-41 65 -63.5 177t-22.5 233q0 104 9.5 183t38 157.5t76.5 128.5t129.5 81t193.5 31q292 0 379 -194q34 7 57 25t29 30.5t6 19.5v185h82v-185q0 -42 -37.5 -87.5t-106.5 -65.5q37 -112 37 -299q0 -103 -10 -183t-39 -157.5t-77.5 -127.5t-129.5 -81t-190 -31
q-138 0 -222.5 37.5t-138.5 122.5zM584 1036q-68 0 -122.5 -14t-92 -37.5t-65 -61t-43.5 -77t-25 -94t-12 -103t-3 -112.5q0 -106 17.5 -203t48.5 -152q44 -78 113.5 -107.5t183.5 -29.5q215 0 293 133q69 120 69 369q0 91 -6.5 155.5t-28 132t-60 108.5t-106 67t-161.5 26z
M408 1548h114l226 -270h-113z" />
    <glyph glyph-name="uni1EDE" unicode="&#x1ede;" horiz-adv-x="1640" 
d="M819 1497q-80 0 -147 -12t-118 -32t-91.5 -53.5t-69 -70t-49 -87.5t-32.5 -100t-19 -113.5t-9.5 -122.5t-2.5 -132q0 -152 19 -301t65 -229q34 -59 82 -99.5t109 -61t122.5 -28.5t140.5 -8q139 0 237.5 35.5t172.5 124.5q69 82 100 237t31 330q0 153 -26 298t-79 233
q-63 104 -171 148t-265 44zM1374 1253q72 -199 72 -479q0 -150 -27.5 -313.5t-93.5 -265.5q-81 -124 -206 -177t-300 -53q-200 0 -328 55t-194 168q-102 171 -102 586q0 383 84 537q145 268 540 268q89 0 160 -11t139 -37.5t123 -77t98 -124.5q39 6 65 25t33 33t7 20v184h82
v-184q0 -43 -39.5 -90t-112.5 -64zM721 1944v88q56 26 113 26q75 0 127 -42t55 -105q1 -37 -12 -56.5t-62 -60.5q-52 -42 -63 -57q-16 -23 -15 -58h-78q-8 52 4.5 76t53.5 57q16 13 39 29.5t31 23t15 18.5t7 28q0 30 -34.5 48.5t-80.5 18.5q-66 0 -100 -34z" />
    <glyph glyph-name="uni1EDF" unicode="&#x1edf;" 
d="M584 1036q-68 0 -122.5 -14t-92 -37.5t-65 -61t-43.5 -77t-25 -94t-12 -103t-3 -112.5q0 -106 17.5 -203t48.5 -152q44 -78 113.5 -107.5t183.5 -29.5q215 0 293 133q69 120 69 369q0 91 -6.5 155.5t-28 132t-60 108.5t-106 67t-161.5 26zM993 844q37 -112 37 -299
q0 -103 -10 -183t-39 -157.5t-77.5 -127.5t-129.5 -81t-190 -31q-138 0 -222.5 37.5t-138.5 122.5q-41 65 -63.5 177t-22.5 233q0 104 9.5 183t38 157.5t76.5 128.5t129.5 81t193.5 31q292 0 379 -194q34 7 57 25t29 30.5t6 19.5v185h82v-185q0 -42 -37.5 -87.5
t-106.5 -65.5zM467 1552v88q58 27 113 27q76 0 129 -42.5t53 -104.5q0 -37 -13.5 -57t-60.5 -60q-52 -42 -63 -57q-16 -23 -15 -58h-78q-8 52 4.5 76t53.5 57q16 13 39 29.5t31 23t15 18.5t7 28q0 30 -34.5 48.5t-80.5 18.5q-65 0 -100 -35z" />
    <glyph glyph-name="uni1EE0" unicode="&#x1ee0;" horiz-adv-x="1640" 
d="M195 774q0 383 84 537q145 268 540 268q385 0 520 -250q39 6 65 25t33 33t7 20v184h82v-184q0 -43 -39.5 -90t-112.5 -64q72 -199 72 -479q0 -150 -27.5 -313.5t-93.5 -265.5q-81 -124 -206 -177t-300 -53q-200 0 -328 55t-194 168q-102 171 -102 586zM281 774
q0 -152 19 -301t65 -229q34 -59 82 -99.5t109 -61t122.5 -28.5t140.5 -8q139 0 237.5 35.5t172.5 124.5q69 82 100 237t31 330q0 153 -26 298t-79 233q-63 104 -171 148t-265 44q-80 0 -147 -12t-118 -32t-91.5 -53.5t-69 -70t-49 -87.5t-32.5 -100t-19 -113.5t-9.5 -122.5
t-2.5 -132zM465 1761q47 124 92 169.5t117 45.5q40 0 74 -15t83 -56q47 -40 74 -56t58 -16q21 0 37.5 7t27 15t22 29t17 34t18.5 44h91q-17 -39 -25.5 -58t-24.5 -49t-29.5 -44t-34 -30t-45.5 -22t-56 -6q-42 0 -74.5 12.5t-69.5 44.5q-52 47 -82.5 66.5t-60.5 19.5
q-24 0 -43 -10t-34 -33.5t-22.5 -40t-21.5 -51.5h-88z" />
    <glyph glyph-name="uni1EE1" unicode="&#x1ee1;" 
d="M137 535q0 104 9.5 183t38 157.5t76.5 128.5t129.5 81t193.5 31q292 0 379 -194q34 7 57 25t29 30.5t6 19.5v185h82v-185q0 -42 -37.5 -87.5t-106.5 -65.5q37 -112 37 -299q0 -103 -10 -183t-39 -157.5t-77.5 -127.5t-129.5 -81t-190 -31q-138 0 -222.5 37.5
t-138.5 122.5q-41 65 -63.5 177t-22.5 233zM221 537q0 -106 17.5 -203t48.5 -152q44 -78 113.5 -107.5t183.5 -29.5q215 0 293 133q69 120 69 369q0 91 -6.5 155.5t-28 132t-60 108.5t-106 67t-161.5 26q-68 0 -122.5 -14t-92 -37.5t-65 -61.5t-43.5 -77.5t-25 -93.5
t-12 -103t-3 -112zM229 1313q47 124 92 169.5t117 45.5q40 0 73.5 -14.5t84.5 -57.5q48 -41 74 -56.5t57 -15.5q49 0 72 29t51 100h90q-16 -39 -25 -58.5t-24.5 -48.5t-29.5 -43t-34.5 -30t-45.5 -22t-56 -6q-75 0 -143 57q-54 47 -84 66.5t-60 19.5q-24 0 -43 -10
t-34 -33.5t-22.5 -40t-21.5 -51.5h-88z" />
    <glyph glyph-name="uni1EE2" unicode="&#x1ee2;" horiz-adv-x="1640" 
d="M297 188q-102 171 -102 586q0 383 84 537q145 268 540 268q385 0 520 -250q39 6 65 25t33 33t7 20v184h82v-184q0 -43 -39.5 -90t-112.5 -64q72 -199 72 -479q0 -150 -27.5 -313.5t-93.5 -265.5q-81 -124 -206 -177t-300 -53q-200 0 -328 55t-194 168zM819 1497
q-80 0 -147 -12t-118 -32t-91.5 -53.5t-69 -70t-49 -87.5t-32.5 -100t-19 -113.5t-9.5 -122.5t-2.5 -132q0 -152 19 -301t65 -229q34 -59 82 -99.5t109 -61t122.5 -28.5t140.5 -8q139 0 237.5 35.5t172.5 124.5q69 82 100 237t31 330q0 153 -26 298t-79 233
q-63 104 -171 148t-265 44zM776 -154h90v-258h-90v258z" />
    <glyph glyph-name="uni1EE3" unicode="&#x1ee3;" 
d="M223 125q-41 65 -63.5 177t-22.5 233q0 104 9.5 183t38 157.5t76.5 128.5t129.5 81t193.5 31q292 0 379 -194q34 7 57 25t29 30.5t6 19.5v185h82v-185q0 -42 -37.5 -87.5t-106.5 -65.5q37 -112 37 -299q0 -103 -10 -183t-39 -157.5t-77.5 -127.5t-129.5 -81t-190 -31
q-138 0 -222.5 37.5t-138.5 122.5zM584 1036q-68 0 -122.5 -14t-92 -37.5t-65 -61t-43.5 -77t-25 -94t-12 -103t-3 -112.5q0 -106 17.5 -203t48.5 -152q44 -78 113.5 -107.5t183.5 -29.5q215 0 293 133q69 120 69 369q0 91 -6.5 155.5t-28 132t-60 108.5t-106 67t-161.5 26z
M539 -154h90v-258h-90v258z" />
    <glyph glyph-name="uni1EE4" unicode="&#x1ee4;" horiz-adv-x="1513" 
d="M217 1544h84v-969q0 -100 6.5 -169.5t24.5 -132.5t50 -102.5t83.5 -69t123.5 -42t171 -12.5q86 0 151 10t113 28.5t81.5 52t54.5 72.5t32.5 98t15.5 120t4 147v969h84v-971q0 -210 -28 -322t-119 -185q-67 -54 -160.5 -77.5t-228.5 -23.5q-136 0 -229.5 23.5t-163.5 79.5
q-87 67 -118.5 184t-31.5 321v971zM713 -393v258h90v-258h-90z" />
    <glyph glyph-name="uni1EE5" unicode="&#x1ee5;" horiz-adv-x="1155" 
d="M178 399v682h82v-684q0 -83 2 -123t15 -93.5t39.5 -77t76.5 -41t125 -17.5q73 0 148 11.5t116 22.5t111 32v970h82v-1032q-112 -32 -166 -46t-132 -26t-153 -12q-48 0 -88 4t-72 14t-57 22t-44 31t-33 38.5t-23 48.5t-15 56t-9 65.5t-4 73t-1 81.5zM606 -393h-90v258h90
v-258z" />
    <glyph glyph-name="uni1EE6" unicode="&#x1ee6;" horiz-adv-x="1513" 
d="M217 1544h84v-969q0 -100 6.5 -169.5t24.5 -132.5t50 -102.5t83.5 -69t123.5 -42t171 -12.5q86 0 151 10t113 28.5t81.5 52t54.5 72.5t32.5 98t15.5 120t4 147v969h84v-971q0 -210 -28 -322t-119 -185q-67 -54 -160.5 -77.5t-228.5 -23.5q-136 0 -229.5 23.5t-163.5 79.5
q-87 67 -118.5 184t-31.5 321v971zM647 1942v88q56 26 113 26q77 0 130.5 -43t53.5 -104q0 -40 -13 -62.5t-61 -56.5q-34 -25 -47 -37t-22.5 -31t-7.5 -45h-78q-3 18 -4.5 31.5t3.5 27t6 18.5t14.5 19t15.5 15.5t22 19.5q16 14 38 30.5t31 24t16 19.5t7 27q0 30 -34 48.5
t-80 18.5q-66 0 -103 -34z" />
    <glyph glyph-name="uni1EE7" unicode="&#x1ee7;" horiz-adv-x="1155" 
d="M178 1081h82v-684q0 -83 2 -123t15 -93.5t39.5 -77t76.5 -41t125 -17.5q73 0 148 11.5t116 22.5t111 32v970h82v-1032q-112 -32 -166 -46t-132 -26t-153 -12q-48 0 -88 4t-72 14t-57 22t-44 31t-33 38.5t-23 48.5t-15 56t-9 65.5t-4 73t-1 81.5v682zM432 1516v88
q56 26 113 26q76 0 129 -42.5t53 -104.5q0 -37 -13.5 -57t-60.5 -60q-52 -42 -63 -57q-16 -23 -15 -58h-77q-8 52 4 76t53 57q16 13 39 29.5t31 23t15 18.5t7 28q0 30 -34.5 48.5t-80.5 18.5q-66 0 -100 -34z" />
    <glyph glyph-name="uni1EE8" unicode="&#x1ee8;" horiz-adv-x="1513" 
d="M217 573v971h84v-969q0 -100 6.5 -169.5t24.5 -132.5t50 -102.5t83.5 -69t123.5 -42t171 -12.5q86 0 151 10t113 28.5t81.5 52t54.5 72.5t32.5 98t15.5 120t4 147v969h84v-219q33 1 60 9t42 18.5t25 23t13.5 20t3.5 11.5v184h82v-184q0 -24 -13.5 -50.5t-39.5 -52.5
t-71.5 -43t-101.5 -18v-670q0 -210 -28 -322t-119 -185q-67 -54 -160.5 -77.5t-228.5 -23.5q-136 0 -229.5 23.5t-163.5 79.5q-87 67 -118.5 184t-31.5 321zM641 1677l233 271h117l-235 -271h-115z" />
    <glyph glyph-name="uni1EE9" unicode="&#x1ee9;" horiz-adv-x="1155" 
d="M178 399v682h82v-684q0 -83 2 -123t15 -93.5t39.5 -77t76.5 -41t125 -17.5q73 0 148 11.5t116 22.5t111 32v970h82v-166q32 1 58 9t40 18.5t23.5 23t12.5 20t3 11.5v185h82v-185q0 -24 -13 -50.5t-38 -52t-69 -42.5t-99 -18v-785q-112 -32 -166 -46t-132 -26t-153 -12
q-48 0 -88 4t-72 14t-57 22t-44 31t-33 38.5t-23 48.5t-15 56t-9 65.5t-4 73t-1 81.5zM430 1280l234 270h116l-235 -270h-115z" />
    <glyph glyph-name="uni1EEA" unicode="&#x1eea;" horiz-adv-x="1513" 
d="M217 573v971h84v-969q0 -100 6.5 -169.5t24.5 -132.5t50 -102.5t83.5 -69t123.5 -42t171 -12.5q86 0 151 10t113 28.5t81.5 52t54.5 72.5t32.5 98t15.5 120t4 147v969h84v-219q33 1 60 9t42 18.5t25 23t13.5 20t3.5 11.5v184h82v-184q0 -24 -13.5 -50.5t-39.5 -52.5
t-71.5 -43t-101.5 -18v-670q0 -210 -28 -322t-119 -185q-67 -54 -160.5 -77.5t-228.5 -23.5q-136 0 -229.5 23.5t-163.5 79.5q-87 67 -118.5 184t-31.5 321zM776 1677l-227 271h115l225 -271h-113z" />
    <glyph glyph-name="uni1EEB" unicode="&#x1eeb;" horiz-adv-x="1155" 
d="M178 399v682h82v-684q0 -83 2 -123t15 -93.5t39.5 -77t76.5 -41t125 -17.5q73 0 148 11.5t116 22.5t111 32v970h82v-166q32 1 58 9t40 18.5t23.5 23t12.5 20t3 11.5v185h82v-185q0 -24 -13 -50.5t-38 -52t-69 -42.5t-99 -18v-785q-112 -32 -166 -46t-132 -26t-153 -12
q-48 0 -88 4t-72 14t-57 22t-44 31t-33 38.5t-23 48.5t-15 56t-9 65.5t-4 73t-1 81.5zM621 1262l-228 270h115l225 -270h-112z" />
    <glyph glyph-name="uni1EEC" unicode="&#x1eec;" horiz-adv-x="1513" 
d="M1296 1243v-670q0 -210 -28 -322t-119 -185q-67 -54 -160.5 -77.5t-228.5 -23.5q-136 0 -229.5 23.5t-163.5 79.5q-87 67 -118.5 184t-31.5 321v971h84v-969q0 -100 6.5 -169.5t24.5 -132.5t50 -102.5t83.5 -69t123.5 -42t171 -12.5q86 0 151 10t113 28.5t81.5 52
t54.5 72.5t32.5 98t15.5 120t4 147v969h84v-219q33 1 60 9t42 18.5t25 23t13.5 20t3.5 11.5v184h82v-184q0 -24 -13.5 -50.5t-39.5 -52.5t-71.5 -43t-101.5 -18zM635 1939v89q53 26 110 26q77 0 131 -43t54 -106q0 -38 -13.5 -59t-60.5 -58q-35 -28 -47 -38.5t-22 -30
t-9 -46.5h-78q-8 51 4 74.5t54 58.5q16 13 39 29.5t31 23t15 18.5t7 28q0 30 -35.5 49.5t-81.5 19.5q-63 0 -98 -35z" />
    <glyph glyph-name="uni1EED" unicode="&#x1eed;" horiz-adv-x="1155" 
d="M975 834v-785q-112 -32 -166 -46t-132 -26t-153 -12q-48 0 -88 4t-72 14t-57 22t-44 31t-33 38.5t-23 48.5t-15 56t-9 65.5t-4 73t-1 81.5v682h82v-684q0 -83 2 -123t15 -93.5t39.5 -77t76.5 -41t125 -17.5q73 0 148 11.5t116 22.5t111 32v970h82v-166q32 1 58 9t40 18.5
t23.5 23t12.5 20t3 11.5v185h82v-185q0 -24 -13 -50.5t-38 -52t-69 -42.5t-99 -18zM426 1511v88q58 27 113 27q76 0 129 -42.5t53 -104.5q0 -37 -13.5 -57t-60.5 -60q-52 -42 -63 -57q-16 -23 -15 -58h-77q-8 52 4 76t53 57q16 13 39 29.5t31 23t15 18.5t7 28
q0 30 -34.5 48.5t-80.5 18.5q-65 0 -100 -35z" />
    <glyph glyph-name="uni1EEE" unicode="&#x1eee;" horiz-adv-x="1513" 
d="M217 1544h84v-969q0 -100 6.5 -169.5t24.5 -132.5t50 -102.5t83.5 -69t123.5 -42t171 -12.5q86 0 151 10t113 28.5t81.5 52t54.5 72.5t32.5 98t15.5 120t4 147v969h84v-219q33 1 60 9t42 18.5t25 23t13.5 20t3.5 11.5v184h82v-184q0 -24 -13.5 -50.5t-39.5 -52.5
t-71.5 -43t-101.5 -18v-670q0 -210 -28 -322t-119 -185q-67 -54 -160.5 -77.5t-228.5 -23.5q-136 0 -229.5 23.5t-163.5 79.5q-87 67 -118.5 184t-31.5 321v971zM424 1716q47 124 92 169.5t117 45.5q40 0 74.5 -15t83.5 -56q48 -41 74 -56.5t57 -15.5q21 0 37.5 7t27 15
t22 29t17 34t18.5 44h91q-17 -39 -25.5 -58t-24.5 -49t-29.5 -44t-34 -30t-45.5 -22t-56 -6q-42 0 -74.5 12.5t-69.5 44.5q-52 47 -82.5 66.5t-60.5 19.5q-24 0 -43 -10t-34 -33.5t-22.5 -40t-21.5 -51.5h-88z" />
    <glyph glyph-name="uni1EEF" unicode="&#x1eef;" horiz-adv-x="1155" 
d="M178 1081h82v-684q0 -83 2 -123t15 -93.5t39.5 -77t76.5 -41t125 -17.5q73 0 148 11.5t116 22.5t111 32v970h82v-166q32 1 58 9t40 18.5t23.5 23t12.5 20t3 11.5v185h82v-185q0 -24 -13 -50.5t-38 -52t-69 -42.5t-99 -18v-785q-112 -32 -166 -46t-132 -26t-153 -12
q-48 0 -88 4t-72 14t-57 22t-44 31t-33 38.5t-23 48.5t-15 56t-9 65.5t-4 73t-1 81.5v682zM223 1298q47 124 92 169.5t117 45.5q40 0 74 -14.5t84 -56.5q48 -41 74 -56.5t57 -15.5q49 0 72 29t51 100h90q-17 -39 -25.5 -58t-24.5 -49t-29.5 -44t-34 -30t-45.5 -22t-56 -6
q-75 0 -144 58q-55 48 -84 67t-59 19q-20 0 -36.5 -8.5t-27.5 -19t-23 -32.5t-17.5 -35t-16.5 -41h-88z" />
    <glyph glyph-name="uni1EF0" unicode="&#x1ef0;" horiz-adv-x="1513" 
d="M217 1544h84v-969q0 -100 6.5 -169.5t24.5 -132.5t50 -102.5t83.5 -69t123.5 -42t171 -12.5q86 0 151 10t113 28.5t81.5 52t54.5 72.5t32.5 98t15.5 120t4 147v969h84v-219q33 1 60 9t42 18.5t25 23t13.5 20t3.5 11.5v184h82v-184q0 -24 -13.5 -50.5t-39.5 -52.5
t-71.5 -43t-101.5 -18v-670q0 -210 -28 -322t-119 -185q-67 -54 -160.5 -77.5t-228.5 -23.5q-136 0 -229.5 23.5t-163.5 79.5q-87 67 -118.5 184t-31.5 321v971zM713 -154h90v-258h-90v258z" />
    <glyph glyph-name="uni1EF1" unicode="&#x1ef1;" horiz-adv-x="1155" 
d="M178 399v682h82v-684q0 -83 2 -123t15 -93.5t39.5 -77t76.5 -41t125 -17.5q73 0 148 11.5t116 22.5t111 32v970h82v-166q32 1 58 9t40 18.5t23.5 23t12.5 20t3 11.5v185h82v-185q0 -24 -13 -50.5t-38 -52t-69 -42.5t-99 -18v-785q-112 -32 -166 -46t-132 -26t-153 -12
q-48 0 -88 4t-72 14t-57 22t-44 31t-33 38.5t-23 48.5t-15 56t-9 65.5t-4 73t-1 81.5zM532 -412v258h91v-258h-91z" />
    <glyph glyph-name="Ygrave" unicode="&#x1ef2;" horiz-adv-x="1212" 
d="M563 594l-575 950h100l518 -854l518 854h101l-576 -950v-594h-86v594zM604 1675l-227 271h115l225 -271h-113z" />
    <glyph glyph-name="ygrave" unicode="&#x1ef3;" horiz-adv-x="997" 
d="M29 1081h90l379 -948l383 948h88l-594 -1474h-90l168 413zM268 1544h115l225 -270h-112z" />
    <glyph glyph-name="uni1EF4" unicode="&#x1ef4;" horiz-adv-x="1212" 
d="M563 594l-575 950h100l518 -854l518 854h101l-576 -950v-594h-86v594zM651 -412h-90v258h90v-258z" />
    <glyph glyph-name="uni1EF5" unicode="&#x1ef5;" horiz-adv-x="997" 
d="M29 1081h90l379 -948l383 948h88l-594 -1474h-90l168 413zM549 -412v258h90v-258h-90z" />
    <glyph glyph-name="uni1EF6" unicode="&#x1ef6;" horiz-adv-x="1212" 
d="M563 594l-575 950h100l518 -854l518 854h101l-576 -950v-594h-86v594zM481 1923v88q59 27 113 27q77 0 130.5 -43.5t53.5 -106.5q0 -38 -13 -58.5t-60 -57.5q-53 -42 -64 -57q-17 -23 -14 -58h-78q-10 51 2.5 74.5t54.5 58.5q16 14 38 29.5t31 22.5t16 19t7 27
q0 30 -35 50t-81 20q-63 0 -101 -35z" />
    <glyph glyph-name="uni1EF7" unicode="&#x1ef7;" horiz-adv-x="997" 
d="M29 1081h90l379 -948l383 948h88l-594 -1474h-90l168 413zM342 1513v89q56 26 113 26q77 0 130.5 -42t53.5 -105q0 -37 -13.5 -58t-60.5 -59q-53 -42 -64 -57q-17 -23 -14 -58h-77q-10 51 2.5 74.5t54.5 58.5q16 13 38 29t31 23.5t16 19.5t7 27q0 30 -34.5 48.5
t-80.5 18.5q-64 0 -102 -35z" />
    <glyph glyph-name="uni1EF8" unicode="&#x1ef8;" horiz-adv-x="1212" 
d="M-12 1544h100l518 -854l518 854h101l-576 -950v-594h-86v594zM350 1681h-88q47 124 92 169.5t117 45.5q40 0 74.5 -15t83.5 -56q48 -41 74 -56.5t57 -15.5q49 0 72 29t51 100h90q-17 -39 -25.5 -58t-24.5 -49t-29.5 -44t-34 -30t-45.5 -22t-56 -6q-78 0 -144 58
q-52 47 -82.5 66.5t-60.5 19.5q-20 0 -36.5 -8.5t-27.5 -19t-23 -32.5t-17.5 -35t-16.5 -41z" />
    <glyph glyph-name="uni1EF9" unicode="&#x1ef9;" horiz-adv-x="997" 
d="M29 1081h90l379 -948l383 948h88l-594 -1474h-90l168 413zM252 1298h-88q47 124 92 169.5t117 45.5q40 0 74 -15t83 -56q47 -40 74 -56t58 -16q21 0 37.5 7t27 15t22 29t17 34t18.5 44h90q-17 -39 -25.5 -58t-24.5 -49t-29.5 -44t-34 -30t-45.5 -22t-56 -6
q-41 0 -73.5 12.5t-69.5 45.5q-52 47 -82.5 66.5t-60.5 19.5q-20 0 -36.5 -8.5t-27.5 -19t-23 -32.5t-17.5 -35t-16.5 -41z" />
    <glyph glyph-name="endash" unicode="&#x2013;" horiz-adv-x="1228" 
d="M1126 500h-1024v82h1024v-82z" />
    <glyph glyph-name="emdash" unicode="&#x2014;" horiz-adv-x="2048" 
d="M2048 500h-2048v82h2048v-82z" />
    <glyph glyph-name="quoteleft" unicode="&#x2018;" horiz-adv-x="509" 
d="M193 1151q0 200 75 393h80q-30 -118 -43.5 -214.5t-13.5 -258.5v-123h-98v203z" />
    <glyph glyph-name="quoteright" unicode="&#x2019;" horiz-adv-x="509" 
d="M242 948h-80q21 84 30.5 133.5t18 138.5t8.5 201v123h98v-203q0 -200 -75 -393z" />
    <glyph glyph-name="quotesinglbase" unicode="&#x201a;" horiz-adv-x="509" 
d="M242 -346h-80q30 118 43.5 214.5t13.5 258.5v123h98v-203q0 -200 -75 -393z" />
    <glyph glyph-name="quotedblleft" unicode="&#x201c;" horiz-adv-x="776" 
d="M557 948h-98v203q0 197 76 393h79q-21 -84 -30.5 -133.5t-18 -138.5t-8.5 -201v-123zM193 948v203q0 200 75 393h80q-30 -118 -43.5 -214.5t-13.5 -258.5v-123h-98z" />
    <glyph glyph-name="quotedblright" unicode="&#x201d;" horiz-adv-x="776" 
d="M242 948h-80q21 84 30.5 133.5t18 138.5t8.5 201v123h98v-203q0 -200 -75 -393zM508 948h-80q30 118 43.5 214.5t13.5 258.5v123h99v-203q0 -197 -76 -393z" />
    <glyph glyph-name="quotedblbase" unicode="&#x201e;" horiz-adv-x="776" 
d="M242 -346h-80q21 84 30.5 133.5t18 138.5t8.5 201v123h98v-203q0 -200 -75 -393zM508 -346h-80q30 118 43.5 214.5t13.5 258.5v123h99v-203q0 -197 -76 -393z" />
    <glyph glyph-name="dagger" unicode="&#x2020;" horiz-adv-x="1159" 
d="M143 1081h394v467h84v-467h393v-82h-393v-1196h-84v1196h-394v82z" />
    <glyph glyph-name="daggerdbl" unicode="&#x2021;" horiz-adv-x="1159" 
d="M143 352h394v647h-394v82h394v467h84v-467h393v-82h-393v-647h393v-82h-393v-467h-84v467h-394v82z" />
    <glyph glyph-name="bullet" unicode="&#x2022;" horiz-adv-x="919" 
d="M209 772q0 121 61.5 181.5t190.5 60.5q250 0 250 -240q0 -123 -61 -183.5t-189 -60.5q-129 0 -190.5 60.5t-61.5 181.5z" />
    <glyph glyph-name="ellipsis" unicode="&#x2026;" horiz-adv-x="1640" 
d="M1335 0v256h121v-256h-121zM760 256h121v-256h-121v256zM184 0v256h121v-256h-121z" />
    <glyph glyph-name="perthousand" unicode="&#x2030;" horiz-adv-x="2869" 
d="M1300 420q0 58 0.5 87.5t4 81.5t11.5 80t21.5 67.5t35.5 61t53 43.5t74.5 31t98.5 9q60 0 107 -14.5t78.5 -37t54 -60t34.5 -73t18.5 -87.5t8 -92t1.5 -97q0 -62 -3.5 -109.5t-14 -102t-31.5 -93t-53.5 -71.5t-83 -50t-116.5 -17q-60 0 -106.5 13t-77.5 33t-53 55t-34 68
t-18.5 84t-8 90.5t-1.5 99.5zM2404 -23q-60 0 -106.5 13t-77.5 33t-53 55t-34 68t-18.5 84t-8 90.5t-1.5 99.5q0 58 0.5 87.5t4 81.5t11.5 80t21.5 67.5t35.5 61t53 43.5t74.5 31t98.5 9q60 0 107 -14.5t78.5 -37t53.5 -60t34 -73t18.5 -87.5t8 -91.5t1.5 -97.5
q0 -76 -5 -131.5t-23 -118t-49.5 -102t-88 -65.5t-135.5 -26zM463 664q-60 0 -106.5 13t-77.5 32.5t-53 54.5t-34 68t-18.5 84t-8 90.5t-1.5 99.5q0 58 0.5 87.5t4 81.5t11.5 80t21.5 67.5t35.5 61t53 43.5t74.5 31t98.5 9q60 0 107 -14.5t78.5 -37t53.5 -60t34 -73
t18.5 -87.5t8 -91.5t1.5 -97.5q0 -76 -5 -131.5t-23 -117.5t-49.5 -101.5t-88 -65.5t-135.5 -26zM1382 420q0 -113 9 -183t36 -112q24 -38 63.5 -53t108.5 -15q35 0 64.5 7.5t51 19t38 31.5t27.5 38.5t18.5 47.5t11.5 50.5t6 56t2.5 56t0.5 56.5q0 124 -9 191.5t-38 111.5
q-50 78 -177 78q-111 0 -163 -64q-34 -42 -42 -106.5t-8 -210.5zM295 1423q-34 -42 -41.5 -105.5t-7.5 -211.5q0 -113 9 -183t36 -112q24 -38 63.5 -53t108.5 -15q35 0 64.5 7.5t51 18.5t38 31.5t27 38.5t18.5 47.5t11.5 51t5.5 56.5t2.5 55.5t0.5 56.5q0 124 -9 191.5
t-38 111.5q-50 78 -176 78q-112 0 -164 -64zM2236 737q-34 -42 -41.5 -105.5t-7.5 -211.5q0 -113 9 -183t36 -112q24 -38 63.5 -53t108.5 -15q35 0 64.5 7.5t51 18.5t38 31.5t27 38.5t18.5 47.5t11.5 51t5.5 56.5t2.5 55.5t0.5 56.5q0 124 -9 191.5t-38 111.5
q-50 78 -176 78q-112 0 -164 -64zM727 0h-90l729 1544h90z" />
    <glyph glyph-name="guilsinglleft" unicode="&#x2039;" horiz-adv-x="647" 
d="M598 119h-113l-344 422l344 422h113l-344 -422z" />
    <glyph glyph-name="guilsinglright" unicode="&#x203a;" horiz-adv-x="647" 
d="M49 119l344 422l-344 422h113l344 -422l-344 -422h-113z" />
    <glyph glyph-name="fraction" unicode="&#x2044;" horiz-adv-x="280" 
d="M-170 0h-90l729 1544h90z" />
    <glyph glyph-name="uni2070" unicode="&#x2070;" horiz-adv-x="878" 
d="M438 899q-60 0 -106.5 13t-77.5 32.5t-53 54.5t-34 68t-18.5 84t-8 90.5t-1.5 99.5q0 58 0.5 87.5t4 81.5t11.5 80t21.5 67.5t35.5 61t53 43.5t74.5 31t98.5 9q60 0 107 -14.5t78.5 -37t53.5 -60t34 -73t18.5 -87.5t8 -91.5t1.5 -97.5q0 -76 -5 -131.5t-23 -117.5
t-49.5 -101.5t-88 -65.5t-135.5 -26zM221 1341q0 -113 9 -182.5t36 -111.5q24 -38 63.5 -53t108.5 -15q35 0 64.5 7.5t51 18.5t38 31.5t27 38.5t18.5 47.5t11.5 50.5t5.5 56t2.5 55.5t0.5 56.5q0 124 -9 192t-38 112q-49 77 -176 77q-113 0 -164 -63q-34 -42 -41.5 -106
t-7.5 -212z" />
    <glyph glyph-name="uni2071" unicode="&#x2071;" horiz-adv-x="436" 
d="M260 922h-84v641h84v-641zM264 1710h-92v213h92v-213z" />
    <glyph glyph-name="uni2074" unicode="&#x2074;" horiz-adv-x="794" 
d="M63 1122v86l424 572h105l-426 -576h379v199h82v-481h-82v200h-482z" />
    <glyph glyph-name="uni2075" unicode="&#x2075;" horiz-adv-x="831" 
d="M154 924v82q158 -27 237 -27q116 0 169.5 40.5t53.5 149.5q0 81 -51 117q-35 25 -96 35t-178 10h-121v449h491v-82h-409v-287h98q348 0 348 -242q0 -145 -77.5 -207.5t-227.5 -62.5q-89 0 -237 25z" />
    <glyph glyph-name="uni2076" unicode="&#x2076;" horiz-adv-x="864" 
d="M436 899q-144 0 -220.5 81.5t-76.5 225.5q0 171 30 273.5t120 173.5q70 56 161 90t224 61v-84q-396 -74 -436 -305q123 6 221 6q276 0 276 -252q0 -128 -83.5 -199t-215.5 -71zM221 1212q0 -233 215 -233q96 0 156.5 48.5t60.5 141.5q0 95 -47.5 133.5t-146.5 38.5
q-129 0 -234 -6q-4 -35 -4 -123z" />
    <glyph glyph-name="uni2077" unicode="&#x2077;" horiz-adv-x="688" 
d="M219 922h-96l424 776h-527v82h619v-88z" />
    <glyph glyph-name="uni2078" unicode="&#x2078;" horiz-adv-x="968" 
d="M162 1141q0 72 37 121.5t106 95.5q-63 31 -85.5 83.5t-22.5 133.5q0 62 23.5 107.5t65.5 71t92 37t109 11.5t108.5 -12t90 -37.5t63.5 -71t23 -106.5q0 -82 -49 -145q-17 -23 -74 -80q74 -26 116 -79t42 -130q0 -65 -27.5 -114t-75 -76t-102 -39.5t-117.5 -12.5
q-68 0 -122 10.5t-101.5 36t-73.5 75t-26 120.5zM291 1249q-47 -47 -47 -108q0 -51 20 -85t57 -50t75 -21.5t89 -5.5q44 0 83 7t76 23.5t59 50.5t22 81q0 50 -24.5 81t-84.5 54q-64 24 -233 53q-43 -31 -92 -80zM279 1575q0 -64 15 -97t54 -51q49 -23 217 -53
q125 111 125 201q0 147 -203 147q-208 0 -208 -147z" />
    <glyph glyph-name="uni2079" unicode="&#x2079;" horiz-adv-x="864" 
d="M403 1251q-145 0 -209.5 59.5t-64.5 202.5q0 139 73 214t214 75q79 0 137 -25.5t90.5 -64.5t51.5 -100t24.5 -118.5t5.5 -133.5q0 -156 -14 -217q-28 -121 -108 -182.5t-206 -61.5q-92 0 -235 27v82q141 -29 244 -29q124 0 180.5 81t56.5 212q-155 -21 -240 -21z
M211 1511q0 -99 39 -139.5t141 -40.5q124 0 252 23q0 47 -1 76.5t-5.5 72.5t-13 70.5t-25.5 58.5t-40.5 48.5t-59.5 29.5t-82 12q-205 0 -205 -211z" />
    <glyph glyph-name="uni207D" unicode="&#x207d;" horiz-adv-x="532" 
d="M236 854q-32 48 -48 110.5t-19 107.5t-3 118v321q0 73 3 118t19 107.5t48 110.5q85 128 241 170v-84q-61 -25 -104 -59t-67 -71t-37.5 -90t-17 -101t-3.5 -119v-285q0 -71 3.5 -119t17 -101t37.5 -90t67 -71t104 -59v-84q-156 42 -241 170z" />
    <glyph glyph-name="uni207E" unicode="&#x207e;" horiz-adv-x="532" 
d="M55 1933v84q158 -42 242 -170q32 -48 48 -110.5t19 -107.5t3 -118v-321q0 -73 -3 -118t-19 -107.5t-48 -110.5q-84 -128 -242 -170v84q51 21 89.5 47t63.5 59t40.5 66.5t23.5 80t10.5 87.5t2.5 100v285q0 59 -2.5 100t-10.5 87.5t-23.5 80t-40.5 66.5t-63.5 59t-89.5 47z
" />
    <glyph glyph-name="uni207F" unicode="&#x207f;" horiz-adv-x="897" 
d="M172 922v641h84v-58q169 74 260 74q116 0 163.5 -60.5t47.5 -177.5v-419h-84v395q0 34 -1.5 56t-9 48t-20.5 41t-37 25t-59 10q-101 0 -260 -78v-497h-84z" />
    <glyph glyph-name="uni2080" unicode="&#x2080;" horiz-adv-x="878" 
d="M438 -289q-60 0 -106.5 13t-77.5 33t-53 55t-34 68t-18.5 84t-8 90.5t-1.5 99.5q0 58 0.5 87.5t4 81.5t11.5 80t21.5 67.5t35.5 60.5t53 43t74.5 31t98.5 9q47 0 86 -9t68 -23t51.5 -37.5t38 -47.5t26.5 -59t17 -64.5t9 -71t4 -73t1 -75.5q0 -76 -5 -131.5t-23 -118
t-49.5 -102t-88 -65.5t-135.5 -26zM221 154q0 -113 9 -183t36 -112q24 -38 63.5 -53t108.5 -15q35 0 64.5 7.5t51 18.5t38 31.5t27 38.5t18.5 47.5t11.5 51t5.5 56.5t2.5 55.5t0.5 56.5q0 124 -9 191.5t-38 111.5q-50 78 -176 78q-112 0 -164 -64q-34 -42 -41.5 -105.5
t-7.5 -211.5z" />
    <glyph glyph-name="uni2081" unicode="&#x2081;" horiz-adv-x="552" 
d="M381 -266h-82v772l-240 -76v86l322 102v-884z" />
    <glyph glyph-name="uni2082" unicode="&#x2082;" horiz-adv-x="776" 
d="M82 -170q269 262 395 401q76 84 76 166q0 70 -41 104t-113 34q-108 0 -288 -46v82q176 43 280 43q114 0 179 -54t65 -165q0 -64 -23 -114.5t-80 -112.5q-174 -190 -354 -352h502v-82h-598v96z" />
    <glyph glyph-name="uni2083" unicode="&#x2083;" horiz-adv-x="839" 
d="M117 -176q187 -33 260 -33q219 0 219 170q0 92 -55.5 128t-151.5 36h-188v80h293l36 49q58 79 58 141q0 140 -189 140q-100 0 -276 -43v81q181 41 276 41q55 0 102.5 -12t86.5 -36.5t61.5 -67.5t22.5 -101q0 -69 -51 -143q-12 -18 -60 -82q62 -38 90.5 -85.5t28.5 -119.5
q0 -131 -83.5 -193.5t-219.5 -62.5q-83 0 -260 31v82z" />
    <glyph glyph-name="uni2084" unicode="&#x2084;" horiz-adv-x="794" 
d="M63 -68v86l424 572h105l-426 -576h379v199h82v-481h-82v200h-482z" />
    <glyph glyph-name="uni2085" unicode="&#x2085;" horiz-adv-x="831" 
d="M154 -264v82q158 -27 237 -27q115 0 169 41t54 150q0 80 -51 116q-35 25 -96 35t-178 10h-121v449h491v-82h-409v-287h98q55 0 100.5 -5t93 -21t80 -41.5t53.5 -70t21 -103.5q0 -145 -77.5 -208t-227.5 -63q-89 0 -237 25z" />
    <glyph glyph-name="uni2086" unicode="&#x2086;" horiz-adv-x="864" 
d="M436 -289q-144 0 -220.5 81.5t-76.5 225.5q0 171 30 273.5t120 173.5q70 56 161 90t224 61v-84q-396 -74 -436 -305q123 6 221 6q276 0 276 -251q0 -128 -83.5 -199.5t-215.5 -71.5zM221 25q0 -234 215 -234q96 0 156.5 49t60.5 142q0 95 -47.5 133.5t-146.5 38.5
q-112 0 -234 -7q-4 -35 -4 -122z" />
    <glyph glyph-name="uni2087" unicode="&#x2087;" horiz-adv-x="688" 
d="M219 -266h-96l424 776h-527v82h619v-88z" />
    <glyph glyph-name="uni2088" unicode="&#x2088;" horiz-adv-x="968" 
d="M162 -47q0 72 37 121.5t106 95.5q-63 31 -85.5 83.5t-22.5 133.5q0 62 23.5 107.5t65.5 71t92 37t109 11.5t108.5 -12t90 -37.5t63.5 -71t23 -106.5q0 -82 -49 -145q-17 -23 -74 -80q74 -26 116 -79t42 -130q0 -65 -27.5 -114t-75 -76t-102 -39.5t-117.5 -12.5
q-68 0 -122 10.5t-101.5 36t-73.5 75t-26 120.5zM291 61q-47 -47 -47 -108q0 -51 20 -85t57 -50t75 -21.5t89 -5.5q44 0 83 7t76 23.5t59 50.5t22 81q0 50 -24.5 81t-84.5 54q-64 24 -233 53q-43 -31 -92 -80zM279 387q0 -64 15 -96t54 -51q53 -25 217 -54q125 111 125 201
q0 148 -203 148q-208 0 -208 -148z" />
    <glyph glyph-name="uni2089" unicode="&#x2089;" horiz-adv-x="864" 
d="M403 63q-145 0 -209.5 60t-64.5 203q0 139 73 213.5t214 74.5q79 0 137 -25.5t90.5 -64.5t51.5 -100t24.5 -118.5t5.5 -133.5q0 -156 -14 -217q-28 -121 -108 -182.5t-206 -61.5q-92 0 -235 27v82q141 -29 244 -29q124 0 180.5 81t56.5 212q-155 -21 -240 -21zM211 324
q0 -100 39.5 -140.5t140.5 -40.5q124 0 252 23q0 47 -1 76.5t-5.5 73t-13 70.5t-25.5 58.5t-40.5 49t-59.5 29.5t-82 12q-205 0 -205 -211z" />
    <glyph glyph-name="uni208D" unicode="&#x208d;" horiz-adv-x="532" 
d="M236 -334q-32 48 -48 110.5t-19 107.5t-3 118v322q0 73 3 117.5t19 107t48 110.5q85 128 241 170v-84q-61 -25 -104 -59t-67 -71t-37.5 -90t-17 -101t-3.5 -119v-285q0 -71 3.5 -119t17 -101t37.5 -90t67 -71t104 -59v-84q-156 42 -241 170z" />
    <glyph glyph-name="uni208E" unicode="&#x208e;" horiz-adv-x="532" 
d="M55 745v84q158 -42 242 -170q32 -48 48 -110.5t19 -107t3 -117.5v-322q0 -73 -3 -118t-19 -107.5t-48 -110.5q-84 -128 -242 -170v84q51 21 89.5 47t63.5 59t40.5 66.5t23.5 80t10.5 87.5t2.5 100v285q0 59 -2.5 100t-10.5 87.5t-23.5 80t-40.5 66.5t-63.5 59t-89.5 47z
" />
    <glyph glyph-name="uni2093" unicode="&#x2093;" horiz-adv-x="731" 
d="M164 -266h-98l249 329l-241 312h102l186 -244l187 244h98l-235 -305l256 -336h-101l-202 264z" />
    <glyph glyph-name="Euro" unicode="&#x20ac;" horiz-adv-x="1406" 
d="M219 788q0 101 5 179.5t20 163t41 147.5t69.5 121.5t103.5 95t146 58.5t193 22q184 0 460 -59v-84q-282 61 -460 61q-158 0 -258.5 -48.5t-157.5 -162.5q-29 -59 -50 -158.5t-24 -181.5h725v-82h-725q-4 -27 -4 -76q0 -44 4 -77h725v-82h-723q3 -87 19.5 -183t36.5 -147
q48 -125 140.5 -186.5t262.5 -61.5q214 0 489 41v-84q-300 -39 -477 -39q-211 0 -324.5 73t-172.5 230q-64 167 -64 520z" />
    <glyph glyph-name="uni20BA" unicode="&#x20ba;" horiz-adv-x="1179" 
d="M246 -33v1577h84v-516l588 191v-86l-588 -191v-160l588 191v-86l-588 -191v-649q176 0 274 27.5t178 109.5q65 68 97 175.5t39 191.5h83q-18 -255 -133 -397q-55 -68 -118.5 -107.5t-167 -60.5t-256.5 -21q-45 0 -80 2z" />
    <glyph glyph-name="uni20BD" unicode="&#x20bd;" horiz-adv-x="1396" 
d="M246 0v1544h555q129 0 209 -28t137 -89q48 -51 76 -139.5t28 -181.5q0 -86 -10.5 -153t-36.5 -126t-68 -100t-107 -68.5t-152 -37.5q-99 -11 -547 -11v-153h690v-82h-690v-375h-84zM795 1462h-465v-770q427 0 538 10q73 7 126 30.5t85.5 58t52 86t26.5 105t7 124.5
q0 86 -26.5 162t-71.5 118q-47 42 -111.5 59t-160.5 17z" />
    <glyph glyph-name="uni2103" unicode="&#x2103;" horiz-adv-x="2193" 
d="M133 1245q0 156 90 245t244 89q156 0 248 -89t92 -245t-92 -247t-248 -91q-154 0 -244 91t-90 247zM1108 262q-33 82 -50.5 220.5t-17.5 285.5q0 404 105 588q69 122 171.5 172.5t291.5 50.5q106 0 212 -20.5t251 -59.5v-84q-95 26 -156 40.5t-147.5 28t-159.5 13.5
q-159 0 -251 -45.5t-149 -161.5q-40 -81 -61 -224.5t-21 -299.5q0 -312 62 -471q48 -126 145.5 -187t261.5 -61q178 0 476 68v-86q-150 -32 -253 -48t-210 -16q-203 0 -319 70t-181 227zM217 1245q0 -121 66.5 -188.5t187.5 -67.5q120 0 186 68t66 188q0 121 -66 186.5
t-186 65.5q-122 0 -188 -65.5t-66 -186.5z" />
    <glyph glyph-name="uni2109" unicode="&#x2109;" horiz-adv-x="2172" 
d="M133 1245q0 156 90 245t244 89q156 0 248 -89t92 -245t-92 -247t-248 -91q-154 0 -244 91t-90 247zM1104 1544h999v-82h-915v-655h852v-82h-852v-725h-84v1544zM471 1497q-122 0 -188 -65.5t-66 -186.5t66.5 -188.5t187.5 -67.5q120 0 186 68t66 188q0 121 -66 186.5
t-186 65.5z" />
    <glyph glyph-name="uni2113" unicode="&#x2113;" horiz-adv-x="806" 
d="M180 1075q0 179 10.5 268t45.5 144q33 52 78 72t108 20q56 0 98.5 -19.5t67 -49.5t39 -75t19.5 -88.5t5 -97.5q0 -142 -84 -324t-305 -479v-75q0 -163 6 -211.5t35 -77.5q35 -35 131 -35q97 0 254 59v-88q-148 -53 -254 -53q-73 0 -126.5 14.5t-82.5 59.5
q-22 34 -32.5 93t-11.5 107t-1 177v659zM301 1436q-39 -67 -39 -297v-557q47 67 71.5 103.5t67 104t66.5 116t50 110t38 119t12 112.5q0 34 -1 55.5t-4.5 55.5t-13 55t-24.5 43t-40.5 32.5t-59.5 10.5q-88 0 -123 -63z" />
    <glyph glyph-name="uni2116" unicode="&#x2116;" horiz-adv-x="2332" 
d="M1620 850q-31 49 -48.5 131t-17.5 164q0 79 8 139.5t30.5 118t60.5 94.5t100.5 59.5t147.5 22.5q98 0 166.5 -31.5t106 -91.5t53.5 -133.5t16 -169.5q0 -426 -342 -426q-105 0 -173 30t-108 93zM309 0h-84v1544h127l887 -1452v1452h84v-1544h-127l-887 1452v-1452z
M1901 1499q-69 0 -118 -18.5t-77 -47.5t-43.5 -77t-20 -95t-4.5 -114q0 -65 5.5 -112t22 -92.5t45 -73.5t76.5 -45t114 -17q62 0 108.5 19t74.5 50t45.5 77t23.5 93.5t6 106.5q0 63 -5 109.5t-21 93.5t-43.5 76.5t-75 48t-113.5 18.5z" />
    <glyph glyph-name="trademark" unicode="&#x2122;" horiz-adv-x="2097" 
d="M1022 1544h121l303 -610l307 610h119v-878h-78v790l-311 -616h-76l-307 616v-790h-78v878zM109 1544h749v-76h-336v-802h-78v802h-335v76z" />
    <glyph glyph-name="uni2126" unicode="&#x2126;" horiz-adv-x="1640" 
d="M156 82h381q-83 55 -144 124t-98.5 141.5t-60.5 161.5t-31 174.5t-8 190.5q0 110 19.5 231t64.5 206q65 123 205 195.5t335 72.5q178 0 298 -53t198 -162q67 -94 99 -229.5t32 -260.5q0 -134 -15 -238.5t-52 -205.5t-105.5 -187t-169.5 -161h381v-82h-547v78
q77 41 138.5 88.5t123.5 126.5q93 119 126.5 245t33.5 336q0 110 -25.5 223.5t-79.5 200.5q-125 199 -436 199q-122 0 -215.5 -29.5t-154 -82.5t-98.5 -132t-54 -171t-16 -208q0 -120 11 -212t38.5 -179t75 -156t121 -131.5t175.5 -117.5v-78h-546v82z" />
    <glyph glyph-name="estimated" unicode="&#x212e;" horiz-adv-x="1576" 
d="M291 143q-189 180 -189 453q0 269 193 453q95 90 212 132t281 42q311 0 493 -168t194 -477h-1092q-9 0 -14 -1t-10 -9t-5 -23v-305q0 -25 32 -61.5t86.5 -73t139 -62t176.5 -25.5q125 0 241 55.5t194 143.5h129q-118 -135 -249.5 -191.5t-314.5 -56.5q-164 0 -283 41.5
t-214 132.5zM354 633q0 -17 31 -17h805q19 0 25 6.5t6 24.5v299q0 49 -66.5 104t-169 92.5t-197.5 37.5q-86 0 -170.5 -26.5t-140 -62.5t-89.5 -72t-34 -58v-328z" />
    <glyph glyph-name="onethird" unicode="&#x2153;" horiz-adv-x="1673" 
d="M950 8v82q187 -33 260 -33q220 0 220 170q0 92 -55.5 128t-151.5 36h-189v80h293l37 49q57 78 57 142q0 139 -188 139q-101 0 -277 -43v82q181 41 277 41q55 0 102 -12t86 -36.5t61.5 -67.5t22.5 -101q0 -70 -51 -144q-20 -30 -59 -82q61 -38 89.5 -85.5t28.5 -119.5
q0 -131 -83.5 -193.5t-219.5 -62.5q-83 0 -260 31zM383 0h-90l729 1544h90zM299 1458l-240 -76v86l322 103v-885h-82v772z" />
    <glyph glyph-name="twothirds" unicode="&#x2154;" horiz-adv-x="1896" 
d="M1434 -23q-83 0 -260 31v82q187 -33 260 -33q219 0 219 170q0 92 -55.5 128t-151.5 36h-189v80h293l37 49q58 79 58 142q0 139 -189 139q-100 0 -276 -43v82q181 41 276 41q55 0 102.5 -12t86.5 -36.5t61.5 -67.5t22.5 -101q0 -69 -52 -144q-20 -30 -59 -82
q62 -38 90.5 -85.5t28.5 -119.5q0 -131 -83.5 -193.5t-219.5 -62.5zM82 686v96q262 254 395 402q76 84 76 166q0 69 -41 103t-113 34q-112 0 -288 -45v82q176 43 280 43q114 0 179 -54t65 -165q0 -65 -23 -116t-80 -112q-174 -190 -354 -352h502v-82h-598zM606 0h-90
l729 1544h90z" />
    <glyph glyph-name="oneeighth" unicode="&#x215b;" horiz-adv-x="1802" 
d="M995 219q0 72 37.5 121.5t106.5 95.5q-63 31 -86 84t-23 133q0 62 24 107.5t66 71t92 37.5t109 12t108.5 -12t90 -38t63.5 -71.5t23 -106.5q0 -81 -50 -145q-20 -27 -73 -80q74 -25 115.5 -78.5t41.5 -130.5q0 -65 -27.5 -114t-74.5 -76t-101.5 -39.5t-117.5 -12.5
q-324 0 -324 242zM293 0l729 1544h90l-729 -1544h-90zM1077 219q0 -51 20 -85t57.5 -50t75.5 -21.5t89 -5.5q44 0 83 7t76 23.5t59 50.5t22 81q0 50 -24.5 81t-84.5 54q-69 26 -233 54q-46 -33 -93 -80t-47 -109zM1321 801q-209 0 -209 -148q0 -63 15.5 -95.5t54.5 -51.5
q49 -23 217 -53q125 111 125 200q0 148 -203 148zM59 1468l322 103v-885h-82v772l-240 -76v86z" />
    <glyph glyph-name="threeeighths" unicode="&#x215c;" horiz-adv-x="2086" 
d="M1606 -23q-69 0 -123 10.5t-101.5 36t-73.5 75t-26 120.5q0 72 37 121.5t106 95.5q-63 31 -85.5 83.5t-22.5 133.5q0 62 24 107.5t66 71t92 37.5t109 12t108 -12t89.5 -38t63.5 -71t23 -107q0 -82 -49 -145q-17 -23 -74 -80q74 -26 116 -79t42 -130q0 -65 -27.5 -114
t-74.5 -76t-101.5 -39.5t-117.5 -12.5zM117 776q187 -33 260 -33q219 0 219 170q0 92 -55.5 128t-151.5 36h-188v80h293l36 49q58 79 58 142q0 139 -189 139q-100 0 -276 -43v82q181 41 276 41q55 0 102.5 -12t86.5 -36.5t61.5 -67.5t22.5 -101q0 -70 -51 -144
q-12 -18 -60 -82q62 -38 90.5 -85t28.5 -119q0 -131 -83.5 -193.5t-219.5 -62.5q-89 0 -260 30v82zM670 0h-90l729 1544h90zM1411 328q-47 -47 -47 -109q0 -51 20 -85t57.5 -50t75.5 -21.5t89 -5.5q44 0 82.5 7t76 23.5t59 50.5t21.5 81q0 51 -24 81.5t-84 53.5
q-68 26 -234 54q-43 -31 -92 -80zM1608 801q-209 0 -209 -148q0 -64 15 -96t54 -51q49 -23 218 -53q124 110 124 200q0 148 -202 148z" />
    <glyph glyph-name="fiveeighths" unicode="&#x215d;" horiz-adv-x="2078" 
d="M1597 -23q-55 0 -99.5 6t-87.5 22.5t-72 43t-46.5 70t-17.5 100.5q0 72 37 121.5t106 95.5q-63 31 -85.5 83.5t-22.5 133.5q0 82 42.5 135t104.5 73t143 20q59 0 108.5 -12t90 -38t63.5 -71.5t23 -106.5q0 -82 -49 -145q-17 -23 -74 -80q74 -26 116 -79t42 -130
q0 -65 -27.5 -114t-75 -76t-102 -39.5t-117.5 -12.5zM391 664q-95 0 -237 24v82q157 -27 237 -27q115 0 169 41t54 150q0 81 -51 117q-35 25 -96 35t-178 10h-121v448h491v-82h-409v-286h98q348 0 348 -242q0 -145 -77.5 -207.5t-227.5 -62.5zM571 0l729 1544h91l-729 -1544
h-91zM1356 219q0 -51 20 -85t57 -50t75 -21.5t89 -5.5q44 0 83 7t76 23.5t59 50.5t22 81q0 51 -24 81.5t-84 53.5q-68 26 -234 54q-43 -31 -92 -80q-47 -47 -47 -109zM1599 801q-208 0 -208 -148q0 -64 15 -96t54 -51q49 -23 217 -53q125 111 125 200q0 148 -203 148z" />
    <glyph glyph-name="seveneighths" unicode="&#x215e;" horiz-adv-x="1935" 
d="M1130 219q0 72 37.5 121.5t106.5 95.5q-63 31 -86 84t-23 133q0 62 24 107.5t66 71t92 37.5t109 12t108.5 -12t90 -38t63.5 -71.5t23 -106.5q0 -82 -49 -145q-17 -23 -74 -80q74 -26 116 -79t42 -130q0 -65 -27.5 -114t-75 -76t-102 -39.5t-117.5 -12.5q-324 0 -324 242z
M518 0h-90l729 1544h90zM1212 219q0 -51 20 -85t57.5 -50t75.5 -21.5t89 -5.5q44 0 83 7t76 23.5t59 50.5t22 81q0 50 -24.5 81t-84.5 54q-69 26 -233 54q-43 -31 -92 -80q-48 -48 -48 -109zM20 1544h619v-88l-420 -770h-96l424 776h-527v82zM1247 653q0 -63 15.5 -95.5
t54.5 -51.5q49 -23 217 -53q125 111 125 200q0 148 -203 148q-209 0 -209 -148z" />
    <glyph glyph-name="uni215F" unicode="&#x215f;" horiz-adv-x="833" 
d="M383 0h-90l729 1544h90zM381 686h-82v772l-240 -76v86l322 103v-885z" />
    <glyph glyph-name="arrowleft" unicode="&#x2190;" horiz-adv-x="1839" 
d="M674 295l-572 477l572 477h129l-522 -436h1400v-82h-1400l522 -436h-129z" />
    <glyph glyph-name="arrowup" unicode="&#x2191;" horiz-adv-x="1228" 
d="M655 0h-82v1401l-436 -522v129l477 571l478 -571v-129l-437 522v-1401z" />
    <glyph glyph-name="arrowright" unicode="&#x2192;" horiz-adv-x="1839" 
d="M1165 295h-129l523 436h-1401v82h1401l-523 436h129l572 -477z" />
    <glyph glyph-name="arrowdown" unicode="&#x2193;" horiz-adv-x="1228" 
d="M614 -35l-477 572v129l436 -523v1401h82v-1401l437 523v-129z" />
    <glyph glyph-name="arrowboth" unicode="&#x2194;" horiz-adv-x="2072" 
d="M674 295l-572 477l572 477h129l-522 -436h1511l-522 436h129l571 -477l-571 -477h-129l522 436h-1511l522 -436h-129z" />
    <glyph glyph-name="arrowupdn" unicode="&#x2195;" horiz-adv-x="1228" 
d="M614 -162l-477 572v129l436 -523v1512l-436 -522v129l477 571l478 -571v-129l-437 522v-1512l435 523v-129z" />
    <glyph glyph-name="uni2196" unicode="&#x2196;" horiz-adv-x="1429" 
d="M1235 182l-1012 1010l58 -619h-82l-74 779l784 -76v-82l-628 59l954 -952v-119z" />
    <glyph glyph-name="uni2197" unicode="&#x2197;" horiz-adv-x="1429" 
d="M195 182v119l954 952l-629 -59v82l785 76l-74 -779h-82l57 619z" />
    <glyph glyph-name="uni2198" unicode="&#x2198;" horiz-adv-x="1429" 
d="M1243 238l-784 75v82l628 -59l-954 952v119l1012 -1010l-58 619h82z" />
    <glyph glyph-name="uni2199" unicode="&#x2199;" horiz-adv-x="1429" 
d="M971 313l-785 -75l74 778h82l-57 -619l1011 1010v-119l-954 -952l629 59v-82z" />
    <glyph glyph-name="partialdiff" unicode="&#x2202;" 
d="M225 125q-86 128 -86 369q0 192 45 299q24 57 51.5 95.5t71.5 70t108.5 46.5t153.5 15q116 0 332 -76q-29 132 -65 218t-97 152t-145 107.5t-213 75.5v90q58 -15 96 -27t98.5 -36t115 -60t100.5 -82q66 -66 114 -173t72.5 -231.5t35.5 -241t11 -234.5
q0 -119 -21.5 -211.5t-70 -168t-137 -116.5t-213.5 -41q-136 0 -218.5 37.5t-138.5 122.5zM274 791q-29 -59 -40 -126.5t-11 -168.5q0 -203 66 -314q46 -77 114.5 -107t178.5 -30q86 0 150 23.5t103.5 63t63.5 99.5t32.5 124.5t8.5 146.5q0 194 -25 350q-221 88 -346 88
q-121 0 -188.5 -35t-106.5 -114z" />
    <glyph glyph-name="uni2206" unicode="&#x2206;" horiz-adv-x="1474" 
d="M1407 0h-1339l610 1544h119zM1282 82l-545 1380l-544 -1380h1089z" />
    <glyph glyph-name="product" unicode="&#x220f;" horiz-adv-x="1339" 
d="M225 1544h889v-1810h-84v1728h-721v-1728h-84v1810z" />
    <glyph glyph-name="summation" unicode="&#x2211;" horiz-adv-x="1134" 
d="M1022 -266h-899v90l555 823l-551 807v90h885v-82h-787l557 -815l-561 -831h801v-82z" />
    <glyph glyph-name="minus" unicode="&#x2212;" horiz-adv-x="1433" 
d="M1251 731h-1069v82h1069v-82z" />
    <glyph glyph-name="radical" unicode="&#x221a;" horiz-adv-x="1433" 
d="M700 0h-59l-289 731h-250v82h308l262 -663l651 1589h90z" />
    <glyph glyph-name="infinity" unicode="&#x221e;" horiz-adv-x="1949" 
d="M512 473q-168 0 -259 80t-91 240q0 155 95 237t241 82q51 0 95.5 -8t88 -28.5t75 -38t76 -55.5t70 -61.5t76.5 -72.5q51 49 76.5 72.5t70 61.5t75 55.5t73 38t85.5 28.5t91 8q159 0 248.5 -83t89.5 -236q0 -151 -89.5 -235.5t-234.5 -84.5q-130 0 -244 65t-247 199
q-72 -70 -116 -109t-103.5 -79.5t-117.5 -58t-124 -17.5zM246 793q0 -121 65 -180.5t201 -59.5q97 0 185.5 56.5t220.5 185.5q-70 65 -105 95.5t-79.5 64.5t-76 47t-71.5 21.5t-88 8.5q-123 0 -187.5 -64.5t-64.5 -174.5zM1034 791q135 -129 228.5 -183.5t201.5 -54.5
q120 0 180 66t60 174q0 239 -254 239q-102 0 -191 -55t-225 -186z" />
    <glyph glyph-name="integral" unicode="&#x222b;" horiz-adv-x="1228" 
d="M152 -397v82q129 -33 202 -33q30 0 49.5 1.5t48 8.5t47.5 20.5t36.5 39.5t25.5 63q10 43 12 104.5t2 210.5v1133q0 106 18 175t58 106t90.5 51t126.5 14q89 0 209 -31v-82q-136 33 -209 33q-50 0 -82.5 -7.5t-62.5 -29.5t-45.5 -67.5t-18.5 -116.5q-2 -55 -2 -543v-528
q0 -264 -4 -342q-4 -89 -26 -147.5t-63 -90t-90 -43.5t-120 -12q-85 0 -202 31z" />
    <glyph glyph-name="approxequal" unicode="&#x2248;" horiz-adv-x="1433" 
d="M436 586q-47 0 -85.5 -10t-70.5 -30.5t-51 -36.5t-47 -44v104q51 49 107 74t147 25q73 0 124.5 -14t189.5 -68q96 -37 139 -47.5t102 -10.5q49 0 88.5 9t72.5 29t51 34.5t48 42.5v-104q-100 -93 -260 -93q-75 0 -132 13.5t-179 62.5q-104 41 -145.5 52.5t-98.5 11.5z
M182 999q51 49 107 74t147 25q73 0 124.5 -14t189.5 -68q96 -37 139 -47.5t102 -10.5q49 0 88.5 9t72.5 29t51 34.5t48 42.5v-104q-98 -92 -260 -92q-76 0 -133 13.5t-178 61.5q-104 41 -145.5 52.5t-98.5 11.5q-47 0 -85.5 -10t-70.5 -30.5t-51 -36.5t-47 -44v104z" />
    <glyph glyph-name="notequal" unicode="&#x2260;" horiz-adv-x="1433" 
d="M182 1028h633l193 336h98l-195 -336h340v-82h-387l-200 -348h587v-82h-635l-194 -336h-96l192 336h-336v82h385l199 348h-584v82z" />
    <glyph glyph-name="lessequal" unicode="&#x2264;" horiz-adv-x="1433" 
d="M182 815l1069 510v-94l-966 -459l966 -459v-94l-1069 510v86zM1251 0h-1069v82h1069v-82z" />
    <glyph glyph-name="greaterequal" unicode="&#x2265;" horiz-adv-x="1433" 
d="M1251 729l-1069 -510v94l967 459l-967 459v94l1069 -510v-86zM1251 0h-1069v82h1069v-82z" />
    <glyph glyph-name="lozenge" unicode="&#x25ca;" horiz-adv-x="1433" 
d="M717 -35l-580 809l580 813l579 -813zM717 115l473 659l-473 664l-473 -664z" />
    <glyph glyph-name="fi" unicode="&#xfb01;" horiz-adv-x="1046" 
d="M262 0h-82v1063q0 71 1.5 116t7.5 94.5t17 78.5t31 62t47 53.5t68.5 43t93 40t121.5 36.5v-84q-45 -13 -67 -19.5t-58.5 -20t-55 -25.5t-43.5 -31.5t-37.5 -42t-23.5 -54t-14 -69.5q-6 -70 -6 -174h311v-80h-311v-987zM866 0h-82v1081h82v-1081zM780 1544h90v-258h-90
v258z" />
    <glyph glyph-name="fl" unicode="&#xfb02;" horiz-adv-x="1046" 
d="M262 0h-82v1063q0 71 1.5 116t7.5 94.5t17 78.5t31 62t47 53.5t68.5 43t93 40t121.5 36.5v-84q-45 -13 -67 -19.5t-58.5 -20t-55 -25.5t-43.5 -31.5t-37.5 -42t-23.5 -54t-14 -69.5q-6 -70 -6 -174h311v-80h-311v-987zM784 0v1544h82v-1544h-82z" />
    </font>
</defs>
</svg>
