<?xml version="1.0" standalone="no"?>
<!DOCTYPE svg PUBLIC "-//W3C//DTD SVG 1.1//EN" "http://www.w3.org/Graphics/SVG/1.1/DTD/svg11.dtd" >
<svg xmlns="http://www.w3.org/2000/svg" xmlns:xlink="http://www.w3.org/1999/xlink" version="1.1">
<metadata>
Created by FontForge 20170731 at Thu Nov  2 05:51:24 2023
 By Aleksey,,,
(c) Bayerische Motoren Werke AG (BMW AG) 2019. The font is subject to copyright protection and other intellectual property rights. All rights reserved.
</metadata>
<defs>
<font id="VN_BMWTypeNextLatin-Bold" horiz-adv-x="1247" >
  <font-face 
    font-family="VN_BMWTypeNext Latin Bold"
    font-weight="700"
    font-stretch="normal"
    units-per-em="2048"
    panose-1="0 0 0 0 0 0 0 0 0 0"
    ascent="1638"
    descent="-410"
    x-height="1081"
    cap-height="1544"
    bbox="-387 -573 3172 2417"
    underline-thickness="102"
    underline-position="-462"
    unicode-range="U+000D-FB02"
  />
<missing-glyph horiz-adv-x="1228" 
d="M102 0v1544h1024v-1544h-1024zM657 772l398 -643v1284zM571 772l-397 641v-1284zM614 842l392 633h-783zM614 702l-391 -632h783z" />
    <glyph glyph-name=".notdef" horiz-adv-x="1228" 
d="M102 0v1544h1024v-1544h-1024zM657 772l398 -643v1284zM571 772l-397 641v-1284zM614 842l392 633h-783zM614 702l-391 -632h783z" />
    <glyph glyph-name="uni0000" horiz-adv-x="0" 
 />
    <glyph glyph-name="uni0000" horiz-adv-x="0" 
 />
    <glyph glyph-name="uni000D" unicode="&#xd;" horiz-adv-x="509" 
 />
    <glyph glyph-name="space" unicode=" " horiz-adv-x="491" 
 />
    <glyph glyph-name="exclam" unicode="!" horiz-adv-x="651" 
d="M186 1544h312v-340q0 -529 -6 -712h-299q-7 214 -7 712v340zM176 365h332v-365h-332v365z" />
    <glyph glyph-name="quotedbl" unicode="&#x22;" horiz-adv-x="1032" 
d="M598 1327v217h297v-217q0 -167 -31 -516h-235q-31 349 -31 516zM137 1544h297v-217q0 -167 -31 -516h-235q-31 349 -31 516v217z" />
    <glyph glyph-name="numbersign" unicode="#" horiz-adv-x="1331" 
d="M238 373h-205v233h243l54 334h-205v234h244l59 370h242l-60 -370h242l59 370h242l-59 -370h204v-234h-243l-54 -334h205v-233h-243l-60 -373h-241l59 373h-242l-59 -373h-242zM573 940l-55 -334h242l53 334h-240z" />
    <glyph glyph-name="dollar" unicode="$" horiz-adv-x="1419" 
d="M483 692q-89 28 -150 60t-112 80.5t-75.5 118t-24.5 163.5q0 433 446 449v192h273v-196q165 -20 409 -72v-289q-384 88 -551 88q-94 0 -141 -6t-78 -29q-47 -32 -47 -116q0 -83 53 -113q29 -16 59 -28.5t54 -20.5t86 -27l221 -69q103 -33 161 -58t101 -63
q62 -53 96.5 -135t34.5 -179q0 -398 -458 -454v-219h-273v215q-188 15 -432 55v291q342 -72 561 -72q32 0 54.5 0.5t55.5 4.5t56 10t48 18.5t40.5 30t26 44t10.5 60.5q0 68 -37 102q-27 24 -205 80z" />
    <glyph glyph-name="percent" unicode="%" horiz-adv-x="2322" 
d="M113 1118q0 224 90.5 336.5t308.5 112.5q214 0 306.5 -114t92.5 -335q0 -212 -96.5 -333t-302.5 -121q-114 0 -192.5 29.5t-123.5 89.5t-64 140.5t-19 194.5zM1411 432q0 224 90.5 336.5t308.5 112.5q214 0 307 -114t93 -335q0 -212 -97 -333.5t-303 -121.5
q-114 0 -192.5 29.5t-123.5 89.5t-64 141t-19 195zM874 0h-313l877 1544h313zM1669 432q0 -82 8.5 -125.5t34.5 -68.5q34 -31 98 -31q39 0 66.5 14t42 33t22.5 52.5t9.5 59.5t1.5 66q0 34 -1 55.5t-5 50t-13.5 46t-24.5 34.5t-40 25t-58 8q-29 0 -51.5 -7t-37.5 -16.5
t-25 -28t-15.5 -34t-8 -42t-3 -44t-0.5 -47.5zM371 1118q0 -82 8.5 -125.5t34.5 -68.5q34 -31 98 -31q39 0 66.5 14t41.5 33t22 52.5t9.5 59.5t1.5 66q0 42 -1.5 66.5t-9 57.5t-21.5 51t-41.5 31t-67.5 13q-29 0 -51.5 -7t-37.5 -16.5t-25 -28t-15.5 -34t-8 -42t-3 -44
t-0.5 -47.5z" />
    <glyph glyph-name="ampersand" unicode="&#x26;" horiz-adv-x="1675" 
d="M88 410q0 70 15 129t38.5 103t65.5 89t81 77t101 77q-121 127 -121 301q0 169 99 270q63 66 159.5 94.5t253.5 28.5q160 0 439 -66v-282q-262 65 -422 65q-26 0 -41.5 -0.5t-38.5 -2t-37 -5.5t-31.5 -10t-28 -16.5t-20 -24.5t-14 -33.5t-4.5 -44.5q0 -40 24.5 -75.5
t100.5 -118.5q117 -127 350 -351h-400l-86 86q-46 -35 -67 -52.5t-52.5 -51t-45 -70t-13.5 -80.5q0 -202 269 -202q126 0 213 45.5t172 146.5l151 178h358l-227 -268l346 -346h-422l-129 131q-94 -90 -207.5 -128t-254.5 -38q-135 0 -232.5 25t-179.5 80q-74 51 -118 142.5
t-44 197.5z" />
    <glyph glyph-name="quotesingle" unicode="'" horiz-adv-x="571" 
d="M168 811q-31 349 -31 516v217h297v-217q0 -167 -31 -516h-235z" />
    <glyph glyph-name="parenleft" unicode="(" horiz-adv-x="708" 
d="M231 -240q-60 64 -83 153t-23 210v909q0 121 23 210t83 153q79 84 184 126t236 66v-266q-66 -20 -107.5 -44.5t-65.5 -48.5t-34.5 -70.5t-13 -84.5t-2.5 -117v-757q0 -70 1 -101t7.5 -76t19.5 -65t38 -46.5t63 -43t94 -33.5v-266q-61 11 -109.5 23.5t-107 34t-110.5 55.5
t-93 79z" />
    <glyph glyph-name="parenright" unicode=")" horiz-adv-x="708" 
d="M57 1321v266q131 -24 236 -66t184 -126q60 -65 83.5 -154t23.5 -209v-909q0 -120 -23.5 -209t-83.5 -154q-79 -84 -184 -126t-236 -66v266q67 21 109 45t66 46.5t34.5 70t12.5 84t2 119.5v757q0 49 -0.5 76t-3.5 63t-9 55t-17 44.5t-27 40t-39.5 31.5t-55 30t-72.5 25z
" />
    <glyph glyph-name="asterisk" unicode="*" horiz-adv-x="1177" 
d="M494 944l-330 -203v228l211 125l-211 125v227l330 -203l-5 301h199l-4 -301l330 203v-227l-211 -125l211 -125v-228l-330 203l4 -301h-199z" />
    <glyph glyph-name="plus" unicode="+" horiz-adv-x="1433" 
d="M133 907h438v459h291v-459h438v-270h-438v-459h-291v459h-438v270z" />
    <glyph glyph-name="comma" unicode="," horiz-adv-x="614" 
d="M350 -385h-229q45 229 45 391v359h311v-310q0 -88 -25 -183.5t-47 -144.5t-55 -112z" />
    <glyph glyph-name="hyphen" unicode="-" horiz-adv-x="937" 
d="M836 397h-734v299h734v-299z" />
    <glyph glyph-name="period" unicode="." horiz-adv-x="614" 
d="M477 0h-340v365h340v-365z" />
    <glyph glyph-name="slash" unicode="/" horiz-adv-x="894" 
d="M313 0h-313l582 1544h313z" />
    <glyph glyph-name="zero" unicode="0" horiz-adv-x="1361" 
d="M678 -35q-110 0 -196 23.5t-143 59.5t-97.5 100t-62 123t-33.5 152.5t-14.5 165t-2.5 181.5q0 241 20 385.5t89 237.5q140 186 440 186q252 0 395 -137q44 -42 74.5 -98.5t47 -113t25.5 -139t11 -150t2 -171.5q0 -254 -25.5 -392.5t-115.5 -248.5q-132 -164 -414 -164z
M436 764q0 -193 10 -285t52 -151q56 -78 180 -78q120 0 178 78q46 61 58 155.5t12 292.5q0 186 -10.5 279.5t-49.5 154.5q-56 84 -188 84q-76 0 -126.5 -27t-78.5 -93q-17 -41 -25.5 -111.5t-10 -127t-1.5 -171.5z" />
    <glyph glyph-name="one" unicode="1" horiz-adv-x="872" 
d="M700 0h-307v1188l-391 -119v303l698 215v-1587z" />
    <glyph glyph-name="two" unicode="2" horiz-adv-x="1243" 
d="M72 287q464 441 630 645q47 59 69 100t22 92q0 39 -10.5 68.5t-32.5 47t-45 29t-58.5 16t-61.5 6t-65 1.5q-124 0 -420 -57v287q285 57 451 57q161 0 256.5 -28t169.5 -93q61 -53 93 -136.5t32 -168.5q0 -147 -54 -252t-178 -237q-138 -147 -385 -377h670v-287h-1083v287
z" />
    <glyph glyph-name="three" unicode="3" horiz-adv-x="1241" 
d="M68 299q271 -49 442 -49q49 0 87 3.5t80.5 15.5t70.5 33t46.5 58.5t18.5 88.5q0 42 -13 74t-39.5 51.5t-54 31.5t-68 17t-69 6.5t-69.5 1.5h-277v276h441l49 68q82 110 82 174q0 35 -7.5 57t-29.5 43q-50 45 -219 45q-142 0 -459 -61v285q332 61 465 61q158 0 262 -28.5
t172 -92.5q119 -110 119 -284q0 -66 -21.5 -118.5t-66.5 -123.5q-35 -54 -80 -119q97 -68 143.5 -156.5t46.5 -207.5q0 -104 -32 -187.5t-87.5 -138t-133 -91t-164.5 -52t-187 -15.5q-187 0 -448 47v287z" />
    <glyph glyph-name="four" unicode="4" horiz-adv-x="1277" 
d="M45 291v291l709 962h370l-708 -964h418v270h303v-850h-303v291h-789z" />
    <glyph glyph-name="five" unicode="5" horiz-adv-x="1251" 
d="M139 6v287q219 -43 398 -43q66 0 114 9.5t89 33t62 68.5t21 112q0 51 -13.5 85t-49.5 63q-37 30 -104.5 40.5t-194.5 10.5h-301v872h934v-284h-631v-304h125q125 0 222.5 -27t170 -84t111 -151t38.5 -221q0 -132 -41.5 -230.5t-118 -159t-180 -89.5t-233.5 -29
q-174 0 -418 41z" />
    <glyph glyph-name="six" unicode="6" horiz-adv-x="1339" 
d="M688 -35q-294 0 -429.5 149.5t-135.5 448.5q0 306 60.5 478t193.5 280q125 102 309.5 161.5t441.5 88.5v-285q-66 -8 -120 -16.5t-129.5 -25t-135 -41.5t-117.5 -59t-97 -84t-54 -110q108 6 219 6q155 0 250.5 -32t157.5 -97q125 -131 125 -356q0 -245 -145 -375.5
t-394 -130.5zM430 526q0 -147 57.5 -215.5t200.5 -68.5q232 0 232 229q0 68 -16.5 111.5t-53 65t-80.5 29t-113 7.5q-100 0 -223 -6q-4 -43 -4 -152z" />
    <glyph glyph-name="seven" unicode="7" horiz-adv-x="1114" 
d="M432 0h-352l665 1253h-745v291h1098v-284z" />
    <glyph glyph-name="eight" unicode="8" horiz-adv-x="1406" 
d="M698 -37q-569 0 -569 463q0 118 52 204.5t153 164.5q-180 108 -180 344q0 119 43.5 206.5t120.5 137t172 73t210 23.5q114 0 209.5 -23.5t174.5 -73t124 -137t45 -206.5q0 -54 -13 -100.5t-42.5 -91.5t-54 -74t-70.5 -78q205 -128 205 -369q0 -101 -31 -181t-84.5 -132
t-128 -86.5t-157.5 -49t-179 -14.5zM434 438q0 -52 13.5 -89t36 -59.5t58.5 -35t73.5 -17t89.5 -4.5q270 0 270 201q0 59 -20 97t-68 67q-64 38 -326 78q-65 -54 -96 -107.5t-31 -130.5zM504 1257q-30 -25 -38.5 -55t-8.5 -80q0 -51 13.5 -81.5t47.5 -53.5q58 -41 328 -88
q53 59 78.5 108t25.5 115q0 56 -19.5 94t-56.5 57.5t-78.5 27.5t-95.5 8q-138 0 -196 -52z" />
    <glyph glyph-name="nine" unicode="9" horiz-adv-x="1339" 
d="M582 551q-229 0 -349 130.5t-120 362.5q0 535 530 535q100 0 181.5 -20.5t141 -56t104 -89.5t72 -116t45 -141t24 -158t6.5 -173q0 -86 -3 -154.5t-11.5 -144.5t-23.5 -134.5t-40 -119t-59.5 -105t-84 -84.5t-111.5 -64.5t-143 -39t-178 -14.5q-179 0 -395 47v285
q208 -47 383 -47q156 0 227 41q131 77 131 282q-167 -22 -327 -22zM651 1303q-122 0 -176.5 -67t-54.5 -192q0 -128 50 -173.5t181 -45.5q108 0 258 21q0 45 -0.5 68.5t-2.5 68t-6.5 70.5t-13.5 64t-21.5 61t-32 49.5t-44.5 41t-60 24.5t-77 10z" />
    <glyph glyph-name="colon" unicode=":" horiz-adv-x="614" 
d="M477 0h-340v365h340v-365zM477 717h-340v364h340v-364z" />
    <glyph glyph-name="semicolon" unicode=";" horiz-adv-x="614" 
d="M350 -385h-229q45 229 45 391v359h311v-310q0 -88 -25 -183.5t-47 -144.5t-55 -112zM137 717v364h340v-364h-340z" />
    <glyph glyph-name="less" unicode="&#x3c;" horiz-adv-x="1433" 
d="M1300 193l-1167 446v266l1167 447v-269l-817 -311l817 -311v-268z" />
    <glyph glyph-name="equal" unicode="=" horiz-adv-x="1433" 
d="M1300 414h-1167v266h1167v-266zM1300 864h-1167v266h1167v-266z" />
    <glyph glyph-name="greater" unicode="&#x3e;" horiz-adv-x="1433" 
d="M133 1352l1167 -447v-266l-1167 -446v268l817 311l-817 311v269z" />
    <glyph glyph-name="question" unicode="?" horiz-adv-x="1144" 
d="M502 1300q-136 0 -379 -51v273q238 57 436 57q119 0 205 -23.5t154 -76.5q64 -49 102.5 -130t38.5 -163q0 -106 -30 -184.5t-111 -176.5q-65 -80 -191 -213q-52 -55 -76 -120h-332q30 104 113 210q71 89 215 238q105 109 105 207q0 36 -9.5 63t-30 43.5t-40.5 26.5
t-54 14t-56.5 5t-59.5 1zM319 365h332v-365h-332v365z" />
    <glyph glyph-name="at" unicode="@" horiz-adv-x="2019" 
d="M137 481q0 194 55 374.5t168 301.5q71 76 149 122.5t202 73.5t297 27q99 0 215 -21t244.5 -62t207.5 -69.5t197 -74.5v-600q0 -254 -109 -379q-171 -194 -587 -194v133q-78 -69 -143.5 -104.5t-147.5 -35.5q-74 0 -138.5 38.5t-107.5 107.5q-78 128 -78 362q0 213 78 338
q56 89 134.5 125.5t234.5 36.5q66 0 148 -17.5t132.5 -34t163.5 -55.5v-628q83 22 129 86q27 37 35 104t8 172v383q-409 152 -616 152q-184 0 -283.5 -32.5t-169.5 -104.5q-168 -174 -168 -525q0 -328 117 -491q95 -132 317 -189v-252q-190 40 -323 120t-212 200t-114 269
t-35 343zM870 643q-22 -61 -22 -162q0 -119 18 -174q12 -35 29.5 -49t48.5 -14q35 0 61 12.5t66 44.5q45 35 98 84v309q-93 29 -143 29q-67 0 -102.5 -16.5t-53.5 -63.5z" />
    <glyph glyph-name="A" unicode="A" horiz-adv-x="1529" 
d="M2 0l561 1544h402l563 -1544h-334l-102 281h-662l-100 -281h-328zM524 569h469l-235 666z" />
    <glyph glyph-name="B" unicode="B" horiz-adv-x="1509" 
d="M825 0h-678v1544h732q129 0 210.5 -17.5t143.5 -60.5q72 -51 114 -132.5t42 -170.5q0 -67 -17 -120.5t-53 -114.5q-41 -70 -84 -133q99 -77 143.5 -150.5t44.5 -187.5q0 -457 -598 -457zM823 637h-368v-354h376q29 0 45.5 0.5t44 2t44 4.5t39 9t36 14.5t29 22t24 30.5
t14 40t5.5 51q0 43 -11 74.5t-34.5 50.5t-47 31t-62.5 16.5t-65 6t-69 1.5zM455 920h534q3 6 22 35t27 44q41 70 41 127q0 85 -55 113q-45 23 -180 23h-389v-342z" />
    <glyph glyph-name="C" unicode="C" horiz-adv-x="1345" 
d="M762 -35q-151 0 -264.5 39.5t-185 107t-116 169t-62 214.5t-17.5 255q0 189 25 325t87 236q35 56 77 99.5t105 84t154 62.5t203 22q77 0 172.5 -13.5t158 -27t169.5 -39.5v-295q-202 46 -256 56q-119 22 -207 22q-52 0 -96.5 -6.5t-79 -20.5t-62 -31t-48 -43t-35.5 -52
t-25 -62t-16.5 -68t-9.5 -76t-4 -80.5t-1 -86.5q0 -76 2.5 -126.5t11.5 -107.5t25 -92.5t44.5 -70.5t69.5 -54.5t99.5 -31t134.5 -11.5q138 0 453 68v-297q-326 -68 -506 -68z" />
    <glyph glyph-name="D" unicode="D" horiz-adv-x="1505" 
d="M688 0h-541v1544h558q185 0 308 -38.5t208 -135.5q88 -99 128 -233.5t40 -358.5q0 -232 -52.5 -382t-162.5 -249q-90 -81 -204.5 -114t-281.5 -33zM455 1255v-966h241q95 0 164.5 24.5t110.5 65t65.5 106t32.5 133.5t8 160q0 140 -17 231t-71 154q-47 56 -112.5 74
t-169.5 18h-252z" />
    <glyph glyph-name="E" unicode="E" horiz-adv-x="1345" 
d="M147 1544h1094v-289h-786v-325h741v-289h-741v-352h821v-289h-1129v1544z" />
    <glyph glyph-name="F" unicode="F" horiz-adv-x="1271" 
d="M147 1544h1078v-289h-770v-342h692v-288h-692v-625h-308v1544z" />
    <glyph glyph-name="G" unicode="G" horiz-adv-x="1480" 
d="M762 -35q-155 0 -269.5 38t-186 103.5t-114.5 167.5t-59 215t-16 261q0 201 27.5 333t91.5 234q37 58 80 102t105 82t149.5 58t197.5 20q77 0 176.5 -14.5t167 -29t172.5 -40.5v-293q-233 52 -305 64q-98 16 -174 16q-132 0 -205 -36t-115 -120q-31 -63 -44 -149.5
t-13 -220.5q0 -140 12 -228t47 -149q40 -71 117.5 -99t210.5 -28q96 0 219 12v565h303v-813q-333 -51 -575 -51z" />
    <glyph glyph-name="H" unicode="H" horiz-adv-x="1527" 
d="M455 0h-308v1544h308v-590h618v590h307v-1544h-307v662h-618v-662z" />
    <glyph glyph-name="I" unicode="I" horiz-adv-x="602" 
d="M455 0h-308v1544h308v-1544z" />
    <glyph glyph-name="J" unicode="J" horiz-adv-x="829" 
d="M-55 -250v301q204 67 309 133q40 25 64 52t38 67q21 60 21 205v1036h307v-1059q0 -86 -1.5 -131.5t-10.5 -108t-27 -104.5q-23 -54 -57 -92.5t-94 -73.5q-101 -59 -269 -125.5t-280 -99.5z" />
    <glyph glyph-name="K" unicode="K" horiz-adv-x="1429" 
d="M455 0h-308v1544h308v-725l585 725h377l-612 -747l688 -797h-408l-630 737v-737z" />
    <glyph glyph-name="L" unicode="L" horiz-adv-x="1245" 
d="M1214 0h-1067v1544h308v-1247h759v-297z" />
    <glyph glyph-name="M" unicode="M" horiz-adv-x="1837" 
d="M147 1544h396l379 -866l378 866h390v-1544h-299v1079l-338 -772h-269l-338 772v-1079h-299v1544z" />
    <glyph glyph-name="N" unicode="N" horiz-adv-x="1546" 
d="M147 1544h332l617 -1032v1032h303v-1544h-332l-616 1032v-1032h-304v1544z" />
    <glyph glyph-name="O" unicode="O" horiz-adv-x="1597" 
d="M242 203q-125 186 -125 565q0 368 112 549q41 66 86.5 111.5t112 81t158.5 52.5t213 17q207 0 329.5 -55.5t210.5 -177.5q142 -194 142 -578q0 -377 -144 -573q-89 -121 -209 -175.5t-329 -54.5q-120 0 -209.5 15t-154 47.5t-108.5 73.5t-85 102zM428 768q0 -279 70 -391
q44 -70 117.5 -95.5t183.5 -25.5q96 0 164.5 27.5t107.5 70.5t61.5 113.5t29.5 138.5t7 162q0 66 -3 116.5t-12.5 107t-25.5 97.5t-44 80.5t-66.5 64t-93.5 39.5t-125 15q-109 0 -182 -26t-119 -99q-70 -115 -70 -395z" />
    <glyph glyph-name="P" unicode="P" horiz-adv-x="1396" 
d="M147 0v1544h664q251 0 386.5 -124t135.5 -373q0 -254 -132 -375.5t-388 -132.5q-90 -4 -358 -4v-535h-308zM455 1255v-432q231 0 327 4q131 6 185.5 49.5t54.5 167.5q0 66 -14.5 108t-47 64.5t-74.5 30.5t-108 8h-323z" />
    <glyph glyph-name="Q" unicode="Q" horiz-adv-x="1597" 
d="M733 -90q-180 43 -298.5 111.5t-189 175t-99.5 242.5t-29 329q0 368 112 549q41 66 86.5 111.5t112 81t158.5 52.5t213 17q207 0 329.5 -55.5t210.5 -177.5q142 -194 142 -578q0 -113 -12 -207t-44 -193.5t-97.5 -176.5t-162.5 -121l291 -68v-264zM498 1163
q-70 -115 -70 -395q0 -285 70 -397q44 -70 118 -96.5t183 -26.5q69 0 124 14.5t93.5 39t66.5 63.5t44.5 80t26 97.5t12.5 108t3 117.5t-3 116.5t-12.5 107t-25.5 97.5t-44 80.5t-66.5 64t-93.5 39.5t-125 15q-109 0 -182 -26t-119 -99z" />
    <glyph glyph-name="R" unicode="R" horiz-adv-x="1488" 
d="M147 1544h687q154 0 247.5 -23t171.5 -89q68 -59 106 -151t38 -198q0 -101 -32.5 -176.5t-102.5 -158.5q-70 -82 -152 -164l363 -584h-355l-327 530h-336v-530h-308v1544zM455 1255v-436h491q39 44 74 88q33 43 49 82.5t16 93.5q0 90 -57 134q-29 21 -81 29.5t-150 8.5
h-342z" />
    <glyph glyph-name="S" unicode="S" horiz-adv-x="1329" 
d="M76 1120q0 126 38.5 214t121.5 151q69 53 165.5 73.5t233.5 20.5q189 0 569 -86v-295q-413 92 -557 92q-86 0 -133.5 -8t-77.5 -31q-28 -22 -38.5 -47.5t-10.5 -62.5q0 -80 43 -113q35 -26 164 -67l266 -84q105 -34 163 -59t101 -62q61 -52 95 -136t34 -184
q0 -225 -155 -348q-82 -65 -192 -94t-279 -29q-177 0 -537 68v299q388 -78 561 -78q38 0 64 1.5t63.5 6t63 15.5t50.5 28.5t37.5 46.5t12.5 68q0 75 -43 110q-35 28 -194 78l-265 84q-91 29 -153 61t-112.5 81t-74.5 119.5t-24 166.5z" />
    <glyph glyph-name="T" unicode="T" horiz-adv-x="1384" 
d="M20 1253v291h1344v-291h-518v-1253h-307v1253h-519z" />
    <glyph glyph-name="U" unicode="U" horiz-adv-x="1513" 
d="M143 1544h308v-948q0 -69 4 -114.5t16 -86.5t33 -65t55.5 -42t82.5 -25t116 -7q67 0 115 7t82.5 25t55 42t32.5 65t16 86.5t4 114.5v948h307v-942q0 -182 -29.5 -294.5t-107.5 -192.5q-82 -83 -195 -116.5t-280 -33.5q-175 0 -292.5 35t-189.5 114t-102.5 196.5
t-30.5 291.5v942z" />
    <glyph glyph-name="V" unicode="V" horiz-adv-x="1470" 
d="M541 0l-551 1544h336l411 -1182l414 1182h330l-551 -1544h-389z" />
    <glyph glyph-name="W" unicode="W" horiz-adv-x="1943" 
d="M336 0l-311 1544h315l225 -1141l254 908h311l250 -908l230 1141h309l-313 -1544h-389l-244 883l-244 -883h-393z" />
    <glyph glyph-name="X" unicode="X" horiz-adv-x="1511" 
d="M358 0h-358l528 782l-505 762h366l367 -553l370 553h359l-502 -743l528 -801h-366l-389 592z" />
    <glyph glyph-name="Y" unicode="Y" horiz-adv-x="1361" 
d="M-31 1544h355l366 -639l367 639h336l-557 -956v-588h-308v588z" />
    <glyph glyph-name="Z" unicode="Z" horiz-adv-x="1376" 
d="M1303 0h-1229v291l815 964h-785v289h1184v-291l-815 -964h830v-289z" />
    <glyph glyph-name="bracketleft" unicode="[" horiz-adv-x="749" 
d="M692 -393h-555v1937h555v-266h-252v-1405h252v-266z" />
    <glyph glyph-name="backslash" unicode="\" horiz-adv-x="894" 
d="M895 0h-313l-582 1544h313z" />
    <glyph glyph-name="bracketright" unicode="]" horiz-adv-x="749" 
d="M309 1278h-252v266h555v-1937h-555v266h252v1405z" />
    <glyph glyph-name="asciicircum" unicode="^" horiz-adv-x="1740" 
d="M88 686l660 858h249l656 -858h-375l-408 541l-407 -541h-375z" />
    <glyph glyph-name="underscore" unicode="_" horiz-adv-x="1024" 
d="M1024 -393h-1024v291h1024v-291z" />
    <glyph glyph-name="grave" unicode="`" horiz-adv-x="1024" 
d="M782 1229h-319l-297 315h332z" />
    <glyph glyph-name="a" unicode="a" 
d="M455 -35q-87 0 -153 35t-105 89t-63.5 130t-33 147t-8.5 150q0 80 6.5 146t22 129t41 111.5t64.5 89.5t90.5 68t121 41.5t154.5 14.5q117 0 233.5 -29.5t288.5 -89.5v-997h-295v139q-96 -81 -182 -127.5t-182 -46.5zM614 850q-35 0 -63.5 -6t-49.5 -16t-37.5 -27
t-27.5 -34t-19 -42t-12 -46.5t-6.5 -52.5t-3 -53.5t-0.5 -56.5q0 -126 27 -203q13 -36 37 -50.5t65 -14.5q87 0 291 176v383q-121 43 -201 43z" />
    <glyph glyph-name="b" unicode="b" horiz-adv-x="1251" 
d="M133 43v1501h299v-532q68 37 106.5 55t97.5 33.5t120 15.5q94 0 166 -33t116 -86.5t72 -129.5t38.5 -152t10.5 -164q0 -273 -100 -418q-60 -89 -148 -128.5t-245 -39.5q-229 0 -533 78zM680 844q-88 0 -248 -99v-483q134 -26 217 -26q53 0 92 17.5t60.5 44.5t34.5 69.5
t16.5 82t3.5 91.5q0 38 -0.5 60t-4 58.5t-10 58.5t-19.5 48.5t-31 41.5t-46.5 25.5t-64.5 10.5z" />
    <glyph glyph-name="c" unicode="c" horiz-adv-x="1015" 
d="M186 147q-90 136 -90 392q0 577 494 577q130 0 368 -63v-283q-225 64 -329 64q-60 0 -102 -14.5t-66.5 -38t-38.5 -63.5t-18.5 -80.5t-4.5 -98.5q0 -75 7.5 -122.5t30.5 -89.5t70 -61.5t122 -19.5q121 0 329 51v-283q-250 -49 -366 -49q-163 0 -254 44.5t-152 137.5z" />
    <glyph glyph-name="d" unicode="d" horiz-adv-x="1251" 
d="M176 133q-84 139 -84 402q0 78 7 144.5t24 135t49 121t77 94t112.5 64t152.5 22.5q107 0 305 -59v487h299v-1544h-295v123q-191 -158 -366 -158q-91 0 -163.5 46t-117.5 122zM395 537q0 -148 29 -222q15 -36 42 -50.5t77 -14.5q64 0 184 82q45 31 92 65v396
q-156 51 -229 51q-40 0 -70.5 -10t-51 -24t-35 -40t-22 -48.5t-11 -58.5t-4.5 -61t-1 -65z" />
    <glyph glyph-name="e" unicode="e" horiz-adv-x="1187" 
d="M92 530q0 142 24 245t81 182.5t158.5 119t248.5 39.5q256 0 376 -113t120 -364q0 -114 -21 -221h-694q0 -195 277 -195q133 0 385 37v-254q-261 -41 -416 -41q-149 0 -252.5 34.5t-167 106.5t-91.5 175.5t-28 248.5zM385 631h426q4 24 4 55q0 188 -211 188
q-117 0 -168 -62.5t-51 -180.5z" />
    <glyph glyph-name="f" unicode="f" horiz-adv-x="718" 
d="M133 1067q0 133 23 209q11 35 32 66t43.5 54.5t59.5 46t63.5 37.5t74.5 31.5t73 24.5t77.5 20.5t70 16.5t67.5 14v-291q-183 -39 -238 -79q-36 -27 -43 -72q-4 -29 -4 -78h287v-274h-287v-793h-299v1067z" />
    <glyph glyph-name="g" unicode="g" 
d="M94 539q0 142 23 243t78.5 179t155 116.5t245.5 38.5q79 0 179 -20.5t161.5 -40t177.5 -58.5v-864q0 -136 -26.5 -232.5t-90.5 -168.5q-67 -75 -190 -117.5t-291 -42.5q-157 0 -377 29v262q236 -31 377 -31q55 0 105 11.5t95 35.5t72 68t27 102v41q-184 -90 -332 -90
q-89 0 -158.5 32t-112 83t-70 123t-38 145t-10.5 156zM397 539q0 -119 29 -191q17 -43 51 -60.5t90 -17.5q64 0 148 35q18 7 100 47v451q-125 41 -207 41q-43 0 -76 -9t-55 -22t-37.5 -37.5t-23.5 -46.5t-12.5 -57.5t-5.5 -62.5t-1 -70z" />
    <glyph glyph-name="h" unicode="h" horiz-adv-x="1232" 
d="M133 0v1544h299v-512q214 84 330 84q85 0 147.5 -26t99 -67t58 -104.5t28.5 -126.5t7 -145v-647h-299v633q0 47 -1 70t-8 52.5t-22 45.5q-12 13 -30.5 19t-31.5 6.5t-44 0.5q-64 0 -234 -65v-762h-299z" />
    <glyph glyph-name="i" unicode="i" horiz-adv-x="565" 
d="M432 0h-299v1081h299v-1081zM432 1229h-299v315h299v-315z" />
    <glyph glyph-name="j" unicode="j" horiz-adv-x="587" 
d="M-113 -141q141 40 189 75q59 43 69 101q11 58 11 176v870h299v-923q0 -63 -2 -104.5t-12 -94t-28 -90t-51 -76.5t-81 -69q-148 -95 -394 -156v291zM156 1544h299v-315h-299v315z" />
    <glyph glyph-name="k" unicode="k" horiz-adv-x="1200" 
d="M432 0h-299v1544h299v-923l399 460h371l-430 -493l471 -588h-381l-430 543v-543z" />
    <glyph glyph-name="l" unicode="l" horiz-adv-x="565" 
d="M432 0h-299v1544h299v-1544z" />
    <glyph glyph-name="m" unicode="m" horiz-adv-x="1812" 
d="M133 0v1081h299v-61q205 96 318 96q168 0 243 -119q63 33 105.5 53t116.5 43t131 23q86 0 148.5 -25.5t98 -66t56 -105t26.5 -126t6 -146.5v-647h-299v633q0 50 -0.5 71.5t-6.5 51.5t-19 45q-11 13 -28 19t-28 6.5t-36 0.5q-69 0 -207 -71v-756h-299v633q0 131 -21 164
q-9 14 -25.5 21t-28 8t-36.5 1q-69 0 -215 -69v-758h-299z" />
    <glyph glyph-name="n" unicode="n" horiz-adv-x="1236" 
d="M133 0v1081h299v-59q237 94 340 94q86 0 148 -26t97.5 -66.5t56 -104.5t26.5 -126t6 -146v-647h-299v633q0 51 -0.5 69.5t-7 48.5t-21.5 48q-11 13 -30 20t-31.5 7.5t-38.5 0.5q-81 0 -246 -69v-758h-299z" />
    <glyph glyph-name="o" unicode="o" horiz-adv-x="1249" 
d="M625 -35q-277 0 -405 147.5t-128 426.5q0 280 127 428.5t406 148.5q532 0 532 -577q0 -271 -130.5 -422.5t-401.5 -151.5zM395 539q0 -68 9 -117.5t33 -93t71 -66t117 -22.5t117 24t70.5 69t32.5 95t9 117q0 68 -9.5 118t-33.5 92.5t-70.5 64.5t-115.5 22q-57 0 -99 -16
t-67 -42t-39.5 -66.5t-19.5 -82t-5 -96.5z" />
    <glyph glyph-name="p" unicode="p" horiz-adv-x="1251" 
d="M133 1081h295v-86q93 57 172 89t162 32q89 0 159.5 -35t114 -90.5t72.5 -131.5t40 -152t11 -158q0 -85 -12 -164t-41.5 -157t-75.5 -135t-119.5 -92.5t-167.5 -35.5q-120 0 -311 72v-430h-299v1474zM432 729v-418q155 -71 234 -71q48 0 84 19t56 47.5t31.5 71t15 80
t3.5 83.5q0 303 -170 303q-46 0 -120 -37t-134 -78z" />
    <glyph glyph-name="q" unicode="q" horiz-adv-x="1251" 
d="M178 133q-86 133 -86 406q0 141 25 243t82.5 179.5t158.5 116t246 38.5q178 0 514 -121v-1388h-299v465q-95 -51 -177 -79t-169 -28q-188 0 -295 168zM608 844q-56 0 -96 -17.5t-62.5 -43.5t-35 -69t-16 -82t-3.5 -93q0 -147 31 -220q18 -40 49.5 -55.5t81.5 -15.5
q105 0 262 98v457q-126 41 -211 41z" />
    <glyph glyph-name="r" unicode="r" horiz-adv-x="817" 
d="M133 1081h299v-123q99 70 177 100.5t204 49.5v-301q-239 -41 -381 -137v-670h-299v1081z" />
    <glyph glyph-name="s" unicode="s" horiz-adv-x="1081" 
d="M84 774q0 82 23.5 143.5t62.5 98.5t98 60t121.5 31.5t140.5 8.5q88 0 213.5 -20.5t206.5 -40.5v-273q-287 70 -413 70q-97 0 -127 -21q-25 -17 -25 -57q0 -41 37 -57q35 -16 98 -31l187 -49q144 -38 217 -112.5t73 -215.5q0 -82 -27 -144t-71 -99.5t-108.5 -60.5
t-129.5 -31.5t-143 -8.5q-133 0 -422 51v273q292 -60 455 -60q87 0 117 19q28 17 28 59q0 41 -32 58q-23 12 -125 38l-195 54q-133 37 -196.5 109.5t-63.5 207.5z" />
    <glyph glyph-name="t" unicode="t" horiz-adv-x="798" 
d="M133 1368h299v-301h336v-274h-336v-316q0 -92 8 -127q11 -54 72 -71q59 -17 201 -25v-268q-284 11 -398 47q-117 38 -155 131q-19 47 -23 103.5t-4 195.5v905z" />
    <glyph glyph-name="u" unicode="u" horiz-adv-x="1232" 
d="M131 446v635h299v-620q0 -47 1 -71t7.5 -54.5t20.5 -46.5q34 -39 125 -39q106 0 217 26v805h299v-1030q-341 -86 -557 -86q-116 0 -197.5 33.5t-128 99t-66.5 150t-20 198.5z" />
    <glyph glyph-name="v" unicode="v" horiz-adv-x="1136" 
d="M365 0l-373 1081h327l254 -786l254 786h318l-377 -1081h-403z" />
    <glyph glyph-name="w" unicode="w" horiz-adv-x="1785" 
d="M307 0l-299 1081h301l211 -780l215 780h322l217 -780l209 780h295l-299 -1081h-389l-199 723l-191 -723h-393z" />
    <glyph glyph-name="x" unicode="x" horiz-adv-x="1208" 
d="M348 0h-348l401 551l-387 530h355l235 -329l242 329h348l-387 -518l401 -563h-354l-250 360z" />
    <glyph glyph-name="y" unicode="y" horiz-adv-x="1204" 
d="M0 1081h328l278 -710l279 710h319l-598 -1474h-315l153 379z" />
    <glyph glyph-name="z" unicode="z" horiz-adv-x="1058" 
d="M1006 0h-953v256l522 551h-497v274h901v-254l-520 -553h547v-274z" />
    <glyph glyph-name="braceleft" unicode="{" horiz-adv-x="872" 
d="M39 711q33 2 58.5 5.5t56.5 13t51.5 24t34.5 39.5t14 59v395q0 137 66 217t198 80h297v-266h-125q-72 0 -102.5 -31t-30.5 -100v-359q0 -60 -15 -100.5t-46.5 -63.5t-69 -34t-94.5 -17q117 -13 171 -56.5t54 -156.5v-356q0 -70 30.5 -100.5t102.5 -30.5h125v-266h-297
q-133 0 -198.5 81t-65.5 218v389q0 131 -215 141v275z" />
    <glyph glyph-name="bar" unicode="|" horiz-adv-x="555" 
d="M416 -393h-277v1937h277v-1937z" />
    <glyph glyph-name="braceright" unicode="}" horiz-adv-x="872" 
d="M57 -127h125q72 0 102.5 30.5t30.5 100.5v356q0 113 54.5 156.5t171.5 56.5q-56 6 -94 17t-70 34t-47 63.5t-15 100.5v359q0 69 -30.5 100t-102.5 31h-125v266h297q132 0 198 -80t66 -217v-395q0 -34 14 -59t34.5 -39.5t52 -24t57 -13t58.5 -5.5v-275q-216 -10 -216 -141
v-389q0 -137 -65.5 -218t-198.5 -81h-297v266z" />
    <glyph glyph-name="asciitilde" unicode="~" horiz-adv-x="1740" 
d="M350 406h-299q10 68 21 120.5t29.5 110.5t41 101t57 83t77 65.5t101 40.5t128.5 15q164 0 371 -129l157 -98q128 -78 191 -78q60 0 94 51q45 69 72 213h299q-14 -95 -31 -165.5t-51.5 -144t-81.5 -120.5t-121.5 -76.5t-171.5 -29.5q-106 0 -192 27.5t-185 90.5l-160 103
q-114 73 -176 73q-30 0 -54.5 -11.5t-41.5 -33.5t-29.5 -44.5t-21.5 -56t-13.5 -54.5t-9.5 -53z" />
    <glyph glyph-name="uni00A0" unicode="&#xa0;" horiz-adv-x="491" 
 />
    <glyph glyph-name="exclamdown" unicode="&#xa1;" horiz-adv-x="651" 
d="M154 -53q0 529 6 712h299q6 -183 6 -712v-340h-311v340zM475 786h-332v365h332v-365z" />
    <glyph glyph-name="cent" unicode="&#xa2;" horiz-adv-x="1112" 
d="M133 539q0 103 15.5 186t52.5 159.5t107 128t171 72.5v222h258v-217q104 -17 258 -56v-280q-231 59 -336 59q-59 0 -100 -12.5t-65 -32.5t-37 -57t-17 -75t-4 -97q0 -58 4 -96t17 -75.5t37 -58.5t65 -34t100 -13q106 0 336 51v-280q-139 -29 -258 -39v-225h-258v227
q-346 53 -346 543z" />
    <glyph glyph-name="sterling" unicode="&#xa3;" horiz-adv-x="1306" 
d="M1194 0h-1010v1165q0 93 20.5 167t76.5 136q59 63 137.5 87t216.5 24q144 0 475 -68v-284q-312 67 -438 67q-90 0 -135 -32.5t-45 -116.5v-156h395v-270h-395v-426h702v-293z" />
    <glyph glyph-name="currency" unicode="&#xa4;" horiz-adv-x="1693" 
d="M451 170h-308l281 313q-59 104 -59 283q0 189 61 291l-283 317h308l153 -172q111 43 242 43q122 0 239 -47l158 176h307l-284 -317q69 -104 69 -285q0 -172 -69 -287l284 -315h-307l-151 168q-113 -45 -246 -45q-137 0 -248 43zM625 770q0 -117 53 -169t170 -52
q111 0 169 56.5t58 168.5q0 105 -61.5 161t-167.5 56q-114 0 -167.5 -53t-53.5 -168z" />
    <glyph glyph-name="yen" unicode="&#xa5;" horiz-adv-x="1464" 
d="M20 1544h355l366 -639l367 639h336l-324 -555h248v-270h-405l-76 -131v-588h-307v588l-76 131h-408v270h248z" />
    <glyph glyph-name="brokenbar" unicode="&#xa6;" horiz-adv-x="555" 
d="M416 688h-277v856h277v-856zM416 -393h-277v856h277v-856z" />
    <glyph glyph-name="section" unicode="&#xa7;" horiz-adv-x="1351" 
d="M127 678q0 84 45.5 159t122.5 158q-66 46 -93.5 104.5t-27.5 143.5t30 148t76 98t115.5 56t133.5 27.5t145 6.5q173 0 493 -63v-250q-324 67 -495 67q-129 0 -168 -24q-29 -18 -29 -66q0 -23 9.5 -37t33.5 -28q45 -25 141 -64l230 -98q170 -72 241 -131q45 -36 70 -89
t25 -108q0 -45 -14 -89.5t-44.5 -90t-53 -74t-62.5 -74.5q65 -50 91.5 -103.5t26.5 -135.5q0 -79 -33 -140.5t-84.5 -97.5t-122 -59t-137 -31t-139.5 -8q-147 0 -458 49v254q315 -57 477 -57q118 0 166 28q30 18 30 62q0 39 -41 67q-30 21 -151 74l-275 121
q-51 22 -82.5 37.5t-72 42.5t-63.5 55t-39.5 69.5t-16.5 90.5zM522 895q-106 -101 -106 -168q0 -32 9 -48t34 -34q36 -24 123 -61l252 -109q102 113 102 172q0 52 -45 82q-29 21 -168 80z" />
    <glyph glyph-name="dieresis" unicode="&#xa8;" horiz-adv-x="1024" 
d="M633 1544h285v-315h-285v315zM106 1544h285v-315h-285v315z" />
    <glyph glyph-name="copyright" unicode="&#xa9;" horiz-adv-x="1880" 
d="M123 772q0 374 214.5 590.5t602.5 216.5t602.5 -216.5t214.5 -590.5t-214.5 -590.5t-602.5 -216.5t-602.5 216.5t-214.5 590.5zM940 1391q-302 0 -461.5 -161.5t-159.5 -457.5t159.5 -457t461.5 -161q300 0 460.5 161.5t160.5 456.5t-160.5 457t-460.5 162zM530 764
q0 115 21.5 200t70.5 148t132 95t202 32q132 0 330 -49v-193q-133 27 -168 33q-82 14 -143 14q-75 0 -122 -17t-70.5 -55.5t-31.5 -84.5t-8 -119q0 -142 50.5 -201t193.5 -59q80 0 299 45v-197q-226 -41 -334 -41q-221 0 -321.5 113.5t-100.5 335.5z" />
    <glyph glyph-name="ordfeminine" unicode="&#xaa;" horiz-adv-x="1044" 
d="M393 727q-84 0 -145 36.5t-94.5 98.5t-48.5 132t-15 149q0 219 94.5 327.5t311.5 108.5q66 0 146.5 -14t133 -28t154.5 -44v-743h-254v116l-72 -57q-50 -40 -98.5 -61t-112.5 -21zM352 1143q0 -86 17 -121q11 -24 31.5 -32.5t54.5 -8.5q45 0 109 40.5t108 84.5v207
q-95 28 -160 28q-97 0 -128.5 -48t-31.5 -150z" />
    <glyph glyph-name="guillemotleft" unicode="&#xab;" horiz-adv-x="1374" 
d="M1012 119l-361 422l361 422h348l-361 -422l361 -422h-348zM68 541l360 422h348l-360 -422l360 -422h-348z" />
    <glyph glyph-name="logicalnot" unicode="&#xac;" horiz-adv-x="1433" 
d="M1300 328h-278v483h-889v270h1167v-753z" />
    <glyph glyph-name="registered" unicode="&#xae;" horiz-adv-x="1880" 
d="M123 772q0 374 214.5 590.5t602.5 216.5t602.5 -216.5t214.5 -590.5t-214.5 -590.5t-602.5 -216.5t-602.5 216.5t-214.5 590.5zM319 772q0 -296 159.5 -457t461.5 -161q300 0 460.5 161.5t160.5 456.5t-160.5 457t-460.5 162q-302 0 -461.5 -161.5t-159.5 -457.5z
M565 1219h445q56 0 105 -7.5t95.5 -26.5t79 -48.5t52.5 -76.5t20 -108q0 -60 -17.5 -102.5t-58.5 -95.5q-39 -49 -96 -109l190 -309h-237l-168 274h-201v-274h-209v883zM969 1030h-195v-231h299q31 36 39 45q37 45 37 94q0 56 -39 76q-31 16 -141 16z" />
    <glyph glyph-name="macron" unicode="&#xaf;" horiz-adv-x="1024" 
d="M926 1280h-828v207h828v-207z" />
    <glyph glyph-name="degree" unicode="&#xb0;" horiz-adv-x="980" 
d="M494 801q-190 0 -301 101.5t-111 279.5q0 182 111.5 289.5t300.5 107.5q185 0 295 -108t110 -289q0 -177 -109.5 -279t-295.5 -102zM328 1190q0 -72 44.5 -114t119.5 -42q73 0 117 41.5t44 114.5t-44 114.5t-117 41.5q-75 0 -119.5 -42t-44.5 -114z" />
    <glyph glyph-name="plusminus" unicode="&#xb1;" horiz-adv-x="1433" 
d="M133 907h438v459h291v-459h438v-270h-438v-332h-291v332h-438v270zM1300 0h-1167v266h1167v-266z" />
    <glyph glyph-name="twosuperior" unicode="&#xb2;" horiz-adv-x="897" 
d="M88 1128q214 152 299 226q62 54 85.5 83.5t23.5 57.5q0 36 -25 55q-24 19 -106 19q-87 0 -263 -43v233q183 43 295 43q70 0 130 -13.5t112 -42.5t82.5 -82.5t30.5 -127.5q0 -67 -21.5 -114t-71.5 -105q-68 -76 -186 -174h330v-221h-715v206z" />
    <glyph glyph-name="threesuperior" unicode="&#xb3;" horiz-adv-x="921" 
d="M102 1135q168 -33 269 -33q99 0 131 18q33 18 33 62q0 34 -27 53q-18 12 -43 15t-76 3h-190v197h282l23 31q20 29 20 55q0 32 -22 47q-26 16 -111 16q-111 0 -282 -38v200q195 41 309 41q360 0 360 -219q0 -72 -30 -123q-14 -24 -56 -80q101 -82 101 -213
q0 -64 -24 -112.5t-62 -77.5t-91.5 -47t-105.5 -24.5t-111 -6.5q-62 0 -154 10.5t-143 20.5v205z" />
    <glyph glyph-name="acute" unicode="&#xb4;" horiz-adv-x="1024" 
d="M547 1229h-320l289 315h332z" />
    <glyph glyph-name="uni00B5" unicode="&#xb5;" horiz-adv-x="1224" 
d="M133 1081h299v-436q0 -164 6 -225q3 -29 12.5 -56t28 -54t52.5 -43.5t79 -16.5q77 0 183 26v805h299v-1030q-325 -86 -482 -86q-128 0 -178 58v-416h-299v1474z" />
    <glyph glyph-name="paragraph" unicode="&#xb6;" horiz-adv-x="1554" 
d="M96 1057q0 487 525 487h757v-1937h-217v1724h-233v-1724h-217v950q-60 0 -92.5 0.5t-82.5 3.5t-82.5 9.5t-71.5 18t-71.5 30t-62.5 43.5q-77 65 -114.5 168.5t-37.5 226.5z" />
    <glyph glyph-name="periodcentered" unicode="&#xb7;" horiz-adv-x="614" 
d="M477 365h-340v364h340v-364z" />
    <glyph glyph-name="cedilla" unicode="&#xb8;" horiz-adv-x="1024" 
d="M561 -420h-297l191 297h295z" />
    <glyph glyph-name="onesuperior" unicode="&#xb9;" horiz-adv-x="675" 
d="M543 922h-269v561l-231 -62v242l500 143v-884z" />
    <glyph glyph-name="ordmasculine" unicode="&#xba;" horiz-adv-x="1052" 
d="M526 727q-215 0 -327.5 106t-112.5 320q0 209 113 317.5t327 108.5t327.5 -108t113.5 -318t-114 -318t-327 -108zM350 1153q0 -95 40.5 -138.5t135.5 -43.5q93 0 134.5 46.5t41.5 139.5q0 91 -42 134.5t-134 43.5q-93 0 -134.5 -44.5t-41.5 -137.5z" />
    <glyph glyph-name="guillemotright" unicode="&#xbb;" horiz-adv-x="1374" 
d="M946 119h-348l360 422l-360 422h348l361 -422zM14 119l361 422l-361 422h348l361 -422l-361 -422h-348z" />
    <glyph glyph-name="onequarter" unicode="&#xbc;" horiz-adv-x="2009" 
d="M602 0h-313l876 1544h314zM1622 127h-500v227l375 504h318l-379 -508h186v131h256v-481h-256v127zM43 1427l500 144v-885h-269v561l-231 -61v241z" />
    <glyph glyph-name="onehalf" unicode="&#xbd;" horiz-adv-x="1968" 
d="M602 0h-313l876 1544h314zM1874 0h-715v207q221 157 299 225q62 54 85.5 83.5t23.5 57.5q0 37 -25 56q-23 18 -106 18q-86 0 -262 -43v234q183 43 294 43q70 0 130 -13.5t112 -42.5t82.5 -83t30.5 -128q0 -67 -21 -114.5t-71 -104.5q-65 -73 -187 -174h330v-221zM43 1186
v241l500 144v-885h-269v561z" />
    <glyph glyph-name="threequarters" unicode="&#xbe;" horiz-adv-x="2254" 
d="M535 0l876 1544h313l-876 -1544h-313zM102 899q168 -33 269 -33q97 0 131 19q33 18 33 61q0 34 -27 53q-29 19 -119 19h-190v196h282l23 31q20 29 20 55q0 33 -22 48q-26 16 -111 16q-107 0 -282 -39v201q195 41 309 41q360 0 360 -219q0 -72 -30 -123q-14 -24 -56 -80
q101 -82 101 -213q0 -64 -24 -112.5t-62 -77.5t-91.5 -47t-105.5 -24.5t-111 -6.5q-63 0 -155 10t-142 20v205zM1368 354l375 504h317l-379 -508h187v131h256v-481h-256v127h-500v227z" />
    <glyph glyph-name="questiondown" unicode="&#xbf;" horiz-adv-x="1144" 
d="M227 -328q-64 49 -102.5 130t-38.5 163q0 106 30 184.5t111 176.5q65 80 191 213q52 55 76 120h331q-30 -106 -112 -210q-71 -89 -215 -238q-105 -109 -105 -207q0 -36 9.5 -63t30 -43.5t41 -26.5t53.5 -14.5t56 -5.5t60 -1q131 0 379 52v-273q-238 -57 -436 -57
q-119 0 -205 23.5t-154 76.5zM825 786h-331v365h331v-365z" />
    <glyph glyph-name="Agrave" unicode="&#xc0;" horiz-adv-x="1529" 
d="M2 0l561 1544h402l563 -1544h-334l-102 281h-662l-100 -281h-328zM524 569h469l-235 666zM651 1630l-297 316h332l285 -316h-320z" />
    <glyph glyph-name="Aacute" unicode="&#xc1;" horiz-adv-x="1529" 
d="M2 0l561 1544h402l563 -1544h-334l-102 281h-662l-100 -281h-328zM524 569h469l-235 666zM893 1630h-320l289 316h332z" />
    <glyph glyph-name="Acircumflex" unicode="&#xc2;" horiz-adv-x="1529" 
d="M2 0l561 1544h402l563 -1544h-334l-102 281h-662l-100 -281h-328zM594 1630h-305l301 316h344l301 -316h-309l-166 166zM524 569h469l-235 666z" />
    <glyph glyph-name="Atilde" unicode="&#xc3;" horiz-adv-x="1529" 
d="M330 0h-328l561 1544h402l563 -1544h-334l-102 281h-662zM307 1645q59 177 124.5 246t180.5 69q50 0 98.5 -18.5t125.5 -59.5q61 -33 84 -42t49 -9q25 0 44.5 19t43.5 71h215q-28 -69 -53 -115.5t-60.5 -91t-81.5 -66.5t-104 -22q-102 0 -217 70q-95 57 -140 57
q-33 0 -50 -20t-44 -88h-215zM524 569h469l-235 666z" />
    <glyph glyph-name="Adieresis" unicode="&#xc4;" horiz-adv-x="1529" 
d="M2 0l561 1544h402l563 -1544h-334l-102 281h-662l-100 -281h-328zM524 569h469l-235 666zM922 1630v316h284v-316h-284zM608 1630h-284v316h284v-316z" />
    <glyph glyph-name="Aring" unicode="&#xc5;" horiz-adv-x="1529" 
d="M2 0l528 1456q-63 63 -63 184q0 131 81.5 200t215.5 69t215.5 -69t81.5 -200q0 -120 -64 -184l531 -1456h-334l-102 281h-662l-100 -281h-328zM524 569h469l-235 666zM764 1747q-119 0 -119 -107q0 -104 119 -104t119 104q0 107 -119 107z" />
    <glyph glyph-name="AE" unicode="&#xc6;" horiz-adv-x="2406" 
d="M365 0h-385l1042 1544h1280v-289h-786v-325h741v-289h-741v-352h821v-289h-1129v281h-655zM748 569h460v688z" />
    <glyph glyph-name="Ccedilla" unicode="&#xc7;" horiz-adv-x="1345" 
d="M117 750q0 189 25 325t87 236q35 56 77 99.5t105 84t154 62.5t203 22q77 0 172.5 -13.5t158 -27t169.5 -39.5v-295q-202 46 -256 56q-119 22 -207 22q-52 0 -96.5 -6.5t-79 -20.5t-62 -31t-48 -43t-35.5 -52t-25 -62t-16.5 -68t-9.5 -76t-4 -80.5t-1 -86.5
q0 -76 2.5 -126.5t11.5 -107.5t25 -92.5t44.5 -70.5t69.5 -54.5t99.5 -31t134.5 -11.5q138 0 453 68v-297q-326 -68 -506 -68q-151 0 -264.5 39.5t-185 107t-116 169t-62 214.5t-17.5 255zM739 -420h-297l191 297h295z" />
    <glyph glyph-name="Egrave" unicode="&#xc8;" horiz-adv-x="1345" 
d="M1276 0h-1129v1544h1094v-289h-786v-325h741v-289h-741v-352h821v-289zM281 1946h331l285 -316h-319z" />
    <glyph glyph-name="Eacute" unicode="&#xc9;" horiz-adv-x="1345" 
d="M147 0v1544h1094v-289h-786v-325h741v-289h-741v-352h821v-289h-1129zM444 1630l289 316h332l-301 -316h-320z" />
    <glyph glyph-name="Ecircumflex" unicode="&#xca;" horiz-adv-x="1345" 
d="M147 1544h1094v-289h-786v-325h741v-289h-741v-352h821v-289h-1129v1544zM510 1630h-305l301 316h344l301 -316h-309l-166 166z" />
    <glyph glyph-name="Edieresis" unicode="&#xcb;" horiz-adv-x="1345" 
d="M147 0v1544h1094v-289h-786v-325h741v-289h-741v-352h821v-289h-1129zM1112 1630h-285v316h285v-316zM272 1630v316h285v-316h-285z" />
    <glyph glyph-name="Igrave" unicode="&#xcc;" horiz-adv-x="602" 
d="M455 0h-308v1544h308v-1544zM477 1630h-319l-297 316h332z" />
    <glyph glyph-name="Iacute" unicode="&#xcd;" horiz-adv-x="602" 
d="M455 0h-308v1544h308v-1544zM444 1630h-319l289 316h331z" />
    <glyph glyph-name="Icircumflex" unicode="&#xce;" horiz-adv-x="602" 
d="M147 0v1544h308v-1544h-308zM137 1630h-305l301 316h344l301 -316h-309l-166 166z" />
    <glyph glyph-name="Idieresis" unicode="&#xcf;" horiz-adv-x="602" 
d="M455 0h-308v1544h308v-1544zM397 1946h285v-316h-285v316zM205 1630h-285v316h285v-316z" />
    <glyph glyph-name="Eth" unicode="&#xd0;" horiz-adv-x="1546" 
d="M41 645v285h147v614h557q185 0 308.5 -38.5t208.5 -135.5q88 -99 128 -233.5t40 -358.5q0 -231 -53 -381.5t-163 -249.5q-90 -81 -204 -114t-281 -33h-541v645h-147zM496 930h381v-285h-381v-356h241q95 0 164.5 24.5t110.5 65t65.5 106t32.5 133.5t8 160q0 140 -17 231
t-71 154q-47 56 -112.5 74t-169.5 18h-252v-325z" />
    <glyph glyph-name="Ntilde" unicode="&#xd1;" horiz-adv-x="1546" 
d="M147 1544h332l617 -1032v1032h303v-1544h-332l-616 1032v-1032h-304v1544zM307 1645q59 177 124.5 246t180.5 69q50 0 98.5 -18.5t125.5 -59.5q61 -33 84 -42t49 -9q25 0 44.5 19t43.5 71h215q-28 -69 -53 -115.5t-60.5 -91t-81.5 -66.5t-104 -22q-102 0 -217 70
q-95 57 -140 57q-33 0 -50 -20t-44 -88h-215z" />
    <glyph glyph-name="Ograve" unicode="&#xd2;" horiz-adv-x="1597" 
d="M242 203q-125 186 -125 565q0 368 112 549q41 66 86.5 111.5t112 81t158.5 52.5t213 17q207 0 329.5 -55.5t210.5 -177.5q142 -194 142 -578q0 -377 -144 -573q-89 -121 -209 -175.5t-329 -54.5q-120 0 -209.5 15t-154 47.5t-108.5 73.5t-85 102zM428 768q0 -279 70 -391
q44 -70 117.5 -95.5t183.5 -25.5q96 0 164.5 27.5t107.5 70.5t61.5 113.5t29.5 138.5t7 162q0 66 -3 116.5t-12.5 107t-25.5 97.5t-44 80.5t-66.5 64t-93.5 39.5t-125 15q-109 0 -182 -26t-119 -99q-70 -115 -70 -395zM705 1630l-297 316h331l285 -316h-319z" />
    <glyph glyph-name="Oacute" unicode="&#xd3;" horiz-adv-x="1597" 
d="M117 768q0 368 112 549q41 66 86.5 111.5t112 81t158.5 52.5t213 17q207 0 329.5 -55.5t210.5 -177.5q142 -194 142 -578q0 -377 -144 -573q-89 -121 -209 -175.5t-329 -54.5q-120 0 -209.5 15t-154 47.5t-108.5 73.5t-85 102q-125 186 -125 565zM498 1163
q-70 -115 -70 -395q0 -279 70 -391q44 -70 117.5 -95.5t183.5 -25.5q96 0 164.5 27.5t107.5 70.5t61.5 113.5t29.5 138.5t7 162q0 66 -3 116.5t-12.5 107t-25.5 97.5t-44 80.5t-66.5 64t-93.5 39.5t-125 15q-109 0 -182 -26t-119 -99zM881 1630h-320l289 316h332z" />
    <glyph glyph-name="Ocircumflex" unicode="&#xd4;" horiz-adv-x="1597" 
d="M242 203q-125 186 -125 565q0 368 112 549q41 66 86.5 111.5t112 81t158.5 52.5t213 17q207 0 329.5 -55.5t210.5 -177.5q142 -194 142 -578q0 -377 -144 -573q-89 -121 -209 -175.5t-329 -54.5q-120 0 -209.5 15t-154 47.5t-108.5 73.5t-85 102zM428 768q0 -279 70 -391
q44 -70 117.5 -95.5t183.5 -25.5q96 0 164.5 27.5t107.5 70.5t61.5 113.5t29.5 138.5t7 162q0 66 -3 116.5t-12.5 107t-25.5 97.5t-44 80.5t-66.5 64t-93.5 39.5t-125 15q-109 0 -182 -26t-119 -99q-70 -115 -70 -395zM631 1630h-305l301 316h344l301 -316h-309l-166 166z
" />
    <glyph glyph-name="Otilde" unicode="&#xd5;" horiz-adv-x="1597" 
d="M242 203q-125 186 -125 565q0 368 112 549q41 66 86.5 111.5t112 81t158.5 52.5t213 17q207 0 329.5 -55.5t210.5 -177.5q142 -194 142 -578q0 -377 -144 -573q-89 -121 -209 -175.5t-329 -54.5q-120 0 -209.5 15t-154 47.5t-108.5 73.5t-85 102zM428 768q0 -279 70 -391
q44 -70 117.5 -95.5t183.5 -25.5q96 0 164.5 27.5t107.5 70.5t61.5 113.5t29.5 138.5t7 162q0 66 -3 116.5t-12.5 107t-25.5 97.5t-44 80.5t-66.5 64t-93.5 39.5t-125 15q-109 0 -182 -26t-119 -99q-70 -115 -70 -395zM541 1645h-215q59 177 124.5 246t180.5 69
q49 0 97.5 -18.5t125.5 -59.5q61 -33 84 -42t49 -9q25 0 44.5 19t43.5 71h215q-28 -69 -53 -115.5t-60.5 -91t-81.5 -66.5t-104 -22q-102 0 -217 70q-95 57 -139 57q-33 0 -50 -20t-44 -88z" />
    <glyph glyph-name="Odieresis" unicode="&#xd6;" horiz-adv-x="1597" 
d="M117 768q0 368 112 549q41 66 86.5 111.5t112 81t158.5 52.5t213 17q207 0 329.5 -55.5t210.5 -177.5q142 -194 142 -578q0 -377 -144 -573q-89 -121 -209 -175.5t-329 -54.5q-120 0 -209.5 15t-154 47.5t-108.5 73.5t-85 102q-125 186 -125 565zM498 1163
q-70 -115 -70 -395q0 -279 70 -391q44 -70 117.5 -95.5t183.5 -25.5q96 0 164.5 27.5t107.5 70.5t61.5 113.5t29.5 138.5t7 162q0 66 -3 116.5t-12.5 107t-25.5 97.5t-44 80.5t-66.5 64t-93.5 39.5t-125 15q-109 0 -182 -26t-119 -99zM1249 1630h-284v316h284v-316z
M633 1630h-285v316h285v-316z" />
    <glyph glyph-name="multiply" unicode="&#xd7;" horiz-adv-x="1433" 
d="M100 1290h346l271 -325l270 325h346l-434 -518l434 -520h-346l-270 328l-271 -328h-346l435 520z" />
    <glyph glyph-name="Oslash" unicode="&#xd8;" horiz-adv-x="1597" 
d="M242 203q-125 186 -125 565q0 368 112 549q41 66 86.5 111.5t112 81t158.5 52.5t213 17q207 0 329.5 -55.5t210.5 -177.5q142 -194 142 -578q0 -377 -144 -573q-89 -121 -209 -175.5t-329 -54.5q-120 0 -209.5 15t-154 47.5t-108.5 73.5t-85 102zM1133 1096l-529 -817
q67 -29 195 -29q71 0 127.5 14t95.5 37.5t68 61.5t45.5 78.5t26.5 97t13 108.5t3 121q0 215 -45 328zM420 768q0 -204 35 -313l524 809q-67 30 -180 30q-110 0 -187.5 -26t-122.5 -99q-69 -113 -69 -401z" />
    <glyph glyph-name="Ugrave" unicode="&#xd9;" horiz-adv-x="1513" 
d="M143 1544h308v-948q0 -69 4 -114.5t16 -86.5t33 -65t55.5 -42t82.5 -25t116 -7q67 0 115 7t82.5 25t55 42t32.5 65t16 86.5t4 114.5v948h307v-942q0 -182 -29.5 -294.5t-107.5 -192.5q-82 -83 -195 -116.5t-280 -33.5q-175 0 -292.5 35t-189.5 114t-102.5 196.5
t-30.5 291.5v942zM680 1630l-297 316h332l284 -316h-319z" />
    <glyph glyph-name="Uacute" unicode="&#xda;" horiz-adv-x="1513" 
d="M143 602v942h308v-948q0 -69 4 -114.5t16 -86.5t33 -65t55.5 -42t82.5 -25t116 -7q67 0 115 7t82.5 25t55 42t32.5 65t16 86.5t4 114.5v948h307v-942q0 -182 -29.5 -294.5t-107.5 -192.5q-82 -83 -195 -116.5t-280 -33.5q-175 0 -292.5 35t-189.5 114t-102.5 196.5
t-30.5 291.5zM844 1630h-320l289 316h332z" />
    <glyph glyph-name="Ucircumflex" unicode="&#xdb;" horiz-adv-x="1513" 
d="M143 1544h308v-948q0 -69 4 -114.5t16 -86.5t33 -65t55.5 -42t82.5 -25t116 -7q67 0 115 7t82.5 25t55 42t32.5 65t16 86.5t4 114.5v948h307v-942q0 -182 -29.5 -294.5t-107.5 -192.5q-82 -83 -195 -116.5t-280 -33.5q-175 0 -292.5 35t-189.5 114t-102.5 196.5
t-30.5 291.5v942zM586 1630h-305l301 316h344l301 -316h-309l-166 166z" />
    <glyph glyph-name="Udieresis" unicode="&#xdc;" horiz-adv-x="1513" 
d="M143 602v942h308v-948q0 -69 4 -114.5t16 -86.5t33 -65t55.5 -42t82.5 -25t116 -7q67 0 115 7t82.5 25t55 42t32.5 65t16 86.5t4 114.5v948h307v-942q0 -182 -29.5 -294.5t-107.5 -192.5q-82 -83 -195 -116.5t-280 -33.5q-175 0 -292.5 35t-189.5 114t-102.5 196.5
t-30.5 291.5zM1198 1630h-285v316h285v-316zM602 1630h-285v316h285v-316z" />
    <glyph glyph-name="Yacute" unicode="&#xdd;" horiz-adv-x="1361" 
d="M-31 1544h355l366 -639l367 639h336l-557 -956v-588h-308v588zM762 1630h-320l289 316h332z" />
    <glyph glyph-name="Thorn" unicode="&#xde;" horiz-adv-x="1376" 
d="M147 1544h308v-260h356q239 0 367.5 -125.5t128.5 -365.5q0 -247 -142 -375q-68 -62 -160.5 -89t-218.5 -32q-90 -4 -331 -4v-293h-308v1544zM455 995v-413q211 0 307 4q61 2 101 11.5t71.5 32t46 62.5t14.5 101q0 64 -15.5 105t-49.5 61.5t-75.5 28t-106.5 7.5h-293z
" />
    <glyph glyph-name="germandbls" unicode="&#xdf;" horiz-adv-x="1351" 
d="M432 0h-299v1047q0 128 19 202q21 80 72 142t120 99t146 56t159 19q94 0 176 -20t151 -62t109.5 -116t40.5 -173q0 -74 -17 -122.5t-54 -102.5q-38 -55 -105 -133l135 -121q100 -88 149.5 -168.5t49.5 -192.5q0 -95 -36 -168t-98.5 -116.5t-141 -65.5t-170.5 -22
q-115 0 -240 16v268q117 -20 199 -20q35 0 62.5 4t56.5 14.5t45 34t16 59.5q0 43 -25 78q-18 26 -108 105l-283 254q161 168 219 245q25 34 36 60t11 63q0 133 -178 133q-64 0 -107.5 -18.5t-67 -55t-33 -81.5t-9.5 -107v-1034z" />
    <glyph glyph-name="agrave" unicode="&#xe0;" 
d="M455 -35q-87 0 -153 35t-105 89t-63.5 130t-33 147t-8.5 150q0 80 6.5 146t22 129t41 111.5t64.5 89.5t90.5 68t121 41.5t154.5 14.5q117 0 233.5 -29.5t288.5 -89.5v-997h-295v139q-96 -81 -182 -127.5t-182 -46.5zM395 516q0 -126 27 -203q13 -36 37 -50.5t65 -14.5
q87 0 291 176v383q-121 43 -201 43q-35 0 -63.5 -6t-49.5 -16t-37.5 -27t-27.5 -34t-19 -42t-12 -46.5t-6.5 -52.5t-3 -53.5t-0.5 -56.5zM248 1544h332l284 -315h-319z" />
    <glyph glyph-name="aacute" unicode="&#xe1;" 
d="M92 516q0 80 6.5 146t22 129t41 111.5t64.5 89.5t90.5 68t121 41.5t154.5 14.5q117 0 233.5 -29.5t288.5 -89.5v-997h-295v139q-96 -81 -182 -127.5t-182 -46.5q-87 0 -153 35t-105 89t-63.5 130t-33 147t-8.5 150zM614 850q-35 0 -63.5 -6t-49.5 -16t-37.5 -27
t-27.5 -34t-19 -42t-12 -46.5t-6.5 -52.5t-3 -53.5t-0.5 -56.5q0 -126 27 -203q13 -36 37 -50.5t65 -14.5q87 0 291 176v383q-121 43 -201 43zM727 1229h-319l288 315h332z" />
    <glyph glyph-name="acircumflex" unicode="&#xe2;" 
d="M455 -35q-87 0 -153 35t-105 89t-63.5 130t-33 147t-8.5 150q0 80 6.5 146t22 129t41 111.5t64.5 89.5t90.5 68t121 41.5t154.5 14.5q117 0 233.5 -29.5t288.5 -89.5v-997h-295v139q-96 -81 -182 -127.5t-182 -46.5zM395 516q0 -126 27 -203q13 -36 37 -50.5t65 -14.5
q87 0 291 176v383q-121 43 -201 43q-35 0 -63.5 -6t-49.5 -16t-37.5 -27t-27.5 -34t-19 -42t-12 -46.5t-6.5 -52.5t-3 -53.5t-0.5 -56.5zM461 1229h-305l301 315h344l301 -315h-309l-166 166z" />
    <glyph glyph-name="atilde" unicode="&#xe3;" 
d="M455 -35q-87 0 -153 35t-105 89t-63.5 130t-33 147t-8.5 150q0 80 6.5 146t22 129t41 111.5t64.5 89.5t90.5 68t121 41.5t154.5 14.5q117 0 233.5 -29.5t288.5 -89.5v-997h-295v139q-96 -81 -182 -127.5t-182 -46.5zM614 850q-35 0 -63.5 -6t-49.5 -16t-37.5 -27
t-27.5 -34t-19 -42t-12 -46.5t-6.5 -52.5t-3 -53.5t-0.5 -56.5q0 -126 27 -203q13 -36 37 -50.5t65 -14.5q87 0 291 176v383q-121 43 -201 43zM387 1245h-215q59 178 124.5 247t180.5 69q49 0 97.5 -18.5t125.5 -59.5q60 -32 83.5 -41.5t50.5 -9.5q25 0 44.5 19t43.5 71h215
q-28 -69 -53 -115.5t-60.5 -91t-81.5 -66.5t-104 -22q-104 0 -217 69q-56 33 -85 45.5t-55 12.5q-33 0 -50 -20.5t-44 -88.5z" />
    <glyph glyph-name="adieresis" unicode="&#xe4;" 
d="M92 516q0 80 6.5 146t22 129t41 111.5t64.5 89.5t90.5 68t121 41.5t154.5 14.5q117 0 233.5 -29.5t288.5 -89.5v-997h-295v139q-96 -81 -182 -127.5t-182 -46.5q-87 0 -153 35t-105 89t-63.5 130t-33 147t-8.5 150zM395 516q0 -126 27 -203q13 -36 37 -50.5t65 -14.5
q87 0 291 176v383q-121 43 -201 43q-35 0 -63.5 -6t-49.5 -16t-37.5 -27t-27.5 -34t-19 -42t-12 -46.5t-6.5 -52.5t-3 -53.5t-0.5 -56.5zM246 1544h284v-315h-284v315zM721 1229v315h285v-315h-285z" />
    <glyph glyph-name="aring" unicode="&#xe5;" 
d="M92 516q0 80 6.5 146t22 129t41 111.5t64.5 89.5t90.5 68t121 41.5t154.5 14.5q117 0 233.5 -29.5t288.5 -89.5v-997h-295v139q-96 -81 -182 -127.5t-182 -46.5q-87 0 -153 35t-105 89t-63.5 130t-33 147t-8.5 150zM625 1174q-135 0 -216 66.5t-81 199.5
q0 131 81.5 199.5t215.5 68.5t215.5 -68.5t81.5 -199.5q0 -133 -81 -199.5t-216 -66.5zM614 850q-35 0 -63.5 -6t-49.5 -16t-37.5 -27t-27.5 -34t-19 -42t-12 -46.5t-6.5 -52.5t-3 -53.5t-0.5 -56.5q0 -126 27 -203q13 -36 37 -50.5t65 -14.5q87 0 291 176v383
q-121 43 -201 43zM625 1546q-119 0 -119 -106q0 -53 32 -79t87 -26q118 0 118 105q0 106 -118 106z" />
    <glyph glyph-name="ae" unicode="&#xe6;" horiz-adv-x="1880" 
d="M80 293q0 101 26.5 169t81 104t123 50.5t166.5 14.5h314v71q0 41 -11 69.5t-28.5 44.5t-47 24.5t-57 11t-69.5 2.5q-87 0 -217.5 -19.5t-217.5 -39.5v254q101 25 233 46t230 21q265 0 355 -108q97 108 335 108q256 0 376 -113t120 -364q0 -119 -20 -221h-695
q0 -60 22 -100.5t64 -60t86.5 -27t104.5 -7.5q140 0 385 37v-254q-256 -41 -416 -41q-173 0 -275 42t-157 120q-116 -82 -215 -122t-221 -40q-375 0 -375 328zM1077 631h426q4 24 4 55q0 188 -211 188q-117 0 -168 -62.5t-51 -180.5zM541 418q-33 0 -52.5 -1.5t-44 -7.5
t-37.5 -17t-22.5 -32.5t-9.5 -52.5q0 -64 34 -84t105 -20q50 0 102.5 19.5t87 41t87.5 60.5v94h-250z" />
    <glyph glyph-name="ccedilla" unicode="&#xe7;" horiz-adv-x="1015" 
d="M96 539q0 577 494 577q130 0 368 -63v-283q-225 64 -329 64q-60 0 -102 -14.5t-66.5 -38t-38.5 -63.5t-18.5 -80.5t-4.5 -98.5q0 -75 7.5 -122.5t30.5 -89.5t70 -61.5t122 -19.5q121 0 329 51v-283q-250 -49 -366 -49q-163 0 -254 44.5t-152 137.5q-90 136 -90 392z
M545 -420h-297l190 297h295z" />
    <glyph glyph-name="egrave" unicode="&#xe8;" horiz-adv-x="1187" 
d="M631 -35q-292 0 -415.5 137t-123.5 428q0 142 24 245t81 182.5t158.5 119t248.5 39.5q256 0 376 -113t120 -364q0 -114 -21 -221h-694q0 -195 277 -195q133 0 385 37v-254q-261 -41 -416 -41zM506 1229l-297 315h332l284 -315h-319zM604 874q-117 0 -168 -62.5
t-51 -180.5h426q4 24 4 55q0 188 -211 188z" />
    <glyph glyph-name="eacute" unicode="&#xe9;" horiz-adv-x="1187" 
d="M631 -35q-292 0 -415.5 137t-123.5 428q0 142 24 245t81 182.5t158.5 119t248.5 39.5q256 0 376 -113t120 -364q0 -114 -21 -221h-694q0 -195 277 -195q133 0 385 37v-254q-261 -41 -416 -41zM377 1229l289 315h331l-301 -315h-319zM385 631h426q4 24 4 55
q0 188 -211 188q-117 0 -168 -62.5t-51 -180.5z" />
    <glyph glyph-name="ecircumflex" unicode="&#xea;" horiz-adv-x="1187" 
d="M631 -35q-292 0 -415.5 137t-123.5 428q0 142 24 245t81 182.5t158.5 119t248.5 39.5q256 0 376 -113t120 -364q0 -114 -21 -221h-694q0 -195 277 -195q133 0 385 37v-254q-261 -41 -416 -41zM127 1229l301 315h344l301 -315h-309l-166 166l-166 -166h-305zM604 874
q-117 0 -168 -62.5t-51 -180.5h426q4 24 4 55q0 188 -211 188z" />
    <glyph glyph-name="edieresis" unicode="&#xeb;" horiz-adv-x="1187" 
d="M631 -35q-292 0 -415.5 137t-123.5 428q0 142 24 245t81 182.5t158.5 119t248.5 39.5q256 0 376 -113t120 -364q0 -114 -21 -221h-694q0 -195 277 -195q133 0 385 37v-254q-261 -41 -416 -41zM385 631h426q4 24 4 55q0 188 -211 188q-117 0 -168 -62.5t-51 -180.5z
M702 1544h285v-315h-285v315zM502 1229h-285v315h285v-315z" />
    <glyph glyph-name="igrave" unicode="&#xec;" horiz-adv-x="565" 
d="M455 1229h-320l-297 315h332zM432 0h-299v1081h299v-1081z" />
    <glyph glyph-name="iacute" unicode="&#xed;" horiz-adv-x="565" 
d="M430 1229h-319l288 315h332zM432 0h-299v1081h299v-1081z" />
    <glyph glyph-name="icircumflex" unicode="&#xee;" horiz-adv-x="565" 
d="M133 0v1081h299v-1081h-299zM117 1229h-305l301 315h344l301 -315h-309l-166 166z" />
    <glyph glyph-name="idieresis" unicode="&#xef;" horiz-adv-x="565" 
d="M133 1081h299v-1081h-299v1081zM358 1544h285v-315h-285v315zM-78 1544h285v-315h-285v315z" />
    <glyph glyph-name="eth" unicode="&#xf0;" horiz-adv-x="1275" 
d="M627 -35q-272 0 -403.5 136t-131.5 405q0 239 112.5 371.5t348.5 132.5q114 0 246 -35q-27 117 -103 201l-354 -138v201l186 72q-77 33 -186 41v235q150 -12 265.5 -49t215.5 -108l297 114v-203l-149 -57q192 -249 192 -762q0 -265 -135 -411t-401 -146zM606 748
q-121 0 -166 -58.5t-45 -183.5q0 -134 50 -200t182 -66q129 0 181 70.5t52 205.5q0 102 -16 184q-37 14 -112 31t-126 17z" />
    <glyph glyph-name="ntilde" unicode="&#xf1;" horiz-adv-x="1236" 
d="M133 1081h299v-59q237 94 340 94q86 0 148 -26t97.5 -66.5t56 -104.5t26.5 -126t6 -146v-647h-299v633q0 51 -0.5 69.5t-7 48.5t-21.5 48q-11 13 -30 20t-31.5 7.5t-38.5 0.5q-81 0 -246 -69v-758h-299v1081zM152 1245q59 178 124.5 247t180.5 69q49 0 97.5 -18.5
t125.5 -59.5q61 -33 84 -42t49 -9q25 0 44.5 19t43.5 71h215q-28 -69 -53 -115.5t-60.5 -91t-81.5 -66.5t-104 -22q-104 0 -217 69q-56 33 -85 45.5t-54 12.5q-33 0 -50 -20.5t-44 -88.5h-215z" />
    <glyph glyph-name="ograve" unicode="&#xf2;" horiz-adv-x="1249" 
d="M625 -35q-277 0 -405 147.5t-128 426.5q0 280 127 428.5t406 148.5q532 0 532 -577q0 -271 -130.5 -422.5t-401.5 -151.5zM625 842q-57 0 -99 -16t-67 -42t-39.5 -66.5t-19.5 -82t-5 -96.5q0 -68 9 -117.5t33 -93t71 -66t117 -22.5t117 24t70.5 69t32.5 95t9 117
q0 68 -9.5 118t-33.5 92.5t-70.5 64.5t-115.5 22zM520 1229l-297 315h332l285 -315h-320z" />
    <glyph glyph-name="oacute" unicode="&#xf3;" horiz-adv-x="1249" 
d="M625 -35q-277 0 -405 147.5t-128 426.5q0 280 127 428.5t406 148.5q532 0 532 -577q0 -271 -130.5 -422.5t-401.5 -151.5zM625 842q-57 0 -99 -16t-67 -42t-39.5 -66.5t-19.5 -82t-5 -96.5q0 -68 9 -117.5t33 -93t71 -66t117 -22.5t117 24t70.5 69t32.5 95t9 117
q0 68 -9.5 118t-33.5 92.5t-70.5 64.5t-115.5 22zM711 1229h-320l289 315h332z" />
    <glyph glyph-name="ocircumflex" unicode="&#xf4;" horiz-adv-x="1249" 
d="M625 -35q-277 0 -405 147.5t-128 426.5q0 280 127 428.5t406 148.5q532 0 532 -577q0 -271 -130.5 -422.5t-401.5 -151.5zM395 539q0 -68 9 -117.5t33 -93t71 -66t117 -22.5t117 24t70.5 69t32.5 95t9 117q0 68 -9.5 118t-33.5 92.5t-70.5 64.5t-115.5 22q-57 0 -99 -16
t-67 -42t-39.5 -66.5t-19.5 -82t-5 -96.5zM152 1229l301 315h344l301 -315h-310l-165 166l-166 -166h-305z" />
    <glyph glyph-name="otilde" unicode="&#xf5;" horiz-adv-x="1249" 
d="M625 -35q-277 0 -405 147.5t-128 426.5q0 280 127 428.5t406 148.5q532 0 532 -577q0 -271 -130.5 -422.5t-401.5 -151.5zM625 842q-57 0 -99 -16t-67 -42t-39.5 -66.5t-19.5 -82t-5 -96.5q0 -68 9 -117.5t33 -93t71 -66t117 -22.5t117 24t70.5 69t32.5 95t9 117
q0 68 -9.5 118t-33.5 92.5t-70.5 64.5t-115.5 22zM369 1245h-215q59 178 124.5 247t180.5 69q49 0 97.5 -18.5t125.5 -59.5q61 -33 84 -42t49 -9q25 0 44.5 19t43.5 71h215q-28 -69 -53 -115.5t-60.5 -91t-81.5 -66.5t-104 -22q-104 0 -217 69q-56 33 -85 45.5t-54 12.5
q-33 0 -50 -20.5t-44 -88.5z" />
    <glyph glyph-name="odieresis" unicode="&#xf6;" horiz-adv-x="1249" 
d="M92 539q0 280 127 428.5t406 148.5q532 0 532 -577q0 -271 -130.5 -422.5t-401.5 -151.5q-277 0 -405 147.5t-128 426.5zM625 842q-57 0 -99 -16t-67 -42t-39.5 -66.5t-19.5 -82t-5 -96.5q0 -68 9 -117.5t33 -93t71 -66t117 -22.5t117 24t70.5 69t32.5 95t9 117
q0 68 -9.5 118t-33.5 92.5t-70.5 64.5t-115.5 22zM1012 1229h-285v315h285v-315zM522 1229h-284v315h284v-315z" />
    <glyph glyph-name="divide" unicode="&#xf7;" horiz-adv-x="1433" 
d="M133 907h1167v-270h-1167v270zM565 1044v322h303v-322h-303zM565 178v322h303v-322h-303z" />
    <glyph glyph-name="oslash" unicode="&#xf8;" horiz-adv-x="1249" 
d="M92 539q0 280 127 428.5t406 148.5q532 0 532 -577q0 -271 -130.5 -422.5t-401.5 -151.5q-277 0 -405 147.5t-128 426.5zM385 539q0 -91 16 -160l340 452q-54 21 -116 21t-106 -16t-70 -41.5t-40.5 -67.5t-19 -85t-4.5 -103zM510 250q50 -21 115 -21q60 0 103.5 16.5
t69.5 43.5t41 69.5t20 85.5t5 101q0 97 -14 157z" />
    <glyph glyph-name="ugrave" unicode="&#xf9;" horiz-adv-x="1232" 
d="M131 1081h299v-620q0 -47 1 -71t7.5 -54.5t20.5 -46.5q34 -39 125 -39q106 0 217 26v805h299v-1030q-341 -86 -557 -86q-116 0 -197.5 33.5t-128 99t-66.5 150t-20 198.5v635zM539 1229l-297 315h331l285 -315h-319z" />
    <glyph glyph-name="uacute" unicode="&#xfa;" horiz-adv-x="1232" 
d="M131 1081h299v-620q0 -47 1 -71t7.5 -54.5t20.5 -46.5q34 -39 125 -39q106 0 217 26v805h299v-1030q-341 -86 -557 -86q-116 0 -197.5 33.5t-128 99t-66.5 150t-20 198.5v635zM709 1229h-320l289 315h332z" />
    <glyph glyph-name="ucircumflex" unicode="&#xfb;" horiz-adv-x="1232" 
d="M131 446v635h299v-620q0 -47 1 -71t7.5 -54.5t20.5 -46.5q34 -39 125 -39q106 0 217 26v805h299v-1030q-341 -86 -557 -86q-116 0 -197.5 33.5t-128 99t-66.5 150t-20 198.5zM139 1229l301 315h344l301 -315h-309l-166 166l-166 -166h-305z" />
    <glyph glyph-name="udieresis" unicode="&#xfc;" horiz-adv-x="1232" 
d="M131 446v635h299v-620q0 -47 1 -71t7.5 -54.5t20.5 -46.5q34 -39 125 -39q106 0 217 26v805h299v-1030q-341 -86 -557 -86q-116 0 -197.5 33.5t-128 99t-66.5 150t-20 198.5zM717 1229v315h284v-315h-284zM516 1229h-285v315h285v-315z" />
    <glyph glyph-name="yacute" unicode="&#xfd;" horiz-adv-x="1204" 
d="M444 -14l-444 1095h328l278 -710l279 710h319l-598 -1474h-315zM688 1229h-319l288 315h332z" />
    <glyph glyph-name="thorn" unicode="&#xfe;" horiz-adv-x="1251" 
d="M133 1544h299v-549q95 58 171 89.5t159 31.5q89 0 159.5 -35t114 -90.5t72.5 -131.5t40 -152t11 -158q0 -85 -12 -164t-41.5 -157t-75.5 -135t-119.5 -92.5t-167.5 -35.5q-120 0 -311 72v-430h-299v1937zM432 729v-418q155 -71 234 -71q48 0 84 19t56 47.5t31.5 71t15 80
t3.5 83.5q0 303 -170 303q-46 0 -120 -37t-134 -78z" />
    <glyph glyph-name="ydieresis" unicode="&#xff;" horiz-adv-x="1204" 
d="M0 1081h328l278 -710l279 710h319l-598 -1474h-315l153 379zM993 1229h-284v315h284v-315zM496 1229h-285v315h285v-315z" />
    <glyph glyph-name="Amacron" unicode="&#x100;" horiz-adv-x="1529" 
d="M2 0l561 1544h402l563 -1544h-334l-102 281h-662l-100 -281h-328zM350 1681v207h828v-207h-828zM524 569h469l-235 666z" />
    <glyph glyph-name="amacron" unicode="&#x101;" 
d="M455 -35q-87 0 -153 35t-105 89t-63.5 130t-33 147t-8.5 150q0 80 6.5 146t22 129t41 111.5t64.5 89.5t90.5 68t121 41.5t154.5 14.5q117 0 233.5 -29.5t288.5 -89.5v-997h-295v139q-96 -81 -182 -127.5t-182 -46.5zM395 516q0 -126 27 -203q13 -36 37 -50.5t65 -14.5
q87 0 291 176v383q-121 43 -201 43q-35 0 -63.5 -6t-49.5 -16t-37.5 -27t-27.5 -34t-19 -42t-12 -46.5t-6.5 -52.5t-3 -53.5t-0.5 -56.5zM1044 1280h-827v207h827v-207z" />
    <glyph glyph-name="Abreve" unicode="&#x102;" horiz-adv-x="1529" 
d="M2 0l561 1544h402l563 -1544h-334l-102 281h-662l-100 -281h-328zM365 1946h245q18 -65 54 -98t100 -33q69 0 103.5 31.5t50.5 99.5h245q-32 -169 -128 -246.5t-271 -77.5t-266.5 77t-132.5 247zM758 1235l-234 -666h469z" />
    <glyph glyph-name="abreve" unicode="&#x103;" 
d="M455 -35q-87 0 -153 35t-105 89t-63.5 130t-33 147t-8.5 150q0 80 6.5 146t22 129t41 111.5t64.5 89.5t90.5 68t121 41.5t154.5 14.5q117 0 233.5 -29.5t288.5 -89.5v-997h-295v139q-96 -81 -182 -127.5t-182 -46.5zM614 850q-35 0 -63.5 -6t-49.5 -16t-37.5 -27
t-27.5 -34t-19 -42t-12 -46.5t-6.5 -52.5t-3 -53.5t-0.5 -56.5q0 -126 27 -203q13 -36 37 -50.5t65 -14.5q87 0 291 176v383q-121 43 -201 43zM621 1221q-175 0 -267 77t-133 246h246q18 -65 54 -98t100 -33q69 0 103 31.5t50 99.5h246q-32 -168 -128 -245.5t-271 -77.5z
" />
    <glyph glyph-name="Aogonek" unicode="&#x104;" horiz-adv-x="1529" 
d="M330 0h-328l561 1544h402l563 -1544q-95 -76 -129 -106q-49 -46 -49 -84q0 -20 12.5 -27.5t38.5 -7.5q37 0 145 35v-199q-129 -39 -229 -39q-45 0 -79.5 3t-72.5 14.5t-62 31t-40 54t-16 81.5q0 73 36.5 130t104.5 114l-103 281h-655zM526 569h463l-231 670z" />
    <glyph glyph-name="aogonek" unicode="&#x105;" 
d="M455 -35q-87 0 -153 35t-105 89t-63.5 130t-33 147t-8.5 150q0 80 6.5 146t22 129t41 111.5t64.5 89.5t90.5 68t121 41.5t154.5 14.5q117 0 233.5 -29.5t288.5 -89.5v-997q-37 -24 -72 -50.5t-75.5 -69t-40.5 -70.5q0 -20 12.5 -27.5t38.5 -7.5q43 0 137 32v-198
q-123 -37 -221 -37q-45 0 -79.5 3t-72.5 14.5t-62 31t-40 54t-16 81.5q0 41 17 77.5t50.5 68.5t60 51.5t68.5 46.5v139q-96 -81 -182 -127.5t-182 -46.5zM614 850q-35 0 -63.5 -6t-49.5 -16t-37.5 -27t-27.5 -34t-19 -42t-12 -46.5t-6.5 -52.5t-3 -53.5t-0.5 -56.5
q0 -126 27 -203q13 -36 37 -50.5t65 -14.5q87 0 291 176v383q-121 43 -201 43z" />
    <glyph glyph-name="Cacute" unicode="&#x106;" horiz-adv-x="1345" 
d="M762 -35q-151 0 -264.5 39.5t-185 107t-116 169t-62 214.5t-17.5 255q0 189 25 325t87 236q35 56 77 99.5t105 84t154 62.5t203 22q77 0 172.5 -13.5t158 -27t169.5 -39.5v-295q-202 46 -256 56q-119 22 -207 22q-52 0 -96.5 -6.5t-79 -20.5t-62 -31t-48 -43t-35.5 -52
t-25 -62t-16.5 -68t-9.5 -76t-4 -80.5t-1 -86.5q0 -76 2.5 -126.5t11.5 -107.5t25 -92.5t44.5 -70.5t69.5 -54.5t99.5 -31t134.5 -11.5q138 0 453 68v-297q-326 -68 -506 -68zM823 1630h-319l289 316h331z" />
    <glyph glyph-name="cacute" unicode="&#x107;" horiz-adv-x="1015" 
d="M96 539q0 577 494 577q130 0 368 -63v-283q-225 64 -329 64q-60 0 -102 -14.5t-66.5 -38t-38.5 -63.5t-18.5 -80.5t-4.5 -98.5q0 -75 7.5 -122.5t30.5 -89.5t70 -61.5t122 -19.5q121 0 329 51v-283q-250 -49 -366 -49q-163 0 -254 44.5t-152 137.5q-90 136 -90 392z
M635 1229h-320l289 315h332z" />
    <glyph glyph-name="Ccircumflex" unicode="&#x108;" horiz-adv-x="1345" 
d="M117 750q0 189 25 325t87 236q35 56 77 99.5t105 84t154 62.5t203 22q77 0 172.5 -13.5t158 -27t169.5 -39.5v-295q-202 46 -256 56q-119 22 -207 22q-52 0 -96.5 -6.5t-79 -20.5t-62 -31t-48 -43t-35.5 -52t-25 -62t-16.5 -68t-9.5 -76t-4 -80.5t-1 -86.5
q0 -76 2.5 -126.5t11.5 -107.5t25 -92.5t44.5 -70.5t69.5 -54.5t99.5 -31t134.5 -11.5q138 0 453 68v-297q-326 -68 -506 -68q-151 0 -264.5 39.5t-185 107t-116 169t-62 214.5t-17.5 255zM270 1630l301 316h344l302 -316h-310l-166 166l-166 -166h-305z" />
    <glyph glyph-name="ccircumflex" unicode="&#x109;" horiz-adv-x="1015" 
d="M186 147q-90 136 -90 392q0 577 494 577q130 0 368 -63v-283q-225 64 -329 64q-60 0 -102 -14.5t-66.5 -38t-38.5 -63.5t-18.5 -80.5t-4.5 -98.5q0 -75 7.5 -122.5t30.5 -89.5t70 -61.5t122 -19.5q121 0 329 51v-283q-250 -49 -366 -49q-163 0 -254 44.5t-152 137.5z
M84 1229l301 315h344l301 -315h-309l-166 166l-166 -166h-305z" />
    <glyph glyph-name="Cdotaccent" unicode="&#x10a;" horiz-adv-x="1345" 
d="M762 -35q-151 0 -264.5 39.5t-185 107t-116 169t-62 214.5t-17.5 255q0 189 25 325t87 236q35 56 77 99.5t105 84t154 62.5t203 22q77 0 172.5 -13.5t158 -27t169.5 -39.5v-295q-202 46 -256 56q-119 22 -207 22q-52 0 -96.5 -6.5t-79 -20.5t-62 -31t-48 -43t-35.5 -52
t-25 -62t-16.5 -68t-9.5 -76t-4 -80.5t-1 -86.5q0 -76 2.5 -126.5t11.5 -107.5t25 -92.5t44.5 -70.5t69.5 -54.5t99.5 -31t134.5 -11.5q138 0 453 68v-297q-326 -68 -506 -68zM586 1946h303v-316h-303v316z" />
    <glyph glyph-name="cdotaccent" unicode="&#x10b;" horiz-adv-x="1015" 
d="M96 539q0 577 494 577q130 0 368 -63v-283q-225 64 -329 64q-60 0 -102 -14.5t-66.5 -38t-38.5 -63.5t-18.5 -80.5t-4.5 -98.5q0 -75 7.5 -122.5t30.5 -89.5t70 -61.5t122 -19.5q121 0 329 51v-283q-250 -49 -366 -49q-163 0 -254 44.5t-152 137.5q-90 136 -90 392z
M713 1229h-303v315h303v-315z" />
    <glyph glyph-name="Ccaron" unicode="&#x10c;" horiz-adv-x="1345" 
d="M117 750q0 189 25 325t87 236q35 56 77 99.5t105 84t154 62.5t203 22q77 0 172.5 -13.5t158 -27t169.5 -39.5v-295q-202 46 -256 56q-119 22 -207 22q-52 0 -96.5 -6.5t-79 -20.5t-62 -31t-48 -43t-35.5 -52t-25 -62t-16.5 -68t-9.5 -76t-4 -80.5t-1 -86.5
q0 -76 2.5 -126.5t11.5 -107.5t25 -92.5t44.5 -70.5t69.5 -54.5t99.5 -31t134.5 -11.5q138 0 453 68v-297q-326 -68 -506 -68q-151 0 -264.5 39.5t-185 107t-116 169t-62 214.5t-17.5 255zM565 1630l-301 316h309l166 -166l166 166h305l-301 -316h-344z" />
    <glyph glyph-name="ccaron" unicode="&#x10d;" horiz-adv-x="1015" 
d="M96 539q0 577 494 577q130 0 368 -63v-283q-225 64 -329 64q-60 0 -102 -14.5t-66.5 -38t-38.5 -63.5t-18.5 -80.5t-4.5 -98.5q0 -75 7.5 -122.5t30.5 -89.5t70 -61.5t122 -19.5q121 0 329 51v-283q-250 -49 -366 -49q-163 0 -254 44.5t-152 137.5q-90 136 -90 392z
M377 1229l-301 315h309l166 -166l166 166h305l-301 -315h-344z" />
    <glyph glyph-name="Dcaron" unicode="&#x10e;" horiz-adv-x="1505" 
d="M147 0v1544h558q185 0 308 -38.5t208 -135.5q88 -99 128 -233.5t40 -358.5q0 -232 -52.5 -382t-162.5 -249q-90 -81 -204.5 -114t-281.5 -33h-541zM455 289h241q95 0 164.5 24.5t110.5 65t65.5 106t32.5 133.5t8 160q0 140 -17 231t-71 154q-47 56 -112.5 74t-169.5 18
h-252v-966zM201 1946h309l166 -166l166 166h305l-301 -316h-344z" />
    <glyph glyph-name="dcaron" unicode="&#x10f;" horiz-adv-x="1447" 
d="M176 133q-84 139 -84 402q0 78 7 144.5t24 135t49 121t77 94t112.5 64t152.5 22.5q107 0 305 -59v487h299v-1544h-295v123q-191 -158 -366 -158q-91 0 -163.5 46t-117.5 122zM590 844q-40 0 -70.5 -10t-51 -24t-35 -40t-22 -48.5t-11 -58.5t-4.5 -61t-1 -65
q0 -148 29 -222q15 -36 42 -50.5t77 -14.5q64 0 184 82q45 31 92 65v396q-156 51 -229 51zM1229 1544h246v-131q0 -155 -54 -293h-192v424z" />
    <glyph glyph-name="Dcroat" unicode="&#x110;" horiz-adv-x="1546" 
d="M41 645v285h147v614h557q185 0 308.5 -38.5t208.5 -135.5q88 -99 128 -233.5t40 -358.5q0 -231 -53 -381.5t-163 -249.5q-90 -81 -204 -114t-281 -33h-541v645h-147zM496 930h381v-285h-381v-356h241q95 0 164.5 24.5t110.5 65t65.5 106t32.5 133.5t8 160q0 140 -17 231
t-71 154q-47 56 -112.5 74t-169.5 18h-252v-325z" />
    <glyph glyph-name="dcroat" unicode="&#x111;" horiz-adv-x="1251" 
d="M176 133q-84 139 -84 402q0 97 10 174.5t37.5 154.5t73.5 128.5t122.5 83.5t178.5 32q109 0 305 -55v133h-387v219h387v139h299v-139h150v-219h-150v-1186h-295v123q-191 -158 -366 -158q-91 0 -163.5 46t-117.5 122zM590 844q-40 0 -70.5 -10t-51 -24t-35 -40t-22 -48.5
t-11 -58.5t-4.5 -61t-1 -65q0 -148 29 -222q15 -36 42 -50.5t77 -14.5q64 0 184 82q45 31 92 65v396q-156 51 -229 51z" />
    <glyph glyph-name="Emacron" unicode="&#x112;" horiz-adv-x="1345" 
d="M147 0v1544h1094v-289h-786v-325h741v-289h-741v-352h821v-289h-1129zM1102 1681h-828v207h828v-207z" />
    <glyph glyph-name="emacron" unicode="&#x113;" horiz-adv-x="1187" 
d="M631 -35q-292 0 -415.5 137t-123.5 428q0 142 24 245t81 182.5t158.5 119t248.5 39.5q256 0 376 -113t120 -364q0 -114 -21 -221h-694q0 -195 277 -195q133 0 385 37v-254q-261 -41 -416 -41zM1020 1280h-827v207h827v-207zM385 631h426q4 24 4 55q0 188 -211 188
q-117 0 -168 -62.5t-51 -180.5z" />
    <glyph glyph-name="Ebreve" unicode="&#x114;" horiz-adv-x="1345" 
d="M1276 0h-1129v1544h1094v-289h-786v-325h741v-289h-741v-352h821v-289zM281 1946h245q18 -65 54 -98t100 -33q69 0 103.5 31.5t50.5 99.5h245q-32 -169 -128 -246.5t-271 -77.5t-266.5 77t-132.5 247z" />
    <glyph glyph-name="ebreve" unicode="&#x115;" horiz-adv-x="1187" 
d="M631 -35q-292 0 -415.5 137t-123.5 428q0 142 24 245t81 182.5t158.5 119t248.5 39.5q256 0 376 -113t120 -364q0 -114 -21 -221h-694q0 -195 277 -195q133 0 385 37v-254q-261 -41 -416 -41zM604 1221q-175 0 -266.5 77t-132.5 246h246q18 -65 53.5 -98t99.5 -33
q69 0 103.5 31.5t50.5 99.5h246q-32 -168 -128.5 -245.5t-271.5 -77.5zM604 874q-117 0 -168 -62.5t-51 -180.5h426q4 24 4 55q0 188 -211 188z" />
    <glyph glyph-name="Edotaccent" unicode="&#x116;" horiz-adv-x="1345" 
d="M147 0v1544h1094v-289h-786v-325h741v-289h-741v-352h821v-289h-1129zM532 1946h304v-316h-304v316z" />
    <glyph glyph-name="edotaccent" unicode="&#x117;" horiz-adv-x="1187" 
d="M631 -35q-292 0 -415.5 137t-123.5 428q0 142 24 245t81 182.5t158.5 119t248.5 39.5q256 0 376 -113t120 -364q0 -114 -21 -221h-694q0 -195 277 -195q133 0 385 37v-254q-261 -41 -416 -41zM444 1544h304v-315h-304v315zM604 874q-117 0 -168 -62.5t-51 -180.5h426
q4 24 4 55q0 188 -211 188z" />
    <glyph glyph-name="Eogonek" unicode="&#x118;" horiz-adv-x="1345" 
d="M147 0v1544h1094v-289h-786v-325h741v-289h-741v-352h821v-289q-108 -75 -146 -109q-51 -48 -51 -81q0 -20 12.5 -27.5t38.5 -7.5q38 0 146 35v-199q-129 -39 -229 -39q-58 0 -100 6t-84 24t-64.5 56.5t-22.5 97.5q0 40 17 76.5t49.5 68.5t60 52.5t68.5 46.5h-824z" />
    <glyph glyph-name="eogonek" unicode="&#x119;" horiz-adv-x="1187" 
d="M631 -35q-149 0 -252.5 34.5t-167 106.5t-91.5 175.5t-28 248.5q0 113 14 199t49 161t92.5 123.5t147 75.5t209.5 27q256 0 376 -113t120 -364q0 -114 -21 -221h-694q0 -195 277 -195q140 0 385 37v-254q-191 -134 -191 -196q0 -20 12.5 -27.5t38.5 -7.5q39 0 146 35
v-199q-129 -39 -230 -39q-45 0 -79.5 3t-72.5 14.5t-62 31t-40 54t-16 81.5q0 63 39 111t108 100q-25 -2 -69 -2zM604 874q-117 0 -168 -62.5t-51 -180.5h426q4 24 4 55q0 188 -211 188z" />
    <glyph glyph-name="Ecaron" unicode="&#x11a;" horiz-adv-x="1345" 
d="M147 0v1544h1094v-289h-786v-325h741v-289h-741v-352h821v-289h-1129zM203 1946h309l166 -166l166 166h305l-301 -316h-344z" />
    <glyph glyph-name="ecaron" unicode="&#x11b;" horiz-adv-x="1187" 
d="M631 -35q-292 0 -415.5 137t-123.5 428q0 142 24 245t81 182.5t158.5 119t248.5 39.5q256 0 376 -113t120 -364q0 -114 -21 -221h-694q0 -195 277 -195q133 0 385 37v-254q-261 -41 -416 -41zM432 1229l-301 315h309l166 -166l166 166h305l-301 -315h-344zM604 874
q-117 0 -168 -62.5t-51 -180.5h426q4 24 4 55q0 188 -211 188z" />
    <glyph glyph-name="Gcircumflex" unicode="&#x11c;" horiz-adv-x="1480" 
d="M762 -35q-155 0 -269.5 38t-186 103.5t-114.5 167.5t-59 215t-16 261q0 201 27.5 333t91.5 234q37 58 80 102t105 82t149.5 58t197.5 20q77 0 176.5 -14.5t167 -29t172.5 -40.5v-293q-233 52 -305 64q-98 16 -174 16q-132 0 -205 -36t-115 -120q-31 -63 -44 -149.5
t-13 -220.5q0 -140 12 -228t47 -149q40 -71 117.5 -99t210.5 -28q96 0 219 12v565h303v-813q-333 -51 -575 -51zM279 1630l301 316h344l301 -316h-310l-165 166l-166 -166h-305z" />
    <glyph glyph-name="gcircumflex" unicode="&#x11d;" 
d="M94 539q0 142 23 243t78.5 179t155 116.5t245.5 38.5q79 0 179 -20.5t161.5 -40t177.5 -58.5v-864q0 -136 -26.5 -232.5t-90.5 -168.5q-67 -75 -190 -117.5t-291 -42.5q-157 0 -377 29v262q236 -31 377 -31q55 0 105 11.5t95 35.5t72 68t27 102v41q-184 -90 -332 -90
q-89 0 -158.5 32t-112 83t-70 123t-38 145t-10.5 156zM608 844q-49 0 -86 -10.5t-59.5 -33t-36 -46.5t-20 -64t-8 -70.5t-1.5 -80.5q0 -119 29 -191q17 -43 51 -60.5t90 -17.5q64 0 148 35q18 7 100 47v451q-125 41 -207 41zM449 1229h-306l301 315h344l302 -315h-310
l-166 166z" />
    <glyph glyph-name="Gbreve" unicode="&#x11e;" horiz-adv-x="1480" 
d="M762 -35q-155 0 -269.5 38t-186 103.5t-114.5 167.5t-59 215t-16 261q0 201 27.5 333t91.5 234q37 58 80 102t105 82t149.5 58t197.5 20q77 0 176.5 -14.5t167 -29t172.5 -40.5v-293q-233 52 -305 64q-98 16 -174 16q-132 0 -205 -36t-115 -120q-31 -63 -44 -149.5
t-13 -220.5q0 -140 12 -228t47 -149q40 -71 117.5 -99t210.5 -28q96 0 219 12v565h303v-813q-333 -51 -575 -51zM748 1622q-175 0 -267 77.5t-133 246.5h246q18 -65 54 -98t100 -33q69 0 103 31.5t50 99.5h246q-32 -169 -128 -246.5t-271 -77.5z" />
    <glyph glyph-name="gbreve" unicode="&#x11f;" 
d="M94 539q0 142 23 243t78.5 179t155 116.5t245.5 38.5q79 0 179 -20.5t161.5 -40t177.5 -58.5v-864q0 -136 -26.5 -232.5t-90.5 -168.5q-67 -75 -190 -117.5t-291 -42.5q-157 0 -377 29v262q236 -31 377 -31q55 0 105 11.5t95 35.5t72 68t27 102v41q-184 -90 -332 -90
q-89 0 -158.5 32t-112 83t-70 123t-38 145t-10.5 156zM608 844q-49 0 -86 -10.5t-59.5 -33t-36 -46.5t-20 -64t-8 -70.5t-1.5 -80.5q0 -119 29 -191q17 -43 51 -60.5t90 -17.5q64 0 148 35q18 7 100 47v451q-125 41 -207 41zM616 1221q-175 0 -266.5 77t-132.5 246h246
q18 -65 53.5 -98t99.5 -33q69 0 103.5 31.5t50.5 99.5h246q-32 -168 -128.5 -245.5t-271.5 -77.5z" />
    <glyph glyph-name="Gdotaccent" unicode="&#x120;" horiz-adv-x="1480" 
d="M117 750q0 201 27.5 333t91.5 234q37 58 80 102t105 82t149.5 58t197.5 20q77 0 176.5 -14.5t167 -29t172.5 -40.5v-293q-233 52 -305 64q-98 16 -174 16q-132 0 -205 -36t-115 -120q-31 -63 -44 -149.5t-13 -220.5q0 -140 12 -228t47 -149q40 -71 117.5 -99t210.5 -28
q96 0 219 12v565h303v-813q-333 -51 -575 -51q-155 0 -269.5 38t-186 103.5t-114.5 167.5t-59 215t-16 261zM899 1630h-303v316h303v-316z" />
    <glyph glyph-name="gdotaccent" unicode="&#x121;" 
d="M94 539q0 142 23 243t78.5 179t155 116.5t245.5 38.5q79 0 179 -20.5t161.5 -40t177.5 -58.5v-864q0 -136 -26.5 -232.5t-90.5 -168.5q-67 -75 -190 -117.5t-291 -42.5q-157 0 -377 29v262q236 -31 377 -31q55 0 105 11.5t95 35.5t72 68t27 102v41q-184 -90 -332 -90
q-89 0 -158.5 32t-112 83t-70 123t-38 145t-10.5 156zM608 844q-49 0 -86 -10.5t-59.5 -33t-36 -46.5t-20 -64t-8 -70.5t-1.5 -80.5q0 -119 29 -191q17 -43 51 -60.5t90 -17.5q64 0 148 35q18 7 100 47v451q-125 41 -207 41zM465 1229v315h303v-315h-303z" />
    <glyph glyph-name="uni0122" unicode="&#x122;" horiz-adv-x="1480" 
d="M117 750q0 201 27.5 333t91.5 234q37 58 80 102t105 82t149.5 58t197.5 20q77 0 176.5 -14.5t167 -29t172.5 -40.5v-293q-233 52 -305 64q-98 16 -174 16q-132 0 -205 -36t-115 -120q-31 -63 -44 -149.5t-13 -220.5q0 -140 12 -228t47 -149q40 -71 117.5 -99t210.5 -28
q96 0 219 12v565h303v-813q-333 -51 -575 -51q-155 0 -269.5 38t-186 103.5t-114.5 167.5t-59 215t-16 261zM815 -573h-194q32 156 32 309v162h250v-109q0 -195 -88 -362z" />
    <glyph glyph-name="uni0123" unicode="&#x123;" 
d="M483 0q-89 0 -158.5 32t-112 83t-70 123t-38 145t-10.5 156q0 142 23 243t78.5 179t155 116.5t245.5 38.5q79 0 179 -20.5t161.5 -40t177.5 -58.5v-864q0 -136 -26.5 -232.5t-90.5 -168.5q-67 -75 -190 -117.5t-291 -42.5q-157 0 -377 29v262q236 -31 377 -31
q55 0 105 11.5t95 35.5t72 68t27 102v41q-184 -90 -332 -90zM608 844q-49 0 -86 -10.5t-59.5 -33t-36 -46.5t-20 -64t-8 -70.5t-1.5 -80.5q0 -119 29 -191q17 -43 51 -60.5t90 -17.5q64 0 148 35q18 7 100 47v451q-125 41 -207 41zM485 1200v150q0 111 26.5 212t61.5 167
h195q-33 -161 -33 -326v-203h-250z" />
    <glyph glyph-name="Hcircumflex" unicode="&#x124;" horiz-adv-x="1527" 
d="M455 0h-308v1544h308v-590h618v590h307v-1544h-307v662h-618v-662zM596 1630h-305l301 316h344l301 -316h-309l-166 166z" />
    <glyph glyph-name="hcircumflex" unicode="&#x125;" horiz-adv-x="1232" 
d="M133 1544h299v-512q214 84 330 84q85 0 147.5 -26t99 -67t58 -104.5t28.5 -126.5t7 -145v-647h-299v633q0 47 -1 70t-8 52.5t-22 45.5q-12 13 -30.5 19t-31.5 6.5t-44 0.5q-64 0 -234 -65v-762h-299v1544zM121 1630h-305l301 316h344l301 -316h-309l-166 166z" />
    <glyph glyph-name="Hbar" unicode="&#x126;" horiz-adv-x="1527" 
d="M455 0h-308v1544h308v-178h618v178h307v-1544h-307v618h-618v-618zM455 903h618v178h-618v-178z" />
    <glyph glyph-name="hbar" unicode="&#x127;" horiz-adv-x="1232" 
d="M0 1405h133v139h299v-139h404v-219h-404v-154q204 76 330 76q85 0 147.5 -24.5t99 -64t58 -102t28.5 -125t7 -145.5v-647h-299v633q0 47 -1 70t-8 52.5t-22 45.5q-12 13 -30.5 19t-31.5 6.5t-44 0.5q-64 0 -234 -65v-762h-299v1186h-133v219z" />
    <glyph glyph-name="Itilde" unicode="&#x128;" horiz-adv-x="602" 
d="M147 0v1544h308v-1544h-308zM-164 1647q59 177 124.5 246t180.5 69q50 0 98.5 -18.5t125.5 -59.5q61 -33 84 -42t49 -9q25 0 44.5 19t43.5 71h215q-28 -69 -53 -115.5t-60.5 -91t-81.5 -66.5t-104 -22q-102 0 -217 70q-95 57 -140 57q-33 0 -50 -20t-44 -88h-215z" />
    <glyph glyph-name="itilde" unicode="&#x129;" horiz-adv-x="565" 
d="M133 0v1081h299v-1081h-299zM-195 1245q59 177 125 246.5t181 69.5q49 0 97.5 -18.5t125.5 -59.5q61 -33 84 -42t49 -9q25 0 44.5 19t43.5 71h215q-28 -69 -53 -115.5t-60.5 -91t-81.5 -66.5t-104 -22q-104 0 -217 69q-56 33 -85 45.5t-54 12.5q-33 0 -50.5 -20.5
t-44.5 -88.5h-215z" />
    <glyph glyph-name="Imacron" unicode="&#x12a;" horiz-adv-x="602" 
d="M455 0h-308v1544h308v-1544zM711 1681h-828v207h828v-207z" />
    <glyph glyph-name="imacron" unicode="&#x12b;" horiz-adv-x="565" 
d="M432 0h-299v1081h299v-1081zM698 1280h-827v207h827v-207z" />
    <glyph glyph-name="Ibreve" unicode="&#x12c;" horiz-adv-x="602" 
d="M147 0v1544h308v-1544h-308zM-96 1946h246q18 -65 53.5 -98t99.5 -33q69 0 103.5 31.5t50.5 99.5h245q-32 -169 -128 -246.5t-271 -77.5t-266.5 77t-132.5 247z" />
    <glyph glyph-name="ibreve" unicode="&#x12d;" horiz-adv-x="565" 
d="M133 0v1081h299v-1081h-299zM-115 1544h246q18 -65 54 -98t100 -33q69 0 103 31.5t50 99.5h246q-32 -168 -128 -245.5t-271 -77.5t-267 77t-133 246z" />
    <glyph glyph-name="Iogonek" unicode="&#x12e;" horiz-adv-x="602" 
d="M45 -260q0 70 26 130t76 130v1544h308v-1544q-2 -3 -7 -9q-28 -35 -44.5 -58t-36 -61t-19.5 -62q0 -35 51 -35q39 0 146 35v-199q-129 -39 -230 -39q-270 0 -270 168z" />
    <glyph glyph-name="iogonek" unicode="&#x12f;" horiz-adv-x="565" 
d="M295 -428q-270 0 -270 168q0 73 27 134t81 126v1081h299v-1081q-42 -52 -74 -102q-30 -49 -30 -88q0 -35 51 -35q37 0 145 35v-199q-129 -39 -229 -39zM432 1229h-299v315h299v-315z" />
    <glyph glyph-name="Idotaccent" unicode="&#x130;" horiz-adv-x="602" 
d="M455 0h-308v1544h308v-1544zM453 1630h-303v316h303v-316z" />
    <glyph glyph-name="dotlessi" unicode="&#x131;" horiz-adv-x="565" 
d="M432 0h-299v1081h299v-1081z" />
    <glyph glyph-name="IJ" unicode="&#x132;" horiz-adv-x="1421" 
d="M539 -250v301q204 67 309 133q40 25 64 52t38 67q21 60 21 205v1036h307v-1059q0 -86 -1.5 -131.5t-10.5 -108t-27 -104.5q-23 -53 -57 -92t-95 -74q-101 -59 -268.5 -125.5t-279.5 -99.5zM147 1544h308v-1544h-308v1544z" />
    <glyph glyph-name="ij" unicode="&#x133;" horiz-adv-x="1142" 
d="M442 -432v291q141 40 189 75q59 43 69 101q11 58 11 176v870h299v-923q0 -63 -2 -104.5t-12 -94t-28 -90t-51 -76.5t-81 -69q-148 -95 -394 -156zM133 1081h299v-1081h-299v1081zM711 1544h299v-315h-299v315zM133 1229v315h299v-315h-299z" />
    <glyph glyph-name="Jcircumflex" unicode="&#x134;" horiz-adv-x="829" 
d="M-55 51q204 67 309 133q40 25 64 52t38 67q21 60 21 205v1036h307v-1059q0 -86 -1.5 -131.5t-10.5 -108t-27 -104.5q-23 -54 -57 -92.5t-94 -73.5q-101 -59 -269 -125.5t-280 -99.5v301zM352 1630h-305l301 316h344l301 -316h-309l-166 166z" />
    <glyph glyph-name="jcircumflex" unicode="&#x135;" horiz-adv-x="587" 
d="M-113 -438v274q131 39 185 78q51 37 67 100q13 49 13 191v876h303v-936q0 -181 -19 -243q-17 -60 -64 -111.5t-100.5 -85.5t-129.5 -64t-130.5 -46t-124.5 -33zM-178 1229l301 315h344l301 -315h-309l-166 166l-166 -166h-305z" />
    <glyph glyph-name="uni0136" unicode="&#x136;" horiz-adv-x="1429" 
d="M147 0v1544h308v-725l585 725h377l-612 -747l688 -797h-408l-630 737v-737h-308zM705 -573h-195q33 161 33 309v162h250v-109q0 -195 -88 -362z" />
    <glyph glyph-name="uni0137" unicode="&#x137;" horiz-adv-x="1200" 
d="M432 0h-299v1544h299v-923l399 460h371l-430 -493l471 -588h-381l-430 543v-543zM616 -573h-194q33 161 33 309v162h250v-109q0 -193 -89 -362z" />
    <glyph glyph-name="kgreenlandic" unicode="&#x138;" horiz-adv-x="1216" 
d="M133 1081h303v-460q56 20 94.5 36t79 36.5t67.5 39.5t54 45t45.5 54.5t35.5 66t29.5 82t22.5 100.5h305q-17 -94 -31 -152.5t-38.5 -124t-57.5 -111.5t-84.5 -94t-123.5 -93l407 -506h-377l-428 541v-541h-303v1081z" />
    <glyph glyph-name="Lacute" unicode="&#x139;" horiz-adv-x="1245" 
d="M1214 0h-1067v1544h308v-1247h759v-297zM434 1630h-319l288 316h332z" />
    <glyph glyph-name="lacute" unicode="&#x13a;" horiz-adv-x="565" 
d="M432 0h-299v1544h299v-1544zM397 1630h-319l289 316h331z" />
    <glyph glyph-name="uni013B" unicode="&#x13b;" horiz-adv-x="1245" 
d="M1214 0h-1067v1544h308v-1247h759v-297zM684 -573h-195q33 161 33 309v162h250v-109q0 -195 -88 -362z" />
    <glyph glyph-name="uni013C" unicode="&#x13c;" horiz-adv-x="565" 
d="M133 1544h299v-1544h-299v1544zM328 -573h-195q33 161 33 309v162h250v-109q0 -195 -88 -362z" />
    <glyph glyph-name="Lcaron" unicode="&#x13d;" horiz-adv-x="1245" 
d="M1214 0h-1067v1544h308v-1247h759v-297zM711 1120v424h245v-131q0 -158 -53 -293h-192z" />
    <glyph glyph-name="lcaron" unicode="&#x13e;" horiz-adv-x="761" 
d="M133 1544h299v-1544h-299v1544zM543 1120v424h245v-131q0 -158 -53 -293h-192z" />
    <glyph glyph-name="Ldot" unicode="&#x13f;" horiz-adv-x="1245" 
d="M1214 0h-1067v1544h308v-1247h759v-297zM1075 641h-303v315h303v-315z" />
    <glyph glyph-name="ldot" unicode="&#x140;" horiz-adv-x="868" 
d="M432 0h-299v1544h299v-1544zM868 641h-303v315h303v-315z" />
    <glyph glyph-name="Lslash" unicode="&#x141;" horiz-adv-x="1245" 
d="M-6 707l153 100v737h308v-549l299 191v-264l-299 -193v-432h759v-297h-1067v541l-153 -99v265z" />
    <glyph glyph-name="lslash" unicode="&#x142;" horiz-adv-x="647" 
d="M20 709l154 98v737h299v-543l154 99v-260l-154 -99v-741h-299v547l-154 -98v260z" />
    <glyph glyph-name="Nacute" unicode="&#x143;" horiz-adv-x="1546" 
d="M451 0h-304v1544h332l617 -1032v1032h303v-1544h-332l-616 1032v-1032zM852 1630h-320l289 316h332z" />
    <glyph glyph-name="nacute" unicode="&#x144;" horiz-adv-x="1236" 
d="M133 0v1081h299v-59q237 94 340 94q86 0 148 -26t97.5 -66.5t56 -104.5t26.5 -126t6 -146v-647h-299v633q0 51 -0.5 69.5t-7 48.5t-21.5 48q-11 13 -30 20t-31.5 7.5t-38.5 0.5q-81 0 -246 -69v-758h-299zM360 1229l289 315h332l-301 -315h-320z" />
    <glyph glyph-name="uni0145" unicode="&#x145;" horiz-adv-x="1546" 
d="M451 0h-304v1544h332l617 -1032v1032h303v-1544h-332l-616 1032v-1032zM643 -573q33 161 33 309v162h250v-109q0 -195 -88 -362h-195z" />
    <glyph glyph-name="uni0146" unicode="&#x146;" horiz-adv-x="1236" 
d="M133 0v1081h299v-59q237 94 340 94q86 0 148 -26t97.5 -66.5t56 -104.5t26.5 -126t6 -146v-647h-299v633q0 51 -0.5 69.5t-7 48.5t-21.5 48q-11 13 -30 20t-31.5 7.5t-38.5 0.5q-81 0 -246 -69v-758h-299zM639 -573h-195q33 161 33 309v162h250v-109q0 -195 -88 -362z
" />
    <glyph glyph-name="Ncaron" unicode="&#x147;" horiz-adv-x="1546" 
d="M147 0v1544h332l617 -1032v1032h303v-1544h-332l-616 1032v-1032h-304zM598 1630l-301 316h309l166 -166l166 166h305l-301 -316h-344z" />
    <glyph glyph-name="ncaron" unicode="&#x148;" horiz-adv-x="1236" 
d="M133 0v1081h299v-59q237 94 340 94q86 0 148 -26t97.5 -66.5t56 -104.5t26.5 -126t6 -146v-647h-299v633q0 51 -0.5 69.5t-7 48.5t-21.5 48q-11 13 -30 20t-31.5 7.5t-38.5 0.5q-81 0 -246 -69v-758h-299zM143 1544h310l165 -166l166 166h306l-302 -315h-344z" />
    <glyph glyph-name="napostrophe" unicode="&#x149;" horiz-adv-x="1335" 
d="M530 0h-299v1081h299v-59q237 94 340 94q86 0 148 -26t97.5 -66.5t56 -104.5t26.5 -126t6 -146v-647h-299v633v20.5v21v18.5t-0.5 18.5l-1.5 16.5t-2.5 16.5t-3.5 14.5t-5 15t-6.5 12.5t-8.5 12.5q-11 13 -30 20t-31.5 7.5t-39.5 0.5q-81 0 -246 -69v-758zM127 1073h-195
q33 161 33 309v162h250v-108q0 -196 -88 -363z" />
    <glyph glyph-name="Eng" unicode="&#x14a;" horiz-adv-x="1546" 
d="M147 1544h332l617 -1032v1032h303v-1249q0 -87 -1 -133t-9.5 -108.5t-24.5 -102.5q-21 -52 -55.5 -90t-96.5 -76q-99 -61 -264 -125.5t-284 -99.5v301q200 66 290 114q42 23 61 38.5t23 33.5l-587 985v-1032h-304v1544z" />
    <glyph glyph-name="eng" unicode="&#x14b;" horiz-adv-x="1236" 
d="M133 0v1081h299v-59q237 94 340 94q86 0 148 -26t97.5 -66.5t56 -104.5t26.5 -126t6 -146v-436q0 -229 -27 -303q-40 -116 -147 -184q-149 -95 -393 -156v276q137 39 188 76q31 22 47.5 44.5t22.5 55.5q10 53 10 191v422q0 51 -0.5 69.5t-7 48.5t-21.5 48q-11 13 -30 20
t-31.5 7.5t-38.5 0.5q-81 0 -246 -69v-758h-299z" />
    <glyph glyph-name="Omacron" unicode="&#x14c;" horiz-adv-x="1597" 
d="M242 203q-125 186 -125 565q0 368 112 549q41 66 86.5 111.5t112 81t158.5 52.5t213 17q207 0 329.5 -55.5t210.5 -177.5q142 -194 142 -578q0 -377 -144 -573q-89 -121 -209 -175.5t-329 -54.5q-120 0 -209.5 15t-154 47.5t-108.5 73.5t-85 102zM428 768q0 -279 70 -391
q44 -70 117.5 -95.5t183.5 -25.5q96 0 164.5 27.5t107.5 70.5t61.5 113.5t29.5 138.5t7 162q0 66 -3 116.5t-12.5 107t-25.5 97.5t-44 80.5t-66.5 64t-93.5 39.5t-125 15q-109 0 -182 -26t-119 -99q-70 -115 -70 -395zM381 1888h827v-207h-827v207z" />
    <glyph glyph-name="omacron" unicode="&#x14d;" horiz-adv-x="1249" 
d="M625 -35q-277 0 -405 147.5t-128 426.5q0 280 127 428.5t406 148.5q532 0 532 -577q0 -271 -130.5 -422.5t-401.5 -151.5zM395 539q0 -68 9 -117.5t33 -93t71 -66t117 -22.5t117 24t70.5 69t32.5 95t9 117q0 68 -9.5 118t-33.5 92.5t-70.5 64.5t-115.5 22q-57 0 -99 -16
t-67 -42t-39.5 -66.5t-19.5 -82t-5 -96.5zM213 1487h827v-207h-827v207z" />
    <glyph glyph-name="Obreve" unicode="&#x14e;" horiz-adv-x="1597" 
d="M242 203q-125 186 -125 565q0 368 112 549q41 66 86.5 111.5t112 81t158.5 52.5t213 17q207 0 329.5 -55.5t210.5 -177.5q142 -194 142 -578q0 -377 -144 -573q-89 -121 -209 -175.5t-329 -54.5q-120 0 -209.5 15t-154 47.5t-108.5 73.5t-85 102zM498 1163
q-70 -115 -70 -395q0 -279 70 -391q44 -70 117.5 -95.5t183.5 -25.5q96 0 164.5 27.5t107.5 70.5t61.5 113.5t29.5 138.5t7 162q0 66 -3 116.5t-12.5 107t-25.5 97.5t-44 80.5t-66.5 64t-93.5 39.5t-125 15q-109 0 -182 -26t-119 -99zM801 1622q-175 0 -267 77.5t-133 246.5
h246q18 -65 54 -98t100 -33q69 0 103 31.5t50 99.5h246q-32 -169 -128 -246.5t-271 -77.5z" />
    <glyph glyph-name="obreve" unicode="&#x14f;" horiz-adv-x="1249" 
d="M625 -35q-277 0 -405 147.5t-128 426.5q0 280 127 428.5t406 148.5q532 0 532 -577q0 -271 -130.5 -422.5t-401.5 -151.5zM395 539q0 -68 9 -117.5t33 -93t71 -66t117 -22.5t117 24t70.5 69t32.5 95t9 117q0 68 -9.5 118t-33.5 92.5t-70.5 64.5t-115.5 22q-57 0 -99 -16
t-67 -42t-39.5 -66.5t-19.5 -82t-5 -96.5zM627 1221q-175 0 -267 77t-133 246h246q18 -65 54 -98t100 -33q69 0 103 31.5t50 99.5h246q-32 -168 -128 -245.5t-271 -77.5z" />
    <glyph glyph-name="Ohungarumlaut" unicode="&#x150;" horiz-adv-x="1597" 
d="M242 203q-125 186 -125 565q0 368 112 549q41 66 86.5 111.5t112 81t158.5 52.5t213 17q207 0 329.5 -55.5t210.5 -177.5q142 -194 142 -578q0 -377 -144 -573q-89 -121 -209 -175.5t-329 -54.5q-120 0 -209.5 15t-154 47.5t-108.5 73.5t-85 102zM428 768q0 -279 70 -391
q44 -70 117.5 -95.5t183.5 -25.5q96 0 164.5 27.5t107.5 70.5t61.5 113.5t29.5 138.5t7 162q0 66 -3 116.5t-12.5 107t-25.5 97.5t-44 80.5t-66.5 64t-93.5 39.5t-125 15q-109 0 -182 -26t-119 -99q-70 -115 -70 -395zM1126 1630h-280l215 316h293zM686 1630h-280l215 316
h292z" />
    <glyph glyph-name="ohungarumlaut" unicode="&#x151;" horiz-adv-x="1249" 
d="M625 -35q-277 0 -405 147.5t-128 426.5q0 280 127 428.5t406 148.5q532 0 532 -577q0 -271 -130.5 -422.5t-401.5 -151.5zM395 539q0 -68 9 -117.5t33 -93t71 -66t117 -22.5t117 24t70.5 69t32.5 95t9 117q0 68 -9.5 118t-33.5 92.5t-70.5 64.5t-115.5 22q-57 0 -99 -16
t-67 -42t-39.5 -66.5t-19.5 -82t-5 -96.5zM942 1229h-280l215 315h292zM502 1229h-281l215 315h293z" />
    <glyph glyph-name="OE" unicode="&#x152;" horiz-adv-x="2316" 
d="M242 203q-125 186 -125 565q0 368 112 549q41 66 86.5 111.5t112 81t158.5 52.5t213 17q156 0 272 -35h1141v-289h-821q32 -63 53.5 -159t21.5 -166h701v-289h-701q0 -84 -20 -183t-55 -169h856v-289h-1170q-116 -35 -278 -35q-120 0 -209.5 15t-154 47.5t-108.5 73.5
t-85 102zM428 768q0 -279 70 -391q44 -70 117.5 -95.5t183.5 -25.5q97 0 165.5 22.5t112.5 81.5q51 68 68.5 166.5t17.5 241.5q0 70 -2 118t-10.5 107t-23 98.5t-41.5 79.5t-65 63.5t-94 38.5t-128 15q-109 0 -182 -26t-119 -99q-70 -115 -70 -395z" />
    <glyph glyph-name="oe" unicode="&#x153;" horiz-adv-x="1935" 
d="M625 -35q-277 0 -405 147.5t-128 426.5q0 280 127 428.5t406 148.5q247 0 364 -135q58 69 143.5 102t219.5 33q256 0 375.5 -113t119.5 -364q0 -119 -20 -221h-694q0 -195 276 -195q140 0 385 37v-254q-261 -41 -416 -41q-117 0 -195.5 18.5t-118.5 46t-77 74.5
q-120 -139 -362 -139zM395 539q0 -68 9 -117.5t33 -93t71 -66t117 -22.5t117 24t70.5 69t32.5 95t9 117q0 68 -9.5 118t-33.5 92.5t-70.5 64.5t-115.5 22q-57 0 -99 -16t-67 -42t-39.5 -66.5t-19.5 -82t-5 -96.5zM1352 874q-117 0 -168 -62.5t-51 -180.5h426q4 24 4 55
q0 188 -211 188z" />
    <glyph glyph-name="Racute" unicode="&#x154;" horiz-adv-x="1488" 
d="M455 0h-308v1544h687q154 0 247.5 -23t171.5 -89q68 -59 106 -151t38 -198q0 -101 -32.5 -176.5t-102.5 -158.5q-70 -82 -152 -164l363 -584h-355l-327 530h-336v-530zM455 1255v-436h491q39 44 74 88q33 43 49 82.5t16 93.5q0 90 -57 134q-29 21 -81 29.5t-150 8.5h-342
zM786 1630h-319l289 316h331z" />
    <glyph glyph-name="racute" unicode="&#x155;" horiz-adv-x="817" 
d="M432 0h-299v1081h299v-123q99 70 177 100.5t204 49.5v-301q-239 -41 -381 -137v-670zM424 1229h-320l289 315h332z" />
    <glyph glyph-name="uni0156" unicode="&#x156;" horiz-adv-x="1488" 
d="M147 1544h687q154 0 247.5 -23t171.5 -89q68 -59 106 -151t38 -198q0 -101 -32.5 -176.5t-102.5 -158.5q-70 -82 -152 -164l363 -584h-355l-327 530h-336v-530h-308v1544zM455 1255v-436h491q39 44 74 88q33 43 49 82.5t16 93.5q0 90 -57 134q-29 21 -81 29.5t-150 8.5
h-342zM561 -573q33 161 33 309v162h250v-109q0 -195 -88 -362h-195z" />
    <glyph glyph-name="uni0157" unicode="&#x157;" horiz-adv-x="817" 
d="M432 0h-299v1081h299v-123q99 70 177 100.5t204 49.5v-301q-239 -41 -381 -137v-670zM328 -573h-195q33 161 33 309v162h250v-109q0 -195 -88 -362z" />
    <glyph glyph-name="Rcaron" unicode="&#x158;" horiz-adv-x="1488" 
d="M147 0v1544h687q154 0 247.5 -23t171.5 -89q68 -59 106 -151t38 -198q0 -101 -32.5 -176.5t-102.5 -158.5q-70 -82 -152 -164l363 -584h-355l-327 530h-336v-530h-308zM455 1255v-436h491q39 44 74 88q33 43 49 82.5t16 93.5q0 90 -57 134q-29 21 -81 29.5t-150 8.5h-342
zM240 1946h309l166 -166l166 166h305l-301 -316h-344z" />
    <glyph glyph-name="rcaron" unicode="&#x159;" horiz-adv-x="817" 
d="M432 0h-299v1081h299v-123q99 70 177 100.5t204 49.5v-301q-239 -41 -381 -137v-670zM250 1229l-301 315h309l166 -166l166 166h305l-301 -315h-344z" />
    <glyph glyph-name="Sacute" unicode="&#x15a;" horiz-adv-x="1329" 
d="M440 692q-91 29 -153 61t-112.5 81t-74.5 119.5t-24 166.5q0 126 38.5 214t121.5 151q69 53 165.5 73.5t233.5 20.5q189 0 569 -86v-295q-413 92 -557 92q-86 0 -133.5 -8t-77.5 -31q-28 -22 -38.5 -47.5t-10.5 -62.5q0 -80 43 -113q35 -26 164 -67l266 -84
q105 -34 163 -59t101 -62q61 -52 95 -136t34 -184q0 -225 -155 -348q-82 -65 -192 -94t-279 -29q-177 0 -537 68v299q388 -78 561 -78q38 0 64 1.5t63.5 6t63 15.5t50.5 28.5t37.5 46.5t12.5 68q0 75 -43 110q-35 28 -194 78zM723 1630h-320l289 316h332z" />
    <glyph glyph-name="sacute" unicode="&#x15b;" horiz-adv-x="1081" 
d="M84 774q0 82 23.5 143.5t62.5 98.5t98 60t121.5 31.5t140.5 8.5q88 0 213.5 -20.5t206.5 -40.5v-273q-287 70 -413 70q-97 0 -127 -21q-25 -17 -25 -57q0 -41 37 -57q35 -16 98 -31l187 -49q144 -38 217 -112.5t73 -215.5q0 -82 -27 -144t-71 -99.5t-108.5 -60.5
t-129.5 -31.5t-143 -8.5q-133 0 -422 51v273q292 -60 455 -60q87 0 117 19q28 17 28 59q0 41 -32 58q-23 12 -125 38l-195 54q-133 37 -196.5 109.5t-63.5 207.5zM606 1229h-319l288 315h332z" />
    <glyph glyph-name="Scircumflex" unicode="&#x15c;" horiz-adv-x="1329" 
d="M76 1120q0 126 38.5 214t121.5 151q69 53 165.5 73.5t233.5 20.5q189 0 569 -86v-295q-413 92 -557 92q-86 0 -133.5 -8t-77.5 -31q-28 -22 -38.5 -47.5t-10.5 -62.5q0 -80 43 -113q35 -26 164 -67l266 -84q105 -34 163 -59t101 -62q61 -52 95 -136t34 -184
q0 -225 -155 -348q-82 -65 -192 -94t-279 -29q-177 0 -537 68v299q388 -78 561 -78q38 0 64 1.5t63.5 6t63 15.5t50.5 28.5t37.5 46.5t12.5 68q0 75 -43 110q-35 28 -194 78l-265 84q-91 29 -153 61t-112.5 81t-74.5 119.5t-24 166.5zM496 1630h-306l302 316h344l301 -316
h-310l-165 166z" />
    <glyph glyph-name="scircumflex" unicode="&#x15d;" horiz-adv-x="1081" 
d="M84 774q0 82 23.5 143.5t62.5 98.5t98 60t121.5 31.5t140.5 8.5q88 0 213.5 -20.5t206.5 -40.5v-273q-287 70 -413 70q-97 0 -127 -21q-25 -17 -25 -57q0 -41 37 -57q35 -16 98 -31l187 -49q144 -38 217 -112.5t73 -215.5q0 -82 -27 -144t-71 -99.5t-108.5 -60.5
t-129.5 -31.5t-143 -8.5q-133 0 -422 51v273q292 -60 455 -60q87 0 117 19q28 17 28 59q0 41 -32 58q-23 12 -125 38l-195 54q-133 37 -196.5 109.5t-63.5 207.5zM66 1229l301 315h344l301 -315h-310l-165 166l-166 -166h-305z" />
    <glyph glyph-name="Scedilla" unicode="&#x15e;" horiz-adv-x="1329" 
d="M76 1120q0 126 38.5 214t121.5 151q69 53 165.5 73.5t233.5 20.5q189 0 569 -86v-295q-413 92 -557 92q-86 0 -133.5 -8t-77.5 -31q-28 -22 -38.5 -47.5t-10.5 -62.5q0 -80 43 -113q35 -26 164 -67l266 -84q105 -34 163 -59t101 -62q61 -52 95 -136t34 -184
q0 -225 -155 -348q-82 -65 -192 -94t-279 -29q-177 0 -537 68v299q388 -78 561 -78q38 0 64 1.5t63.5 6t63 15.5t50.5 28.5t37.5 46.5t12.5 68q0 75 -43 110q-35 28 -194 78l-265 84q-91 29 -153 61t-112.5 81t-74.5 119.5t-24 166.5zM371 -420l190 297h295l-188 -297h-297z
" />
    <glyph glyph-name="scedilla" unicode="&#x15f;" horiz-adv-x="1081" 
d="M84 774q0 82 23.5 143.5t62.5 98.5t98 60t121.5 31.5t140.5 8.5q88 0 213.5 -20.5t206.5 -40.5v-273q-287 70 -413 70q-97 0 -127 -21q-25 -17 -25 -57q0 -41 37 -57q35 -16 98 -31l187 -49q144 -38 217 -112.5t73 -215.5q0 -82 -27 -144t-71 -99.5t-108.5 -60.5
t-129.5 -31.5t-143 -8.5q-133 0 -422 51v273q292 -60 455 -60q87 0 117 19q28 17 28 59q0 41 -32 58q-23 12 -125 38l-195 54q-133 37 -196.5 109.5t-63.5 207.5zM539 -420h-297l190 297h295z" />
    <glyph glyph-name="Scaron" unicode="&#x160;" horiz-adv-x="1329" 
d="M440 692q-91 29 -153 61t-112.5 81t-74.5 119.5t-24 166.5q0 126 38.5 214t121.5 151q69 53 165.5 73.5t233.5 20.5q189 0 569 -86v-295q-413 92 -557 92q-86 0 -133.5 -8t-77.5 -31q-28 -22 -38.5 -47.5t-10.5 -62.5q0 -80 43 -113q35 -26 164 -67l266 -84
q105 -34 163 -59t101 -62q61 -52 95 -136t34 -184q0 -225 -155 -348q-82 -65 -192 -94t-279 -29q-177 0 -537 68v299q388 -78 561 -78q38 0 64 1.5t63.5 6t63 15.5t50.5 28.5t37.5 46.5t12.5 68q0 75 -43 110q-35 28 -194 78zM184 1946h310l165 -166l166 166h305l-301 -316
h-344z" />
    <glyph glyph-name="scaron" unicode="&#x161;" horiz-adv-x="1081" 
d="M344 457q-133 37 -196.5 109.5t-63.5 207.5q0 82 23.5 143.5t62.5 98.5t98 60t121.5 31.5t140.5 8.5q88 0 213.5 -20.5t206.5 -40.5v-273q-287 70 -413 70q-97 0 -127 -21q-25 -17 -25 -57q0 -41 37 -57q35 -16 98 -31l187 -49q144 -38 217 -112.5t73 -215.5
q0 -82 -27 -144t-71 -99.5t-108.5 -60.5t-129.5 -31.5t-143 -8.5q-133 0 -422 51v273q292 -60 455 -60q87 0 117 19q28 17 28 59q0 41 -32 58q-23 12 -125 38zM66 1544h309l166 -166l166 166h305l-301 -315h-344z" />
    <glyph glyph-name="uni0162" unicode="&#x162;" horiz-adv-x="1384" 
d="M20 1253v291h1344v-291h-518v-1253h-307v1253h-519zM395 -420l191 297h295l-189 -297h-297z" />
    <glyph glyph-name="uni0163" unicode="&#x163;" horiz-adv-x="798" 
d="M133 1368h299v-301h336v-274h-336v-316q0 -92 8 -127q11 -54 72 -71q59 -17 201 -25v-268q-284 11 -398 47q-117 38 -155 131q-19 47 -23 103.5t-4 195.5v905zM383 -420h-297l190 297h295z" />
    <glyph glyph-name="Tcaron" unicode="&#x164;" horiz-adv-x="1384" 
d="M539 1253h-519v291h1344v-291h-518v-1253h-307v1253zM221 1946h309l166 -166l166 166h305l-301 -316h-344z" />
    <glyph glyph-name="tcaron" unicode="&#x165;" horiz-adv-x="798" 
d="M133 1368h299v-301h336v-274h-336v-316q0 -92 8 -127q11 -54 72 -71q59 -17 201 -25v-268q-284 11 -398 47q-117 38 -155 131q-19 47 -23 103.5t-4 195.5v905zM735 1165h-192v379h245v-121q0 -123 -53 -258z" />
    <glyph glyph-name="Tbar" unicode="&#x166;" horiz-adv-x="1384" 
d="M20 1544h1344v-291h-518v-350h266v-285h-266v-618h-307v618h-267v285h267v350h-519v291z" />
    <glyph glyph-name="tbar" unicode="&#x167;" horiz-adv-x="860" 
d="M133 1368h299v-301h336v-240h-336v-112h336v-240h-336v-20q0 -64 8 -105q11 -54 72 -71q54 -16 201 -25v-268q-284 11 -398 47q-117 38 -155 131q-19 47 -23 103.5t-4 195.5v905z" />
    <glyph glyph-name="Utilde" unicode="&#x168;" horiz-adv-x="1513" 
d="M143 602v942h308v-948q0 -69 4 -114.5t16 -86.5t33 -65t55.5 -42t82.5 -25t116 -7q67 0 115 7t82.5 25t55 42t32.5 65t16 86.5t4 114.5v948h307v-942q0 -182 -29.5 -294.5t-107.5 -192.5q-82 -83 -195 -116.5t-280 -33.5q-175 0 -292.5 35t-189.5 114t-102.5 196.5
t-30.5 291.5zM293 1647q59 177 124.5 246t180.5 69q49 0 97.5 -18.5t125.5 -59.5q61 -33 84 -42t49 -9q25 0 44.5 19t43.5 71h215q-28 -69 -53 -115.5t-60.5 -91t-81.5 -66.5t-104 -22q-102 0 -217 70q-95 57 -139 57q-33 0 -50 -20t-44 -88h-215z" />
    <glyph glyph-name="utilde" unicode="&#x169;" horiz-adv-x="1232" 
d="M131 1081h299v-620q0 -47 1 -71t7.5 -54.5t20.5 -46.5q34 -39 125 -39q106 0 217 26v805h299v-1030q-341 -86 -557 -86q-116 0 -197.5 33.5t-128 99t-66.5 150t-20 198.5v635zM152 1245q59 178 124.5 247t180.5 69q49 0 97.5 -18.5t125.5 -59.5q61 -33 84 -42t49 -9
q25 0 44.5 19t43.5 71h215q-28 -69 -53 -115.5t-60.5 -91t-81.5 -66.5t-104 -22q-104 0 -217 69q-56 33 -85 45.5t-54 12.5q-33 0 -50 -20.5t-44 -88.5h-215z" />
    <glyph glyph-name="Umacron" unicode="&#x16a;" horiz-adv-x="1513" 
d="M143 1544h308v-948q0 -69 4 -114.5t16 -86.5t33 -65t55.5 -42t82.5 -25t116 -7q67 0 115 7t82.5 25t55 42t32.5 65t16 86.5t4 114.5v948h307v-942q0 -182 -29.5 -294.5t-107.5 -192.5q-82 -83 -195 -116.5t-280 -33.5q-175 0 -292.5 35t-189.5 114t-102.5 196.5
t-30.5 291.5v942zM340 1888h827v-207h-827v207z" />
    <glyph glyph-name="umacron" unicode="&#x16b;" horiz-adv-x="1232" 
d="M131 446v635h299v-620q0 -47 1 -71t7.5 -54.5t20.5 -46.5q34 -39 125 -39q106 0 217 26v805h299v-1030q-341 -86 -557 -86q-116 0 -197.5 33.5t-128 99t-66.5 150t-20 198.5zM199 1280v207h827v-207h-827z" />
    <glyph glyph-name="Ubreve" unicode="&#x16c;" horiz-adv-x="1513" 
d="M143 1544h308v-948q0 -69 4 -114.5t16 -86.5t33 -65t55.5 -42t82.5 -25t116 -7q67 0 115 7t82.5 25t55 42t32.5 65t16 86.5t4 114.5v948h307v-942q0 -182 -29.5 -294.5t-107.5 -192.5q-82 -83 -195 -116.5t-280 -33.5q-175 0 -292.5 35t-189.5 114t-102.5 196.5
t-30.5 291.5v942zM758 1622q-175 0 -267 77.5t-133 246.5h246q18 -65 54 -98t100 -33q69 0 103 31.5t50 99.5h246q-32 -169 -128 -246.5t-271 -77.5z" />
    <glyph glyph-name="ubreve" unicode="&#x16d;" horiz-adv-x="1232" 
d="M131 1081h299v-620q0 -47 1 -71t7.5 -54.5t20.5 -46.5q34 -39 125 -39q106 0 217 26v805h299v-1030q-341 -86 -557 -86q-116 0 -197.5 33.5t-128 99t-66.5 150t-20 198.5v635zM618 1221q-175 0 -266.5 77t-132.5 246h246q18 -65 53.5 -98t99.5 -33q69 0 103.5 31.5
t50.5 99.5h246q-32 -168 -128.5 -245.5t-271.5 -77.5z" />
    <glyph glyph-name="Uring" unicode="&#x16e;" horiz-adv-x="1513" 
d="M143 1544h308v-948q0 -69 4 -114.5t16 -86.5t33 -65t55.5 -42t82.5 -25t116 -7q67 0 115 7t82.5 25t55 42t32.5 65t16 86.5t4 114.5v948h307v-942q0 -182 -29.5 -294.5t-107.5 -192.5q-82 -83 -195 -116.5t-280 -33.5q-175 0 -292.5 35t-189.5 114t-102.5 196.5
t-30.5 291.5v942zM457 1790q0 131 81.5 199.5t215.5 68.5t215.5 -68.5t81.5 -199.5q0 -133 -81 -199.5t-216 -66.5t-216 66.5t-81 199.5zM754 1896q-119 0 -119 -106q0 -104 119 -104q118 0 118 104q0 106 -118 106z" />
    <glyph glyph-name="uring" unicode="&#x16f;" horiz-adv-x="1232" 
d="M131 1081h299v-620q0 -47 1 -71t7.5 -54.5t20.5 -46.5q34 -39 125 -39q106 0 217 26v805h299v-1030q-341 -86 -557 -86q-116 0 -197.5 33.5t-128 99t-66.5 150t-20 198.5v635zM623 1174q-135 0 -216 66.5t-81 199.5q0 131 81.5 199.5t215.5 68.5t215.5 -68.5t81.5 -199.5
q0 -133 -81 -199.5t-216 -66.5zM504 1440q0 -53 32 -79t87 -26q118 0 118 105q0 106 -118 106q-119 0 -119 -106z" />
    <glyph glyph-name="Uhungarumlaut" unicode="&#x170;" horiz-adv-x="1513" 
d="M143 602v942h308v-948q0 -69 4 -114.5t16 -86.5t33 -65t55.5 -42t82.5 -25t116 -7q67 0 115 7t82.5 25t55 42t32.5 65t16 86.5t4 114.5v948h307v-942q0 -182 -29.5 -294.5t-107.5 -192.5q-82 -83 -195 -116.5t-280 -33.5q-175 0 -292.5 35t-189.5 114t-102.5 196.5
t-30.5 291.5zM788 1630l216 316h292l-227 -316h-281zM629 1630h-281l215 316h293z" />
    <glyph glyph-name="uhungarumlaut" unicode="&#x171;" horiz-adv-x="1232" 
d="M131 446v635h299v-620q0 -47 1 -71t7.5 -54.5t20.5 -46.5q34 -39 125 -39q106 0 217 26v805h299v-1030q-341 -86 -557 -86q-116 0 -197.5 33.5t-128 99t-66.5 150t-20 198.5zM942 1229h-280l215 315h292zM502 1229h-281l215 315h293z" />
    <glyph glyph-name="Uogonek" unicode="&#x172;" horiz-adv-x="1513" 
d="M143 1544h308v-950q0 -68 4 -114t16.5 -87t33 -64.5t55.5 -41t83 -24.5t115 -7t114.5 7t82 24.5t55 41.5t33 64.5t16.5 86.5t4 114v950h307v-942q0 -91 -4.5 -151.5t-19.5 -127.5t-43.5 -115.5t-77 -96.5t-119.5 -88q-234 -142 -234 -213q0 -35 52 -35q38 0 145 35v-199
q-129 -39 -229 -39q-58 0 -100 6t-84 24t-64.5 56.5t-22.5 97.5q0 116 146 211h-29q-34 0 -73 4.5t-102.5 17.5t-127 46.5t-109.5 83.5q-75 81 -103 196t-28 287v942z" />
    <glyph glyph-name="uogonek" unicode="&#x173;" horiz-adv-x="1232" 
d="M131 1081h299v-620q0 -47 1 -71t7.5 -54.5t20.5 -46.5q34 -39 125 -39q106 0 217 26v805h299v-1030q-34 -33 -70 -69.5t-78.5 -91.5t-42.5 -80q0 -35 52 -35q41 0 139 35v-199q-129 -39 -223 -39q-58 0 -100 6t-84 24t-64.5 56.5t-22.5 97.5q0 100 164 228
q-141 -19 -227 -19q-116 0 -197.5 33.5t-128 99t-66.5 150t-20 198.5v635z" />
    <glyph glyph-name="Wcircumflex" unicode="&#x174;" horiz-adv-x="1943" 
d="M336 0l-311 1544h315l225 -1141l254 908h311l250 -908l230 1141h309l-313 -1544h-389l-244 883l-244 -883h-393zM811 1630h-305l301 316h344l301 -316h-309l-166 166z" />
    <glyph glyph-name="wcircumflex" unicode="&#x175;" horiz-adv-x="1785" 
d="M307 0l-299 1081h301l211 -780l215 780h322l217 -780l209 780h295l-299 -1081h-389l-199 723l-191 -723h-393zM727 1229h-305l301 315h344l301 -315h-309l-166 166z" />
    <glyph glyph-name="Ycircumflex" unicode="&#x176;" horiz-adv-x="1361" 
d="M-31 1544h355l366 -639l367 639h336l-557 -956v-588h-308v588zM520 1630h-305l301 316h344l301 -316h-309l-166 166z" />
    <glyph glyph-name="ycircumflex" unicode="&#x177;" horiz-adv-x="1204" 
d="M444 -14l-444 1095h328l278 -710l279 710h319l-598 -1474h-315zM434 1229h-305l301 315h344l301 -315h-309l-166 166z" />
    <glyph glyph-name="Ydieresis" unicode="&#x178;" horiz-adv-x="1361" 
d="M-31 1544h355l366 -639l367 639h336l-557 -956v-588h-308v588zM817 1630v316h285v-316h-285zM545 1630h-285v316h285v-316z" />
    <glyph glyph-name="Zacute" unicode="&#x179;" horiz-adv-x="1376" 
d="M1303 0h-1229v291l815 964h-785v289h1184v-291l-815 -964h830v-289zM784 1630h-319l289 316h331z" />
    <glyph glyph-name="zacute" unicode="&#x17a;" horiz-adv-x="1058" 
d="M1006 0h-953v256l522 551h-497v274h901v-254l-520 -553h547v-274zM625 1229h-320l289 315h332z" />
    <glyph glyph-name="Zdotaccent" unicode="&#x17b;" horiz-adv-x="1376" 
d="M1303 0h-1229v291l815 964h-785v289h1184v-291l-815 -964h830v-289zM840 1630h-303v316h303v-316z" />
    <glyph glyph-name="zdotaccent" unicode="&#x17c;" horiz-adv-x="1058" 
d="M1006 0h-953v256l522 551h-497v274h901v-254l-520 -553h547v-274zM682 1229h-303v315h303v-315z" />
    <glyph glyph-name="Zcaron" unicode="&#x17d;" horiz-adv-x="1376" 
d="M1303 0h-1229v291l815 964h-785v289h1184v-291l-815 -964h830v-289zM215 1946h309l166 -166l166 166h305l-301 -316h-344z" />
    <glyph glyph-name="zcaron" unicode="&#x17e;" horiz-adv-x="1058" 
d="M53 256l522 551h-497v274h901v-254l-520 -553h547v-274h-953v256zM57 1544h310l165 -166l166 166h306l-302 -315h-344z" />
    <glyph glyph-name="uni018F" unicode="&#x18f;" horiz-adv-x="1478" 
d="M113 588q0 157 16 309h918q-5 106 -24 176t-63 119.5t-116 71.5t-182 22q-83 0 -180 -14t-158.5 -27.5t-157.5 -38.5v291q107 26 173.5 40.5t169.5 28t198 13.5q116 0 210 -22t161.5 -60t118 -97t82 -126t50.5 -155t26 -175t7 -194q0 -142 -18 -255.5t-63 -215
t-117.5 -169t-186 -106.5t-264.5 -39q-308 0 -454 155t-146 468zM426 608q-2 -18 -2 -76q0 -152 69.5 -215t221.5 -63q172 0 248 90.5t84 263.5h-621z" />
    <glyph glyph-name="florin" unicode="&#x192;" horiz-adv-x="849" 
d="M-31 -432v293q132 38 189 76q49 33 67 102q13 49 13 190v838q0 132 22 205q11 35 32 66t43.5 54.5t59.5 46t63.5 37.5t74.5 31.5t73 24.5t77.5 20.5t70 16.5t67.5 14v-291q-180 -38 -237 -80q-36 -27 -43 -71q-4 -29 -4 -74h286v-274h-286v-564q0 -253 -19 -323
q-57 -216 -549 -338z" />
    <glyph glyph-name="uni019D" unicode="&#x19d;" horiz-adv-x="1554" 
d="M-176 -440v301q41 16 69.5 27t72 33.5t73 43.5t57 51.5t39.5 63.5q21 60 21 205v1259h331l617 -1032v1032h303v-1544h-332l-616 1032v-770q0 -87 -1.5 -133t-10.5 -109.5t-27 -105.5q-23 -53 -55 -89t-93 -73q-184 -113 -448 -192z" />
    <glyph glyph-name="Ohorn" unicode="&#x1a0;" horiz-adv-x="1669" 
d="M242 203q-125 186 -125 565q0 368 112 549q41 66 86.5 111.5t112 81t158.5 52.5t213 17q196 0 330.5 -56t228.5 -204h8q76 0 86 47l2 219h195v-231q0 -68 -56.5 -136t-152.5 -88q41 -154 41 -362q0 -377 -144 -573q-89 -121 -209 -175.5t-329 -54.5q-120 0 -209.5 15
t-154 47.5t-108.5 73.5t-85 102zM498 1163q-70 -115 -70 -395q0 -279 70 -391q44 -70 117.5 -95.5t183.5 -25.5q96 0 164.5 27.5t107.5 70.5t61.5 113.5t29.5 138.5t7 162q0 66 -3 116.5t-12.5 107t-25.5 97.5t-44 80.5t-66.5 64t-93.5 39.5t-125 15q-109 0 -182 -26
t-119 -99z" />
    <glyph glyph-name="ohorn" unicode="&#x1a1;" horiz-adv-x="1419" 
d="M92 539q0 280 127 428.5t406 148.5q156 0 280.5 -60t188.5 -188h32q75 0 88 47v220h195v-232q0 -78 -71 -150t-189 -79q8 -57 8 -135q0 -271 -130.5 -422.5t-401.5 -151.5q-277 0 -405 147.5t-128 426.5zM395 539q0 -68 9 -117.5t33 -93t71 -66t117 -22.5t117 24t70.5 69
t32.5 95t9 117q0 68 -9.5 118t-33.5 92.5t-70.5 64.5t-115.5 22q-57 0 -99 -16t-67 -42t-39.5 -66.5t-19.5 -82t-5 -96.5z" />
    <glyph glyph-name="Uhorn" unicode="&#x1af;" horiz-adv-x="1734" 
d="M143 602v942h308v-948q0 -69 4 -114.5t16 -86.5t33 -65t55.5 -42t82.5 -25t116 -7q67 0 115 7t82.5 25t55 42t32.5 65t16 86.5t4 114.5v948h307v-211h64q76 0 86 47v219h194v-231q0 -82 -76.5 -155.5t-203.5 -73.5h-64v-537q0 -182 -29.5 -294.5t-107.5 -192.5
q-82 -83 -195 -116.5t-280 -33.5q-175 0 -292.5 35t-189.5 114t-102.5 196.5t-30.5 291.5z" />
    <glyph glyph-name="uhorn" unicode="&#x1b0;" horiz-adv-x="1449" 
d="M131 1081h299v-620q0 -47 1 -71t7.5 -54.5t20.5 -46.5q34 -39 125 -39q106 0 217 26v805h299v-213h55q73 0 86 47v220h195v-232q0 -37 -18.5 -76.5t-52.5 -74t-89 -56.5t-121 -22h-55v-623q-341 -86 -557 -86q-116 0 -197.5 33.5t-128 99t-66.5 150t-20 198.5v635z" />
    <glyph glyph-name="Gcaron" unicode="&#x1e6;" horiz-adv-x="1480" 
d="M762 -35q-155 0 -269.5 38t-186 103.5t-114.5 167.5t-59 215t-16 261q0 201 27.5 333t91.5 234q37 58 80 102t105 82t149.5 58t197.5 20q77 0 176.5 -14.5t167 -29t172.5 -40.5v-293q-233 52 -305 64q-98 16 -174 16q-132 0 -205 -36t-115 -120q-31 -63 -44 -149.5
t-13 -220.5q0 -140 12 -228t47 -149q40 -71 117.5 -99t210.5 -28q96 0 219 12v565h303v-813q-333 -51 -575 -51zM266 1946h309l166 -166l166 166h305l-301 -316h-344z" />
    <glyph glyph-name="gcaron" unicode="&#x1e7;" 
d="M483 0q-89 0 -158.5 32t-112 83t-70 123t-38 145t-10.5 156q0 142 23 243t78.5 179t155 116.5t245.5 38.5q79 0 179 -20.5t161.5 -40t177.5 -58.5v-864q0 -136 -26.5 -232.5t-90.5 -168.5q-67 -75 -190 -117.5t-291 -42.5q-157 0 -377 29v262q236 -31 377 -31
q55 0 105 11.5t95 35.5t72 68t27 102v41q-184 -90 -332 -90zM397 539q0 -119 29 -191q17 -43 51 -60.5t90 -17.5q64 0 148 35q18 7 100 47v451q-125 41 -207 41q-43 0 -76 -9t-55 -22t-37.5 -37.5t-23.5 -46.5t-12.5 -57.5t-5.5 -62.5t-1 -70zM446 1229l-301 315h310
l166 -166l165 166h306l-301 -315h-345z" />
    <glyph glyph-name="uni01EA" unicode="&#x1ea;" horiz-adv-x="1597" 
d="M240 203q-123 183 -123 565q0 371 110 549q40 66 86.5 111.5t113 81t159 52.5t213.5 17q216 0 350 -64.5t215 -199.5q57 -95 88 -238t31 -309q0 -380 -142 -573q-41 -56 -77 -88t-101 -74q-233 -157 -233 -223q0 -20 12.5 -27.5t38.5 -7.5q37 0 145 35v-199
q-129 -39 -229 -39q-45 0 -79.5 3t-72.5 14.5t-62 31t-40 54t-16 81.5q0 59 43 116.5t102 96.5h-53q-143 0 -269.5 55t-209.5 179zM498 1163q-70 -115 -70 -395q0 -279 70 -391q44 -70 117.5 -95.5t183.5 -25.5q69 0 124.5 14t94 37.5t66.5 61.5t44.5 78.5t26.5 96t13 107
t3 117.5t-3 117t-12.5 107.5t-25.5 98t-44 80.5t-67 63.5t-94.5 39t-125.5 14.5q-109 0 -182 -26t-119 -99z" />
    <glyph glyph-name="uni01EB" unicode="&#x1eb;" horiz-adv-x="1249" 
d="M92 539q0 280 127 428.5t406 148.5q534 0 534 -577q0 -163 -46 -284.5t-161 -203.5q-30 -22 -60 -45.5t-75.5 -62.5t-73.5 -74.5t-28 -58.5q0 -20 12.5 -27.5t38.5 -7.5q38 0 145 35v-199q-129 -39 -229 -39q-45 0 -79.5 3t-72.5 14.5t-62 31t-40 54t-16 81.5
q0 66 38 113t107 98q-125 8 -216.5 54t-145 123.5t-78.5 175t-25 219.5zM395 539q0 -68 9 -117.5t33 -93t71 -66t117 -22.5t117 23.5t71 68.5t33.5 95.5t9.5 117.5q0 53 -5.5 95t-21 81t-41 64.5t-66.5 41t-97 15.5q-57 0 -99 -16t-67 -42t-39.5 -66.5t-19.5 -82t-5 -96.5z
" />
    <glyph glyph-name="Aringacute" unicode="&#x1fa;" horiz-adv-x="1529" 
d="M2 0l528 1456q-63 63 -63 184q0 131 81.5 200t215.5 69t215.5 -69t81.5 -200q0 -120 -64 -184l531 -1456h-334l-102 281h-662l-100 -281h-328zM524 569h469l-235 666zM584 1976l188 205h326l-195 -205h-319zM645 1640q0 -104 119 -104t119 104q0 107 -119 107t-119 -107z
" />
    <glyph glyph-name="aringacute" unicode="&#x1fb;" 
d="M455 -35q-87 0 -153 35t-105 89t-63.5 130t-33 147t-8.5 150q0 80 6.5 146t22 129t41 111.5t64.5 89.5t90.5 68t121 41.5t154.5 14.5q117 0 233.5 -29.5t288.5 -89.5v-997h-295v139q-96 -81 -182 -127.5t-182 -46.5zM625 1174q-135 0 -216 66.5t-81 199.5
q0 131 81.5 199.5t215.5 68.5t215.5 -68.5t81.5 -199.5q0 -133 -81 -199.5t-216 -66.5zM395 516q0 -126 27 -203q13 -36 37 -50.5t65 -14.5q87 0 291 176v383q-121 43 -201 43q-35 0 -63.5 -6t-49.5 -16t-37.5 -27t-27.5 -34t-19 -42t-12 -46.5t-6.5 -52.5t-3 -53.5
t-0.5 -56.5zM788 1741h-319l186 205h328zM625 1546q-119 0 -119 -106q0 -53 32 -79t87 -26q118 0 118 105q0 106 -118 106z" />
    <glyph glyph-name="AEacute" unicode="&#x1fc;" horiz-adv-x="2406" 
d="M365 0h-385l1042 1544h1280v-289h-786v-325h741v-289h-741v-352h821v-289h-1129v281h-655zM748 569h460v688zM1534 1630h-320l289 316h332z" />
    <glyph glyph-name="aeacute" unicode="&#x1fd;" horiz-adv-x="1880" 
d="M80 293q0 101 26.5 169t81 104t123 50.5t166.5 14.5h314v71q0 41 -11 69.5t-28.5 44.5t-47 24.5t-57 11t-69.5 2.5q-87 0 -217.5 -19.5t-217.5 -39.5v254q101 25 233 46t230 21q265 0 355 -108q97 108 335 108q256 0 376 -113t120 -364q0 -119 -20 -221h-695
q0 -60 22 -100.5t64 -60t86.5 -27t104.5 -7.5q140 0 385 37v-254q-256 -41 -416 -41q-173 0 -275 42t-157 120q-116 -82 -215 -122t-221 -40q-375 0 -375 328zM733 1229l289 315h332l-301 -315h-320zM1296 874q-117 0 -168 -62.5t-51 -180.5h426q4 24 4 55q0 188 -211 188z
M541 418q-33 0 -52.5 -1.5t-44 -7.5t-37.5 -17t-22.5 -32.5t-9.5 -52.5q0 -64 34 -84t105 -20q50 0 102.5 19.5t87 41t87.5 60.5v94h-250z" />
    <glyph glyph-name="Oslashacute" unicode="&#x1fe;" horiz-adv-x="1597" 
d="M117 768q0 368 112 549q41 66 86.5 111.5t112 81t158.5 52.5t213 17q207 0 329.5 -55.5t210.5 -177.5q142 -194 142 -578q0 -377 -144 -573q-89 -121 -209 -175.5t-329 -54.5q-120 0 -209.5 15t-154 47.5t-108.5 73.5t-85 102q-125 186 -125 565zM1133 1096l-529 -817
q67 -29 195 -29q71 0 127.5 14t95.5 37.5t68 61.5t45.5 78.5t26.5 97t13 108.5t3 121q0 215 -45 328zM420 768q0 -204 35 -313l524 809q-67 30 -180 30q-110 0 -187.5 -26t-122.5 -99q-69 -113 -69 -401zM881 1630h-320l289 316h332z" />
    <glyph glyph-name="oslashacute" unicode="&#x1ff;" horiz-adv-x="1249" 
d="M625 -35q-277 0 -405 147.5t-128 426.5q0 280 127 428.5t406 148.5q532 0 532 -577q0 -271 -130.5 -422.5t-401.5 -151.5zM711 1229h-320l289 315h332zM625 852q-62 0 -106 -16t-69.5 -41.5t-40.5 -68t-19.5 -85t-4.5 -102.5q0 -91 16 -160l340 452q-54 21 -116 21z
M510 250q50 -21 115 -21q60 0 103.5 16.5t69.5 43.5t41 69.5t20 85.5t5 101q0 97 -14 157z" />
    <glyph glyph-name="uni0218" unicode="&#x218;" horiz-adv-x="1329" 
d="M440 692q-91 29 -153 61t-112.5 81t-74.5 119.5t-24 166.5q0 126 38.5 214t121.5 151q69 53 165.5 73.5t233.5 20.5q189 0 569 -86v-295q-413 92 -557 92q-86 0 -133.5 -8t-77.5 -31q-28 -22 -38.5 -47.5t-10.5 -62.5q0 -80 43 -113q35 -26 164 -67l266 -84
q105 -34 163 -59t101 -62q61 -52 95 -136t34 -184q0 -225 -155 -348q-82 -65 -192 -94t-279 -29q-177 0 -537 68v299q388 -78 561 -78q38 0 64 1.5t63.5 6t63 15.5t50.5 28.5t37.5 46.5t12.5 68q0 75 -43 110q-35 28 -194 78zM508 -573q33 161 33 309v162h250v-109
q0 -193 -89 -362h-194z" />
    <glyph glyph-name="uni0219" unicode="&#x219;" horiz-adv-x="1081" 
d="M344 457q-133 37 -196.5 109.5t-63.5 207.5q0 82 23.5 143.5t62.5 98.5t98 60t121.5 31.5t140.5 8.5q88 0 213.5 -20.5t206.5 -40.5v-273q-287 70 -413 70q-97 0 -127 -21q-25 -17 -25 -57q0 -41 37 -57q35 -16 98 -31l187 -49q144 -38 217 -112.5t73 -215.5
q0 -82 -27 -144t-71 -99.5t-108.5 -60.5t-129.5 -31.5t-143 -8.5q-133 0 -422 51v273q292 -60 455 -60q87 0 117 19q28 17 28 59q0 41 -32 58q-23 12 -125 38zM580 -573h-195q33 161 33 309v162h250v-109q0 -195 -88 -362z" />
    <glyph glyph-name="uni021A" unicode="&#x21a;" horiz-adv-x="1384" 
d="M20 1253v291h1344v-291h-518v-1253h-307v1253h-519zM735 -573h-194q32 156 32 309v162h250v-109q0 -195 -88 -362z" />
    <glyph glyph-name="uni021B" unicode="&#x21b;" horiz-adv-x="798" 
d="M133 1368h299v-301h336v-274h-336v-316q0 -92 8 -127q11 -54 72 -71q59 -17 201 -25v-268q-284 11 -398 47q-117 38 -155 131q-19 47 -23 103.5t-4 195.5v905zM217 -573q33 161 33 309v162h250v-109q0 -195 -88 -362h-195z" />
    <glyph glyph-name="uni0232" unicode="&#x232;" horiz-adv-x="1361" 
d="M-31 1544h355l366 -639l367 639h336l-557 -956v-588h-308v588zM281 1681v207h827v-207h-827z" />
    <glyph glyph-name="uni0233" unicode="&#x233;" horiz-adv-x="1204" 
d="M0 1081h328l278 -710l279 710h319l-598 -1474h-315l153 379zM190 1487h828v-207h-828v207z" />
    <glyph glyph-name="uni0237" unicode="&#x237;" horiz-adv-x="587" 
d="M-113 -438v274q131 39 185 78q51 37 67 100q13 49 13 191v876h303v-936q0 -181 -19 -243q-17 -60 -64 -111.5t-100.5 -85.5t-129.5 -64t-130.5 -46t-124.5 -33z" />
    <glyph glyph-name="uni0259" unicode="&#x259;" horiz-adv-x="1187" 
d="M88 442q0 115 21 222h694q0 49 -15.5 85t-39.5 56.5t-62 33t-74.5 16t-85.5 3.5q-140 0 -385 -37v254q261 41 416 41q294 0 416.5 -135.5t122.5 -429.5q0 -142 -24 -245t-81 -182.5t-158.5 -119t-248.5 -39.5q-256 0 -376 113t-120 364zM373 395q0 -188 211 -188
q118 0 168.5 62t50.5 182h-426q-4 -24 -4 -56z" />
    <glyph glyph-name="uni0272" unicode="&#x272;" horiz-adv-x="1236" 
d="M262 -276q-149 -95 -393 -156v276q137 39 188 76q56 41 66 100q10 53 10 142v919h299v-59q237 94 340 94q86 0 148 -26t97.5 -66.5t56 -104.5t26.5 -126t6 -146v-647h-299v633q0 51 -0.5 69.5t-7 48.5t-21.5 48q-11 13 -30 20t-31.5 7.5t-38.5 0.5q-81 0 -246 -69v-561
q0 -218 -26 -289q-41 -118 -144 -184z" />
    <glyph glyph-name="circumflex" unicode="&#x2c6;" horiz-adv-x="1024" 
d="M39 1229l301 315h344l301 -315h-309l-166 166l-166 -166h-305z" />
    <glyph glyph-name="caron" unicode="&#x2c7;" horiz-adv-x="1024" 
d="M340 1229l-301 315h309l166 -166l166 166h305l-301 -315h-344z" />
    <glyph glyph-name="breve" unicode="&#x2d8;" horiz-adv-x="1024" 
d="M113 1544h245q18 -65 54 -98t100 -33q69 0 103.5 31.5t50.5 99.5h245q-32 -168 -128 -245.5t-271 -77.5t-266.5 77t-132.5 246z" />
    <glyph glyph-name="dotaccent" unicode="&#x2d9;" horiz-adv-x="1024" 
d="M664 1229h-304v315h304v-315z" />
    <glyph glyph-name="ring" unicode="&#x2da;" horiz-adv-x="1024" 
d="M512 1174q-135 0 -216 66.5t-81 199.5q0 131 81.5 199.5t215.5 68.5t215.5 -68.5t81.5 -199.5q0 -133 -81 -199.5t-216 -66.5zM393 1440q0 -53 32 -79t87 -26t87 26t32 79q0 106 -119 106t-119 -106z" />
    <glyph glyph-name="ogonek" unicode="&#x2db;" horiz-adv-x="1024" 
d="M524 -244q0 78 70 148q14 14 32.5 29t31.5 24.5t33.5 23.5t27.5 19h305q-106 -73 -145 -109q-52 -49 -52 -81q0 -35 52 -35q37 0 145 35v-199q-129 -39 -229 -39q-58 0 -100 6t-84 24t-64.5 56.5t-22.5 97.5z" />
    <glyph glyph-name="tilde" unicode="&#x2dc;" horiz-adv-x="1024" 
d="M246 1245h-215q59 178 124.5 247t180.5 69q49 0 97.5 -18.5t125.5 -59.5q61 -33 84 -42t49 -9q25 0 44.5 19t43.5 71h215q-28 -69 -53 -115.5t-60.5 -91t-81.5 -66.5t-104 -22q-104 0 -217 69q-56 33 -85 45.5t-54 12.5q-33 0 -50 -20.5t-44 -88.5z" />
    <glyph glyph-name="hungarumlaut" unicode="&#x2dd;" horiz-adv-x="1024" 
d="M780 1229h-280l215 315h293zM59 1229l215 315h293l-227 -315h-281z" />
    <glyph glyph-name="gravecomb" unicode="&#x300;" horiz-adv-x="1024" 
d="M782 1229h-319l-297 315h332z" />
    <glyph glyph-name="acutecomb" unicode="&#x301;" horiz-adv-x="1024" 
d="M547 1229h-320l289 315h332z" />
    <glyph glyph-name="uni0302" unicode="&#x302;" horiz-adv-x="1024" 
d="M39 1229l301 315h344l301 -315h-309l-166 166l-166 -166h-305z" />
    <glyph glyph-name="tildecomb" unicode="&#x303;" horiz-adv-x="1024" 
d="M246 1245h-215q59 178 124.5 247t180.5 69q49 0 97.5 -18.5t125.5 -59.5q61 -33 84 -42t49 -9q25 0 44.5 19t43.5 71h215q-28 -69 -53 -115.5t-60.5 -91t-81.5 -66.5t-104 -22q-104 0 -217 69q-56 33 -85 45.5t-54 12.5q-33 0 -50 -20.5t-44 -88.5z" />
    <glyph glyph-name="uni0306" unicode="&#x306;" horiz-adv-x="1024" 
d="M113 1544h245q18 -65 54 -98t100 -33q69 0 103.5 31.5t50.5 99.5h245q-32 -168 -128 -245.5t-271 -77.5t-266.5 77t-132.5 246z" />
    <glyph glyph-name="hookabovecomb" unicode="&#x309;" horiz-adv-x="681" 
d="M190 1487l-67 -25v172l31 13q68 20 125 20q99 0 167.5 -48.5t65.5 -135.5q-1 -51 -20.5 -83.5t-71.5 -74.5q-17 -14 -31 -22q-2 -1 -9 -6t-9 -7q-2 -1 -11 -10v-6l-4 -47h-163l-5 12q-8 20 -8 55q0 68 117 142q1 1 8 5t9.5 5.5t8 6t7.5 7.5t4 7.5t2 9.5q-11 14 -37 18
q-24 4 -43 4q-28 0 -66 -12z" />
    <glyph glyph-name="uni031B" unicode="&#x31b;" horiz-adv-x="681" 
d="M233 1141h-69v194h69q76 0 86 47v220h195v-232q0 -37 -18.5 -76.5t-52.5 -74t-89 -56.5t-121 -22z" />
    <glyph glyph-name="dotbelowcomb" unicode="&#x323;" horiz-adv-x="1024" 
d="M664 -442h-304v315h304v-315z" />
    <glyph glyph-name="uni0326" unicode="&#x326;" horiz-adv-x="1024" 
d="M547 -573h-195q33 161 33 309v162h250v-109q0 -195 -88 -362z" />
    <glyph glyph-name="pi" unicode="&#x3c0;" horiz-adv-x="1372" 
d="M219 801h-201v280h1321v-280h-200v-348q0 -105 6 -138q9 -45 61 -59q42 -11 105 -16v-254q-189 6 -289 34q-122 34 -158 136q-12 33 -17.5 77t-6 80.5t-0.5 139.5v348h-322v-801h-299v801z" />
    <glyph glyph-name="Wgrave" unicode="&#x1e80;" horiz-adv-x="1943" 
d="M25 1544h315l225 -1141l254 908h311l250 -908l230 1141h309l-313 -1544h-389l-244 883l-244 -883h-393zM899 1630l-297 316h332l285 -316h-320z" />
    <glyph glyph-name="wgrave" unicode="&#x1e81;" horiz-adv-x="1785" 
d="M8 1081h301l211 -780l215 780h322l217 -780l209 780h295l-299 -1081h-389l-199 723l-191 -723h-393zM524 1544h332l285 -315h-320z" />
    <glyph glyph-name="Wacute" unicode="&#x1e82;" horiz-adv-x="1943" 
d="M336 0l-311 1544h315l225 -1141l254 908h311l250 -908l230 1141h309l-313 -1544h-389l-244 883l-244 -883h-393zM1067 1630h-319l288 316h332z" />
    <glyph glyph-name="wacute" unicode="&#x1e83;" horiz-adv-x="1785" 
d="M8 1081h301l211 -780l215 780h322l217 -780l209 780h295l-299 -1081h-389l-199 723l-191 -723h-393zM991 1229h-319l289 315h331z" />
    <glyph glyph-name="Wdieresis" unicode="&#x1e84;" horiz-adv-x="1943" 
d="M25 1544h315l225 -1141l254 908h311l250 -908l230 1141h309l-313 -1544h-389l-244 883l-244 -883h-393zM1382 1630h-284v316h284v-316zM856 1630h-285v316h285v-316z" />
    <glyph glyph-name="wdieresis" unicode="&#x1e85;" horiz-adv-x="1785" 
d="M8 1081h301l211 -780l215 780h322l217 -780l209 780h295l-299 -1081h-389l-199 723l-191 -723h-393zM1012 1229v315h284v-315h-284zM770 1229h-285v315h285v-315z" />
    <glyph glyph-name="Germandbls" unicode="&#x1e9e;" horiz-adv-x="1626" 
d="M451 0h-308v750q0 93 0.5 139t4 118.5t11 116t22 94t36.5 89.5q35 65 79.5 111.5t112 84.5t164.5 57t224 19q297 0 637 -84v-283l-213 -333l71 -43q63 -37 107.5 -73t81.5 -83t55 -106t18 -132q0 -236 -143 -354q-82 -68 -182.5 -95.5t-265.5 -27.5q-132 0 -322 37v297
q203 -45 338 -45q34 0 56.5 1t53 4.5t50.5 10t42 19t34.5 30t21 44.5t8.5 61q0 72 -41 113q-32 32 -172 108l-227 125l309 487q-122 31 -287 31q-149 0 -220.5 -27t-112.5 -100q-20 -36 -30 -100t-11.5 -114.5t-1.5 -149.5v-797z" />
    <glyph glyph-name="uni1EA0" unicode="&#x1ea0;" horiz-adv-x="1529" 
d="M2 0l561 1544h402l563 -1544h-334l-102 281h-662l-100 -281h-328zM758 1235l-234 -666h469zM612 -393v315h303v-315h-303z" />
    <glyph glyph-name="uni1EA1" unicode="&#x1ea1;" 
d="M455 -35q-87 0 -153 35t-105 89t-63.5 130t-33 147t-8.5 150q0 80 6.5 146t22 129t41 111.5t64.5 89.5t90.5 68t121 41.5t154.5 14.5q117 0 233.5 -29.5t288.5 -89.5v-997h-295v139q-96 -81 -182 -127.5t-182 -46.5zM614 850q-35 0 -63.5 -6t-49.5 -16t-37.5 -27
t-27.5 -34t-19 -42t-12 -46.5t-6.5 -52.5t-3 -53.5t-0.5 -56.5q0 -126 27 -203q13 -36 37 -50.5t65 -14.5q87 0 291 176v383q-121 43 -201 43zM764 -393h-303v315h303v-315z" />
    <glyph glyph-name="uni1EA2" unicode="&#x1ea2;" horiz-adv-x="1529" 
d="M330 0h-328l561 1544h402l563 -1544h-334l-102 281h-662zM524 569h469l-235 666zM627 1864v172l28 12q68 20 125 20q99 0 166.5 -48t67.5 -136q0 -52 -19 -84t-73 -74q-5 -4 -15.5 -11t-15.5 -11q-5 -5 -19 -12q-1 -1 -4.5 -5t-5.5 -6v-6l-2 -47h-166l-2 12q-4 21 -6 31
q-1 4 -2 13t-2 12q0 43 35 79.5t82 61.5q39 19 39 41q-11 14 -37 18q-30 5 -41 5q-27 0 -68 -13z" />
    <glyph glyph-name="uni1EA3" unicode="&#x1ea3;" 
d="M455 -35q-87 0 -153 35t-105 89t-63.5 130t-33 147t-8.5 150q0 80 6.5 146t22 129t41 111.5t64.5 89.5t90.5 68t121 41.5t154.5 14.5q117 0 233.5 -29.5t288.5 -89.5v-997h-295v139q-96 -81 -182 -127.5t-182 -46.5zM614 850q-35 0 -63.5 -6t-49.5 -16t-37.5 -27
t-27.5 -34t-19 -42t-12 -46.5t-6.5 -52.5t-3 -53.5t-0.5 -56.5q0 -126 27 -203q13 -36 37 -50.5t65 -14.5q87 0 291 176v383q-121 43 -201 43zM440 1634l29 13q68 20 125 20q98 0 165.5 -48t67.5 -136q0 -52 -19 -84t-73 -74q-5 -4 -15 -11t-15 -11q-7 -7 -19 -13l-10 -10
v-6l-2 -47h-166l-2 12q-4 21 -6 31q-1 4 -2 12.5t-2 11.5q-21 70 116 142q39 20 39 41q-11 14 -37 18q-24 4 -41 4q-29 0 -67 -12l-66 -25v172z" />
    <glyph glyph-name="uni1EA4" unicode="&#x1ea4;" horiz-adv-x="1529" 
d="M2 0l561 1544h402l563 -1544h-334l-102 281h-662l-100 -281h-328zM594 1630h-305l301 316h344l301 -316h-309l-166 166zM524 569h469l-235 666zM1079 1946l289 315h332l-301 -315h-320z" />
    <glyph glyph-name="uni1EA5" unicode="&#x1ea5;" 
d="M92 516q0 80 6.5 146t22 129t41 111.5t64.5 89.5t90.5 68t121 41.5t154.5 14.5q117 0 233.5 -29.5t288.5 -89.5v-997h-295v139q-96 -81 -182 -127.5t-182 -46.5q-87 0 -153 35t-105 89t-63.5 130t-33 147t-8.5 150zM395 516q0 -126 27 -203q13 -36 37 -50.5t65 -14.5
q87 0 291 176v383q-121 43 -201 43q-35 0 -63.5 -6t-49.5 -16t-37.5 -27t-27.5 -34t-19 -42t-12 -46.5t-6.5 -52.5t-3 -53.5t-0.5 -56.5zM156 1229l301 315h344l301 -315h-309l-166 166l-166 -166h-305zM1231 1540h-320l289 315h332z" />
    <glyph glyph-name="uni1EA6" unicode="&#x1ea6;" horiz-adv-x="1529" 
d="M2 0l561 1544h402l563 -1544h-334l-102 281h-662l-100 -281h-328zM594 1630h-305l301 316h344l301 -316h-309l-166 166zM524 569h469l-235 666zM848 2261h332l284 -315h-319z" />
    <glyph glyph-name="uni1EA7" unicode="&#x1ea7;" 
d="M92 516q0 80 6.5 146t22 129t41 111.5t64.5 89.5t90.5 68t121 41.5t154.5 14.5q117 0 233.5 -29.5t288.5 -89.5v-997h-295v139q-96 -81 -182 -127.5t-182 -46.5q-87 0 -153 35t-105 89t-63.5 130t-33 147t-8.5 150zM395 516q0 -126 27 -203q13 -36 37 -50.5t65 -14.5
q87 0 291 176v383q-121 43 -201 43q-35 0 -63.5 -6t-49.5 -16t-37.5 -27t-27.5 -34t-19 -42t-12 -46.5t-6.5 -52.5t-3 -53.5t-0.5 -56.5zM156 1229l301 315h344l301 -315h-309l-166 166l-166 -166h-305zM750 1860h331l285 -316h-319z" />
    <glyph glyph-name="uni1EA8" unicode="&#x1ea8;" horiz-adv-x="1529" 
d="M330 0h-328l561 1544h402l563 -1544h-334l-102 281h-662zM594 1630h-305l301 316h344l301 -316h-309l-166 166zM758 1235l-234 -666h469zM1092 2109v172l30 13q68 20 123 20q100 0 168 -48t68 -136q0 -56 -19 -92t-73 -68q-5 -3 -15.5 -10t-15.5 -10q-2 -1 -5 -3
t-7.5 -5.5t-6.5 -4.5q-4 -2 -12 -10q2 -2 2 -6l-4 -49h-166l-2 14q-3 21 -6 31q-2 10 -2 25q0 42 33 75.5t84 65.5q1 1 8 5t9.5 5.5t8 6t7.5 7.5t4 7.5t2 9.5q-11 14 -37 18q-24 4 -43 4q-31 0 -68 -12z" />
    <glyph glyph-name="uni1EA9" unicode="&#x1ea9;" 
d="M92 516q0 80 6.5 146t22 129t41 111.5t64.5 89.5t90.5 68t121 41.5t154.5 14.5q117 0 233.5 -29.5t288.5 -89.5v-997h-295v139q-96 -81 -182 -127.5t-182 -46.5q-87 0 -153 35t-105 89t-63.5 130t-33 147t-8.5 150zM614 850q-35 0 -63.5 -6t-49.5 -16t-37.5 -27
t-27.5 -34t-19 -42t-12 -46.5t-6.5 -52.5t-3 -53.5t-0.5 -56.5q0 -126 27 -203q13 -36 37 -50.5t65 -14.5q87 0 291 176v383q-121 43 -201 43zM461 1229h-305l301 315h344l301 -315h-309l-166 166zM956 1886l29 15q68 20 125 20q98 0 165.5 -48t67.5 -136q0 -56 -19 -92
t-73 -68q-23 -13 -30 -21q-2 -2 -9 -6.5t-10 -7.5q-4 -2 -10 -8v-8l-4 -47h-164l-2 12q-4 21 -6 31q-4 12 -4 26q0 43 35 80t81 62q39 20 39 41q-11 14 -37 18q-24 4 -43 4q-27 0 -65 -12l-66 -25v170z" />
    <glyph glyph-name="uni1EAA" unicode="&#x1eaa;" horiz-adv-x="1529" 
d="M330 0h-328l561 1544h402l563 -1544h-334l-102 281h-662zM270 2042q59 177 124.5 246t180.5 69q50 0 98.5 -18.5t125.5 -59.5q61 -33 84 -42t49 -9q25 0 44.5 19t43.5 71h215q-28 -69 -53 -115.5t-60.5 -91t-81.5 -66.5t-104 -22q-102 0 -217 70q-95 57 -139 57
q-33 0 -50.5 -20.5t-44.5 -87.5h-215zM594 1630h-305l301 316h344l301 -316h-309l-166 166zM524 569h469l-235 666z" />
    <glyph glyph-name="uni1EAB" unicode="&#x1eab;" 
d="M455 -35q-87 0 -153 35t-105 89t-63.5 130t-33 147t-8.5 150q0 80 6.5 146t22 129t41 111.5t64.5 89.5t90.5 68t121 41.5t154.5 14.5q117 0 233.5 -29.5t288.5 -89.5v-997h-295v139q-96 -81 -182 -127.5t-182 -46.5zM395 516q0 -126 27 -203q13 -36 37 -50.5t65 -14.5
q87 0 291 176v383q-121 43 -201 43q-35 0 -63.5 -6t-49.5 -16t-37.5 -27t-27.5 -34t-19 -42t-12 -46.5t-6.5 -52.5t-3 -53.5t-0.5 -56.5zM139 1667q59 177 124 245.5t181 69.5q50 0 99 -18.5t125 -58.5q62 -34 84.5 -43t48.5 -9q25 0 44.5 19.5t43.5 71.5h215
q-28 -70 -53 -116.5t-60.5 -91t-81.5 -66.5t-104 -21q-104 0 -217 69q-56 33 -85 45.5t-54 12.5q-33 0 -50.5 -20.5t-44.5 -88.5h-215zM156 1229l301 315h344l301 -315h-309l-166 166l-166 -166h-305z" />
    <glyph glyph-name="uni1EAC" unicode="&#x1eac;" horiz-adv-x="1529" 
d="M330 0h-328l561 1544h402l563 -1544h-334l-102 281h-662zM598 1626h-305l301 316h344l301 -316h-309l-166 166zM524 569h469l-235 666zM612 -78h303v-315h-303v315z" />
    <glyph glyph-name="uni1EAD" unicode="&#x1ead;" 
d="M455 -35q-87 0 -153 35t-105 89t-63.5 130t-33 147t-8.5 150q0 80 6.5 146t22 129t41 111.5t64.5 89.5t90.5 68t121 41.5t154.5 14.5q117 0 233.5 -29.5t288.5 -89.5v-997h-295v139q-96 -81 -182 -127.5t-182 -46.5zM614 850q-35 0 -63.5 -6t-49.5 -16t-37.5 -27
t-27.5 -34t-19 -42t-12 -46.5t-6.5 -52.5t-3 -53.5t-0.5 -56.5q0 -126 27 -203q13 -36 37 -50.5t65 -14.5q87 0 291 176v383q-121 43 -201 43zM457 1229h-305l301 315h344l301 -315h-310l-165 166zM461 -393v315h303v-315h-303z" />
    <glyph glyph-name="uni1EAE" unicode="&#x1eae;" horiz-adv-x="1529" 
d="M2 0l561 1544h402l563 -1544h-334l-102 281h-662l-100 -281h-328zM764 1622q-175 0 -266.5 77t-132.5 247h245q18 -65 54 -98t100 -33q69 0 103.5 31.5t50.5 99.5h245q-32 -169 -128 -246.5t-271 -77.5zM524 569h469l-235 666zM606 2003l289 315h332l-301 -315h-320z" />
    <glyph glyph-name="uni1EAF" unicode="&#x1eaf;" 
d="M92 516q0 80 6.5 146t22 129t41 111.5t64.5 89.5t90.5 68t121 41.5t154.5 14.5q117 0 233.5 -29.5t288.5 -89.5v-997h-295v139q-96 -81 -182 -127.5t-182 -46.5q-87 0 -153 35t-105 89t-63.5 130t-33 147t-8.5 150zM614 850q-35 0 -63.5 -6t-49.5 -16t-37.5 -27
t-27.5 -34t-19 -42t-12 -46.5t-6.5 -52.5t-3 -53.5t-0.5 -56.5q0 -126 27 -203q13 -36 37 -50.5t65 -14.5q87 0 291 176v383q-121 43 -201 43zM621 1221q-175 0 -267 77t-133 246h246q18 -65 54 -98t100 -33q69 0 103 31.5t50 99.5h246q-32 -168 -128 -245.5t-271 -77.5z
M483 1612l289 315h332l-301 -315h-320z" />
    <glyph glyph-name="uni1EB0" unicode="&#x1eb0;" horiz-adv-x="1529" 
d="M2 0l561 1544h402l563 -1544h-334l-102 281h-662l-100 -281h-328zM365 1946h245q18 -65 54 -98t100 -33q69 0 103.5 31.5t50.5 99.5h245q-32 -169 -128 -246.5t-271 -77.5t-266.5 77t-132.5 247zM524 569h469l-235 666zM289 2324h332l284 -315h-319z" />
    <glyph glyph-name="uni1EB1" unicode="&#x1eb1;" 
d="M92 516q0 80 6.5 146t22 129t41 111.5t64.5 89.5t90.5 68t121 41.5t154.5 14.5q117 0 233.5 -29.5t288.5 -89.5v-997h-295v139q-96 -81 -182 -127.5t-182 -46.5q-87 0 -153 35t-105 89t-63.5 130t-33 147t-8.5 150zM614 850q-35 0 -63.5 -6t-49.5 -16t-37.5 -27
t-27.5 -34t-19 -42t-12 -46.5t-6.5 -52.5t-3 -53.5t-0.5 -56.5q0 -126 27 -203q13 -36 37 -50.5t65 -14.5q87 0 291 176v383q-121 43 -201 43zM621 1221q-175 0 -267 77t-133 246h246q18 -65 54 -98t100 -33q69 0 103 31.5t50 99.5h246q-32 -168 -128 -245.5t-271 -77.5z
M223 1927h332l285 -315h-320z" />
    <glyph glyph-name="uni1EB2" unicode="&#x1eb2;" horiz-adv-x="1529" 
d="M2 0l561 1544h402l563 -1544h-334l-102 281h-662l-100 -281h-328zM764 1622q-175 0 -266.5 77t-132.5 247h245q18 -65 54 -98t100 -33q69 0 103.5 31.5t50.5 99.5h245q-32 -169 -128 -246.5t-271 -77.5zM758 1235l-234 -666h469zM602 2212v170l31 14q72 21 123 21
q100 -2 167.5 -50t67.5 -137q-1 -26 -5 -43.5t-21.5 -40t-25 -30.5t-42.5 -43q-4 -4 -14.5 -10.5t-14.5 -10.5q-2 -2 -9.5 -6.5t-10.5 -7.5q-1 -1 -4.5 -3.5t-5.5 -4.5v-9l-2 -47h-166l-2 13q-3 18 -6 30q-3 15 -3 27q0 42 35 79.5t82 61.5q37 18 39 41q-11 14 -37 19
q-24 4 -43 4q-26 0 -67 -13z" />
    <glyph glyph-name="uni1EB3" unicode="&#x1eb3;" 
d="M455 -35q-87 0 -153 35t-105 89t-63.5 130t-33 147t-8.5 150q0 80 6.5 146t22 129t41 111.5t64.5 89.5t90.5 68t121 41.5t154.5 14.5q117 0 233.5 -29.5t288.5 -89.5v-997h-295v139q-96 -81 -182 -127.5t-182 -46.5zM395 516q0 -126 27 -203q13 -36 37 -50.5t65 -14.5
q87 0 291 176v383q-121 43 -201 43q-35 0 -63.5 -6t-49.5 -16t-37.5 -27t-27.5 -34t-19 -42t-12 -46.5t-6.5 -52.5t-3 -53.5t-0.5 -56.5zM621 1221q-175 0 -267 77t-133 246h246q18 -65 54 -98t100 -33q69 0 103 31.5t50 99.5h246q-32 -168 -128 -245.5t-271 -77.5z
M473 1815v170l29 14q68 20 123 20q101 -2 168 -49.5t67 -136.5q0 -56 -18 -90t-74 -68q-27 -16 -31 -20q-6 -6 -18 -15q-4 -2 -10 -8v-8l-4 -47h-164l-2 12q-1 9 -7 31q-4 20 -4 27q0 42 35.5 79.5t81.5 61.5q39 20 39 41q-11 14 -37 18q-24 4 -43 4q-28 0 -65 -12z" />
    <glyph glyph-name="uni1EB4" unicode="&#x1eb4;" horiz-adv-x="1529" 
d="M2 0l561 1544h402l563 -1544h-334l-102 281h-662l-100 -281h-328zM285 2066q59 178 124.5 247t180.5 69q49 0 97.5 -18.5t125.5 -59.5q61 -33 84 -42t49 -9q25 0 44.5 19t43.5 71h215q-28 -69 -53 -115.5t-60.5 -91t-81.5 -66.5t-104 -22q-102 0 -217 70q-95 57 -139 57
q-33 0 -50 -20.5t-44 -88.5h-215zM764 1622q-175 0 -266.5 77t-132.5 247h245q18 -65 54 -98t100 -33q69 0 103.5 31.5t50.5 99.5h245q-32 -169 -128 -246.5t-271 -77.5zM758 1235l-234 -666h469z" />
    <glyph glyph-name="uni1EB5" unicode="&#x1eb5;" 
d="M92 516q0 80 6.5 146t22 129t41 111.5t64.5 89.5t90.5 68t121 41.5t154.5 14.5q117 0 233.5 -29.5t288.5 -89.5v-997h-295v139q-96 -81 -182 -127.5t-182 -46.5q-87 0 -153 35t-105 89t-63.5 130t-33 147t-8.5 150zM395 516q0 -126 27 -203q13 -36 37 -50.5t65 -14.5
q87 0 291 176v383q-121 43 -201 43q-35 0 -63.5 -6t-49.5 -16t-37.5 -27t-27.5 -34t-19 -42t-12 -46.5t-6.5 -52.5t-3 -53.5t-0.5 -56.5zM176 1661q59 177 124.5 246t180.5 69q50 0 98.5 -18.5t125.5 -59.5q61 -33 84 -42t49 -9q25 0 44.5 19t43.5 71h215
q-28 -69 -53 -115.5t-60.5 -91t-81.5 -66.5t-104 -22q-102 0 -217 70q-95 57 -140 57q-33 0 -50 -20t-44 -88h-215zM221 1544h246q18 -65 54 -98t100 -33q69 0 103 31.5t50 99.5h246q-32 -168 -128 -245.5t-271 -77.5t-267 77t-133 246z" />
    <glyph glyph-name="uni1EB6" unicode="&#x1eb6;" horiz-adv-x="1529" 
d="M2 0l561 1544h402l563 -1544h-334l-102 281h-662l-100 -281h-328zM367 1952h245q18 -65 54 -98t100 -33q69 0 102.5 31t51.5 100h245q-32 -169 -128 -246.5t-271 -77.5t-266.5 77t-132.5 247zM758 1235l-234 -666h469zM915 -393h-303v315h303v-315z" />
    <glyph glyph-name="uni1EB7" unicode="&#x1eb7;" 
d="M455 -35q-87 0 -153 35t-105 89t-63.5 130t-33 147t-8.5 150q0 80 6.5 146t22 129t41 111.5t64.5 89.5t90.5 68t121 41.5t154.5 14.5q117 0 233.5 -29.5t288.5 -89.5v-997h-295v139q-96 -81 -182 -127.5t-182 -46.5zM395 516q0 -126 27 -203q13 -36 37 -50.5t65 -14.5
q87 0 291 176v383q-121 43 -201 43q-35 0 -63.5 -6t-49.5 -16t-37.5 -27t-27.5 -34t-19 -42t-12 -46.5t-6.5 -52.5t-3 -53.5t-0.5 -56.5zM625 1221q-175 0 -267 77t-133 246h246q18 -65 54 -98t100 -33q69 0 102 31t51 100h246q-32 -168 -128 -245.5t-271 -77.5zM461 -78
h303v-315h-303v315z" />
    <glyph glyph-name="uni1EB8" unicode="&#x1eb8;" horiz-adv-x="1345" 
d="M147 0v1544h1094v-289h-786v-325h741v-289h-741v-352h821v-289h-1129zM551 -117h303v-315h-303v315z" />
    <glyph glyph-name="uni1EB9" unicode="&#x1eb9;" horiz-adv-x="1187" 
d="M631 -35q-292 0 -415.5 137t-123.5 428q0 142 24 245t81 182.5t158.5 119t248.5 39.5q256 0 376 -113t120 -364q0 -114 -21 -221h-694q0 -195 277 -195q133 0 385 37v-254q-261 -41 -416 -41zM449 -106h303v-316h-303v316zM604 874q-117 0 -168 -62.5t-51 -180.5h426
q4 24 4 55q0 188 -211 188z" />
    <glyph glyph-name="uni1EBA" unicode="&#x1eba;" horiz-adv-x="1345" 
d="M147 1544h1094v-289h-786v-325h741v-289h-741v-352h821v-289h-1129v1544zM539 1905v172l28 12q68 20 125 20q99 0 166.5 -48t67.5 -136q0 -52 -19 -84t-73 -74q-5 -4 -15.5 -11t-15.5 -11q-5 -5 -19 -12q-1 -1 -4.5 -5t-5.5 -6v-6l-2 -47h-166l-2 12q-4 21 -6 31
q-1 4 -2 13t-2 12q0 43 35 79.5t82 61.5q39 20 39 41q-11 14 -37 18q-30 5 -41 5q-27 0 -68 -13z" />
    <glyph glyph-name="uni1EBB" unicode="&#x1ebb;" horiz-adv-x="1187" 
d="M92 530q0 142 24 245t81 182.5t158.5 119t248.5 39.5q256 0 376 -113t120 -364q0 -114 -21 -221h-694q0 -195 277 -195q133 0 385 37v-254q-261 -41 -416 -41q-149 0 -252.5 34.5t-167 106.5t-91.5 175.5t-28 248.5zM440 1462v172l31 13q68 20 123 20q100 0 167.5 -48
t67.5 -136q0 -51 -19.5 -83t-72.5 -75q-20 -16 -30 -22q-2 -1 -5 -3t-7.5 -5.5t-6.5 -4.5q-4 -2 -12 -10q2 -2 2 -6l-4 -47h-166l-2 12q-4 21 -6 31t-2 24q0 69 116 142q1 1 8 5t9.5 5.5t8 6t7.5 7.5t4 7.5t2 9.5q-11 14 -37 18q-24 4 -43 4q-29 0 -67 -12zM604 874
q-117 0 -168 -62.5t-51 -180.5h426q4 24 4 55q0 188 -211 188z" />
    <glyph glyph-name="uni1EBC" unicode="&#x1ebc;" horiz-adv-x="1345" 
d="M147 1544h1094v-289h-786v-325h741v-289h-741v-352h821v-289h-1129v1544zM438 1647h-215q59 177 124.5 246t180.5 69q50 0 98.5 -18.5t125.5 -59.5q61 -33 84 -42t49 -9q25 0 44.5 19t43.5 71h215q-28 -69 -53 -115.5t-60.5 -91t-81.5 -66.5t-104 -22q-102 0 -217 70
q-95 57 -140 57q-33 0 -50 -20t-44 -88z" />
    <glyph glyph-name="uni1EBD" unicode="&#x1ebd;" horiz-adv-x="1187" 
d="M92 530q0 142 24 245t81 182.5t158.5 119t248.5 39.5q256 0 376 -113t120 -364q0 -114 -21 -221h-694q0 -195 277 -195q133 0 385 37v-254q-261 -41 -416 -41q-149 0 -252.5 34.5t-167 106.5t-91.5 175.5t-28 248.5zM137 1245q59 178 124.5 247t180.5 69q50 0 98.5 -18.5
t125.5 -59.5q61 -33 84 -42t49 -9q25 0 44.5 19t43.5 71h215q-28 -69 -53 -115.5t-60.5 -91t-81.5 -66.5t-104 -22q-104 0 -217 69q-56 33 -85 45.5t-55 12.5q-33 0 -50 -20.5t-44 -88.5h-215zM604 874q-117 0 -168 -62.5t-51 -180.5h426q4 24 4 55q0 188 -211 188z" />
    <glyph glyph-name="uni1EBE" unicode="&#x1ebe;" horiz-adv-x="1345" 
d="M147 1544h1094v-289h-786v-325h741v-289h-741v-352h821v-289h-1129v1544zM205 1630l301 316h344l301 -316h-309l-166 166l-166 -166h-305zM983 1950l289 315h332l-301 -315h-320z" />
    <glyph glyph-name="uni1EBF" unicode="&#x1ebf;" horiz-adv-x="1187" 
d="M631 -35q-292 0 -415.5 137t-123.5 428q0 142 24 245t81 182.5t158.5 119t248.5 39.5q256 0 376 -113t120 -364q0 -114 -21 -221h-694q0 -195 277 -195q133 0 385 37v-254q-261 -41 -416 -41zM127 1229l301 315h344l301 -315h-309l-166 166l-166 -166h-305zM899 1544
l289 316h332l-301 -316h-320zM385 631h426q4 24 4 55q0 188 -211 188q-117 0 -168 -62.5t-51 -180.5z" />
    <glyph glyph-name="uni1EC0" unicode="&#x1ec0;" horiz-adv-x="1345" 
d="M147 1544h1094v-289h-786v-325h741v-289h-741v-352h821v-289h-1129v1544zM205 1630l301 316h344l301 -316h-309l-166 166l-166 -166h-305zM1038 1950l-297 315h332l285 -315h-320z" />
    <glyph glyph-name="uni1EC1" unicode="&#x1ec1;" horiz-adv-x="1187" 
d="M631 -35q-292 0 -415.5 137t-123.5 428q0 142 24 245t81 182.5t158.5 119t248.5 39.5q256 0 376 -113t120 -364q0 -114 -21 -221h-694q0 -195 277 -195q133 0 385 37v-254q-261 -41 -416 -41zM127 1229l301 315h344l301 -315h-309l-166 166l-166 -166h-305zM666 1860h331
l285 -316h-319zM385 631h426q4 24 4 55q0 188 -211 188q-117 0 -168 -62.5t-51 -180.5z" />
    <glyph glyph-name="uni1EC2" unicode="&#x1ec2;" horiz-adv-x="1345" 
d="M147 0v1544h1094v-289h-786v-325h741v-289h-741v-352h821v-289h-1129zM510 1630h-305l301 316h344l301 -316h-309l-166 166zM985 2267l29 12q72 21 125 21q98 0 165.5 -48t67.5 -136q0 -56 -19 -92t-73 -68q-25 -15 -31 -21q-2 -2 -5 -4t-7 -4.5t-6 -3.5l-10 -10v-6
l-4 -49h-164l-2 12q-3 24 -7 33q-4 10 -4 24q0 43 35 79.5t82 61.5q39 20 39 41q-12 15 -37 19q-24 4 -43 4q-28 0 -65 -12l-66 -25v172z" />
    <glyph glyph-name="uni1EC3" unicode="&#x1ec3;" horiz-adv-x="1187" 
d="M631 -35q-292 0 -415.5 137t-123.5 428q0 142 24 245t81 182.5t158.5 119t248.5 39.5q256 0 376 -113t120 -364q0 -114 -21 -221h-694q0 -195 277 -195q133 0 385 37v-254q-261 -41 -416 -41zM432 1229h-305l301 315h344l301 -315h-309l-166 166zM922 1704v172l28 12
q72 21 125 21q98 0 166 -48.5t68 -136.5q0 -56 -19 -91.5t-73 -67.5q-5 -3 -15.5 -10.5t-15.5 -10.5q-4 -2 -19 -12l-10 -10v-6l-4 -50h-164l-2 15q-3 18 -6 30q-4 10 -4 25q0 43 35 80t82 61q39 19 39 41q-12 15 -37 19q-24 4 -43 4q-29 0 -66 -12zM604 874
q-117 0 -168 -62.5t-51 -180.5h426q4 24 4 55q0 188 -211 188z" />
    <glyph glyph-name="uni1EC4" unicode="&#x1ec4;" horiz-adv-x="1345" 
d="M147 0v1544h1094v-289h-786v-325h741v-289h-741v-352h821v-289h-1129zM401 2038h-215q59 177 125 246t181 69q49 0 97.5 -18.5t125.5 -59.5q61 -33 84 -42t49 -9q25 0 44.5 19t43.5 71h215q-28 -69 -53 -115.5t-60.5 -91t-81.5 -66.5t-104 -22q-102 0 -217 70
q-95 57 -139 57q-33 0 -50.5 -20.5t-44.5 -87.5zM205 1630l301 316h344l301 -316h-309l-166 166l-166 -166h-305z" />
    <glyph glyph-name="uni1EC5" unicode="&#x1ec5;" horiz-adv-x="1187" 
d="M631 -35q-292 0 -415.5 137t-123.5 428q0 142 24 245t81 182.5t158.5 119t248.5 39.5q256 0 376 -113t120 -364q0 -114 -21 -221h-694q0 -195 277 -195q133 0 385 37v-254q-261 -41 -416 -41zM113 1655q59 177 124.5 246t180.5 69q50 0 100 -18.5t123 -59.5
q57 -32 79.5 -41.5t45.5 -9.5h8q25 0 44.5 19t43.5 71h215q-28 -69 -53 -116t-61 -91t-82 -66t-103 -22q-102 0 -217 70q-95 57 -139 57q-33 0 -50 -20t-44 -88h-215zM127 1229l301 315h344l301 -315h-309l-166 166l-166 -166h-305zM604 874q-117 0 -168 -62.5t-51 -180.5
h426q4 24 4 55q0 188 -211 188z" />
    <glyph glyph-name="uni1EC6" unicode="&#x1ec6;" horiz-adv-x="1345" 
d="M147 1544h1094v-289h-786v-325h741v-289h-741v-352h821v-289h-1129v1544zM201 1626l301 316h344l301 -316h-309l-166 166l-166 -166h-305zM551 -432v315h303v-315h-303z" />
    <glyph glyph-name="uni1EC7" unicode="&#x1ec7;" horiz-adv-x="1187" 
d="M631 -35q-292 0 -415.5 137t-123.5 428q0 142 24 245t81 182.5t158.5 119t248.5 39.5q256 0 376 -113t120 -364q0 -114 -21 -221h-694q0 -195 277 -195q133 0 385 37v-254q-261 -41 -416 -41zM426 1229h-305l301 315h344l301 -315h-309l-166 166zM449 -422v316h303v-316
h-303zM604 874q-117 0 -168 -62.5t-51 -180.5h426q4 24 4 55q0 188 -211 188z" />
    <glyph glyph-name="uni1EC8" unicode="&#x1ec8;" horiz-adv-x="602" 
d="M455 0h-308v1544h308v-1544zM135 2097l31 12q72 21 123 21q100 0 167.5 -48t67.5 -136q0 -51 -19.5 -83t-72.5 -75q-22 -18 -31 -23l-18 -12q-4 -2 -12 -10q2 -2 2 -6l-4 -47h-166l-2 12q-3 21 -6 31q-2 10 -2 24q0 68 116 141q1 1 8 5t9.5 5.5t8 6t7.5 7.5t4 7.5t2 9.5
q-12 15 -37 19q-24 4 -43 4q-29 0 -67 -12l-66 -25v172z" />
    <glyph glyph-name="uni1EC9" unicode="&#x1ec9;" horiz-adv-x="565" 
d="M432 0h-299v1081h299v-1081zM115 1634l30 13q68 20 123 20q100 0 168 -48t68 -136q0 -51 -19.5 -83t-72.5 -75q-17 -14 -31 -22q-2 -1 -5 -3t-7.5 -5.5t-6.5 -4.5q-4 -2 -12 -10q2 -2 2 -6l-4 -47h-166l-2 12q-4 21 -6 31t-2 24q0 68 117 142q1 1 8 5t9.5 5.5t8 6
t7.5 7.5t4 7.5t2 9.5q-11 14 -37 18q-24 4 -43 4q-31 0 -68 -12l-65 -25v172z" />
    <glyph glyph-name="uni1ECA" unicode="&#x1eca;" horiz-adv-x="602" 
d="M455 0h-308v1544h308v-1544zM453 -393h-303v315h303v-315z" />
    <glyph glyph-name="uni1ECB" unicode="&#x1ecb;" horiz-adv-x="565" 
d="M432 0h-299v1081h299v-1081zM133 -393v315h303v-315h-303zM432 1229h-299v315h299v-315z" />
    <glyph glyph-name="uni1ECC" unicode="&#x1ecc;" horiz-adv-x="1597" 
d="M117 768q0 368 112 549q41 66 86.5 111.5t112 81t158.5 52.5t213 17q207 0 329.5 -55.5t210.5 -177.5q142 -194 142 -578q0 -377 -144 -573q-89 -121 -209 -175.5t-329 -54.5q-120 0 -209.5 15t-154 47.5t-108.5 73.5t-85 102q-125 186 -125 565zM428 768q0 -279 70 -391
q44 -70 117.5 -95.5t183.5 -25.5q96 0 164.5 27.5t107.5 70.5t61.5 113.5t29.5 138.5t7 162q0 66 -3 116.5t-12.5 107t-25.5 97.5t-44 80.5t-66.5 64t-93.5 39.5t-125 15q-109 0 -182 -26t-119 -99q-70 -115 -70 -395zM637 -78h303v-315h-303v315z" />
    <glyph glyph-name="uni1ECD" unicode="&#x1ecd;" horiz-adv-x="1249" 
d="M92 539q0 280 127 428.5t406 148.5q532 0 532 -577q0 -271 -130.5 -422.5t-401.5 -151.5q-277 0 -405 147.5t-128 426.5zM395 539q0 -68 9 -117.5t33 -93t71 -66t117 -22.5t117 24t70.5 69t32.5 95t9 117q0 68 -9.5 118t-33.5 92.5t-70.5 64.5t-115.5 22q-57 0 -99 -16
t-67 -42t-39.5 -66.5t-19.5 -82t-5 -96.5zM473 -78h303v-315h-303v315z" />
    <glyph glyph-name="uni1ECE" unicode="&#x1ece;" horiz-adv-x="1597" 
d="M117 768q0 368 112 549q41 66 86.5 111.5t112 81t158.5 52.5t213 17q207 0 329.5 -55.5t210.5 -177.5q142 -194 142 -578q0 -377 -144 -573q-89 -121 -209 -175.5t-329 -54.5q-120 0 -209.5 15t-154 47.5t-108.5 73.5t-85 102q-125 186 -125 565zM498 1163
q-70 -115 -70 -395q0 -279 70 -391q44 -70 117.5 -95.5t183.5 -25.5q96 0 164.5 27.5t107.5 70.5t61.5 113.5t29.5 138.5t7 162q0 66 -3 116.5t-12.5 107t-25.5 97.5t-44 80.5t-66.5 64t-93.5 39.5t-125 15q-109 0 -182 -26t-119 -99zM604 2097l31 12q72 21 123 21
q100 0 167.5 -48t67.5 -136q0 -51 -19.5 -83t-72.5 -75q-22 -18 -31 -23q-2 -1 -5 -3t-7 -5t-6 -4q-4 -2 -12 -10q2 -2 2 -6l-4 -47h-166l-2 12q-4 21 -6 31t-2 24q0 68 116 141q1 1 8 5t9.5 5.5t8 6t7.5 7.5t4 7.5t2 9.5q-12 15 -37 19q-24 4 -43 4q-29 0 -67 -12l-66 -25
v172z" />
    <glyph glyph-name="uni1ECF" unicode="&#x1ecf;" horiz-adv-x="1249" 
d="M625 -35q-277 0 -405 147.5t-128 426.5q0 280 127 428.5t406 148.5q532 0 532 -577q0 -271 -130.5 -422.5t-401.5 -151.5zM625 842q-57 0 -99 -16t-67 -42t-39.5 -66.5t-19.5 -82t-5 -96.5q0 -68 9 -117.5t33 -93t71 -66t117 -22.5t117 24t70.5 69t32.5 95t9 117
q0 68 -9.5 118t-33.5 92.5t-70.5 64.5t-115.5 22zM430 1462v172l31 13q68 20 123 20q100 0 167.5 -48t67.5 -136q0 -51 -19.5 -83t-72.5 -75q-17 -14 -31 -22q-2 -1 -9 -6t-9 -7q-4 -2 -12 -10q2 -2 2 -6l-4 -47h-166l-2 12q-2 9 -7 31q-2 10 -2 24q0 68 117 142q1 1 8 5
t9.5 5.5t8 6t7.5 7.5t4 7.5t2 9.5q-11 14 -37 18q-24 4 -43 4q-29 0 -67 -12z" />
    <glyph glyph-name="uni1ED0" unicode="&#x1ed0;" horiz-adv-x="1597" 
d="M117 768q0 368 112 549q41 66 86.5 111.5t112 81t158.5 52.5t213 17q207 0 329.5 -55.5t210.5 -177.5q142 -194 142 -578q0 -377 -144 -573q-89 -121 -209 -175.5t-329 -54.5q-120 0 -209.5 15t-154 47.5t-108.5 73.5t-85 102q-125 186 -125 565zM428 768q0 -279 70 -391
q44 -70 117.5 -95.5t183.5 -25.5q96 0 164.5 27.5t107.5 70.5t61.5 113.5t29.5 138.5t7 162q0 66 -3 116.5t-12.5 107t-25.5 97.5t-44 80.5t-66.5 64t-93.5 39.5t-125 15q-109 0 -182 -26t-119 -99q-70 -115 -70 -395zM631 1630h-305l301 316h344l301 -316h-309l-166 166z
M1096 1948l288 315h332l-301 -315h-319z" />
    <glyph glyph-name="uni1ED1" unicode="&#x1ed1;" horiz-adv-x="1249" 
d="M92 539q0 280 127 428.5t406 148.5q532 0 532 -577q0 -271 -130.5 -422.5t-401.5 -151.5q-277 0 -405 147.5t-128 426.5zM625 842q-57 0 -99 -16t-67 -42t-39.5 -66.5t-19.5 -82t-5 -96.5q0 -68 9 -117.5t33 -93t71 -66t117 -22.5t117 24t70.5 69t32.5 95t9 117
q0 68 -9.5 118t-33.5 92.5t-70.5 64.5t-115.5 22zM457 1229h-305l301 315h344l301 -315h-310l-165 166zM1225 1548h-320l289 316h332z" />
    <glyph glyph-name="uni1ED2" unicode="&#x1ed2;" horiz-adv-x="1597" 
d="M117 768q0 368 112 549q41 66 86.5 111.5t112 81t158.5 52.5t213 17q207 0 329.5 -55.5t210.5 -177.5q142 -194 142 -578q0 -377 -144 -573q-89 -121 -209 -175.5t-329 -54.5q-120 0 -209.5 15t-154 47.5t-108.5 73.5t-85 102q-125 186 -125 565zM428 768q0 -279 70 -391
q44 -70 117.5 -95.5t183.5 -25.5q96 0 164.5 27.5t107.5 70.5t61.5 113.5t29.5 138.5t7 162q0 66 -3 116.5t-12.5 107t-25.5 97.5t-44 80.5t-66.5 64t-93.5 39.5t-125 15q-109 0 -182 -26t-119 -99q-70 -115 -70 -395zM631 1630h-305l301 316h344l301 -316h-309l-166 166z
M1194 1948l-297 315h332l284 -315h-319z" />
    <glyph glyph-name="uni1ED3" unicode="&#x1ed3;" horiz-adv-x="1249" 
d="M92 539q0 280 127 428.5t406 148.5q532 0 532 -577q0 -271 -130.5 -422.5t-401.5 -151.5q-277 0 -405 147.5t-128 426.5zM625 842q-57 0 -99 -16t-67 -42t-39.5 -66.5t-19.5 -82t-5 -96.5q0 -68 9 -117.5t33 -93t71 -66t117 -22.5t117 24t70.5 69t32.5 95t9 117
q0 68 -9.5 118t-33.5 92.5t-70.5 64.5t-115.5 22zM457 1229h-305l301 315h344l301 -315h-310l-165 166zM981 1544l-297 316h332l284 -316h-319z" />
    <glyph glyph-name="uni1ED4" unicode="&#x1ed4;" horiz-adv-x="1597" 
d="M117 768q0 368 112 549q41 66 86.5 111.5t112 81t158.5 52.5t213 17q207 0 329.5 -55.5t210.5 -177.5q142 -194 142 -578q0 -377 -144 -573q-89 -121 -209 -175.5t-329 -54.5q-120 0 -209.5 15t-154 47.5t-108.5 73.5t-85 102q-125 186 -125 565zM428 768q0 -279 70 -391
q44 -70 117.5 -95.5t183.5 -25.5q96 0 164.5 27.5t107.5 70.5t61.5 113.5t29.5 138.5t7 162q0 66 -3 116.5t-12.5 107t-25.5 97.5t-44 80.5t-66.5 64t-93.5 39.5t-125 15q-109 0 -182 -26t-119 -99q-70 -115 -70 -395zM631 1630h-305l301 316h344l301 -316h-309l-166 166z
M1163 2263l29 14q72 21 123 21q100 -2 167.5 -50t67.5 -137q0 -55 -19 -90t-73 -67q-25 -15 -31 -21q-2 -2 -8.5 -6.5t-9.5 -7.5q-4 -2 -10 -8v-8l-4 -48h-164l-2 13q-3 18 -6 30q-4 10 -4 27q0 43 34.5 79.5t81.5 61.5q39 20 39 41q-12 15 -37 19q-24 4 -43 4
q-28 0 -65 -12l-66 -25v170z" />
    <glyph glyph-name="uni1ED5" unicode="&#x1ed5;" horiz-adv-x="1249" 
d="M625 -35q-277 0 -405 147.5t-128 426.5q0 280 127 428.5t406 148.5q532 0 532 -577q0 -271 -130.5 -422.5t-401.5 -151.5zM395 539q0 -68 9 -117.5t33 -93t71 -66t117 -22.5t117 24t70.5 69t32.5 95t9 117q0 68 -9.5 118t-33.5 92.5t-70.5 64.5t-115.5 22q-57 0 -99 -16
t-67 -42t-39.5 -66.5t-19.5 -82t-5 -96.5zM457 1229h-305l301 315h344l301 -315h-310l-165 166zM1001 1878l29 14q62 19 121 19q101 0 169.5 -48t68.5 -137q0 -51 -19.5 -82.5t-73.5 -74.5q-25 -20 -30 -23q-9 -4 -19 -12q-1 -1 -2.5 -2t-3.5 -3t-4 -5v-6l-4 -48h-164l-2 13
q-3 18 -6 30q-4 20 -4 27q0 42 35 79.5t82 61.5q38 19 38 39q-15 19 -36 19q-6 0 -22 1t-24 1q-26 3 -63 -10l-66 -25v172z" />
    <glyph glyph-name="uni1ED6" unicode="&#x1ed6;" horiz-adv-x="1597" 
d="M242 203q-125 186 -125 565q0 368 112 549q41 66 86.5 111.5t112 81t158.5 52.5t213 17q207 0 329.5 -55.5t210.5 -177.5q142 -194 142 -578q0 -377 -144 -573q-89 -121 -209 -175.5t-329 -54.5q-120 0 -209.5 15t-154 47.5t-108.5 73.5t-85 102zM498 1163
q-70 -115 -70 -395q0 -279 70 -391q44 -70 117.5 -95.5t183.5 -25.5q96 0 164.5 27.5t107.5 70.5t61.5 113.5t29.5 138.5t7 162q0 66 -3 116.5t-12.5 107t-25.5 97.5t-44 80.5t-66.5 64t-93.5 39.5t-125 15q-109 0 -182 -26t-119 -99zM307 2046q59 177 124.5 246t180.5 69
q50 0 99 -18.5t125 -58.5q62 -34 84.5 -43t48.5 -9q25 0 44.5 19t43.5 71h215q-22 -55 -41 -93.5t-46.5 -79t-56.5 -65.5t-68.5 -40.5t-86.5 -15.5q-104 0 -217 69q-95 57 -140 57q-33 0 -50 -20t-44 -88h-215zM631 1630h-305l301 316h344l301 -316h-309l-166 166z" />
    <glyph glyph-name="uni1ED7" unicode="&#x1ed7;" horiz-adv-x="1249" 
d="M92 539q0 280 127 428.5t406 148.5q532 0 532 -577q0 -271 -130.5 -422.5t-401.5 -151.5q-277 0 -405 147.5t-128 426.5zM625 842q-57 0 -99 -16t-67 -42t-39.5 -66.5t-19.5 -82t-5 -96.5q0 -68 9 -117.5t33 -93t71 -66t117 -22.5t117 24t70.5 69t32.5 95t9 117
q0 68 -9.5 118t-33.5 92.5t-70.5 64.5t-115.5 22zM360 1653h-215q60 177 123.5 246t175.5 69q40 0 85 -13.5t68.5 -25t76.5 -39.5q61 -33 84 -42t49 -9q25 0 44.5 19t43.5 71h215q-28 -69 -53 -115.5t-60.5 -91t-81.5 -66.5t-104 -22q-102 0 -217 70q-54 32 -81.5 44.5
t-51.5 12.5h-6q-33 0 -50.5 -20.5t-44.5 -87.5zM152 1229l301 315h344l301 -315h-310l-165 166l-166 -166h-305z" />
    <glyph glyph-name="uni1ED8" unicode="&#x1ed8;" horiz-adv-x="1597" 
d="M242 203q-125 186 -125 565q0 368 112 549q41 66 86.5 111.5t112 81t158.5 52.5t213 17q207 0 329.5 -55.5t210.5 -177.5q142 -194 142 -578q0 -377 -144 -573q-89 -121 -209 -175.5t-329 -54.5q-120 0 -209.5 15t-154 47.5t-108.5 73.5t-85 102zM498 1163
q-70 -115 -70 -395q0 -279 70 -391q44 -70 117.5 -95.5t183.5 -25.5q96 0 164.5 27.5t107.5 70.5t61.5 113.5t29.5 138.5t7 162q0 66 -3 116.5t-12.5 107t-25.5 97.5t-44 80.5t-66.5 64t-93.5 39.5t-125 15q-109 0 -182 -26t-119 -99zM631 1642h-305l301 316h344l301 -316
h-309l-166 166zM637 -393v315h303v-315h-303z" />
    <glyph glyph-name="uni1ED9" unicode="&#x1ed9;" horiz-adv-x="1249" 
d="M625 -35q-277 0 -405 147.5t-128 426.5q0 280 127 428.5t406 148.5q532 0 532 -577q0 -271 -130.5 -422.5t-401.5 -151.5zM625 842q-57 0 -99 -16t-67 -42t-39.5 -66.5t-19.5 -82t-5 -96.5q0 -68 9 -117.5t33 -93t71 -66t117 -22.5t117 24t70.5 69t32.5 95t9 117
q0 68 -9.5 118t-33.5 92.5t-70.5 64.5t-115.5 22zM152 1229l301 315h344l301 -315h-310l-165 166l-166 -166h-305zM473 -393v315h303v-315h-303z" />
    <glyph glyph-name="uni1EDA" unicode="&#x1eda;" horiz-adv-x="1669" 
d="M242 203q-125 186 -125 565q0 368 112 549q41 66 86.5 111.5t112 81t158.5 52.5t213 17q196 0 330.5 -56t228.5 -204h8q76 0 86 47l2 219h195v-231q0 -68 -56.5 -136t-152.5 -88q41 -154 41 -362q0 -377 -144 -573q-89 -121 -209 -175.5t-329 -54.5q-120 0 -209.5 15
t-154 47.5t-108.5 73.5t-85 102zM498 1163q-70 -115 -70 -395q0 -279 70 -391q44 -70 117.5 -95.5t183.5 -25.5q96 0 164.5 27.5t107.5 70.5t61.5 113.5t29.5 138.5t7 162q0 66 -3 116.5t-12.5 107t-25.5 97.5t-44 80.5t-66.5 64t-93.5 39.5t-125 15q-109 0 -182 -26
t-119 -99zM930 1692h-320l289 315h332z" />
    <glyph glyph-name="uni1EDB" unicode="&#x1edb;" horiz-adv-x="1419" 
d="M625 -35q-277 0 -405 147.5t-128 426.5q0 280 127 428.5t406 148.5q156 0 280.5 -60t188.5 -188h32q75 0 88 47v220h195v-232q0 -78 -71 -150t-189 -79q8 -57 8 -135q0 -271 -130.5 -422.5t-401.5 -151.5zM625 842q-57 0 -99 -16t-67 -42t-39.5 -66.5t-19.5 -82t-5 -96.5
q0 -68 9 -117.5t33 -93t71 -66t117 -22.5t117 24t70.5 69t32.5 95t9 117q0 68 -9.5 118t-33.5 92.5t-70.5 64.5t-115.5 22zM731 1229h-319l288 315h332z" />
    <glyph glyph-name="uni1EDC" unicode="&#x1edc;" horiz-adv-x="1669" 
d="M242 203q-125 186 -125 565q0 368 112 549q41 66 86.5 111.5t112 81t158.5 52.5t213 17q196 0 330.5 -56t228.5 -204h8q76 0 86 47l2 219h195v-231q0 -68 -56.5 -136t-152.5 -88q41 -154 41 -362q0 -377 -144 -573q-89 -121 -209 -175.5t-329 -54.5q-120 0 -209.5 15
t-154 47.5t-108.5 73.5t-85 102zM498 1163q-70 -115 -70 -395q0 -279 70 -391q44 -70 117.5 -95.5t183.5 -25.5q96 0 164.5 27.5t107.5 70.5t61.5 113.5t29.5 138.5t7 162q0 66 -3 116.5t-12.5 107t-25.5 97.5t-44 80.5t-66.5 64t-93.5 39.5t-125 15q-109 0 -182 -26
t-119 -99zM768 1692l-297 315h332l284 -315h-319z" />
    <glyph glyph-name="uni1EDD" unicode="&#x1edd;" horiz-adv-x="1419" 
d="M92 539q0 280 127 428.5t406 148.5q156 0 280.5 -60t188.5 -188h32q75 0 88 47v220h195v-232q0 -78 -71 -150t-189 -79q8 -57 8 -135q0 -271 -130.5 -422.5t-401.5 -151.5q-277 0 -405 147.5t-128 426.5zM625 842q-57 0 -99 -16t-67 -42t-39.5 -66.5t-19.5 -82t-5 -96.5
q0 -68 9 -117.5t33 -93t71 -66t117 -22.5t117 24t70.5 69t32.5 95t9 117q0 68 -9.5 118t-33.5 92.5t-70.5 64.5t-115.5 22zM272 1544h332l285 -315h-320z" />
    <glyph glyph-name="uni1EDE" unicode="&#x1ede;" horiz-adv-x="1669" 
d="M117 768q0 368 112 549q41 66 86.5 111.5t112 81t158.5 52.5t213 17q196 0 330.5 -56t228.5 -204h8q76 0 86 47l2 219h195v-231q0 -68 -56.5 -136t-152.5 -88q41 -154 41 -362q0 -377 -144 -573q-89 -121 -209 -175.5t-329 -54.5q-120 0 -209.5 15t-154 47.5t-108.5 73.5
t-85 102q-125 186 -125 565zM498 1163q-70 -115 -70 -395q0 -279 70 -391q44 -70 117.5 -95.5t183.5 -25.5q96 0 164.5 27.5t107.5 70.5t61.5 113.5t29.5 138.5t7 162q0 66 -3 116.5t-12.5 107t-25.5 97.5t-44 80.5t-66.5 64t-93.5 39.5t-125 15q-109 0 -182 -26t-119 -99z
M655 2097l31 12q72 21 123 21q100 0 167.5 -48t67.5 -136q0 -51 -19.5 -83t-72.5 -75q-25 -20 -30 -23q-4 -2 -19 -12q-4 -2 -12 -10q2 -2 2 -6l-4 -47h-166l-2 12q-3 21 -6 31q-2 10 -2 24q0 68 116 141q1 1 8 5t9.5 5.5t8 6t7.5 7.5t4 7.5t2 9.5q-12 15 -37 19
q-24 4 -43 4q-30 0 -67 -12l-66 -25v172z" />
    <glyph glyph-name="uni1EDF" unicode="&#x1edf;" horiz-adv-x="1419" 
d="M92 539q0 280 127 428.5t406 148.5q156 0 280.5 -60t188.5 -188h32q75 0 88 47v220h195v-232q0 -78 -71 -150t-189 -79q8 -57 8 -135q0 -271 -130.5 -422.5t-401.5 -151.5q-277 0 -405 147.5t-128 426.5zM625 842q-57 0 -99 -16t-67 -42t-39.5 -66.5t-19.5 -82t-5 -96.5
q0 -68 9 -117.5t33 -93t71 -66t117 -22.5t117 24t70.5 69t32.5 95t9 117q0 68 -9.5 118t-33.5 92.5t-70.5 64.5t-115.5 22zM494 1462v172l28 13q68 20 125 20q99 0 166.5 -48t67.5 -136q0 -51 -19.5 -83.5t-73.5 -74.5q-5 -4 -15 -11t-15 -11q-7 -7 -19 -13l-10 -10v-6
l-2 -47h-166l-2 12q-3 21 -6 31q-1 4 -2 12.5t-2 11.5q0 43 35 80t82 62q39 20 39 41q-11 14 -37 18q-24 4 -41 4q-31 0 -68 -12z" />
    <glyph glyph-name="uni1EE0" unicode="&#x1ee0;" horiz-adv-x="1669" 
d="M242 203q-125 186 -125 565q0 368 112 549q41 66 86.5 111.5t112 81t158.5 52.5t213 17q196 0 330.5 -56t228.5 -204h8q76 0 86 47l2 219h195v-231q0 -68 -56.5 -136t-152.5 -88q41 -154 41 -362q0 -377 -144 -573q-89 -121 -209 -175.5t-329 -54.5q-120 0 -209.5 15
t-154 47.5t-108.5 73.5t-85 102zM428 768q0 -279 70 -391q44 -70 117.5 -95.5t183.5 -25.5q96 0 164.5 27.5t107.5 70.5t61.5 113.5t29.5 138.5t7 162q0 66 -3 116.5t-12.5 107t-25.5 97.5t-44 80.5t-66.5 64t-93.5 39.5t-125 15q-109 0 -182 -26t-119 -99
q-70 -115 -70 -395zM369 1708q59 177 124.5 246t180.5 69q50 0 99 -18t124 -59q62 -34 84.5 -43t48.5 -9q25 0 44.5 19.5t43.5 71.5h215q-28 -69 -53 -115.5t-60.5 -91t-81.5 -66.5t-104 -22q-101 0 -217 69q-56 33 -85 45.5t-54 12.5q-33 0 -50 -20.5t-44 -88.5h-215z" />
    <glyph glyph-name="uni1EE1" unicode="&#x1ee1;" horiz-adv-x="1419" 
d="M625 -35q-277 0 -405 147.5t-128 426.5q0 280 127 428.5t406 148.5q156 0 280.5 -60t188.5 -188h32q75 0 88 47v220h195v-232q0 -78 -71 -150t-189 -79q8 -57 8 -135q0 -271 -130.5 -422.5t-401.5 -151.5zM395 539q0 -68 9 -117.5t33 -93t71 -66t117 -22.5t117 24
t70.5 69t32.5 95t9 117q0 68 -9.5 118t-33.5 92.5t-70.5 64.5t-115.5 22q-57 0 -99 -16t-67 -42t-39.5 -66.5t-19.5 -82t-5 -96.5zM184 1245q59 178 124.5 247t180.5 69q50 0 98.5 -18.5t125.5 -59.5q61 -33 84 -42t49 -9q25 0 44.5 19t43.5 71h215q-28 -69 -53 -115.5
t-60.5 -91t-81.5 -66.5t-104 -22q-104 0 -217 69q-56 33 -85 45.5t-54 12.5q-33 0 -50.5 -20.5t-44.5 -88.5h-215z" />
    <glyph glyph-name="uni1EE2" unicode="&#x1ee2;" horiz-adv-x="1669" 
d="M242 203q-125 186 -125 565q0 368 112 549q41 66 86.5 111.5t112 81t158.5 52.5t213 17q196 0 330.5 -56t228.5 -204h8q76 0 86 47l2 219h195v-231q0 -68 -56.5 -136t-152.5 -88q41 -154 41 -362q0 -377 -144 -573q-89 -121 -209 -175.5t-329 -54.5q-120 0 -209.5 15
t-154 47.5t-108.5 73.5t-85 102zM498 1163q-70 -115 -70 -395q0 -279 70 -391q44 -70 117.5 -95.5t183.5 -25.5q96 0 164.5 27.5t107.5 70.5t61.5 113.5t29.5 138.5t7 162q0 66 -3 116.5t-12.5 107t-25.5 97.5t-44 80.5t-66.5 64t-93.5 39.5t-125 15q-109 0 -182 -26
t-119 -99zM942 -442h-303v315h303v-315z" />
    <glyph glyph-name="uni1EE3" unicode="&#x1ee3;" horiz-adv-x="1419" 
d="M625 -35q-277 0 -405 147.5t-128 426.5q0 280 127 428.5t406 148.5q156 0 280.5 -60t188.5 -188h32q75 0 88 47v220h195v-232q0 -78 -71 -150t-189 -79q8 -57 8 -135q0 -271 -130.5 -422.5t-401.5 -151.5zM625 842q-57 0 -99 -16t-67 -42t-39.5 -66.5t-19.5 -82t-5 -96.5
q0 -68 9 -117.5t33 -93t71 -66t117 -22.5t117 24t70.5 69t32.5 95t9 117q0 68 -9.5 118t-33.5 92.5t-70.5 64.5t-115.5 22zM780 -442h-303v315h303v-315z" />
    <glyph glyph-name="uni1EE4" unicode="&#x1ee4;" horiz-adv-x="1513" 
d="M143 1544h308v-948q0 -69 4 -114.5t16 -86.5t33 -65t55.5 -42t82.5 -25t116 -7q67 0 115 7t82.5 25t55 42t32.5 65t16 86.5t4 114.5v948h307v-942q0 -182 -29.5 -294.5t-107.5 -192.5q-82 -83 -195 -116.5t-280 -33.5q-175 0 -292.5 35t-189.5 114t-102.5 196.5
t-30.5 291.5v942zM604 -78h303v-315h-303v315z" />
    <glyph glyph-name="uni1EE5" unicode="&#x1ee5;" horiz-adv-x="1232" 
d="M131 446v635h299v-620q0 -47 1 -71t7.5 -54.5t20.5 -46.5q34 -39 125 -39q106 0 217 26v805h299v-1030q-341 -86 -557 -86q-116 0 -197.5 33.5t-128 99t-66.5 150t-20 198.5zM772 -393h-303v315h303v-315z" />
    <glyph glyph-name="uni1EE6" unicode="&#x1ee6;" horiz-adv-x="1513" 
d="M143 1544h308v-948q0 -69 4 -114.5t16 -86.5t33 -65t55.5 -42t82.5 -25t116 -7q67 0 115 7t82.5 25t55 42t32.5 65t16 86.5t4 114.5v948h307v-942q0 -182 -29.5 -294.5t-107.5 -192.5q-82 -83 -195 -116.5t-280 -33.5q-175 0 -292.5 35t-189.5 114t-102.5 196.5
t-30.5 291.5v942zM575 2097l29 12q72 21 125 21q99 0 166.5 -48t67.5 -136q0 -51 -19.5 -83.5t-73.5 -74.5q-5 -4 -15 -11.5t-15 -11.5q-5 -5 -19 -12l-10 -10v-6l-2 -47h-166l-2 12q-3 21 -6 31q-1 4 -2 12.5t-2 11.5q0 43 35 79.5t82 61.5q38 19 38 41q-12 15 -36 19
t-41 4q-31 0 -68 -12l-66 -25v172z" />
    <glyph glyph-name="uni1EE7" unicode="&#x1ee7;" horiz-adv-x="1232" 
d="M131 1081h299v-620q0 -47 1 -71t7.5 -54.5t20.5 -46.5q34 -39 125 -39q106 0 217 26v805h299v-1030q-341 -86 -557 -86q-116 0 -197.5 33.5t-128 99t-66.5 150t-20 198.5v635zM422 1634l31 13q68 20 122 20q100 0 168 -48t68 -136q0 -51 -19.5 -83t-72.5 -75
q-17 -14 -31 -22q-2 -1 -9 -6t-9 -7q-6 -3 -13 -10q2 -2 2 -6l-4 -47h-166l-2 12q-3 21 -6 31q-2 10 -2 24q0 68 117 142q1 1 8 5t9.5 5.5t8 6t7.5 7.5t4 7.5t2 9.5q-11 14 -37 18q-24 4 -43 4q-31 0 -68 -12l-65 -25v172z" />
    <glyph glyph-name="uni1EE8" unicode="&#x1ee8;" horiz-adv-x="1734" 
d="M143 602v942h308v-948q0 -69 4 -114.5t16 -86.5t33 -65t55.5 -42t82.5 -25t116 -7q67 0 115 7t82.5 25t55 42t32.5 65t16 86.5t4 114.5v948h307v-211h64q76 0 86 47v219h194v-231q0 -82 -76.5 -155.5t-203.5 -73.5h-64v-537q0 -182 -29.5 -294.5t-107.5 -192.5
q-82 -83 -195 -116.5t-280 -33.5q-175 0 -292.5 35t-189.5 114t-102.5 196.5t-30.5 291.5zM580 1692l288 315h332l-301 -315h-319z" />
    <glyph glyph-name="uni1EE9" unicode="&#x1ee9;" horiz-adv-x="1449" 
d="M131 1081h299v-620q0 -47 1 -71t7.5 -54.5t20.5 -46.5q34 -39 125 -39q106 0 217 26v805h299v-213h55q73 0 86 47v220h195v-232q0 -37 -18.5 -76.5t-52.5 -74t-89 -56.5t-121 -22h-55v-623q-341 -86 -557 -86q-116 0 -197.5 33.5t-128 99t-66.5 150t-20 198.5v635z
M426 1229l289 315h332l-302 -315h-319z" />
    <glyph glyph-name="uni1EEA" unicode="&#x1eea;" horiz-adv-x="1734" 
d="M143 602v942h308v-948q0 -69 4 -114.5t16 -86.5t33 -65t55.5 -42t82.5 -25t116 -7q67 0 115 7t82.5 25t55 42t32.5 65t16 86.5t4 114.5v948h307v-211h64q76 0 86 47v219h194v-231q0 -82 -76.5 -155.5t-203.5 -73.5h-64v-537q0 -182 -29.5 -294.5t-107.5 -192.5
q-82 -83 -195 -116.5t-280 -33.5q-175 0 -292.5 35t-189.5 114t-102.5 196.5t-30.5 291.5zM782 1692l-297 315h332l285 -315h-320z" />
    <glyph glyph-name="uni1EEB" unicode="&#x1eeb;" horiz-adv-x="1449" 
d="M131 1081h299v-620q0 -47 1 -71t7.5 -54.5t20.5 -46.5q34 -39 125 -39q106 0 217 26v805h299v-213h55q73 0 86 47v220h195v-232q0 -37 -18.5 -76.5t-52.5 -74t-89 -56.5t-121 -22h-55v-623q-341 -86 -557 -86q-116 0 -197.5 33.5t-128 99t-66.5 150t-20 198.5v635z
M252 1544h332l284 -315h-319z" />
    <glyph glyph-name="uni1EEC" unicode="&#x1eec;" horiz-adv-x="1734" 
d="M143 1544h308v-948q0 -69 4 -114.5t16 -86.5t33 -65t55.5 -42t82.5 -25t116 -7q67 0 115 7t82.5 25t55 42t32.5 65t16 86.5t4 114.5v948h307v-211h64q76 0 86 47v219h194v-231q0 -82 -76.5 -155.5t-203.5 -73.5h-64v-537q0 -182 -29.5 -294.5t-107.5 -192.5
q-82 -83 -195 -116.5t-280 -33.5q-175 0 -292.5 35t-189.5 114t-102.5 196.5t-30.5 291.5v942zM618 2097l31 12q72 21 123 21q100 0 168 -48t68 -136q0 -51 -20 -83t-73 -75q-25 -20 -30 -23q-4 -2 -19 -12q-4 -2 -12 -10q2 -2 2 -6l-4 -47h-166l-2 12q-4 21 -6 31t-2 24
q0 42 33 75.5t84 65.5q2 1 6.5 4t6.5 4t6 4t6 5l5 5t4.5 5.5t2.5 6t1 7.5q-12 15 -36 19t-43 4q-30 0 -68 -12l-66 -25v172z" />
    <glyph glyph-name="uni1EED" unicode="&#x1eed;" horiz-adv-x="1449" 
d="M131 1081h299v-620q0 -47 1 -71t7.5 -54.5t20.5 -46.5q34 -39 125 -39q106 0 217 26v805h299v-213h55q73 0 86 47v220h195v-232q0 -37 -18.5 -76.5t-52.5 -74t-89 -56.5t-121 -22h-55v-623q-341 -86 -557 -86q-116 0 -197.5 33.5t-128 99t-66.5 150t-20 198.5v635z
M479 1634l29 13q68 20 125 20q98 0 165.5 -48t67.5 -136q0 -52 -19 -84t-73 -74q-5 -4 -15.5 -11t-15.5 -11q-8 -8 -18 -13l-10 -10v-6l-2 -47h-166l-2 12q-3 21 -6 31q-1 4 -2 12.5t-2 11.5q0 43 35 80t81 62q39 20 39 41q-11 14 -37 18q-24 4 -41 4q-30 0 -67 -12l-66 -25
v172z" />
    <glyph glyph-name="uni1EEE" unicode="&#x1eee;" horiz-adv-x="1734" 
d="M143 602v942h308v-948q0 -69 4 -114.5t16 -86.5t33 -65t55.5 -42t82.5 -25t116 -7q67 0 115 7t82.5 25t55 42t32.5 65t16 86.5t4 114.5v948h307v-211h64q76 0 86 47v219h194v-231q0 -82 -76.5 -155.5t-203.5 -73.5h-64v-537q0 -182 -29.5 -294.5t-107.5 -192.5
q-82 -83 -195 -116.5t-280 -33.5q-175 0 -292.5 35t-189.5 114t-102.5 196.5t-30.5 291.5zM268 1708q59 177 124.5 246t180.5 69q50 0 99.5 -18t124.5 -59q62 -34 84.5 -43t48.5 -9q25 0 44.5 19.5t43.5 71.5h215q-28 -69 -53 -115.5t-60.5 -91t-81.5 -66.5t-104 -22
q-101 0 -217 69q-56 33 -85 45.5t-54 12.5q-33 0 -50.5 -20.5t-44.5 -88.5h-215z" />
    <glyph glyph-name="uni1EEF" unicode="&#x1eef;" horiz-adv-x="1449" 
d="M131 446v635h299v-620q0 -47 1 -71t7.5 -54.5t20.5 -46.5q34 -39 125 -39q106 0 217 26v805h299v-213h55q73 0 86 47v220h195v-232q0 -37 -18.5 -76.5t-52.5 -74t-89 -56.5t-121 -22h-55v-623q-341 -86 -557 -86q-116 0 -197.5 33.5t-128 99t-66.5 150t-20 198.5z
M176 1245q59 178 124.5 247t180.5 69q50 0 98.5 -18.5t125.5 -59.5q61 -33 84 -42t49 -9q25 0 44.5 19t43.5 71h215q-28 -69 -53 -115.5t-60.5 -91t-81.5 -66.5t-104 -22q-104 0 -217 69q-56 33 -85 45.5t-55 12.5q-33 0 -50 -20.5t-44 -88.5h-215z" />
    <glyph glyph-name="uni1EF0" unicode="&#x1ef0;" horiz-adv-x="1734" 
d="M143 1544h308v-948q0 -69 4 -114.5t16 -86.5t33 -65t55.5 -42t82.5 -25t116 -7q67 0 115 7t82.5 25t55 42t32.5 65t16 86.5t4 114.5v948h307v-211h64q76 0 86 47v219h194v-231q0 -82 -76.5 -155.5t-203.5 -73.5h-64v-537q0 -182 -29.5 -294.5t-107.5 -192.5
q-82 -83 -195 -116.5t-280 -33.5q-175 0 -292.5 35t-189.5 114t-102.5 196.5t-30.5 291.5v942zM584 -127h303v-315h-303v315z" />
    <glyph glyph-name="uni1EF1" unicode="&#x1ef1;" horiz-adv-x="1449" 
d="M131 446v635h299v-620q0 -47 1 -71t7.5 -54.5t20.5 -46.5q34 -39 125 -39q106 0 217 26v805h299v-213h55q73 0 86 47v220h195v-232q0 -37 -18.5 -76.5t-52.5 -74t-89 -56.5t-121 -22h-55v-623q-341 -86 -557 -86q-116 0 -197.5 33.5t-128 99t-66.5 150t-20 198.5z
M889 -442h-303v315h303v-315z" />
    <glyph glyph-name="Ygrave" unicode="&#x1ef2;" horiz-adv-x="1361" 
d="M-31 1544h355l366 -639l367 639h336l-557 -956v-588h-308v588zM309 1946h332l285 -316h-320z" />
    <glyph glyph-name="ygrave" unicode="&#x1ef3;" horiz-adv-x="1204" 
d="M444 -14l-444 1095h328l278 -710l279 710h319l-598 -1474h-315zM518 1229l-297 315h332l285 -315h-320z" />
    <glyph glyph-name="uni1EF4" unicode="&#x1ef4;" horiz-adv-x="1361" 
d="M-31 1544h355l366 -639l367 639h336l-557 -956v-588h-308v588zM530 -127h304v-315h-304v315z" />
    <glyph glyph-name="uni1EF5" unicode="&#x1ef5;" horiz-adv-x="1204" 
d="M0 1081h328l278 -710l279 710h319l-598 -1474h-315l153 379zM836 -451v316h303v-316h-303z" />
    <glyph glyph-name="uni1EF6" unicode="&#x1ef6;" horiz-adv-x="1361" 
d="M-31 1544h355l366 -639l367 639h336l-557 -956v-588h-308v588zM530 2097l29 12q72 21 125 21q99 0 166.5 -48t67.5 -136q0 -51 -19.5 -83.5t-73.5 -74.5q-5 -4 -15 -11.5t-15 -11.5q-5 -5 -19 -12l-10 -10v-6l-2 -47h-166l-2 12q-4 21 -6 31q-1 4 -2 12.5t-2 11.5
q0 43 34.5 79.5t81.5 61.5q39 20 39 41q-12 15 -36 19t-41 4q-30 0 -68 -12l-66 -25v172z" />
    <glyph glyph-name="uni1EF7" unicode="&#x1ef7;" horiz-adv-x="1204" 
d="M444 -14l-444 1095h328l278 -710l279 710h319l-598 -1474h-315zM408 1462v172l30 13q68 20 123 20q100 0 168 -48t68 -136q0 -51 -19.5 -83t-72.5 -75q-17 -14 -31 -22q-2 -1 -5 -3t-7.5 -5.5t-6.5 -4.5q-4 -2 -12 -10q2 -2 2 -6l-4 -47h-166l-2 12q-3 21 -6 31
q-2 10 -2 24q0 68 117 142q1 1 8 5t9.5 5.5t8 6t7.5 7.5t4 7.5t2 9.5q-11 14 -37 18q-24 4 -43 4q-30 0 -68 -12z" />
    <glyph glyph-name="uni1EF8" unicode="&#x1ef8;" horiz-adv-x="1361" 
d="M-31 1544h355l366 -639l367 639h336l-557 -956v-588h-308v588zM430 1647h-215q59 177 124.5 246t180.5 69q49 0 97.5 -18.5t125.5 -59.5q60 -32 83.5 -41.5t50.5 -9.5q25 0 44.5 19t43.5 71h215q-28 -69 -53 -115.5t-60.5 -91t-81.5 -66.5t-104 -22q-102 0 -217 70
q-95 57 -140 57q-33 0 -50 -20t-44 -88z" />
    <glyph glyph-name="uni1EF9" unicode="&#x1ef9;" horiz-adv-x="1204" 
d="M444 -14l-444 1095h328l278 -710l279 710h319l-598 -1474h-315zM358 1245h-215q59 177 125 246.5t181 69.5q49 0 97.5 -18.5t125.5 -59.5q61 -33 84 -42t49 -9q25 0 44.5 19t43.5 71h215q-28 -69 -53 -115.5t-60.5 -91t-81.5 -66.5t-104 -22q-104 0 -217 69
q-56 33 -85 45.5t-54 12.5q-33 0 -50.5 -20.5t-44.5 -88.5z" />
    <glyph glyph-name="endash" unicode="&#x2013;" horiz-adv-x="1228" 
d="M1126 401h-1024v291h1024v-291z" />
    <glyph glyph-name="emdash" unicode="&#x2014;" horiz-adv-x="2048" 
d="M2048 401h-2048v291h2048v-291z" />
    <glyph glyph-name="quoteleft" unicode="&#x2018;" horiz-adv-x="593" 
d="M428 811h-291v293q0 224 113 440h223q-45 -203 -45 -391v-342z" />
    <glyph glyph-name="quoteright" unicode="&#x2019;" horiz-adv-x="593" 
d="M344 811h-223q45 203 45 391v342h291v-293q0 -224 -113 -440z" />
    <glyph glyph-name="quotesinglbase" unicode="&#x201a;" horiz-adv-x="593" 
d="M344 -385h-223q45 203 45 391v342h291v-293q0 -224 -113 -440z" />
    <glyph glyph-name="quotedblleft" unicode="&#x201c;" horiz-adv-x="1048" 
d="M883 811h-291v293q0 224 113 440h223q-45 -203 -45 -391v-342zM137 811v293q0 224 113 440h223q-45 -203 -45 -391v-342h-291z" />
    <glyph glyph-name="quotedblright" unicode="&#x201d;" horiz-adv-x="1048" 
d="M799 811h-224q46 208 46 391v342h290v-293q0 -226 -112 -440zM121 811q45 203 45 391v342h291v-293q0 -224 -113 -440h-223z" />
    <glyph glyph-name="quotedblbase" unicode="&#x201e;" horiz-adv-x="1048" 
d="M799 -385h-224q46 208 46 391v342h290v-293q0 -226 -112 -440zM121 -385q45 203 45 391v342h291v-293q0 -224 -113 -440h-223z" />
    <glyph glyph-name="dagger" unicode="&#x2020;" horiz-adv-x="1286" 
d="M92 1116h412v428h278v-428h412v-266h-412v-1047h-278v1047h-412v266z" />
    <glyph glyph-name="daggerdbl" unicode="&#x2021;" horiz-adv-x="1286" 
d="M92 498h412v352h-412v266h412v428h278v-428h412v-266h-412v-352h412v-267h-412v-428h-278v428h-412v267z" />
    <glyph glyph-name="bullet" unicode="&#x2022;" horiz-adv-x="1093" 
d="M147 772q0 196 101.5 297.5t298.5 101.5q196 0 297.5 -103t101.5 -300q0 -196 -101 -295.5t-298 -99.5t-298.5 101.5t-101.5 297.5z" />
    <glyph glyph-name="ellipsis" unicode="&#x2026;" horiz-adv-x="1966" 
d="M1489 0v365h340v-365h-340zM813 365h340v-365h-340v365zM137 0v365h340v-365h-340z" />
    <glyph glyph-name="perthousand" unicode="&#x2030;" horiz-adv-x="3284" 
d="M512 664q-114 0 -192.5 29.5t-123.5 89.5t-64 140.5t-19 194.5q0 224 90.5 336.5t308.5 112.5q214 0 306.5 -114t92.5 -335q0 -212 -96.5 -333t-302.5 -121zM1411 432q0 224 90.5 336.5t308.5 112.5q214 0 307 -114t93 -335q0 -212 -97 -333.5t-303 -121.5
q-114 0 -192.5 29.5t-123.5 89.5t-64 141t-19 195zM2773 -23q-114 0 -192.5 29.5t-123.5 89.5t-64 141t-19 195q0 224 90.5 336.5t308.5 112.5q214 0 306.5 -114t92.5 -335q0 -103 -22.5 -184.5t-69 -143t-124.5 -94.5t-183 -33zM561 0l877 1544h313l-877 -1544h-313z
M2773 651q-29 0 -51.5 -7t-37.5 -16.5t-25 -28t-15.5 -34t-8 -42t-3 -44t-0.5 -47.5q0 -82 8.5 -125.5t34.5 -68.5q34 -31 98 -31q39 0 66.5 14t41.5 33t22 52.5t9.5 59.5t1.5 66q0 42 -1.5 66.5t-9 57.5t-21.5 51t-41.5 31t-67.5 13zM1669 432q0 -82 8.5 -125.5t34.5 -68.5
q34 -31 98 -31q39 0 66.5 14t42 33t22.5 52.5t9.5 59.5t1.5 66q0 34 -1 55.5t-5 50t-13.5 46t-24.5 34.5t-40 25t-58 8q-29 0 -51.5 -7t-37.5 -16.5t-25 -28t-15.5 -34t-8 -42t-3 -44t-0.5 -47.5zM512 1337q-29 0 -51.5 -7t-37.5 -16.5t-25 -28t-15.5 -34t-8 -42t-3 -44
t-0.5 -47.5q0 -82 8.5 -125.5t34.5 -68.5q34 -31 98 -31q39 0 66.5 14t41.5 33t22 52.5t9.5 59.5t1.5 66q0 42 -1.5 66.5t-9 57.5t-21.5 51t-41.5 31t-67.5 13z" />
    <glyph glyph-name="guilsinglleft" unicode="&#x2039;" horiz-adv-x="790" 
d="M776 119h-348l-360 422l360 422h348l-360 -422z" />
    <glyph glyph-name="guilsinglright" unicode="&#x203a;" horiz-adv-x="790" 
d="M362 119h-348l361 422l-361 422h348l361 -422z" />
    <glyph glyph-name="fraction" unicode="&#x2044;" horiz-adv-x="395" 
d="M-74 0h-313l876 1544h314z" />
    <glyph glyph-name="uni2070" unicode="&#x2070;" horiz-adv-x="1024" 
d="M512 899q-114 0 -192.5 29.5t-123.5 89.5t-64 141t-19 195q0 224 90.5 336t308.5 112q214 0 306.5 -113.5t92.5 -334.5q0 -103 -22.5 -184.5t-69 -143t-124.5 -94.5t-183 -33zM371 1354q0 -82 8.5 -126t34.5 -69q34 -31 98 -31q39 0 66.5 14t41.5 33.5t22 53t9.5 59.5
t1.5 66q0 42 -1.5 66.5t-9 57.5t-21.5 51t-41.5 31t-67.5 13q-29 0 -51.5 -7t-37.5 -16.5t-25 -28t-15.5 -34t-8 -42t-3 -44t-0.5 -47.5z" />
    <glyph glyph-name="uni2071" unicode="&#x2071;" horiz-adv-x="528" 
d="M391 922h-254v641h254v-641zM395 1657h-262v266h262v-266z" />
    <glyph glyph-name="uni2074" unicode="&#x2074;" horiz-adv-x="937" 
d="M51 1049v227l375 504h317l-378 -508h186v131h256v-481h-256v127h-500z" />
    <glyph glyph-name="uni2075" unicode="&#x2075;" horiz-adv-x="905" 
d="M125 920v204q154 -22 256 -22q95 0 125 18q26 17 26 60t-30 59q-31 16 -223 16h-146v525h631v-215h-381v-115h80q71 0 125.5 -11t102.5 -38t74 -78.5t26 -126.5q0 -73 -22.5 -127.5t-58.5 -86.5t-91 -51t-110.5 -25.5t-125.5 -6.5q-103 0 -258 21z" />
    <glyph glyph-name="uni2076" unicode="&#x2076;" horiz-adv-x="950" 
d="M483 899q-188 0 -279 78t-91 260q0 165 26 256t117 162q148 118 537 149v-205q-209 -17 -304 -53q-90 -34 -102 -94q86 4 172 4q291 0 291 -266q0 -80 -29 -138t-81.5 -90.5t-115.5 -47.5t-141 -15zM367 1219q0 -74 22 -105t94 -31q58 0 87.5 24.5t29.5 80.5
q0 61 -28 78.5t-95 17.5q-50 0 -108 -4q-2 -25 -2 -61z" />
    <glyph glyph-name="uni2077" unicode="&#x2077;" horiz-adv-x="831" 
d="M403 922h-303l396 641h-455v217h754v-215z" />
    <glyph glyph-name="uni2078" unicode="&#x2078;" horiz-adv-x="1003" 
d="M506 899q-60 0 -108 4.5t-101 20.5t-88 42t-58.5 72t-23.5 109q0 72 29 116.5t94 94.5q-59 32 -81 81.5t-22 123.5q0 71 32 120.5t87.5 74t113 34.5t124.5 10q51 0 97 -5.5t94.5 -21.5t83 -41.5t57 -68t22.5 -98.5q0 -109 -102 -211q63 -35 92 -85t29 -124t-33.5 -125.5
t-91 -76.5t-117 -35.5t-129.5 -10.5zM375 1167q0 -38 20.5 -58.5t45.5 -25t65 -4.5q123 0 123 95q0 48 -39 67q-33 16 -152 31q-33 -24 -48 -46.5t-15 -58.5zM504 1620q-117 0 -117 -88q0 -55 35 -74q31 -16 145 -31q18 21 27 32.5t18 32t9 40.5q0 51 -30.5 69.5t-86.5 18.5
z" />
    <glyph glyph-name="uni2079" unicode="&#x2079;" horiz-adv-x="950" 
d="M375 1225q-156 0 -214.5 62.5t-58.5 217.5q0 82 28.5 141t80.5 92.5t116 48.5t144 15q367 0 367 -399q0 -71 -2 -114t-12 -99t-29 -96q-92 -195 -385 -195q-121 0 -263 29v205q159 -31 226 -31q36 0 60.5 1.5t56 9.5t50.5 21.5t32.5 39.5t13.5 63q-118 -12 -211 -12z
M471 1612q-58 0 -88.5 -23t-30.5 -80q0 -61 20.5 -83.5t80.5 -22.5q55 0 133 8q0 115 -23 158q-24 43 -92 43z" />
    <glyph glyph-name="uni207D" unicode="&#x207d;" horiz-adv-x="593" 
d="M203 842q-59 60 -78 156t-19 241v223q0 146 19 242t78 156q121 126 360 157v-250q-114 -31 -155 -81q-30 -37 -38 -94.5t-8 -190.5v-101q0 -130 8.5 -190.5t37.5 -93.5q28 -32 65 -50t90 -32v-250q-238 31 -360 158z" />
    <glyph glyph-name="uni207E" unicode="&#x207e;" horiz-adv-x="593" 
d="M31 1767v250q239 -31 360 -157q59 -60 77.5 -155.5t18.5 -242.5v-223q0 -146 -18.5 -241.5t-77.5 -155.5q-122 -127 -360 -158v250q107 29 155 82q30 33 37.5 91t7.5 193v101q0 134 -7.5 191t-37.5 94q-41 50 -155 81z" />
    <glyph glyph-name="uni207F" unicode="&#x207f;" horiz-adv-x="1007" 
d="M133 922v641h254v-56q147 72 246 72q64 0 109.5 -19.5t71 -49t40.5 -77.5t19 -92.5t4 -105.5v-313h-254v258q0 109 -21 139q-7 11 -20.5 16t-22 5.5t-27.5 0.5q-36 0 -145 -53v-366h-254z" />
    <glyph glyph-name="uni2080" unicode="&#x2080;" horiz-adv-x="1024" 
d="M512 -289q-114 0 -192.5 29.5t-123.5 89.5t-64 141t-19 195q0 224 90.5 336t308.5 112q214 0 306.5 -113.5t92.5 -334.5q0 -103 -22.5 -184.5t-69 -143t-124.5 -94.5t-183 -33zM371 166q0 -82 8.5 -126t34.5 -69q33 -30 98 -30q39 0 66.5 14t41.5 33t22 52.5t9.5 59.5
t1.5 66q0 42 -1.5 66.5t-9 57.5t-21.5 51t-41.5 31t-67.5 13q-29 0 -51.5 -7t-37.5 -16.5t-25 -28t-15.5 -34t-8 -42t-3 -44t-0.5 -47.5z" />
    <glyph glyph-name="uni2081" unicode="&#x2081;" horiz-adv-x="675" 
d="M543 -266h-269v561l-231 -62v242l500 143v-884z" />
    <glyph glyph-name="uni2082" unicode="&#x2082;" horiz-adv-x="897" 
d="M88 -59q221 157 299 225q62 54 85.5 83.5t23.5 57.5q0 36 -25 55q-24 19 -106 19q-87 0 -263 -43v233q183 43 295 43q70 0 130 -13.5t112 -42.5t82.5 -82.5t30.5 -127.5q0 -67 -21.5 -114t-71.5 -105q-68 -76 -186 -174h330v-221h-715v207z" />
    <glyph glyph-name="uni2083" unicode="&#x2083;" horiz-adv-x="921" 
d="M102 -53q168 -33 269 -33q99 0 131 18q33 18 33 62q0 34 -27 53q-29 19 -119 19h-190v196h282l23 31q20 29 20 55q0 32 -22 47q-28 17 -111 17q-107 0 -282 -39v200q195 41 309 41q360 0 360 -219q0 -72 -30 -123q-11 -19 -56 -79q101 -82 101 -213q0 -64 -24 -112.5
t-62 -77.5t-91.5 -47.5t-105.5 -25t-111 -6.5q-62 0 -154 10.5t-143 20.5v205z" />
    <glyph glyph-name="uni2084" unicode="&#x2084;" horiz-adv-x="937" 
d="M51 -139v227l375 504h317l-378 -508h186v131h256v-481h-256v127h-500z" />
    <glyph glyph-name="uni2085" unicode="&#x2085;" horiz-adv-x="905" 
d="M125 -268v205q161 -23 256 -23t125 18q26 17 26 60t-30 59q-33 17 -223 17h-146v524h631v-215h-381v-115h80q71 0 125.5 -11t102.5 -38t74 -78.5t26 -126.5q0 -73 -22.5 -127.5t-58.5 -86.5t-91 -51t-110.5 -25.5t-125.5 -6.5q-103 0 -258 21z" />
    <glyph glyph-name="uni2086" unicode="&#x2086;" horiz-adv-x="950" 
d="M483 -289q-188 0 -279 78t-91 260q0 165 26 256t117 162q148 118 537 149v-204q-205 -17 -304 -54q-90 -34 -102 -94q86 4 172 4q291 0 291 -266q0 -80 -29 -138t-81.5 -90.5t-115.5 -47.5t-141 -15zM367 31q0 -74 22 -104.5t94 -30.5q58 0 87.5 24t29.5 80
q0 61 -28 78.5t-95 17.5q-50 0 -108 -4q-2 -25 -2 -61z" />
    <glyph glyph-name="uni2087" unicode="&#x2087;" horiz-adv-x="831" 
d="M403 -266h-303l396 641h-455v217h754v-215z" />
    <glyph glyph-name="uni2088" unicode="&#x2088;" horiz-adv-x="1003" 
d="M506 -289q-60 0 -108 4.5t-101 20.5t-88 42t-58.5 72t-23.5 109q0 72 29 116.5t94 94.5q-59 32 -81 81.5t-22 123.5q0 71 32 120.5t87.5 74t113 34.5t124.5 10q51 0 97 -5.5t94.5 -21.5t83 -41.5t57 -68t22.5 -98.5q0 -109 -102 -211q63 -35 92 -85t29 -124t-33.5 -125.5
t-91 -76.5t-117 -35.5t-129.5 -10.5zM375 -20q0 -54 35 -71.5t96 -17.5q123 0 123 95q0 48 -39 67q-33 16 -152 31q-33 -25 -48 -47t-15 -57zM504 432q-117 0 -117 -88q0 -55 35 -74q28 -15 145 -30q19 21 27.5 32t17.5 31.5t9 40.5q0 51 -30.5 69.5t-86.5 18.5z" />
    <glyph glyph-name="uni2089" unicode="&#x2089;" horiz-adv-x="950" 
d="M375 37q-156 0 -214.5 62.5t-58.5 217.5q0 82 28.5 141t80.5 92.5t116 48.5t144 15q367 0 367 -399q0 -71 -2 -114t-12 -99t-29 -96q-92 -195 -385 -195q-121 0 -263 29v205q159 -31 226 -31q36 0 60.5 1.5t56 9.5t50.5 21.5t32.5 39.5t13.5 63q-118 -12 -211 -12z
M471 424q-58 0 -88.5 -22.5t-30.5 -79.5q0 -61 20.5 -84t80.5 -23q55 0 133 8q0 115 -23 158q-24 43 -92 43z" />
    <glyph glyph-name="uni208D" unicode="&#x208d;" horiz-adv-x="593" 
d="M203 -346q-59 60 -78 156t-19 241v223q0 146 19 242t78 156q121 126 360 157v-249q-113 -31 -155 -82q-30 -37 -38 -94.5t-8 -190.5v-100q0 -131 8.5 -191.5t37.5 -93.5q28 -32 65 -50t90 -32v-250q-238 31 -360 158z" />
    <glyph glyph-name="uni208E" unicode="&#x208e;" horiz-adv-x="593" 
d="M31 580v249q239 -31 360 -157q59 -60 77.5 -155.5t18.5 -242.5v-223q0 -146 -18.5 -241.5t-77.5 -155.5q-122 -127 -360 -158v250q107 29 155 82q30 33 37.5 91t7.5 194v100q0 134 -7.5 191t-37.5 94q-42 51 -155 82z" />
    <glyph glyph-name="uni2093" unicode="&#x2093;" horiz-adv-x="974" 
d="M336 -266h-316l267 329l-258 312h319l135 -172l133 172h316l-252 -305l274 -336h-319l-150 186z" />
    <glyph glyph-name="Euro" unicode="&#x20ac;" horiz-adv-x="1454" 
d="M164 750q0 410 90 573q48 87 113 140.5t180 84.5t284 31q163 0 502 -55v-289q-311 53 -469 53q-150 0 -227.5 -19.5t-112.5 -74.5q-26 -39 -30 -111h585v-249h-604v-113h604v-250h-590q3 -73 23 -119q26 -59 110 -77.5t250 -18.5q144 0 461 37v-291q-317 -37 -504 -37
q-110 0 -198.5 12t-155.5 38.5t-116.5 61t-84 87.5t-56 109.5t-33.5 136t-16.5 157.5t-4.5 183z" />
    <glyph glyph-name="uni20BA" unicode="&#x20ba;" horiz-adv-x="1343" 
d="M184 -25v1569h308v-274l446 137v-254l-446 -137v-121l446 137v-254l-446 -137v-399q246 0 342 106q58 65 76.5 134t27.5 198h309q-7 -158 -34.5 -274t-90.5 -199q-92 -122 -239.5 -182t-393.5 -60q-217 0 -305 10z" />
    <glyph glyph-name="uni20BD" unicode="&#x20bd;" horiz-adv-x="1466" 
d="M184 0v1544h664q133 0 227 -30t162 -97q133 -130 133 -350q0 -120 -33.5 -206t-109.5 -154q-68 -62 -159.5 -89t-217.5 -32q-90 -4 -358 -4v-113h641v-250h-641v-219h-308zM819 1257h-327v-393q231 0 327 4q63 3 102 10.5t73 28t49.5 60t15.5 100.5t-16 99.5t-50 58
t-73.5 26t-100.5 6.5z" />
    <glyph glyph-name="uni2103" unicode="&#x2103;" horiz-adv-x="2291" 
d="M1708 -35q-151 0 -264.5 39.5t-185 107t-116 169t-62 214.5t-17.5 255q0 189 25.5 325t87.5 236q28 44 58.5 80t77 72.5t102 60.5t132.5 39.5t168 15.5q77 0 172.5 -13.5t158 -27t169.5 -39.5v-295q-202 46 -256 56q-119 22 -207 22q-52 0 -96.5 -6.5t-79 -20.5t-62 -31
t-48 -43t-35.5 -52t-25 -62t-16.5 -68t-9.5 -76t-4 -80.5t-1 -86.5q0 -76 2.5 -126.5t11.5 -107.5t25 -92.5t44.5 -70.5t69.5 -54.5t99.5 -31t134.5 -11.5q138 0 453 68v-297q-326 -68 -506 -68zM82 1182q0 182 111.5 289.5t300.5 107.5q185 0 295 -108t110 -289
q0 -177 -109.5 -279t-295.5 -102q-190 0 -301 101.5t-111 279.5zM328 1190q0 -72 44.5 -114t119.5 -42q73 0 117 41.5t44 114.5t-44 114.5t-117 41.5q-75 0 -119.5 -42t-44.5 -114z" />
    <glyph glyph-name="uni2109" unicode="&#x2109;" horiz-adv-x="2222" 
d="M1098 1544h1077v-289h-770v-342h692v-288h-692v-625h-307v1544zM494 801q-190 0 -301 101.5t-111 279.5q0 182 111.5 289.5t300.5 107.5q185 0 295 -108t110 -289q0 -177 -109.5 -279t-295.5 -102zM328 1190q0 -72 44.5 -114t119.5 -42q73 0 117 41.5t44 114.5t-44 114.5
t-117 41.5q-75 0 -119.5 -42t-44.5 -114z" />
    <glyph glyph-name="uni2113" unicode="&#x2113;" horiz-adv-x="1050" 
d="M133 1075q0 146 14 223.5t52 135.5q95 145 354 145q410 0 410 -381q0 -70 -24.5 -142.5t-65 -141.5t-112 -156t-145 -165.5t-184.5 -189.5v-22q0 -88 41 -119t133 -31q139 0 363 70v-278q-204 -60 -371 -60q-141 0 -228 20.5t-141.5 74.5t-75 138t-20.5 220v659z
M451 1257q-13 -32 -16 -68.5t-3 -129.5v-297q55 65 80 95t60.5 78.5t49.5 80t25.5 72.5t11.5 83q0 70 -22.5 110t-87.5 40q-38 0 -61 -15t-37 -49z" />
    <glyph glyph-name="uni2116" unicode="&#x2116;" horiz-adv-x="2498" 
d="M451 0h-304v1544h332l617 -1032v1032h303v-1544h-332l-616 1032v-1032zM1997 727q-215 0 -328 106t-113 320q0 209 113.5 317.5t327.5 108.5t327 -107.5t113 -318.5q0 -210 -113.5 -318t-326.5 -108zM1821 1153q0 -95 40.5 -138.5t135.5 -43.5q93 0 134.5 46.5
t41.5 139.5q0 91 -42 134.5t-134 43.5q-93 0 -134.5 -44.5t-41.5 -137.5z" />
    <glyph glyph-name="trademark" unicode="&#x2122;" horiz-adv-x="2183" 
d="M1042 666v878h258l242 -452l250 452h244v-878h-213v534l-199 -360h-172l-197 370v-544h-213zM76 1544h823v-205h-299v-673h-225v673h-299v205z" />
    <glyph glyph-name="uni2126" unicode="&#x2126;" horiz-adv-x="1613" 
d="M39 276h285q-61 48 -103 116t-61.5 149t-27 153.5t-7.5 159.5q0 115 27 241.5t86 221.5q40 66 86.5 111.5t112.5 81t157.5 52.5t212.5 17q206 0 329.5 -56t211.5 -177q73 -100 107 -235.5t34 -256.5q0 -189 -42 -323t-157 -255h285v-276h-684v276q171 117 229 238t58 340
q0 69 -17 152.5t-57 146.5q-83 135 -297 135q-109 0 -182 -26t-119 -99q-37 -60 -53.5 -148.5t-16.5 -160.5q0 -115 10.5 -191t42 -146t87.5 -125.5t147 -115.5v-276h-684v276z" />
    <glyph glyph-name="estimated" unicode="&#x212e;" horiz-adv-x="1576" 
d="M291 143q-189 180 -189 453q0 269 193 453q95 90 212 132t281 42q311 0 493 -168t194 -477h-1092q-9 0 -14 -1t-10 -9t-5 -23v-305q0 -25 32 -61.5t86.5 -73t139 -62t176.5 -25.5q125 0 241 55.5t194 143.5h129q-118 -135 -249.5 -191.5t-314.5 -56.5q-164 0 -283 41.5
t-214 132.5zM354 633q0 -17 31 -17h805q19 0 25 6.5t6 24.5v299q0 49 -66.5 104t-169 92.5t-197.5 37.5q-86 0 -170.5 -26.5t-140 -62.5t-89.5 -72t-34 -58v-328z" />
    <glyph glyph-name="onethird" unicode="&#x2153;" horiz-adv-x="1992" 
d="M289 0l876 1544h314l-877 -1544h-313zM1174 8v205q168 -33 268 -33q97 0 131 19q33 18 33 61q0 34 -27 53q-29 19 -119 19h-190v196h282l23 31q20 29 20 55q0 33 -22 48q-26 16 -111 16q-106 0 -282 -39v201q195 41 309 41q360 0 360 -219q0 -72 -30 -123
q-14 -24 -56 -80q101 -82 101 -213q0 -64 -24 -112.5t-62 -77.5t-91.5 -47.5t-105.5 -25t-111 -6.5q-62 0 -153.5 10.5t-142.5 20.5zM43 1427l500 144v-885h-269v561l-231 -61v241z" />
    <glyph glyph-name="twothirds" unicode="&#x2154;" horiz-adv-x="2213" 
d="M510 0l876 1544h314l-877 -1544h-313zM1395 8v205q168 -33 268 -33q97 0 131 19q33 18 33 61q0 34 -27 53q-28 19 -119 19h-190v196h283l22 31q21 30 21 55q0 33 -23 48q-26 16 -111 16q-107 0 -282 -39v201q195 41 309 41q361 0 361 -219q0 -70 -31 -123
q-17 -30 -55 -80q100 -81 100 -213q0 -64 -24 -112.5t-61.5 -77.5t-91 -47.5t-105.5 -25t-111 -6.5q-62 0 -154 10.5t-143 20.5zM88 893q221 157 299 225q61 53 85 83.5t24 58.5q0 36 -25 55q-23 18 -106 18q-87 0 -263 -43v234q183 43 295 43q70 0 130 -13.5t112 -42.5
t82.5 -83t30.5 -128q0 -67 -21.5 -114t-71.5 -105q-68 -76 -186 -174h330v-221h-715v207z" />
    <glyph glyph-name="oneeighth" unicode="&#x215b;" horiz-adv-x="2074" 
d="M1198 225q0 72 29 116.5t94 94.5q-59 32 -80.5 81t-21.5 124q0 57 22 101t56.5 69.5t83.5 42t95 22t99 5.5q65 0 122 -10.5t112 -34.5t87.5 -73t32.5 -118q0 -109 -102 -211q63 -35 92 -85t29 -124t-33.5 -125.5t-91 -76.5t-117 -35.5t-129.5 -10.5q-60 0 -108 4.5
t-101 20.5t-88 42t-58.5 72t-23.5 109zM602 0h-313l876 1544h314zM43 1186v241l500 144v-885h-269v561zM1446 246q0 -38 20.5 -58.5t45.5 -25t65 -4.5q123 0 123 94q0 48 -39 67q-33 16 -152 31q-33 -25 -48 -47t-15 -57zM1458 610q0 -54 35 -73q31 -16 145 -31
q19 21 27.5 32t17.5 31.5t9 40.5q0 51 -30.5 69.5t-86.5 18.5q-117 0 -117 -88z" />
    <glyph glyph-name="threeeighths" unicode="&#x215c;" horiz-adv-x="2320" 
d="M1444 225q0 72 29 116.5t94 94.5q-59 32 -81 81.5t-22 123.5q0 57 22 101t57 69.5t84 42t95 22t99 5.5q65 0 122 -10.5t112 -34.5t87.5 -73t32.5 -118q0 -109 -102 -211q63 -35 91.5 -85t28.5 -124q0 -60 -23 -105t-59 -72t-86.5 -43.5t-98.5 -22t-103 -5.5
q-60 0 -108 4.5t-101 20.5t-88 42t-58.5 72t-23.5 109zM535 0l876 1544h313l-876 -1544h-313zM102 899q168 -33 269 -33q97 0 131 19q33 18 33 61q0 34 -27 53q-29 19 -119 19h-190v196h282l23 31q20 29 20 55q0 33 -22 48q-26 16 -111 16q-107 0 -282 -39v201
q195 41 309 41q360 0 360 -219q0 -72 -30 -123q-14 -24 -56 -80q101 -82 101 -213q0 -64 -24 -112.5t-62 -77.5t-91.5 -47t-105.5 -24.5t-111 -6.5q-63 0 -155 10t-142 20v205zM1755 350q-33 -25 -48 -47t-15 -57q0 -38 20.5 -58.5t45.5 -25t65 -4.5q123 0 123 94
q0 48 -39 67q-33 16 -152 31zM1704 610q0 -54 35 -73q31 -16 145 -31q18 20 27 32t17.5 32t8.5 40q0 51 -30 69.5t-86 18.5q-117 0 -117 -88z" />
    <glyph glyph-name="fiveeighths" unicode="&#x215d;" horiz-adv-x="2304" 
d="M1806 -23q-60 0 -108 4.5t-101 20.5t-88 42t-58.5 72t-23.5 109q0 72 29 116.5t94 94.5q-59 32 -80.5 81t-21.5 124q0 57 22 101t56.5 69.5t83.5 42t95 22t99 5.5q51 0 97 -6t94.5 -22t83.5 -41.5t57.5 -68t22.5 -98.5q0 -108 -103 -211q63 -35 92 -85t29 -124
t-33.5 -125.5t-91 -76.5t-117 -35.5t-129.5 -10.5zM831 0h-313l877 1544h313zM383 664q-110 0 -258 20v205q161 -23 256 -23q94 0 125 19q26 17 26 59q0 44 -30 60q-31 16 -223 16h-146v524h631v-215h-381v-115h80q71 0 125.5 -11t102.5 -37.5t74 -78t26 -126.5
q0 -73 -22.5 -127.5t-58.5 -86.5t-91 -51t-110.5 -25.5t-125.5 -6.5zM1739 350q-34 -25 -49 -47t-15 -57q0 -38 20.5 -58.5t45.5 -25t65 -4.5q123 0 123 94q0 48 -39 67q-33 16 -151 31zM1804 698q-116 0 -116 -88q0 -54 34 -73q31 -16 146 -31q18 20 27 32t17.5 32t8.5 40
q0 51 -30.5 69.5t-86.5 18.5z" />
    <glyph glyph-name="seveneighths" unicode="&#x215e;" horiz-adv-x="2230" 
d="M1733 -23q-60 0 -108 4.5t-101 20.5t-88 42t-58.5 72t-23.5 109q0 72 29 116.5t94 94.5q-59 32 -81 81.5t-22 123.5q0 57 22 101t57 69.5t84 42t95 22t99 5.5q65 0 122 -10.5t112 -34.5t87.5 -73t32.5 -118q0 -108 -103 -211q63 -35 92 -85t29 -124q0 -60 -23 -105
t-59 -72t-86.5 -43.5t-98.5 -22t-103 -5.5zM758 0h-314l877 1544h313zM41 1544h754v-215l-392 -643h-303l396 641h-455v217zM1665 350q-33 -25 -48 -47t-15 -57q0 -38 20.5 -58.5t45.5 -25t65 -4.5q122 0 122 94q0 49 -38 67q-33 16 -152 31zM1731 698q-117 0 -117 -88
q0 -54 35 -73q31 -16 145 -31q18 20 27 32t17.5 32t8.5 40q0 51 -30 69.5t-86 18.5z" />
    <glyph glyph-name="uni215F" unicode="&#x215f;" horiz-adv-x="1071" 
d="M602 0h-313l876 1544h314zM543 686h-269v561l-231 -61v241l500 144v-885z" />
    <glyph glyph-name="arrowleft" unicode="&#x2190;" horiz-adv-x="1736" 
d="M653 270l-602 502l602 502h416l-430 -359h991v-286h-991l430 -359h-416z" />
    <glyph glyph-name="arrowup" unicode="&#x2191;" horiz-adv-x="1228" 
d="M758 0h-287v991l-358 -430v416l501 602l502 -602v-416l-358 430v-991z" />
    <glyph glyph-name="arrowright" unicode="&#x2192;" horiz-adv-x="1736" 
d="M1083 270h-415l430 359h-992v286h992l-430 359h415l603 -502z" />
    <glyph glyph-name="arrowdown" unicode="&#x2193;" horiz-adv-x="1228" 
d="M614 -35l-501 602v416l358 -430v991h287v-991l358 430v-416z" />
    <glyph glyph-name="arrowboth" unicode="&#x2194;" horiz-adv-x="2355" 
d="M653 270l-602 502l602 502h416l-430 -359h1077l-430 359h416l602 -502l-602 -502h-416l430 359h-1077l430 -359h-416z" />
    <glyph glyph-name="arrowupdn" unicode="&#x2195;" horiz-adv-x="1228" 
d="M614 -354l-501 602v416l358 -431v1078l-358 -430v415l501 602l502 -602v-415l-358 430v-1078l358 431v-416z" />
    <glyph glyph-name="uni2196" unicode="&#x2196;" horiz-adv-x="1327" 
d="M1225 115l-772 772l36 -412h-268l-82 928l928 -82v-268l-410 37l572 -572z" />
    <glyph glyph-name="uni2197" unicode="&#x2197;" horiz-adv-x="1327" 
d="M102 115l-4 403l572 572l-410 -37v268l928 82l-82 -928h-268l36 412z" />
    <glyph glyph-name="uni2198" unicode="&#x2198;" horiz-adv-x="1327" 
d="M1188 197l-928 82v268l410 -37l-572 571l4 404l772 -772l-36 411h268z" />
    <glyph glyph-name="uni2199" unicode="&#x2199;" horiz-adv-x="1327" 
d="M1067 279l-928 -82l82 927h268l-36 -411l772 772l4 -404l-572 -571l410 37v-268z" />
    <glyph glyph-name="partialdiff" unicode="&#x2202;" horiz-adv-x="1269" 
d="M627 -35q-272 0 -403.5 136t-131.5 405q0 115 27 207t81.5 161.5t144 107.5t208.5 38q87 0 242 -41q-21 91 -66.5 157.5t-113.5 106t-143 61t-171 31.5v252q197 -17 344 -72.5t245.5 -143t159.5 -216.5t87 -282.5t26 -350.5q0 -265 -135 -411t-401 -146zM395 506
q0 -134 50 -200t182 -66q129 0 181 70.5t52 205.5q0 102 -16 184q-37 14 -112 31t-126 17q-121 0 -166 -58.5t-45 -183.5z" />
    <glyph glyph-name="uni2206" unicode="&#x2206;" horiz-adv-x="1662" 
d="M1663 0h-1663l682 1544h299zM1200 289l-369 833l-368 -833h737z" />
    <glyph glyph-name="product" unicode="&#x220f;" horiz-adv-x="1581" 
d="M164 1544h1253v-1810h-307v1517h-639v-1517h-307v1810z" />
    <glyph glyph-name="summation" unicode="&#x2211;" horiz-adv-x="1380" 
d="M1309 -266h-1227v278l561 635l-537 623v274h1170v-289h-752l525 -608l-551 -624h811v-289z" />
    <glyph glyph-name="minus" unicode="&#x2212;" horiz-adv-x="1433" 
d="M1300 637h-1167v270h1167v-270z" />
    <glyph glyph-name="radical" unicode="&#x221a;" horiz-adv-x="1433" 
d="M805 0h-418l-250 637h-137v270h352l244 -618l596 1450h328z" />
    <glyph glyph-name="infinity" unicode="&#x221e;" horiz-adv-x="2070" 
d="M547 268q-436 0 -436 422q0 199 104.5 310.5t331.5 111.5q123 0 243.5 -65t247.5 -183q139 124 249 186t237 62q215 0 325.5 -116t110.5 -306q0 -188 -115 -305t-321 -117q-132 0 -247.5 60t-244.5 188q-132 -124 -245 -186t-240 -62zM1524 856q-73 0 -146.5 -37.5
t-173.5 -130.5q113 -102 176 -133t144 -31q76 0 121 47t45 119q0 79 -42.5 122.5t-123.5 43.5zM547 856q-83 0 -124.5 -43t-41.5 -123q0 -166 166 -166q72 0 142 35.5t177 128.5q-114 97 -186 132.5t-133 35.5z" />
    <glyph glyph-name="integral" unicode="&#x222b;" horiz-adv-x="1228" 
d="M74 -385v268q131 -35 225 -35q135 0 154 105q12 63 12 293v936q0 204 100.5 300.5t265.5 96.5q139 0 324 -43v-264q-136 33 -219 33q-85 0 -125.5 -40.5t-44.5 -156.5q-2 -49 -2 -334v-567q0 -223 -4 -311q-6 -146 -102 -235t-242 -89q-179 0 -342 43z" />
    <glyph glyph-name="approxequal" unicode="&#x2248;" horiz-adv-x="1433" 
d="M133 1069q137 141 303 141q83 0 147.5 -15t174.5 -71q96 -49 136.5 -63t96.5 -14q48 0 95.5 16t90 45.5t67.5 50.5t56 51v-288q-56 -58 -136.5 -101t-172.5 -43q-69 0 -121 18.5t-184 82.5q-86 41 -134 52t-116 11q-47 0 -94 -16t-89 -46t-65 -49.5t-55 -50.5v289z
M436 498q-48 0 -95 -16t-88.5 -46t-65 -50.5t-54.5 -51.5v289q138 143 303 143q70 0 122.5 -17.5t189.5 -82.5q89 -41 134 -52.5t109 -11.5q48 0 95.5 16t90 45t67.5 50t56 51v-289q-151 -141 -309 -141q-78 0 -141 15.5t-174 70.5q-97 48 -140.5 63t-99.5 15z" />
    <glyph glyph-name="notequal" unicode="&#x2260;" horiz-adv-x="1433" 
d="M133 1130h676l197 295h268l-197 -295h223v-266h-399l-121 -184h520v-266h-696l-194 -295h-269l195 295h-203v266h379l121 184h-500v266z" />
    <glyph glyph-name="lessequal" unicode="&#x2264;" horiz-adv-x="1433" 
d="M133 946l1167 406v-265l-796 -274l796 -272v-265l-1167 404v266zM1300 0h-1167v258h1167v-258z" />
    <glyph glyph-name="greaterequal" unicode="&#x2265;" horiz-adv-x="1433" 
d="M1300 680l-1167 -404v265l797 272l-797 274v265l1167 -406v-266zM1300 0h-1167v258h1167v-258z" />
    <glyph glyph-name="lozenge" unicode="&#x25ca;" horiz-adv-x="1433" 
d="M717 -35l-631 809l631 813l631 -813zM717 428l272 346l-272 350l-273 -350z" />
    <glyph glyph-name="fi" unicode="&#xfb01;" horiz-adv-x="1304" 
d="M432 0h-299v1067q0 133 23 209q11 35 32 66t43.5 54.5t59.5 46t63.5 37.5t74.5 31.5t73 24.5t77.5 20.5t70 16.5t67.5 14v-291q-183 -39 -238 -79q-36 -27 -43 -72q-4 -29 -4 -78h287v-274h-287v-793zM872 0v1081h299v-1081h-299zM872 1229v315h299v-315h-299z" />
    <glyph glyph-name="fl" unicode="&#xfb02;" horiz-adv-x="1304" 
d="M432 0h-299v1067q0 133 23 209q11 35 32 66t43.5 54.5t59.5 46t63.5 37.5t74.5 31.5t73 24.5t77.5 20.5t70 16.5t67.5 14v-291q-183 -39 -238 -79q-36 -27 -43 -72q-4 -29 -4 -78h287v-274h-287v-793zM872 1544h299v-1544h-299v1544z" />
    <glyph glyph-name="zero.tf" horiz-adv-x="1331" 
d="M260 115q-39 44 -65.5 100t-41 109t-22 133.5t-9 143.5t-1.5 169q0 242 19.5 386t88.5 237q140 186 433 186q246 0 389 -137q54 -52 87.5 -120t48.5 -163t19 -176t4 -213q0 -254 -25.5 -392.5t-115.5 -248.5q-132 -164 -407 -164q-133 0 -232 34t-170 116zM428 764
q0 -134 2 -195.5t16 -130.5t43 -110q56 -78 173 -78q114 0 172 78q46 61 57.5 155t11.5 293q0 188 -10 281t-49 153q-56 84 -182 84q-75 0 -122 -26.5t-75 -93.5q-17 -41 -25.5 -113t-10 -129t-1.5 -168z" />
    <glyph glyph-name="one.tf" horiz-adv-x="1331" 
d="M627 1188l-453 -137v303l760 233v-1296h301v-291h-967v291h359v897z" />
    <glyph glyph-name="two.tf" horiz-adv-x="1331" 
d="M106 287q469 445 631 645q47 58 68.5 99.5t21.5 92.5q0 47 -17 79.5t-41 49.5t-64.5 26t-71 11t-78.5 2q-124 0 -420 -57v287q285 57 451 57q161 0 256.5 -28t169.5 -93q61 -53 93 -136.5t32 -168.5q0 -147 -54 -252t-178 -237q-138 -147 -385 -377h670v-287h-1084v287z
" />
    <glyph glyph-name="three.tf" horiz-adv-x="1331" 
d="M123 299q271 -49 442 -49q50 0 88 3.5t80.5 15.5t70 33t46 58.5t18.5 88.5q0 42 -13 74t-39.5 51.5t-54 31.5t-68 17t-69 6.5t-69.5 1.5h-276v276h440l49 68q82 110 82 174q0 35 -7.5 57t-29.5 43q-50 45 -219 45q-142 0 -459 -61v285q332 61 465 61q158 0 262 -28.5
t172 -92.5q119 -110 119 -284q0 -66 -21.5 -118.5t-66.5 -123.5q-35 -54 -80 -119q97 -68 144 -156.5t47 -207.5q0 -130 -48.5 -226t-134.5 -151t-191 -81t-231 -26q-182 0 -448 47v287z" />
    <glyph glyph-name="four.tf" horiz-adv-x="1331" 
d="M66 291v291l708 962h371l-709 -964h418v270h303v-850h-303v291h-788z" />
    <glyph glyph-name="five.tf" horiz-adv-x="1331" 
d="M170 6v287q219 -43 403 -43q67 0 115.5 9t91.5 32t64.5 68.5t21.5 113.5q0 51 -13.5 85t-49.5 63t-109 40t-202 11h-302v872h947v-284h-643v-304h137q257 0 400 -117t143 -366q0 -134 -42 -233t-120.5 -158.5t-182 -88t-235.5 -28.5q-180 0 -424 41z" />
    <glyph glyph-name="six.tf" horiz-adv-x="1331" 
d="M272 104q-145 148 -145 459q0 306 60.5 478t193.5 280q126 103 305 162t434 88v-285q-574 -67 -641 -336q108 6 213 6q154 0 246.5 -31.5t155.5 -97.5q125 -131 125 -356q0 -243 -143.5 -374.5t-389.5 -131.5q-143 0 -242 31.5t-172 107.5zM434 526q0 -144 56.5 -214
t195.5 -70q225 0 225 229q0 67 -16 110t-51 65t-78 30t-111 8q-94 0 -217 -6q-4 -43 -4 -152z" />
    <glyph glyph-name="seven.tf" horiz-adv-x="1331" 
d="M541 0h-357l701 1253h-809v291h1167v-284z" />
    <glyph glyph-name="eight.tf" horiz-adv-x="1331" 
d="M662 -37q-98 0 -179.5 14t-154 48t-122.5 86t-79 132t-29 183q0 118 52 204.5t153 164.5q-180 108 -180 344q0 95 28.5 170.5t77.5 125.5t118.5 83t147.5 47t169 14q112 0 207 -24t172 -74.5t121 -137.5t44 -204q0 -54 -13 -100.5t-42.5 -91.5t-54 -74t-70.5 -78
q205 -128 205 -369q0 -100 -30.5 -179.5t-82.5 -131.5t-125.5 -87t-155.5 -50t-177 -15zM403 438q0 -63 18.5 -105t56.5 -63t82 -29t108 -8q262 0 262 201q0 59 -20 97t-68 67q-67 40 -312 78q-65 -54 -96 -107.5t-31 -130.5zM473 1257q-30 -25 -38.5 -55t-8.5 -80
q0 -51 13.5 -81.5t47.5 -53.5q61 -43 314 -88q53 59 78.5 108t25.5 115q0 104 -65 145.5t-176 41.5q-133 0 -191 -52z" />
    <glyph glyph-name="nine.tf" horiz-adv-x="1331" 
d="M575 551q-227 0 -344.5 131.5t-117.5 361.5q0 262 130.5 398.5t393.5 136.5q99 0 180 -20.5t139.5 -56.5t102.5 -91t71 -117t44 -141t23.5 -157t6.5 -171q0 -112 -5 -195.5t-21 -178t-43.5 -162t-76 -132t-116 -104.5t-165 -64t-220.5 -24q-173 0 -389 47v285
q208 -47 377 -47q150 0 221 41q131 77 131 282q-167 -22 -322 -22zM645 1303q-225 0 -225 -259q0 -126 49 -172.5t176 -46.5q102 0 252 21q0 65 -1.5 101t-7.5 99.5t-22.5 100.5t-43 77.5t-71.5 59.5t-106 19z" />
    <glyph glyph-name="zero.numr" horiz-adv-x="1024" 
d="M512 664q-114 0 -192.5 29.5t-123.5 89.5t-64 140.5t-19 194.5q0 224 90.5 336.5t308.5 112.5q214 0 306.5 -114t92.5 -335q0 -212 -96.5 -333t-302.5 -121zM371 1118q0 -82 8.5 -125.5t34.5 -68.5q34 -31 98 -31q39 0 66.5 14t41.5 33t22 52.5t9.5 59.5t1.5 66
q0 42 -1.5 66.5t-9 57.5t-21.5 51t-41.5 31t-67.5 13q-29 0 -51.5 -7t-37.5 -16.5t-25 -28t-15.5 -34t-8 -42t-3 -44t-0.5 -47.5z" />
    <glyph glyph-name="one.numr" horiz-adv-x="675" 
d="M543 686h-269v561l-231 -61v241l500 144v-885z" />
    <glyph glyph-name="two.numr" horiz-adv-x="897" 
d="M88 893q221 157 299 225q61 53 85 83.5t24 58.5q0 36 -25 55q-23 18 -106 18q-87 0 -263 -43v234q183 43 295 43q70 0 130 -13.5t112 -42.5t82.5 -83t30.5 -128q0 -67 -21.5 -114t-71.5 -105q-68 -76 -186 -174h330v-221h-715v207z" />
    <glyph glyph-name="three.numr" horiz-adv-x="921" 
d="M102 899q168 -33 269 -33q97 0 131 19q33 18 33 61q0 34 -27 53q-29 19 -119 19h-190v196h282l23 31q20 29 20 55q0 33 -22 48q-26 16 -111 16q-107 0 -282 -39v201q195 41 309 41q360 0 360 -219q0 -72 -30 -123q-14 -24 -56 -80q101 -82 101 -213q0 -64 -24 -112.5
t-62 -77.5t-91.5 -47t-105.5 -24.5t-111 -6.5q-63 0 -155 10t-142 20v205z" />
    <glyph glyph-name="four.numr" horiz-adv-x="937" 
d="M51 813v227l375 504h317l-378 -508h186v131h256v-481h-256v127h-500z" />
    <glyph glyph-name="five.numr" horiz-adv-x="905" 
d="M125 684v205q161 -23 256 -23q94 0 125 19q26 17 26 59q0 44 -30 60q-31 16 -223 16h-146v524h631v-215h-381v-115h80q71 0 125.5 -11t102.5 -37.5t74 -78t26 -126.5q0 -73 -22.5 -127.5t-58.5 -86.5t-91 -51t-110.5 -25.5t-125.5 -6.5q-110 0 -258 20z" />
    <glyph glyph-name="six.numr" horiz-adv-x="950" 
d="M483 664q-188 0 -279 77.5t-91 259.5q0 165 26 256t117 162q150 119 537 150v-205q-209 -17 -304 -53q-90 -34 -102 -94q86 4 172 4q291 0 291 -267q0 -80 -29 -138t-81.5 -90.5t-115.5 -47t-141 -14.5zM367 983q0 -74 22 -104.5t94 -30.5q58 0 87.5 24t29.5 80
q0 61 -28.5 79t-94.5 18q-35 0 -108 -5q-2 -25 -2 -61z" />
    <glyph glyph-name="seven.numr" horiz-adv-x="831" 
d="M403 686h-303l396 641h-455v217h754v-215z" />
    <glyph glyph-name="eight.numr" horiz-adv-x="1003" 
d="M506 664q-60 0 -108 4.5t-101 20t-88 41.5t-58.5 72t-23.5 109q0 72 29 116.5t94 94.5q-59 32 -81 81.5t-22 123.5q0 57 22 101t57 69.5t84 42t95 22t99 5.5q65 0 122 -10.5t112 -34.5t87.5 -73t32.5 -118q0 -109 -102 -211q63 -35 92 -85t29 -124q0 -60 -23 -105
t-59 -71.5t-87 -43t-99 -22t-103 -5.5zM375 932q0 -38 20.5 -58.5t45.5 -25t65 -4.5q123 0 123 94q0 49 -39 68q-30 15 -152 30q-33 -25 -48 -47t-15 -57zM504 1384q-117 0 -117 -88q0 -54 35 -73q31 -16 145 -31q19 21 27.5 32t17.5 31.5t9 40.5q0 51 -30.5 69.5
t-86.5 18.5z" />
    <glyph glyph-name="nine.numr" horiz-adv-x="950" 
d="M375 989q-156 0 -214.5 63t-58.5 218q0 82 28.5 141t80.5 92.5t116 48.5t144 15q367 0 367 -400q0 -71 -2 -114t-12 -99t-29 -96q-92 -194 -385 -194q-126 0 -263 28v205q159 -31 226 -31q36 0 60.5 1.5t56 9.5t50.5 21.5t32.5 39.5t13.5 63q-118 -12 -211 -12zM471 1376
q-58 0 -88.5 -22.5t-30.5 -79.5q0 -61 20.5 -84t80.5 -23q45 0 133 9q0 114 -23 157q-24 43 -92 43z" />
    <glyph glyph-name="zero.dnom" horiz-adv-x="1024" 
d="M512 -23q-114 0 -192.5 29.5t-123.5 89.5t-64 141t-19 195q0 224 90.5 336.5t308.5 112.5q214 0 306.5 -114t92.5 -335q0 -103 -22.5 -184.5t-69 -143t-124.5 -94.5t-183 -33zM371 432q0 -82 8.5 -125.5t34.5 -68.5q34 -31 98 -31q39 0 66.5 14t41.5 33t22 52.5t9.5 59.5
t1.5 66q0 42 -1.5 66.5t-9 57.5t-21.5 51t-41.5 31t-67.5 13q-29 0 -51.5 -7t-37.5 -16.5t-25 -28t-15.5 -34t-8 -42t-3 -44t-0.5 -47.5z" />
    <glyph glyph-name="one.dnom" horiz-adv-x="675" 
d="M543 0h-269v561l-231 -61v241l500 144v-885z" />
    <glyph glyph-name="two.dnom" horiz-adv-x="897" 
d="M88 207q221 157 299 225q62 54 85.5 83.5t23.5 57.5q0 37 -25 56q-23 18 -106 18q-87 0 -263 -43v234q183 43 295 43q70 0 130 -13.5t112 -42.5t82.5 -83t30.5 -128q0 -67 -21.5 -114t-71.5 -105q-68 -76 -186 -174h330v-221h-715v207z" />
    <glyph glyph-name="three.dnom" horiz-adv-x="921" 
d="M102 213q168 -33 269 -33q97 0 131 19q33 18 33 61q0 34 -27 53q-29 19 -119 19h-190v196h282l23 31q20 29 20 55q0 33 -22 48q-26 16 -111 16q-107 0 -282 -39v201q195 41 309 41q360 0 360 -219q0 -72 -30 -123q-14 -24 -56 -80q101 -82 101 -213q0 -64 -24 -112.5
t-62 -77.5t-91.5 -47.5t-105.5 -25t-111 -6.5q-62 0 -154 10.5t-143 20.5v205z" />
    <glyph glyph-name="four.dnom" horiz-adv-x="937" 
d="M51 127v227l375 504h317l-378 -508h186v131h256v-481h-256v127h-500z" />
    <glyph glyph-name="five.dnom" horiz-adv-x="905" 
d="M125 -2v205q161 -23 256 -23q94 0 125 19q26 17 26 59q0 43 -30 59q-33 17 -223 17h-146v524h631v-215h-381v-115h80q71 0 125.5 -11t102.5 -38t74 -78.5t26 -126.5q0 -73 -22.5 -127.5t-58.5 -86.5t-91 -51t-110.5 -25.5t-125.5 -6.5q-103 0 -258 21z" />
    <glyph glyph-name="six.dnom" horiz-adv-x="950" 
d="M483 -23q-188 0 -279 78t-91 260q0 165 26 256t117 162q150 119 537 150v-205q-209 -17 -304 -53q-90 -34 -102 -95q107 5 172 5q291 0 291 -267q0 -80 -29 -138t-81.5 -90.5t-115.5 -47.5t-141 -15zM367 297q0 -74 22 -104.5t94 -30.5q58 0 87.5 24t29.5 80
q0 61 -28 78.5t-95 17.5q-50 0 -108 -4q-2 -25 -2 -61z" />
    <glyph glyph-name="seven.dnom" horiz-adv-x="831" 
d="M403 0h-303l396 641h-455v217h754v-215z" />
    <glyph glyph-name="eight.dnom" horiz-adv-x="1003" 
d="M506 -23q-60 0 -108 4.5t-101 20.5t-88 42t-58.5 72t-23.5 109q0 72 29 116.5t94 94.5q-59 32 -81 81.5t-22 123.5q0 57 22 101t57 69.5t84 42t95 22t99 5.5q65 0 122 -10.5t112 -34.5t87.5 -73t32.5 -118q0 -109 -102 -211q63 -35 92 -85t29 -124t-33.5 -125.5
t-91 -76.5t-117 -35.5t-129.5 -10.5zM375 246q0 -38 20.5 -58.5t45.5 -25t65 -4.5q123 0 123 94q0 48 -39 67q-33 16 -152 31q-33 -25 -48 -47t-15 -57zM504 698q-117 0 -117 -88q0 -54 35 -73q31 -16 145 -31q19 21 27.5 32t17.5 31.5t9 40.5q0 51 -30.5 69.5t-86.5 18.5z
" />
    <glyph glyph-name="nine.dnom" horiz-adv-x="950" 
d="M375 303q-156 0 -214.5 63t-58.5 218q0 82 28.5 141t80.5 92.5t116 48.5t144 15q367 0 367 -400q0 -71 -2 -114t-12 -99t-29 -96q-92 -195 -385 -195q-121 0 -263 29v205q159 -31 226 -31q36 0 60.5 1.5t56 9.5t50.5 21.5t32.5 39.5t13.5 63q-118 -12 -211 -12zM471 690
q-58 0 -88.5 -22.5t-30.5 -79.5q0 -61 20.5 -84t80.5 -23q55 0 133 8q0 115 -23 158q-24 43 -92 43z" />
    <glyph glyph-name="IJacute" horiz-adv-x="1421" 
d="M539 51q204 67 309 133q40 25 64 52t38 67q21 60 21 205v1036h307v-1059q0 -86 -1.5 -131.5t-10.5 -108t-27 -104.5q-23 -53 -57 -92t-95 -74q-101 -59 -268.5 -125.5t-279.5 -99.5v301zM455 0h-308v1544h308v-1544zM1278 1630h-320l289 316h332zM121 1630l289 316h331
l-301 -316h-319z" />
    <glyph glyph-name="ijacute" horiz-adv-x="1142" 
d="M991 -98q-17 -60 -64 -111.5t-100.5 -85.5t-129.5 -64t-130.5 -46t-124.5 -33v274q131 39 185 78q51 37 67 100q13 49 13 191v876h303v-936q0 -181 -19 -243zM133 1081h299v-1081h-299v1081zM1001 1229h-319l289 315h332zM111 1229l288 315h332l-301 -315h-319z" />
    <glyph glyph-name="space.tf" horiz-adv-x="665" 
 />
    <glyph glyph-name="period.tf" horiz-adv-x="665" 
d="M504 0h-340v365h340v-365z" />
    <glyph glyph-name="comma.tf" horiz-adv-x="665" 
d="M377 -385h-230q16 79 22.5 115.5t15 117.5t8.5 158v359h311v-310q0 -88 -25 -183.5t-47 -144.5t-55 -112z" />
    <glyph glyph-name="colon.tf" horiz-adv-x="665" 
d="M504 0h-340v365h340v-365zM504 717h-340v364h340v-364z" />
    <glyph glyph-name="dollar.tf" horiz-adv-x="1331" 
d="M459 692q-74 26 -123.5 48.5t-99 57.5t-77.5 76.5t-45.5 101.5t-17.5 138q0 211 109 325.5t317 123.5v192h273v-196q150 -19 389 -72v-289q-370 88 -531 88q-86 0 -126.5 -6t-71.5 -29q-47 -32 -47 -116q0 -85 53 -115q59 -33 178 -74l201 -69q100 -34 158.5 -59.5
t103.5 -61.5q63 -52 97 -134t34 -180q0 -202 -116.5 -314t-321.5 -140v-219h-273v215q-153 13 -411 55v291q335 -72 540 -72q42 0 74.5 2.5t71.5 12.5t64.5 27t43 49.5t17.5 76.5q0 65 -37 102q-5 5 -10.5 9.5t-13.5 9t-15 8t-19 8t-20 8t-23.5 9t-24.5 8.5l-28.5 9.5
t-30.5 10.5z" />
    <glyph glyph-name="Euro.tf" horiz-adv-x="1331" 
d="M125 750q0 406 90 569q48 87 110.5 140.5t173 84.5t273.5 31q161 0 461 -53v-289q-282 51 -428 51q-39 0 -61.5 -0.5t-59 -3t-59 -8t-51.5 -14.5t-46.5 -24t-35 -35.5t-26.5 -50t-11 -65.5h544v-249h-563v-113h563v-250h-548q3 -69 22 -113q26 -59 105 -77.5t235 -18.5
q138 0 420 35v-291q-295 -35 -463 -35q-95 0 -173.5 10.5t-140 30t-109.5 51.5t-82.5 68.5t-59.5 89t-40.5 106t-24.5 125t-12 140.5t-3 158z" />
    <glyph glyph-name="sterling.tf" horiz-adv-x="1331" 
d="M1219 0h-1035v1165q0 93 20.5 167t76.5 136q59 63 138 87t220 24q156 0 496 -68v-284q-312 67 -459 67q-92 0 -138 -32t-46 -117v-156h419v-270h-419v-426h727v-293z" />
    <glyph glyph-name="yen.tf" horiz-adv-x="1331" 
d="M4 1544h346l326 -618l325 618h328l-295 -555h223v-270h-360l-76 -141v-578h-307v578l-76 141h-362v270h223z" />
    <glyph glyph-name="uni20BA.tf" horiz-adv-x="1331" 
d="M184 -25v1569h308v-274l434 133v-254l-434 -133v-121l434 133v-254l-434 -133v-399q115 0 195.5 24t133.5 82q58 65 77.5 133t27.5 195h309q-7 -157 -34.5 -271t-90.5 -198q-92 -123 -235 -182.5t-386 -59.5q-217 0 -305 10z" />
    <glyph glyph-name="uni20BD.tf" horiz-adv-x="1331" 
d="M164 0v1544h569q133 0 227 -30t162 -97q133 -130 133 -350q0 -119 -33 -204.5t-108 -155.5q-66 -62 -153.5 -89t-204.5 -32q-90 -4 -285 -4v-125h547v-250h-547v-207h-307zM711 1257h-240v-393q158 0 254 4q117 5 168 46t51 153q0 114 -55.5 152t-177.5 38z" />
    <glyph glyph-name="parenleft.case" horiz-adv-x="708" 
d="M231 -45q-60 64 -83 152.5t-23 209.5v910q0 121 23 209.5t83 152.5q79 84 184.5 126.5t235.5 66.5v-266q-66 -20 -107.5 -44.5t-65.5 -48.5t-34.5 -70.5t-13 -84.5t-2.5 -117v-758q0 -70 1 -101t7.5 -76t19.5 -64.5t38 -46t63 -43t94 -33.5v-267q-131 24 -237 66.5
t-183 126.5z" />
    <glyph glyph-name="parenright.case" horiz-adv-x="708" 
d="M57 1516v266q130 -24 235.5 -66.5t184.5 -126.5q60 -65 83.5 -153.5t23.5 -208.5v-910q0 -120 -23.5 -208.5t-83.5 -153.5q-79 -84 -184.5 -126.5t-235.5 -66.5v267q67 21 109 45t66 46.5t34.5 69.5t12.5 84t2 119v758q0 49 -0.5 76t-3.5 63t-9 55t-17 44.5t-27 40
t-39.5 31.5t-55 30t-72.5 25z" />
    <glyph glyph-name="bracketleft.case" horiz-adv-x="749" 
d="M692 -199h-555v1938h555v-266h-252v-1405h252v-267z" />
    <glyph glyph-name="bracketright.case" horiz-adv-x="749" 
d="M309 1473h-252v266h555v-1938h-555v267h252v1405z" />
    <glyph glyph-name="braceleft.case" horiz-adv-x="872" 
d="M39 905q42 3 73.5 9t67 20t55 42.5t19.5 70.5v395q0 137 66 217t198 80h297v-266h-125q-71 0 -102 -31t-31 -101v-358q0 -60 -15 -100.5t-46.5 -63.5t-69 -34t-94.5 -17q117 -13 171 -56.5t54 -156.5v-356q0 -69 30.5 -100t102.5 -31h125v-267h-297q-133 0 -198.5 81
t-65.5 218v389q0 132 -215 142v274z" />
    <glyph glyph-name="braceright.case" horiz-adv-x="872" 
d="M57 68h125q72 0 102.5 31t30.5 100v356q0 113 54.5 156.5t171.5 56.5q-56 6 -94 17t-70 34t-47 63.5t-15 100.5v358q0 70 -31 101t-102 31h-125v266h297q132 0 198 -80t66 -217v-395q0 -34 14 -59t35 -39.5t52 -24.5t56.5 -13.5t58.5 -5.5v-274q-216 -10 -216 -142v-389
q0 -137 -65.5 -218t-198.5 -81h-297v267z" />
    <glyph glyph-name="hyphen.case" horiz-adv-x="937" 
d="M836 627h-734v299h734v-299z" />
    <glyph glyph-name="endash.case" horiz-adv-x="1228" 
d="M1126 631h-1024v291h1024v-291z" />
    <glyph glyph-name="emdash.case" horiz-adv-x="2048" 
d="M2048 631h-2048v291h2048v-291z" />
    <glyph glyph-name="guillemotleft.case" horiz-adv-x="1374" 
d="M1012 348l-361 422l361 422h348l-361 -422l361 -422h-348zM68 770l360 422h348l-360 -422l360 -422h-348z" />
    <glyph glyph-name="guillemotright.case" horiz-adv-x="1374" 
d="M946 348h-348l360 422l-360 422h348l361 -422zM14 348l361 422l-361 422h348l361 -422l-361 -422h-348z" />
    <glyph glyph-name="guilsinglleft.case" horiz-adv-x="790" 
d="M776 348h-348l-360 422l360 422h348l-360 -422z" />
    <glyph glyph-name="guilsinglright.case" horiz-adv-x="790" 
d="M362 348h-348l361 422l-361 422h348l361 -422z" />
    <glyph glyph-name="questiondown.case" horiz-adv-x="1144" 
d="M227 66q-64 49 -102.5 129.5t-38.5 162.5q0 106 30 184.5t111 176.5q65 80 191 213q52 54 76 121h331q-31 -108 -112 -211q-71 -89 -215 -238q-105 -109 -105 -207q0 -36 9.5 -63t30 -43.5t40.5 -26.5t54 -14t56.5 -5t59.5 -1q136 0 379 51v-272q-242 -58 -436 -58
q-230 0 -359 101zM825 1180h-331v364h331v-364z" />
    <glyph glyph-name="exclamdown.case" horiz-adv-x="651" 
d="M154 340q0 530 6 713h299q6 -183 6 -713v-340h-311v340zM475 1180h-332v364h332v-364z" />
    </font>
</defs>
</svg>
